<svg width="31" height="36" viewBox="0 0 31 36" fill="none" xmlns="http://www.w3.org/2000/svg">
<path d="M8.20628 4.25748C13.7351 5.98069 13.9853 13.5034 13.3054 17.593C9.73616 18.8377 1.97209 18.8732 0.340363 11.192C-0.656417 6.49966 0.850276 3.38047 0.850276 3.38047C1.03175 3.19054 4.70587 3.16649 8.20628 4.25748Z" fill="#8CEA79"/>
<line x1="13.1901" y1="17.1748" x2="6.40275" y2="9.03" stroke="#00BD9F"/>
<path d="M19.3951 1.24389C12.0358 3.43653 11.7028 13.0086 12.6078 18.2123C17.3588 19.796 27.6934 19.8412 29.8653 10.0674C31.1921 4.09688 29.1866 0.127961 29.1866 0.127961C28.945 -0.113712 24.0545 -0.144318 19.3951 1.24389Z" fill="#00DD7B"/>
<line x1="13.2207" y1="17.8585" x2="22.723" y2="8.35619" stroke="#009985"/>
<path d="M2.36904 32.7135V23.4735H9.29904V25.0275H4.30104V27.3235H8.23504V28.8075H4.30104V31.1595H9.49504V32.7135H2.36904ZM19.0154 30.1655C18.838 30.7628 18.558 31.2622 18.1754 31.6635C17.7927 32.0648 17.34 32.3635 16.8174 32.5595C16.2947 32.7555 15.7207 32.8535 15.0954 32.8535C14.1807 32.8535 13.3874 32.6622 12.7154 32.2795C12.0527 31.8968 11.5394 31.3508 11.1754 30.6415C10.8207 29.9322 10.6434 29.0828 10.6434 28.0935C10.6434 27.1042 10.8207 26.2548 11.1754 25.5455C11.5394 24.8362 12.0527 24.2902 12.7154 23.9075C13.3874 23.5248 14.1714 23.3335 15.0674 23.3335C15.702 23.3335 16.276 23.4222 16.7894 23.5995C17.3027 23.7675 17.7367 24.0288 18.0914 24.3835C18.4554 24.7382 18.7214 25.1862 18.8894 25.7275L17.1394 26.4695C16.9807 25.9095 16.738 25.5128 16.4114 25.2795C16.0847 25.0368 15.6647 24.9155 15.1514 24.9155C14.6474 24.9155 14.204 25.0368 13.8214 25.2795C13.448 25.5222 13.1587 25.8815 12.9534 26.3575C12.748 26.8242 12.6454 27.4028 12.6454 28.0935C12.6454 28.7748 12.7387 29.3535 12.9254 29.8295C13.1214 30.3055 13.406 30.6648 13.7794 30.9075C14.1527 31.1502 14.61 31.2715 15.1514 31.2715C15.6554 31.2715 16.0894 31.1362 16.4534 30.8655C16.8267 30.5948 17.088 30.1842 17.2374 29.6335L19.0154 30.1655ZM24.652 23.3335C25.5667 23.3335 26.3553 23.5248 27.018 23.9075C27.6807 24.2902 28.1893 24.8362 28.544 25.5455C28.908 26.2548 29.09 27.1042 29.09 28.0935C29.09 29.0828 28.908 29.9322 28.544 30.6415C28.1893 31.3508 27.6807 31.8968 27.018 32.2795C26.3553 32.6622 25.5667 32.8535 24.652 32.8535C23.7373 32.8535 22.944 32.6622 22.272 32.2795C21.6093 31.8968 21.096 31.3508 20.732 30.6415C20.3773 29.9322 20.2 29.0828 20.2 28.0935C20.2 27.1042 20.3773 26.2548 20.732 25.5455C21.096 24.8362 21.6093 24.2902 22.272 23.9075C22.944 23.5248 23.7373 23.3335 24.652 23.3335ZM24.652 24.9155C24.1293 24.9155 23.686 25.0368 23.322 25.2795C22.958 25.5222 22.678 25.8815 22.482 26.3575C22.2953 26.8242 22.202 27.4028 22.202 28.0935C22.202 28.7748 22.2953 29.3535 22.482 29.8295C22.678 30.3055 22.958 30.6648 23.322 30.9075C23.686 31.1502 24.1293 31.2715 24.652 31.2715C25.1653 31.2715 25.604 31.1502 25.968 30.9075C26.332 30.6648 26.6073 30.3055 26.794 29.8295C26.99 29.3535 27.088 28.7748 27.088 28.0935C27.088 27.4028 26.99 26.8242 26.794 26.3575C26.6073 25.8815 26.332 25.5222 25.968 25.2795C25.604 25.0368 25.1653 24.9155 24.652 24.9155Z" fill="#009985"/>
</svg>
