<svg width="50" height="50" viewBox="0 0 50 50" fill="none" xmlns="http://www.w3.org/2000/svg">
<path d="M18.2063 7.25748C23.7351 8.98069 23.9853 16.5034 23.3054 20.593C19.7362 21.8377 11.9721 21.8732 10.3404 14.192C9.34358 9.49966 10.8503 6.38047 10.8503 6.38047C11.0318 6.19054 14.7059 6.16649 18.2063 7.25748Z" fill="#8CEA79"/>
<line x1="23.1901" y1="20.1748" x2="16.4028" y2="12.03" stroke="#00BD9F"/>
<path d="M29.3951 4.24389C22.0358 6.43653 21.7028 16.0086 22.6078 21.2123C27.3588 22.796 37.6934 22.8412 39.8653 13.0674C41.1921 7.09688 39.1866 3.12796 39.1866 3.12796C38.945 2.88629 34.0545 2.85568 29.3951 4.24389Z" fill="#00DD7B"/>
<line x1="23.2207" y1="20.8585" x2="32.723" y2="11.3562" stroke="#009985"/>
<path d="M12.369 45.7135V36.4735H19.299V38.0275H14.301V40.3235H18.235V41.8075H14.301V44.1595H19.495V45.7135H12.369ZM29.0154 43.1655C28.838 43.7628 28.558 44.2622 28.1754 44.6635C27.7927 45.0648 27.34 45.3635 26.8174 45.5595C26.2947 45.7555 25.7207 45.8535 25.0954 45.8535C24.1807 45.8535 23.3874 45.6622 22.7154 45.2795C22.0527 44.8968 21.5394 44.3508 21.1754 43.6415C20.8207 42.9322 20.6434 42.0828 20.6434 41.0935C20.6434 40.1042 20.8207 39.2548 21.1754 38.5455C21.5394 37.8362 22.0527 37.2902 22.7154 36.9075C23.3874 36.5248 24.1714 36.3335 25.0674 36.3335C25.702 36.3335 26.276 36.4222 26.7894 36.5995C27.3027 36.7675 27.7367 37.0288 28.0914 37.3835C28.4554 37.7382 28.7214 38.1862 28.8894 38.7275L27.1394 39.4695C26.9807 38.9095 26.738 38.5128 26.4114 38.2795C26.0847 38.0368 25.6647 37.9155 25.1514 37.9155C24.6474 37.9155 24.204 38.0368 23.8214 38.2795C23.448 38.5222 23.1587 38.8815 22.9534 39.3575C22.748 39.8242 22.6454 40.4028 22.6454 41.0935C22.6454 41.7748 22.7387 42.3535 22.9254 42.8295C23.1214 43.3055 23.406 43.6648 23.7794 43.9075C24.1527 44.1502 24.61 44.2715 25.1514 44.2715C25.6554 44.2715 26.0894 44.1362 26.4534 43.8655C26.8267 43.5948 27.088 43.1842 27.2374 42.6335L29.0154 43.1655ZM34.652 36.3335C35.5667 36.3335 36.3553 36.5248 37.018 36.9075C37.6807 37.2902 38.1893 37.8362 38.544 38.5455C38.908 39.2548 39.09 40.1042 39.09 41.0935C39.09 42.0828 38.908 42.9322 38.544 43.6415C38.1893 44.3508 37.6807 44.8968 37.018 45.2795C36.3553 45.6622 35.5667 45.8535 34.652 45.8535C33.7373 45.8535 32.944 45.6622 32.272 45.2795C31.6093 44.8968 31.096 44.3508 30.732 43.6415C30.3773 42.9322 30.2 42.0828 30.2 41.0935C30.2 40.1042 30.3773 39.2548 30.732 38.5455C31.096 37.8362 31.6093 37.2902 32.272 36.9075C32.944 36.5248 33.7373 36.3335 34.652 36.3335ZM34.652 37.9155C34.1293 37.9155 33.686 38.0368 33.322 38.2795C32.958 38.5222 32.678 38.8815 32.482 39.3575C32.2953 39.8242 32.202 40.4028 32.202 41.0935C32.202 41.7748 32.2953 42.3535 32.482 42.8295C32.678 43.3055 32.958 43.6648 33.322 43.9075C33.686 44.1502 34.1293 44.2715 34.652 44.2715C35.1653 44.2715 35.604 44.1502 35.968 43.9075C36.332 43.6648 36.6073 43.3055 36.794 42.8295C36.99 42.3535 37.088 41.7748 37.088 41.0935C37.088 40.4028 36.99 39.8242 36.794 39.3575C36.6073 38.8815 36.332 38.5222 35.968 38.2795C35.604 38.0368 35.1653 37.9155 34.652 37.9155Z" fill="#009985"/>
<path d="M13.3906 33V28.402C13.3906 28.2333 13.3906 28.061 13.3906 27.885C13.398 27.7017 13.4053 27.5147 13.4126 27.324C13.1633 27.5513 12.8846 27.7493 12.5766 27.918C12.2686 28.0867 11.9533 28.204 11.6306 28.27L11.4326 26.994C11.6013 26.9793 11.7883 26.9317 11.9936 26.851C12.2063 26.763 12.419 26.6603 12.6316 26.543C12.8516 26.4183 13.0496 26.29 13.2256 26.158C13.409 26.0187 13.5483 25.8793 13.6436 25.74H14.8756V33H13.3906ZM19.2978 33.11C18.3665 33.11 17.6478 32.7947 17.1418 32.164C16.6431 31.5333 16.3938 30.602 16.3938 29.37C16.3938 28.138 16.6431 27.2067 17.1418 26.576C17.6478 25.9453 18.3665 25.63 19.2978 25.63C20.2291 25.63 20.9441 25.9453 21.4428 26.576C21.9488 27.2067 22.2018 28.138 22.2018 29.37C22.2018 30.602 21.9488 31.5333 21.4428 32.164C20.9441 32.7947 20.2291 33.11 19.2978 33.11ZM19.2978 31.889C19.6131 31.889 19.8698 31.801 20.0678 31.625C20.2731 31.4417 20.4271 31.1667 20.5298 30.8C20.6325 30.426 20.6838 29.9493 20.6838 29.37C20.6838 28.7907 20.6325 28.3177 20.5298 27.951C20.4271 27.577 20.2731 27.302 20.0678 27.126C19.8698 26.9427 19.6131 26.851 19.2978 26.851C18.9825 26.851 18.7221 26.9427 18.5168 27.126C18.3115 27.302 18.1575 27.577 18.0548 27.951C17.9595 28.3177 17.9118 28.7907 17.9118 29.37C17.9118 29.9493 17.9595 30.426 18.0548 30.8C18.1575 31.1667 18.3115 31.4417 18.5168 31.625C18.7221 31.801 18.9825 31.889 19.2978 31.889ZM26.291 33.11C25.3596 33.11 24.641 32.7947 24.135 32.164C23.6363 31.5333 23.387 30.602 23.387 29.37C23.387 28.138 23.6363 27.2067 24.135 26.576C24.641 25.9453 25.3596 25.63 26.291 25.63C27.2223 25.63 27.9373 25.9453 28.436 26.576C28.942 27.2067 29.195 28.138 29.195 29.37C29.195 30.602 28.942 31.5333 28.436 32.164C27.9373 32.7947 27.2223 33.11 26.291 33.11ZM26.291 31.889C26.6063 31.889 26.863 31.801 27.061 31.625C27.2663 31.4417 27.4203 31.1667 27.523 30.8C27.6256 30.426 27.677 29.9493 27.677 29.37C27.677 28.7907 27.6256 28.3177 27.523 27.951C27.4203 27.577 27.2663 27.302 27.061 27.126C26.863 26.9427 26.6063 26.851 26.291 26.851C25.9756 26.851 25.7153 26.9427 25.51 27.126C25.3046 27.302 25.1506 27.577 25.048 27.951C24.9526 28.3177 24.905 28.7907 24.905 29.37C24.905 29.9493 24.9526 30.426 25.048 30.8C25.1506 31.1667 25.3046 31.4417 25.51 31.625C25.7153 31.801 25.9756 31.889 26.291 31.889ZM31.7331 33L36.6281 25.74H37.8381L32.9431 33H31.7331ZM32.0961 25.63C32.4921 25.63 32.8331 25.7143 33.1191 25.883C33.4125 26.0517 33.6361 26.29 33.7901 26.598C33.9515 26.906 34.0321 27.2653 34.0321 27.676C34.0321 28.0867 33.9515 28.446 33.7901 28.754C33.6361 29.0547 33.4125 29.293 33.1191 29.469C32.8331 29.6377 32.4921 29.722 32.0961 29.722C31.7075 29.722 31.3665 29.6377 31.0731 29.469C30.7798 29.293 30.5525 29.0547 30.3911 28.754C30.2371 28.446 30.1601 28.0867 30.1601 27.676C30.1601 27.2653 30.2371 26.906 30.3911 26.598C30.5525 26.29 30.7798 26.0517 31.0731 25.883C31.3665 25.7143 31.7075 25.63 32.0961 25.63ZM32.0961 26.675C31.9348 26.675 31.7955 26.7153 31.6781 26.796C31.5608 26.8693 31.4728 26.983 31.4141 27.137C31.3555 27.2837 31.3261 27.4633 31.3261 27.676C31.3261 27.8813 31.3555 28.061 31.4141 28.215C31.4728 28.3617 31.5608 28.4753 31.6781 28.556C31.7955 28.6293 31.9348 28.666 32.0961 28.666C32.2648 28.666 32.4041 28.6293 32.5141 28.556C32.6315 28.4753 32.7195 28.3617 32.7781 28.215C32.8368 28.061 32.8661 27.8813 32.8661 27.676C32.8661 27.4633 32.8368 27.2837 32.7781 27.137C32.7195 26.983 32.6315 26.8693 32.5141 26.796C32.4041 26.7153 32.2648 26.675 32.0961 26.675ZM37.4641 29.018C37.8528 29.018 38.1901 29.106 38.4761 29.282C38.7695 29.4507 38.9968 29.689 39.1581 29.997C39.3195 30.2977 39.4001 30.6533 39.4001 31.064C39.4001 31.4747 39.3195 31.834 39.1581 32.142C38.9968 32.45 38.7695 32.6883 38.4761 32.857C38.1901 33.0257 37.8528 33.11 37.4641 33.11C37.0755 33.11 36.7345 33.0257 36.4411 32.857C36.1478 32.6883 35.9205 32.45 35.7591 32.142C35.6051 31.834 35.5281 31.4747 35.5281 31.064C35.5281 30.6533 35.6051 30.2977 35.7591 29.997C35.9205 29.689 36.1478 29.4507 36.4411 29.282C36.7345 29.106 37.0755 29.018 37.4641 29.018ZM37.4641 30.074C37.2955 30.074 37.1525 30.1143 37.0351 30.195C36.9251 30.2683 36.8408 30.3783 36.7821 30.525C36.7235 30.6717 36.6941 30.8513 36.6941 31.064C36.6941 31.2693 36.7235 31.449 36.7821 31.603C36.8408 31.757 36.9251 31.8743 37.0351 31.955C37.1525 32.0283 37.2955 32.065 37.4641 32.065C37.6328 32.065 37.7721 32.0283 37.8821 31.955C37.9995 31.8743 38.0875 31.757 38.1461 31.603C38.2048 31.449 38.2341 31.2693 38.2341 31.064C38.2341 30.8513 38.2048 30.6717 38.1461 30.525C38.0875 30.3783 37.9995 30.2683 37.8821 30.195C37.7721 30.1143 37.6328 30.074 37.4641 30.074Z" fill="#00BD9F"/>
</svg>
