<svg width="50" height="50" viewBox="0 0 50 50" fill="none" xmlns="http://www.w3.org/2000/svg">
<g clip-path="url(#clip0_2984_185004)">
<path d="M25.0017 49.3614C38.4581 49.3614 49.3667 38.4529 49.3667 24.9965C49.3667 11.54 38.4581 0.63147 25.0017 0.63147C11.5453 0.63147 0.636719 11.54 0.636719 24.9965C0.636719 38.4529 11.5453 49.3614 25.0017 49.3614Z" fill="white"/>
<path d="M24.9991 49.9929C24.3447 49.9929 23.692 49.9665 23.0535 49.9171H23.0306C22.9124 49.9047 22.796 49.8959 22.6831 49.8836C22.4361 49.8589 22.1363 49.8289 21.8205 49.7883C21.63 49.7636 21.4219 49.7372 21.1996 49.7037C21.1467 49.6966 21.085 49.6878 21.0232 49.6772L20.9827 49.6701C20.614 49.6119 20.2736 49.5484 19.9419 49.4779C19.6156 49.4108 19.321 49.3403 19.0512 49.2733C18.7742 49.2062 18.4991 49.1339 18.2309 49.0598L18.201 49.051C7.92262 46.1511 0.623526 37.0387 0.0396696 26.3741C0.0255583 26.1148 0.0149747 25.859 0.009683 25.5944V25.508C-0.000900507 25.1305 -0.000900508 24.7478 0.0114469 24.3368C0.0185026 24.0634 0.03085 23.7847 0.0484892 23.483C0.0978789 22.6311 0.19313 21.7738 0.33248 20.9324C1.06098 16.4785 2.99952 12.2927 5.93645 8.83016C6.30334 8.39977 6.67906 7.98525 7.05477 7.59895C7.11651 7.53368 7.18177 7.46842 7.24704 7.40139L7.26468 7.38375C7.41108 7.23558 7.55749 7.09094 7.70918 6.9463L7.72506 6.93042C7.92791 6.73639 8.13958 6.54236 8.37242 6.33598C8.66875 6.06787 8.98097 5.80328 9.29318 5.5528L9.35845 5.50165C9.62303 5.28998 9.87351 5.10477 10.057 4.96895C10.2422 4.8296 10.438 4.68672 10.6302 4.5509L10.6549 4.5315L10.7907 4.43624C11.9197 3.64954 13.1244 2.95455 14.3733 2.36893C14.5267 2.29661 14.6819 2.22429 14.8389 2.1555C15.1123 2.03202 15.3999 1.90855 15.6874 1.7939C15.8761 1.71805 16.0543 1.64925 16.2307 1.58575C16.2906 1.56282 16.3594 1.53813 16.4282 1.51167L16.5482 1.46757C19.0741 0.562682 21.7164 0.0723126 24.4064 0.00704769C31.1622 -0.155233 37.5582 2.35129 42.4125 7.06095C42.6982 7.33789 42.9699 7.61482 43.2239 7.8847C43.4073 8.07521 43.589 8.27276 43.7725 8.4862C43.7936 8.50913 43.8801 8.60791 43.8801 8.60791C44.0282 8.77901 44.2487 9.03478 44.4763 9.32229C44.7991 9.72094 45.1131 10.1372 45.4076 10.557C45.6528 10.9028 45.898 11.2679 46.1308 11.6383C46.2931 11.8959 46.4448 12.1428 46.5895 12.3915C46.7112 12.5979 46.8152 12.7813 46.9158 12.9665C47.0375 13.1853 47.1627 13.4216 47.295 13.6827L47.9759 15.0197L47.9794 15.1468C48.7256 16.886 49.2706 18.7063 49.6005 20.562C49.6728 20.9641 49.7345 21.3681 49.7839 21.7597C49.8192 22.0102 49.8492 22.2783 49.8792 22.5958C49.9409 23.1408 49.9779 23.7176 49.9938 24.3985C50.0626 27.3125 49.6304 30.1877 48.7079 32.9429C48.6444 33.1352 48.5827 33.3116 48.5209 33.4791C48.4839 33.5815 48.4451 33.6873 48.4045 33.7931C48.2969 34.0842 48.1911 34.3435 48.1205 34.511C48.0923 34.5834 48.057 34.6663 48.0218 34.7492C46.0585 39.3812 42.7812 43.2777 38.546 46.01C38.4878 46.0488 38.4243 46.0894 38.3608 46.13C38.1226 46.2817 37.8722 46.4334 37.597 46.5956C37.4771 46.6662 37.3624 46.7315 37.2513 46.7932L37.0696 46.9273L36.6251 47.1336C33.2119 48.9328 29.5024 49.8924 25.6006 49.9859C25.3995 49.9912 25.1984 49.9929 24.9991 49.9929V49.9929ZM11.4293 5.6163L11.4099 5.63042C11.2229 5.76095 11.0359 5.89853 10.8525 6.03612C10.6743 6.16841 10.4344 6.3448 10.1875 6.54412L10.1205 6.59704C9.83117 6.82635 9.54189 7.0733 9.25967 7.32907C9.03388 7.53015 8.83456 7.71184 8.64582 7.89176L8.63171 7.90587C8.48883 8.04345 8.35125 8.17928 8.21543 8.31686L8.19955 8.3345C8.13781 8.398 8.07608 8.45974 8.01434 8.525C7.65627 8.89366 7.29995 9.28702 6.95246 9.69448C4.17253 12.9718 2.33982 16.9336 1.65013 21.1494C1.5196 21.9449 1.42787 22.7563 1.38201 23.5624C1.36437 23.8482 1.35379 24.1127 1.34673 24.3738C1.33615 24.7619 1.33438 25.1217 1.3432 25.4762V25.5627C1.35202 25.8149 1.36084 26.0566 1.37496 26.3018C1.92883 36.3967 8.83633 45.0222 18.5661 47.7669L18.5926 47.7739C18.8448 47.8445 19.1094 47.9133 19.3757 47.9785C19.6315 48.042 19.9102 48.1091 20.2171 48.1708C20.5311 48.2378 20.8486 48.296 21.1943 48.3507L21.2349 48.3578C21.2878 48.3666 21.3407 48.3737 21.3937 48.3807C21.6141 48.4142 21.8117 48.4407 21.9934 48.4636C22.2915 48.5024 22.5772 48.5307 22.8154 48.5536C22.9247 48.5642 23.0341 48.5747 23.1417 48.5836H23.1611C23.9496 48.6488 24.7592 48.67 25.5706 48.6506C29.2695 48.5624 32.785 47.6522 36.0183 45.9448L36.0483 45.9289L36.3852 45.7719L36.5616 45.6484C36.678 45.5831 36.7979 45.5144 36.9232 45.442C37.1842 45.2886 37.4206 45.1457 37.6464 45.0011C37.7028 44.964 37.761 44.9287 37.8157 44.8917C41.8304 42.3023 44.9331 38.6139 46.7958 34.22C46.8293 34.1459 46.8576 34.0771 46.884 34.0083C46.9546 33.839 47.0534 33.5973 47.1539 33.3239C47.1927 33.2198 47.2298 33.1211 47.2668 33.0188C47.325 32.86 47.3815 32.6977 47.4414 32.5178C48.3163 29.909 48.7256 27.1872 48.6603 24.4267C48.6444 23.7864 48.6109 23.2467 48.5527 22.7281C48.5227 22.4176 48.4945 22.1671 48.4627 21.9272C48.4151 21.5498 48.3569 21.1705 48.2899 20.7895C47.9706 18.9939 47.4379 17.2317 46.7076 15.5542L46.6547 15.4343V15.3514L46.1097 14.2842C45.9827 14.0372 45.8662 13.8132 45.7498 13.6033C45.6546 13.4287 45.5576 13.2576 45.4429 13.0618C45.3053 12.8237 45.1624 12.5908 45.0072 12.3474C44.7867 11.9964 44.5557 11.6524 44.3228 11.3226C44.0441 10.9257 43.7478 10.5323 43.4409 10.1531C43.2257 9.88146 43.0175 9.6398 42.8799 9.48105C42.8799 9.48105 42.8023 9.39285 42.7776 9.36463C42.6012 9.16178 42.4354 8.98009 42.2626 8.80018C42.0174 8.53912 41.7581 8.27629 41.4882 8.01347C36.8879 3.56134 30.8359 1.1924 24.4382 1.34233C21.8911 1.40407 19.3881 1.86798 17.0015 2.72172L16.8851 2.76405C16.8216 2.78698 16.7581 2.80991 16.6946 2.83461C16.5235 2.89811 16.3577 2.96161 16.1813 3.03217C15.9114 3.13977 15.6433 3.25442 15.3822 3.3726C15.2305 3.43963 15.0841 3.50666 14.9377 3.57545C13.7559 4.13109 12.6164 4.78726 11.5492 5.53164L11.4275 5.6163H11.4293Z" fill="#FFDF05"/>
<path d="M5.33508 18.0625C5.23101 18.0237 5.15693 17.9532 5.11283 17.8509C5.06873 17.7486 5.06697 17.6445 5.10577 17.5386C5.14634 17.4328 5.21514 17.3552 5.31568 17.3076C5.41622 17.26 5.51853 17.2547 5.62084 17.2935C5.72667 17.334 5.80252 17.4046 5.84662 17.5069C5.89072 17.6092 5.89248 17.7133 5.85368 17.8191C5.81311 17.9249 5.74431 18.0026 5.64377 18.0502C5.54323 18.0978 5.44092 18.1031 5.33332 18.0625H5.33508Z" fill="black"/>
<path d="M9.39778 13.3617L8.27769 15.0515L5.69531 13.3405L6.07632 12.7655L8.10835 14.1131L8.84743 12.9983L9.39778 13.3635V13.3617Z" fill="black"/>
<path d="M11.3525 11.1304L10.0261 12.5821L7.73828 10.4936L9.06122 9.04541L9.54101 9.48463L8.68374 10.423L9.11943 10.8217L9.89732 9.9697L10.3454 10.3789L9.56746 11.2309L10.0067 11.6313L10.8675 10.6894L11.3508 11.1321L11.3525 11.1304Z" fill="black"/>
<path d="M15.3336 8.09463L13.6367 9.20237L11.9434 6.60941L12.5219 6.23193L13.8537 8.27279L14.9738 7.54252L15.3336 8.09463Z" fill="black"/>
<path d="M18.0737 6.80341L17.6186 6.31481L16.5197 6.79107L16.5656 7.45783L15.9006 7.74711L15.7383 4.44153L16.4721 4.12402L18.7616 6.50708L18.0719 6.80518L18.0737 6.80341ZM16.4015 4.99011L16.4791 6.12254L17.1688 5.82444L16.4015 4.99011Z" fill="black"/>
<path d="M18.8789 3.26681L20.0061 3.00222C20.2989 2.93343 20.5458 2.9546 20.7487 3.06572C20.9515 3.17685 21.0803 3.35148 21.1367 3.58961C21.172 3.73954 21.1614 3.88418 21.1067 4.02353C21.0503 4.16288 20.9639 4.26872 20.8474 4.34104C21.0027 4.34104 21.1473 4.39043 21.2831 4.49273C21.4189 4.59504 21.5071 4.73792 21.5495 4.92137C21.6077 5.17184 21.5689 5.39586 21.4331 5.59695C21.2972 5.79803 21.0873 5.93209 20.8069 5.99735L19.5898 6.28311L18.8824 3.26857L18.8789 3.26681ZM20.1136 5.57931L20.5352 5.48053C20.6658 5.45054 20.761 5.3941 20.8192 5.31296C20.8774 5.23181 20.8951 5.13833 20.8686 5.02896C20.8439 4.92489 20.7875 4.84728 20.6975 4.79965C20.6093 4.75203 20.4982 4.74321 20.3677 4.7732L19.9461 4.87198L20.1119 5.57754L20.1136 5.57931ZM19.8173 4.31987L20.1824 4.23344C20.3024 4.20521 20.3888 4.15406 20.4453 4.07998C20.5017 4.00589 20.5176 3.9177 20.4929 3.81539C20.47 3.71661 20.417 3.64605 20.3359 3.60372C20.2548 3.56139 20.1489 3.55609 20.0219 3.58608L19.6639 3.67075L19.8173 4.32163V4.31987Z" fill="black"/>
<path d="M24.7355 5.49462L22.7758 5.64103L22.543 2.55241L24.4992 2.40601L24.5485 3.05513L23.2803 3.15038L23.3244 3.73776L24.4745 3.65133L24.5203 4.25635L23.3702 4.34279L23.4143 4.93546L24.6861 4.84021L24.7355 5.49462Z" fill="black"/>
<path d="M27.8771 5.69221L25.8574 5.51935L26.122 2.4325L26.8099 2.4907L26.6018 4.91962L27.9336 5.03427L27.8771 5.69221Z" fill="black"/>
<path d="M33.6685 6.26901L34.8821 4.61622L35.5382 4.88258L33.5926 7.43496L32.9329 7.16685L33.0935 5.01663L31.7053 6.66942L31.0332 6.39602L31.416 3.20862L32.0968 3.48379L31.8252 5.51406L33.1658 3.91771L33.822 4.18406L33.6703 6.26725L33.6685 6.26901Z" fill="black"/>
<path d="M35.6126 6.73117C35.8825 6.33429 36.2317 6.09969 36.6586 6.02913C37.0855 5.95857 37.4841 6.0503 37.8546 6.30254C38.225 6.55478 38.4543 6.89345 38.5442 7.31679C38.6324 7.74013 38.5442 8.14936 38.2744 8.54448C38.0062 8.93959 37.6588 9.17243 37.2319 9.24299C36.8068 9.31354 36.4081 9.22358 36.0377 8.97134C35.6673 8.7191 35.4362 8.38043 35.3463 7.95885C35.2563 7.53551 35.3463 7.12629 35.6144 6.73293L35.6126 6.73117ZM36.8209 6.70647C36.581 6.73999 36.3764 6.8811 36.2071 7.13158C36.036 7.38205 35.9795 7.62371 36.0377 7.85655C36.0959 8.08939 36.2229 8.27283 36.4205 8.40865C36.618 8.54271 36.835 8.59387 37.0714 8.56211C37.3077 8.53036 37.5124 8.38925 37.6835 8.13877C37.8546 7.8883 37.911 7.64664 37.8546 7.41204C37.7981 7.1792 37.6729 6.99399 37.4753 6.85993C37.2778 6.72588 37.059 6.67472 36.8209 6.70824V6.70647Z" fill="black"/>
<path d="M39.0549 9.2006C39.3989 8.86546 39.7887 8.70671 40.2209 8.72435C40.653 8.74198 41.0252 8.90956 41.3374 9.23235C41.6497 9.55339 41.8066 9.93086 41.8084 10.3648C41.8102 10.7969 41.6391 11.1797 41.2969 11.5131C40.9547 11.8465 40.5666 12.0035 40.1362 11.9894C39.7041 11.9735 39.3336 11.8041 39.0214 11.4831C38.7092 11.1621 38.5505 10.7846 38.5469 10.3507C38.5434 9.91852 38.7127 9.53575 39.0549 9.20237V9.2006ZM40.2438 9.41933C40.0022 9.40345 39.7746 9.50047 39.5559 9.71214C39.3389 9.92381 39.2349 10.1496 39.2437 10.3895C39.2543 10.6294 39.3407 10.8358 39.5083 11.0069C39.6741 11.178 39.8769 11.2714 40.1151 11.2873C40.3532 11.3032 40.5825 11.2062 40.7994 10.9945C41.0164 10.7828 41.1222 10.5571 41.1134 10.3172C41.1064 10.0773 41.0182 9.87089 40.8524 9.69979C40.6866 9.52869 40.4819 9.4352 40.2421 9.41933H40.2438Z" fill="black"/>
<path d="M42.3195 13.718L42.0549 13.3229L41.1289 13.942L40.7461 13.3687L43.3214 11.6489L43.9688 12.6191C44.1434 12.8801 44.2087 13.1447 44.1628 13.4128C44.1169 13.6792 43.9741 13.8926 43.7342 14.0531C43.489 14.2172 43.2367 14.2666 42.9739 14.2066C42.7129 14.1449 42.4941 13.9844 42.3195 13.7215V13.718ZM42.5523 12.9966L42.7764 13.3299C42.8487 13.4393 42.9369 13.5081 43.0427 13.5363C43.1468 13.5645 43.2491 13.5451 43.3479 13.4799C43.4502 13.4111 43.5084 13.3246 43.5225 13.2188C43.5366 13.113 43.5084 13.0036 43.4325 12.8925L43.2085 12.5591L42.5506 12.9983L42.5523 12.9966Z" fill="black"/>
<path d="M44.5239 17.3058C44.628 17.267 44.7303 17.2705 44.8291 17.3182C44.9278 17.3658 45.0002 17.4434 45.0407 17.5492C45.0813 17.6551 45.0795 17.7591 45.0354 17.8614C44.9913 17.9638 44.9173 18.0343 44.8149 18.0731C44.7091 18.1137 44.605 18.1102 44.5045 18.0625C44.404 18.0149 44.3334 17.9373 44.2928 17.8315C44.2523 17.7256 44.254 17.6215 44.2981 17.5192C44.3422 17.4169 44.4181 17.3464 44.5239 17.3058Z" fill="black"/>
<path d="M44.5572 23.5112L44.2891 21.5021L47.36 21.0929L47.4518 21.7773L45.0352 22.1001L45.2116 23.4248L44.5572 23.5112Z" fill="black"/>
<path d="M44.5421 26.5505L45.1789 26.3511L45.223 25.1552L44.6021 24.91L44.6285 24.1851L47.6819 25.4621L47.6536 26.2612L44.5156 27.3019L44.5421 26.5505ZM46.8987 25.822L45.8421 25.4039L45.8156 26.1554L46.8987 25.8237V25.822Z" fill="black"/>
<path d="M47.3927 28.803L47.1457 29.9337C47.0822 30.2265 46.957 30.4399 46.7683 30.5758C46.5813 30.7098 46.3679 30.7522 46.128 30.701C45.9763 30.6675 45.851 30.5969 45.7505 30.4876C45.6499 30.3782 45.5917 30.2547 45.5759 30.1171C45.5088 30.2583 45.4012 30.3676 45.2513 30.4452C45.1014 30.5228 44.9338 30.5422 44.7503 30.5017C44.4999 30.447 44.3129 30.3147 44.1912 30.1048C44.0677 29.8949 44.0377 29.6497 44.0995 29.3675L44.3658 28.1469L47.3927 28.8048V28.803ZM46.038 29.1964L45.9586 29.5633C45.9322 29.6832 45.941 29.7838 45.9851 29.8667C46.0292 29.9496 46.1015 30.0007 46.2038 30.0237C46.3026 30.0448 46.389 30.0289 46.4631 29.9725C46.5354 29.9161 46.5866 29.8243 46.6148 29.6973L46.6924 29.3393L46.0398 29.1964H46.038ZM44.775 28.9212L44.6833 29.3445C44.6551 29.4751 44.6639 29.5844 44.7133 29.6726C44.7609 29.7608 44.8385 29.8155 44.9479 29.8402C45.0537 29.8631 45.1472 29.8455 45.2284 29.7855C45.3095 29.7256 45.3642 29.6303 45.3942 29.4998L45.4859 29.0764L44.7768 28.923L44.775 28.9212Z" fill="black"/>
<path d="M42.8652 33.1211L43.5814 31.2902L46.4672 32.4173L45.7528 34.2447L45.146 34.0084L45.6081 32.8248L45.0595 32.6096L44.6397 33.6838L44.0735 33.4633L44.4933 32.3891L43.9395 32.1721L43.4756 33.361L42.8652 33.1229V33.1211Z" fill="black"/>
<path d="M41.3377 35.8834L42.3625 34.1335L45.0349 35.6999L44.6856 36.2961L42.5813 35.0631L41.9057 36.2167L41.3359 35.8834H41.3377Z" fill="black"/>
<path d="M38.3199 40.8805L39.2989 42.6815L38.7786 43.1613L37.2969 40.3143L37.8208 39.831L39.6976 40.8929L38.7927 38.9332L39.3254 38.441L42.0471 40.145L41.5073 40.6424L39.7858 39.5311L40.6589 41.4238L40.1385 41.9036L38.3182 40.8788L38.3199 40.8805Z" fill="black"/>
<path d="M37.0724 42.4222C37.3141 42.8367 37.3758 43.253 37.2559 43.6675C37.1359 44.0838 36.8819 44.4031 36.4956 44.6306C36.1093 44.8582 35.7036 44.9181 35.2838 44.8158C34.864 44.7135 34.5324 44.456 34.2925 44.0432C34.0526 43.6305 33.9909 43.2177 34.1091 42.8014C34.2272 42.3869 34.4813 42.0659 34.8693 41.8401C35.2574 41.6143 35.6613 41.5508 36.0811 41.6514C36.5027 41.7519 36.8326 42.0077 37.0742 42.4204L37.0724 42.4222ZM36.575 43.5247C36.6491 43.2953 36.6085 43.0484 36.4568 42.7873C36.3034 42.5263 36.1093 42.371 35.8747 42.3234C35.6401 42.2758 35.4179 42.3111 35.2115 42.431C35.0051 42.551 34.8658 42.7256 34.7935 42.9531C34.7211 43.1807 34.76 43.4259 34.9134 43.6869C35.0669 43.948 35.2591 44.105 35.4955 44.1544C35.7301 44.2038 35.9506 44.1685 36.157 44.0485C36.3634 43.9286 36.5027 43.754 36.5768 43.5229L36.575 43.5247Z" fill="black"/>
<path d="M33.365 44.4684C33.5202 44.9235 33.4955 45.3433 33.2962 45.7261C33.0951 46.1089 32.7829 46.3734 32.3578 46.5163C31.9327 46.661 31.5252 46.6398 31.1336 46.4563C30.742 46.2729 30.4704 45.9536 30.3169 45.5021C30.1635 45.0487 30.1864 44.6325 30.3857 44.2497C30.585 43.8669 30.8973 43.6041 31.3224 43.4594C31.7475 43.3148 32.1549 43.3342 32.5483 43.5159C32.9416 43.6976 33.2133 44.0151 33.3667 44.4684H33.365ZM32.6576 45.4491C32.7758 45.2392 32.7864 44.9905 32.6876 44.703C32.5906 44.4155 32.4319 44.225 32.2096 44.1315C31.9891 44.038 31.7651 44.0292 31.5393 44.105C31.3135 44.1809 31.1407 44.3238 31.0243 44.5337C30.9078 44.7436 30.8973 44.9905 30.9943 45.278C31.0913 45.5656 31.25 45.7561 31.4705 45.8531C31.691 45.9501 31.9133 45.9589 32.1391 45.8831C32.3648 45.8072 32.5377 45.6626 32.6541 45.4527L32.6576 45.4491Z" fill="black"/>
<path d="M27.8842 45.4756L28.3552 45.4068L28.1964 44.3043L28.8791 44.2056L29.3236 47.2713L28.17 47.4388C27.8595 47.4847 27.5932 47.4282 27.3709 47.2713C27.1504 47.1143 27.0181 46.8938 26.9776 46.608C26.9352 46.317 26.9987 46.0665 27.1663 45.8566C27.3339 45.6467 27.5738 45.5197 27.886 45.4738L27.8842 45.4756ZM28.4363 45.9959L28.0377 46.0542C27.9071 46.0736 27.8084 46.1229 27.7378 46.2059C27.6673 46.2888 27.6408 46.3875 27.6584 46.5057C27.6761 46.6274 27.729 46.7174 27.8189 46.7756C27.9089 46.8356 28.02 46.855 28.1523 46.8356L28.551 46.7774L28.4381 45.9942L28.4363 45.9959Z" fill="black"/>
<path d="M23.1275 44.4561L23.8172 44.5319L23.4785 47.6117L21.4941 47.393L21.5665 46.7421L22.8647 46.885L22.937 46.2341L21.7958 46.1088L21.8646 45.4827L23.0023 45.6079L23.1293 44.4578L23.1275 44.4561Z" fill="black"/>
<path d="M20.6389 45.6925C20.5031 46.1529 20.242 46.4827 19.8575 46.6803C19.473 46.8778 19.0655 46.9131 18.6351 46.7844C18.2047 46.6574 17.8837 46.4051 17.6703 46.0294C17.4568 45.6537 17.418 45.2356 17.5538 44.7788C17.6897 44.3202 17.949 43.9938 18.3335 43.7945C18.718 43.597 19.1237 43.5617 19.5541 43.6887C19.9845 43.8157 20.3073 44.0679 20.5225 44.4419C20.7377 44.8176 20.7783 45.2339 20.6425 45.6925H20.6389ZM19.4959 46.0858C19.7129 45.9818 19.8646 45.7842 19.951 45.4932C20.0374 45.2021 20.0163 44.9552 19.891 44.7506C19.764 44.5459 19.5876 44.4101 19.3583 44.3413C19.129 44.2743 18.9068 44.2919 18.6916 44.3942C18.4764 44.4983 18.3247 44.6941 18.2382 44.9852C18.1518 45.2762 18.1712 45.5232 18.2964 45.7295C18.4217 45.9341 18.5981 46.0717 18.8274 46.1388C19.0567 46.2058 19.2789 46.1882 19.4977 46.0841L19.4959 46.0858Z" fill="black"/>
<path d="M15.8065 42.2177L15.7765 43.4965L15.9934 43.6076L16.5173 42.581L17.1312 42.895L15.7218 45.6538L14.6282 45.0946C14.3618 44.9588 14.1872 44.7665 14.106 44.5178C14.0249 44.2709 14.0478 44.0222 14.1748 43.7735C14.2701 43.5865 14.4006 43.4507 14.5664 43.3625C14.7322 43.276 14.9157 43.246 15.1168 43.2743L15.1273 41.8719L15.8047 42.2177H15.8065ZM15.7236 44.1368L15.3619 43.9516C15.2367 43.8881 15.1256 43.8687 15.0268 43.8952C14.928 43.9216 14.8539 43.9851 14.801 44.0874C14.7481 44.1915 14.7393 44.2903 14.7763 44.3838C14.8134 44.4773 14.8945 44.5566 15.018 44.6201L15.3796 44.8053L15.7218 44.1368H15.7236Z" fill="black"/>
<path d="M11.8021 39.2507C12.1355 39.5594 12.3136 39.928 12.3366 40.3566C12.3595 40.7853 12.2113 41.1733 11.8885 41.5226C11.5675 41.8683 11.19 42.0482 10.7543 42.0588C10.3186 42.0694 9.93941 41.9248 9.61485 41.6249C9.45257 41.475 9.32733 41.3145 9.2409 41.1451C9.15446 40.9758 9.10684 40.8135 9.09802 40.6583C9.09096 40.5048 9.09978 40.3619 9.128 40.2332C9.15623 40.1044 9.20209 39.9862 9.26559 39.8786L9.88296 40.1697C9.85121 40.2244 9.82828 40.2843 9.81064 40.3496C9.793 40.4149 9.78595 40.4907 9.78595 40.5754C9.78595 40.6618 9.81064 40.7535 9.85827 40.8505C9.90589 40.9493 9.97821 41.041 10.0717 41.1275C10.2428 41.2862 10.4492 41.3656 10.6908 41.3656C10.9325 41.3656 11.1565 41.2545 11.3629 41.0322C11.5534 40.8276 11.6398 40.6036 11.6257 40.3637C11.6098 40.1238 11.5128 39.9192 11.3329 39.7534C11.1583 39.5911 10.9819 39.51 10.8037 39.5082C10.6256 39.5064 10.4721 39.547 10.3416 39.6282L9.98527 39.0425C10.0876 38.9755 10.2022 38.9208 10.3292 38.8802C10.4562 38.8397 10.5991 38.815 10.7596 38.8079C10.9184 38.8009 11.0912 38.8344 11.2747 38.9067C11.4581 38.9808 11.6345 39.0937 11.8003 39.2489L11.8021 39.2507Z" fill="black"/>
<path d="M8.92843 36.0227L8.55977 36.5783L9.27945 37.5361L9.91623 37.3368L10.3519 37.9172L7.1751 38.845L6.69531 38.2064L8.47863 35.423L8.9302 36.0245L8.92843 36.0227ZM7.55434 38.0706L8.63915 37.7319L8.18759 37.1304L7.55434 38.0706Z" fill="black"/>
<path d="M7.40906 33.3433L6.62588 34.3558L6.73524 34.5746L7.76713 34.0595L8.07582 34.6769L5.3047 36.0615L4.75613 34.9626C4.62207 34.6945 4.59561 34.437 4.67675 34.1883C4.75789 33.9413 4.9237 33.7543 5.17417 33.6291C5.36115 33.5356 5.54813 33.5021 5.73334 33.5303C5.91855 33.5585 6.08436 33.6432 6.229 33.7861L7.07039 32.6625L7.41082 33.3433H7.40906ZM6.20254 34.8391L6.02086 34.4758C5.95912 34.3505 5.87974 34.2694 5.78449 34.2324C5.68924 34.1953 5.59046 34.2024 5.48992 34.2535C5.38585 34.3047 5.32058 34.3805 5.29412 34.4775C5.26766 34.5746 5.28707 34.6875 5.3488 34.8109L5.53049 35.1743L6.20254 34.8391Z" fill="black"/>
<path d="M6.27602 30.2989L5.33409 31.165L5.40464 31.3996L6.50886 31.0644L6.70994 31.7241L3.74656 32.6255L3.38849 31.4507C3.30205 31.1632 3.31793 30.9057 3.43964 30.6746C3.56135 30.4435 3.75538 30.2883 4.0235 30.2072C4.22458 30.1454 4.41332 30.1454 4.59148 30.2036C4.76963 30.2618 4.9178 30.373 5.03775 30.5388L6.05377 29.5721L6.27426 30.2989H6.27602ZM4.83666 31.5724L4.71848 31.1844C4.67791 31.0503 4.61441 30.9568 4.52621 30.9057C4.43802 30.8527 4.341 30.8439 4.23164 30.8757C4.12051 30.9092 4.0429 30.9727 4.00057 31.0644C3.95823 31.1561 3.95823 31.269 3.9988 31.4031L4.11698 31.7912L4.83666 31.5724Z" fill="black"/>
<path d="M5.75199 27.7782L5.86136 28.4679L2.80272 28.9547L2.69336 28.265L5.75199 27.7782Z" fill="black"/>
<path d="M5.55252 24.5361L5.5878 26.5011L2.49036 26.5558L2.45508 24.5943L3.10596 24.5819L3.12889 25.8537L3.71804 25.8431L3.69688 24.6895L4.30366 24.6789L4.32483 25.8325L4.91927 25.822L4.89634 24.5467L5.55075 24.5343L5.55252 24.5361Z" fill="black"/>
<path d="M5.80369 21.9132L4.58659 22.3083L4.55308 22.55L5.6961 22.7052L5.60437 23.3896L2.53516 22.9733L2.6992 21.7562C2.73977 21.4599 2.86324 21.2305 3.06962 21.0718C3.276 20.913 3.51766 20.8531 3.79459 20.8901C4.00274 20.9183 4.1756 20.9959 4.31142 21.1229C4.44901 21.25 4.5372 21.414 4.57777 21.6133L5.90424 21.1582L5.80193 21.9114L5.80369 21.9132ZM3.96393 22.4706L4.01861 22.0684C4.03801 21.9291 4.01861 21.8179 3.9604 21.735C3.90219 21.6504 3.81752 21.601 3.70463 21.5851C3.58998 21.5692 3.49296 21.5939 3.41712 21.6609C3.34127 21.7262 3.29364 21.8285 3.27424 21.9679L3.21956 22.37L3.96393 22.4706Z" fill="black"/>
<path d="M43.394 24.5572C43.447 26.7603 43.1065 28.8823 42.4451 30.8544C42.4045 30.9761 42.3639 31.096 42.3181 31.216C42.2863 31.3059 42.2528 31.3941 42.2193 31.4823C42.147 31.6799 42.0676 31.8739 41.9847 32.0679C41.9811 32.0785 41.9794 32.0874 41.9741 32.0962C40.5277 35.5482 38.0635 38.4727 34.9343 40.4836C34.8973 40.5083 34.8602 40.533 34.8232 40.5559C34.6397 40.6723 34.451 40.787 34.2605 40.8981C34.0753 41.0057 33.8848 41.1133 33.6907 41.2156C33.6872 41.2192 33.6801 41.2209 33.6766 41.2227C31.2177 42.5421 28.4237 43.3129 25.4427 43.3835C24.8147 43.3976 24.1938 43.3835 23.58 43.3323C23.4988 43.3253 23.4142 43.3182 23.333 43.3094C23.1108 43.2882 22.8867 43.2653 22.6663 43.2371C22.4899 43.2141 22.317 43.1912 22.1441 43.1647C22.1018 43.1595 22.0595 43.1524 22.0154 43.1453C21.7719 43.1065 21.5321 43.0642 21.2904 43.0113C21.0717 42.9672 20.8529 42.9143 20.636 42.8614C20.4208 42.8084 20.2056 42.7538 19.9939 42.6938C12.6084 40.6106 7.0697 34.0153 6.63224 26.0089C6.62166 25.8166 6.61461 25.6261 6.60931 25.4321V25.3457C6.60049 25.0652 6.60226 24.79 6.61108 24.5113C6.61637 24.2961 6.62519 24.0827 6.6393 23.8693C6.67634 23.2378 6.74514 22.6151 6.84744 22.0013C7.39602 18.6445 8.85831 15.5859 10.9715 13.0935C11.2396 12.7777 11.5183 12.4726 11.8058 12.1763C11.8623 12.1163 11.9187 12.0598 11.9752 12.0016C12.0757 11.8976 12.1798 11.7988 12.2856 11.6965C12.4461 11.543 12.6102 11.3948 12.7742 11.2502C12.9806 11.0632 13.1905 10.8833 13.4075 10.7104C13.4304 10.6928 13.4551 10.6716 13.478 10.654C13.6491 10.5164 13.829 10.3823 14.0072 10.2518C14.1836 10.1178 14.3617 9.98899 14.5434 9.86376C14.5487 9.85846 14.5558 9.85494 14.5628 9.84964C15.3901 9.27284 16.2668 8.7666 17.1875 8.3362C17.3039 8.28152 17.4186 8.2286 17.5368 8.17569C17.7361 8.08573 17.939 7.99753 18.1453 7.91639C18.2741 7.86347 18.4064 7.81408 18.5387 7.76646C18.6198 7.73471 18.701 7.70649 18.7821 7.6765C20.5937 7.02738 22.541 6.65166 24.5678 6.60404C29.706 6.48056 34.4034 8.48084 37.8201 11.797C38.0335 12.0034 38.2434 12.2168 38.4463 12.4355C38.5803 12.5731 38.7073 12.7125 38.8308 12.8571C38.8555 12.8836 38.8784 12.91 38.9013 12.9347C39.046 13.1023 39.1906 13.2699 39.3265 13.4445C39.5681 13.7408 39.7992 14.0478 40.0197 14.3617C40.2049 14.6228 40.3848 14.8909 40.5559 15.1626C40.6741 15.3495 40.7887 15.5365 40.8999 15.7288C40.981 15.8646 41.0569 15.9987 41.1327 16.138C41.2315 16.3162 41.3267 16.4961 41.4202 16.6795V16.6831C42.214 18.2459 42.7943 19.9393 43.1083 21.7226C43.1612 22.0189 43.2071 22.317 43.2441 22.6169C43.2741 22.8321 43.297 23.0543 43.3182 23.2731C43.3676 23.6964 43.3905 24.1268 43.4011 24.5572H43.394Z" fill="#FFDF05"/>
<path d="M43.3117 23.2731C43.2923 23.0544 43.2694 22.8322 43.2376 22.617C43.2006 22.3171 43.1547 22.0172 43.1018 21.7227L41.5196 29.588L38.5421 28.99L41.1262 16.1399C41.0521 16.0023 40.9745 15.8682 40.8934 15.7306C40.7823 15.5384 40.6676 15.3514 40.5494 15.1644C40.3783 14.8928 40.2002 14.6247 40.0132 14.3636L37.1292 28.7042L36.1661 28.5084L33.5061 30.2777L32.5818 28.8895L34.4551 27.6424L37.2121 13.9297L38.8243 12.8572C38.7008 12.7126 38.5738 12.5732 38.4398 12.4356C38.2352 12.2187 38.0252 12.0052 37.8136 11.7971L33.1586 14.8945L21.7461 12.5979L18.5322 7.76831C18.3999 7.81594 18.2694 7.86709 18.1388 7.91824C17.9325 8.00115 17.7296 8.08758 17.5303 8.17754C17.4121 8.22869 17.2975 8.28337 17.181 8.33806L20.312 13.046L17.7949 14.7199L14.5563 9.8515C14.5563 9.8515 14.544 9.86032 14.5369 9.86561C14.3552 9.99085 14.1771 10.1214 14.0007 10.2537C13.8225 10.386 13.6444 10.5183 13.4715 10.6558C13.4486 10.6735 13.4239 10.6946 13.401 10.7123L16.5954 15.5154L15.0061 16.572L11.9687 12.0035C11.9122 12.0617 11.8558 12.1181 11.7993 12.1781C11.5118 12.4744 11.2331 12.7814 10.965 13.0953L13.8084 17.3693L6.84095 22.0031C6.74041 22.6152 6.66985 23.2396 6.63281 23.8711L14.6057 18.5688L25.7995 35.3983L23.3759 37.0105L22.1394 43.1648C22.3123 43.1913 22.4851 43.2142 22.6615 43.2372C22.882 43.2654 23.1043 43.2883 23.3283 43.3095C23.4094 43.3183 23.4941 43.3254 23.5752 43.3324L24.6724 37.8801L29.3856 34.7457L33.6878 41.2139C33.8818 41.1116 34.0723 41.004 34.2575 40.8964C34.448 40.7853 34.6368 40.6707 34.8202 40.5542C34.8573 40.5313 34.8943 40.5066 34.9313 40.4819L30.5851 33.9466L33.7019 31.874L36.4642 30.0378L42.3169 31.2143C42.361 31.0944 42.4033 30.9726 42.4439 30.8527C43.1053 28.8806 43.4458 26.7586 43.3929 24.5555C43.3823 24.1234 43.3611 23.6947 43.3099 23.2714L43.3117 23.2731ZM24.3655 14.5964L33.462 16.4274L35.517 15.0603L33.1621 26.7745L31.7845 27.69L24.0656 16.0852L24.3655 14.5964ZM21.1128 14.2472L23.4712 17.7927L20.9523 19.4648L18.5939 15.9194L21.1128 14.2454V14.2472ZM15.8087 17.7768L17.3962 16.7202L19.7546 20.2657L18.1671 21.3222L15.8087 17.7768ZM27.0025 34.6063L18.9644 22.5199L20.5519 21.4634L28.5901 33.548L27.0025 34.6045V34.6063ZM29.7913 32.7524L21.7531 20.6678L24.2702 18.9939L32.3084 31.0785L29.7913 32.7524Z" fill="black"/>
</g>
<defs>
<clipPath id="clip0_2984_185004">
<rect width="50" height="49.9929" fill="white"/>
</clipPath>
</defs>
</svg>