<svg width="51" height="25" viewBox="0 0 51 25" fill="none" xmlns="http://www.w3.org/2000/svg">
<path d="M41.3889 19.3588C40.0636 19.9617 38.8479 20.0717 38.2407 20.0717C34.9262 20.0717 31.8334 17.8778 30.8935 14.642C30.4513 13.0509 30.6176 11.625 30.7272 11.0772C31.3899 7.45731 34.5381 4.77058 38.2394 4.77058C41.3876 4.77058 44.0395 6.85442 45.3094 9.76131C45.8612 11.0772 45.9166 12.1741 45.9166 12.7232C45.9192 15.5201 44.0408 18.2081 41.3889 19.3588ZM46.7469 2.90689C43.5432 0.218881 39.7323 0 38.2961 0C33.3804 0 28.961 2.41281 26.7513 6.91074C25.8682 8.77571 25.591 10.4756 25.5356 11.2436C25.2043 15.1924 26.8055 19.3601 29.7887 21.938C30.949 22.9249 33.8767 24.9537 38.1853 24.9537C43.2673 24.9537 47.7408 22.2119 49.8396 17.5501C50.2264 16.7271 50.9999 14.9172 50.9999 12.4493C50.9999 8.82947 49.3987 5.20962 46.7469 2.90689Z" fill="#272833"/>
<path d="M40.8011 12.5031C40.8011 13.9034 39.6575 15.0401 38.2459 15.0401C36.8342 15.0401 35.6907 13.9047 35.6907 12.5031C35.6907 11.1015 36.8342 9.96611 38.2459 9.96611C39.6575 9.96611 40.8011 11.1015 40.8011 12.5031Z" fill="#272833"/>
<path d="M15.8963 19.4062C14.571 20.009 13.3553 20.1191 12.748 20.1191C9.4335 20.1191 6.34071 17.9252 5.40088 14.6893C4.95868 13.0983 5.12499 11.6724 5.23586 11.1245C5.89851 7.50467 9.04674 4.81794 12.748 4.81794C15.8963 4.81794 18.5482 6.90179 19.818 9.80868C20.3698 11.1245 20.4252 12.2215 20.4252 12.7706C20.4252 15.5674 18.5482 18.2541 15.8963 19.4062ZM21.2542 2.95297C18.0505 0.266243 14.2397 0.0473628 12.8035 0.0473628C7.88775 0.0473628 3.46837 2.46017 1.25867 6.95811C0.374282 8.82179 0.0983926 10.5216 0.0429569 11.2896C-0.288368 15.2385 1.31282 19.4062 4.29603 21.9841C5.45632 22.971 8.3841 24.9998 12.6913 24.9998C17.7734 24.9998 22.2469 22.258 24.3457 17.5962C24.7325 16.7732 25.506 14.9633 25.506 12.4954C25.5073 8.87683 23.9061 5.25698 21.2542 2.95297Z" fill="#272833"/>
<path d="M15.3084 12.5492C15.3084 13.9495 14.1649 15.0861 12.7532 15.0861C11.3415 15.0861 10.198 13.9508 10.198 12.5492C10.198 11.1476 11.3415 10.0122 12.7532 10.0122C14.1649 10.0122 15.3084 11.1488 15.3084 12.5492Z" fill="#272833"/>
</svg>
