<svg width="144" height="54" viewBox="0 0 144 54" fill="none" xmlns="http://www.w3.org/2000/svg">
<path d="M38.6497 23.9208C38.5087 26.6325 38.1542 29.2719 35.6107 30.7721C34.2674 31.5572 32.8536 31.6293 32.2877 31.6293C30.2375 31.6293 28.9669 30.8443 28.3305 30.4156C26.3507 28.9877 26.1393 27.2054 25.9984 24.7059C25.9279 23.9208 25.8575 23.2079 25.8575 22.4229V6.29523H19.2246V23.9208C19.0837 26.6325 18.7292 29.2719 16.1857 30.7721C14.8424 31.5572 13.4286 31.6293 12.8649 31.6293C10.8147 31.6293 9.54405 30.8443 8.90763 30.4156C6.92792 28.9877 6.71651 27.2054 6.57557 24.7059C6.50511 23.9208 6.43464 23.2079 6.43464 22.4229V6.29523H0V23.208C0.140937 27.3476 0.211405 31.0586 2.89801 34.0545C6.2915 37.7655 11.2375 37.9076 12.6513 37.9076C17.5158 37.9076 20.6296 35.9439 22.3979 34.1354C25.787 37.7655 30.6735 37.9076 32.0763 37.9076C37.9428 37.9076 41.2658 35.0539 42.75 33.0551C44.8002 30.3435 45.0821 27.0611 45.223 23.5644V6.29523H38.6497V23.9208Z" fill="#010202"/>
<path d="M97.9223 30.7043C96.2333 31.474 94.683 31.614 93.91 31.614C89.6863 31.614 85.7423 28.8171 84.5443 24.6928C83.9806 22.6656 84.192 20.8462 84.3329 20.1486C85.1786 15.5344 89.1908 12.1077 93.9078 12.1077C97.9201 12.1077 101.3 14.7647 102.921 18.4713C103.626 20.1486 103.696 21.5481 103.696 22.2479C103.696 25.808 101.303 29.2347 97.9223 30.7043ZM104.753 9.72629C100.668 6.30176 95.8105 6.02185 93.9805 6.02185C87.7132 6.02185 82.0801 9.09868 79.2636 14.8325C78.1361 17.2095 77.7838 19.3766 77.7133 20.3563C77.2905 25.3904 79.3319 30.7043 83.135 33.991C84.6126 35.2485 88.3452 37.8354 93.8374 37.8354C100.316 37.8354 106.017 34.3387 108.695 28.3972C109.188 27.3475 110.173 25.0405 110.173 21.8937C110.175 17.2795 108.131 12.6632 104.753 9.72629Z" fill="#010202"/>
<path d="M122.738 13.1312C124.427 12.3614 125.977 12.2215 126.753 12.2215C130.976 12.2215 134.92 15.0184 136.118 19.1427C136.682 21.1698 136.471 22.9893 136.33 23.6868C135.484 28.301 131.472 31.7277 126.755 31.7277C122.74 31.7277 119.362 29.0708 117.742 25.3641C117.037 23.6869 116.966 22.2873 116.966 21.5875C116.964 18.0274 119.358 14.6007 122.738 13.1312ZM116.885 34.8592C120.739 37.5752 124.993 37.8158 126.68 37.8158C132.947 37.8158 138.58 34.7389 141.397 29.0051C142.524 26.6281 142.877 24.461 142.947 23.4813C143.37 18.4473 141.329 13.1333 137.525 9.84658C136.046 8.58699 132.313 6 126.821 6C123.115 6 119.662 7.14588 116.885 9.23865V6.76975H110.124V50.836H116.885V34.8592Z" fill="#010202"/>
<path d="M97.1735 21.9615C97.1735 23.7481 95.7157 25.1957 93.9166 25.1957C92.1175 25.1957 90.6597 23.7481 90.6597 21.9615C90.6597 20.1748 92.1175 18.7272 93.9166 18.7272C95.7157 18.7272 97.1735 20.177 97.1735 21.9615Z" fill="#010202"/>
<path d="M65.4254 30.7633C63.7364 31.5331 62.1861 31.673 61.4109 31.673C57.1872 31.673 53.2432 28.8761 52.0475 24.7518C51.4837 22.7246 51.6951 20.9052 51.8361 20.2076C52.6817 15.5935 56.694 12.1668 61.4109 12.1668C65.4254 12.1668 68.8035 14.8237 70.4243 18.5304C71.129 20.2076 71.1994 21.6072 71.1994 22.307C71.1994 25.8693 68.8057 29.296 65.4254 30.7633ZM72.2564 9.78753C68.1715 6.36081 63.3136 6.0809 61.4836 6.0809C55.2163 6.0809 49.5833 9.15773 46.7668 14.8915C45.6393 17.2686 45.2891 19.4357 45.2165 20.4154C44.7936 25.4494 46.835 30.7633 50.6381 34.0501C52.1157 35.3097 55.8483 37.8967 61.3405 37.8967C67.8169 37.8967 73.5205 34.4 76.1961 28.4584C76.6893 27.4088 77.6737 25.1017 77.6737 21.9549C77.6781 17.3386 75.6345 12.7244 72.2564 9.78753Z" fill="#010202"/>
<path d="M64.6767 22.0205C64.6767 23.8071 63.2189 25.2548 61.4197 25.2548C59.6206 25.2548 58.1628 23.8071 58.1628 22.0205C58.1628 20.2339 59.6206 18.7862 61.4197 18.7862C63.2189 18.7884 64.6767 20.2361 64.6767 22.0205Z" fill="#010202"/>
<path d="M2.01495 48.1091C2.01495 48.9772 2.60072 49.4605 3.2988 49.4605C3.95283 49.4605 4.31618 49.0538 4.4395 48.647L5.92374 49.0975C5.6793 50.0531 4.77202 51 3.301 51C1.66261 51 0.345734 49.8017 0.345734 48.1091C0.345734 46.4056 1.62958 45.2072 3.24594 45.2072C4.76322 45.2072 5.64847 46.13 5.89071 47.1097L4.38445 47.5602C4.26333 47.1425 3.93081 46.7467 3.27677 46.7467C2.5787 46.7467 2.01495 47.23 2.01495 48.1091Z" fill="#010202"/>
<path d="M12.1316 48.0981C12.1316 49.7907 10.8587 51 9.20934 51C7.57095 51 6.28711 49.7907 6.28711 48.0981C6.28711 46.4056 7.57095 45.2072 9.20934 45.2072C10.8587 45.2072 12.1316 46.4056 12.1316 48.0981ZM10.4491 48.0981C10.4491 47.1753 9.85236 46.7467 9.20934 46.7467C8.57733 46.7467 7.96954 47.1753 7.96954 48.0981C7.96954 49.01 8.57733 49.4605 9.20934 49.4605C9.85236 49.4605 10.4491 49.021 10.4491 48.0981Z" fill="#010202"/>
<path d="M13.0058 50.836V45.3734H14.6112V46.001C14.8886 45.5177 15.5955 45.2094 16.1945 45.2094C16.9806 45.2094 17.5444 45.5287 17.8219 46.0666C18.2535 45.4499 18.7842 45.2094 19.5263 45.2094C20.5657 45.2094 21.5633 45.8129 21.5633 47.2978V50.836H19.9359V47.6695C19.9359 47.1534 19.6584 46.7467 19.0617 46.7467C18.4649 46.7467 18.1434 47.1972 18.1434 47.6805V50.836H16.483V47.6695C16.483 47.1534 16.2055 46.7467 15.5977 46.7467C15.0119 46.7467 14.6904 47.1972 14.6904 47.6914V50.836H13.0058Z" fill="#010202"/>
<path d="M22.7701 50.836V45.3734H24.3754V46.001C24.6529 45.5177 25.3598 45.2094 25.9587 45.2094C26.7449 45.2094 27.3086 45.5287 27.5861 46.0666C28.0177 45.4499 28.5484 45.2094 29.2906 45.2094C30.33 45.2094 31.3275 45.8129 31.3275 47.2978V50.836H29.7002V47.6695C29.7002 47.1534 29.4227 46.7467 28.8259 46.7467C28.2291 46.7467 27.9076 47.1972 27.9076 47.6805V50.836H26.2472V47.6695C26.2472 47.1534 25.9697 46.7467 25.362 46.7467C24.7762 46.7467 24.4547 47.1972 24.4547 47.6914V50.836H22.7701Z" fill="#010202"/>
<path d="M37.5376 49.2637C37.2711 50.2084 36.3969 51 35.0029 51C33.4857 51 32.1357 49.9219 32.1357 48.0872C32.1357 46.329 33.4526 45.2072 34.8818 45.2072C36.5863 45.2072 37.6389 46.2525 37.6389 48.0107C37.6389 48.2403 37.6169 48.4939 37.6058 48.5268H33.7763C33.8094 49.1412 34.3731 49.583 35.0271 49.583C35.6349 49.583 35.9785 49.2965 36.1348 48.8679L37.5376 49.2637ZM36.0093 47.4508C35.9873 47.0332 35.6988 46.528 34.9016 46.528C34.1925 46.528 33.838 47.0441 33.805 47.4508H36.0093Z" fill="#010202"/>
<path d="M42.0079 47.0222C41.8207 46.9785 41.6424 46.9676 41.4772 46.9676C40.8012 46.9676 40.1934 47.3634 40.1934 48.4524V50.8382H38.5109V45.3756H40.1383V46.1125C40.4268 45.498 41.1227 45.3209 41.5653 45.3209C41.7305 45.3209 41.8978 45.3428 42.0079 45.3756V47.0222Z" fill="#010202"/>
<path d="M44.0229 48.1091C44.0229 48.9772 44.6086 49.4605 45.3067 49.4605C45.9607 49.4605 46.3241 49.0538 46.4474 48.647L47.9316 49.0975C47.6872 50.0531 46.7799 51 45.3089 51C43.6705 51 42.3536 49.8017 42.3536 48.1091C42.3536 46.4056 43.6375 45.2072 45.2538 45.2072C46.7711 45.2072 47.6564 46.13 47.8986 47.1097L46.3924 47.5602C46.2712 47.1425 45.9387 46.7467 45.2847 46.7467C44.5888 46.7467 44.0229 47.23 44.0229 48.1091Z" fill="#010202"/>
<path d="M53.699 49.2637C53.4326 50.2084 52.5583 51 51.1644 51C49.6471 51 48.2972 49.9219 48.2972 48.0872C48.2972 46.329 49.6141 45.2072 51.0433 45.2072C52.7477 45.2072 53.8003 46.2525 53.8003 48.0107C53.8003 48.2403 53.7783 48.4939 53.7673 48.5268H49.9378C49.9708 49.1412 50.5346 49.583 51.1886 49.583C51.7964 49.583 52.1399 49.2965 52.2963 48.8679L53.699 49.2637ZM52.1708 47.4508C52.1487 47.0332 51.8603 46.528 51.0631 46.528C50.354 46.528 49.9995 47.0441 49.9664 47.4508H52.1708Z" fill="#010202"/>
<path d="M58.0152 42.723C58.568 42.723 59.0106 43.1625 59.0106 43.7005C59.0106 44.2384 58.568 44.678 58.0152 44.678C57.4845 44.678 57.0419 44.2384 57.0419 43.7005C57.0419 43.1625 57.4845 42.723 58.0152 42.723ZM57.185 50.836V45.3734H58.8674V50.836H57.185Z" fill="#010202"/>
<path d="M61.8117 50.836H60.1293V45.3734H61.7567V46.001C62.0561 45.4849 62.73 45.2312 63.2959 45.2312C64.6789 45.2312 65.2999 46.2087 65.2999 47.4071V50.836H63.6175V47.6914C63.6175 47.1534 63.329 46.7467 62.7212 46.7467C62.1685 46.7467 61.8139 47.1534 61.8139 47.7023V50.836H61.8117Z" fill="#010202"/>
<path d="M69.0193 50.836V45.3734H70.6246V46.001C70.9021 45.5177 71.609 45.2094 72.208 45.2094C72.9941 45.2094 73.5579 45.5287 73.8354 46.0666C74.267 45.4499 74.7977 45.2094 75.5398 45.2094C76.5792 45.2094 77.5768 45.8129 77.5768 47.2978V50.836H75.9494V47.6695C75.9494 47.1534 75.672 46.7467 75.0752 46.7467C74.4784 46.7467 74.1569 47.1972 74.1569 47.6805V50.836H72.4965V47.6695C72.4965 47.1534 72.219 46.7467 71.6112 46.7467C71.0254 46.7467 70.7039 47.1972 70.7039 47.6914V50.836H69.0193Z" fill="#010202"/>
<path d="M84.2272 48.0981C84.2272 49.7907 82.9544 51 81.305 51C79.6666 51 78.3828 49.7907 78.3828 48.0981C78.3828 46.4056 79.6666 45.2072 81.305 45.2072C82.9544 45.2072 84.2272 46.4056 84.2272 48.0981ZM82.5448 48.0981C82.5448 47.1753 81.948 46.7467 81.305 46.7467C80.673 46.7467 80.0652 47.1753 80.0652 48.0981C80.0652 49.01 80.673 49.4605 81.305 49.4605C81.948 49.4605 82.5448 49.021 82.5448 48.0981Z" fill="#010202"/>
<path d="M87.1054 45.3734H88.18V46.8342H87.1054V48.8788C87.1054 49.3293 87.3498 49.4496 87.7132 49.4496C87.8894 49.4496 88.0567 49.4168 88.1558 49.3949V50.7791C88.0898 50.8119 87.8123 50.9322 87.2816 50.9322C86.1409 50.9322 85.445 50.2609 85.445 49.174V46.832H84.4717V45.3712H84.7491C85.3239 45.3712 85.6014 44.9863 85.6014 44.4812V43.777H87.1054V45.3734Z" fill="#010202"/>
<path d="M89.9946 42.723C90.5474 42.723 90.99 43.1625 90.99 43.7005C90.99 44.2384 90.5474 44.678 89.9946 44.678C89.4639 44.678 89.0213 44.2384 89.0213 43.7005C89.0213 43.1625 89.4639 42.723 89.9946 42.723ZM89.1644 50.836V45.3734H90.8469V50.836H89.1644Z" fill="#010202"/>
<path d="M97.5545 48.0981C97.5545 49.7907 96.2817 51 94.6323 51C92.9939 51 91.7101 49.7907 91.7101 48.0981C91.7101 46.4056 92.9939 45.2072 94.6323 45.2072C96.2817 45.2072 97.5545 46.4056 97.5545 48.0981ZM95.8721 48.0981C95.8721 47.1753 95.2753 46.7467 94.6323 46.7467C94.0003 46.7467 93.3925 47.1753 93.3925 48.0981C93.3925 49.01 94.0003 49.4605 94.6323 49.4605C95.2753 49.4605 95.8721 49.021 95.8721 48.0981Z" fill="#010202"/>
<path d="M100.102 50.836H98.42V45.3734H100.047V46.001C100.347 45.4849 101.021 45.2312 101.587 45.2312C102.97 45.2312 103.591 46.2087 103.591 47.4071V50.836H101.908V47.6914C101.908 47.1534 101.62 46.7467 101.012 46.7467C100.459 46.7467 100.105 47.1534 100.105 47.7023V50.836H100.102Z" fill="#010202"/>
</svg>
