<svg width="17" height="16" viewBox="0 0 17 16" fill="none" xmlns="http://www.w3.org/2000/svg">
<rect x="0.800781" width="16" height="16" rx="2" fill="#FFE000"/>
<path d="M13.7839 10.0734C13.3682 10.2625 12.9868 10.297 12.7963 10.297C11.7564 10.297 10.7861 9.60874 10.4913 8.59356C10.3525 8.09441 10.4047 7.64706 10.4391 7.47519C10.647 6.33955 11.6347 5.49665 12.7959 5.49665C13.7835 5.49665 14.6155 6.15041 15.0139 7.06238C15.187 7.47519 15.2044 7.81934 15.2044 7.99161C15.2052 8.86904 14.6159 9.71234 13.7839 10.0734ZM15.4649 4.91197C14.4598 4.06867 13.2642 4 12.8137 4C11.2715 4 9.88499 4.75696 9.19175 6.16808C8.9147 6.75317 8.82774 7.28645 8.81035 7.5274C8.70641 8.76624 9.20874 10.0738 10.1447 10.8825C10.5087 11.1921 11.4272 11.8286 12.7789 11.8286C14.3732 11.8286 15.7767 10.9685 16.4352 9.50593C16.5565 9.24772 16.7992 8.6799 16.7992 7.90567C16.7992 6.77003 16.2968 5.63439 15.4649 4.91197Z" fill="#272833"/>
<path d="M13.5994 7.92238C13.5994 8.3617 13.2406 8.71829 12.7977 8.71829C12.3548 8.71829 11.9961 8.3621 11.9961 7.92238C11.9961 7.48266 12.3548 7.12646 12.7977 7.12646C13.2406 7.12646 13.5994 7.48266 13.5994 7.92238Z" fill="#272833"/>
<path d="M5.78785 10.088C5.37207 10.2771 4.99067 10.3117 4.80017 10.3117C3.76032 10.3117 2.79003 9.62338 2.49518 8.60821C2.35645 8.10906 2.40862 7.66171 2.44341 7.48984C2.6513 6.3542 3.63898 5.5113 4.80017 5.5113C5.78785 5.5113 6.61982 6.16506 7.01821 7.07702C7.19132 7.48984 7.20871 7.83399 7.20871 8.00626C7.20871 8.88369 6.61982 9.72659 5.78785 10.088ZM7.46877 4.92621C6.4637 4.08332 5.26813 4.01465 4.81756 4.01465C3.27537 4.01465 1.8889 4.77161 1.19566 6.18273C0.918203 6.76741 0.83165 7.3007 0.814258 7.54164C0.710313 8.78049 1.21265 10.088 2.14856 10.8968C2.51257 11.2064 3.43109 11.8429 4.78238 11.8429C6.37674 11.8429 7.7802 10.9827 8.43866 9.52018C8.56 9.26197 8.80267 8.69415 8.80267 7.91992C8.80307 6.78468 8.30074 5.64904 7.46877 4.92621Z" fill="#272833"/>
<path d="M5.60326 7.93703C5.60326 8.37634 5.24451 8.73294 4.80163 8.73294C4.35875 8.73294 4 8.37675 4 7.93703C4 7.49731 4.35875 7.14111 4.80163 7.14111C5.24451 7.14111 5.60326 7.49771 5.60326 7.93703Z" fill="#272833"/>
</svg>
