<svg width="1184" height="736" viewBox="0 0 1184 736" fill="none" xmlns="http://www.w3.org/2000/svg">
<g clip-path="url(#clip0)">
<path opacity="0.5" d="M1403.04 912.058C1403.04 912.058 1091.38 721.476 858.198 632.43C558.933 518.147 394.452 520.805 -0.564272 567.517C-0.564272 661.052 -0.564272 912.058 -0.564272 912.058H1403.04Z" fill="white"/>
<path d="M573.039 118.787H446.039C446.039 118.787 450.229 105.595 474.803 108.273C490.966 82.2293 514.941 103.059 514.941 107.903C531.105 75.6756 573.039 97.8726 573.039 118.787Z" fill="white"/>
<path d="M280.206 269.872H65.3459C65.3459 269.872 72.8717 249.042 105.085 255.482C127.634 209.293 179.204 195.473 209.28 236.733C263.016 229.695 280.206 269.872 280.206 269.872Z" fill="white"/>
<path d="M24.466 61.6922C49.7236 -0.254506 131.226 20.3754 138.097 66.2798C193.201 36.4462 228.779 91.5258 228.779 91.5258H-0.563557V63.4304C6.53479 61.5212 14.8305 60.6949 24.466 61.6922Z" fill="white"/>
<path fill-rule="evenodd" clip-rule="evenodd" d="M84.4568 758.302C84.6439 757.825 85.0437 757.459 85.4511 757.147C88.233 754.967 91.8568 754.202 95.3706 753.831C103.047 753.013 110.881 753.787 118.261 756.063C109.672 749.54 101.814 742.066 95.0369 733.684L94.9678 733.626C88.5221 735.809 81.384 735.233 74.6102 734.171C69.0383 733.302 62.9897 731.831 59.6431 727.293C58.931 726.327 58.3729 724.974 59.0487 723.983C59.3399 723.559 59.7964 723.289 60.267 723.067C63.4499 721.532 67.1537 721.558 70.668 721.947C77.6764 722.71 84.5375 724.808 90.7896 728.061C85.9988 721.258 82.0929 714.041 78.6874 706.561L78.228 705.958C78.2192 705.848 78.2168 705.735 78.208 705.625C71.5683 706.481 64.7689 704.61 58.4126 702.353C53.0956 700.469 47.4293 697.904 44.9802 692.817C44.4584 691.738 44.1702 690.303 45.0087 689.449C45.369 689.082 45.8712 688.906 46.372 688.768C49.7847 687.852 53.4173 688.563 56.8003 689.592C63.6258 691.666 70.0472 695.052 75.6361 699.48C73.7629 694.916 72.0173 690.272 70.3209 685.575L70.2834 685.563C64.9766 680.381 62.5126 672.995 60.7117 665.802C59.3408 660.33 58.3502 654.189 61.2343 649.34C61.8436 648.309 62.8797 647.269 64.0563 647.507C64.5599 647.609 64.9848 647.928 65.3774 648.271C68.0277 650.609 69.4414 654.031 70.4534 657.415C72.9724 665.859 73.4866 674.892 71.9765 683.575C74.008 689.222 76.1017 694.806 78.4052 700.263C79.1471 694.867 81.4078 689.635 83.8788 684.718C86.4107 679.682 89.6708 674.378 95.0208 672.583C96.1604 672.203 97.6145 672.094 98.3545 673.031C98.6738 673.434 98.7834 673.964 98.8574 674.47C99.3377 677.975 98.1778 681.487 96.7339 684.716C93.1218 692.786 87.5952 699.987 80.7452 705.579C84.4322 713.642 88.6864 721.386 93.9834 728.625C93.5455 722.945 94.8367 717.109 96.4273 711.565C97.9899 706.145 100.201 700.332 105.126 697.582C106.172 696.997 107.59 696.616 108.486 697.405C108.874 697.741 109.08 698.242 109.243 698.725C110.368 702.078 109.878 705.75 109.056 709.181C106.995 717.805 102.878 725.938 97.1542 732.718C97.5362 733.183 97.9007 733.651 98.2891 734.111C104.724 741.74 112.063 748.567 120.025 754.563C118.296 749.033 118.301 742.939 118.687 737.088C119.056 731.462 119.979 725.305 124.196 721.567C125.093 720.769 126.397 720.1 127.445 720.678C127.895 720.923 128.202 721.363 128.469 721.802C130.287 724.837 130.587 728.525 130.522 732.062C130.355 740.877 128.094 749.642 124.001 757.45C128.128 760.347 132.417 763.034 136.813 765.503C140.84 767.786 144.963 769.849 149.163 771.733C145.135 766.631 143.163 760.076 141.714 753.677C140.467 748.176 139.616 742.014 142.607 737.236C142.868 736.823 143.19 736.415 143.56 736.09L152.44 748.828C154.113 756.803 154.061 765.134 152.268 773.081C158.342 775.65 164.554 777.825 170.867 779.688L168.542 781.309C162.885 779.585 157.314 777.598 151.852 775.314C147.234 780.823 140.35 783.937 133.573 786.39C128.274 788.313 122.263 789.934 117.146 787.563C116.056 787.063 114.922 786.14 115.033 784.947C115.08 784.433 115.359 783.979 115.655 783.561C117.711 780.685 120.968 778.924 124.231 777.573C131.457 774.577 139.313 773.104 147.136 773.242C142.559 771.149 138.059 768.849 133.666 766.302C129.986 764.171 126.397 761.88 122.908 759.443C122.902 759.448 122.9 759.459 122.893 759.463L122.687 759.347C116.668 763.427 109.102 764.486 101.834 764.924C96.2042 765.269 89.9816 765.122 85.741 761.4C84.8423 760.621 84.009 759.412 84.4568 758.302Z" fill="#1B4DED"/>
<path d="M248.913 725.298C242.337 697.618 232.912 671.317 222.241 651.264L203.635 671.796L210.036 630.817C182.011 586.411 131.65 527.426 96.0616 508.431C92.962 530.5 92.4038 555.041 94.5481 580.643L129.179 621.398L98.6979 613.373C107.441 664.975 126.5 729.91 169.588 780.589L248.913 725.298Z" fill="#6CE8CC"/>
<path d="M211.773 751.184C211.613 750.844 211.448 750.497 211.288 750.157L202.802 732.727C197.047 721.16 191.362 709.554 185.689 697.939C174.391 674.695 163.176 651.404 152.076 628.07C140.898 604.762 129.873 581.386 119.103 557.89L118.562 558.122C121.071 564.081 123.536 570.061 126.089 575.999L133.776 593.802C138.934 605.659 144.149 617.487 149.395 629.304C159.966 652.9 170.648 676.448 181.417 699.955L197.529 735.239L205.745 752.807L206.677 754.737L211.773 751.184Z" fill="white"/>
<path d="M689.023 505.01C703.078 502.867 712.168 508.289 717.779 518.081L690.405 539.25L689.023 505.01Z" fill="#6CE8CC"/>
<path d="M694.473 710.677L676.762 702.596C676.762 702.596 669.287 676.406 663.358 643.062L692.058 650.665L694.473 710.677Z" fill="#6CE8CC"/>
<path d="M713.554 644.213L704.21 715.121L697.379 711.98L694.892 650.549L713.554 644.213Z" fill="#6CE8CC"/>
<path d="M692.052 580.222L690.545 542.775L719.138 520.646C723.226 529.117 725.118 540.287 725.635 552.513L724.381 562.033L692.052 580.222Z" fill="#6CE8CC"/>
<path d="M691.937 647.66L662.82 639.945C661.097 629.888 659.509 619.246 658.332 608.543L690.719 617.408L691.937 647.66Z" fill="#6CE8CC"/>
<path d="M692.177 583.428L723.917 565.564L718.836 604.126L693.438 614.231L692.177 583.428Z" fill="#6CE8CC"/>
<path d="M663.838 526.151C668.54 515.562 675.7 508.141 686.215 505.588L687.599 539.599L663.838 526.151Z" fill="#6CE8CC"/>
<path d="M689.217 580.566L656.268 568.983C656.577 553.763 658.444 539.811 662.739 528.822L687.733 542.95L689.217 580.566Z" fill="#6CE8CC"/>
<path d="M734.589 685.985L714.028 662.44L719.549 620.545L747.712 652.075L734.589 685.985Z" fill="#6CE8CC"/>
<path d="M690.592 614.431L658.011 605.513C656.859 594.18 656.174 582.795 656.221 571.966L689.332 583.627L690.592 614.431Z" fill="#6CE8CC"/>
<path d="M693.555 617.264L718.411 607.346L713.966 641.077L694.766 647.573L693.555 617.264Z" fill="#6CE8CC"/>
<path d="M763.264 619.808L829.822 624.436C825.376 637.014 820.166 649.491 814.291 661.564L751.321 650.655L763.264 619.808Z" fill="#6CE8CC"/>
<path d="M779.38 578.245L842.551 578.03C839.848 592.217 835.864 606.953 830.82 621.666L764.375 617.052L779.38 578.245Z" fill="#6CE8CC"/>
<path d="M818.093 478.211C835.107 484.821 843.832 502.611 846.003 526.292L796.83 533.094L818.093 478.211Z" fill="#6CE8CC"/>
<path d="M778 573.868L739.689 521.801C744.953 511.315 751.263 501.828 758.764 494.222L793.025 535.121L778 573.868Z" fill="#6CE8CC"/>
<path d="M750.275 653.361L812.995 664.209C807.239 675.81 800.854 686.954 794.025 697.321L737.026 687.571L750.275 653.361Z" fill="#6CE8CC"/>
<path d="M792.301 699.938C781.803 715.455 770.228 729.106 757.945 739.617L723.038 723.695L735.977 690.306L792.301 699.938Z" fill="#4C60A5"/>
<path d="M748.882 649.097L720.041 616.816L725.025 578.988L760.688 618.635L748.882 649.097Z" fill="#6CE8CC"/>
<path d="M761.828 615.653L725.512 575.288L729.149 547.688C731.748 539.753 734.779 532.018 738.275 524.69L776.807 577.044L761.828 615.653Z" fill="#6CE8CC"/>
<path d="M733.446 688.996L720.46 722.521L706.926 716.341L713.534 666.197L733.446 688.996Z" fill="#6CE8CC"/>
<path d="M760.81 492.222C771.772 481.911 785.184 475.486 801.673 475.387C806.708 475.361 811.279 476.02 815.397 477.281L794.174 532.083L760.81 492.222Z" fill="#6CE8CC"/>
<path d="M795.683 536.132L846.233 529.138C847.174 542.943 846.027 558.628 843.043 575.164L780.477 575.373L795.683 536.132Z" fill="#6CE8CC"/>
<path d="M734.345 690.033L735.976 690.306L723.065 723.698L720.46 722.521L733.446 688.995L734.345 690.033Z" fill="#637ABE"/>
<path d="M795.22 533.312L794.178 532.054L815.402 477.253C816.312 477.546 817.222 477.838 818.097 478.183L796.863 533.069L795.22 533.312Z" fill="#637ABE"/>
<path d="M734.589 685.985L747.712 652.076L748.642 653.089L750.274 653.362L737.022 687.599L735.814 687.383L734.589 685.985Z" fill="#637ABE"/>
<path d="M748.881 649.097L760.687 618.635L761.638 619.708L763.264 619.807L751.321 650.654L750.109 650.465L748.881 649.097Z" fill="#637ABE"/>
<path d="M778.001 573.868L792.998 535.117L794.072 536.351L795.682 536.132L780.477 575.372L779.122 575.395L778.001 573.868Z" fill="#637ABE"/>
<path d="M761.829 615.653L776.782 577.012L777.683 578.251L779.38 578.245L764.348 617.048L763.012 616.929L761.829 615.653Z" fill="#637ABE"/>
<path d="M692.178 583.428L693.438 614.231L692.009 614.819L690.594 614.432L689.362 583.631L690.872 584.175L692.178 583.428Z" fill="#637ABE"/>
<path d="M693.555 617.264L694.766 647.573L693.38 648.051L691.936 647.66L690.718 617.408L692.162 617.799L693.555 617.264Z" fill="#637ABE"/>
<path d="M688.964 540.382L687.572 539.596L686.188 505.586C687.081 505.358 687.966 505.187 688.907 505.024C688.936 505.028 688.968 505.003 689.024 505.011L690.407 539.25L688.964 540.382Z" fill="#637ABE"/>
<path d="M693.479 651.024L694.893 650.549L697.379 711.979L694.474 710.677L692.063 650.636L693.479 651.024Z" fill="#637ABE"/>
<path d="M690.546 542.775L692.053 580.221L690.594 581.035L689.218 580.566L687.706 542.947L689.235 543.781L690.546 542.775Z" fill="#637ABE"/>
<path d="M796.86 533.097L846.033 526.296C846.112 527.226 846.187 528.184 846.262 529.142L795.712 536.136L796.86 533.097Z" fill="#637ABE"/>
<path d="M792.996 535.118L758.734 494.219C759.4 493.53 760.091 492.874 760.781 492.218L794.176 532.054L792.996 535.118Z" fill="#637ABE"/>
<path d="M792.998 535.118L794.174 532.082L795.22 533.312L796.858 533.097L795.682 536.132L794.071 536.351L792.998 535.118Z" fill="#637ABE"/>
<path d="M780.477 575.372L843.044 575.163C842.861 576.116 842.706 577.073 842.523 578.026L779.352 578.242L780.477 575.372Z" fill="#637ABE"/>
<path d="M776.782 577.012L738.251 524.658C738.724 523.685 739.193 522.741 739.666 521.769L777.977 573.835L776.782 577.012Z" fill="#637ABE"/>
<path d="M776.782 577.012L778.002 573.867L779.123 575.394L780.478 575.372L779.38 578.245L777.683 578.251L776.782 577.012Z" fill="#637ABE"/>
<path d="M760.687 618.635L725.024 578.988L725.516 575.259L761.828 615.652L760.687 618.635Z" fill="#637ABE"/>
<path d="M764.348 617.048L830.793 621.661C830.469 622.596 830.145 623.531 829.824 624.437L763.265 619.809L764.348 617.048Z" fill="#637ABE"/>
<path d="M760.688 618.635L761.829 615.653L763.012 616.929L764.348 617.048L763.265 619.808L761.639 619.709L760.688 618.635Z" fill="#637ABE"/>
<path d="M715.719 643.493L714.811 640.786L713.967 641.078L718.412 607.347L720.659 606.436L719.598 603.796L718.811 604.094L723.888 565.561L726.373 564.164L724.975 561.68L724.354 562.03L725.608 552.509C725.683 554.56 725.754 556.639 725.737 558.734C726.772 555.02 727.893 551.316 729.123 547.655L725.486 575.256L725.061 574.769L722.942 576.674L725.023 578.989L720.039 616.816L719.614 616.329L717.495 618.234L719.576 620.548L714.056 662.443L713.631 661.956L711.487 663.83L713.561 666.201L706.954 716.345L704.243 715.097L713.582 644.217L715.719 643.493Z" fill="#637ABE"/>
<path d="M722.942 576.674L725.062 574.769L725.515 575.26L725.024 578.989L722.942 576.674Z" fill="#637ABE"/>
<path d="M687.572 539.595L687.706 542.947L662.711 528.819C663.06 527.917 663.438 527.018 663.807 526.176L687.572 539.595Z" fill="#637ABE"/>
<path d="M690.403 539.279L717.777 518.11C718.245 518.919 718.706 519.784 719.135 520.674L690.542 542.804L690.403 539.279Z" fill="#637ABE"/>
<path d="M690.403 539.278L690.546 542.775L689.235 543.78L687.706 542.947L687.572 539.595L688.964 540.382L690.403 539.278Z" fill="#637ABE"/>
<path d="M689.362 583.631L656.25 571.969C656.267 570.966 656.285 569.962 656.302 568.958L689.251 580.541L689.362 583.631Z" fill="#637ABE"/>
<path d="M692.053 580.221L724.382 562.032L723.916 565.564L692.176 583.428L692.053 580.221Z" fill="#637ABE"/>
<path d="M692.054 580.221L692.177 583.428L690.871 584.176L689.361 583.632L689.219 580.567L690.595 581.035L692.054 580.221Z" fill="#637ABE"/>
<path d="M725.004 561.684L726.402 564.167L723.918 565.564L724.383 562.033L725.004 561.684Z" fill="#637ABE"/>
<path d="M693.438 614.232L718.837 604.126L718.412 607.347L693.556 617.265L693.438 614.232Z" fill="#637ABE"/>
<path d="M690.72 617.408L658.333 608.543C658.209 607.521 658.113 606.502 658.013 605.512L690.595 614.431L690.72 617.408Z" fill="#637ABE"/>
<path d="M693.437 614.231L693.555 617.264L692.162 617.799L690.718 617.408L690.593 614.431L692.008 614.819L693.437 614.231Z" fill="#637ABE"/>
<path d="M719.627 603.799L720.656 606.464L718.412 607.347L718.836 604.126L719.627 603.799Z" fill="#637ABE"/>
<path d="M692.063 650.637L663.362 643.034C663.182 642.004 663.001 640.974 662.821 639.945L691.938 647.66L692.063 650.637Z" fill="#637ABE"/>
<path d="M713.967 641.077L713.553 644.213L694.891 650.55L694.766 647.573L713.967 641.077Z" fill="#637ABE"/>
<path d="M694.766 647.573L694.892 650.549L693.478 651.024L692.062 650.637L691.937 647.66L693.381 648.051L694.766 647.573Z" fill="#637ABE"/>
<path d="M714.81 640.787L715.719 643.493L713.553 644.214L713.967 641.078L714.81 640.787Z" fill="#637ABE"/>
<path d="M751.321 650.654L814.292 661.564C813.858 662.455 813.424 663.347 812.99 664.238L750.27 653.39L751.321 650.654Z" fill="#637ABE"/>
<path d="M747.712 652.075L719.548 620.545L720.039 616.815L748.881 649.097L747.712 652.075Z" fill="#637ABE"/>
<path d="M747.713 652.075L748.882 649.097L750.11 650.466L751.322 650.654L750.275 653.361L748.643 653.089L747.713 652.075Z" fill="#637ABE"/>
<path d="M717.467 618.23L719.615 616.329L720.04 616.816L719.548 620.545L717.467 618.23Z" fill="#637ABE"/>
<path d="M733.446 688.996L713.534 666.197L714.029 662.44L734.59 685.985L733.446 688.996Z" fill="#637ABE"/>
<path d="M737.022 687.599L794.021 697.349C793.446 698.222 792.871 699.095 792.299 699.939L735.975 690.307L737.022 687.599Z" fill="#637ABE"/>
<path d="M735.815 687.382L737.023 687.599L735.976 690.306L734.344 690.034L733.446 688.996L734.59 685.985L735.815 687.382Z" fill="#637ABE"/>
<path d="M711.458 663.826L713.603 661.953L714.027 662.44L713.532 666.197L711.458 663.826Z" fill="#637ABE"/>
<path d="M252.466 739.964L185.816 370.933C220.68 364.893 252.552 682.576 252.552 682.576C252.552 682.576 229.461 304.171 264.781 304.171C264.81 304.171 264.838 304.2 264.867 304.2L257.256 739.907L252.466 739.964Z" fill="#A0ABE9"/>
<path d="M239.212 740.22L154.061 496.907C176.126 495.824 204.661 590.967 217.946 640.29C222.422 658.099 225.358 669.155 225.358 669.155C225.358 669.155 222.564 657.53 217.946 640.29C200.072 569.026 157.881 389.084 183.11 372.016L249.561 740.021L239.212 740.22Z" fill="#A0ABE9"/>
<path d="M217.974 640.291C222.621 657.501 225.386 669.155 225.386 669.155C225.386 669.155 222.45 658.1 217.974 640.291Z" fill="#A0ABE9"/>
<path d="M226.753 740.419C226.753 740.419 120.791 513.975 150.667 497.847C150.866 497.733 151.094 497.676 151.294 497.59L236.217 740.277L226.753 740.419Z" fill="#A0ABE9"/>
<path d="M271.596 739.65L266.664 739.736L355.978 419.744C383.858 430.914 271.596 739.65 271.596 739.65Z" fill="#A0ABE9"/>
<path d="M260.136 739.85L267.719 305.169C298.478 325.97 271.596 682.605 271.596 682.605C271.596 682.605 323.907 426.384 353.099 419.545L263.699 739.822L260.136 739.85Z" fill="#A0ABE9"/>
<path d="M263.699 739.793L353.098 419.516C354.039 419.288 354.951 419.317 355.835 419.63C355.892 419.659 355.949 419.687 356.006 419.716L266.692 739.707L263.699 739.793Z" fill="#697DD1"/>
<path d="M257.286 739.907L264.898 304.2C265.896 304.228 266.836 304.542 267.72 305.169L260.137 739.85L257.286 739.907Z" fill="#697DD1"/>
<path d="M249.589 740.021L183.138 372.016C183.623 371.703 184.108 371.418 184.649 371.218C185.048 371.076 185.447 370.99 185.846 370.933L252.497 739.964L249.589 740.021Z" fill="#697DD1"/>
<path d="M236.217 740.249L151.294 497.562C152.206 497.163 153.146 496.936 154.087 496.879L239.239 740.192L236.217 740.249Z" fill="#697DD1"/>
<path d="M379.696 675.025L364.53 741.759H357.032L312.96 442.283C390.215 520.101 386.452 626.499 379.696 675.025Z" fill="#4C60A5"/>
<path d="M483.833 537.967L371.001 741.759H367.466L384.2 668.13C397.427 629.919 426.676 568.257 483.833 537.967Z" fill="#4C60A5"/>
<path d="M391.157 741.759H374.281L486.229 539.592C485.061 696.14 391.157 741.759 391.157 741.759Z" fill="#4C60A5"/>
<path d="M302.841 741.759C302.841 741.759 225.985 705.941 190.721 586.636L315.413 741.759H302.841Z" fill="#4C60A5"/>
<path d="M301.073 679.299L324.421 741.759H319.09L191.348 582.846C252.069 601.795 285.48 649.38 301.073 679.299Z" fill="#4C60A5"/>
<path d="M310.565 445.646L354.153 741.759H327.47L304.094 679.214C291.209 633.081 271.653 533.351 310.565 445.646Z" fill="#4C60A5"/>
<path d="M486.229 536.714C486.229 537.682 486.201 538.623 486.201 539.592L374.252 741.759H371.002L483.835 537.967C484.633 537.568 485.431 537.113 486.229 536.714Z" fill="#637ABE"/>
<path d="M312.361 441.656C312.561 441.856 312.76 442.084 312.96 442.283L357.032 741.759H354.153L310.565 445.646C311.164 444.306 311.734 442.996 312.361 441.656Z" fill="#637ABE"/>
<path d="M191.349 582.846L319.091 741.759H315.442L190.751 586.636C190.323 585.154 189.867 583.729 189.439 582.219C190.066 582.39 190.693 582.646 191.349 582.846Z" fill="#637ABE"/>
<path d="M376.446 693.974C375.334 698.447 374.849 701.012 374.849 701.012C374.849 701.012 375.505 698.533 376.446 693.974C377.9 688.161 380.38 679.128 384.171 668.129L367.437 741.759H364.53L379.696 675.025C378.584 683.06 377.387 689.529 376.446 693.974Z" fill="#637ABE"/>
<path d="M376.448 693.974C375.507 698.533 374.852 701.012 374.852 701.012C374.852 701.012 375.336 698.476 376.448 693.974Z" fill="#637ABE"/>
<path d="M310.538 700.072C311.678 703.349 312.334 705.087 312.334 705.087C312.334 705.087 311.764 703.235 310.538 700.072C309.027 695.684 306.689 688.532 304.095 679.214L327.471 741.759H324.421L301.073 679.299C305.748 688.218 308.799 695.541 310.538 700.072Z" fill="#637ABE"/>
<path d="M310.537 700.072C311.763 703.235 312.333 705.087 312.333 705.087C312.333 705.087 311.678 703.349 310.537 700.072Z" fill="#637ABE"/>
<path d="M648.072 658.214C1012.9 658.214 1166.45 737.753 1166.45 737.753C1166.45 737.753 1012.9 771.182 648.072 771.182C283.246 771.182 129.695 737.753 129.695 737.753C129.695 737.753 283.246 658.214 648.072 658.214Z" fill="#A3DEEA"/>
<path d="M556.642 465.506L573.262 725.774H556.471L512.74 507.792L487.055 725.774H471.319L470.407 465.506H556.642Z" fill="#FFCFC5"/>
<path d="M653.794 388.372L654.022 390.253L665.111 481.862H451.049L471.603 391.393L505.555 280.379L584.321 294.569L585.946 294.882L587.571 294.541L691.68 272.628L654.364 386.606L653.794 388.372Z" fill="#E0EEFB"/>
<path d="M440.445 490.325L463.422 389.227L499.655 270.719L585.804 286.249L704.281 261.316L662.404 389.227L674.633 490.325H440.445V490.325ZM587.572 294.541L585.947 294.882L584.322 294.598L505.584 280.407L471.632 391.421L451.05 481.891H665.112L654.023 390.282L653.795 388.429L654.365 386.634L691.681 272.657L587.572 294.541Z" fill="white"/>
<path d="M512.882 345.489C520.237 345.489 526.224 339.505 526.224 332.153V309.927H499.541V332.153C499.57 339.533 505.528 345.489 512.882 345.489Z" fill="#FFCFC5"/>
<path opacity="0.7" d="M466.898 377.858L569.183 383.927L662.431 389.227L674.66 490.325H440.443L466.898 377.858Z" fill="#E0EEFB"/>
<path d="M592.593 310.583C595.073 310.583 597.81 312.891 600.376 316.025H584.811C587.376 312.891 590.085 310.583 592.593 310.583Z" fill="white"/>
<path d="M574.235 334.205C574.235 334.205 579.138 323.007 584.811 316.026H600.347C606.02 323.007 610.923 334.205 610.923 334.205H574.235Z" fill="#A0ABE9"/>
<path d="M611.921 318.39C613.575 318.39 615.399 319.929 617.138 322.037H606.733C608.415 319.929 610.239 318.39 611.921 318.39Z" fill="white"/>
<path d="M599.633 334.204C599.633 334.204 602.912 326.71 606.703 322.037H617.109C620.9 326.71 624.178 334.204 624.178 334.204H599.633Z" fill="#A0ABE9"/>
<path d="M573.266 318.39C574.919 318.39 576.744 319.929 578.483 322.037H568.078C569.788 319.929 571.613 318.39 573.266 318.39Z" fill="white"/>
<path d="M560.979 334.204C560.979 334.204 564.257 326.71 568.048 322.037H578.453C582.245 326.71 585.523 334.204 585.523 334.204H560.979Z" fill="#A0ABE9"/>
<path d="M569.7 346.827C576.855 350.503 582.442 356.288 586.633 364.266C630.819 336.797 667.223 342.268 668.734 342.553L667.109 347.597C666.739 347.54 631.361 341.3 588.457 368.113C589.626 370.763 590.681 373.584 591.565 376.661C602.284 413.276 656.676 418.063 657.217 418.12L657.844 422.394C655.906 422.252 618.476 418.975 598.207 396.778C590.938 402.334 561.318 429.091 579.734 481.891H575.202C556.33 427.723 587.232 399.798 595.499 393.501C592.021 388.999 589.227 383.842 587.488 377.858C583.526 364.323 577.054 355.404 567.704 350.617C554.477 343.807 535.291 345.175 507.382 354.948L505.986 350.959C535.12 340.758 555.36 339.447 569.7 346.827Z" fill="#FB6F6E"/>
<path d="M660.951 447.47C660.951 447.47 643.533 430.031 624.889 442.113C606.245 454.166 601.627 445.76 593.331 454.052C582.213 465.165 592.59 481.862 592.59 481.862H665.113L660.951 447.47Z" fill="#82A7F7"/>
<path opacity="0.5" d="M585.804 286.249L568.044 390.595L556.641 490.325H674.662L662.432 389.227L704.281 261.316L585.804 286.249Z" fill="#E0EEFB"/>
<path d="M503.703 361.815L477.049 416.524C475.253 420.228 471.861 422.907 467.841 423.79C458.89 425.813 450.366 418.519 451.392 409.401C454.5 381.647 478.759 344.177 478.759 344.177L503.703 361.815Z" fill="#F3A9B8"/>
<path d="M558.578 462.885C558.578 462.885 558.606 462.372 558.777 461.489" stroke="#2E3154" stroke-width="0.5" stroke-miterlimit="10"/>
<path d="M559.434 458.725C561.743 450.575 570.152 433.08 599.629 430.544C624.63 428.378 636.917 409.743 617.104 380.593C598.033 352.555 591.162 358.026 590.649 334.66" stroke="#2E3154" stroke-width="0.5" stroke-miterlimit="10" stroke-dasharray="1 1"/>
<path d="M590.649 333.178C590.649 332.722 590.649 332.238 590.649 331.754" stroke="#2E3154" stroke-width="0.5" stroke-miterlimit="10"/>
<path d="M597.122 335.829C597.122 339.22 594.357 341.984 590.964 341.984C587.572 341.984 584.807 339.22 584.807 335.829C584.807 332.438 587.572 329.674 590.964 329.674C594.357 329.674 597.122 332.438 597.122 335.829Z" fill="#FB6F6E"/>
<path d="M523.402 258.039C523.402 258.039 543.215 261.801 543.215 293.771C543.215 325.742 525.74 324.802 513.311 316.823C500.881 308.816 495.066 289.07 503.59 270.748C512.142 252.398 523.402 258.039 523.402 258.039Z" fill="#FFCFC5"/>
<path d="M514.793 327.708C514.793 327.708 544.84 325.742 550.199 359.337C554.561 386.748 545.296 397.719 546.065 420.885C546.436 431.94 556.642 452.228 556.642 465.478C526.395 465.478 470.407 465.478 470.407 465.478C470.407 465.478 472.83 451.659 479.843 420.885C481.667 412.878 477.477 403.332 474.284 392.675C459.032 342.041 490.989 327.708 514.793 327.708Z" fill="#A0ABE9"/>
<path d="M524.342 289.383C524.342 289.383 544.867 291.292 547.091 267.1C549.343 242.909 517.757 235.5 498.258 255.019C492.87 236.64 465.218 241.569 470.292 266.673C458.804 283.257 471.062 287.73 477.476 287.73C477.476 313.717 494.21 323.12 508.549 318.646C522.917 314.116 524.342 289.383 524.342 289.383Z" fill="#FD99FF"/>
<path d="M549.031 351.899L578.907 402.249L644.36 392.703L646.127 402.363C646.127 402.363 608.326 426.298 572.037 422.394C551.397 420.172 532.525 383.471 524.173 364.779C521.436 358.624 523.432 351.386 528.962 347.54C535.633 342.895 544.869 344.918 549.031 351.899Z" fill="#FFCFC5"/>
<path d="M524.343 289.383C524.343 289.383 517.273 288.642 517.273 296.022C517.273 303.43 526.367 304.171 526.367 304.171L524.343 289.383Z" fill="#FFCFC5"/>
<path d="M554.93 454.052C554.93 454.052 571.151 486.564 571.151 539.705C548.573 550.533 517.301 547.712 517.301 547.712L512.91 519.503L510.487 548.054C510.487 548.054 482.265 554.779 457.806 540.674C456.266 486.592 472.658 454.08 472.658 454.08C472.658 454.08 503.446 464.794 554.93 454.052Z" fill="#1B4DED"/>
<path d="M576.282 728.737V692.521H544.04L550.483 737.599H598.319C598.29 737.628 593.472 728.737 576.282 728.737Z" fill="#1B4DED"/>
<path d="M462.453 728.737V692.521H494.695L488.366 737.599H440.445C440.445 737.628 445.235 728.737 462.453 728.737Z" fill="#1B4DED"/>
<path d="M508.691 339.105C508.691 339.105 534.433 384.24 534.433 434.133C534.433 484.027 430.638 483.286 430.638 434.133C430.638 384.981 450.365 339.105 450.365 339.105H508.691Z" fill="#FF4D4D"/>
<path d="M517.7 358.88H449.796C440.075 358.88 432.15 350.93 432.15 341.242C432.15 331.525 440.103 323.604 449.796 323.604H516.845C525.141 323.604 531.926 330.386 531.926 338.678V344.69C531.926 352.497 525.54 358.88 517.7 358.88Z" fill="#F34A4A"/>
<path d="M531.754 405.183C531.754 405.183 554.588 453.139 521.12 453.139C487.681 453.139 502.676 405.183 502.676 405.183H531.754Z" fill="#E03A3A"/>
<path d="M482.293 405.183C482.293 405.183 502.876 453.139 466.187 453.139C429.498 453.139 422.77 451.458 422.77 429.632C422.77 407.805 432.177 405.183 432.177 405.183H482.293V405.183Z" fill="#E03A3A"/>
<path d="M532.894 341.242C532.894 350.788 527.05 358.538 519.809 358.538C512.597 358.538 506.724 350.788 506.724 341.242C506.724 331.697 512.568 323.946 519.809 323.946C527.05 323.946 532.894 331.697 532.894 341.242Z" fill="#E03A3A"/>
<path d="M499.312 323.604C499.312 323.604 483.291 342.724 499.312 358.909C491.159 358.909 491.158 358.909 491.158 358.909C491.158 358.909 474.254 341.128 491.586 323.604" fill="#E03A3A"/>
<path d="M460.571 323.604C460.571 323.604 444.55 342.724 460.571 358.909C452.418 358.909 452.418 358.909 452.418 358.909C452.418 358.909 435.513 341.128 452.846 323.604" fill="#E03A3A"/>
<path d="M641.451 394.071C641.451 394.071 650.916 382.132 653.139 382.901C655.363 383.699 650.916 389.598 650.916 389.598C650.916 389.598 664.058 387.631 665.882 387.631C667.707 387.631 666.395 391.165 663.259 391.963C666.082 394.783 662.604 401.537 653.025 402.334C643.447 403.132 640.681 401.537 640.681 401.537L641.451 394.071Z" fill="#FFCFC5"/>
<path d="M498.002 257.726C498.002 257.726 505.072 269.095 491.56 275.364C494.895 282.516 487.198 290.209 478.817 287.303" stroke="#2E3154" stroke-width="0.5" stroke-miterlimit="10"/>
<path d="M257.274 88.8586L255.595 85.4043L253.915 88.8586L250.65 90.4435L253.915 92.042L255.595 95.4962L257.274 92.042L260.539 90.4435L257.274 88.8586Z" fill="white"/>
<path d="M582.482 143.251L579.57 137.236L576.657 143.251L570.98 146.014L576.657 148.778L579.57 154.792L582.482 148.778L588.159 146.014L582.482 143.251Z" fill="white"/>
</g>
<defs>
<clipPath id="clip0">
<rect width="1184" height="736" fill="white"/>
</clipPath>
</defs>
</svg>
