<svg width="60" height="60" viewBox="0 0 60 60" fill="none" xmlns="http://www.w3.org/2000/svg">
<g clip-path="url(#clip0_2185_37693)">
<path d="M21.2276 39.8574H38.5219C39.6624 39.8574 40.7917 40.0821 41.8454 40.5185C42.899 40.9549 43.8564 41.5946 44.6629 42.4011C45.4693 43.2075 46.109 44.1649 46.5455 45.2186C46.9819 46.2723 47.2065 47.4016 47.2065 48.5421V57.7193C47.2065 58.1822 47.0226 58.6262 46.6953 58.9535C46.368 59.2809 45.924 59.4648 45.461 59.4648H14.2885C13.8255 59.4648 13.3816 59.2809 13.0542 58.9535C12.7269 58.6262 12.543 58.1822 12.543 57.7193V48.5421C12.543 46.2387 13.458 44.0298 15.0866 42.4011C16.7153 40.7724 18.9243 39.8574 21.2276 39.8574Z" fill="white" stroke="#272833" stroke-linejoin="round"/>
<path d="M26.6885 35.2744H33.0494C33.2936 35.2744 33.5279 35.3714 33.7006 35.5441C33.8733 35.7169 33.9703 35.9511 33.9703 36.1954V39.4079C33.9703 40.4957 33.5382 41.5389 32.7691 42.308C31.9999 43.0772 30.9567 43.5093 29.869 43.5093C28.7812 43.5093 27.738 43.0772 26.9688 42.308C26.1997 41.5389 25.7676 40.4957 25.7676 39.4079V36.1954C25.7676 35.9511 25.8646 35.7169 26.0373 35.5441C26.21 35.3714 26.4443 35.2744 26.6885 35.2744Z" fill="white" stroke="#272833" stroke-miterlimit="10"/>
<path d="M32.7487 9.83008H26.9982C21.5335 9.83008 17.1035 14.2601 17.1035 19.7248V27.4028C17.1035 32.8675 21.5335 37.2975 26.9982 37.2975H32.7487C38.2134 37.2975 42.6434 32.8675 42.6434 27.4028V19.7248C42.6434 14.2601 38.2134 9.83008 32.7487 9.83008Z" fill="white" stroke="#272833" stroke-linejoin="round"/>
<path d="M42.6554 21.5028V13.4499C42.6638 11.6319 42.2864 9.83275 41.548 8.17139C40.8096 6.51002 39.7271 5.02424 38.372 3.81222C37.2564 4.93305 35.929 5.82089 34.4672 6.42409C33.0054 7.02729 31.4382 7.33383 29.8568 7.32586C28.2754 7.31789 26.7114 6.99556 25.2557 6.37765C23.8 5.75974 22.4817 4.85859 21.3775 3.72656C20.0409 4.9499 18.9751 6.43933 18.2485 8.09913C17.5219 9.75893 17.1505 11.5524 17.1583 13.3643V21.4171" fill="white"/>
<path d="M42.6554 21.5028V13.4499C42.6638 11.6319 42.2864 9.83275 41.548 8.17139C40.8096 6.51002 39.7271 5.02424 38.372 3.81222C37.2564 4.93305 35.929 5.82089 34.4672 6.42409C33.0054 7.02729 31.4382 7.33383 29.8568 7.32586C28.2754 7.31789 26.7114 6.99556 25.2557 6.37765C23.8 5.75974 22.4817 4.85859 21.3775 3.72656C20.0409 4.9499 18.9751 6.43933 18.2485 8.09913C17.5219 9.75893 17.1505 11.5524 17.1583 13.3643V21.4171" stroke="#272833" stroke-linejoin="round"/>
<path d="M21.3555 3.76938C23.6498 1.68689 26.6418 0.540553 29.7403 0.556811C32.9074 0.569832 35.9582 1.75201 38.3071 3.87647" fill="white"/>
<path d="M21.3555 3.76938C23.6498 1.68689 26.6418 0.540553 29.7403 0.556811V0.556811C32.9074 0.569832 35.9582 1.75201 38.3071 3.87647" stroke="#272833" stroke-linejoin="round"/>
<path d="M17.0938 21.7813C18.8075 20.0127 19.7674 17.6476 19.7709 15.1848C19.7709 15.0992 19.7709 15.0135 19.7709 14.9278C21.1227 13.504 21.9983 11.695 22.2765 9.75148C22.5547 7.80794 22.2217 5.82599 21.3236 4.08008C19.9876 5.30384 18.9221 6.79334 18.1955 8.45304C17.469 10.1127 17.0973 11.906 17.1045 13.7178L17.0938 21.7813Z" fill="white" stroke="#272833" stroke-linejoin="round"/>
<path d="M42.6122 21.7813C40.8985 20.0127 39.9386 17.6476 39.9351 15.1848C39.9351 15.0992 39.9351 15.0135 39.9351 14.9278C38.5833 13.504 37.7077 11.695 37.4295 9.75148C37.1513 7.80794 37.4843 5.82599 38.3824 4.08008C39.7184 5.30384 40.7839 6.79334 41.5104 8.45304C42.237 10.1127 42.6087 11.906 42.6015 13.7178L42.6122 21.7813Z" fill="white" stroke="#272833" stroke-linejoin="round"/>
<path d="M23.8613 21.3096C24.5474 21.3096 25.1035 20.7534 25.1035 20.0674C25.1035 19.3813 24.5474 18.8252 23.8613 18.8252C23.1753 18.8252 22.6191 19.3813 22.6191 20.0674C22.6191 20.7534 23.1753 21.3096 23.8613 21.3096Z" fill="#272833"/>
<path d="M35.8867 21.3096C36.5728 21.3096 37.1289 20.7534 37.1289 20.0674C37.1289 19.3813 36.5728 18.8252 35.8867 18.8252C35.2007 18.8252 34.6445 19.3813 34.6445 20.0674C34.6445 20.7534 35.2007 21.3096 35.8867 21.3096Z" fill="#272833"/>
<path d="M26.8066 28.2275C27.01 28.8823 27.4174 29.4548 27.9695 29.8613C28.5215 30.2679 29.1891 30.4872 29.8746 30.4872C30.5602 30.4872 31.2278 30.2679 31.7798 29.8613C32.3318 29.4548 32.7393 28.8823 32.9427 28.2275" stroke="#272833" stroke-miterlimit="10" stroke-linecap="round"/>
<path d="M16.8253 26.6108H13.9661C13.2813 26.5666 12.6417 26.2538 12.1864 25.7404C11.7312 25.227 11.4971 24.5545 11.5353 23.8694V23.8694C11.4972 23.1853 11.7316 22.5141 12.1871 22.0023C12.6426 21.4906 13.2823 21.1801 13.9661 21.1387H16.579" stroke="#272833" stroke-miterlimit="10"/>
<path d="M42.7402 26.6108H45.5887C46.2735 26.5666 46.9131 26.2538 47.3684 25.7404C47.8236 25.227 48.0577 24.5545 48.0195 23.8694V23.8694C48.0576 23.1853 47.8232 22.5141 47.3677 22.0023C46.9122 21.4906 46.2726 21.1801 45.5887 21.1387H42.9758" stroke="#272833" stroke-miterlimit="10"/>
<path d="M19.1928 59.3793C19.9136 57.1045 21.3401 55.1184 23.2655 53.7087C25.1909 52.2991 27.5151 51.5392 29.9014 51.5392C32.2876 51.5392 34.6119 52.2991 36.5373 53.7087C38.4627 55.1184 39.8891 57.1045 40.6099 59.3793H45.4181C44.6559 55.827 42.6987 52.6434 39.873 50.3596C37.0472 48.0759 33.5239 46.8301 29.8907 46.8301C26.2575 46.8301 22.7341 48.0759 19.9084 50.3596C17.0827 52.6434 15.1255 55.827 14.3633 59.3793H19.1928Z" fill="#FFE000" stroke="#272833" stroke-linecap="round" stroke-linejoin="round"/>
<path d="M16.6231 51.999L19.811 48.8111C20.1022 48.5199 20.4971 48.3563 20.9089 48.3563C21.3207 48.3563 21.7157 48.5199 22.0069 48.8111L23.8166 50.6209C24.4753 51.2796 24.8454 52.173 24.8454 53.1045C24.8454 54.0361 24.4753 54.9294 23.8166 55.5882L23.3926 56.0122C22.7339 56.6709 21.8405 57.041 20.9089 57.041C19.9774 57.041 19.084 56.6709 18.4253 56.0122L16.6155 54.2025C16.4707 54.0576 16.356 53.8856 16.2779 53.6962C16.1999 53.5069 16.1601 53.304 16.1608 53.0991C16.1615 52.8943 16.2027 52.6917 16.282 52.5029C16.3614 52.3141 16.4773 52.1428 16.6231 51.999Z" fill="white" stroke="#272833" stroke-linejoin="round"/>
<path d="M36.3926 55.9863L35.9686 55.5623C35.3099 54.9036 34.9398 54.0102 34.9398 53.0786C34.9398 52.1471 35.3099 51.2537 35.9686 50.595L37.7631 48.8004C38.0543 48.5092 38.4493 48.3456 38.8611 48.3456C39.2729 48.3456 39.6679 48.5092 39.9591 48.8004L43.1469 51.9882C43.4381 52.2794 43.6017 52.6744 43.6017 53.0862C43.6017 53.498 43.4381 53.893 43.1469 54.1842L41.3372 55.9939C40.6785 56.6526 39.7851 57.0227 38.8535 57.0227C37.922 57.0227 37.0286 56.6526 36.3699 55.9939L36.3926 55.9863Z" fill="white" stroke="#272833" stroke-linejoin="round"/>
<path d="M29.8691 25.1113C31.2613 25.1113 31.8609 25.9894 33.1995 26.0001C34.0695 25.9732 34.9074 25.6651 35.5875 25.122" stroke="#272833" stroke-miterlimit="10" stroke-linecap="round"/>
<path d="M29.9655 25.1113C28.5841 25.1113 27.9844 25.9894 26.6351 26.0001C25.7687 25.9717 24.9347 25.6636 24.2578 25.122" stroke="#272833" stroke-miterlimit="10" stroke-linecap="round"/>
</g>
<defs>
<clipPath id="clip0_2185_37693">
<rect width="37.5549" height="60" fill="white" transform="translate(11)"/>
</clipPath>
</defs>
</svg>
