<svg id="Calque_1" data-name="Calque 1" xmlns="http://www.w3.org/2000/svg" xmlns:xlink="http://www.w3.org/1999/xlink" viewBox="0 0 938 488"><defs><style>.cls-1{fill:none;}.cls-2{clip-path:url(#clip-path);}.cls-15,.cls-3{fill:#fff;}.cls-3{opacity:0.4;}.cls-21,.cls-3{isolation:isolate;}.cls-4{fill:url(#Dégradé_sans_nom);}.cls-5{fill:url(#Dégradé_sans_nom_2);}.cls-6{fill:url(#Dégradé_sans_nom_3);}.cls-7{fill:url(#Dégradé_sans_nom_4);}.cls-8{fill:#222d6b;}.cls-9{fill:#f9a993;}.cls-10{fill:#ffb89f;}.cls-11{fill:#ef3b3b;}.cls-12{fill:#ff4d4d;}.cls-13{fill:#563e58;}.cls-14{fill:#f4a99d;}.cls-16{fill:#1b4ded;}.cls-17{fill:#6785ff;}.cls-18{fill:#2dc9b2;}.cls-19{fill:#3ce5c8;}.cls-20,.cls-21{opacity:0.5;}.cls-21{fill:#86ead7;}.cls-22{fill:#f9a541;}.cls-23{fill:#f7f3eb;}.cls-24{fill:#f26c94;fill-opacity:0.27;}</style><clipPath id="clip-path"><rect class="cls-1" y="87.5" width="768.1" height="399.61"/></clipPath><linearGradient id="Dégradé_sans_nom" x1="46.24" y1="785.88" x2="-75.6" y2="822.08" gradientTransform="translate(0 -360)" gradientUnits="userSpaceOnUse"><stop offset="0" stop-color="#87f0b2"/><stop offset="1" stop-color="#2dc9b2"/></linearGradient><linearGradient id="Dégradé_sans_nom_2" x1="89.29" y1="812.47" x2="-2.17" y2="791.86" xlink:href="#Dégradé_sans_nom"/><linearGradient id="Dégradé_sans_nom_3" x1="597.96" y1="785.88" x2="719.8" y2="822.08" xlink:href="#Dégradé_sans_nom"/><linearGradient id="Dégradé_sans_nom_4" x1="554.91" y1="812.47" x2="646.4" y2="791.85" xlink:href="#Dégradé_sans_nom"/></defs><g class="cls-2"><path class="cls-3" d="M481.9,414.5C409.1,387.6,412.4,267,263.7,262.3c-141.3-4.5-111.4-64-190.1-103.9-49-24.9-94.5-12.2-118.6-1.7V537.8a15.9,15.9,0,0,0,15.7,15.7H685.1a15.7,15.7,0,0,0,15.6-15.7V411.6C642,396.6,592.8,455.5,481.9,414.5Z"/><path class="cls-4" d="M71.2,509.8S4.8,328.4-69.8,370.5C-136.3,408-33.8,518.2,71.2,509.8Z"/><path class="cls-3" d="M-67.6,388.1l1.8.8,4.8,2.3,3.4,1.7,3.9,2.1,4.4,2.6c1.5,1,3.1,1.9,4.8,3.1l5.1,3.4,5.3,3.8,2.8,2,2.8,2.2,5.7,4.5,5.8,4.8c2,1.7,4,3.3,5.9,5.1l5.8,5.3,2.9,2.7,2.8,2.8c3.8,3.7,7.7,7.4,11.2,11.3S18.8,456,22,459.9l9.5,10.9,8.2,10,3.7,4.5,3.2,4.1,5.2,6.7,4.6,5.8-3.8-6.3L48,488.4,45.1,484l-3.3-4.8-7.7-10.6c-2.8-3.8-5.9-7.5-9.2-11.4l-2.4-3a34.5,34.5,0,0,0-2.6-2.8l-5.2-5.9c-3.6-4-7.4-7.7-11.3-11.6L.6,431.1l-3-2.7-6-5.3c-1.9-1.9-4-3.4-6-5.1l-6-4.7-6-4.4-2.9-2-3-1.9-5.6-3.6-5.4-3a50.8,50.8,0,0,0-5.1-2.7l-4.6-2.2-4.1-1.8-3.6-1.4a38.1,38.1,0,0,0-5.1-1.7Z"/><path class="cls-5" d="M75.8,512.2S97,378.7,33.9,378.2C-22.3,377.7,5.1,480.5,75.8,512.2Z"/><path class="cls-3" d="M29.1,389.7l.9,1.1,2.3,3,1.5,2.2,1.8,2.7c.7,1,1.2,2.1,1.9,3.1l2.1,3.5,2.1,3.9c.6,1.4,1.4,2.8,2,4.3s.8,1.3,1.2,2.2l1,2.3,2.2,4.6,1.9,5,2.1,5.2c.6,1.8,1.2,3.4,1.9,5.2l.9,2.6.8,2.7c1.1,3.6,2.4,7.2,3.3,10.8s2,7.1,2.7,10.5l2.3,10c.6,3.2,1.2,6.2,1.8,8.9s.5,2.8.8,4.1.4,2.4.5,3.6.8,4.2,1,5.9,1,5.1,1,5.1-.1-1.9-.3-5.2c-.1-1.7-.3-3.7-.4-6s-.2-2.4-.3-3.7l-.5-4c-.4-2.9-.8-5.9-1.2-9.2s-1.2-6.6-1.9-10.1c-.1-.8-.4-1.7-.5-2.6s-.5-1.8-.7-2.7-.8-3.6-1.3-5.5c-.9-3.6-2.1-7.2-3.2-10.8l-.8-2.7L57,437l-2-5.4a39.2,39.2,0,0,0-2.2-5.1l-2.1-5-2.4-4.8c-.4-.7-.7-1.5-1.1-2.3l-1.3-2.1c-.8-1.5-1.5-2.9-2.3-4.2l-2.5-3.7a28.8,28.8,0,0,0-2.3-3.4c-.7-1.1-1.5-2.1-2.2-3l-2-2.6-1.8-2-2.7-2.8Z"/><path class="cls-6" d="M573,509.8s66.4-181.4,141-139.3C780.5,408,678,518.2,573,509.8Z"/><path class="cls-3" d="M711.8,388.1l-1.8.8-4.8,2.3-3.4,1.7-3.9,2.1-4.3,2.6c-1.6,1-3.2,1.9-4.9,3.1l-5,3.4-5.4,3.8-2.8,2-2.8,2.2-5.7,4.5-5.8,4.8c-1.9,1.7-4,3.3-5.9,5.1l-5.8,5.3-2.9,2.7-2.8,2.8c-3.8,3.7-7.7,7.4-11.1,11.3s-7.3,7.4-10.5,11.3l-9.5,10.9-8.2,10-3.7,4.5-3.2,4.1-5.2,6.7-4.6,5.8,3.9-6.3c1.2-2.1,2.8-4.4,4.5-7.2l2.9-4.4,3.3-4.8,7.7-10.6c2.9-3.7,6-7.5,9.2-11.4l2.4-3,2.6-2.8,5.2-5.9c3.6-4,7.5-7.7,11.3-11.6l2.8-2.8,3.1-2.7,5.9-5.3c1.9-1.9,4-3.4,6-5.1l6-4.7,6.1-4.4,2.8-2,3-1.9,5.6-3.6,5.4-3a50.8,50.8,0,0,1,5.1-2.7l4.6-2.2,4.2-1.8,3.5-1.4,5.1-1.7Z"/><path class="cls-7" d="M568.4,512.2s-21.2-133.5,41.9-134C666.6,377.7,639.1,480.5,568.4,512.2Z"/><path class="cls-3" d="M615.1,389.7l-.9,1.1-2.3,3-1.5,2.2-1.8,2.7-1.9,3.1c-.7,1.2-1.4,2.3-2,3.5l-2.1,3.9-2.1,4.3a14.5,14.5,0,0,0-1.2,2.2l-1,2.3c-.7,1.4-1.4,3.1-2.2,4.6l-1.9,5c-.7,1.7-1.4,3.4-2,5.2l-2,5.2a13.4,13.4,0,0,1-.9,2.6l-.8,2.7c-1.1,3.6-2.4,7.2-3.2,10.8s-2.1,7.1-2.8,10.5l-2.3,10c-.6,3.2-1.2,6.2-1.8,8.9s-.5,2.8-.8,4.1-.4,2.4-.5,3.6-.8,4.2-1,5.9-1,5.1-1,5.1.1-1.9.3-5.2c.1-1.7.3-3.7.4-6l.3-3.7.5-4c.4-2.9.8-5.9,1.2-9.2s1.2-6.6,2-10.1l.4-2.6c.2-.9.5-1.8.7-2.7s.8-3.6,1.3-5.5c.9-3.6,2.1-7.2,3.2-10.8l.9-2.7q.5-1.5.9-2.7c.7-1.8,1.4-3.6,2-5.4a32.7,32.7,0,0,1,2.2-5.1l2.1-5,2.4-4.8c.4-.7.7-1.5,1.1-2.3l1.3-2.1,2.3-4.2,2.5-3.7c.7-1.3,1.6-2.3,2.3-3.4s1.5-2.1,2.2-3l2-2.6,1.8-2,2.7-2.8Z"/><path class="cls-8" d="M154.8,276.4s-13.1-19.3-43.1-16.7S67.2,282.4,60.4,309s-24.9,63.4-28.8,72.4c0,0,31.9,31.5,80.3,33s62.1-9.9,68.7-19.8c0,0-5.9-14.1-7-29.1S173.5,300,154.8,276.4Z"/><path class="cls-9" d="M127.5,360.1s7,19.5,21.1,28c0,0-33.4,30.8-62.8-.4,0,0,18.4-14.9,19.3-27.6Z"/><path class="cls-10" d="M278.7,395.9c-1.2-1.5-7.4,4.5-8.4,4.1s7.3-12.1,5.8-13.2-8.1,9.4-9.3,9,7.1-13,5.6-13.9-7.3,10.8-9.2,10.3,5.1-11.4,2.1-12.2-8.4,17-10.2,16.7-2.3-9.3-4.1-8.6-.4,9.3-1,12.7a21.7,21.7,0,0,0,.2,7.2h-.1s-39.9,47.2-42,47.6-25.2-43.8-25.2-43.8l-24,12.5s38.5,59.1,49.7,61.2,46.5-69,50.6-71.5h.1a23.8,23.8,0,0,0,7.3-6.1C268.5,405.2,279.8,397.5,278.7,395.9Z"/><path class="cls-11" d="M158.1,385.4s18.9,1.3,26.3,27.8c0,0-25.2,13.4-29.5,12.5C154.9,425.7,154,397,158.1,385.4Z"/><path class="cls-12" d="M67.6,388.5c4.8-1.8,19.9-7.6,27-9.2,0,0,26.8,26.4,43.7-.5,10.3,2.2,16.5,3.9,19.8,6.6-1.6,11.6,2.3,20.9,2.3,27.8,2.6,3.5,7.4,7.2,6.8,16.7-.3,5.1-3.9,12.8-6.9,14.9.8,42.5,4.5,72.9,2.2,80.8-2.7,9.4-39.7,6-63.9,6s-26.5-11.1-26.5-11.1C70.4,437.5,67.6,388.5,67.6,388.5Z"/><path class="cls-11" d="M85.8,381.8S99.3,399,118.3,399s28-18.3,28-18.3c-2.3-.7-5-1.2-8-1.9-16.9,26.8-43.7.5-43.7.5l-8.8,2.5Z"/><path class="cls-10" d="M72.6,325.3c0,4.8,2.8,8.6,6.2,8.6s6.1-3.8,6.1-8.6-2.8-8.7-6.1-8.7S72.6,320.4,72.6,325.3Z"/><path class="cls-10" d="M78.4,320.8c0,28.1,17.6,51,39.3,51s39.2-22.9,39.2-51-17.6-50.9-39.2-50.9S78.4,292.7,78.4,320.8Z"/><path class="cls-8" d="M156.9,325.3s-13-16.1-20.2-30.9c0,0-40.6,24.1-53.6,24.9,0,0-3.8-4.3-7.6-1.3,0,0-2.9-49.8,36.8-54.7C156.8,257.8,167.2,298.6,156.9,325.3Z"/><path class="cls-13" d="M141.8,328.2c-.3,3,.4,5.7,1.7,5.7s2.5-2.2,2.7-5.3-.4-5.6-1.6-5.7S142.2,325.1,141.8,328.2Z"/><path class="cls-13" d="M111.8,324.3c-.4,3.1.4,5.7,1.6,5.8s2.6-2.3,2.8-5.3-.4-5.7-1.6-5.8S112.1,321.2,111.8,324.3Z"/><path class="cls-14" d="M130.2,337.8a14.6,14.6,0,0,0,.5,2,13.6,13.6,0,0,0,.4,1.7c.1.3.1.5.2.9s-.1.5-.1.7,0,.3-.1.3h0c.1-.2,0,0,.1-.1h-.1l-.2.2-.2.5-.2.3-.5.7-.5.6-.9,1.1-.4.4a4.9,4.9,0,0,0,2-.3l.9-.4,1-.8.5-.4.3-.5.2-.3h0v-.2a1.1,1.1,0,0,0,.3-.8,2.2,2.2,0,0,0-.1-1.4,5,5,0,0,0-.4-1.3,17.4,17.4,0,0,0-1.1-1.8A9.1,9.1,0,0,0,130.2,337.8Z"/><path class="cls-15" d="M139.4,353.5l-26.3-3.3s5.3,8.6,13.3,9.5S139.4,353.5,139.4,353.5Z"/><path class="cls-10" d="M59,430.5s5.9,63.5,9.9,67.8,77.4,6.9,77.4,6.9h30.9s-12.2-15.4-28.6-9.9c0,0-51.9-14.5-56.2-17.6S87.8,430,87.8,430Z"/><path class="cls-11" d="M92.4,431s-4-36.8-19.8-42.4-14.7,27.6-16.8,41.5A186.5,186.5,0,0,0,92.4,431Z"/><path class="cls-16" d="M180.6,510.2H335.3l26.4-109.7H206.9Z"/><path class="cls-17" d="M188.2,510.2H342.9l26.4-109.7H214.5Z"/><path class="cls-15" d="M265.6,458.1A13.1,13.1,0,1,0,278.7,445,13.1,13.1,0,0,0,265.6,458.1Z"/><path class="cls-18" d="M407.9,440.3s-44.2-97.6-3.4-150.7c0,0-14,59.7,19.8,150.7Z"/><path class="cls-19" d="M404.5,289.6c-40.8,53.1,3.3,150.7,3.3,150.7h7.4S374.1,355.5,404.5,289.6Z"/><path class="cls-18" d="M451.7,275.9s-59.3,52-40.5,164.4h18.4S411.2,334.8,451.7,275.9Z"/><path class="cls-19" d="M411.2,440.3h9.5c-3.9-27.7-13.1-119.8,31-164.4C451.7,275.9,392.4,327.9,411.2,440.3Z"/><path class="cls-19" d="M417.6,440.3s-5.1-88,64.4-116c0,0-43.5,31.7-42.8,116Z"/><path class="cls-18" d="M417.6,440.3H426c.6-28.5,8-88.6,56-116C412.5,352.3,417.6,440.3,417.6,440.3Z"/><path class="cls-19" d="M400.3,440.3s-13.1-83.8-62.4-79.7c0,0,68.5-36.3,79.7,79.7Z"/><path class="cls-18" d="M337.9,360.6s56.3-19.9,73.3,79.7h6.4C406.4,324.3,337.9,360.6,337.9,360.6Z"/><path class="cls-18" d="M424.3,440.3s4.5-43.1,45.4-50.2S516,419.3,516,419.3s-48-37.7-66.4,21Z"/><path class="cls-19" d="M469.7,390.1c-40.9,7.1-45.4,50.2-45.4,50.2h8.5c2.7-11,9.7-31.5,26.7-39.6,23.6-11.4,44.8,1.3,56.5,18.6C516,419.3,510.6,383,469.7,390.1Z"/><path class="cls-15" d="M447.8,511.6H403.2L394.4,433h62.3Z"/><path class="cls-18" d="M579.3,479H488.9v12.5h90.4Z"/><g class="cls-20"><path class="cls-21" d="M494.8,479h-2.3v12.5h2.3Z"/><path class="cls-21" d="M499.2,479H497v12.5h2.2Z"/><g class="cls-20"><path class="cls-21" d="M571.2,479h-2.3v12.5h2.3Z"/><path class="cls-21" d="M575.7,479h-2.3v12.5h2.3Z"/></g></g><path class="cls-21" d="M546.9,483.2H520.1v4.2h26.8Z"/><path class="cls-17" d="M571.5,469.1H479.2V479h92.3Z"/><path class="cls-16" d="M566.6,471.3H549.9v5.5h16.7Z"/><path class="cls-16" d="M485.3,469.1h-3V479h3Z"/><path class="cls-22" d="M559,469.1H492.8v-2.7H559c4,0,7.2-3,7.2-6.6s-3.2-6.6-7.2-6.6H492.8v-2.7H559c5.4,0,9.9,4.1,9.9,9.3S564.4,469.1,559,469.1Z"/><path class="cls-15" d="M559,466.4c4,0,7.2-3,7.2-6.6s-3.2-6.6-7.2-6.6H496.6s6.1,5.5,0,13.2Z"/><path class="cls-23" d="M566.7,453.8H496.6v1.3h70.1Z"/><path class="cls-23" d="M566.7,457.4H496.6v1.3h70.1Z"/><path class="cls-23" d="M566.7,461H496.6v1.4h70.1Z"/><path class="cls-23" d="M566.7,464.6H496.6V466h70.1Z"/><path class="cls-15" d="M256.9,317.3a1.3,1.3,0,0,0-.6-1.1,1.1,1.1,0,0,0-1.1-.3H206.4a1.1,1.1,0,0,0-1.1.3,1.3,1.3,0,0,0-.6,1.1v33.3a1.5,1.5,0,0,0,.9,1.3,1.7,1.7,0,0,0,1,.1H255a.9.9,0,0,0,.7,0,1,1,0,0,0,.7-.4h.1a1.5,1.5,0,0,0,.4-1ZM254,346.7l-14-17.3,14-9.5Zm-16.5-18.9-.4.2-6.3,4.2h-.2l-2.5-1.8c-2.9-1.8-5.8-3.7-8.6-5.7l-8.7-5.9h40ZM207.6,320l14,9.4-14,17.2ZM224,331l6.1,4.2a1.2,1.2,0,0,0,1.4,0l6.1-4.1,14.8,18.1H209.1Z"/><path class="cls-16" d="M156.4,203.5a5.1,5.1,0,0,1,5.1-5.1h53.4a5.1,5.1,0,0,1,5.1,5.1v37.7a5.1,5.1,0,0,1-5.1,5.1H189.8a10.3,10.3,0,0,0-7.8,4.4l-8.2,12.7c-1.4,2.4-2.7,2.1-2.7-.8V251.5a5.3,5.3,0,0,0-5.1-5.2h-4.5a5.1,5.1,0,0,1-5.1-5.1Z"/><path class="cls-15" d="M205,221.5a3.8,3.8,0,0,0,3.7,3.8,3.8,3.8,0,0,0,0-7.6A3.8,3.8,0,0,0,205,221.5Z"/><path class="cls-15" d="M184.4,221.5a3.9,3.9,0,0,0,3.8,3.8,3.7,3.7,0,0,0,3.7-3.6v-.2a3.7,3.7,0,0,0-3.7-3.8h0A3.9,3.9,0,0,0,184.4,221.5Z"/><path class="cls-15" d="M163.9,221.5a3.8,3.8,0,0,0,7.6,0h0a3.9,3.9,0,0,0-3.8-3.8A3.8,3.8,0,0,0,163.9,221.5Z"/><path class="cls-15" d="M341.5,328.5v-4.4h-3.3a11.1,11.1,0,0,0-1.9-4.5l2.4-2.4-3.2-3.1-2.3,2.3a15.4,15.4,0,0,0-4.6-1.9v-3.2h-4.4v3.2a13.9,13.9,0,0,0-4.5,1.9l-2.4-2.3-3.1,3.1,2.3,2.4a12.7,12.7,0,0,0-1.9,4.5h-3.3v4.4h3.3a12.5,12.5,0,0,0,1.9,4.6l-2.3,2.3,3.1,3.2,2.4-2.4a10.6,10.6,0,0,0,4.5,1.9v3.4h4.4v-3.4a13.2,13.2,0,0,0,4.6-1.9l2.3,2.4,3.2-3.2-2.4-2.3a12.5,12.5,0,0,0,1.9-4.6Zm-15.1,4a6.2,6.2,0,0,1-6.2-6.2,6.2,6.2,0,0,1,12.4,0A6.2,6.2,0,0,1,326.4,332.5Z"/><path class="cls-15" d="M123.1,169.3v-5.4H119a16,16,0,0,0-2.2-5.6l2.8-2.9-3.8-3.8-2.9,2.8a13.3,13.3,0,0,0-5.5-2.2v-4.1h-5.5v4.1a13.3,13.3,0,0,0-5.5,2.2l-2.9-2.8-3.8,3.8,2.8,2.9a16.2,16.2,0,0,0-2.3,5.6h-4v5.4h4a15.7,15.7,0,0,0,2.3,5.5l-2.8,2.9,3.8,3.8,2.9-2.9a12.2,12.2,0,0,0,5.5,2.3V185h5.5v-4.1a12.3,12.3,0,0,0,5.4-2.3l3,2.9,3.8-3.8-2.9-2.9a13.4,13.4,0,0,0,2.3-5.5Zm-18.4,4.9a7.6,7.6,0,0,1-7.7-7.6,7.7,7.7,0,1,1,15.3,0,7.6,7.6,0,0,1-7.6,7.6Z"/><path class="cls-17" d="M299,255.2c-2.6,2.2-2.6,4.3-2.6,8,0,.9-.5,1.8-2.4,1.8s-2.2-.7-2.2-2.6c0-5.8,1.5-8.1,3.1-9.5s6.1-4.4,6.1-9.1-2.5-5.8-6.6-5.8-5.3,3.6-7.5,3.6a2.4,2.4,0,0,1-2.3-2.4c0-2.5,3.7-5.9,9.9-5.9s11.6,4.3,11.6,9.9S300.9,253.2,299,255.2Zm-1.6,17.5a3.4,3.4,0,0,1-3.4,3.4,3.5,3.5,0,0,1-3.5-3.4,3.5,3.5,0,0,1,3.5-3.5h.1a3.5,3.5,0,0,1,3.3,3.5Z"/><path class="cls-17" d="M2.4,215.8a2.9,2.9,0,0,1,2.5-.9A3.4,3.4,0,0,1,7.4,216l3.6,4a3.6,3.6,0,0,1,.9,2.4,3,3,0,0,1-1.2,2.5l-.5.5h-.1l-8.3-9.1.2-.2Zm-17.6-18.5h-.2l8.3,9.2.2-.2.4-.4a3.2,3.2,0,0,0,1.2-2.6,3.6,3.6,0,0,0-.9-2.4l-3.6-3.9a3.6,3.6,0,0,0-5-.3h0ZM8.1,225.8l-6.9-7.6a7.1,7.1,0,0,0-.8,1.5A17.7,17.7,0,0,1-6.4,215a20.9,20.9,0,0,1-4.2-7.4l1.6-.7-6.9-7.6a5.3,5.3,0,0,0-1.1,2.4v.2h0c0,.4-.1.9-.1,1.3,0,3.1.9,9.2,7,15.9,8,8.9,14.9,7.7,15.8,7.6A5.4,5.4,0,0,0,8.1,225.8Z"/><path class="cls-15" d="M67,228.3l-1.3-2.9-1.4,2.9-2.7,1.3,2.7,1.3,1.4,2.9,1.3-2.9,2.7-1.3Z"/><path class="cls-15" d="M226.2,278.4l-3.9-8.1-3.9,8.1-7.5,3.7,7.5,3.7,3.9,8,3.9-8,7.6-3.7Z"/><path class="cls-15" d="M42.2,120.3l-3.9-8.1-3.9,8.1L26.8,124l7.6,3.7,3.9,8,3.9-8,7.6-3.7Z"/><path class="cls-15" d="M367.4,264.2l-1.4-2.8-1.4,2.8-2.7,1.3,2.7,1.4,1.4,2.8,1.4-2.8,2.7-1.4Z"/><path class="cls-15" d="M378.8,474.5l-2.4-5-2.4,5-4.7,2.3,4.7,2.3,2.4,5,2.4-5,4.8-2.3Z"/><path class="cls-15" d="M493.9,431.7l-1.4-2.9-1.4,2.9-2.7,1.3,2.7,1.3,1.4,2.9,1.4-2.9,2.7-1.3Z"/><path class="cls-15" d="M559.8,385.2l-2.5-5-2.4,5-4.7,2.2,4.7,2.3,2.4,5,2.5-5,4.6-2.3Z"/><circle class="cls-24" cx="103.8" cy="338.4" r="4.4"/><circle class="cls-24" cx="144.4" cy="346.1" r="4.4"/></g></svg>