<svg width="60" height="60" viewBox="0 0 60 60" fill="none" xmlns="http://www.w3.org/2000/svg">
<g clip-path="url(#clip0_2185_37715)">
<path d="M22.0717 42.4064H37.1675C38.1676 42.4002 39.159 42.5919 40.0847 42.9703C41.0104 43.3488 41.8521 43.9065 42.5615 44.6115C43.2708 45.3165 43.8337 46.1548 44.2178 47.0781C44.6019 48.0015 44.7997 48.9917 44.7997 49.9917V57.9886C44.7997 58.393 44.639 58.7807 44.3531 59.0666C44.0672 59.3526 43.6794 59.5132 43.2751 59.5132H16.0015C15.5988 59.5107 15.2134 59.349 14.9295 59.0634C14.6457 58.7777 14.4863 58.3913 14.4863 57.9886V49.9917C14.4863 47.98 15.2855 46.0506 16.708 44.6281C18.1306 43.2056 20.0599 42.4064 22.0717 42.4064Z" fill="white" stroke="#272833" stroke-linejoin="round"/>
<path d="M15.5258 31.2764C15.5258 31.2764 15.4229 39.2826 18.472 39.2826H24.8041L20.1275 32.2958L15.5445 31.2764" fill="white"/>
<path d="M15.5258 31.2764C15.5258 31.2764 15.4229 39.2826 18.472 39.2826H24.8041L20.1275 32.2958L15.5445 31.2764" stroke="#272833" stroke-linejoin="round"/>
<path d="M43.715 31.2764C43.715 31.2764 43.8179 39.2826 40.7688 39.2826H34.4648L39.1414 32.2958L43.7337 31.2764" fill="white"/>
<path d="M43.715 31.2764C43.715 31.2764 43.8179 39.2826 40.7688 39.2826H34.4648L39.1414 32.2958L43.7337 31.2764" stroke="#272833" stroke-linejoin="round"/>
<path d="M18.8367 25.6738H13.5054C13.5054 25.6738 12.7011 31.7814 18.8367 32.0246C18.9676 31.8843 18.8367 25.6738 18.8367 25.6738Z" stroke="#272833" stroke-linejoin="round"/>
<path d="M18.8744 28.4893H16.7793" stroke="#272833" stroke-linecap="round" stroke-linejoin="round"/>
<path d="M40.5074 25.6738H45.8293C45.8293 25.6738 46.643 31.7814 40.5074 32.0246C40.3765 31.8843 40.5074 25.6738 40.5074 25.6738Z" stroke="#272833" stroke-linejoin="round"/>
<path d="M40.4609 28.4893H42.556" stroke="#272833" stroke-linecap="round" stroke-linejoin="round"/>
<path d="M25.6072 39.0215H33.3328C33.5461 39.0215 33.7507 39.1062 33.9016 39.2571C34.0524 39.4079 34.1372 39.6125 34.1372 39.8258V44.652C34.1372 45.813 33.676 46.9263 32.8551 47.7472C32.0342 48.5681 30.9208 49.0293 29.7599 49.0293H29.18C28.0191 49.0293 26.9057 48.5681 26.0849 47.7472C25.264 46.9263 24.8028 45.813 24.8028 44.652V39.8352C24.8016 39.7288 24.8214 39.6232 24.8613 39.5245C24.9012 39.4258 24.9602 39.3361 25.035 39.2604C25.1099 39.1847 25.199 39.1246 25.2972 39.0836C25.3954 39.0426 25.5007 39.0215 25.6072 39.0215Z" fill="#FFE000" stroke="#272833" stroke-linecap="round" stroke-linejoin="round"/>
<path d="M40.77 17.7705C40.77 11.608 35.7764 6.6123 29.6164 6.6123C23.4565 6.6123 18.4629 11.608 18.4629 17.7705V29.0036C18.4629 35.1661 23.4565 40.1618 29.6164 40.1618C35.7764 40.1618 40.77 35.1661 40.77 29.0036V17.7705Z" fill="#FFE000" stroke="#272833" stroke-linecap="round" stroke-linejoin="round"/>
<path d="M26.9824 31.9971C27.1624 32.5654 27.5187 33.0616 27.9997 33.4138C28.4806 33.766 29.0613 33.9558 29.6574 33.9558C30.2535 33.9558 30.8342 33.766 31.3151 33.4138C31.7961 33.0616 32.1524 32.5654 32.3324 31.9971" stroke="#272833" stroke-miterlimit="10" stroke-linecap="round"/>
<path d="M40.8259 25.6185H43.5102V16.041C43.2101 12.5666 41.6046 9.33501 39.0169 6.99724C36.4292 4.65946 33.0517 3.38921 29.5648 3.44236C27.7568 3.40516 25.9593 3.72497 24.2751 4.38349C22.5909 5.04202 21.0532 6.02632 19.75 7.28001C18.4468 8.53371 17.4037 10.0322 16.6804 11.6896C15.9572 13.347 15.568 15.1308 15.5352 16.9388V25.6185H18.2195" fill="white"/>
<path d="M40.8259 25.6185H43.5102V16.041C43.2101 12.5666 41.6046 9.33501 39.0169 6.99724C36.4292 4.65946 33.0517 3.38921 29.5648 3.44236C27.7568 3.40516 25.9593 3.72497 24.2751 4.38349C22.5909 5.04202 21.0532 6.02632 19.75 7.28001C18.4468 8.53371 17.4037 10.0322 16.6804 11.6896C15.9572 13.347 15.568 15.1308 15.5352 16.9388V25.6185H18.2195" stroke="#272833" stroke-linejoin="round"/>
<path d="M18.4707 25.9359V20.2586C18.4707 20.2586 21.2018 21.4184 21.2018 18.1542C21.2018 14.8899 27.2626 12.9538 28.7684 17.3217C28.7684 17.3217 29.7037 18.7247 30.5175 17.3217C32.0233 12.9538 38.0841 14.8993 38.0841 18.1542C38.0841 21.409 40.8246 20.2586 40.8246 20.2586V26.2071" fill="#FFE000"/>
<path d="M18.4707 25.9359V20.2586C18.4707 20.2586 21.2018 21.4184 21.2018 18.1542C21.2018 14.8899 27.2626 12.9538 28.7684 17.3217C28.7684 17.3217 29.7037 18.7247 30.5175 17.3217C32.0233 12.9538 38.0841 14.8993 38.0841 18.1542C38.0841 21.409 40.8246 20.2586 40.8246 20.2586V26.2071" stroke="#272833" stroke-linecap="round" stroke-linejoin="round"/>
<path d="M35.1582 29.2569H24.2338C23.5044 29.2579 22.7887 29.0586 22.1647 28.6808C21.5408 28.3029 21.0325 27.7611 20.6954 27.1142C20.3582 26.4674 20.205 25.7404 20.2526 25.0126C20.3002 24.2847 20.5467 23.5838 20.9652 22.9864C21.3837 22.389 21.9582 21.9179 22.626 21.6246C23.2939 21.3312 24.0294 21.2268 24.7525 21.3227C25.4756 21.4186 26.1585 21.7112 26.7267 22.1685C27.295 22.6259 27.7268 23.2304 27.975 23.9163H31.3515C31.6011 23.2339 32.033 22.633 32.6001 22.1789C33.1673 21.7248 33.8481 21.4348 34.5686 21.3404C35.289 21.2461 36.0215 21.351 36.6865 21.6438C37.3515 21.9366 37.9235 22.4061 38.3403 23.0011C38.7572 23.5962 39.003 24.2942 39.051 25.0192C39.099 25.7442 38.9474 26.4685 38.6126 27.1134C38.2779 27.7582 37.7727 28.299 37.1522 28.6769C36.5316 29.0548 35.8193 29.2554 35.0927 29.2569" fill="white"/>
<path d="M35.1582 29.2569H24.2338C23.5044 29.2579 22.7887 29.0586 22.1647 28.6808C21.5408 28.3029 21.0325 27.7611 20.6954 27.1142C20.3582 26.4674 20.205 25.7404 20.2526 25.0126C20.3002 24.2847 20.5467 23.5838 20.9652 22.9864C21.3837 22.389 21.9582 21.9179 22.626 21.6246C23.2939 21.3312 24.0294 21.2268 24.7525 21.3227C25.4756 21.4186 26.1585 21.7112 26.7267 22.1685C27.295 22.6259 27.7268 23.2304 27.975 23.9163H31.3515C31.6011 23.2339 32.033 22.633 32.6001 22.1789C33.1673 21.7248 33.8481 21.4348 34.5686 21.3404C35.289 21.2461 36.0215 21.351 36.6865 21.6438C37.3515 21.9366 37.9235 22.4061 38.3403 23.0011C38.7572 23.5962 39.003 24.2942 39.051 25.0192C39.099 25.7442 38.9474 26.4685 38.6126 27.1134C38.2779 27.7582 37.7727 28.299 37.1522 28.6769C36.5316 29.0548 35.8193 29.2554 35.0927 29.2569" stroke="#272833" stroke-linejoin="round"/>
<path d="M24.3643 26.4687C24.9635 26.4687 25.4492 25.983 25.4492 25.3838C25.4492 24.7846 24.9635 24.2988 24.3643 24.2988C23.765 24.2988 23.2793 24.7846 23.2793 25.3838C23.2793 25.983 23.765 26.4687 24.3643 26.4687Z" fill="#272833"/>
<path d="M34.876 26.4687C35.4752 26.4687 35.9609 25.983 35.9609 25.3838C35.9609 24.7846 35.4752 24.2988 34.876 24.2988C34.2768 24.2988 33.791 24.7846 33.791 25.3838C33.791 25.983 34.2768 26.4687 34.876 26.4687Z" fill="#272833"/>
<path d="M29.414 59.1768L23.3906 51.6943C23.3906 51.6943 22.1934 54.7434 24.1576 57.1004C24.823 57.8171 25.6406 58.3757 26.5502 58.735C27.4598 59.0943 28.4384 59.2453 29.414 59.1768Z" fill="#FFE000" stroke="#272833" stroke-linecap="round" stroke-linejoin="round"/>
<path d="M29.6211 59.1768L35.6351 51.6943C35.6351 51.6943 36.8417 54.7434 34.8682 57.1004C34.2037 57.8159 33.3877 58.3736 32.4798 58.7329C31.5719 59.0922 30.5952 59.2439 29.6211 59.1768Z" fill="#FFE000" stroke="#272833" stroke-linecap="round" stroke-linejoin="round"/>
<path d="M20.248 42.7344L29.4328 53.3688L39.0384 42.9963" fill="#FFE000"/>
<path d="M20.248 42.7344L29.4328 53.3688L39.0384 42.9963" stroke="#272833" stroke-linecap="round" stroke-linejoin="round"/>
<path d="M37.7389 9.60572C35.9832 9.57218 34.3088 8.85979 33.0671 7.61811C31.8254 6.37642 31.113 4.70202 31.0795 2.94633C31.0795 2.94633 31.3695 0.467773 29.5175 0.467773C27.6656 0.467773 27.9462 2.94633 27.9462 2.94633C27.9151 4.70117 27.2047 6.37558 25.9646 7.61751C24.7244 8.85943 23.051 9.57211 21.2962 9.60572H14.5059V12.7577H44.5292V9.60572H37.7389Z" fill="white" stroke="#272833" stroke-linejoin="round"/>
<path d="M26.6465 12.2249C26.6465 11.4633 26.949 10.733 27.4875 10.1945C28.026 9.65603 28.7563 9.35352 29.5179 9.35352C30.2794 9.35352 31.0098 9.65603 31.5483 10.1945C32.0868 10.733 32.3893 11.4633 32.3893 12.2249" fill="#FFE000"/>
<path d="M26.6465 12.2249C26.6465 11.4633 26.949 10.733 27.4875 10.1945C28.026 9.65603 28.7563 9.35352 29.5179 9.35352C30.2794 9.35352 31.0098 9.65603 31.5483 10.1945C32.0868 10.733 32.3893 11.4633 32.3893 12.2249" stroke="#272833" stroke-linecap="round" stroke-linejoin="round"/>
</g>
<defs>
<clipPath id="clip0_2185_37715">
<rect width="33.3344" height="60" fill="white" transform="translate(13)"/>
</clipPath>
</defs>
</svg>
