<svg width="378" height="166" viewBox="0 0 378 166" fill="none" xmlns="http://www.w3.org/2000/svg">
<g clip-path="url(#clip0)">
<rect width="378" height="166" rx="4" fill="#FFE000"/>
<path d="M346 -22H38V184H346V-22Z" fill="#FFE000"/>
<path d="M206.911 117.643H229.161V128.305H251.502V108.925H277.821V137.658H303.303V146.326H313.483V155.6H206.911V117.643Z" fill="#E7CE3B"/>
<path d="M269.341 80.5869H237.494V155.6H269.341V80.5869Z" fill="#E7CE3B"/>
<path d="M243.699 83.8584H240.027V87.2698H243.699V83.8584Z" fill="#FFEF92"/>
<path d="M249.477 83.8584H245.806V87.2698H249.477V83.8584Z" fill="#FFEF92"/>
<path d="M255.251 83.8584H251.58V87.2698H255.251V83.8584Z" fill="#FFEF92"/>
<path d="M261.029 83.8584H257.358V87.2698H261.029V83.8584Z" fill="#FFEF92"/>
<path d="M266.807 83.8584H263.136V87.2698H266.807V83.8584Z" fill="#FFEF92"/>
<path d="M243.699 89.1357H240.027V92.5471H243.699V89.1357Z" fill="#FFEF92"/>
<path d="M249.477 89.1357H245.806V92.5471H249.477V89.1357Z" fill="#FFEF92"/>
<path d="M255.251 89.1357H251.58V92.5471H255.251V89.1357Z" fill="#FFEF92"/>
<path d="M261.029 89.1357H257.358V92.5471H261.029V89.1357Z" fill="#FFEF92"/>
<path d="M266.807 89.1357H263.136V92.5471H266.807V89.1357Z" fill="#FFEF92"/>
<path d="M243.699 94.418H240.027V97.8293H243.699V94.418Z" fill="#FFEF92"/>
<path d="M249.477 94.418H245.806V97.8293H249.477V94.418Z" fill="#FFEF92"/>
<path d="M255.251 94.418H251.58V97.8293H255.251V94.418Z" fill="#FFEF92"/>
<path d="M261.029 94.418H257.358V97.8293H261.029V94.418Z" fill="#FFEF92"/>
<path d="M266.807 94.418H263.136V97.8293H266.807V94.418Z" fill="#FFEF92"/>
<path d="M243.699 99.6953H240.027V103.107H243.699V99.6953Z" fill="#FFEF92"/>
<path d="M249.477 99.6953H245.806V103.107H249.477V99.6953Z" fill="#FFEF92"/>
<path d="M255.251 99.6953H251.58V103.107H255.251V99.6953Z" fill="#FFEF92"/>
<path d="M261.029 99.6953H257.358V103.107H261.029V99.6953Z" fill="#FFEF92"/>
<path d="M266.807 99.6953H263.136V103.107H266.807V99.6953Z" fill="#FFEF92"/>
<path d="M243.699 104.978H240.027V108.389H243.699V104.978Z" fill="#FFEF92"/>
<path d="M249.477 104.978H245.806V108.389H249.477V104.978Z" fill="#FFEF92"/>
<path d="M255.251 104.978H251.58V108.389H255.251V104.978Z" fill="#FFEF92"/>
<path d="M261.029 104.978H257.358V108.389H261.029V104.978Z" fill="#FFEF92"/>
<path d="M266.807 104.978H263.136V108.389H266.807V104.978Z" fill="#FFEF92"/>
<path d="M243.699 110.255H240.027V113.666H243.699V110.255Z" fill="#FFEF92"/>
<path d="M249.477 110.255H245.806V113.666H249.477V110.255Z" fill="#FFEF92"/>
<path d="M255.251 110.255H251.58V113.666H255.251V110.255Z" fill="#FFEF92"/>
<path d="M261.029 110.255H257.358V113.666H261.029V110.255Z" fill="#FFEF92"/>
<path d="M266.807 110.255H263.136V113.666H266.807V110.255Z" fill="#FFEF92"/>
<path d="M243.699 115.537H240.027V118.948H243.699V115.537Z" fill="#FFEF92"/>
<path d="M249.477 115.537H245.806V118.948H249.477V115.537Z" fill="#FFEF92"/>
<path d="M255.251 115.537H251.58V118.948H255.251V115.537Z" fill="#FFEF92"/>
<path d="M261.029 115.537H257.358V118.948H261.029V115.537Z" fill="#FFEF92"/>
<path d="M266.807 115.537H263.136V118.948H266.807V115.537Z" fill="#FFEF92"/>
<path d="M243.699 120.814H240.027V124.226H243.699V120.814Z" fill="#FFEF92"/>
<path d="M249.477 120.814H245.806V124.226H249.477V120.814Z" fill="#FFEF92"/>
<path d="M255.251 120.814H251.58V124.226H255.251V120.814Z" fill="#FFEF92"/>
<path d="M261.029 120.814H257.358V124.226H261.029V120.814Z" fill="#FFEF92"/>
<path d="M266.807 120.814H263.136V124.226H266.807V120.814Z" fill="#FFEF92"/>
<path d="M243.699 126.097H240.027V129.508H243.699V126.097Z" fill="#FFEF92"/>
<path d="M249.477 126.097H245.806V129.508H249.477V126.097Z" fill="#FFEF92"/>
<path d="M255.251 126.097H251.58V129.508H255.251V126.097Z" fill="#FFEF92"/>
<path d="M261.029 126.097H257.358V129.508H261.029V126.097Z" fill="#FFEF92"/>
<path d="M266.807 126.097H263.136V129.508H266.807V126.097Z" fill="#FFEF92"/>
<path d="M243.699 131.374H240.027V134.785H243.699V131.374Z" fill="#FFEF92"/>
<path d="M249.477 131.374H245.806V134.785H249.477V131.374Z" fill="#FFEF92"/>
<path d="M255.251 131.374H251.58V134.785H255.251V131.374Z" fill="#FFEF92"/>
<path d="M261.029 131.374H257.358V134.785H261.029V131.374Z" fill="#FFEF92"/>
<path d="M266.807 131.374H263.136V134.785H266.807V131.374Z" fill="#FFEF92"/>
<path d="M243.699 136.656H240.027V140.068H243.699V136.656Z" fill="#FFEF92"/>
<path d="M249.477 136.656H245.806V140.068H249.477V136.656Z" fill="#FFEF92"/>
<path d="M255.251 136.656H251.58V140.068H255.251V136.656Z" fill="#FFEF92"/>
<path d="M261.029 136.656H257.358V140.068H261.029V136.656Z" fill="#FFEF92"/>
<path d="M266.807 136.656H263.136V140.068H266.807V136.656Z" fill="#FFEF92"/>
<path d="M243.699 141.934H240.027V145.345H243.699V141.934Z" fill="#FFEF92"/>
<path d="M249.477 141.934H245.806V145.345H249.477V141.934Z" fill="#FFEF92"/>
<path d="M255.251 141.934H251.58V145.345H255.251V141.934Z" fill="#FFEF92"/>
<path d="M261.029 141.934H257.358V145.345H261.029V141.934Z" fill="#FFEF92"/>
<path d="M266.807 141.934H263.136V145.345H266.807V141.934Z" fill="#FFEF92"/>
<path d="M243.699 147.216H240.027V150.627H243.699V147.216Z" fill="#FFEF92"/>
<path d="M249.477 147.216H245.806V150.627H249.477V147.216Z" fill="#FFEF92"/>
<path d="M255.251 147.216H251.58V150.627H255.251V147.216Z" fill="#FFEF92"/>
<path d="M261.029 147.216H257.358V150.627H261.029V147.216Z" fill="#FFEF92"/>
<path d="M266.807 147.216H263.136V150.627H266.807V147.216Z" fill="#FFEF92"/>
<path d="M303.496 92.8154H283.369V155.596H303.496V92.8154Z" fill="#E7CE3B"/>
<path d="M288.178 95.5557H285.332V98.4108H288.178V95.5557Z" fill="#FFEF92"/>
<path d="M292.654 95.5557H289.809V98.4108H292.654V95.5557Z" fill="#FFEF92"/>
<path d="M297.131 95.5557H294.285V98.4108H297.131V95.5557Z" fill="#FFEF92"/>
<path d="M301.603 95.5557H298.757V98.4108H301.603V95.5557Z" fill="#FFEF92"/>
<path d="M288.178 99.9766H285.332V102.832H288.178V99.9766Z" fill="#FFEF92"/>
<path d="M292.654 99.9766H289.809V102.832H292.654V99.9766Z" fill="#FFEF92"/>
<path d="M297.131 99.9766H294.285V102.832H297.131V99.9766Z" fill="#FFEF92"/>
<path d="M301.603 99.9766H298.757V102.832H301.603V99.9766Z" fill="#FFEF92"/>
<path d="M288.178 104.394H285.332V107.249H288.178V104.394Z" fill="#FFEF92"/>
<path d="M292.654 104.394H289.809V107.249H292.654V104.394Z" fill="#FFEF92"/>
<path d="M297.131 104.394H294.285V107.249H297.131V104.394Z" fill="#FFEF92"/>
<path d="M301.603 104.394H298.757V107.249H301.603V104.394Z" fill="#FFEF92"/>
<path d="M288.178 108.813H285.332V111.669H288.178V108.813Z" fill="#FFEF92"/>
<path d="M292.654 108.813H289.809V111.669H292.654V108.813Z" fill="#FFEF92"/>
<path d="M297.131 108.813H294.285V111.669H297.131V108.813Z" fill="#FFEF92"/>
<path d="M301.603 108.813H298.757V111.669H301.603V108.813Z" fill="#FFEF92"/>
<path d="M288.178 113.23H285.332V116.086H288.178V113.23Z" fill="#FFEF92"/>
<path d="M292.654 113.23H289.809V116.086H292.654V113.23Z" fill="#FFEF92"/>
<path d="M297.131 113.23H294.285V116.086H297.131V113.23Z" fill="#FFEF92"/>
<path d="M301.603 113.23H298.757V116.086H301.603V113.23Z" fill="#FFEF92"/>
<path d="M288.178 117.651H285.332V120.507H288.178V117.651Z" fill="#FFEF92"/>
<path d="M292.654 117.651H289.809V120.507H292.654V117.651Z" fill="#FFEF92"/>
<path d="M297.131 117.651H294.285V120.507H297.131V117.651Z" fill="#FFEF92"/>
<path d="M301.603 117.651H298.757V120.507H301.603V117.651Z" fill="#FFEF92"/>
<path d="M288.178 122.068H285.332V124.924H288.178V122.068Z" fill="#FFEF92"/>
<path d="M292.654 122.068H289.809V124.924H292.654V122.068Z" fill="#FFEF92"/>
<path d="M297.131 122.068H294.285V124.924H297.131V122.068Z" fill="#FFEF92"/>
<path d="M301.603 122.068H298.757V124.924H301.603V122.068Z" fill="#FFEF92"/>
<path d="M288.178 126.488H285.332V129.343H288.178V126.488Z" fill="#FFEF92"/>
<path d="M292.654 126.488H289.809V129.343H292.654V126.488Z" fill="#FFEF92"/>
<path d="M297.131 126.488H294.285V129.343H297.131V126.488Z" fill="#FFEF92"/>
<path d="M301.603 126.488H298.757V129.343H301.603V126.488Z" fill="#FFEF92"/>
<path d="M288.178 130.905H285.332V133.76H288.178V130.905Z" fill="#FFEF92"/>
<path d="M292.654 130.905H289.809V133.76H292.654V130.905Z" fill="#FFEF92"/>
<path d="M297.131 130.905H294.285V133.76H297.131V130.905Z" fill="#FFEF92"/>
<path d="M301.603 130.905H298.757V133.76H301.603V130.905Z" fill="#FFEF92"/>
<path d="M288.178 135.326H285.332V138.181H288.178V135.326Z" fill="#FFEF92"/>
<path d="M292.654 135.326H289.809V138.181H292.654V135.326Z" fill="#FFEF92"/>
<path d="M297.131 135.326H294.285V138.181H297.131V135.326Z" fill="#FFEF92"/>
<path d="M301.603 135.326H298.757V138.181H301.603V135.326Z" fill="#FFEF92"/>
<path d="M288.178 139.747H285.332V142.602H288.178V139.747Z" fill="#FFEF92"/>
<path d="M292.654 139.747H289.809V142.602H292.654V139.747Z" fill="#FFEF92"/>
<path d="M297.131 139.747H294.285V142.602H297.131V139.747Z" fill="#FFEF92"/>
<path d="M301.603 139.747H298.757V142.602H301.603V139.747Z" fill="#FFEF92"/>
<path d="M288.178 144.163H285.332V147.018H288.178V144.163Z" fill="#FFEF92"/>
<path d="M292.654 144.163H289.809V147.018H292.654V144.163Z" fill="#FFEF92"/>
<path d="M297.131 144.163H294.285V147.018H297.131V144.163Z" fill="#FFEF92"/>
<path d="M301.603 144.163H298.757V147.018H301.603V144.163Z" fill="#FFEF92"/>
<path d="M288.178 148.584H285.332V151.439H288.178V148.584Z" fill="#FFEF92"/>
<path d="M292.654 148.584H289.809V151.439H292.654V148.584Z" fill="#FFEF92"/>
<path d="M297.131 148.584H294.285V151.439H297.131V148.584Z" fill="#FFEF92"/>
<path d="M301.603 148.584H298.757V151.439H301.603V148.584Z" fill="#FFEF92"/>
<path d="M303.496 92.8161V63.9102L297.455 69.9707L297.205 70.1149C291.422 73.4644 287.184 78.9605 285.406 85.4207L283.369 92.8161H303.496Z" fill="#E7CE3B"/>
<path d="M113.764 122.821C108.889 122.195 103.781 123.732 100.052 126.941C96.3229 130.151 94.0314 134.983 93.9082 139.911C88.9309 138.551 83.6168 139.717 79.9825 143.384C76.3439 147.051 74.8655 152.732 76.2495 157.717C83.1651 159.86 91.6248 161.17 98.8649 161.211C106.101 161.257 113.702 158.871 118.343 153.297C120.544 150.652 121.985 147.401 122.601 144.014C124.002 136.269 119.936 127.687 113.764 122.821Z" fill="#9CE7CC"/>
<path d="M61.9501 35.7036C61.9501 33.4747 63.3504 31.5712 65.3175 30.8337C66.3688 27.9786 69.1039 25.9392 72.3153 25.9392C72.3482 25.9392 72.381 25.9433 72.418 25.9433C74.1017 22.4866 77.6375 20.1094 81.7319 20.1094C85.8509 20.1094 89.4073 22.5196 91.0787 26.0133C91.4113 25.968 91.7481 25.9433 92.093 25.9433C96.212 25.9433 99.5507 29.2929 99.5507 33.4252C99.5507 34.2204 99.4275 34.9867 99.1975 35.7077H61.9501V35.7036Z" fill="white"/>
<path d="M290.848 58.311C290.848 56.0821 292.248 54.1786 294.215 53.4412C295.266 50.586 298.001 48.5466 301.213 48.5466C301.246 48.5466 301.278 48.5507 301.315 48.5507C302.999 45.094 306.535 42.7168 310.629 42.7168C314.748 42.7168 318.305 45.127 319.976 48.6208C320.309 48.5754 320.646 48.5507 320.99 48.5507C325.109 48.5507 328.448 51.9003 328.448 56.0326C328.448 56.8278 328.325 57.5941 328.095 58.3151H290.848V58.311Z" fill="white"/>
<path d="M233.547 121.548C238.487 120.159 243.871 119.665 248.688 121.445C253.506 123.225 257.563 127.674 257.74 132.82C261.994 130.464 267.694 129.788 272.105 131.831C276.515 133.875 279.858 138.102 280.831 142.877C282.811 142.049 285.718 143.095 287.509 144.278C289.303 145.46 290.453 147.57 290.478 149.72C293.747 148.015 297.496 147.038 301.168 147.339C304.839 147.64 308.453 149.284 310.818 152.118C313.184 154.949 314.153 158.999 312.982 162.501C290.482 162.435 267.784 161.265 245.284 161.199C240.307 161.182 235.026 161.083 230.833 158.389C224.981 154.623 223.009 146.655 224.307 139.804C225.613 132.952 229.716 127.365 233.547 121.548Z" fill="#7BC1D8"/>
<path d="M121.883 131.3C123.004 127.601 120.959 123.625 118.24 120.881C115.526 118.137 112.125 116.135 109.485 113.312C105.612 109.172 103.682 103.61 100.684 98.7936C97.6863 93.9773 92.7295 89.5442 87.0993 90.1375C89.0212 92.2923 88.2738 95.6295 87.974 98.5052C87.6742 101.381 87.0706 104.347 87.9042 107.116C88.8652 110.321 91.5797 112.674 93.0499 115.677C95.7151 121.116 93.9615 127.77 95.8506 133.525C97.5179 138.605 101.974 142.47 107.013 144.212C112.051 145.959 117.595 145.77 122.79 144.563C124.018 139.301 124.187 136.191 121.883 131.3Z" fill="#76C8B2"/>
<path opacity="0.2" d="M117.287 132.701C113.177 132.203 109.255 129.302 106.524 124.746C106.167 124.148 105.842 123.534 105.53 122.908C105.579 122.846 105.616 122.776 105.637 122.694C106.483 119.357 106.828 115.92 106.659 112.48C106.643 112.138 106.355 111.883 106.015 111.895C105.674 111.912 105.415 112.2 105.431 112.542C105.575 115.447 105.337 118.343 104.729 121.182C103.682 118.743 102.873 116.18 102.089 113.671C101.855 112.925 101.625 112.18 101.386 111.442C101.312 111.211 101.239 110.985 101.161 110.754C101.214 110.676 101.259 110.593 101.276 110.494C101.649 108.142 101.904 105.744 102.031 103.367C102.052 103.025 101.789 102.736 101.448 102.716C101.111 102.704 100.82 102.959 100.799 103.301C100.709 104.994 100.549 106.696 100.331 108.385C99.0086 104.805 97.3044 101.307 94.6391 98.5135C94.4051 98.2663 94.0149 98.258 93.7685 98.4929C93.5221 98.7277 93.5139 99.1191 93.748 99.3663C95.2182 100.907 96.3804 102.687 97.3537 104.59C95.9122 104.117 94.4379 103.729 92.9554 103.445C92.6187 103.383 92.2983 103.602 92.2326 103.935C92.1669 104.269 92.3887 104.595 92.7213 104.661C94.4831 104.998 96.2284 105.48 97.9163 106.09C97.9697 106.111 98.0271 106.115 98.0805 106.119C98.9142 107.981 99.5918 109.918 100.208 111.833C100.446 112.571 100.676 113.313 100.91 114.054C101.14 114.792 101.374 115.533 101.612 116.279C99.5589 115.57 97.522 114.767 95.5467 113.881C95.2346 113.741 94.8732 113.881 94.7336 114.194C94.594 114.507 94.7336 114.87 95.0457 115.01C97.3331 116.036 99.7027 116.959 102.089 117.75C102.093 117.75 102.101 117.75 102.105 117.754C103 120.391 104.031 123.003 105.468 125.405C106.146 126.534 106.893 127.564 107.698 128.491C104.622 128.746 101.444 128.194 98.6555 126.88C98.3475 126.735 97.982 126.867 97.8341 127.176C97.6904 127.485 97.8218 127.852 98.1298 128C100.643 129.183 103.452 129.797 106.24 129.797C107.058 129.797 107.875 129.743 108.68 129.636C108.704 129.632 108.729 129.624 108.75 129.619C111.218 132.054 114.121 133.579 117.131 133.945C117.156 133.95 117.181 133.95 117.205 133.95C117.513 133.95 117.776 133.719 117.817 133.406C117.866 133.051 117.628 132.742 117.287 132.701Z" fill="#76C8B2"/>
<path d="M233.49 124.778C232.656 122.467 233.826 119.88 235.457 118.046C237.091 116.213 239.182 114.833 240.763 112.958C243.083 110.202 244.126 106.613 245.871 103.457C247.617 100.302 250.614 97.3269 254.208 97.5164C253.058 98.946 253.645 101.039 253.929 102.856C254.212 104.673 254.692 106.531 254.257 108.315C253.752 110.379 252.109 111.965 251.272 113.918C249.76 117.457 251.087 121.623 250.076 125.335C249.185 128.61 246.483 131.21 243.346 132.483C240.208 133.756 236.681 133.818 233.346 133.224C232.397 129.924 232.188 127.955 233.49 124.778Z" fill="#76C8B2"/>
<path d="M236.451 125.516C239.042 125.063 241.436 123.093 243.017 120.115C243.222 119.723 243.411 119.324 243.588 118.916C243.555 118.879 243.526 118.833 243.514 118.784C242.869 116.695 242.537 114.524 242.533 112.336C242.533 112.118 242.705 111.945 242.923 111.945C243.14 111.945 243.313 112.118 243.313 112.336C243.317 114.182 243.563 116.015 244.04 117.795C244.623 116.213 245.054 114.561 245.469 112.942C245.592 112.46 245.715 111.982 245.842 111.504C245.884 111.356 245.921 111.207 245.962 111.059C245.925 111.014 245.892 110.96 245.879 110.898C245.567 109.419 245.325 107.907 245.165 106.399C245.14 106.185 245.296 105.991 245.514 105.967C245.727 105.95 245.921 106.099 245.945 106.317C246.06 107.388 246.216 108.463 246.409 109.526C247.132 107.211 248.097 104.937 249.699 103.074C249.838 102.91 250.089 102.893 250.249 103.033C250.413 103.173 250.43 103.425 250.29 103.585C249.407 104.611 248.729 105.781 248.175 107.017C249.074 106.671 249.994 106.375 250.927 106.144C251.136 106.094 251.35 106.222 251.399 106.432C251.452 106.642 251.321 106.857 251.111 106.906C250.007 107.178 248.914 107.541 247.863 107.981C247.83 107.994 247.793 108.002 247.76 108.006C247.292 109.213 246.927 110.466 246.598 111.702C246.471 112.175 246.348 112.653 246.224 113.135C246.101 113.609 245.978 114.091 245.851 114.569C247.132 114.05 248.397 113.477 249.621 112.847C249.814 112.748 250.048 112.826 250.146 113.016C250.245 113.21 250.167 113.444 249.978 113.543C248.561 114.273 247.087 114.932 245.6 115.513C245.596 115.513 245.592 115.513 245.592 115.517C245.111 117.218 244.541 118.908 243.707 120.481C243.313 121.219 242.873 121.899 242.393 122.513C244.352 122.574 246.352 122.117 248.077 121.194C248.265 121.091 248.504 121.165 248.606 121.355C248.709 121.544 248.635 121.783 248.446 121.886C246.89 122.719 245.128 123.201 243.358 123.295C242.841 123.324 242.319 123.316 241.806 123.275C241.789 123.275 241.777 123.271 241.76 123.267C240.274 124.894 238.483 125.957 236.582 126.286C236.566 126.291 236.549 126.291 236.533 126.291C236.34 126.299 236.163 126.163 236.126 125.965C236.097 125.755 236.237 125.553 236.451 125.516Z" fill="white"/>
<path d="M224.324 136.644C224.685 132.791 228.077 129.891 231.629 128.383C235.177 126.875 239.083 126.315 242.59 124.708C247.74 122.347 251.621 117.935 256.216 114.614C260.811 111.293 267.074 109.077 272.059 111.767C269.468 113.032 268.901 116.406 268.088 119.179C267.279 121.956 266.717 124.926 264.902 127.176C262.803 129.776 259.403 130.925 256.906 133.146C252.384 137.167 251.493 143.99 247.576 148.6C244.118 152.666 238.533 154.549 233.21 154.253C227.888 153.952 222.829 151.673 218.48 148.579C219.326 143.232 220.344 140.29 224.324 136.644Z" fill="#9CE7CC"/>
<path d="M228.044 139.685C232.036 140.785 236.763 139.59 241.009 136.413C241.563 135.997 242.097 135.548 242.623 135.091C242.602 135.013 242.594 134.934 242.606 134.852C243.083 131.441 244.064 128.128 245.518 125.009C245.662 124.7 246.023 124.568 246.335 124.713C246.643 124.857 246.775 125.223 246.631 125.532C245.403 128.165 244.524 130.938 244.019 133.793C245.908 131.935 247.625 129.871 249.296 127.844C249.793 127.242 250.29 126.641 250.791 126.047C250.947 125.862 251.103 125.681 251.259 125.495C251.239 125.405 251.226 125.31 251.251 125.211C251.793 122.892 252.462 120.576 253.243 118.327C253.354 118.005 253.707 117.832 254.027 117.943C254.343 118.059 254.52 118.409 254.409 118.73C253.855 120.333 253.358 121.969 252.927 123.613C255.501 120.803 258.401 118.215 261.924 116.637C262.236 116.497 262.598 116.637 262.737 116.95C262.877 117.264 262.737 117.626 262.425 117.766C260.483 118.636 258.733 119.839 257.119 121.231C258.631 121.342 260.142 121.54 261.62 121.841C261.957 121.911 262.171 122.236 262.101 122.57C262.035 122.904 261.707 123.122 261.374 123.052C259.616 122.698 257.818 122.475 256.027 122.401C255.97 122.397 255.916 122.385 255.863 122.364C254.388 123.769 253.029 125.306 251.736 126.843C251.239 127.436 250.742 128.033 250.249 128.631C249.756 129.224 249.259 129.825 248.758 130.423C250.927 130.546 253.115 130.579 255.28 130.509C255.62 130.501 255.904 130.765 255.916 131.107C255.928 131.449 255.662 131.733 255.321 131.745C252.816 131.828 250.274 131.778 247.769 131.605C247.764 131.605 247.76 131.601 247.752 131.601C245.929 133.702 243.99 135.725 241.752 137.402C240.701 138.189 239.617 138.857 238.52 139.413C241.268 140.818 244.422 141.514 247.498 141.357C247.838 141.341 248.126 141.605 248.142 141.942C248.159 142.284 247.896 142.573 247.559 142.589C244.787 142.729 241.953 142.231 239.375 141.168C238.619 140.859 237.884 140.496 237.177 140.093C237.157 140.08 237.136 140.064 237.12 140.051C233.917 141.366 230.652 141.675 227.728 140.871C227.703 140.863 227.679 140.855 227.658 140.846C227.375 140.731 227.215 140.414 227.297 140.113C227.379 139.788 227.716 139.594 228.044 139.685Z" fill="white"/>
<path d="M239.999 70.8193H104.171V155.597H239.999V70.8193Z" fill="#A0ABE9"/>
<path d="M151.911 85.3916H117.538V155.596H151.911V85.3916Z" fill="#6776B7"/>
<path d="M235.346 85.3916H158.715V138.218H235.346V85.3916Z" fill="#EEEEFF"/>
<path d="M198.87 128.046H169.541V130.073H198.87V128.046Z" fill="#ABA6E6"/>
<path d="M185.212 138.221V129.644H183.192V138.221H185.212Z" fill="#ABA6E6"/>
<path d="M237.223 128.046H207.893V130.073H237.223V128.046Z" fill="#ABA6E6"/>
<path d="M223.57 138.221V129.644H221.549V138.221H223.57Z" fill="#ABA6E6"/>
<path opacity="0.2" d="M104.171 77.8398C105.07 81.828 108.622 84.8109 112.869 84.8109C117.801 84.8109 121.797 80.8021 121.797 75.854C121.797 80.8021 125.792 84.8109 130.724 84.8109C135.657 84.8109 139.652 80.8021 139.652 75.854C139.652 80.8021 143.648 84.8109 148.58 84.8109C153.512 84.8109 157.508 80.8021 157.508 75.854C157.508 80.8021 161.504 84.8109 166.436 84.8109C171.368 84.8109 175.364 80.8021 175.364 75.854C175.364 80.8021 179.36 84.8109 184.292 84.8109C189.224 84.8109 193.22 80.8021 193.22 75.854C193.22 80.8021 197.215 84.8109 202.148 84.8109C207.08 84.8109 211.075 80.8021 211.075 75.854C211.075 80.8021 215.071 84.8109 220.003 84.8109C224.935 84.8109 228.931 80.8021 228.931 75.854C228.931 80.8021 232.927 84.8109 237.859 84.8109C238.602 84.8109 239.317 84.712 240.007 84.539V70.8193H104.171V77.8398Z" fill="black"/>
<path d="M100.669 63.1228H82.8168L108.024 37.9043H120.836L100.669 63.1228Z" fill="#FF4D4D"/>
<path d="M118.524 63.1228H100.668L120.836 37.9043H133.648L118.524 63.1228Z" fill="#E598FC"/>
<path d="M136.379 63.1228H118.524L133.648 37.9043H146.461L136.379 63.1228Z" fill="#FF4D4D"/>
<path d="M154.231 63.1228H136.379L146.461 37.9043H159.274L154.231 63.1228Z" fill="#E598FC"/>
<path d="M172.087 63.1228H154.231L159.274 37.9043H172.087V63.1228Z" fill="#FF4D4D"/>
<path d="M189.943 63.1228H172.087V37.9043H184.9L189.943 63.1228Z" fill="#E598FC"/>
<path d="M207.794 63.1228H189.943L184.9 37.9043H197.712L207.794 63.1228Z" fill="#FF4D4D"/>
<path d="M225.65 63.1228H207.794L197.712 37.9043H210.525L225.65 63.1228Z" fill="#E598FC"/>
<path d="M243.506 63.1228H225.65L210.525 37.9043H223.338L243.506 63.1228Z" fill="#FF4D4D"/>
<path d="M261.358 63.1228H243.506L223.338 37.9043H236.151L261.358 63.1228Z" fill="#E598FC"/>
<path d="M100.668 63.123H82.812V72.323C82.812 77.2711 86.8077 81.2799 91.7398 81.2799C96.6719 81.2799 100.668 77.2711 100.668 72.323V63.123V63.123Z" fill="#DA5E95"/>
<path d="M118.524 63.123H100.668V72.323C100.668 77.2711 104.664 81.2799 109.596 81.2799C114.528 81.2799 118.524 77.2711 118.524 72.323V63.123Z" fill="#FFCFEA"/>
<path d="M136.379 63.123H118.524V72.323C118.524 77.2711 122.519 81.2799 127.451 81.2799C132.384 81.2799 136.379 77.2711 136.379 72.323V63.123V63.123Z" fill="#DA5E95"/>
<path d="M154.231 63.123H136.375V72.323C136.375 77.2711 140.371 81.2799 145.303 81.2799C150.235 81.2799 154.231 77.2711 154.231 72.323V63.123Z" fill="#FFCFEA"/>
<path d="M172.087 63.123H154.231V72.323C154.231 77.2711 158.227 81.2799 163.159 81.2799C168.091 81.2799 172.087 77.2711 172.087 72.323V63.123Z" fill="#DA5E95"/>
<path d="M189.943 63.123H172.087V72.323C172.087 77.2711 176.083 81.2799 181.015 81.2799C185.947 81.2799 189.943 77.2711 189.943 72.323V63.123Z" fill="#FFCFEA"/>
<path d="M207.794 63.123H189.938V72.323C189.938 77.2711 193.934 81.2799 198.866 81.2799C203.798 81.2799 207.794 77.2711 207.794 72.323V63.123Z" fill="#DA5E95"/>
<path d="M225.65 63.123H207.794V72.323C207.794 77.2711 211.79 81.2799 216.722 81.2799C221.654 81.2799 225.65 77.2711 225.65 72.323V63.123Z" fill="#FFCFEA"/>
<path d="M243.506 63.123H225.65V72.323C225.65 77.2711 229.646 81.2799 234.578 81.2799C239.51 81.2799 243.506 77.2711 243.506 72.323V63.123Z" fill="#DA5E95"/>
<path d="M261.358 63.123H243.502V72.323C243.502 77.2711 247.498 81.2799 252.43 81.2799C257.362 81.2799 261.358 77.2711 261.358 72.323V63.123Z" fill="#FFCFEA"/>
<path d="M100.668 63.123H82.812V72.323C82.812 77.2711 86.8077 81.2799 91.7398 81.2799C96.6719 81.2799 100.668 77.2711 100.668 72.323V63.123V63.123Z" fill="#BA3535"/>
<path d="M118.524 63.123H100.668V72.323C100.668 77.2711 104.664 81.2799 109.596 81.2799C114.528 81.2799 118.524 77.2711 118.524 72.323V63.123Z" fill="#CD8CE5"/>
<path d="M136.379 63.123H118.524V72.323C118.524 77.2711 122.519 81.2799 127.451 81.2799C132.384 81.2799 136.379 77.2711 136.379 72.323V63.123V63.123Z" fill="#BA3535"/>
<path d="M154.231 63.123H136.375V72.323C136.375 77.2711 140.371 81.2799 145.303 81.2799C150.235 81.2799 154.231 77.2711 154.231 72.323V63.123Z" fill="#CD8CE5"/>
<path d="M172.087 63.123H154.231V72.323C154.231 77.2711 158.227 81.2799 163.159 81.2799C168.091 81.2799 172.087 77.2711 172.087 72.323V63.123Z" fill="#BA3535"/>
<path d="M189.943 63.123H172.087V72.323C172.087 77.2711 176.083 81.2799 181.015 81.2799C185.947 81.2799 189.943 77.2711 189.943 72.323V63.123Z" fill="#CD8CE5"/>
<path d="M207.794 63.123H189.938V72.323C189.938 77.2711 193.934 81.2799 198.866 81.2799C203.798 81.2799 207.794 77.2711 207.794 72.323V63.123Z" fill="#BA3535"/>
<path d="M225.65 63.123H207.794V72.323C207.794 77.2711 211.79 81.2799 216.722 81.2799C221.654 81.2799 225.65 77.2711 225.65 72.323V63.123Z" fill="#CD8CE5"/>
<path d="M243.506 63.123H225.65V72.323C225.65 77.2711 229.646 81.2799 234.578 81.2799C239.51 81.2799 243.506 77.2711 243.506 72.323V63.123Z" fill="#BA3535"/>
<path d="M261.358 63.123H243.502V72.323C243.502 77.2711 247.498 81.2799 252.43 81.2799C257.362 81.2799 261.358 77.2711 261.358 72.323V63.123Z" fill="#CD8CE5"/>
<path d="M147.816 89.7256H120.836V130.365H147.816V89.7256Z" fill="#EEEEFF"/>
<path opacity="0.2" d="M132.889 132.825H120.836V153.137H132.889V132.825Z" fill="#46497A"/>
<path opacity="0.2" d="M147.816 132.825H135.763V153.137H147.816V132.825Z" fill="#46497A"/>
<path d="M151.911 120.493C151.911 121.981 150.707 123.188 149.225 123.188C147.742 123.188 146.539 121.981 146.539 120.493C146.539 119.006 147.742 117.799 149.225 117.799C150.707 117.799 151.911 119.006 151.911 120.493Z" fill="#FFB60F"/>
<g opacity="0.5">
<path opacity="0.5" d="M181.754 138.218L234.41 85.3916H212.78L160.124 138.218H181.754Z" fill="white"/>
<path opacity="0.5" d="M235.346 101.546V90.6943L187.971 138.219H198.788L235.346 101.546Z" fill="white"/>
</g>
<path d="M147.816 101.537L120.836 128.606V130.365H126.885L147.816 109.365V101.537Z" fill="white"/>
<path d="M120.836 124.107L147.816 97.0386V89.7256H139.5L120.836 108.451V124.107Z" fill="white"/>
<path d="M187.602 104.026H181.015V100.722C181.015 98.897 182.489 97.418 184.308 97.418C186.127 97.418 187.602 98.897 187.602 100.722V104.026V104.026Z" fill="#ABA6E6"/>
<path d="M184.579 85.3916H184.033V97.8628H184.579V85.3916Z" fill="#ABA6E6"/>
<path d="M204.977 104.026H198.39V100.722C198.39 98.897 199.864 97.418 201.684 97.418C203.503 97.418 204.977 98.897 204.977 100.722V104.026V104.026Z" fill="#ABA6E6"/>
<path d="M201.959 85.3916H201.412V97.8628H201.959V85.3916Z" fill="#ABA6E6"/>
<path d="M222.356 104.026H215.769V100.722C215.769 98.897 217.244 97.418 219.063 97.418C220.882 97.418 222.356 98.897 222.356 100.722V104.026V104.026Z" fill="#ABA6E6"/>
<path d="M219.338 85.3916H218.792V97.8628H219.338V85.3916Z" fill="#ABA6E6"/>
<path d="M201.412 113.885L191.175 103.614L201.412 93.3428L211.65 103.614L201.412 113.885ZM192.423 103.61L201.412 112.628L210.402 103.61L201.412 94.5911L192.423 103.61Z" fill="#46497A"/>
<path d="M212.628 120.732H190.197C188.513 120.732 187.15 119.364 187.15 117.675V106.061C187.15 104.372 188.513 103.004 190.197 103.004H212.628C214.312 103.004 215.675 104.372 215.675 106.061V117.675C215.675 119.364 214.312 120.732 212.628 120.732Z" fill="#FF4D4D"/>
<path d="M212.628 120.061H190.197C188.887 120.061 187.819 118.99 187.819 117.676V106.061C187.819 104.747 188.887 103.676 190.197 103.676H212.628C213.938 103.676 215.006 104.747 215.006 106.061V117.676C215.006 118.994 213.942 120.061 212.628 120.061ZM190.197 103.985C189.056 103.985 188.127 104.916 188.127 106.061V117.676C188.127 118.821 189.056 119.752 190.197 119.752H212.628C213.769 119.752 214.698 118.821 214.698 117.676V106.061C214.698 104.916 213.769 103.985 212.628 103.985H190.197Z" fill="white" stroke="white" stroke-width="0.75" stroke-miterlimit="10"/>
<path d="M193.731 114.805C195.299 114.805 196.454 113.727 196.454 112.257C196.454 110.787 195.299 109.709 193.731 109.709C192.163 109.709 191.008 110.787 191.008 112.257C191.008 113.727 192.163 114.805 193.731 114.805ZM193.731 113.657C192.989 113.657 192.408 113.104 192.408 112.257C192.408 111.41 192.989 110.857 193.731 110.857C194.473 110.857 195.054 111.41 195.054 112.257C195.054 113.104 194.473 113.657 193.731 113.657ZM199.42 109.807H197.18V114.707H198.566V113.426H199.42C200.757 113.426 201.597 112.733 201.597 111.62C201.597 110.5 200.757 109.807 199.42 109.807ZM199.336 112.334H198.566V110.899H199.336C199.91 110.899 200.197 111.165 200.197 111.62C200.197 112.068 199.91 112.334 199.336 112.334ZM203.645 113.636V112.74H205.822V111.704H203.645V110.878H206.116V109.807H202.273V114.707H206.207V113.636H203.645ZM210.28 109.807V112.418L208.117 109.807H206.976V114.707H208.334V112.096L210.497 114.707H211.638V109.807H210.28Z" fill="white"/>
<path d="M297.684 27.8525C297.684 24.7295 295.721 22.0639 292.97 21.0298C291.5 17.0292 287.664 14.1741 283.163 14.1741C283.114 14.1741 283.069 14.1782 283.02 14.1782C280.658 9.3372 275.701 6 269.969 6C264.195 6 259.209 9.3784 256.868 14.273C256.404 14.2112 255.928 14.1741 255.447 14.1741C249.678 14.1741 245 18.8668 245 24.6554C245 25.7719 245.177 26.8431 245.497 27.8525H297.684Z" fill="white"/>
<path d="M355.463 166H22.5367C18.9272 166 16 163.761 16 161C16 158.239 18.9272 156 22.5367 156H355.463C359.073 156 362 158.239 362 161C362 163.761 359.073 166 355.463 166Z" fill="#A3C1C8"/>
<path d="M67.6254 130.394H38.4311L46.0654 86.9688H75.2556L67.6254 130.394Z" fill="#46497A"/>
<path opacity="0.2" d="M48.2912 89.6836L41.6138 127.682H65.3955L72.0729 89.6836H48.2912Z" fill="#46497A"/>
<path d="M38.1436 155.6H34L38.4311 130.394H42.5706L38.1436 155.6Z" fill="#46497A"/>
<path d="M63.1943 155.6H59.0548L63.4818 130.394H67.6254L63.1943 155.6Z" fill="#46497A"/>
<path opacity="0.4" d="M46.0654 86.9688L38.4311 130.394L34 155.6H38.1436L42.5706 130.394H63.4818L59.0548 155.6H63.1943L67.6254 130.394L75.2556 86.9688H46.0654Z" fill="black"/>
<path d="M53.6915 130.394H82.8817L75.2515 86.9688H46.0572L53.6915 130.394Z" fill="#4C60A4"/>
<path opacity="0.2" d="M73.0216 89.6836L79.7031 127.682H55.9173L49.2399 89.6836H73.0216Z" fill="#46497A"/>
<path d="M83.1733 155.6H87.3128L82.8817 130.394H78.7422L83.1733 155.6Z" fill="#4C60A4"/>
<path d="M58.1185 155.6H62.2621L57.831 130.394H53.6915L58.1185 155.6Z" fill="#4C60A4"/>
<g opacity="0.3">
<path opacity="0.3" d="M74.3069 117.436H57.4121C56.8372 117.436 56.291 116.971 56.1924 116.394C56.0898 115.817 56.4758 115.352 57.0466 115.352H73.9414C74.5164 115.352 75.0625 115.817 75.1611 116.394C75.2638 116.971 74.8818 117.436 74.3069 117.436Z" fill="white"/>
<path opacity="0.3" d="M75.0256 121.511H58.1308C57.5558 121.511 57.0096 121.046 56.9111 120.469C56.8084 119.892 57.1944 119.427 57.7653 119.427H74.6601C75.235 119.427 75.7812 119.892 75.8798 120.469C75.9783 121.046 75.5964 121.511 75.0256 121.511Z" fill="white"/>
<path opacity="0.3" d="M75.7402 125.586H58.8453C58.2704 125.586 57.7242 125.12 57.6256 124.543C57.523 123.967 57.909 123.501 58.4798 123.501H75.3747C75.9496 123.501 76.4958 123.967 76.5943 124.543C76.697 125.12 76.3151 125.586 75.7402 125.586Z" fill="white"/>
</g>
<path d="M336.414 145.346C338.328 146.426 340.188 147.604 341.983 148.877C342.566 147.95 343.112 146.772 343.465 145.738C341.814 144.609 340.02 143.377 338.369 142.248C337.437 143.134 336.685 144.09 336.414 145.346Z" fill="#FFB60F"/>
<path d="M342.566 145.173C342.644 145.713 342.496 146.277 342.159 146.705C341.827 147.134 341.313 147.418 340.771 147.472C340.463 147.95 340.66 148.522 340.726 149.087C340.87 150.409 340.615 151.773 339.995 152.951C339.995 153.129 340.311 153.26 340.484 153.265C340.66 153.265 340.82 153.174 340.968 153.079C342.582 152.041 343.658 150.199 343.765 148.275C344.627 147.958 345.284 147.109 345.198 146.19C344.455 145.626 343.506 145.198 342.566 145.173Z" fill="#262E36"/>
<path d="M326.882 121.874C325.72 127.391 324.907 130.296 324.459 134.873C324.234 137.164 325.178 139.43 326.997 140.831C330.648 143.64 334.603 145.948 338.812 147.929C340.471 146.454 342.044 145 343.157 143.076C340.221 140.373 337.227 137.436 334.291 134.733C335.244 129.019 335.359 126.406 334.96 120.626C334.931 120.614 334.94 120.618 334.915 120.605C332.644 122.402 329.609 121.446 326.882 121.874Z" fill="#3D417D"/>
<path d="M326.882 121.874C325.72 127.391 324.907 130.296 324.459 134.873C324.234 137.164 325.178 139.43 326.997 140.831C330.648 143.64 334.603 145.948 338.812 147.929C340.471 146.454 342.044 145 343.157 143.076C340.221 140.373 337.227 137.436 334.291 134.733C335.244 129.019 335.359 126.406 334.96 120.626C334.931 120.614 334.94 120.618 334.915 120.605C332.644 122.402 329.609 121.446 326.882 121.874Z" fill="#2C49C4"/>
<path opacity="0.2" d="M327.716 163.622C340.814 163.622 351.432 162.678 351.432 161.513C351.432 160.348 340.814 159.403 327.716 159.403C314.618 159.403 304 160.348 304 161.513C304 162.678 314.618 163.622 327.716 163.622Z" fill="black"/>
<path d="M326.562 98.8803C326.003 98.8638 325.49 98.3159 325.396 97.7638C325.071 97.9203 324.661 97.8709 324.385 97.6443C324.11 97.4177 324.024 96.9439 324.11 96.5937C323.872 96.5813 323.65 96.4248 323.56 96.2023C323.47 95.9798 323.503 95.6049 323.667 95.4319C323.08 95.403 322.537 94.9993 322.299 94.4637C322.061 93.9239 322.114 93.273 322.402 92.7621C322.689 92.2471 323.199 91.8722 323.761 91.7033C324.307 91.5385 324.784 91.4355 325.293 91.6909C325.429 91.3489 325.806 91.1759 326.09 91.4107C326.422 90.9328 327.309 90.8504 327.724 91.2624C327.81 91.0276 328.057 90.8834 328.307 90.8504C328.554 90.8175 328.804 90.8751 329.047 90.9369C329.576 91.0646 330.114 91.1965 330.587 91.4684C331.059 91.7445 331.461 92.1853 331.556 92.725C332.205 92.7538 332.944 93.5284 332.833 94.167C333.194 94.7603 333.161 95.7779 332.644 96.2394C333.087 96.9851 332.923 97.9986 332.192 98.4683C332.081 99.0121 331.81 99.5642 331.342 99.8609C330.874 100.158 330.283 100.252 329.741 100.116C329.211 99.9845 328.858 99.4283 328.455 99.0575C327.979 98.6207 327.121 98.5713 326.562 98.8803Z" fill="#E598FC"/>
<path d="M327.17 103.623C325.909 106.734 325.19 110.062 325.055 113.42C322.624 115.188 319.963 116.506 317.174 117.623C316.825 118.307 317.055 119.402 317.716 119.79C321.055 119.225 324.525 118.488 327.646 117.169C329.564 113.667 331.079 109.601 331.367 105.613C331.424 104.801 331.437 103.932 331.014 103.236C330.562 102.494 329.626 102.082 328.776 102.255C327.925 102.424 327.498 102.815 327.17 103.623Z" fill="#B08B4E"/>
<path d="M324.562 109.469C326.685 110.277 329.055 110.429 331.264 109.898C331.917 108.32 331.913 106.461 331.72 104.764C331.638 104.043 331.47 103.31 331.084 102.696C330.697 102.082 330.061 101.592 329.338 101.526C328.677 101.464 328.02 101.761 327.519 102.197C327.018 102.634 326.648 103.203 326.307 103.775C325.186 105.642 324.685 107.294 324.562 109.469Z" fill="white"/>
<path d="M317.581 117.635C317.4 117.577 317.219 117.515 317.043 117.458C316.854 117.396 316.653 117.33 316.456 117.371C316.258 117.412 316.078 117.598 316.119 117.796C315.4 118.117 314.723 118.311 313.942 118.438C313.881 118.628 314.061 118.871 314.238 118.962C314.345 119.019 314.468 119.036 314.583 119.069C314.431 119.135 314.263 119.233 314.111 119.299C314.69 119.926 315.454 120.445 316.308 120.486C317.162 120.523 318.041 120.119 318.492 119.394C318.308 118.76 318.004 118.129 317.581 117.635Z" fill="#B08B4E"/>
<path d="M327.81 150.879C327.86 153.083 327.798 155.287 327.622 157.483C328.714 157.516 329.999 157.384 331.071 157.162C331.198 155.159 331.338 152.984 331.465 150.986C330.233 150.631 329.026 150.471 327.81 150.879Z" fill="#FFB60F"/>
<path d="M331.166 156.66C330.669 157.063 330.003 157.253 329.367 157.171C328.73 157.088 328.135 156.734 327.757 156.219C327.084 156.19 326.628 156.738 326.09 157.146C324.837 158.089 323.297 158.65 321.733 158.728C321.552 158.831 321.609 159.235 321.712 159.416C321.815 159.597 322.008 159.708 322.193 159.799C324.217 160.821 326.734 160.809 328.747 159.758C329.589 160.446 330.845 160.607 331.724 159.964C331.847 158.856 331.708 157.632 331.166 156.66Z" fill="#262E36"/>
<path d="M326.944 116.222C325.433 130.283 325.088 140.336 325.913 154.455C328.065 155.11 330.718 154.979 332.755 154.019C331.81 145.049 332.513 139.706 334.209 130.848C335.075 126.324 336.274 121.603 334.919 117.202C332.537 116.317 329.428 115.686 326.944 116.222Z" fill="#334EE8"/>
<path d="M327.186 102.271C323.856 108.212 325.055 113.416 326.065 122.006C329.203 122.719 333.145 122.018 336.02 120.568C335.482 115.925 334.788 111.067 334.25 106.424C334.069 104.871 333.872 103.26 333.055 101.925C332.931 101.723 332.775 101.538 332.599 101.365C330.973 99.7991 328.287 100.306 327.186 102.271Z" fill="white"/>
<path d="M327.453 98.8348C327.761 100.075 328.069 101.311 328.377 102.551C329.219 102.646 330.229 102.934 331.059 102.761C331.088 101.27 330.911 99.5558 330.172 98.0643C329.141 97.71 328.476 98.4599 327.453 98.8348Z" fill="#B08B4E"/>
<path opacity="0.2" d="M328.344 102.416C329.272 101.777 330.118 101.023 330.858 100.174C330.751 99.6058 330.591 99.0413 330.365 98.5016C330.04 98.4439 329.691 98.4645 329.314 98.5634C328.648 98.7406 328.077 99.1855 327.679 99.7541C327.901 100.644 328.123 101.53 328.344 102.416Z" fill="black"/>
<path d="M330.024 105.118C330.804 108.838 332.229 112.419 334.213 115.653C333.046 118.854 331.379 121.779 329.465 124.597C329.568 125.458 330.48 126.344 331.342 126.287C334.122 123.637 336.907 120.741 339.009 117.523C338.603 113.016 337.457 108.241 335.215 104.319C334.759 103.519 334.217 102.695 333.383 102.312C332.492 101.9 331.355 102.11 330.665 102.811C329.979 103.515 329.823 104.154 330.024 105.118Z" fill="#B08B4E"/>
<path d="M331.26 112.262C333.765 111.673 336.081 110.314 337.818 108.41C337.437 106.515 336.262 104.776 335.009 103.305C334.476 102.679 333.86 102.098 333.108 101.769C332.357 101.435 331.453 101.381 330.73 101.777C330.069 102.139 329.642 102.836 329.445 103.565C329.248 104.294 329.26 105.061 329.301 105.814C329.433 108.274 330.008 110.14 331.26 112.262Z" fill="white"/>
<path d="M329.856 124.354C329.65 124.412 329.445 124.47 329.235 124.528C329.018 124.589 328.788 124.655 328.628 124.82C328.468 124.985 328.418 125.273 328.578 125.434C328.106 126.192 327.593 126.806 326.944 127.42C327.01 127.638 327.326 127.749 327.552 127.725C327.687 127.708 327.815 127.646 327.942 127.605C327.839 127.762 327.745 127.964 327.642 128.12C328.582 128.343 329.626 128.343 330.451 127.836C331.272 127.329 331.847 126.394 331.814 125.426C331.248 124.948 330.57 124.552 329.856 124.354Z" fill="#B08B4E"/>
<path d="M325.437 94.826C325.075 97.0838 325.663 99.4816 327.034 101.307C328.299 101.364 329.609 101.088 330.546 100.231C331.482 99.3745 332.061 98.1385 332.118 96.8695C332.172 95.7077 331.782 94.5088 330.981 93.6683C330.18 92.8278 328.96 92.3746 327.819 92.5806C326.681 92.7907 325.622 93.6765 325.437 94.826Z" fill="#B08B4E"/>
<path d="M324.747 96.384C326.028 96.8248 327.564 96.4046 328.443 95.3705C328.496 95.6342 328.685 95.8196 328.927 95.939C329.166 96.0626 329.461 96.0668 329.708 95.9555C329.839 96.2357 330.131 96.5035 330.431 96.5941C330.418 96.9773 330.525 97.447 330.509 97.8301C330.545 97.5376 330.763 97.0556 330.94 96.8166C331.116 96.5818 331.482 96.454 331.716 96.6353C331.929 96.796 331.946 97.1091 331.888 97.3687C331.736 98.102 331.141 98.72 330.418 98.9054C330.389 99.3586 330.615 99.853 330.911 100.195C331.901 99.3257 332.484 97.9166 332.492 96.5982C332.5 95.2798 331.913 93.9656 330.927 93.0921C330.036 92.3011 328.771 91.8685 327.622 92.1775C326.755 92.4082 326.028 93.0344 325.552 93.8008C325.084 94.5588 324.85 95.49 324.747 96.384Z" fill="#E598FC"/>
<path d="M326.069 98.1308C326.119 98.3863 326.077 98.6088 325.983 98.6294C325.889 98.6458 325.769 98.4522 325.724 98.1968C325.675 97.9413 325.716 97.7188 325.811 97.6982C325.905 97.6818 326.02 97.8754 326.069 98.1308Z" fill="#444878"/>
<path d="M328.008 97.7685C328.057 98.024 328.016 98.2465 327.921 98.2671C327.827 98.2835 327.708 98.0899 327.663 97.8345C327.613 97.579 327.654 97.3565 327.749 97.3359C327.843 97.3195 327.958 97.5131 328.008 97.7685Z" fill="#444878"/>
<path d="M325.014 97.5742C325.026 97.3188 325.236 97.1251 325.47 97.0551C325.704 96.9892 325.987 97.0468 326.127 97.2611C325.884 97.3188 325.728 97.3517 325.564 97.4012C325.404 97.4424 325.252 97.4959 325.014 97.5742Z" fill="#444878"/>
<path d="M327.1 97.1125C327.157 96.8282 327.4 96.6264 327.663 96.5357C327.925 96.4533 328.242 96.4739 328.455 96.6717C328.184 96.7541 327.983 96.8035 327.773 96.8777C327.56 96.9436 327.371 97.0178 327.1 97.1125Z" fill="#444878"/>
<g opacity="0.2">
<path opacity="0.2" d="M326.673 99.5847C326.669 99.5847 326.669 99.5847 326.665 99.5847C326.599 99.5765 326.525 99.5723 326.455 99.5394C326.365 99.4982 326.303 99.4199 326.291 99.3334C326.279 99.2386 326.324 99.1603 326.365 99.0944C326.496 98.8761 326.558 98.6247 326.55 98.3858C326.55 98.3363 326.587 98.2951 326.636 98.291H326.64C326.689 98.291 326.726 98.3281 326.73 98.3775C326.743 98.6536 326.669 98.9379 326.529 99.1727C326.496 99.2304 326.468 99.2757 326.472 99.3087C326.476 99.3334 326.5 99.3622 326.533 99.3746C326.578 99.3952 326.628 99.3993 326.685 99.4034C326.735 99.4075 326.771 99.4529 326.767 99.5023C326.759 99.5476 326.718 99.5847 326.673 99.5847Z" fill="black"/>
</g>
<g opacity="0.2">
<path opacity="0.2" d="M326.562 100.026C326.517 100.026 326.472 100.026 326.427 100.022C326.377 100.018 326.34 99.9766 326.344 99.9272C326.348 99.8777 326.381 99.8407 326.439 99.8448C326.969 99.8777 327.519 99.68 327.909 99.3133C327.946 99.2803 327.999 99.2803 328.036 99.3174C328.069 99.3545 328.069 99.408 328.032 99.4451C327.642 99.8118 327.1 100.026 326.562 100.026Z" fill="black"/>
</g>
<path opacity="0.2" d="M334.812 117.692C333.441 119.604 332.229 121.623 331.186 123.732C332.792 122.344 334.566 119.806 334.812 117.692Z" fill="white"/>
<path opacity="0.2" d="M326.554 92.8693C326.221 92.6798 325.811 92.6469 325.453 92.7705C325.096 92.8982 324.796 93.1866 324.652 93.5409C325.088 93.1619 325.975 92.8322 326.554 92.8693Z" fill="white"/>
<path opacity="0.2" d="M318.8 117.774C320.353 116.934 321.958 116.188 323.597 115.537C322.312 116.728 320.533 117.519 318.8 117.774Z" fill="white"/>
<path opacity="0.2" d="M330.689 116.946C330.242 117.185 329.671 117.082 329.252 116.798C328.833 116.514 328.541 116.077 328.303 115.628C327.47 114.038 327.231 112.212 327.001 110.433C326.977 112.332 326.973 114.4 327.806 116.106C328.053 116.608 328.385 117.103 328.886 117.342C329.392 117.585 330.406 117.428 330.689 116.946Z" fill="white"/>
</g>
<defs>
<clipPath id="clip0">
<rect width="378" height="166" rx="4" fill="white"/>
</clipPath>
</defs>
</svg>
