<svg width="378" height="166" viewBox="0 0 378 166" fill="none" xmlns="http://www.w3.org/2000/svg">
<g clip-path="url(#clip0)">
<rect width="378" height="166" rx="4" fill="#FFE000"/>
<g clip-path="url(#clip1)">
<path d="M58 35.7036C58 33.4747 59.4004 31.5712 61.3675 30.8337C62.4188 27.9786 65.1538 25.9392 68.3652 25.9392C68.3981 25.9392 68.4309 25.9433 68.4679 25.9433C70.1516 22.4866 73.6875 20.1094 77.7818 20.1094C81.9008 20.1094 85.4572 22.5196 87.1286 26.0133C87.4612 25.968 87.798 25.9433 88.1429 25.9433C92.2619 25.9433 95.6006 29.2929 95.6006 33.4252C95.6006 34.2204 95.4774 34.9867 95.2475 35.7077H58V35.7036Z" fill="white"/>
<path d="M286.897 58.311C286.897 56.0821 288.298 54.1786 290.265 53.4412C291.316 50.586 294.051 48.5466 297.262 48.5466C297.295 48.5466 297.328 48.5507 297.365 48.5507C299.049 45.094 302.585 42.7168 306.679 42.7168C310.798 42.7168 314.354 45.127 316.026 48.6208C316.358 48.5754 316.695 48.5507 317.04 48.5507C321.159 48.5507 324.498 51.9003 324.498 56.0326C324.498 56.8278 324.375 57.5941 324.145 58.3151H286.897V58.311Z" fill="white"/>
<path d="M293.734 27.8525C293.734 24.7295 291.771 22.0639 289.02 21.0298C287.55 17.0292 283.714 14.1741 279.213 14.1741C279.164 14.1741 279.119 14.1782 279.069 14.1782C276.708 9.3372 271.751 6 266.018 6C260.244 6 255.259 9.3784 252.918 14.273C252.454 14.2112 251.978 14.1741 251.497 14.1741C245.727 14.1741 241.05 18.8668 241.05 24.6554C241.05 25.7719 241.226 26.8431 241.547 27.8525H293.734Z" fill="white"/>
<g clip-path="url(#clip2)">
<path d="M274 128.734H296.25V139.396H318.59V120.016H344.91V148.748H370.392V157.417H380.572V166.691H274V128.734Z" fill="#E7CE3B"/>
<rect x="241" y="158" width="37" height="9" fill="#E7CE3B"/>
<path d="M336.429 91.6777H304.582V166.691H336.429V91.6777Z" fill="#E7CE3B"/>
<path d="M310.787 94.9492H307.116V98.3606H310.787V94.9492Z" fill="#FFEF92"/>
<path d="M316.566 94.9492H312.894V98.3606H316.566V94.9492Z" fill="#FFEF92"/>
<path d="M322.339 94.9492H318.668V98.3606H322.339V94.9492Z" fill="#FFEF92"/>
<path d="M328.118 94.9492H324.446V98.3606H328.118V94.9492Z" fill="#FFEF92"/>
<path d="M333.896 94.9492H330.224V98.3606H333.896V94.9492Z" fill="#FFEF92"/>
<path d="M310.787 100.227H307.116V103.638H310.787V100.227Z" fill="#FFEF92"/>
<path d="M316.566 100.227H312.894V103.638H316.566V100.227Z" fill="#FFEF92"/>
<path d="M322.339 100.227H318.668V103.638H322.339V100.227Z" fill="#FFEF92"/>
<path d="M328.118 100.227H324.446V103.638H328.118V100.227Z" fill="#FFEF92"/>
<path d="M333.896 100.227H330.224V103.638H333.896V100.227Z" fill="#FFEF92"/>
<path d="M310.787 105.508H307.116V108.919H310.787V105.508Z" fill="#FFEF92"/>
<path d="M316.566 105.508H312.894V108.919H316.566V105.508Z" fill="#FFEF92"/>
<path d="M322.339 105.508H318.668V108.919H322.339V105.508Z" fill="#FFEF92"/>
<path d="M328.118 105.508H324.446V108.919H328.118V105.508Z" fill="#FFEF92"/>
<path d="M333.896 105.508H330.224V108.919H333.896V105.508Z" fill="#FFEF92"/>
<path d="M310.787 110.787H307.116V114.198H310.787V110.787Z" fill="#FFEF92"/>
<path d="M316.566 110.787H312.894V114.198H316.566V110.787Z" fill="#FFEF92"/>
<path d="M322.339 110.787H318.668V114.198H322.339V110.787Z" fill="#FFEF92"/>
<path d="M328.118 110.787H324.446V114.198H328.118V110.787Z" fill="#FFEF92"/>
<path d="M333.896 110.787H330.224V114.198H333.896V110.787Z" fill="#FFEF92"/>
<path d="M310.787 116.068H307.116V119.48H310.787V116.068Z" fill="#FFEF92"/>
<path d="M316.566 116.068H312.894V119.48H316.566V116.068Z" fill="#FFEF92"/>
<path d="M322.339 116.068H318.668V119.48H322.339V116.068Z" fill="#FFEF92"/>
<path d="M328.118 116.068H324.446V119.48H328.118V116.068Z" fill="#FFEF92"/>
<path d="M333.896 116.068H330.224V119.48H333.896V116.068Z" fill="#FFEF92"/>
<path d="M310.787 121.346H307.116V124.757H310.787V121.346Z" fill="#FFEF92"/>
<path d="M316.566 121.346H312.894V124.757H316.566V121.346Z" fill="#FFEF92"/>
<path d="M322.339 121.346H318.668V124.757H322.339V121.346Z" fill="#FFEF92"/>
<path d="M328.118 121.346H324.446V124.757H328.118V121.346Z" fill="#FFEF92"/>
<path d="M333.896 121.346H330.224V124.757H333.896V121.346Z" fill="#FFEF92"/>
<path d="M310.787 126.627H307.116V130.038H310.787V126.627Z" fill="#FFEF92"/>
<path d="M316.566 126.627H312.894V130.038H316.566V126.627Z" fill="#FFEF92"/>
<path d="M322.339 126.627H318.668V130.038H322.339V126.627Z" fill="#FFEF92"/>
<path d="M328.118 126.627H324.446V130.038H328.118V126.627Z" fill="#FFEF92"/>
<path d="M333.896 126.627H330.224V130.038H333.896V126.627Z" fill="#FFEF92"/>
<path d="M310.787 131.906H307.116V135.318H310.787V131.906Z" fill="#FFEF92"/>
<path d="M316.566 131.906H312.894V135.318H316.566V131.906Z" fill="#FFEF92"/>
<path d="M322.339 131.906H318.668V135.318H322.339V131.906Z" fill="#FFEF92"/>
<path d="M328.118 131.906H324.446V135.318H328.118V131.906Z" fill="#FFEF92"/>
<path d="M333.896 131.906H330.224V135.318H333.896V131.906Z" fill="#FFEF92"/>
<path d="M310.787 137.188H307.116V140.599H310.787V137.188Z" fill="#FFEF92"/>
<path d="M316.566 137.188H312.894V140.599H316.566V137.188Z" fill="#FFEF92"/>
<path d="M322.339 137.188H318.668V140.599H322.339V137.188Z" fill="#FFEF92"/>
<path d="M328.118 137.188H324.446V140.599H328.118V137.188Z" fill="#FFEF92"/>
<path d="M333.896 137.188H330.224V140.599H333.896V137.188Z" fill="#FFEF92"/>
<path d="M310.787 142.465H307.116V145.876H310.787V142.465Z" fill="#FFEF92"/>
<path d="M316.566 142.465H312.894V145.876H316.566V142.465Z" fill="#FFEF92"/>
<path d="M322.339 142.465H318.668V145.876H322.339V142.465Z" fill="#FFEF92"/>
<path d="M328.118 142.465H324.446V145.876H328.118V142.465Z" fill="#FFEF92"/>
<path d="M333.896 142.465H330.224V145.876H333.896V142.465Z" fill="#FFEF92"/>
<path d="M310.787 147.746H307.116V151.157H310.787V147.746Z" fill="#FFEF92"/>
<path d="M316.566 147.746H312.894V151.157H316.566V147.746Z" fill="#FFEF92"/>
<path d="M322.339 147.746H318.668V151.157H322.339V147.746Z" fill="#FFEF92"/>
<path d="M328.118 147.746H324.446V151.157H328.118V147.746Z" fill="#FFEF92"/>
<path d="M333.896 147.746H330.224V151.157H333.896V147.746Z" fill="#FFEF92"/>
<path d="M310.787 153.025H307.116V156.437H310.787V153.025Z" fill="#FFEF92"/>
<path d="M316.566 153.025H312.894V156.437H316.566V153.025Z" fill="#FFEF92"/>
<path d="M322.339 153.025H318.668V156.437H322.339V153.025Z" fill="#FFEF92"/>
<path d="M328.118 153.025H324.446V156.437H328.118V153.025Z" fill="#FFEF92"/>
<path d="M333.896 153.025H330.224V156.437H333.896V153.025Z" fill="#FFEF92"/>
<path d="M310.787 158.307H307.116V161.718H310.787V158.307Z" fill="#FFEF92"/>
<path d="M316.566 158.307H312.894V161.718H316.566V158.307Z" fill="#FFEF92"/>
<path d="M322.339 158.307H318.668V161.718H322.339V158.307Z" fill="#FFEF92"/>
<path d="M328.118 158.307H324.446V161.718H328.118V158.307Z" fill="#FFEF92"/>
<path d="M333.896 158.307H330.224V161.718H333.896V158.307Z" fill="#FFEF92"/>
<path d="M370.584 103.906H350.458V166.687H370.584V103.906Z" fill="#E7CE3B"/>
<path d="M355.267 106.646H352.421V109.502H355.267V106.646Z" fill="#FFEF92"/>
<path d="M359.743 106.646H356.897V109.502H359.743V106.646Z" fill="#FFEF92"/>
<path d="M364.219 106.646H361.373V109.502H364.219V106.646Z" fill="#FFEF92"/>
<path d="M368.691 106.646H365.845V109.502H368.691V106.646Z" fill="#FFEF92"/>
<path d="M355.267 111.066H352.421V113.922H355.267V111.066Z" fill="#FFEF92"/>
<path d="M359.743 111.066H356.897V113.922H359.743V111.066Z" fill="#FFEF92"/>
<path d="M364.219 111.066H361.373V113.922H364.219V111.066Z" fill="#FFEF92"/>
<path d="M368.691 111.066H365.845V113.922H368.691V111.066Z" fill="#FFEF92"/>
<path d="M355.267 115.484H352.421V118.34H355.267V115.484Z" fill="#FFEF92"/>
<path d="M359.743 115.484H356.897V118.34H359.743V115.484Z" fill="#FFEF92"/>
<path d="M364.219 115.484H361.373V118.34H364.219V115.484Z" fill="#FFEF92"/>
<path d="M368.691 115.484H365.845V118.34H368.691V115.484Z" fill="#FFEF92"/>
<path d="M355.267 119.904H352.421V122.759H355.267V119.904Z" fill="#FFEF92"/>
<path d="M359.743 119.904H356.897V122.759H359.743V119.904Z" fill="#FFEF92"/>
<path d="M364.219 119.904H361.373V122.759H364.219V119.904Z" fill="#FFEF92"/>
<path d="M368.691 119.904H365.845V122.759H368.691V119.904Z" fill="#FFEF92"/>
<path d="M355.267 124.32H352.421V127.175H355.267V124.32Z" fill="#FFEF92"/>
<path d="M359.743 124.32H356.897V127.175H359.743V124.32Z" fill="#FFEF92"/>
<path d="M364.219 124.32H361.373V127.175H364.219V124.32Z" fill="#FFEF92"/>
<path d="M368.691 124.32H365.845V127.175H368.691V124.32Z" fill="#FFEF92"/>
<path d="M355.267 128.742H352.421V131.597H355.267V128.742Z" fill="#FFEF92"/>
<path d="M359.743 128.742H356.897V131.597H359.743V128.742Z" fill="#FFEF92"/>
<path d="M364.219 128.742H361.373V131.597H364.219V128.742Z" fill="#FFEF92"/>
<path d="M368.691 128.742H365.845V131.597H368.691V128.742Z" fill="#FFEF92"/>
<path d="M355.267 133.158H352.421V136.013H355.267V133.158Z" fill="#FFEF92"/>
<path d="M359.743 133.158H356.897V136.013H359.743V133.158Z" fill="#FFEF92"/>
<path d="M364.219 133.158H361.373V136.013H364.219V133.158Z" fill="#FFEF92"/>
<path d="M368.691 133.158H365.845V136.013H368.691V133.158Z" fill="#FFEF92"/>
<path d="M355.267 137.58H352.421V140.435H355.267V137.58Z" fill="#FFEF92"/>
<path d="M359.743 137.58H356.897V140.435H359.743V137.58Z" fill="#FFEF92"/>
<path d="M364.219 137.58H361.373V140.435H364.219V137.58Z" fill="#FFEF92"/>
<path d="M368.691 137.58H365.845V140.435H368.691V137.58Z" fill="#FFEF92"/>
<path d="M355.267 141.996H352.421V144.851H355.267V141.996Z" fill="#FFEF92"/>
<path d="M359.743 141.996H356.897V144.851H359.743V141.996Z" fill="#FFEF92"/>
<path d="M364.219 141.996H361.373V144.851H364.219V141.996Z" fill="#FFEF92"/>
<path d="M368.691 141.996H365.845V144.851H368.691V141.996Z" fill="#FFEF92"/>
<path d="M355.267 146.416H352.421V149.271H355.267V146.416Z" fill="#FFEF92"/>
<path d="M359.743 146.416H356.897V149.271H359.743V146.416Z" fill="#FFEF92"/>
<path d="M364.219 146.416H361.373V149.271H364.219V146.416Z" fill="#FFEF92"/>
<path d="M368.691 146.416H365.845V149.271H368.691V146.416Z" fill="#FFEF92"/>
<path d="M355.267 150.838H352.421V153.693H355.267V150.838Z" fill="#FFEF92"/>
<path d="M359.743 150.838H356.897V153.693H359.743V150.838Z" fill="#FFEF92"/>
<path d="M364.219 150.838H361.373V153.693H364.219V150.838Z" fill="#FFEF92"/>
<path d="M368.691 150.838H365.845V153.693H368.691V150.838Z" fill="#FFEF92"/>
<path d="M355.267 155.254H352.421V158.109H355.267V155.254Z" fill="#FFEF92"/>
<path d="M359.743 155.254H356.897V158.109H359.743V155.254Z" fill="#FFEF92"/>
<path d="M364.219 155.254H361.373V158.109H364.219V155.254Z" fill="#FFEF92"/>
<path d="M368.691 155.254H365.845V158.109H368.691V155.254Z" fill="#FFEF92"/>
<path d="M355.267 159.676H352.421V162.531H355.267V159.676Z" fill="#FFEF92"/>
<path d="M359.743 159.676H356.897V162.531H359.743V159.676Z" fill="#FFEF92"/>
<path d="M364.219 159.676H361.373V162.531H364.219V159.676Z" fill="#FFEF92"/>
<path d="M368.691 159.676H365.845V162.531H368.691V159.676Z" fill="#FFEF92"/>
<path d="M370.584 103.906V75L364.544 81.0605L364.293 81.2047C358.511 84.5543 354.273 90.0504 352.495 96.5105L350.458 103.906H370.584Z" fill="#E7CE3B"/>
<path d="M114.932 128.041C109.991 126.653 104.608 126.158 99.7904 127.938C94.9733 129.718 90.9159 134.167 90.7393 139.313C86.4848 136.957 80.7848 136.281 76.3742 138.325C71.9636 140.368 68.6208 144.595 67.6475 149.37C65.6681 148.542 62.7606 149.589 60.9701 150.771C59.1755 151.954 58.0256 154.063 58.001 156.214C54.7321 154.508 50.9827 153.531 47.3113 153.832C43.64 154.133 40.0261 155.777 37.6606 158.611C35.2952 161.442 34.326 165.492 35.4965 168.994C57.9969 168.928 80.6944 167.758 103.195 167.692C108.172 167.675 113.453 167.577 117.646 164.882C123.498 161.116 125.469 153.148 124.172 146.297C122.866 139.445 118.763 133.858 114.932 128.041Z" fill="#7BC1D8"/>
<path d="M114.989 131.271C115.823 128.959 114.652 126.372 113.022 124.539C111.387 122.705 109.297 121.325 107.716 119.45C105.396 116.694 104.353 113.106 102.607 109.95C100.862 106.794 97.8642 103.819 94.2709 104.009C95.4207 105.438 94.8335 107.531 94.5501 109.348C94.2668 111.165 93.7863 113.023 94.2216 114.807C94.7267 116.871 96.3694 118.457 97.2071 120.41C98.7184 123.949 97.3919 128.115 98.4022 131.827C99.2933 135.102 101.996 137.702 105.133 138.975C108.27 140.248 111.798 140.31 115.133 139.717C116.081 136.417 116.291 134.447 114.989 131.271Z" fill="#76C8B2"/>
<path d="M112.028 132.007C109.437 131.554 107.043 129.585 105.462 126.606C105.256 126.215 105.067 125.815 104.891 125.407C104.924 125.37 104.952 125.325 104.965 125.275C105.609 123.186 105.942 121.015 105.946 118.827C105.946 118.609 105.774 118.436 105.556 118.436C105.338 118.436 105.166 118.609 105.166 118.827C105.162 120.673 104.915 122.507 104.439 124.286C103.856 122.704 103.425 121.052 103.01 119.433C102.887 118.951 102.763 118.473 102.636 117.995C102.595 117.847 102.558 117.699 102.517 117.55C102.554 117.505 102.587 117.451 102.599 117.39C102.911 115.91 103.154 114.398 103.314 112.89C103.338 112.676 103.182 112.483 102.965 112.458C102.751 112.441 102.558 112.59 102.534 112.808C102.419 113.879 102.262 114.955 102.069 116.018C101.347 113.702 100.382 111.428 98.78 109.566C98.6404 109.401 98.3899 109.384 98.2297 109.524C98.0655 109.665 98.049 109.916 98.1887 110.077C99.0716 111.102 99.7492 112.272 100.304 113.508C99.4042 113.162 98.4843 112.866 97.5521 112.635C97.3427 112.586 97.1291 112.713 97.0799 112.923C97.0265 113.134 97.1579 113.348 97.3673 113.397C98.472 113.669 99.5644 114.032 100.616 114.473C100.649 114.485 100.686 114.493 100.718 114.497C101.187 115.704 101.552 116.957 101.881 118.193C102.008 118.667 102.131 119.145 102.254 119.627C102.377 120.1 102.501 120.583 102.628 121.06C101.347 120.541 100.082 119.969 98.8581 119.338C98.665 119.239 98.4309 119.318 98.3324 119.507C98.2338 119.701 98.3119 119.936 98.5008 120.035C99.9176 120.764 101.392 121.423 102.878 122.004C102.883 122.004 102.887 122.004 102.887 122.008C103.367 123.71 103.938 125.399 104.772 126.973C105.166 127.71 105.605 128.39 106.086 129.004C104.127 129.066 102.127 128.608 100.402 127.685C100.213 127.582 99.9751 127.657 99.8724 127.846C99.7697 128.036 99.8436 128.275 100.033 128.378C101.589 129.21 103.351 129.692 105.121 129.787C105.638 129.815 106.16 129.807 106.673 129.766C106.689 129.766 106.702 129.762 106.718 129.758C108.205 131.385 109.995 132.448 111.897 132.778C111.913 132.782 111.93 132.782 111.946 132.782C112.139 132.79 112.316 132.654 112.353 132.456C112.381 132.246 112.242 132.044 112.028 132.007Z" fill="white"/>
<path d="M124.155 143.136C123.794 139.284 120.402 136.383 116.849 134.875C113.301 133.367 109.396 132.807 105.889 131.2C100.739 128.839 96.8582 124.427 92.2628 121.106C87.6674 117.785 81.4048 115.569 76.4193 118.259C79.0106 119.524 79.5773 122.898 80.3904 125.671C81.1994 128.448 81.7621 131.419 83.5772 133.668C85.6757 136.268 89.076 137.417 91.5729 139.638C96.0943 143.659 96.9855 150.482 100.903 155.092C104.361 159.159 109.946 161.041 115.268 160.745C120.591 160.444 125.65 158.166 129.999 155.071C129.153 149.724 128.135 146.782 124.155 143.136Z" fill="#9CE7CC"/>
<path d="M120.435 146.176C116.443 147.276 111.716 146.081 107.47 142.905C106.915 142.488 106.382 142.039 105.856 141.582C105.876 141.504 105.885 141.425 105.872 141.343C105.396 137.932 104.414 134.619 102.961 131.5C102.817 131.191 102.456 131.06 102.143 131.204C101.835 131.348 101.704 131.715 101.848 132.024C103.076 134.656 103.954 137.429 104.46 140.284C102.571 138.426 100.854 136.362 99.1825 134.335C98.6856 133.733 98.1887 133.132 97.6877 132.539C97.5317 132.353 97.3756 132.172 97.2196 131.987C97.2401 131.896 97.2524 131.801 97.2278 131.702C96.6857 129.383 96.0163 127.067 95.236 124.818C95.1252 124.496 94.772 124.323 94.4517 124.435C94.1355 124.55 93.9589 124.9 94.0698 125.222C94.6242 126.824 95.1211 128.46 95.5523 130.104C92.9774 127.294 90.0781 124.707 86.5545 123.129C86.2424 122.988 85.881 123.129 85.7414 123.442C85.6018 123.755 85.7414 124.117 86.0535 124.257C87.996 125.127 89.7454 126.33 91.3593 127.722C89.8481 127.834 88.3368 128.031 86.8584 128.332C86.5217 128.402 86.3081 128.728 86.3779 129.061C86.4437 129.395 86.7722 129.613 87.1048 129.543C88.8625 129.189 90.6612 128.967 92.4517 128.892C92.5092 128.888 92.5626 128.876 92.616 128.855C94.0903 130.26 95.4496 131.797 96.7432 133.334C97.2401 133.927 97.737 134.524 98.2298 135.122C98.7226 135.715 99.2195 136.317 99.7205 136.914C97.5522 137.038 95.3633 137.071 93.1991 137.001C92.8583 136.992 92.5749 137.256 92.5626 137.598C92.5503 137.94 92.8172 138.224 93.1581 138.237C95.6631 138.319 98.2052 138.27 100.71 138.097C100.714 138.097 100.718 138.092 100.727 138.092C102.55 140.194 104.488 142.217 106.726 143.893C107.778 144.68 108.862 145.348 109.958 145.904C107.211 147.309 104.057 148.005 100.981 147.849C100.64 147.832 100.353 148.096 100.337 148.434C100.32 148.776 100.583 149.064 100.92 149.08C103.692 149.221 106.525 148.722 109.104 147.659C109.86 147.35 110.595 146.987 111.301 146.584C111.322 146.571 111.342 146.555 111.359 146.543C114.562 147.857 117.827 148.166 120.751 147.362C120.775 147.354 120.8 147.346 120.821 147.338C121.104 147.222 121.264 146.905 121.182 146.604C121.1 146.279 120.763 146.085 120.435 146.176Z" fill="white"/>
<path d="M142.537 19.9688H206.722C207.868 19.9688 208.966 20.4253 209.776 21.2379C210.586 22.0505 211.041 23.1526 211.041 24.3018V50.1504H138.219V24.3018C138.219 23.1526 138.674 22.0505 139.484 21.2379C140.293 20.4253 141.392 19.9688 142.537 19.9688Z" fill="#B8342F"/>
<path d="M140.192 19.9688H204.377C205.522 19.9688 206.621 20.4253 207.431 21.2379C208.241 22.0505 208.696 23.1526 208.696 24.3018V50.1504H135.873V24.3018C135.873 23.7327 135.985 23.1693 136.202 22.6436C136.419 22.1179 136.737 21.6402 137.138 21.2379C137.539 20.8355 138.015 20.5163 138.539 20.2986C139.063 20.0808 139.625 19.9687 140.192 19.9688Z" fill="#EE504B"/>
<path d="M236.953 47.9473H110.78V159.941H236.953V47.9473Z" fill="#A0ABE9"/>
<path d="M236.953 47.9473H110.78V83.1642H236.953V47.9473Z" fill="#8089BA"/>
<path d="M241.309 157.916H106.424V166.765H241.309V157.916Z" fill="#A3C1C8"/>
<path d="M236.953 56.9863H110.78V64.5616H236.953V56.9863Z" fill="#F4CB90"/>
<path d="M236.953 47.9473H110.78V60.5728H236.953V47.9473Z" fill="white"/>
<g style="mix-blend-mode:multiply">
<path d="M236.953 59.0781H110.78V60.5573H236.953V59.0781Z" fill="#E6DDD7"/>
</g>
<path d="M160.371 70.582H169.38V72.5618C169.38 73.7605 168.906 74.9101 168.061 75.7577C167.216 76.6054 166.07 77.0815 164.876 77.0815C164.284 77.0815 163.698 76.9646 163.152 76.7375C162.605 76.5104 162.108 76.1774 161.69 75.7577C161.272 75.338 160.94 74.8398 160.714 74.2914C160.487 73.743 160.371 73.1553 160.371 72.5618V70.582Z" fill="#B8342F"/>
<path d="M151.361 70.582H160.371V72.5618C160.371 73.7605 159.896 74.9101 159.051 75.7577C158.206 76.6054 157.061 77.0815 155.866 77.0815C155.274 77.0815 154.688 76.9646 154.142 76.7375C153.595 76.5104 153.099 76.1774 152.68 75.7577C152.262 75.338 151.93 74.8398 151.704 74.2914C151.477 73.743 151.361 73.1553 151.361 72.5618V70.582Z" fill="#CD8CE5"/>
<path d="M142.351 70.582H151.361V72.5618C151.361 73.7605 150.886 74.9101 150.041 75.7577C149.197 76.6054 148.051 77.0815 146.856 77.0815C145.661 77.0815 144.515 76.6054 143.671 75.7577C142.826 74.9101 142.351 73.7605 142.351 72.5618V70.582Z" fill="#B8342F"/>
<path d="M133.341 70.582H142.351V72.5618C142.351 73.7605 141.877 74.9101 141.032 75.7577C140.187 76.6054 139.041 77.0815 137.846 77.0815C136.651 77.0815 135.506 76.6054 134.661 75.7577C133.816 74.9101 133.341 73.7605 133.341 72.5618V70.582Z" fill="#CD8CE5"/>
<path d="M124.332 70.582H133.341V72.5618C133.341 73.7605 132.867 74.9101 132.022 75.7577C131.177 76.6054 130.031 77.0815 128.837 77.0815C127.642 77.0815 126.496 76.6054 125.651 75.7577C124.806 74.9101 124.332 73.7605 124.332 72.5618V70.582Z" fill="#B8342F"/>
<path d="M115.322 70.582H124.332V72.5618C124.332 73.1553 124.215 73.743 123.989 74.2914C123.762 74.8398 123.431 75.338 123.012 75.7577C122.594 76.1774 122.097 76.5104 121.551 76.7375C121.004 76.9646 120.418 77.0815 119.827 77.0815C119.235 77.0815 118.649 76.9646 118.103 76.7375C117.556 76.5104 117.06 76.1774 116.641 75.7577C116.223 75.338 115.891 74.8398 115.665 74.2914C115.438 73.743 115.322 73.1553 115.322 72.5618V70.582Z" fill="#CD8CE5"/>
<path d="M110.817 77.0449C110.226 77.0449 109.64 76.928 109.093 76.7009C108.547 76.4737 108.05 76.1408 107.632 75.7211C107.213 75.3014 106.882 74.8032 106.655 74.2548C106.429 73.7064 106.312 73.1187 106.312 72.5251V70.5454H115.322V72.5251C115.322 73.7239 114.847 74.8735 114.003 75.7211C113.158 76.5687 112.012 77.0449 110.817 77.0449Z" fill="#B8342F"/>
<path d="M232.411 70.582H241.421V72.5618C241.421 73.1553 241.305 73.743 241.078 74.2914C240.852 74.8398 240.52 75.338 240.102 75.7577C239.683 76.1774 239.187 76.5104 238.64 76.7375C238.094 76.9646 237.508 77.0815 236.916 77.0815C235.721 77.0815 234.576 76.6054 233.731 75.7577C232.886 74.9101 232.411 73.7605 232.411 72.5618V70.582Z" fill="#B8342F"/>
<path d="M223.402 70.582H232.411V72.5618C232.411 73.7605 231.937 74.9101 231.092 75.7577C230.247 76.6054 229.101 77.0815 227.906 77.0815C226.712 77.0815 225.566 76.6054 224.721 75.7577C223.876 74.9101 223.402 73.7605 223.402 72.5618V70.582Z" fill="#CD8CE5"/>
<path d="M169.38 70.582H178.39V72.5618C178.39 73.7605 177.916 74.9101 177.071 75.7577C176.226 76.6054 175.08 77.0815 173.885 77.0815C172.691 77.0815 171.545 76.6054 170.7 75.7577C169.855 74.9101 169.38 73.7605 169.38 72.5618V70.582Z" fill="#CD8CE5"/>
<path d="M214.392 70.582H223.402V72.5618C223.402 73.7605 222.927 74.9101 222.082 75.7577C221.237 76.6054 220.091 77.0815 218.897 77.0815C217.702 77.0815 216.556 76.6054 215.711 75.7577C214.866 74.9101 214.392 73.7605 214.392 72.5618V70.582Z" fill="#B8342F"/>
<path d="M205.382 70.582H214.392V72.5618C214.392 73.7605 213.917 74.9101 213.072 75.7577C212.228 76.6054 211.082 77.0815 209.887 77.0815C209.295 77.0815 208.71 76.9646 208.163 76.7375C207.616 76.5104 207.12 76.1774 206.701 75.7577C206.283 75.338 205.951 74.8398 205.725 74.2914C205.499 73.743 205.382 73.1553 205.382 72.5618V70.582Z" fill="#CD8CE5"/>
<path d="M196.41 70.582H205.382V72.5618C205.382 73.754 204.913 74.898 204.076 75.7446C203.239 76.5912 202.103 77.0717 200.914 77.0815C200.323 77.0815 199.737 76.9646 199.191 76.7375C198.644 76.5104 198.147 76.1774 197.729 75.7577C197.311 75.338 196.979 74.8398 196.753 74.2914C196.526 73.743 196.41 73.1553 196.41 72.5618V70.582Z" fill="#B8342F"/>
<path d="M187.4 70.582H196.41V72.5618C196.41 73.7605 195.935 74.9101 195.09 75.7577C194.245 76.6054 193.099 77.0815 191.905 77.0815C190.71 77.0815 189.564 76.6054 188.719 75.7577C187.874 74.9101 187.4 73.7605 187.4 72.5618V70.582Z" fill="#CD8CE5"/>
<path d="M182.858 77.0449C181.663 77.0449 180.517 76.5687 179.672 75.7211C178.828 74.8735 178.353 73.7239 178.353 72.5251V70.5454H187.363V72.5251C187.363 73.7239 186.888 74.8735 186.043 75.7211C185.198 76.5687 184.053 77.0449 182.858 77.0449Z" fill="#B8342F"/>
<path d="M115.322 70.583H106.312L110.854 60.5723H119.268L115.322 70.583Z" fill="#EE504B"/>
<path d="M124.332 70.583H115.322L119.268 60.5723H127.645L124.332 70.583Z" fill="#E598FC"/>
<path d="M133.341 70.583H124.332L127.645 60.5723H136.059L133.341 70.583Z" fill="#EE504B"/>
<path d="M142.351 70.583H133.341L136.059 60.5723H144.473L142.351 70.583Z" fill="#E598FC"/>
<path d="M151.361 70.583H142.351L144.473 60.5723H152.85L151.361 70.583Z" fill="#EE504B"/>
<path d="M160.371 70.583H151.361L152.85 60.5723H161.264L160.371 70.583Z" fill="#E598FC"/>
<path d="M169.38 70.583H160.371L161.264 60.5723H169.678L169.38 70.583Z" fill="#EE504B"/>
<path d="M178.39 70.583H169.38L169.678 60.5723H178.055L178.39 70.583Z" fill="#E598FC"/>
<path d="M187.4 70.583H178.39L178.055 60.5723H186.469L187.4 70.583Z" fill="#EE504B"/>
<path d="M196.41 70.583H187.4L186.469 60.5723H194.883L196.41 70.583Z" fill="#E598FC"/>
<path d="M205.382 70.583H196.41L194.883 60.5723H203.297L205.382 70.583Z" fill="#EE504B"/>
<path d="M214.392 70.583H205.382L203.297 60.5723H211.674L214.392 70.583Z" fill="#E598FC"/>
<path d="M223.402 70.583H214.392L211.674 60.5723H220.088L223.402 70.583Z" fill="#EE504B"/>
<path d="M232.411 70.583H223.402L220.088 60.5723H228.502L232.411 70.583Z" fill="#E598FC"/>
<path d="M241.421 70.583H232.411L228.502 60.5723H236.879L241.421 70.583Z" fill="#EE504B"/>
<g style="mix-blend-mode:multiply">
<path d="M141.234 86.1973V125.605H207.765V86.1973H141.234ZM205.159 123.103H143.84V88.6999H205.159V123.103Z" fill="#E6DDD7"/>
</g>
<path d="M207.132 85.5234H140.601V123.815H207.132V85.5234Z" fill="#8D9BD3"/>
<path d="M147.675 122.317V93.928H158.211V108.384H161.19V111.82H176.566V119.067H189.001V92.9941H200.207V122.317H147.675Z" fill="#A0ABE9"/>
<path d="M178.241 120.673C178.331 120.318 178.443 119.969 178.576 119.627C178.837 118.992 178.539 117.76 178.278 115.929C178.018 114.099 177.161 109.28 178.576 109.131C181.666 108.87 181.145 115.145 181.331 116.676C181.397 117.835 181.372 118.996 181.257 120.15L178.241 120.673Z" fill="#FFC399"/>
<path d="M172.545 105.732C174.667 106.255 175.077 106.741 176.491 105.695C177.199 103.865 177.236 101.511 177.199 98.523C177.161 93.6671 174.965 93.5177 173.811 94.1527H172.88L173.252 101.138L172.545 105.732Z" fill="#2C49C4"/>
<path d="M168.114 105.396C169.678 106.106 172.21 105.77 172.545 105.732C172.582 103.416 170.869 100.129 172.173 98.635C174.257 96.2444 174.332 93.9658 174.332 93.9658C173.438 92.6211 167.556 91.9861 166.998 97.1409C166.551 101.175 166.886 103.528 168.114 105.396Z" fill="#2C49C4"/>
<path d="M175.412 99.0461C175.412 99.0461 176.305 98.7099 176.38 99.6064C176.454 100.503 176.156 100.54 175.709 101.25C175.645 101.384 175.531 101.486 175.391 101.535C175.251 101.584 175.098 101.576 174.965 101.511L175.412 99.0461Z" fill="#FFC399"/>
<path d="M175.635 99.456C175.821 99.1945 176.044 99.3813 176.156 99.6428C176.268 99.9043 176.007 100.203 176.007 100.203C176.007 100.203 176.156 99.7548 175.97 99.6428C175.784 99.5307 175.3 99.8669 175.486 100.166C175.672 100.465 175.858 100.539 175.709 100.689C175.56 100.838 175.709 101.025 175.486 101.1C175.263 101.174 175.337 101.025 175.337 100.651V100.278C175.336 99.9771 175.442 99.6859 175.635 99.456Z" fill="#E3937D"/>
<path d="M168.487 99.0461C168.487 99.0461 167.63 98.7099 167.519 99.6064C167.407 100.503 167.742 100.54 168.189 101.25C168.253 101.384 168.368 101.486 168.507 101.535C168.647 101.584 168.8 101.576 168.933 101.511L168.487 99.0461Z" fill="#FFC399"/>
<path d="M168.263 99.456C168.077 99.1945 167.854 99.3813 167.779 99.6428C167.705 99.9043 167.891 100.203 167.891 100.203C167.891 100.203 167.779 99.7548 167.966 99.6428C168.152 99.5307 168.598 99.8669 168.45 100.166C168.301 100.465 168.04 100.539 168.189 100.689C168.338 100.838 168.189 101.025 168.412 101.1C168.636 101.174 168.561 101.025 168.561 100.651V100.278C168.562 99.9771 168.456 99.6859 168.263 99.456Z" fill="#E3937D"/>
<path d="M170.348 100.465C170.348 100.465 169.976 105.059 169.827 105.396C169.678 105.732 168.487 106.404 168.487 106.404C168.487 106.404 169.976 108.795 171.763 108.795C173.55 108.795 175.486 106.105 175.486 106.105C175.486 106.105 174.183 105.694 173.922 105.358C173.215 104.35 173.327 100.465 173.327 100.465H170.348Z" fill="#FFC399"/>
<path d="M173.774 105.059C173.215 103.789 173.327 100.465 173.327 100.465H170.348C170.348 100.465 170.125 103.117 169.976 104.536C171.197 104.953 172.486 105.13 173.774 105.059Z" fill="#E3937D"/>
<path d="M172.508 104.311C171.279 104.61 168.375 103.676 168.412 100.389C168.412 99.4181 168.04 98.1481 168.114 97.401C168.189 96.6539 169.529 95.3466 170.423 95.1971C174.63 94.4874 175.933 96.131 175.821 96.9154C175.709 97.6998 175.635 99.194 175.598 100.165C175.523 103.228 173.699 103.975 172.508 104.311Z" fill="#FFC399"/>
<path d="M171.205 101.547C171.658 101.734 172.166 101.734 172.619 101.547C173.103 101.323 172.843 102.22 172.545 102.481C172.351 102.605 172.122 102.661 171.893 102.641C171.664 102.621 171.448 102.525 171.279 102.369C170.832 101.884 170.944 101.435 171.205 101.547Z" fill="#222C2D"/>
<path d="M173.885 95.4216H173.811C174.109 95.4216 174.332 95.4963 174.369 95.7205C174.406 95.9446 174.369 96.5796 174.667 97.0652C174.965 97.5508 175.71 98.0737 175.523 98.7834C175.426 99.313 175.389 99.8517 175.412 100.39C175.412 100.39 175.449 99.269 175.858 99.0076C176.268 98.7461 176.305 98.7461 176.491 97.364C176.542 96.97 176.508 96.5697 176.393 96.1898C176.277 95.8098 176.082 95.4588 175.821 95.1602L173.885 95.4216Z" fill="#2C49C4"/>
<path d="M169.455 96.0566L168.561 96.2434L168.263 96.3181C167.989 96.5063 167.665 96.6101 167.333 96.6169C167.295 96.8646 167.295 97.1164 167.333 97.364C167.519 98.7461 167.966 99.0076 167.966 99.0076L168.412 100.39C168.412 100.39 168.375 99.3437 168.375 98.8208C168.338 97.6255 168.785 97.364 168.934 96.8037C169.083 96.2434 169.418 96.4302 169.455 96.0566Z" fill="#2C49C4"/>
<path d="M171.986 99.7188C171.986 100.242 171.428 100.578 171.428 100.839C171.428 101.101 172.135 101.063 172.135 101.063" stroke="#2E353D" stroke-width="0.5" stroke-linecap="round" stroke-linejoin="round"/>
<path d="M173.699 99.1567C173.699 99.3435 173.587 99.5303 173.438 99.5303C173.289 99.5303 173.178 99.3435 173.178 99.1567C173.178 98.97 173.289 98.7832 173.438 98.7832C173.587 98.7832 173.699 98.9326 173.699 99.1567Z" fill="#222C2D"/>
<path d="M170.013 100.502C170.238 100.592 170.482 100.618 170.721 100.577C170.721 100.577 170.348 101.1 170.013 100.502Z" fill="#C47755"/>
<path d="M173.252 100.577C173.494 100.616 173.742 100.576 173.96 100.465C173.935 100.534 173.892 100.595 173.835 100.641C173.779 100.688 173.711 100.718 173.639 100.73C173.567 100.741 173.493 100.733 173.425 100.706C173.357 100.679 173.297 100.635 173.252 100.577Z" fill="#C47755"/>
<path d="M170.311 97.3265C170.679 97.2262 171.068 97.2392 171.428 97.3638C171.428 97.3638 171.242 97.5879 171.13 97.5879C170.846 97.5495 170.558 97.5495 170.274 97.5879L169.678 97.812C169.817 97.5725 170.044 97.3978 170.311 97.3265Z" fill="#2C49C4"/>
<path d="M173.699 97.3263C173.332 97.2236 172.942 97.2367 172.582 97.3636C172.582 97.3636 172.768 97.5877 172.88 97.5877C173.164 97.5493 173.452 97.5493 173.736 97.5877C173.931 97.6396 174.118 97.7148 174.295 97.8119C174.238 97.6916 174.155 97.5856 174.052 97.5016C173.948 97.4176 173.828 97.3577 173.699 97.3263Z" fill="#2C49C4"/>
<path d="M170.683 99.1567C170.683 99.3435 170.572 99.5303 170.423 99.5303C170.337 99.5128 170.261 99.4659 170.206 99.3976C170.152 99.3294 170.123 99.2441 170.125 99.1567C170.12 99.1125 170.123 99.0678 170.136 99.025C170.148 98.9822 170.168 98.9423 170.196 98.9075C170.224 98.8728 170.258 98.8439 170.297 98.8226C170.336 98.8012 170.379 98.7878 170.423 98.7832C170.572 98.7832 170.683 98.9326 170.683 99.1567Z" fill="#222C2D"/>
<path d="M174.444 94.2637C174.369 95.1975 174.22 96.2434 172.992 96.5422C171.763 96.8411 169.157 97.0652 168.114 97.4014C167.072 97.7376 169.157 94.5999 169.157 94.5999L174.444 94.2637Z" fill="#2C49C4"/>
<path d="M171.949 93.9277L174.034 94.7495C174.034 94.7495 174.034 96.4304 174.667 97.0654C175.3 97.7004 175.486 97.7378 175.672 98.3728C175.672 98.3728 177.087 95.4219 175.486 94.7122C174.359 94.2561 173.163 93.991 171.949 93.9277Z" fill="#2C49C4"/>
<path opacity="0.18" d="M171.651 99.1575C171.651 99.5141 171.51 99.8562 171.259 100.108C171.007 100.361 170.666 100.502 170.311 100.502C169.952 100.502 169.607 100.362 169.35 100.111C169.093 99.8595 168.943 99.5175 168.933 99.1575C168.943 98.7939 169.091 98.4478 169.347 98.1907C169.604 97.9335 169.949 97.7848 170.311 97.7754C170.67 97.7851 171.011 97.935 171.261 98.1932C171.511 98.4513 171.651 98.7973 171.651 99.1575Z" fill="white"/>
<path opacity="0.18" d="M174.965 99.1573C174.911 99.4802 174.746 99.7736 174.497 99.9852C174.248 100.197 173.932 100.313 173.606 100.313C173.28 100.313 172.964 100.197 172.715 99.9852C172.466 99.7736 172.301 99.4802 172.247 99.1573C172.214 98.9594 172.225 98.7567 172.278 98.5632C172.331 98.3698 172.426 98.1903 172.555 98.0373C172.684 97.8842 172.845 97.7612 173.027 97.6769C173.208 97.5925 173.406 97.5488 173.606 97.5488C173.806 97.5488 174.004 97.5925 174.185 97.6769C174.366 97.7612 174.527 97.8842 174.657 98.0373C174.786 98.1903 174.881 98.3698 174.934 98.5632C174.987 98.7567 174.998 98.9594 174.965 99.1573Z" fill="white"/>
<path d="M171.651 99.1575C171.651 99.5141 171.51 99.8562 171.259 100.108C171.007 100.361 170.666 100.502 170.311 100.502C169.952 100.502 169.607 100.362 169.35 100.111C169.093 99.8595 168.943 99.5175 168.933 99.1575C168.943 98.7939 169.091 98.4478 169.347 98.1907C169.604 97.9335 169.949 97.7848 170.311 97.7754C170.67 97.7851 171.011 97.935 171.261 98.1932C171.511 98.4513 171.651 98.7973 171.651 99.1575V99.1575Z" stroke="#F73A56" stroke-width="0.58" stroke-linecap="round" stroke-linejoin="round"/>
<path d="M174.965 99.1573C174.911 99.4802 174.746 99.7736 174.497 99.9852C174.248 100.197 173.932 100.313 173.606 100.313C173.28 100.313 172.964 100.197 172.715 99.9852C172.466 99.7736 172.301 99.4802 172.247 99.1573C172.214 98.9594 172.225 98.7567 172.278 98.5632C172.331 98.3698 172.426 98.1903 172.555 98.0373C172.684 97.8842 172.845 97.7612 173.027 97.6769C173.208 97.5925 173.406 97.5488 173.606 97.5488C173.806 97.5488 174.004 97.5925 174.185 97.6769C174.366 97.7612 174.527 97.8842 174.657 98.0373C174.786 98.1903 174.881 98.3698 174.934 98.5632C174.987 98.7567 174.998 98.9594 174.965 99.1573V99.1573Z" stroke="#F73A56" stroke-width="0.58" stroke-linecap="round" stroke-linejoin="round"/>
<path d="M171.651 98.934C171.651 98.8547 171.683 98.7787 171.739 98.7227C171.794 98.6666 171.87 98.6352 171.949 98.6352C171.991 98.6298 172.034 98.6336 172.075 98.6462C172.115 98.6588 172.153 98.68 172.184 98.7083C172.216 98.7366 172.241 98.7714 172.259 98.8103C172.276 98.8492 172.285 98.8914 172.284 98.934" stroke="#F73A56" stroke-width="0.58" stroke-linecap="round" stroke-linejoin="round"/>
<path d="M171.279 102.145C171.279 102.145 171.391 102.593 172.098 102.556C172.215 102.557 172.328 102.516 172.417 102.441C172.505 102.366 172.564 102.26 172.582 102.145C172.161 101.991 171.7 101.991 171.279 102.145Z" fill="#9B4135"/>
<path d="M178.39 122.129C178.083 120.098 178.197 118.025 178.725 116.041C179.023 114.658 177.794 107.15 177.794 107.15L174.89 105.955C174.89 105.955 172.656 107.561 171.763 107.561C170.869 107.561 168.785 106.254 168.785 106.254L166.327 107.412C166.327 107.412 165.694 115.181 166.104 116.563C166.557 118.383 166.658 120.272 166.402 122.129C166.253 123.549 164.838 127.06 164.838 127.06C167.347 128.279 170.092 128.93 172.88 128.965C177.683 128.853 180.214 126.574 180.214 126.574C180.214 126.574 178.576 123.549 178.39 122.129Z" fill="#FF4D4D"/>
<path d="M171.763 107.563C171.763 107.563 170.125 106.928 169.38 105.695L168.301 106.256C168.301 106.256 169.12 108.982 169.902 109.132C170.683 109.281 171.763 107.563 171.763 107.563Z" fill="#F4E6DD"/>
<path d="M171.763 107.562C171.763 107.562 174.034 106.553 174.779 105.619L175.523 105.955C175.523 105.955 174.444 109.168 173.476 109.28C172.508 109.392 171.763 107.562 171.763 107.562Z" fill="#F4E6DD"/>
<path d="M169.976 112.119H166.811V112.803H169.976V112.119Z" fill="#F4E6DD"/>
<path d="M171.763 107.562C172.768 112.792 172.433 117.723 172.135 121.421C172.026 123.958 172.277 126.499 172.88 128.966" stroke="#F4E6DD" stroke-width="0.58" stroke-miterlimit="10"/>
<path d="M177.794 107.151C180.214 108.421 181.629 110.252 181.629 115.929C181.629 115.929 179.172 115.78 177.943 116.265C177.943 116.265 176.901 111.708 176.975 109.654C177.05 107.599 177.199 106.852 177.794 107.151Z" fill="#FF4D4D"/>
<path d="M165.732 120.673C165.642 120.318 165.53 119.969 165.397 119.627C165.136 118.992 165.434 117.76 165.695 115.929C165.955 114.099 166.811 109.28 165.397 109.131C162.307 108.87 162.828 115.145 162.642 116.676C162.576 117.835 162.601 118.996 162.716 120.15L165.732 120.673Z" fill="#FFC399"/>
<path d="M166.327 107.412C163.982 108.794 162.493 109.317 162.493 116.452C162.493 116.452 164.95 116.302 166.178 116.75C166.178 116.75 167.221 112.231 167.146 110.176C167.074 109.207 166.794 108.264 166.327 107.412Z" fill="#FF4D4D"/>
<path d="M162.716 120.149C162.604 120.635 162.865 121.046 163.163 121.681C163.461 122.316 163.2 122.391 163.684 122.577C164.078 122.653 164.482 122.653 164.875 122.577C165.408 122.615 165.943 122.615 166.476 122.577C166.998 122.428 166.625 122.054 166.179 121.532C165.975 121.319 165.8 121.08 165.657 120.822H166.476C166.476 120.822 166.625 120.71 166.03 120.149C165.434 119.589 162.716 120.149 162.716 120.149Z" fill="#FFC399"/>
<path d="M181.257 120.149C181.369 120.635 181.108 121.046 180.81 121.681C180.512 122.316 180.773 122.391 180.289 122.577C179.895 122.653 179.491 122.653 179.098 122.577C178.565 122.615 178.03 122.615 177.497 122.577C176.975 122.428 177.348 122.054 177.794 121.532C177.998 121.319 178.173 121.08 178.316 120.822H177.497C177.497 120.822 177.348 120.71 177.943 120.149C178.539 119.589 181.257 120.149 181.257 120.149Z" fill="#FFC399"/>
<path d="M140.601 85.5234V124.931H207.132V85.5234H140.601ZM204.526 122.429H143.207V88.0261H204.526V122.429Z" fill="white"/>
<g style="mix-blend-mode:multiply" opacity="0.21">
<path d="M194.101 97.3262H186.432V98.9137H194.101V97.3262Z" fill="#A6C7BA"/>
</g>
<g style="mix-blend-mode:multiply" opacity="0.21">
<path d="M194.101 100.727H186.432V102.314H194.101V100.727Z" fill="#A6C7BA"/>
</g>
<g style="mix-blend-mode:multiply" opacity="0.21">
<path d="M194.101 104.125H186.432V105.713H194.101V104.125Z" fill="#A6C7BA"/>
</g>
<path d="M147.898 28.7849H152.813C153.612 28.7502 154.409 28.8772 155.158 29.1584C155.739 29.4031 156.242 29.8038 156.61 30.3164C157.019 30.8183 157.312 31.4053 157.467 32.0346C157.65 32.7037 157.737 33.3954 157.727 34.0891C157.774 34.9889 157.648 35.8893 157.355 36.7412C157.106 37.3439 156.739 37.8902 156.275 38.3474C155.846 38.7371 155.338 39.03 154.786 39.2065C154.143 39.3864 153.48 39.4868 152.813 39.5053H147.898V28.7849ZM151.212 31.2129V37.04H151.994C152.501 37.0734 153.008 36.997 153.483 36.8159C153.797 36.6482 154.036 36.3681 154.153 36.0315C154.365 35.4329 154.453 34.7976 154.414 34.1638C154.414 33.0058 154.228 32.2588 153.855 31.8105C153.483 31.3623 152.887 31.2129 152.031 31.2129H151.212Z" fill="white"/>
<path d="M159.514 39.5053V28.7849H165.024C165.803 28.7497 166.582 28.8379 167.333 29.0463C167.876 29.1877 168.344 29.5361 168.636 30.0175C168.99 30.5186 169.173 31.1215 169.157 31.7358C169.162 32.2694 169.034 32.7957 168.785 33.2673C168.517 33.6976 168.162 34.0667 167.742 34.3505C167.365 34.539 166.964 34.6771 166.551 34.7614C166.864 34.8447 167.165 34.9704 167.444 35.135C167.633 35.3206 167.807 35.5204 167.966 35.7326C168.138 35.9265 168.288 36.1395 168.412 36.3676L170.013 39.5053H166.29L164.503 36.2182C164.379 35.897 164.174 35.6137 163.908 35.3964C163.688 35.2157 163.41 35.1226 163.126 35.135H162.828V39.5053H159.514ZM162.828 33.1179H164.205C164.508 33.1008 164.807 33.0507 165.099 32.9685C165.31 32.9292 165.497 32.8085 165.62 32.6323C165.771 32.4558 165.85 32.2294 165.844 31.9973C165.851 31.8495 165.825 31.7021 165.766 31.5661C165.708 31.4302 165.62 31.3094 165.508 31.2128C165.137 30.9963 164.707 30.9047 164.28 30.9514H162.828V33.1179Z" fill="white"/>
<path d="M171.205 28.7832H174.518V39.5037H171.205V28.7832Z" fill="white"/>
<path d="M175.821 28.7832H179.284L181.704 36.478L184.049 28.7832H187.4L183.453 39.5037H179.879L175.821 28.7832Z" fill="white"/>
<path d="M188.48 28.7832H197.34V31.0618H191.793V32.7427H196.931V34.9465H191.793V37.0757H197.489V39.5037H188.48V28.7832Z" fill="white"/>
<path d="M196.745 125.604L204.675 117.686C204.675 117.686 210.706 121.608 213.201 121.944C214.429 122.131 217.221 120.636 217.221 120.636L218.189 131.208H196.112L196.745 125.604Z" fill="#2C49C4"/>
<path d="M278.987 125.753C281.593 122.466 283.529 118.843 285.167 116.415C286.805 113.987 286.395 113.053 288.22 112.157C290.044 111.26 290.975 112.045 292.464 113.24C293.953 114.435 306.425 120.823 306.425 120.823L299.277 131.207L278.987 125.753Z" fill="#2C49C4"/>
<path d="M254.228 107.151C252.479 108.085 250.952 110.214 251.064 112.156C251.176 114.099 250.766 121.345 247.527 128.891C244.288 136.436 240.044 142.45 240.304 143.272C240.565 144.094 242.836 145.028 246.633 144.729C249.473 144.561 252.32 144.561 255.159 144.729C255.159 144.729 256.76 127.77 256.835 122.317C256.909 116.863 255.867 106.255 254.228 107.151Z" fill="#2C49C4"/>
<path d="M219.381 128.555C219.095 128.611 218.798 128.552 218.555 128.391C218.312 128.231 218.14 127.981 218.078 127.696L215.993 117.685C215.937 117.398 215.996 117.101 216.156 116.857C216.316 116.613 216.565 116.441 216.849 116.378C217.135 116.322 217.431 116.381 217.675 116.542C217.918 116.702 218.089 116.952 218.152 117.237L220.237 127.248C220.27 127.39 220.273 127.538 220.247 127.682C220.221 127.825 220.167 127.963 220.087 128.085C220.007 128.207 219.903 128.312 219.782 128.392C219.66 128.473 219.524 128.529 219.381 128.555Z" fill="#2C49C4"/>
<path d="M236.06 134.793L221.875 136.997C217.966 137.594 217.37 140.359 216.998 141.33C216.998 141.33 231.518 144.43 228.986 144.094C228.986 144.094 236.507 145.999 240.528 145.924C244.548 145.85 246.633 144.729 246.633 144.729L236.06 134.793Z" fill="#003D7D"/>
<path d="M247.564 112.156C248.197 113.154 248.769 114.189 249.277 115.257C249.537 115.817 249.463 115.892 250.096 116.153L243.543 119.814C243.543 119.814 244.511 117.759 244.548 116.676C244.586 115.593 244.102 113.352 243.506 112.418L247.564 112.156Z" fill="#FEC4AD"/>
<path d="M243.543 119.814L246.82 117.983C247.41 116.398 247.847 114.76 248.123 113.09C247.953 112.769 247.767 112.457 247.564 112.156L243.506 112.418C244.102 113.352 244.586 115.742 244.548 116.676C244.511 117.61 243.543 119.814 243.543 119.814Z" fill="#F0B9A3"/>
<path d="M240.751 111.075C240.676 111.336 240.043 112.494 240.118 112.718C240.192 112.942 241.011 112.905 241.235 113.167C241.458 113.428 241.309 113.914 241.495 114.399C241.682 114.885 241.644 115.819 242.017 116.155C242.389 116.491 244.362 116.267 245.181 115.819C246.246 115.33 247.117 114.499 247.657 113.457C248.197 112.414 248.374 111.221 248.16 110.066C247.894 109.054 247.353 108.135 246.596 107.414C245.777 106.592 244.325 106.518 243.431 106.742C242.885 106.94 242.399 107.274 242.017 107.713C241.682 108.086 241.16 108.572 241.011 109.095C241.002 109.763 240.915 110.427 240.751 111.075Z" fill="#FEC4AD"/>
<path d="M249.202 107.227C249.202 107.227 249.239 106.929 248.793 106.107C248.085 104.687 244.809 104.687 242.464 105.136C241.682 105.285 240.9 104.687 240.453 105.173C240.006 105.659 240.341 107.937 240.863 108.46C241.384 108.983 244.288 108.535 245.256 108.161C246.224 107.788 245.032 108.946 244.921 109.506C244.809 110.066 245.293 111.15 245.33 111.374C246.149 111.187 245.814 110.515 246.41 109.992C247.006 109.469 247.49 110.253 247.303 110.851C247.258 111.095 247.143 111.322 246.971 111.501C246.798 111.68 246.578 111.805 246.336 111.859C246.385 112.207 246.512 112.539 246.708 112.83C246.708 112.83 248.197 113.465 248.495 113.167C248.793 112.868 249.761 110.851 250.021 110.29C250.58 109.02 250.245 108.012 249.202 107.227Z" fill="#E598FC"/>
<path d="M249.5 115.07C249.5 115.07 251.25 115.332 251.436 118.059C251.734 122.093 250.766 127.658 250.282 131.207C249.128 139.761 246.633 144.729 246.633 144.729C246.633 144.729 239.187 143.534 237.065 133.71C237.065 133.71 238.145 132.963 239.56 129.601C241.458 125.156 242.575 122.242 243.357 118.432C243.543 117.536 244.176 117.573 245.256 117.199C246.757 116.679 248.184 115.964 249.5 115.07Z" fill="#EFEFEF"/>
<path d="M221.168 122.841L219.679 121.048L218.45 120.338L217.221 120.637L217.668 121.571L221.168 122.841Z" fill="white"/>
<path d="M222.88 122.953C222.88 122.953 221.093 122.542 220.535 122.318C219.976 122.094 218.673 121.869 218.189 121.533C217.815 121.296 217.487 120.993 217.221 120.637L216.886 121.309L216.998 121.683L216.886 122.691L217.184 123.849C217.074 124.069 217.047 124.321 217.11 124.559L218.189 125.231H220.758C221.535 125.289 222.306 125.401 223.067 125.567L222.88 122.953Z" fill="white"/>
<path d="M245.703 117.686C242.464 118.433 237.698 121.122 233.156 122.056C230.364 122.617 222.88 122.953 222.88 122.953L222.285 126.128C222.285 126.128 232.262 127.099 235.762 126.613C240.23 125.978 245.74 125.792 248.495 123.326C249.686 122.28 250.915 116.453 245.703 117.686Z" fill="white"/>
<path d="M220.87 122.766C221.391 122.243 220.051 121.16 220.051 121.16V121.795C219.767 122.022 219.454 122.211 219.12 122.355L220.87 122.766Z" fill="white"/>
<path d="M323.812 125.082C323.812 125.082 308.92 119.703 307.914 119.441C306.909 119.18 286.06 101.512 280.773 100.017C275.487 98.5233 231.592 99.4945 224.556 102.259C217.519 105.023 196.596 121.57 196.596 121.57C174.704 120.823 155.828 128.63 155.828 128.63L147.749 135.204L145.776 141.592C144.99 144.15 144.83 146.861 145.31 149.494C145.789 152.127 146.894 154.606 148.531 156.72L149.499 157.953H162.269C162.12 156.421 162.083 155.077 162.083 154.217C162.083 143.422 167.221 134.682 177.981 134.682C183.148 134.682 188.105 136.739 191.762 140.401C195.42 144.064 197.479 149.033 197.489 154.217C197.489 155.151 197.601 156.533 197.75 158.102L272.881 158.438H273.178C273.03 156.72 272.955 155.226 272.955 154.255C272.955 151.686 273.46 149.143 274.441 146.77C275.422 144.397 276.859 142.242 278.671 140.428C280.483 138.613 282.634 137.175 285.001 136.195C287.368 135.216 289.904 134.714 292.464 134.719C302.814 134.719 306.611 145.589 307.244 155.824L324.482 152.91L327.274 151.117L323.812 125.082ZM200.914 123.065L223.625 105.957C225.894 104.633 228.449 103.877 231.071 103.753L252.925 102.782L254.228 121.832L200.914 123.065ZM292.836 121.16L257.467 121.757L255.159 102.782L261.228 102.67C268.487 102.333 279.992 102.782 283.268 105.77L298.793 118.395L292.836 121.16Z" fill="#76C8B2"/>
<path d="M156.275 149.25L162.269 157.99H179.321L194.288 155.637L206.722 156.422L255.643 154.292L272.881 158.476L291.161 157.99L307.244 155.824L309.999 155.563L327.274 151.117L301.734 130.162L256.872 140.584L168.859 130.536L156.275 149.25Z" fill="#151716"/>
<path d="M304.814 166.714C312.857 164.247 317.383 155.706 314.924 147.637C312.466 139.569 303.953 135.027 295.91 137.494C287.868 139.961 283.342 148.502 285.801 156.571C288.259 164.64 296.772 169.181 304.814 166.714Z" fill="#151716"/>
<path d="M300.394 159.671C304.63 159.671 308.063 156.226 308.063 151.976C308.063 147.726 304.63 144.281 300.394 144.281C296.158 144.281 292.725 147.726 292.725 151.976C292.725 156.226 296.158 159.671 300.394 159.671Z" fill="#6E6E6E"/>
<path style="mix-blend-mode:multiply" d="M300.394 159.671C304.63 159.671 308.063 156.226 308.063 151.976C308.063 147.726 304.63 144.281 300.394 144.281C296.158 144.281 292.725 147.726 292.725 151.976C292.725 156.226 296.158 159.671 300.394 159.671Z" fill="url(#paint0_radial)"/>
<path style="mix-blend-mode:multiply" d="M300.394 144.281C298.877 144.281 297.394 144.733 296.133 145.578C294.872 146.424 293.889 147.625 293.308 149.031C292.728 150.437 292.576 151.985 292.872 153.477C293.168 154.97 293.898 156.341 294.971 157.417C296.043 158.493 297.41 159.226 298.898 159.523C300.385 159.82 301.928 159.668 303.329 159.085C304.73 158.503 305.928 157.516 306.771 156.251C307.614 154.986 308.063 153.498 308.063 151.976C308.054 149.938 307.242 147.987 305.806 146.546C304.37 145.105 302.425 144.291 300.394 144.281ZM300.394 158.027C299.191 158.035 298.012 157.683 297.009 157.017C296.005 156.351 295.221 155.4 294.757 154.286C294.294 153.172 294.17 151.945 294.403 150.76C294.636 149.576 295.215 148.487 296.066 147.634C296.917 146.78 298.001 146.199 299.182 145.965C300.363 145.732 301.586 145.855 302.696 146.321C303.807 146.786 304.754 147.572 305.418 148.579C306.082 149.586 306.433 150.769 306.425 151.976C306.425 153.581 305.79 155.12 304.659 156.255C303.528 157.39 301.994 158.027 300.394 158.027Z" fill="url(#paint1_radial)"/>
<path d="M300.766 154.291L301.548 153.955L304.638 162.061L304.303 162.173L300.766 154.291Z" fill="#4A4A4A"/>
<path d="M299.984 150.219L299.24 150.556L296.15 142.487L296.448 142.338L299.984 150.219Z" fill="#4A4A4A"/>
<path d="M302.404 151.863L302.107 151.079L310.148 148.016L310.26 148.314L302.404 151.863Z" fill="#4A4A4A"/>
<path d="M298.346 152.648L298.681 153.433L290.64 156.533L290.528 156.197L298.346 152.648Z" fill="#4A4A4A"/>
<path d="M302.107 153.433L302.404 152.648L310.26 156.16L310.148 156.496L302.107 153.433Z" fill="#4A4A4A"/>
<path d="M298.681 151.118L298.346 151.902L290.491 148.354L290.64 148.055L298.681 151.118Z" fill="#4A4A4A"/>
<path d="M301.548 150.556L300.766 150.219L304.266 142.338L304.601 142.487L301.548 150.556Z" fill="#4A4A4A"/>
<path d="M299.24 153.992L300.022 154.291L296.485 162.173L296.187 162.061L299.24 153.992Z" fill="#4A4A4A"/>
<path d="M301.511 153.994L302.107 153.396L308.026 159.672L307.766 159.933L301.511 153.994Z" fill="#4A4A4A"/>
<path d="M299.277 150.519L298.644 151.117L292.762 144.841L292.985 144.617L299.277 150.519Z" fill="#4A4A4A"/>
<path d="M302.107 151.117L301.511 150.519L307.766 144.617L308.026 144.841L302.107 151.117Z" fill="#4A4A4A"/>
<path d="M298.644 153.396L299.277 153.994L292.985 159.933L292.762 159.672L298.644 153.396Z" fill="#4A4A4A"/>
<path d="M302.404 152.685V151.826L311.005 152.088V152.424L302.404 152.685Z" fill="#4A4A4A"/>
<path d="M298.384 151.826V152.685L289.746 152.424V152.088L298.384 151.826Z" fill="#4A4A4A"/>
<path d="M300.803 150.258H299.984L300.208 141.592H300.543L300.803 150.258Z" fill="#4A4A4A"/>
<path d="M299.984 154.291H300.803L300.543 162.92H300.208L299.984 154.291Z" fill="#4A4A4A"/>
<path d="M300.394 155.488C300.357 155.493 300.319 155.49 300.283 155.479C300.247 155.469 300.213 155.45 300.185 155.425C300.157 155.401 300.134 155.37 300.119 155.336C300.103 155.301 300.096 155.264 300.096 155.226C300.09 155.185 300.093 155.144 300.106 155.105C300.118 155.065 300.14 155.03 300.169 155.001C300.198 154.971 300.234 154.95 300.273 154.937C300.312 154.924 300.353 154.921 300.394 154.927C300.431 154.927 300.469 154.935 300.503 154.95C300.537 154.965 300.568 154.988 300.593 155.016C300.617 155.045 300.636 155.078 300.646 155.114C300.657 155.151 300.66 155.189 300.655 155.226C300.655 155.295 300.627 155.362 300.578 155.411C300.529 155.46 300.463 155.488 300.394 155.488ZM301.995 155.077C301.943 155.071 301.894 155.055 301.849 155.029C301.804 155.004 301.765 154.969 301.734 154.927C301.714 154.893 301.701 154.855 301.696 154.816C301.691 154.776 301.694 154.737 301.704 154.698C301.715 154.66 301.733 154.624 301.757 154.593C301.781 154.562 301.811 154.536 301.846 154.516C301.88 154.496 301.918 154.483 301.957 154.478C301.996 154.473 302.036 154.476 302.074 154.486C302.112 154.497 302.148 154.515 302.179 154.539C302.21 154.563 302.236 154.594 302.255 154.628C302.275 154.663 302.288 154.701 302.293 154.74C302.298 154.779 302.296 154.819 302.285 154.857C302.275 154.896 302.257 154.931 302.233 154.963C302.208 154.994 302.178 155.02 302.144 155.039L301.995 155.077ZM298.756 155.077H298.607C298.543 155.031 298.5 154.963 298.486 154.886C298.472 154.81 298.489 154.73 298.532 154.666C298.548 154.632 298.57 154.603 298.598 154.579C298.626 154.555 298.658 154.537 298.694 154.526C298.729 154.516 298.766 154.513 298.802 154.517C298.838 154.522 298.873 154.534 298.905 154.554C298.939 154.573 298.969 154.599 298.994 154.63C299.018 154.662 299.036 154.697 299.046 154.736C299.057 154.774 299.059 154.814 299.054 154.853C299.049 154.892 299.036 154.93 299.016 154.965C298.986 155.003 298.946 155.034 298.9 155.054C298.855 155.073 298.805 155.081 298.756 155.077ZM303.186 153.881H303.037C303.004 153.866 302.974 153.843 302.95 153.815C302.926 153.788 302.909 153.755 302.898 153.72C302.888 153.684 302.885 153.647 302.889 153.611C302.894 153.574 302.906 153.539 302.926 153.508C302.94 153.469 302.963 153.434 302.994 153.405C303.025 153.377 303.061 153.357 303.102 153.346C303.142 153.335 303.184 153.334 303.224 153.342C303.265 153.351 303.303 153.369 303.335 153.396C303.365 153.415 303.391 153.439 303.411 153.469C303.432 153.498 303.446 153.531 303.453 153.566C303.46 153.601 303.459 153.637 303.452 153.672C303.445 153.707 303.43 153.74 303.41 153.769C303.388 153.808 303.355 153.84 303.315 153.86C303.275 153.879 303.23 153.887 303.186 153.881ZM297.602 153.881C297.548 153.886 297.494 153.875 297.448 153.848C297.401 153.821 297.364 153.781 297.341 153.732C297.321 153.698 297.308 153.66 297.303 153.62C297.298 153.581 297.301 153.541 297.311 153.503C297.322 153.465 297.339 153.429 297.364 153.398C297.388 153.366 297.418 153.34 297.453 153.321C297.518 153.292 297.591 153.287 297.66 153.308C297.728 153.328 297.787 153.373 297.825 153.433C297.845 153.467 297.858 153.505 297.863 153.545C297.868 153.584 297.865 153.624 297.855 153.662C297.845 153.7 297.827 153.736 297.802 153.767C297.778 153.798 297.748 153.825 297.713 153.844L297.602 153.881ZM303.596 152.275C303.523 152.266 303.457 152.23 303.409 152.175C303.361 152.12 303.334 152.049 303.335 151.976C303.334 151.903 303.361 151.832 303.409 151.777C303.457 151.722 303.523 151.687 303.596 151.677C303.675 151.677 303.75 151.709 303.806 151.765C303.862 151.821 303.894 151.897 303.894 151.976C303.894 152.056 303.862 152.132 303.806 152.188C303.75 152.244 303.675 152.275 303.596 152.275ZM297.155 152.275C297.079 152.267 297.007 152.233 296.953 152.179C296.899 152.124 296.865 152.053 296.857 151.976C296.857 151.897 296.888 151.821 296.944 151.765C297 151.709 297.076 151.677 297.155 151.677C297.234 151.677 297.31 151.709 297.365 151.765C297.421 151.821 297.453 151.897 297.453 151.976C297.445 152.053 297.411 152.124 297.356 152.179C297.302 152.233 297.231 152.267 297.155 152.275ZM303.186 150.632C303.137 150.633 303.088 150.624 303.043 150.605C302.998 150.585 302.958 150.556 302.926 150.52C302.906 150.488 302.894 150.453 302.889 150.417C302.885 150.38 302.888 150.343 302.898 150.308C302.909 150.272 302.926 150.24 302.95 150.212C302.974 150.184 303.004 150.162 303.037 150.146C303.071 150.126 303.109 150.113 303.148 150.108C303.187 150.103 303.227 150.106 303.265 150.116C303.304 150.126 303.339 150.144 303.37 150.169C303.401 150.193 303.427 150.223 303.447 150.258C303.476 150.323 303.481 150.397 303.46 150.466C303.44 150.534 303.395 150.593 303.335 150.632H303.186ZM297.602 150.632H297.453C297.418 150.612 297.388 150.586 297.364 150.555C297.339 150.524 297.322 150.488 297.311 150.45C297.301 150.411 297.298 150.371 297.303 150.332C297.308 150.293 297.321 150.255 297.341 150.221C297.386 150.157 297.454 150.114 297.531 150.1C297.607 150.086 297.686 150.102 297.751 150.146C297.781 150.165 297.807 150.19 297.827 150.219C297.847 150.248 297.861 150.282 297.868 150.317C297.875 150.352 297.875 150.388 297.868 150.423C297.86 150.457 297.846 150.49 297.825 150.52C297.803 150.558 297.77 150.59 297.73 150.61C297.691 150.63 297.646 150.637 297.602 150.632ZM301.995 149.474H301.846C301.782 149.428 301.739 149.36 301.725 149.283C301.711 149.207 301.728 149.127 301.771 149.063C301.787 149.029 301.809 149 301.837 148.976C301.865 148.952 301.897 148.934 301.933 148.923C301.968 148.913 302.005 148.91 302.041 148.914C302.077 148.919 302.112 148.931 302.144 148.951C302.178 148.97 302.208 148.996 302.233 149.027C302.257 149.059 302.275 149.094 302.285 149.133C302.296 149.171 302.298 149.211 302.293 149.25C302.288 149.289 302.275 149.327 302.255 149.362C302.225 149.401 302.185 149.431 302.139 149.451C302.094 149.47 302.044 149.478 301.995 149.474ZM298.793 149.436C298.74 149.441 298.686 149.43 298.639 149.403C298.592 149.376 298.555 149.336 298.532 149.287C298.513 149.255 298.501 149.22 298.496 149.184C298.491 149.147 298.494 149.11 298.505 149.075C298.515 149.04 298.533 149.007 298.557 148.979C298.581 148.951 298.611 148.929 298.644 148.913C298.675 148.894 298.71 148.882 298.747 148.877C298.783 148.872 298.82 148.875 298.855 148.886C298.89 148.896 298.923 148.914 298.951 148.938C298.978 148.962 299.001 148.992 299.016 149.025C299.036 149.057 299.048 149.092 299.053 149.128C299.057 149.165 299.054 149.202 299.044 149.237C299.033 149.272 299.015 149.305 298.991 149.333C298.967 149.361 298.938 149.383 298.905 149.399L298.793 149.436ZM300.394 149.025C300.318 149.017 300.247 148.983 300.192 148.929C300.138 148.874 300.104 148.803 300.096 148.727C300.104 148.65 300.138 148.579 300.192 148.524C300.247 148.47 300.318 148.436 300.394 148.428C300.473 148.428 300.549 148.459 300.604 148.515C300.66 148.571 300.692 148.647 300.692 148.727C300.692 148.806 300.66 148.882 300.604 148.938C300.549 148.994 300.473 149.025 300.394 149.025Z" fill="#4A4A4A"/>
<path d="M294.996 151.977C294.988 153.049 295.299 154.1 295.887 154.996C296.476 155.892 297.316 156.592 298.302 157.007C299.288 157.423 300.375 157.536 301.424 157.331C302.474 157.126 303.439 156.613 304.198 155.857C304.957 155.101 305.474 154.136 305.686 153.085C305.897 152.033 305.792 150.942 305.385 149.95C304.977 148.958 304.286 148.11 303.397 147.513C302.508 146.916 301.463 146.598 300.394 146.598C299.687 146.593 298.986 146.728 298.331 146.996C297.676 147.265 297.081 147.66 296.579 148.16C296.077 148.66 295.679 149.255 295.407 149.91C295.135 150.565 294.996 151.267 294.996 151.977Z" fill="#151716"/>
<path d="M303.427 155.006C305.099 153.329 305.099 150.609 303.427 148.931C301.755 147.254 299.044 147.254 297.372 148.931C295.7 150.609 295.7 153.329 297.372 155.006C299.044 156.684 301.755 156.684 303.427 155.006Z" fill="#4A4A4A"/>
<path d="M303.832 152.685C304.305 150.677 303.066 148.665 301.065 148.191C299.064 147.716 297.059 148.959 296.586 150.966C296.113 152.974 297.351 154.986 299.352 155.461C301.354 155.935 303.359 154.693 303.832 152.685Z" fill="#4A4A4A"/>
<path d="M299.165 151.977C299.165 152.304 299.295 152.617 299.525 152.848C299.756 153.08 300.068 153.209 300.394 153.209C300.72 153.209 301.032 153.08 301.263 152.848C301.493 152.617 301.623 152.304 301.623 151.977C301.623 151.65 301.493 151.336 301.263 151.105C301.032 150.874 300.72 150.744 300.394 150.744C300.068 150.744 299.756 150.874 299.525 151.105C299.295 151.336 299.165 151.65 299.165 151.977Z" fill="#4A4A4A"/>
<path d="M300.394 140.658C298.163 140.658 295.982 141.322 294.127 142.566C292.272 143.809 290.826 145.577 289.972 147.645C289.118 149.713 288.895 151.989 289.33 154.184C289.765 156.38 290.84 158.397 292.417 159.979C293.995 161.562 296.005 162.64 298.193 163.077C300.381 163.514 302.65 163.29 304.711 162.433C306.772 161.576 308.534 160.126 309.774 158.264C311.013 156.403 311.675 154.215 311.675 151.976C311.675 148.975 310.486 146.096 308.371 143.973C306.255 141.851 303.386 140.658 300.394 140.658ZM300.394 162.323C298.344 162.331 296.338 161.727 294.63 160.589C292.922 159.451 291.59 157.829 290.802 155.93C290.014 154.031 289.806 151.94 290.204 149.922C290.602 147.904 291.588 146.051 293.038 144.596C294.488 143.142 296.336 142.152 298.347 141.752C300.358 141.353 302.442 141.562 304.335 142.352C306.227 143.143 307.844 144.48 308.978 146.193C310.112 147.907 310.714 149.919 310.707 151.976C310.707 154.721 309.62 157.352 307.686 159.293C305.752 161.233 303.129 162.323 300.394 162.323Z" fill="#4A4A4A"/>
<path d="M183.391 166.923C191.69 165.559 197.316 157.704 195.957 149.377C194.598 141.051 186.769 135.406 178.469 136.769C170.17 138.133 164.544 145.988 165.903 154.315C167.262 162.642 175.092 168.286 183.391 166.923Z" fill="#151716"/>
<path d="M180.885 159.671C185.12 159.671 188.554 156.226 188.554 151.976C188.554 147.726 185.12 144.281 180.885 144.281C176.649 144.281 173.215 147.726 173.215 151.976C173.215 156.226 176.649 159.671 180.885 159.671Z" fill="#6E6E6E"/>
<path style="mix-blend-mode:multiply" d="M180.885 159.671C185.12 159.671 188.554 156.226 188.554 151.976C188.554 147.726 185.12 144.281 180.885 144.281C176.649 144.281 173.215 147.726 173.215 151.976C173.215 156.226 176.649 159.671 180.885 159.671Z" fill="url(#paint2_radial)"/>
<path style="mix-blend-mode:multiply" d="M180.885 144.281C179.369 144.289 177.89 144.746 176.634 145.596C175.378 146.446 174.4 147.651 173.825 149.057C173.251 150.464 173.104 152.01 173.404 153.5C173.704 154.99 174.438 156.358 175.512 157.43C176.586 158.503 177.952 159.232 179.439 159.526C180.926 159.82 182.466 159.665 183.865 159.082C185.265 158.498 186.46 157.512 187.301 156.247C188.142 154.983 188.591 153.496 188.591 151.976C188.591 150.963 188.392 149.959 188.004 149.023C187.616 148.087 187.048 147.237 186.332 146.522C185.616 145.807 184.766 145.241 183.831 144.856C182.896 144.472 181.895 144.276 180.885 144.281ZM180.885 158.027C179.362 157.907 177.94 157.216 176.904 156.091C175.867 154.966 175.291 153.49 175.291 151.957C175.291 150.425 175.867 148.949 176.904 147.824C177.94 146.699 179.362 146.007 180.885 145.888C181.719 145.822 182.558 145.93 183.349 146.205C184.139 146.48 184.865 146.917 185.479 147.487C186.094 148.057 186.584 148.748 186.92 149.518C187.255 150.287 187.428 151.118 187.428 151.957C187.428 152.797 187.255 153.628 186.92 154.397C186.584 155.167 186.094 155.858 185.479 156.428C184.865 156.998 184.139 157.435 183.349 157.71C182.558 157.985 181.719 158.093 180.885 158.027Z" fill="url(#paint3_radial)"/>
<path d="M181.294 154.291L182.076 153.955L185.129 162.061L184.831 162.173L181.294 154.291Z" fill="#4A4A4A"/>
<path d="M180.512 150.219L179.73 150.556L176.678 142.487L176.975 142.338L180.512 150.219Z" fill="#4A4A4A"/>
<path d="M182.932 151.863L182.597 151.079L190.639 148.016L190.788 148.314L182.932 151.863Z" fill="#4A4A4A"/>
<path d="M178.874 152.648L179.209 153.433L171.167 156.533L171.018 156.197L178.874 152.648Z" fill="#4A4A4A"/>
<path d="M182.597 153.433L182.932 152.648L190.788 156.16L190.676 156.496L182.597 153.433Z" fill="#4A4A4A"/>
<path d="M179.209 151.118L178.874 151.902L171.018 148.354L171.13 148.055L179.209 151.118Z" fill="#4A4A4A"/>
<path d="M182.076 150.556L181.294 150.219L184.794 142.338L185.092 142.487L182.076 150.556Z" fill="#4A4A4A"/>
<path d="M179.73 153.992L180.512 154.291L177.013 162.173L176.678 162.061L179.73 153.992Z" fill="#4A4A4A"/>
<path d="M182.039 153.994L182.634 153.396L188.517 159.672L188.293 159.933L182.039 153.994Z" fill="#4A4A4A"/>
<path d="M179.768 150.519L179.172 151.117L173.252 144.841L173.513 144.617L179.768 150.519Z" fill="#4A4A4A"/>
<path d="M182.634 151.117L182.039 150.519L188.293 144.617L188.517 144.841L182.634 151.117Z" fill="#4A4A4A"/>
<path d="M179.172 153.396L179.768 153.994L173.513 159.933L173.252 159.672L179.172 153.396Z" fill="#4A4A4A"/>
<path d="M182.932 152.685V151.826L191.532 152.088V152.424L182.932 152.685Z" fill="#4A4A4A"/>
<path d="M178.874 151.826V152.685L170.274 152.424V152.088L178.874 151.826Z" fill="#4A4A4A"/>
<path d="M181.331 150.258H180.475L180.736 141.592H181.071L181.331 150.258Z" fill="#4A4A4A"/>
<path d="M180.475 154.291H181.331L181.071 162.92H180.736L180.475 154.291Z" fill="#4A4A4A"/>
<path d="M180.885 155.488C180.812 155.488 180.741 155.462 180.686 155.414C180.631 155.365 180.596 155.299 180.587 155.226C180.587 155.187 180.594 155.148 180.609 155.112C180.624 155.075 180.646 155.042 180.674 155.015C180.702 154.987 180.734 154.965 180.771 154.95C180.807 154.935 180.845 154.927 180.885 154.927C180.924 154.927 180.962 154.935 180.999 154.95C181.035 154.965 181.068 154.987 181.095 155.015C181.123 155.042 181.145 155.075 181.16 155.112C181.175 155.148 181.182 155.187 181.182 155.226C181.173 155.299 181.138 155.365 181.083 155.414C181.028 155.462 180.958 155.488 180.885 155.488ZM182.523 155.077C182.47 155.077 182.418 155.064 182.372 155.037C182.326 155.011 182.288 154.973 182.262 154.927C182.242 154.893 182.229 154.855 182.224 154.816C182.219 154.776 182.222 154.737 182.232 154.698C182.243 154.66 182.26 154.624 182.285 154.593C182.309 154.562 182.339 154.536 182.374 154.516C182.405 154.497 182.44 154.485 182.476 154.48C182.513 154.475 182.55 154.478 182.585 154.489C182.62 154.499 182.653 154.517 182.68 154.541C182.708 154.565 182.731 154.595 182.746 154.628C182.766 154.663 182.779 154.701 182.784 154.74C182.789 154.779 182.786 154.819 182.776 154.857C182.766 154.896 182.748 154.931 182.723 154.963C182.699 154.994 182.669 155.02 182.634 155.039L182.523 155.077ZM179.284 155.077H179.135C179.1 155.057 179.07 155.031 179.046 155C179.021 154.969 179.004 154.933 178.993 154.895C178.983 154.856 178.98 154.816 178.985 154.777C178.99 154.738 179.003 154.7 179.023 154.666C179.042 154.631 179.068 154.601 179.1 154.576C179.131 154.552 179.166 154.534 179.204 154.524C179.243 154.513 179.282 154.511 179.321 154.516C179.361 154.521 179.398 154.534 179.433 154.554C179.496 154.599 179.539 154.667 179.553 154.744C179.567 154.821 179.551 154.9 179.507 154.965C179.48 154.998 179.446 155.026 179.408 155.045C179.369 155.065 179.327 155.075 179.284 155.077ZM183.677 153.881H183.528C183.498 153.862 183.472 153.838 183.451 153.808C183.431 153.779 183.417 153.746 183.41 153.711C183.403 153.676 183.403 153.64 183.411 153.605C183.418 153.57 183.433 153.537 183.453 153.508C183.528 153.358 183.714 153.284 183.826 153.396C183.859 153.411 183.889 153.434 183.913 153.462C183.937 153.49 183.954 153.522 183.965 153.557C183.975 153.593 183.978 153.63 183.974 153.666C183.969 153.703 183.957 153.738 183.937 153.769C183.909 153.811 183.87 153.844 183.824 153.864C183.777 153.884 183.726 153.89 183.677 153.881ZM178.092 153.881C178.04 153.882 177.988 153.868 177.942 153.842C177.896 153.816 177.858 153.778 177.832 153.732C177.8 153.661 177.794 153.581 177.814 153.506C177.835 153.432 177.88 153.366 177.943 153.321C178.014 153.289 178.093 153.283 178.168 153.304C178.243 153.324 178.308 153.37 178.353 153.433C178.373 153.467 178.386 153.505 178.391 153.545C178.396 153.584 178.393 153.624 178.383 153.662C178.372 153.7 178.355 153.736 178.33 153.767C178.306 153.799 178.276 153.825 178.241 153.844L178.092 153.881ZM184.124 152.275C184.047 152.267 183.976 152.233 183.922 152.179C183.868 152.124 183.834 152.053 183.826 151.976C183.834 151.9 183.868 151.828 183.922 151.774C183.976 151.72 184.047 151.686 184.124 151.677C184.203 151.677 184.278 151.709 184.334 151.765C184.39 151.821 184.421 151.897 184.421 151.976C184.421 152.056 184.39 152.132 184.334 152.188C184.278 152.244 184.203 152.275 184.124 152.275ZM177.683 152.275C177.604 152.275 177.528 152.244 177.472 152.188C177.416 152.132 177.385 152.056 177.385 151.976C177.379 151.936 177.382 151.894 177.395 151.855C177.407 151.816 177.429 151.78 177.458 151.751C177.487 151.722 177.523 151.7 177.562 151.687C177.601 151.674 177.642 151.671 177.683 151.677C177.72 151.677 177.758 151.685 177.792 151.7C177.826 151.716 177.857 151.738 177.882 151.767C177.906 151.795 177.925 151.829 177.935 151.865C177.946 151.901 177.949 151.939 177.943 151.976C177.944 152.049 177.918 152.12 177.87 152.175C177.822 152.231 177.755 152.266 177.683 152.275ZM183.714 150.632C183.665 150.636 183.615 150.628 183.57 150.609C183.524 150.589 183.484 150.558 183.453 150.52C183.434 150.488 183.422 150.453 183.417 150.417C183.412 150.38 183.415 150.343 183.426 150.308C183.437 150.272 183.454 150.24 183.478 150.212C183.502 150.184 183.532 150.162 183.565 150.146C183.596 150.127 183.631 150.114 183.668 150.11C183.704 150.105 183.741 150.108 183.776 150.118C183.811 150.129 183.844 150.147 183.872 150.171C183.9 150.195 183.922 150.225 183.937 150.258C183.957 150.289 183.969 150.325 183.974 150.361C183.978 150.398 183.975 150.435 183.965 150.47C183.954 150.505 183.937 150.538 183.913 150.566C183.889 150.594 183.859 150.616 183.826 150.632H183.714ZM178.092 150.632H177.943C177.88 150.586 177.837 150.518 177.823 150.441C177.809 150.365 177.825 150.285 177.869 150.221C177.888 150.19 177.912 150.164 177.942 150.144C177.971 150.124 178.004 150.11 178.039 150.103C178.074 150.096 178.11 150.096 178.145 150.103C178.179 150.111 178.212 150.125 178.241 150.146C178.274 150.162 178.304 150.184 178.328 150.212C178.352 150.24 178.37 150.272 178.38 150.308C178.391 150.343 178.394 150.38 178.389 150.417C178.384 150.453 178.372 150.488 178.353 150.52C178.322 150.558 178.282 150.589 178.237 150.609C178.191 150.628 178.142 150.636 178.092 150.632ZM182.523 149.474H182.374C182.339 149.454 182.309 149.428 182.285 149.397C182.26 149.366 182.243 149.33 182.232 149.292C182.222 149.253 182.219 149.213 182.224 149.174C182.229 149.135 182.242 149.097 182.262 149.063C182.281 149.028 182.307 148.998 182.339 148.973C182.37 148.949 182.405 148.931 182.443 148.921C182.482 148.91 182.521 148.908 182.561 148.913C182.6 148.918 182.637 148.931 182.672 148.951C182.735 148.996 182.778 149.064 182.792 149.141C182.806 149.218 182.79 149.297 182.746 149.362C182.719 149.395 182.685 149.423 182.647 149.442C182.608 149.462 182.566 149.472 182.523 149.474ZM179.284 149.436C179.231 149.437 179.179 149.423 179.133 149.397C179.087 149.371 179.049 149.333 179.023 149.287C178.994 149.221 178.989 149.148 179.01 149.079C179.03 149.011 179.075 148.952 179.135 148.913C179.169 148.893 179.207 148.88 179.246 148.875C179.285 148.87 179.325 148.873 179.363 148.883C179.401 148.894 179.437 148.912 179.468 148.936C179.499 148.96 179.525 148.991 179.544 149.025C179.563 149.057 179.576 149.092 179.581 149.128C179.585 149.165 179.582 149.202 179.572 149.237C179.561 149.272 179.543 149.305 179.519 149.333C179.495 149.361 179.466 149.383 179.433 149.399L179.284 149.436ZM180.885 149.025C180.812 149.016 180.746 148.981 180.698 148.926C180.65 148.871 180.623 148.8 180.624 148.727C180.624 148.687 180.632 148.648 180.647 148.612C180.662 148.576 180.684 148.543 180.711 148.515C180.739 148.488 180.772 148.465 180.808 148.45C180.844 148.435 180.883 148.428 180.922 148.428C180.994 148.437 181.061 148.472 181.109 148.527C181.157 148.583 181.183 148.653 181.182 148.727C181.182 148.766 181.175 148.805 181.16 148.841C181.145 148.877 181.123 148.91 181.095 148.938C181.068 148.966 181.035 148.988 180.999 149.003C180.962 149.018 180.924 149.025 180.885 149.025Z" fill="#4A4A4A"/>
<path d="M175.523 151.977C175.516 153.051 175.827 154.103 176.418 155C177.008 155.896 177.851 156.596 178.839 157.011C179.827 157.425 180.915 157.536 181.966 157.328C183.016 157.12 183.982 156.604 184.739 155.844C185.496 155.084 186.011 154.116 186.218 153.061C186.425 152.007 186.315 150.915 185.902 149.924C185.489 148.933 184.791 148.087 183.898 147.495C183.004 146.903 181.955 146.59 180.885 146.598C179.463 146.598 178.099 147.164 177.094 148.173C176.088 149.182 175.523 150.55 175.523 151.977Z" fill="#151716"/>
<path d="M181.807 156.371C184.108 155.825 185.532 153.511 184.989 151.202C184.445 148.893 182.138 147.464 179.837 148.01C177.536 148.556 176.111 150.87 176.655 153.178C177.199 155.487 179.506 156.917 181.807 156.371Z" fill="#4A4A4A"/>
<path d="M184.91 154.696C185.712 152.798 184.828 150.607 182.937 149.802C181.045 148.998 178.861 149.884 178.06 151.782C177.258 153.68 178.141 155.871 180.033 156.676C181.924 157.48 184.108 156.594 184.91 154.696Z" fill="#4A4A4A"/>
<path d="M179.656 151.977C179.656 152.304 179.785 152.617 180.016 152.848C180.246 153.08 180.559 153.209 180.885 153.209C181.21 153.209 181.523 153.08 181.753 152.848C181.984 152.617 182.113 152.304 182.113 151.977C182.113 151.65 181.984 151.336 181.753 151.105C181.523 150.874 181.21 150.744 180.885 150.744C180.559 150.744 180.246 150.874 180.016 151.105C179.785 151.336 179.656 151.65 179.656 151.977Z" fill="#4A4A4A"/>
<path d="M180.885 140.658C178.653 140.658 176.472 141.322 174.617 142.566C172.762 143.809 171.316 145.577 170.462 147.645C169.609 149.713 169.385 151.989 169.821 154.184C170.256 156.38 171.33 158.397 172.908 159.979C174.485 161.562 176.496 162.64 178.684 163.077C180.872 163.514 183.14 163.29 185.202 162.433C187.263 161.576 189.025 160.126 190.264 158.264C191.504 156.403 192.165 154.215 192.165 151.976C192.165 148.975 190.977 146.096 188.861 143.973C186.746 141.851 183.876 140.658 180.885 140.658ZM180.885 162.323C178.836 162.323 176.833 161.713 175.131 160.571C173.428 159.428 172.101 157.804 171.319 155.904C170.537 154.005 170.334 151.915 170.736 149.899C171.139 147.884 172.128 146.034 173.579 144.583C175.03 143.132 176.878 142.146 178.888 141.75C180.898 141.353 182.981 141.564 184.871 142.356C186.762 143.148 188.376 144.484 189.508 146.197C190.641 147.91 191.242 149.921 191.235 151.976C191.235 153.338 190.967 154.687 190.446 155.945C189.925 157.202 189.163 158.345 188.201 159.306C187.239 160.267 186.098 161.029 184.843 161.546C183.587 162.064 182.242 162.328 180.885 162.323Z" fill="#4A4A4A"/>
<path d="M312.27 134.756C312.27 134.756 314.467 137.445 319.828 138.79C323.104 139.612 327.572 139.686 330.551 139.574V136.586C329.136 136.586 326.306 136.511 322.844 136.25C319.293 135.962 315.762 135.463 312.27 134.756Z" fill="url(#paint4_linear)"/>
<path d="M254.638 122.018L254.601 121.42L204.898 123.138L204.749 123.213L254.638 122.018Z" fill="url(#paint5_linear)"/>
<path d="M325.115 120.45L307.915 119.441L295.629 119.852L262.382 121.16L254.601 121.421L204.898 123.139L198.457 123.326L196.559 121.571C174.667 120.823 155.829 128.63 155.829 128.63L147.75 135.205L144.213 146.597C143.899 147.609 143.837 148.683 144.032 149.725C144.226 150.767 144.672 151.745 145.33 152.574L149.499 157.953H162.269C162.121 156.421 162.083 155.077 162.083 154.218C162.083 143.422 168.003 134.682 178.762 134.682C189.522 134.682 197.489 143.422 197.489 154.218C197.489 155.151 197.601 156.533 197.75 158.102L272.881 158.438H282.375C282.226 156.72 282.151 155.226 282.151 154.255C282.151 143.46 288.48 133.823 299.24 133.823C309.999 133.823 316.068 141.928 316.068 155.562L325.041 153.919C326.091 153.725 327.07 153.252 327.876 152.549C328.681 151.846 329.284 150.939 329.62 149.922L330.551 147.083V132.814L325.115 120.45Z" fill="#76C8B2"/>
<g style="mix-blend-mode:multiply" opacity="0.56">
<g style="mix-blend-mode:multiply" opacity="0.56">
<path d="M148.233 156.309L149.499 157.952H162.269C162.195 157.392 162.083 154.74 162.083 154.217C157.429 154.478 150.728 155.711 148.233 156.309Z" fill="#A3B4C8"/>
</g>
<g style="mix-blend-mode:multiply" opacity="0.56">
<path d="M329.433 144.355L315.249 147.792C315.804 150.344 316.079 152.949 316.068 155.561L325.04 153.918C326.091 153.724 327.07 153.252 327.875 152.548C328.681 151.845 329.283 150.938 329.62 149.921L330.55 147.082V144.094L329.433 144.355Z" fill="#A3B4C8"/>
</g>
<g style="mix-blend-mode:multiply" opacity="0.56">
<path d="M197.452 153.993C197.452 154.105 197.489 154.18 197.489 154.254C197.489 155.188 197.601 156.57 197.75 158.139L272.881 158.475H282.374C282.3 157.28 282.077 152.686 282.077 152.686C282.077 152.686 197.489 154.254 197.452 153.993Z" fill="#A3B4C8"/>
</g>
</g>
<path d="M292.836 121.159L295.628 119.852L262.382 121.159L262.419 121.757L292.836 121.159Z" fill="url(#paint6_linear)"/>
<path d="M320.35 123.475L321.169 124.782L326.641 127.248L328.466 131.879L330.551 132.813L328.912 124.11L325.115 120.449L320.35 123.475Z" fill="#FF031E"/>
<path d="M320.35 123.475L321.169 124.782L326.641 127.247L328.466 131.879L330.551 132.813L329.322 126.313L320.35 123.475Z" fill="#DB031A"/>
<path opacity="0.32" d="M200.914 123.065V134.196L212.084 155.936L252.516 156.123L256.872 121.832" stroke="white" stroke-width="0.85" stroke-miterlimit="10"/>
<path d="M204.563 121.682L202.59 125.119C202.59 125.119 202.59 126.501 206.127 125.193C207.095 124.82 206.648 121.607 206.648 121.607L204.563 121.682Z" fill="#232426"/>
<path d="M204.935 121.981L203.297 125.156C203.297 125.156 203.297 126.464 206.238 125.231C207.02 124.895 206.648 121.869 206.648 121.869L204.935 121.981Z" fill="url(#paint7_radial)"/>
<path d="M203.856 120.636C203.671 120.891 203.592 121.208 203.634 121.521C203.675 121.833 203.835 122.118 204.079 122.316C204.702 122.906 205.455 123.341 206.276 123.586C207.393 123.885 211.525 123.437 211.525 123.437C211.525 123.437 211.935 119.59 211.227 118.469C210.52 117.348 209.478 117.012 208.807 117.199C206.801 117.715 205.044 118.934 203.856 120.636Z" fill="#232426"/>
<path d="M204.6 120.6C204.454 120.819 204.392 121.083 204.426 121.345C204.461 121.606 204.589 121.846 204.786 122.019C205.292 122.485 205.887 122.841 206.536 123.065C207.43 123.289 210.743 122.953 210.743 122.953C210.743 122.953 211.078 119.741 210.52 118.807C209.961 117.873 209.105 117.611 208.584 117.724C206.962 118.186 205.553 119.204 204.6 120.6Z" fill="url(#paint8_radial)"/>
<path opacity="0.32" d="M245.219 131.207H237.326C236.98 131.207 236.649 131.069 236.404 130.824C236.16 130.578 236.023 130.246 236.023 129.899V129.899C236.023 129.552 236.16 129.22 236.404 128.975C236.649 128.73 236.98 128.592 237.326 128.592H245.219C245.558 128.602 245.88 128.744 246.116 128.988C246.352 129.232 246.485 129.559 246.484 129.899C246.485 130.24 246.352 130.567 246.116 130.811C245.88 131.055 245.558 131.197 245.219 131.207V131.207Z" stroke="white" stroke-width="0.86" stroke-miterlimit="10"/>
<path opacity="0.32" d="M271.689 131.207H263.834C263.488 131.207 263.157 131.069 262.912 130.824C262.668 130.578 262.531 130.246 262.531 129.899V129.899C262.531 129.552 262.668 129.22 262.912 128.975C263.157 128.73 263.488 128.592 263.834 128.592H271.689C272.035 128.592 272.366 128.73 272.611 128.975C272.855 129.22 272.992 129.552 272.992 129.899V129.899C272.992 130.246 272.855 130.578 272.611 130.824C272.366 131.069 272.035 131.207 271.689 131.207V131.207Z" stroke="white" stroke-width="0.86" stroke-miterlimit="10"/>
<path opacity="0.32" d="M295.629 119.852C295.629 119.852 286.582 130.348 284.013 135.391C281.444 140.433 279.359 156.159 279.359 156.159H252.516" stroke="white" stroke-width="0.85" stroke-miterlimit="10"/>
<path d="M147.75 135.203L150.467 132.775L155.978 131.02L158.584 130.684L154.228 136.884L150.951 137.855L145.665 141.964L147.75 135.203Z" fill="white"/>
<path d="M153.334 134.008L154.228 136.884L158.584 130.684L155.977 131.02L150.728 132.701L153.334 134.008Z" fill="#FFD71D"/>
</g>
</g>
</g>
<defs>
<radialGradient id="paint0_radial" cx="0" cy="0" r="1" gradientUnits="userSpaceOnUse" gradientTransform="translate(300.494 152.753) scale(9.09909 9.12919)">
<stop stop-color="white" stop-opacity="0"/>
<stop offset="1" stop-color="#43404C"/>
</radialGradient>
<radialGradient id="paint1_radial" cx="0" cy="0" r="1" gradientUnits="userSpaceOnUse" gradientTransform="translate(13348.2 5826.13) scale(374.882 376.122)">
<stop stop-color="white" stop-opacity="0"/>
<stop offset="1" stop-color="#43404C"/>
</radialGradient>
<radialGradient id="paint2_radial" cx="0" cy="0" r="1" gradientUnits="userSpaceOnUse" gradientTransform="translate(8372.16 5819.67) scale(374.883 376.123)">
<stop stop-color="white" stop-opacity="0"/>
<stop offset="1" stop-color="#43404C"/>
</radialGradient>
<radialGradient id="paint3_radial" cx="0" cy="0" r="1" gradientUnits="userSpaceOnUse" gradientTransform="translate(8305.95 5826.13) scale(374.883 376.123)">
<stop stop-color="white" stop-opacity="0"/>
<stop offset="1" stop-color="#43404C"/>
</radialGradient>
<linearGradient id="paint4_linear" x1="312.282" y1="137.184" x2="333.715" y2="137.184" gradientUnits="userSpaceOnUse">
<stop stop-color="white" stop-opacity="0"/>
<stop offset="1" stop-color="white"/>
</linearGradient>
<linearGradient id="paint5_linear" x1="33402.2" y1="640.791" x2="33401.6" y2="424.15" gradientUnits="userSpaceOnUse">
<stop stop-color="white" stop-opacity="0"/>
<stop offset="1" stop-color="white"/>
</linearGradient>
<linearGradient id="paint6_linear" x1="26777.3" y1="653.067" x2="26776.4" y2="444.561" gradientUnits="userSpaceOnUse">
<stop stop-color="white" stop-opacity="0"/>
<stop offset="1" stop-color="white"/>
</linearGradient>
<radialGradient id="paint7_radial" cx="0" cy="0" r="1" gradientUnits="userSpaceOnUse" gradientTransform="translate(207.378 126.841) scale(6.64936 6.67129)">
<stop offset="0.58" stop-color="white" stop-opacity="0"/>
<stop offset="1" stop-color="white"/>
</radialGradient>
<radialGradient id="paint8_radial" cx="0" cy="0" r="1" gradientUnits="userSpaceOnUse" gradientTransform="translate(4052.25 1737.06) scale(204.215 172.975)">
<stop offset="0.58" stop-color="white" stop-opacity="0"/>
<stop offset="1" stop-color="white"/>
</radialGradient>
<clipPath id="clip0">
<rect width="378" height="166" rx="4" fill="white"/>
</clipPath>
<clipPath id="clip1">
<rect width="378" height="206" fill="white" transform="translate(0 -22)"/>
</clipPath>
<clipPath id="clip2">
<rect width="428" height="153" fill="white" transform="translate(-18 15)"/>
</clipPath>
</defs>
</svg>
