<svg width="60" height="60" viewBox="0 0 60 60" fill="none" xmlns="http://www.w3.org/2000/svg">
<g clip-path="url(#clip0_2267_33403)">
<path d="M13.131 42.2964H28.2933C30.3177 42.2964 32.2592 43.1006 33.6906 44.532C35.1221 45.9635 35.9263 47.9049 35.9263 49.9293V57.9952C35.9263 58.4021 35.7647 58.7923 35.4769 59.08C35.1892 59.3677 34.799 59.5293 34.3922 59.5293H7.03216C6.62529 59.5293 6.23508 59.3677 5.94738 59.08C5.65968 58.7923 5.49805 58.4021 5.49805 57.9952V49.9293C5.49805 47.9049 6.30223 45.9635 7.73368 44.532C9.16514 43.1006 11.1066 42.2964 13.131 42.2964Z" fill="#FFE006" stroke="#272833" stroke-linecap="round" stroke-linejoin="round"/>
<path d="M17.9413 38.2683H23.5319C23.7466 38.2683 23.9525 38.3536 24.1043 38.5054C24.2561 38.6572 24.3413 38.8631 24.3413 39.0777V41.9013C24.3364 42.8492 23.9583 43.757 23.2889 44.4281C22.6195 45.0993 21.7127 45.4797 20.7649 45.4872C19.8088 45.4872 18.892 45.1074 18.2159 44.4314C17.5399 43.7553 17.1602 42.8385 17.1602 41.8825V39.0589C17.1602 38.8443 17.2454 38.6384 17.3972 38.4866C17.549 38.3348 17.7549 38.2495 17.9696 38.2495L17.9413 38.2683Z" fill="white" stroke="#272833" stroke-miterlimit="10"/>
<path d="M6.75059 25.8353C6.75059 25.8353 5.73411 16.1224 7.07059 14.7953C7.07059 14.56 0.905876 12.3765 1.50823 11.1718C2.11058 9.96709 5.37648 7.18119 5.37648 7.18119C5.37648 7.18119 1.98822 6.24001 3.43763 5.29883C6.45922 3.61028 9.88981 2.79256 13.3482 2.9365C13.2259 3.05885 11.0518 0.884739 14.7976 0.762386C18.5435 0.640033 24.4729 2.36237 24.4729 2.36237C24.4729 2.36237 22.5059 -0.461153 25.9035 0.752965C29.3012 1.96708 35.3153 6.92709 35.9929 8.3765C36.6706 9.82591 36.9906 12.1412 34.6941 14.7012C34.9418 18.4044 34.8914 22.1214 34.5435 25.8165C34.4965 25.5906 6.75059 25.8353 6.75059 25.8353Z" fill="white" stroke="#272833" stroke-linejoin="round"/>
<path d="M28.9804 15.0779C29.66 14.3533 30.289 13.5829 30.8628 12.772C18.4675 16.5367 10.5333 12.772 10.5333 12.772L11.8886 15.0873L9.55452 16.4896C9.55452 16.8379 9.49805 17.1861 9.49805 17.5437V28.8379C9.51049 31.8076 10.699 34.6515 12.8033 36.747C14.9077 38.8425 17.7565 40.0191 20.7263 40.019C23.7042 40.019 26.5601 38.8361 28.6658 36.7304C30.7715 34.6247 31.9545 31.7687 31.9545 28.7908V17.4967C31.9545 17.139 31.9545 16.7908 31.8981 16.4426L28.9804 15.0779Z" fill="white" stroke="#272833" stroke-linejoin="round"/>
<path d="M15.4472 25.9951C16.0502 25.9951 16.539 25.5063 16.539 24.9033C16.539 24.3003 16.0502 23.8115 15.4472 23.8115C14.8443 23.8115 14.3555 24.3003 14.3555 24.9033C14.3555 25.5063 14.8443 25.9951 15.4472 25.9951Z" fill="#272833"/>
<path d="M26.0156 25.9951C26.6186 25.9951 27.1074 25.5063 27.1074 24.9033C27.1074 24.3003 26.6186 23.8115 26.0156 23.8115C25.4126 23.8115 24.9238 24.3003 24.9238 24.9033C24.9238 25.5063 25.4126 25.9951 26.0156 25.9951Z" fill="#272833"/>
<path d="M18.0352 31.8022C18.2163 32.3741 18.5748 32.8735 19.0588 33.2279C19.5428 33.5823 20.1271 33.7733 20.7269 33.7733C21.3268 33.7733 21.9111 33.5823 22.395 33.2279C22.879 32.8735 23.2376 32.3741 23.4187 31.8022" stroke="#272833" stroke-miterlimit="10" stroke-linecap="round"/>
<path d="M9.25489 30.6073H6.75135C6.15032 30.5709 5.58816 30.298 5.18779 29.8482C4.78743 29.3985 4.58142 28.8085 4.61486 28.2073V28.2073C4.58135 27.6051 4.78706 27.014 5.18719 26.5628C5.58732 26.1115 6.1495 25.8366 6.75135 25.7979H9.01017" stroke="#272833" stroke-miterlimit="10"/>
<path d="M32.0312 30.6073H34.5442C35.1452 30.5709 35.7074 30.298 36.1078 29.8482C36.5081 29.3985 36.7141 28.8085 36.6807 28.2073C36.7142 27.6051 36.5085 27.014 36.1084 26.5628C35.7082 26.1115 35.1461 25.8366 34.5442 25.7979H32.2477" stroke="#272833" stroke-miterlimit="10"/>
<path d="M21.8007 47.2095L21.6219 52.2918L24.3419 52.273L19.7866 58.0895L20.2007 53.9012L17.123 53.9201L21.8007 47.2095Z" fill="white" stroke="#272833" stroke-linejoin="round"/>
<path d="M32.0586 39.9248H54.8351V57.873C54.8351 58.3124 54.6605 58.7337 54.3499 59.0443C54.0392 59.355 53.6179 59.5295 53.1786 59.5295H33.508C33.1227 59.527 32.7541 59.3722 32.4825 59.0989C32.211 58.8256 32.0586 58.456 32.0586 58.0707V39.9248Z" fill="white" stroke="#272833" stroke-linejoin="round"/>
<path d="M48.3593 59.5292H44.6699V53.7598L46.5146 54.9174L48.3593 53.8633V59.5292Z" fill="#FFE006" stroke="#272833" stroke-linecap="round" stroke-linejoin="round"/>
<path d="M41.904 46.9458L38.5723 39.9341H54.817L58.1581 46.9458H41.904Z" fill="white" stroke="#272833" stroke-linejoin="round"/>
<path d="M38.5723 39.9341V59.4541" stroke="#272833" stroke-linejoin="round"/>
<path d="M32.0203 39.9341L28.8203 47.1811H35.3709L38.5709 39.9341H32.0203Z" fill="white" stroke="#272833" stroke-linejoin="round"/>
</g>
<defs>
<clipPath id="clip0_2267_33403">
<rect width="57.6282" height="60" fill="white" transform="translate(1)"/>
</clipPath>
</defs>
</svg>
