<svg width="378" height="166" viewBox="0 0 378 166" fill="none" xmlns="http://www.w3.org/2000/svg">
<g clip-path="url(#clip0_2697_17302)">
<rect width="378" height="166" rx="4" fill="#FFE000"/>
<path d="M123.932 127.041C118.992 125.652 113.608 125.158 108.791 126.938C103.974 128.717 99.9162 133.167 99.7396 138.313C95.4851 135.956 89.7851 135.281 85.3745 137.324C80.9639 139.368 77.6211 143.595 76.6478 148.37C74.6684 147.542 71.7609 148.588 69.9704 149.771C68.1758 150.953 67.0259 153.062 67.0013 155.213C63.7324 153.507 59.983 152.531 56.3116 152.832C52.6403 153.133 49.0264 154.776 46.6609 157.611C44.2955 160.441 43.3264 164.491 44.4968 167.993C66.9972 167.927 89.6947 166.757 112.195 166.691C117.172 166.675 122.454 166.576 126.647 163.882C132.499 160.116 134.47 152.148 133.172 145.296C131.866 138.445 127.764 132.858 123.932 127.041Z" fill="#7BC1D8"/>
<path d="M123.989 130.271C124.823 127.959 123.653 125.372 122.022 123.539C120.388 121.705 118.297 120.325 116.716 118.45C114.396 115.694 113.353 112.106 111.608 108.95C109.862 105.794 106.865 102.819 103.271 103.009C104.421 104.438 103.834 106.531 103.55 108.348C103.267 110.165 102.787 112.023 103.222 113.807C103.727 115.871 105.37 117.457 106.207 119.41C107.719 122.949 106.392 127.115 107.402 130.827C108.294 134.102 110.996 136.702 114.133 137.975C117.271 139.248 120.798 139.31 124.133 138.717C125.082 135.417 125.291 133.447 123.989 130.271Z" fill="#76C8B2"/>
<path d="M121.028 131.008C118.437 130.555 116.043 128.586 114.462 125.607C114.256 125.216 114.067 124.816 113.891 124.408C113.924 124.371 113.952 124.326 113.965 124.276C114.61 122.187 114.942 120.016 114.946 117.828C114.946 117.61 114.774 117.437 114.556 117.437C114.339 117.437 114.166 117.61 114.166 117.828C114.162 119.674 113.916 121.508 113.439 123.287C112.856 121.705 112.425 120.053 112.01 118.434C111.887 117.952 111.764 117.474 111.636 116.996C111.595 116.848 111.558 116.699 111.517 116.551C111.554 116.506 111.587 116.452 111.599 116.39C111.911 114.911 112.154 113.399 112.314 111.891C112.339 111.677 112.183 111.484 111.965 111.459C111.751 111.442 111.558 111.591 111.534 111.809C111.419 112.88 111.263 113.956 111.07 115.019C110.347 112.703 109.382 110.429 107.78 108.567C107.641 108.402 107.39 108.385 107.23 108.525C107.066 108.665 107.049 108.917 107.189 109.077C108.072 110.103 108.749 111.273 109.304 112.509C108.404 112.163 107.484 111.867 106.552 111.636C106.343 111.587 106.129 111.714 106.08 111.924C106.027 112.135 106.158 112.349 106.367 112.398C107.472 112.67 108.565 113.033 109.616 113.474C109.649 113.486 109.686 113.494 109.719 113.498C110.187 114.705 110.552 115.958 110.881 117.194C111.008 117.668 111.131 118.146 111.254 118.628C111.378 119.101 111.501 119.583 111.628 120.061C110.347 119.542 109.082 118.97 107.858 118.339C107.665 118.24 107.431 118.319 107.333 118.508C107.234 118.702 107.312 118.937 107.501 119.036C108.918 119.765 110.392 120.424 111.879 121.005C111.883 121.005 111.887 121.005 111.887 121.009C112.367 122.711 112.938 124.4 113.772 125.974C114.166 126.711 114.605 127.391 115.086 128.005C113.127 128.067 111.127 127.609 109.402 126.686C109.213 126.583 108.975 126.658 108.873 126.847C108.77 127.037 108.844 127.275 109.033 127.378C110.589 128.211 112.351 128.693 114.121 128.788C114.638 128.816 115.16 128.808 115.673 128.767C115.69 128.767 115.702 128.763 115.718 128.759C117.205 130.386 118.995 131.449 120.897 131.779C120.913 131.783 120.93 131.783 120.946 131.783C121.139 131.791 121.316 131.655 121.353 131.457C121.381 131.247 121.242 131.045 121.028 131.008Z" fill="white"/>
<path d="M133.155 142.136C132.794 138.284 129.402 135.383 125.849 133.875C122.301 132.368 118.396 131.807 114.889 130.2C109.739 127.84 105.858 123.427 101.263 120.106C96.6675 116.786 90.4048 114.569 85.4193 117.26C88.0106 118.524 88.5774 121.899 89.3905 124.671C90.1995 127.448 90.7621 130.419 92.5773 132.668C94.6758 135.268 98.0761 136.418 100.573 138.638C105.094 142.659 105.986 149.482 109.903 154.092C113.361 158.159 118.946 160.042 124.268 159.745C129.591 159.444 134.65 157.166 138.999 154.072C138.153 148.724 137.135 145.782 133.155 142.136Z" fill="#9CE7CC"/>
<path d="M129.435 145.177C125.443 146.277 120.716 145.082 116.47 141.905C115.916 141.489 115.382 141.04 114.856 140.583C114.877 140.505 114.885 140.426 114.872 140.344C114.396 136.932 113.415 133.62 111.961 130.501C111.817 130.192 111.456 130.06 111.144 130.205C110.836 130.349 110.704 130.715 110.848 131.024C112.076 133.657 112.955 136.43 113.46 139.285C111.571 137.427 109.854 135.363 108.183 133.336C107.686 132.734 107.189 132.133 106.688 131.539C106.532 131.354 106.376 131.173 106.22 130.987C106.24 130.897 106.253 130.802 106.228 130.703C105.686 128.383 105.016 126.068 104.236 123.819C104.125 123.497 103.772 123.324 103.452 123.435C103.136 123.551 102.959 123.901 103.07 124.222C103.624 125.825 104.121 127.461 104.552 129.104C101.978 126.295 99.0782 123.707 95.5547 122.129C95.2426 121.989 94.8812 122.129 94.7416 122.442C94.6019 122.756 94.7416 123.118 95.0537 123.258C96.9961 124.128 98.7456 125.331 100.359 126.723C98.8482 126.834 97.337 127.032 95.8586 127.333C95.5218 127.403 95.3083 127.728 95.3781 128.062C95.4438 128.396 95.7723 128.614 96.105 128.544C97.8626 128.19 99.6614 127.967 101.452 127.893C101.509 127.889 101.563 127.877 101.616 127.856C103.09 129.261 104.45 130.798 105.743 132.335C106.24 132.928 106.737 133.525 107.23 134.123C107.723 134.716 108.22 135.317 108.721 135.915C106.552 136.038 104.363 136.071 102.199 136.001C101.858 135.993 101.575 136.257 101.563 136.599C101.55 136.941 101.817 137.225 102.158 137.237C104.663 137.32 107.205 137.27 109.71 137.097C109.714 137.097 109.719 137.093 109.727 137.093C111.55 139.194 113.489 141.217 115.727 142.894C116.778 143.681 117.862 144.349 118.959 144.905C116.211 146.31 113.057 147.006 109.981 146.849C109.641 146.833 109.353 147.097 109.337 147.434C109.32 147.776 109.583 148.065 109.92 148.081C112.692 148.221 115.525 147.723 118.104 146.66C118.86 146.351 119.595 145.988 120.301 145.585C120.322 145.572 120.343 145.556 120.359 145.543C123.562 146.858 126.827 147.167 129.751 146.363C129.776 146.355 129.8 146.347 129.821 146.338C130.104 146.223 130.264 145.906 130.182 145.605C130.1 145.28 129.763 145.086 129.435 145.177Z" fill="white"/>
<path fill-rule="evenodd" clip-rule="evenodd" d="M298.541 164.167C298.503 164.07 298.421 163.996 298.339 163.932C297.774 163.49 297.039 163.335 296.326 163.259C294.768 163.093 293.178 163.25 291.68 163.712C293.423 162.388 295.018 160.871 296.393 159.17L296.407 159.159C297.715 159.602 299.164 159.485 300.539 159.269C301.67 159.093 302.897 158.794 303.576 157.873C303.721 157.677 303.834 157.403 303.697 157.202C303.638 157.116 303.545 157.061 303.45 157.016C302.804 156.704 302.052 156.709 301.339 156.788C299.917 156.943 298.524 157.369 297.255 158.029C298.228 156.649 299.02 155.184 299.711 153.666L299.805 153.543C299.806 153.521 299.807 153.498 299.809 153.476C301.156 153.65 302.536 153.27 303.826 152.812C304.905 152.429 306.055 151.909 306.552 150.876C306.658 150.657 306.717 150.366 306.547 150.193C306.473 150.118 306.372 150.083 306.27 150.055C305.577 149.869 304.84 150.013 304.153 150.222C302.768 150.643 301.465 151.33 300.331 152.229C300.711 151.302 301.065 150.36 301.409 149.407L301.417 149.404C302.494 148.352 302.994 146.854 303.36 145.394C303.638 144.283 303.839 143.037 303.254 142.053C303.13 141.843 302.92 141.632 302.681 141.681C302.579 141.701 302.492 141.766 302.413 141.836C301.875 142.31 301.588 143.005 301.383 143.691C300.871 145.405 300.767 147.238 301.073 149.001C300.661 150.147 300.236 151.28 299.769 152.388C299.618 151.292 299.159 150.231 298.658 149.233C298.144 148.211 297.482 147.134 296.397 146.77C296.165 146.693 295.87 146.671 295.72 146.861C295.655 146.942 295.633 147.05 295.618 147.153C295.52 147.864 295.756 148.577 296.049 149.232C296.782 150.87 297.904 152.331 299.294 153.466C298.545 155.103 297.682 156.675 296.607 158.144C296.696 156.991 296.434 155.807 296.111 154.681C295.794 153.581 295.345 152.401 294.346 151.843C294.133 151.725 293.846 151.647 293.664 151.807C293.585 151.876 293.543 151.977 293.51 152.075C293.282 152.756 293.381 153.501 293.548 154.197C293.966 155.948 294.802 157.598 295.964 158.974C295.886 159.069 295.812 159.164 295.733 159.257C294.427 160.805 292.938 162.191 291.322 163.408C291.673 162.285 291.672 161.049 291.593 159.861C291.518 158.719 291.331 157.47 290.475 156.711C290.293 156.549 290.029 156.413 289.816 156.531C289.725 156.58 289.662 156.67 289.608 156.759C289.239 157.375 289.178 158.123 289.191 158.841C289.225 160.63 289.684 162.409 290.515 163.994C289.677 164.582 288.807 165.127 287.915 165.628C287.097 166.092 286.261 166.51 285.408 166.892C286.226 165.857 286.626 164.527 286.92 163.228C287.173 162.112 287.346 160.861 286.739 159.891C286.686 159.807 286.62 159.725 286.545 159.659L284.743 162.244C284.404 163.862 284.414 165.553 284.778 167.166C283.545 167.687 282.285 168.129 281.003 168.507L281.475 168.836C282.623 168.486 283.754 168.083 284.862 167.619C285.8 168.737 287.197 169.369 288.572 169.867C289.648 170.258 290.868 170.586 291.906 170.105C292.127 170.004 292.357 169.816 292.335 169.574C292.326 169.47 292.269 169.378 292.209 169.293C291.792 168.709 291.131 168.352 290.468 168.078C289.002 167.47 287.407 167.171 285.82 167.199C286.749 166.774 287.662 166.307 288.554 165.79C289.3 165.358 290.029 164.893 290.737 164.398C290.738 164.399 290.738 164.401 290.74 164.402L290.782 164.379C292.003 165.207 293.539 165.422 295.014 165.511C296.156 165.581 297.419 165.551 298.28 164.795C298.462 164.637 298.631 164.392 298.541 164.167Z" fill="#1B4DED"/>
<path d="M265.164 157.468C266.498 151.851 268.411 146.513 270.577 142.443L274.353 146.61L273.054 138.293C278.742 129.281 288.963 117.31 296.185 113.455C296.814 117.934 296.928 122.915 296.492 128.11L289.464 136.382L295.65 134.753C293.876 145.226 290.008 158.405 281.263 168.69L265.164 157.468Z" fill="#6CE8CC"/>
<path d="M272.702 162.722C272.734 162.653 272.768 162.583 272.8 162.513L274.522 158.976C275.69 156.629 276.844 154.273 277.995 151.916C280.288 147.198 282.564 142.471 284.817 137.736C287.086 133.006 289.323 128.261 291.509 123.493L291.619 123.54C291.11 124.749 290.609 125.963 290.091 127.168L288.531 130.781C287.484 133.188 286.426 135.588 285.361 137.986C283.216 142.775 281.048 147.554 278.862 152.325L275.593 159.486L273.925 163.051L273.736 163.443L272.702 162.722Z" fill="white"/>
<path d="M264.443 160.445L277.969 85.5495C270.894 84.3235 264.425 148.798 264.425 148.798C264.425 148.798 269.112 72 261.943 72C261.937 72 261.932 72.0058 261.926 72.0058L263.471 160.433L264.443 160.445Z" fill="#A0ABE9"/>
<path d="M267.132 160.497L284.414 111.116C279.936 110.896 274.145 130.206 271.448 140.216C270.54 143.83 269.944 146.074 269.944 146.074C269.944 146.074 270.511 143.715 271.448 140.216C275.076 125.753 283.639 89.2333 278.519 85.7693L265.032 160.456L267.132 160.497Z" fill="#A0ABE9"/>
<path d="M271.443 140.216C270.5 143.709 269.938 146.074 269.938 146.074C269.938 146.074 270.534 143.83 271.443 140.216Z" fill="#A0ABE9"/>
<path d="M269.661 160.537C269.661 160.537 291.166 114.58 285.103 111.307C285.062 111.284 285.016 111.272 284.976 111.255L267.74 160.508L269.661 160.537Z" fill="#A0ABE9"/>
<path d="M260.56 160.381L261.561 160.399L243.435 95.4558C237.776 97.7227 260.56 160.381 260.56 160.381Z" fill="#A0ABE9"/>
<path d="M262.886 160.422L261.347 72.2024C255.104 76.424 260.56 148.804 260.56 148.804C260.56 148.804 249.944 96.8032 244.019 95.4153L262.163 160.416L262.886 160.422Z" fill="#A0ABE9"/>
<path d="M262.163 160.41L244.019 95.4095C243.828 95.3632 243.643 95.369 243.463 95.4326C243.452 95.4384 243.44 95.4442 243.429 95.45L261.555 160.393L262.163 160.41Z" fill="#697DD1"/>
<path d="M263.464 160.433L261.919 72.0058C261.717 72.0116 261.526 72.0752 261.347 72.2024L262.886 160.422L263.464 160.433Z" fill="#697DD1"/>
<path d="M265.027 160.456L278.513 85.7692C278.415 85.7056 278.316 85.6478 278.206 85.6073C278.125 85.5784 278.044 85.561 277.963 85.5495L264.437 160.445L265.027 160.456Z" fill="#697DD1"/>
<path d="M267.74 160.503L284.976 111.249C284.79 111.168 284.6 111.122 284.409 111.11L267.127 160.491L267.74 160.503Z" fill="#697DD1"/>
<path d="M238.621 147.265L241.699 160.809H243.221L252.165 100.03C236.486 115.823 237.25 137.417 238.621 147.265Z" fill="#4C60A5"/>
<path d="M217.486 119.449L240.386 160.809H241.103L237.707 145.866C235.023 138.111 229.087 125.597 217.486 119.449Z" fill="#4C60A5"/>
<path d="M236.295 160.809H239.72L217 119.779C217.237 151.551 236.295 160.809 236.295 160.809Z" fill="#4C60A5"/>
<path d="M254.219 160.809C254.219 160.809 269.817 153.54 276.974 129.327L251.667 160.809H254.219Z" fill="#4C60A5"/>
<path d="M254.578 148.133L249.839 160.809H250.921L276.847 128.558C264.523 132.403 257.743 142.061 254.578 148.133Z" fill="#4C60A5"/>
<path d="M252.651 100.713L243.805 160.809H249.221L253.965 148.116C256.58 138.753 260.549 118.512 252.651 100.713Z" fill="#4C60A5"/>
<path d="M217 119.195C217 119.392 217.006 119.582 217.006 119.779L239.726 160.809H240.386L217.486 119.449C217.324 119.368 217.162 119.276 217 119.195Z" fill="#637ABE"/>
<path d="M252.287 99.9029C252.246 99.9434 252.206 99.9897 252.165 100.03L243.221 160.809H243.805L252.651 100.713C252.53 100.441 252.414 100.175 252.287 99.9029Z" fill="#637ABE"/>
<path d="M276.846 128.558L250.921 160.809H251.661L276.968 129.327C277.055 129.026 277.147 128.737 277.234 128.43C277.107 128.465 276.979 128.517 276.846 128.558Z" fill="#637ABE"/>
<path d="M239.281 151.111C239.506 152.019 239.605 152.54 239.605 152.54C239.605 152.54 239.472 152.036 239.281 151.111C238.986 149.931 238.482 148.098 237.713 145.866L241.109 160.809H241.699L238.621 147.265C238.847 148.896 239.09 150.209 239.281 151.111Z" fill="#637ABE"/>
<path d="M239.28 151.111C239.471 152.036 239.604 152.54 239.604 152.54C239.604 152.54 239.506 152.025 239.28 151.111Z" fill="#637ABE"/>
<path d="M252.657 152.349C252.425 153.014 252.292 153.367 252.292 153.367C252.292 153.367 252.408 152.991 252.657 152.349C252.964 151.458 253.438 150.007 253.964 148.116L249.22 160.809H249.839L254.578 148.133C253.629 149.943 253.01 151.429 252.657 152.349Z" fill="#637ABE"/>
<path d="M252.657 152.349C252.408 152.991 252.292 153.367 252.292 153.367C252.292 153.367 252.426 153.014 252.657 152.349Z" fill="#637ABE"/>
<path d="M354.463 169H21.5367C17.9272 169 15 166.761 15 164C15 161.239 17.9272 159 21.5367 159H354.463C358.073 159 361 161.239 361 164C361 166.761 358.073 169 354.463 169Z" fill="#A3C1C8"/>
<path d="M17 37.7041C17 35.4751 18.4004 33.5717 20.3675 32.8342C21.4188 29.9791 24.1538 27.9397 27.3652 27.9397C27.3981 27.9397 27.4309 27.9438 27.4679 27.9438C29.1516 24.4871 32.6875 22.1099 36.7818 22.1099C40.9008 22.1099 44.4572 24.5201 46.1286 28.0138C46.4612 27.9685 46.798 27.9438 47.1429 27.9438C51.2619 27.9438 54.6006 31.2933 54.6006 35.4257C54.6006 36.2209 54.4774 36.9872 54.2475 37.7082H17V37.7041Z" fill="white"/>
<path d="M322.848 60.3107C322.848 58.0818 324.248 56.1783 326.215 55.4409C327.266 52.5857 330.001 50.5463 333.213 50.5463C333.246 50.5463 333.279 50.5504 333.316 50.5504C334.999 47.0937 338.535 44.7165 342.629 44.7165C346.748 44.7165 350.305 47.1267 351.976 50.6205C352.309 50.5751 352.646 50.5504 352.991 50.5504C357.11 50.5504 360.448 53.9 360.448 58.0323C360.448 58.8275 360.325 59.5938 360.095 60.3148H322.848V60.3107Z" fill="white"/>
<path d="M329.684 29.8525C329.684 26.7295 327.721 24.0639 324.97 23.0298C323.5 19.0292 319.664 16.1741 315.163 16.1741C315.114 16.1741 315.069 16.1782 315.02 16.1782C312.658 11.3372 307.701 8 301.969 8C296.195 8 291.209 11.3784 288.868 16.273C288.404 16.2112 287.928 16.1741 287.447 16.1741C281.678 16.1741 277 20.8668 277 26.6554C277 27.7719 277.177 28.8431 277.497 29.8525H329.684Z" fill="white"/>
<path d="M247.928 9.6027H120.494V159.459H247.928V9.6027Z" fill="white"/>
<path d="M247.923 9.6027H120.494V15.9118H247.923V9.6027Z" fill="#92E3A9"/>
<path d="M233.096 12.5551C233.096 12.256 233.008 11.9636 232.842 11.7149C232.676 11.4663 232.441 11.2724 232.166 11.158C231.89 11.0435 231.587 11.0136 231.295 11.0719C231.003 11.1303 230.734 11.2743 230.523 11.4858C230.313 11.6973 230.169 11.9667 230.111 12.2601C230.053 12.5534 230.083 12.8574 230.197 13.1338C230.311 13.4101 230.504 13.6462 230.752 13.8124C231 13.9786 231.291 14.0673 231.589 14.0673C231.989 14.0673 232.372 13.9079 232.655 13.6243C232.937 13.3408 233.096 12.9561 233.096 12.5551Z" fill="white"/>
<path d="M238.335 12.5551C238.335 12.256 238.246 11.9636 238.081 11.7149C237.915 11.4663 237.68 11.2724 237.404 11.158C237.129 11.0435 236.826 11.0136 236.534 11.0719C236.241 11.1303 235.973 11.2743 235.762 11.4858C235.551 11.6973 235.408 11.9667 235.35 12.2601C235.292 12.5534 235.321 12.8574 235.436 13.1338C235.55 13.4101 235.743 13.6462 235.991 13.8124C236.238 13.9786 236.53 14.0673 236.828 14.0673C237.026 14.0673 237.222 14.0281 237.404 13.9521C237.587 13.8762 237.753 13.7648 237.893 13.6243C238.033 13.4839 238.144 13.3172 238.22 13.1338C238.296 12.9503 238.335 12.7537 238.335 12.5551Z" fill="white"/>
<path d="M242.044 14.0673C242.876 14.0673 243.551 13.3902 243.551 12.5551C243.551 11.7199 242.876 11.0429 242.044 11.0429C241.212 11.0429 240.537 11.7199 240.537 12.5551C240.537 13.3902 241.212 14.0673 242.044 14.0673Z" fill="white"/>
<path d="M179.541 149.428V149.981H178.989" stroke="#ADADAD" stroke-miterlimit="10"/>
<path d="M177.328 149.981H128.25" stroke="#ADADAD" stroke-miterlimit="10" stroke-dasharray="2.01 3.01"/>
<path d="M127.421 149.981H126.869V149.428" stroke="#ADADAD" stroke-miterlimit="10"/>
<path d="M126.869 147.733V120.253" stroke="#ADADAD" stroke-miterlimit="10" stroke-dasharray="2.05 3.07"/>
<path d="M126.869 119.4V118.846H127.421" stroke="#ADADAD" stroke-miterlimit="10"/>
<path d="M129.083 118.846H178.161" stroke="#ADADAD" stroke-miterlimit="10" stroke-dasharray="2.01 3.01"/>
<path d="M178.989 118.846H179.541V119.4" stroke="#ADADAD" stroke-miterlimit="10"/>
<path d="M179.541 121.1V148.58" stroke="#ADADAD" stroke-miterlimit="10" stroke-dasharray="2.05 3.07"/>
<path d="M240.874 149.428V149.981H240.322" stroke="#ADADAD" stroke-miterlimit="10"/>
<path d="M238.66 149.981H189.587" stroke="#ADADAD" stroke-miterlimit="10" stroke-dasharray="2.01 3.01"/>
<path d="M188.754 149.981H188.202V149.428" stroke="#ADADAD" stroke-miterlimit="10"/>
<path d="M188.202 147.733V120.253" stroke="#ADADAD" stroke-miterlimit="10" stroke-dasharray="2.05 3.07"/>
<path d="M188.202 119.4V118.846H188.754" stroke="#ADADAD" stroke-miterlimit="10"/>
<path d="M190.416 118.846H239.494" stroke="#ADADAD" stroke-miterlimit="10" stroke-dasharray="2.01 3.01"/>
<path d="M240.322 118.846H240.874V119.4" stroke="#ADADAD" stroke-miterlimit="10"/>
<path d="M240.874 121.1V148.58" stroke="#ADADAD" stroke-miterlimit="10" stroke-dasharray="2.05 3.07"/>
<path d="M240.349 25.1179V24.564H239.797" stroke="#ADADAD" stroke-miterlimit="10"/>
<path d="M238.18 24.564H190.416" stroke="#ADADAD" stroke-miterlimit="10" stroke-dasharray="1.96 2.93"/>
<path d="M189.604 24.564H189.052V25.1179" stroke="#ADADAD" stroke-miterlimit="10"/>
<path d="M189.052 26.8018V107.369" stroke="#ADADAD" stroke-miterlimit="10" stroke-dasharray="2.03 3.04"/>
<path d="M189.052 108.211V108.765H189.604" stroke="#ADADAD" stroke-miterlimit="10"/>
<path d="M191.227 108.765H238.986" stroke="#ADADAD" stroke-miterlimit="10" stroke-dasharray="1.96 2.93"/>
<path d="M239.797 108.765H240.349V108.211" stroke="#ADADAD" stroke-miterlimit="10"/>
<path d="M240.35 106.527V25.9598" stroke="#ADADAD" stroke-miterlimit="10" stroke-dasharray="2.03 3.04"/>
<path d="M254.311 20.5868H203.014V104.788H254.311V20.5868Z" fill="#EDEDED"/>
<path d="M250.232 27.2781H207.087V63.8809H250.232V27.2781Z" fill="#4C5C9A"/>
<path d="M250.232 44.2723L244.116 38.3177L234.605 50.5869L224.751 44.7929L207.087 63.8809H250.232V44.2723Z" fill="#A1ACE7"/>
<path d="M215.075 40.3616C217.608 40.3616 219.662 38.3008 219.662 35.7586C219.662 33.2164 217.608 31.1555 215.075 31.1555C212.542 31.1555 210.488 33.2164 210.488 35.7586C210.488 38.3008 212.542 40.3616 215.075 40.3616Z" fill="#A1ACE7"/>
<path d="M246.776 71.043H249.216" stroke="#263238" stroke-linecap="round" stroke-linejoin="round"/>
<path d="M229.913 71.043H244.369" stroke="#263238" stroke-linecap="round" stroke-linejoin="round"/>
<path d="M216.599 71.043H227.379" stroke="#263238" stroke-linecap="round" stroke-linejoin="round"/>
<path d="M207.43 71.043H213.811" stroke="#263238" stroke-linecap="round" stroke-linejoin="round"/>
<path d="M244.497 79.2243H249.216" stroke="#263238" stroke-linecap="round" stroke-linejoin="round"/>
<path d="M228.141 79.2243H243.1" stroke="#263238" stroke-linecap="round" stroke-linejoin="round"/>
<path d="M207.43 79.2243H226.617" stroke="#263238" stroke-linecap="round" stroke-linejoin="round"/>
<path d="M221.671 87.4057H249.216" stroke="#263238" stroke-linecap="round" stroke-linejoin="round"/>
<path d="M207.43 87.4057H219.519" stroke="#263238" stroke-linecap="round" stroke-linejoin="round"/>
<path d="M244.872 95.587H249.216" stroke="#263238" stroke-linecap="round" stroke-linejoin="round"/>
<path d="M215.715 95.587H242.973" stroke="#263238" stroke-linecap="round" stroke-linejoin="round"/>
<path d="M207.43 95.587H213.938" stroke="#263238" stroke-linecap="round" stroke-linejoin="round"/>
<path d="M148.221 87.9429H108.167V31.355H142.507L148.221 36.8387V87.9429Z" fill="#DDDDDD"/>
<path d="M142.507 31.355V37.016H148.221L142.507 31.355Z" fill="#C1C1C1"/>
<path d="M122.332 43.746H141.238" stroke="#263238" stroke-linecap="round" stroke-linejoin="round"/>
<path d="M115.321 43.746H120.24" stroke="#263238" stroke-linecap="round" stroke-linejoin="round"/>
<path d="M131.893 51.5673H141.238" stroke="#263238" stroke-linecap="round" stroke-linejoin="round"/>
<path d="M115.321 51.5673H129.955" stroke="#263238" stroke-linecap="round" stroke-linejoin="round"/>
<path d="M124.722 59.3886H141.238" stroke="#263238" stroke-linecap="round" stroke-linejoin="round"/>
<path d="M115.321 59.3886H123.231" stroke="#263238" stroke-linecap="round" stroke-linejoin="round"/>
<path d="M115.321 67.2099H141.238" stroke="#263238" stroke-linecap="round" stroke-linejoin="round"/>
<path d="M131.594 75.0312H141.238" stroke="#263238" stroke-linecap="round" stroke-linejoin="round"/>
<path d="M115.321 75.0312H128.906" stroke="#263238" stroke-linecap="round" stroke-linejoin="round"/>
<path d="M175.224 97.3983H135.177V40.8103H169.517L175.224 46.2941V97.3983Z" fill="#EDEDED"/>
<path d="M169.517 40.8103V46.4768H175.224L169.517 40.8103Z" fill="#D1D1D1"/>
<path d="M153.559 53.2069H168.247" stroke="#263238" stroke-linecap="round" stroke-linejoin="round"/>
<path d="M142.325 53.2069H151.764" stroke="#263238" stroke-linecap="round" stroke-linejoin="round"/>
<path d="M163.87 61.0282H168.247" stroke="#263238" stroke-linecap="round" stroke-linejoin="round"/>
<path d="M142.325 61.0282H162.225" stroke="#263238" stroke-linecap="round" stroke-linejoin="round"/>
<path d="M165.211 68.8495H168.247" stroke="#263238" stroke-linecap="round" stroke-linejoin="round"/>
<path d="M148.48 68.8495H163.268" stroke="#263238" stroke-linecap="round" stroke-linejoin="round"/>
<path d="M142.325 68.8495H145.941" stroke="#263238" stroke-linecap="round" stroke-linejoin="round"/>
<path d="M155.799 76.6708H168.247" stroke="#263238" stroke-linecap="round" stroke-linejoin="round"/>
<path d="M142.325 76.6708H153.856" stroke="#263238" stroke-linecap="round" stroke-linejoin="round"/>
<path d="M155.203 84.4921H168.247" stroke="#263238" stroke-linecap="round" stroke-linejoin="round"/>
<path d="M142.325 84.4921H153.111" stroke="#263238" stroke-linecap="round" stroke-linejoin="round"/>
<path d="M117.358 49H69.2793V75.9203H117.358V49Z" fill="#E39BFA"/>
<path d="M117.358 71.6164H69.2793V75.9203H117.358V71.6164Z" fill="#CC90E3"/>
<path d="M58.4434 76.6182L67.4906 67.0022C67.4906 67.0022 67.9378 65.2242 68.0426 64.6869C68.1475 64.1496 68.8375 63.4461 69.373 62.9974C69.9084 62.5488 70.1678 62.1998 70.1678 62.9974C70.146 63.2543 70.0622 63.5019 69.9237 63.7191C69.7852 63.9362 69.5962 64.1162 69.373 64.2438C69.373 64.2438 69.2957 66.3985 69.2957 66.6477V67.7556L62.611 77.7261L58.4434 76.6182Z" fill="#AF8B52"/>
<path d="M58.2557 79.6592C57.8276 79.0309 57.6109 78.2817 57.6374 77.5211C57.6923 77.2173 57.8089 76.9281 57.98 76.6714C58.1511 76.4148 58.373 76.1963 58.6319 76.0295C58.8908 75.8627 59.1812 75.7511 59.485 75.7019C59.7887 75.6526 60.0993 75.6666 60.3974 75.743C61.6394 76.0975 62.9698 76.369 63.1574 77.4325C63.3451 78.496 61.5622 78.3243 60.138 78.5015C59.7528 78.5213 59.3787 78.6376 59.0499 78.8398C58.7211 79.042 58.448 79.3238 58.2557 79.6592Z" fill="#DBDBDB"/>
<path d="M84.2549 86.1566C84.2549 86.1566 92.5349 75.2999 92.9489 74.674C93.3629 74.0481 93.661 74.2308 94.5442 74.2308C95.4274 74.2308 96.9398 73.8763 97.1165 74.1422C97.2931 74.4081 97.387 74.8512 97.0282 74.8512C96.6694 74.8512 95.0796 75.2113 95.0796 75.2113L97.387 75.8317C97.387 75.8317 98.3585 75.8317 98.3585 76.0975C98.3585 76.3634 98.1818 76.2748 97.2986 76.6515C96.5038 76.9743 95.6676 77.1831 94.8146 77.2718H92.9489L86.4077 89.7183L84.2549 86.1566Z" fill="#AF8B52"/>
<path d="M64.5652 130.486L65.1834 133.334C63.0043 133.578 60.8129 133.697 58.6202 133.688C56.2456 133.673 53.8752 133.488 51.527 133.134C51.527 133.134 50.6382 130.819 49.6612 130.553C48.6842 130.287 45.6702 132.957 44.3399 133.843C43.0096 134.729 41.8559 136.336 42.303 136.784C42.7502 137.233 44.9637 136.336 44.9637 136.336C44.9637 136.336 48.8663 135.715 50.1083 135.715C51.3503 135.715 53.2106 136.336 56.4066 136.962C60.1935 137.554 64.0133 137.911 67.8441 138.031C69.4449 138.031 70.2398 138.119 70.7752 136.513C71.3106 134.907 70.7752 129.484 70.7752 129.484L64.2119 128.93L64.5652 130.486Z" fill="#AF8B52"/>
<path d="M46.3106 136.153L45.9683 135.671L51.527 133.156C51.527 133.156 50.6382 130.841 49.6612 130.575C48.6842 130.309 45.6702 132.979 44.3399 133.865C43.0096 134.752 41.8559 136.358 42.303 136.807C42.7502 137.255 44.9637 136.358 44.9637 136.358L46.3106 136.153Z" fill="#263238" stroke="#263238" stroke-linecap="round" stroke-linejoin="round"/>
<path d="M69.4447 130.93L70.2396 136.469C70.2396 136.469 69.6213 143.415 69.8863 146.439C70.1513 149.464 70.1513 159.345 70.1513 159.345C70.1513 159.345 68.7326 161.838 68.9093 162.375C69.0859 162.913 71.2166 164.419 72.2213 164.862C73.2259 165.306 74.8819 165.311 75.1469 164.774C75.4118 164.237 73.9049 163.35 73.9049 163.35L72.4862 159.794C72.4862 159.794 76.4717 136.995 76.4717 135.289C76.4717 133.583 76.8249 129.506 76.8249 129.506L69.4447 130.93Z" fill="#AF8B52"/>
<path d="M71.3991 160.885C70.907 160.485 70.2939 160.264 69.6603 160.259C69.2684 161.029 68.8047 162.043 68.9096 162.364C69.0862 162.918 71.2169 164.408 72.2216 164.851C73.2262 165.295 74.8822 165.3 75.1472 164.763C75.4121 164.225 73.9052 163.339 73.9052 163.339C73.1217 162.47 72.2847 161.65 71.3991 160.885Z" fill="#263238" stroke="#263238" stroke-linecap="round" stroke-linejoin="round"/>
<path d="M62.6996 105.383C61.2886 108.537 60.419 111.908 60.1273 115.354C59.5753 121.231 63.8533 130.221 63.8533 130.221C63.8533 130.221 64.4053 131.91 69.1801 132.087C72.0342 132.199 74.8703 131.587 77.427 130.309C77.427 130.309 79.2762 124 78.2274 114.196C77.98 111.82 77.2552 109.519 76.0966 107.433L62.6996 105.383Z" fill="#3555E4"/>
<path d="M72.4587 85.2648L83.99 86.068L85.8558 90.2501C85.8558 90.2501 84.3433 90.6101 81.4398 91.1419C78.5363 91.6736 76.5601 92.2109 76.5601 92.2109C76.5601 92.2109 76.7367 94.4266 76.7367 96.4816C76.7367 98.5366 75.7652 102.89 75.7652 102.89L76.9189 108.945C76.9189 108.945 74.4349 108.053 73.3695 108.053C72.3042 108.053 71.7135 109.211 68.5782 109.925C63.4335 111.083 62.1032 106.186 62.1032 106.186C62.1032 106.186 63.6102 102.713 63.6102 101.201C63.6102 99.6888 61.3028 91.0532 61.3028 91.0532L58.0902 79.2161C58.0902 79.2161 57.4664 77.7925 59.5088 77.5211C60.5424 77.3293 61.6069 77.392 62.6111 77.7039L67.4024 84.2013C67.4024 84.2013 69.086 85.4476 69.7981 85.359C70.5102 85.2704 72.4587 85.2648 72.4587 85.2648Z" fill="white"/>
<path d="M73.16 74.2308C73.16 74.2308 73.2484 75.3885 73.7783 75.8317C74.3082 76.2748 75.1969 76.2748 75.1969 76.9893C75.1919 77.3771 75.2215 77.7645 75.2852 78.147C75.2852 78.147 75.2852 80.4624 75.1969 81.1714C75.1086 81.8804 72.8896 82.595 72.8896 82.595L72.8012 85.1762L70.0412 83.8413C69.4549 82.1796 69.3933 80.3769 69.8646 78.6788C70.4768 76.8891 71.6285 75.3347 73.16 74.2308Z" fill="#AF8B52"/>
<path d="M72.9945 71.9155C72.9945 71.9155 73.701 74.6851 72.9006 76.2748C72.1002 77.8645 70.7754 78.8616 71.3054 80.1965C71.8353 81.5314 73.2594 84.2899 72.8123 85.1818C72.3652 86.0736 68.5564 88.123 65.8074 86.8767C63.0585 85.6304 63.3234 83.7582 63.3234 83.7582C63.3234 83.7582 64.6538 84.3121 64.3888 82.9605C64.1238 81.609 62.7935 81.2656 62.3464 78.0639C61.8993 74.8623 64.3005 72.5248 67.0494 71.4779C69.7984 70.431 72.0174 70.5805 72.9945 71.9155Z" fill="#263238" stroke="#263238" stroke-linecap="round" stroke-linejoin="round"/>
<path d="M83.0957 85.9794C83.0957 85.9794 84.2494 87.7575 84.426 88.6493C84.6027 89.5411 84.8731 90.6988 84.8731 90.6988C85.153 90.8146 85.4613 90.8422 85.7571 90.7779C86.0529 90.7135 86.3222 90.5604 86.5291 90.3387C87.2412 89.5411 86.7941 88.123 86.1759 87.3143C85.6335 86.6733 85.039 86.0785 84.3984 85.5363C84.3984 85.5363 83.3717 85.5363 83.0957 85.9794Z" fill="#DBDBDB"/>
<path d="M342.86 82.3845H291V115.331H342.86V82.3845Z" fill="#A53036"/>
<path d="M300.313 95.8612C302.852 95.8612 304.911 93.7954 304.911 91.2471C304.911 88.6988 302.852 86.633 300.313 86.633C297.773 86.633 295.714 88.6988 295.714 91.2471C295.714 93.7954 297.773 95.8612 300.313 95.8612Z" fill="#FC4F52"/>
<path d="M342.86 98.653L332.659 89.7128L321.542 102.281L310.022 95.2575L291 115.337H342.86V98.653Z" fill="#FC4F52"/>
<path d="M343.059 88.7102C343.227 88.6582 343.407 88.6573 343.576 88.7075C343.745 88.7578 343.895 88.857 344.008 88.9927C344.237 89.2951 344.368 89.6604 344.384 90.0396C344.758 90.495 345.046 91.0149 345.234 91.5739C345.328 92.1278 344.284 94.7091 344.284 94.7091L346.939 101.456L343.247 95.0913C343.247 95.0913 341.541 92.0503 341.348 91.5739C341.192 90.7285 341.129 89.8685 341.16 89.0093C341.16 88.5329 341.066 87.4916 341.635 88.0621C341.95 88.3582 342.207 88.7115 342.391 89.1035V89.4857L343.059 88.7102Z" fill="#FFE8BB"/>
<path d="M310.961 112.75L309.161 112.556C308.57 112.392 307.969 112.266 307.362 112.18C306.597 112.408 305.888 112.795 305.281 113.315C304.9 113.697 304.331 113.869 304.618 114.268C304.905 114.667 306.318 114.174 306.318 114.174L305.087 115.786C305.093 115.981 305.161 116.17 305.281 116.325C305.401 116.479 305.567 116.591 305.755 116.644C306.247 116.723 306.751 116.621 307.174 116.356C307.174 116.356 308.686 116.644 308.973 116.738C309.26 116.832 312.572 114.838 312.572 114.838L310.961 112.75Z" fill="#FFE8BB"/>
<path d="M320.714 112.274L319.765 134.984C319.765 134.984 320.052 150.09 320.62 152.942C321.189 155.795 321.658 158.26 321.658 158.26L321.189 159.307V160.73C321.189 160.73 317.777 163.107 317.021 163.677C316.265 164.248 315.79 164.536 316.265 164.818C316.74 165.101 323.082 165.483 324.219 165.483C325.356 165.483 326.113 165.389 326.206 164.929C326.3 164.469 326.113 161.052 326.113 161.052C326.113 161.052 326.394 158.769 326.488 158.105C326.582 157.44 326.206 154.687 326.206 153.07C326.206 151.452 326.681 140.529 326.758 138.529C326.836 136.53 328.475 125.363 328.475 125.363C328.475 125.363 331.98 150.732 332.173 151.873C332.367 153.014 333.967 158.52 333.967 158.52V159.706C333.967 159.988 334.519 161.982 334.519 161.982C334.519 161.982 334.519 165.117 334.994 165.405C335.469 165.693 337.268 165.788 337.837 165.117C338.406 164.447 337.743 161.7 337.743 161.7C337.743 161.7 337.931 159.323 337.931 158.376C337.931 157.429 337.268 154.859 337.268 154.194C337.268 153.529 336.512 133.383 336.512 133.383L336.981 112.385L320.808 110.961L320.714 112.274Z" fill="#263238"/>
<path d="M328.575 84.2401C328.575 84.2401 320.902 87.6633 320.527 89.0869C320.151 90.5104 320.334 111.609 320.427 112.351C320.521 113.094 325.07 114.157 328.382 114.44C331.694 114.722 336.43 113.492 336.998 112.351C337.567 111.21 338.423 102.098 338.423 102.098L338.975 100.104C338.975 100.104 343.043 104.763 344.936 105.643C346.83 106.524 347.779 104.979 347.591 103.428C347.404 101.877 343.153 94.3435 342.474 92.6818C341.795 91.02 341.53 88.123 340.774 87.1703C340.018 86.2176 336.607 83.6529 336.607 83.6529C336.607 83.6529 331.506 82.246 328.575 84.2401Z" fill="white"/>
<path d="M324.407 86.5222C324.407 86.5222 319.296 88.4222 319.009 89.8457C318.722 91.2693 318.821 104.48 318.821 104.48L310.96 112.75L312.191 115.52C312.191 115.52 316.607 112.861 320.372 110.302C323.182 108.407 325.649 106.568 325.732 105.92C325.92 104.403 325.732 91.9561 325.732 91.9561" fill="white"/>
<path d="M335.199 78.0639L335.298 82.534L328.95 84.0518L330.181 78.6345C330.332 78.0857 330.651 77.5982 331.093 77.2405C331.534 76.8829 332.077 76.673 332.643 76.6404C333.164 76.5752 333.693 76.678 334.152 76.9338C334.612 77.1897 334.978 77.5855 335.199 78.0639Z" fill="#FFE8BB"/>
<path d="M329.331 70.5584C329.331 70.5584 327.813 71.9819 327.813 72.5525C327.813 73.123 327.151 74.1699 326.869 74.6463C326.588 75.1226 325.351 75.2002 325.45 75.9757C325.486 76.1989 325.586 76.4071 325.736 76.5751C325.887 76.7431 326.083 76.8639 326.301 76.9229C326.301 76.9229 325.163 82.3402 326.853 82.9107C328.542 83.4812 331.434 80.4402 331.434 80.4402L332.097 78.1581C333.063 78.4062 334.043 78.5912 335.033 78.712C335.696 78.712 337.793 76.8121 338.897 75.106C340.001 73.4 337.479 69.5669 334.167 68.3593C330.855 67.1518 328.199 68.8302 328.199 69.5946C328.199 70.359 329.331 70.5584 329.331 70.5584Z" fill="#FFE8BB"/>
<path d="M334.161 68.376C330.849 67.1407 328.194 68.8468 328.194 69.6112C328.194 70.3756 329.188 70.5307 329.298 70.5584C329.298 70.5584 331.666 71.2231 331.666 71.8878C331.666 72.5525 331.114 72.4417 331.004 72.7464C330.893 73.051 330.717 73.2172 331.097 73.5052L331.473 73.7877C331.473 73.7877 330.921 76.7345 330.717 77.4934C330.678 77.783 330.527 78.0456 330.297 78.224C330.066 78.4025 329.775 78.4823 329.486 78.4461C328.934 78.4461 327.118 76.6404 326.267 76.9229C326.267 76.9229 325.13 82.3402 326.819 82.9107C328.509 83.4812 331.434 80.4402 331.434 80.4402L332.097 78.1581C333.063 78.4062 334.043 78.5912 335.033 78.712C335.696 78.712 337.793 76.8121 338.897 75.106C340.001 73.4 337.473 69.6112 334.161 68.376Z" fill="#3555E4"/>
<path d="M326.466 78.8339C327.048 79.0422 327.683 79.0422 328.265 78.8339H326.466Z" fill="#FFE8BB"/>
<path d="M331.699 75.7873C331.699 75.7873 332.549 74.4524 333.117 75.1226C333.686 75.7929 333.305 77.6873 332.643 78.0639C332.489 78.1798 332.297 78.2342 332.106 78.2168C331.914 78.1994 331.736 78.1114 331.605 77.9698L331.699 75.7873Z" fill="#FFE8BB"/>
<path d="M335.199 81.393C335.199 81.393 330.843 82.0577 329.9 82.3402C329.014 82.6768 328.158 83.0901 327.344 83.5754L326.963 85.0045C326.963 85.0045 333.587 83.5754 334.823 83.5754C335.425 83.5633 336.026 83.5947 336.623 83.6696C336.623 83.6696 336.148 81.2988 335.199 81.393Z" fill="#E8E8E8"/>
<path d="M320.256 110.39L325.423 106.197L325.307 91.513" stroke="#D6D6D6" stroke-miterlimit="10"/>
</g>
<defs>
<clipPath id="clip0_2697_17302">
<path d="M0 4C0 1.79086 1.79086 0 4 0H374C376.209 0 378 1.79086 378 4V162C378 164.209 376.209 166 374 166H4.00001C1.79087 166 0 164.209 0 162V4Z" fill="white"/>
</clipPath>
</defs>
</svg>
