<svg width="60" height="60" viewBox="0 0 60 60" fill="none" xmlns="http://www.w3.org/2000/svg">
<g clip-path="url(#clip0_2223_33931)">
<path d="M21.5493 41.4795H37.4424C38.4921 41.4769 39.5321 41.6815 40.5026 42.0814C41.4732 42.4813 42.3553 43.0688 43.0985 43.8101C43.8417 44.5515 44.4313 45.4322 44.8337 46.4017C45.236 47.3713 45.4431 48.4108 45.4431 49.4605V57.8941C45.4431 58.3196 45.2741 58.7276 44.9732 59.0284C44.6724 59.3292 44.2644 59.4982 43.839 59.4982H15.1724C14.747 59.4982 14.339 59.3292 14.0382 59.0284C13.7374 58.7276 13.5684 58.3196 13.5684 57.8941V49.4605C13.5684 47.3438 14.4092 45.3138 15.9059 43.8171C17.4027 42.3204 19.4326 41.4795 21.5493 41.4795Z" fill="white" stroke="#272833" stroke-linejoin="round"/>
<path d="M23.0837 34.8366C15.1519 40.1901 9.30642 32.4748 12.2587 32.4748C12.6794 32.5261 13.1063 32.4748 13.5029 32.3254C13.8995 32.1759 14.254 31.9328 14.5363 31.6167C14.8186 31.3005 15.0202 30.9208 15.124 30.5099C15.2278 30.099 15.2306 29.6691 15.1322 29.2568H44.3696C44.3696 29.2568 44.4286 32.5043 47.2136 32.5043C50.1659 32.5043 44.3499 40.2196 36.3886 34.8662" fill="#FFE000"/>
<path d="M23.0837 34.8366C15.1519 40.1901 9.30642 32.4748 12.2587 32.4748C12.6794 32.5261 13.1063 32.4748 13.5029 32.3254C13.8995 32.1759 14.254 31.9328 14.5363 31.6167C14.8186 31.3005 15.0202 30.9208 15.124 30.5099C15.2278 30.099 15.2306 29.6691 15.1322 29.2568H44.3696C44.3696 29.2568 44.4286 32.5043 47.2136 32.5043C50.1659 32.5043 44.3499 40.2196 36.3886 34.8662" stroke="#272833" stroke-linecap="round" stroke-linejoin="round"/>
<path d="M25.2799 37.1787H33.4085C33.633 37.1787 33.8482 37.2679 34.0069 37.4266C34.1657 37.5853 34.2548 37.8006 34.2548 38.025V43.1029C34.2548 44.1026 33.8577 45.0612 33.1509 45.7681C32.444 46.4749 31.4854 46.872 30.4858 46.872H28.2027C27.203 46.872 26.2444 46.4749 25.5375 45.7681C24.8307 45.0612 24.4336 44.1026 24.4336 43.1029V38.025C24.4336 37.8006 24.5228 37.5853 24.6815 37.4266C24.8402 37.2679 25.0555 37.1787 25.2799 37.1787Z" fill="white" stroke="#272833" stroke-miterlimit="10"/>
<path d="M24.1182 38.8223C24.1182 38.8223 22.4551 39.6391 22.4551 43.3097V50.9955L29.2355 46.8721C29.2355 46.8721 26.4898 44.7662 25.8403 43.1227C25.489 41.7707 25.489 40.3514 25.8403 38.9994L24.1182 38.8223Z" fill="white" stroke="#272833" stroke-linejoin="round"/>
<path d="M34.8635 38.8223C34.8635 38.8223 36.5266 39.6391 36.5266 43.3097V50.9955L29.7266 46.8721C29.7266 46.8721 32.4722 44.7662 33.1217 43.1227C33.473 41.7707 33.473 40.3514 33.1217 38.9994L34.8635 38.8223Z" fill="white" stroke="#272833" stroke-linejoin="round"/>
<path d="M29.4909 50.5825C30.8117 50.5825 31.8823 49.5118 31.8823 48.1911C31.8823 46.8704 30.8117 45.7998 29.4909 45.7998C28.1702 45.7998 27.0996 46.8704 27.0996 48.1911C27.0996 49.5118 28.1702 50.5825 29.4909 50.5825Z" fill="#FFE000" stroke="#272833" stroke-linecap="round" stroke-linejoin="round"/>
<path d="M41.2303 15.5683C41.2303 9.08439 35.9763 3.82812 29.495 3.82812C23.0138 3.82812 17.7598 9.08439 17.7598 15.5683V27.3872C17.7598 33.8712 23.0138 39.1274 29.495 39.1274C35.9763 39.1274 41.2303 33.8712 41.2303 27.3872V15.5683Z" fill="white" stroke="#272833" stroke-linejoin="round"/>
<path d="M23.9697 24.4452C24.6001 24.4452 25.1112 23.9341 25.1112 23.3037C25.1112 22.6732 24.6001 22.1621 23.9697 22.1621C23.3392 22.1621 22.8281 22.6732 22.8281 23.3037C22.8281 23.9341 23.3392 24.4452 23.9697 24.4452Z" fill="#272833"/>
<path d="M35.0224 24.4452C35.6529 24.4452 36.1639 23.9341 36.1639 23.3037C36.1639 22.6732 35.6529 22.1621 35.0224 22.1621C34.3919 22.1621 33.8809 22.6732 33.8809 23.3037C33.8809 23.9341 34.3919 24.4452 35.0224 24.4452Z" fill="#272833"/>
<path d="M26.6758 30.5068C26.8652 31.1048 27.24 31.6269 27.7461 31.9974C28.2521 32.368 28.8631 32.5678 29.4903 32.5678C30.1175 32.5678 30.7284 32.368 31.2345 31.9974C31.7405 31.6269 32.1154 31.1048 32.3048 30.5068" stroke="#272833" stroke-miterlimit="10" stroke-linecap="round"/>
<path d="M44.0454 13.7382C43.732 10.0843 42.0443 6.68536 39.323 4.22705C36.6017 1.76873 33.0493 0.434055 29.3825 0.49232C27.4802 0.453176 25.5889 0.789696 23.8169 1.48257C22.0449 2.17544 20.4269 3.21105 19.0557 4.53013C17.6846 5.84921 16.5871 7.42583 15.8261 9.16969C15.0651 10.9136 14.6556 12.7904 14.6211 14.6928V23.8251H17.4454V19.8002C19.1313 18.7162 20.6191 17.3516 21.8443 15.7654C24.5964 17.847 27.8917 19.0883 31.3332 19.3397C34.7746 19.5911 38.2153 18.842 41.2407 17.1825V23.8251H44.0946V13.7382H44.0454Z" fill="#FFE000" stroke="#272833" stroke-linecap="round" stroke-linejoin="round"/>
<path d="M17.4959 29.2572H14.8782C14.2498 29.2192 13.662 28.9338 13.2433 28.4635C12.8247 27.9933 12.6094 27.3764 12.6443 26.7478C12.6093 26.1182 12.8244 25.5002 13.2427 25.0283C13.6611 24.5565 14.2489 24.2691 14.8782 24.2285H17.2794" stroke="#272833" stroke-miterlimit="10"/>
<path d="M41.3105 29.2572H43.9381C44.5665 29.2192 45.1543 28.9338 45.5729 28.4635C45.9916 27.9933 46.2069 27.3764 46.172 26.7478C46.207 26.1182 45.9919 25.5002 45.5735 25.0283C45.1552 24.5565 44.5674 24.2691 43.9381 24.2285H41.5369" stroke="#272833" stroke-miterlimit="10"/>
<path d="M32.3146 59.0949L30.6909 50.5137H28.2995L26.6758 59.1441" fill="#FFE000"/>
<path d="M32.3146 59.0949L30.6909 50.5137H28.2995L26.6758 59.1441" stroke="#272833" stroke-linecap="round" stroke-linejoin="round"/>
</g>
<defs>
<clipPath id="clip0_2223_33931">
<rect width="37.5135" height="60" fill="white" transform="translate(11)"/>
</clipPath>
</defs>
</svg>
