<svg width="1157" height="983" viewBox="0 0 1157 983" fill="none" xmlns="http://www.w3.org/2000/svg">
<mask id="mask0" mask-type="alpha" maskUnits="userSpaceOnUse" x="0" y="0" width="1157" height="983">
<rect width="1157" height="982.036" fill="#1B4DED"/>
</mask>
<g mask="url(#mask0)">
<path opacity="0.6" d="M670.028 885.574C577.519 851.427 581.682 698.464 392.559 692.475C212.816 686.783 250.895 611.376 150.816 560.654C88.5164 529.069 30.5649 545.103 -0.000427246 558.492V1276.57C-0.000427246 1287.48 8.95248 1296.42 19.887 1296.42L928.521 1303.4C939.456 1303.4 948.409 1294.46 948.409 1283.55V881.86C873.663 862.824 811.064 937.619 670.028 885.574Z" fill="#E7C335"/>
<path fill-rule="evenodd" clip-rule="evenodd" d="M617.049 887.336C616.427 886.922 615.642 886.818 614.893 886.784C609.738 886.496 604.757 888.602 600.236 891.088C590.354 896.508 581.613 903.966 574.671 912.839C579.514 897.878 582.685 882.388 583.804 866.713L583.839 866.586C593.387 863.824 601.459 857.184 608.689 850.267C614.639 844.582 620.659 837.781 620.878 829.564C620.924 827.814 620.463 825.731 618.825 825.11C618.122 824.845 617.349 824.903 616.6 825.029C611.503 825.847 607.086 828.965 603.2 832.36C595.439 839.116 588.97 847.344 584.196 856.447C584.254 844.318 582.905 832.429 580.737 820.645L580.783 819.54C580.702 819.402 580.61 819.264 580.529 819.126C589.201 814.614 595.785 806.708 601.516 798.71C606.313 792.023 610.961 784.232 609.646 776.107C609.369 774.381 608.516 772.424 606.798 772.102C606.06 771.964 605.31 772.171 604.595 772.424C599.741 774.174 595.981 778.052 592.787 782.103C586.341 790.274 581.475 799.676 578.477 809.631C576.908 802.611 575.121 795.602 573.23 788.571L573.264 788.525C575.294 777.902 572.077 767.015 568.225 756.911C565.296 749.223 561.352 741.052 553.845 737.657C552.254 736.932 550.144 736.552 548.933 737.818C548.414 738.359 548.172 739.096 547.987 739.832C546.765 744.839 547.93 750.109 549.544 755.001C553.58 767.199 560.51 778.432 569.574 787.558C571.857 796.005 574.014 804.429 575.813 812.877C570.416 807.042 563.336 802.669 556.267 798.848C549.025 794.935 540.688 791.31 532.777 793.623C531.094 794.118 529.26 795.2 529.156 796.937C529.11 797.685 529.422 798.41 529.756 799.078C532.108 803.67 536.433 806.904 540.861 809.562C551.931 816.202 564.57 820.207 577.45 821.186C579.768 833.902 581.14 846.711 580.84 859.785C576.62 852.627 570.197 846.723 563.659 841.417C557.259 836.239 549.752 831.129 541.553 831.946C539.812 832.119 537.794 832.844 537.378 834.535C537.194 835.26 537.367 836.032 537.574 836.745C539.027 841.694 542.683 845.676 546.534 849.094C556.209 857.69 567.937 863.986 580.46 867.323C580.391 868.198 580.345 869.061 580.264 869.935C578.926 884.425 575.836 898.706 571.304 912.517C568.755 904.461 563.659 897.176 558.308 890.501C553.165 884.079 546.915 877.485 538.739 876.53C536.998 876.323 534.876 876.61 534.103 878.175C533.769 878.843 533.769 879.626 533.815 880.374C534.173 885.518 536.894 890.179 539.927 894.356C547.491 904.76 557.524 913.357 568.952 919.284C566.426 926.189 563.532 932.979 560.326 939.596C557.409 945.684 554.191 951.588 550.732 957.342C551.297 947.882 548.183 938.399 544.574 929.538C541.472 921.919 537.344 913.84 529.768 910.618C529.11 910.342 528.384 910.123 527.669 910.042V932.679C532.328 943.612 539.35 953.533 548.137 961.543C543.006 969.679 537.378 977.459 531.37 984.951H535.51C540.849 978.172 545.866 971.152 550.501 963.867C560.637 966.606 571.488 964.592 581.659 961.876C589.616 959.759 598.172 956.686 602.324 949.585C603.212 948.078 603.8 946.029 602.67 944.694C602.185 944.119 601.47 943.808 600.767 943.555C595.901 941.829 590.527 942.439 585.488 943.543C574.325 945.983 563.682 950.771 554.422 957.457C558.158 951.139 561.629 944.637 564.766 937.927C567.395 932.311 569.782 926.58 571.927 920.757C571.938 920.757 571.95 920.768 571.961 920.768L572.111 920.457C582.732 920.319 592.683 915.279 601.759 909.743C608.793 905.462 616.127 900.099 618.099 892.112C618.525 890.432 618.514 888.291 617.049 887.336Z" fill="#4AC2DA"/>
<path d="M309.015 984.962C304.425 978.702 300.228 972.522 296.526 966.514L333.577 960.323L282.504 941.058C252.983 884.171 221.906 794.785 223.878 745.61C249.062 755.967 275.297 770.514 300.977 788.559L322.552 850.152L332.919 813.118C383.104 855.124 428.307 910.134 455.464 972.464L454.288 984.962H309.015Z" fill="#4AC2DA"/>
<path d="M387.001 984.962C380.808 975.571 374.593 966.192 368.366 956.835C350.838 930.596 333.206 904.438 315.448 878.359C297.782 852.212 279.931 826.192 261.815 800.367L262.392 799.941C267.12 806.259 271.905 812.543 276.587 818.884L290.609 837.965C299.927 850.705 309.175 863.49 318.4 876.311C336.758 901.998 354.989 927.765 373.117 953.602L395.199 984.974H387.001V984.962Z" fill="white"/>
<path d="M392.411 984.962C377.167 946.374 366.488 907.062 362.522 874.182L401.971 883.228L360.065 839.553C356.548 763.08 367.619 650.55 394.395 598.164C416.547 621.975 437.718 650.861 456.538 683.268L449.088 760.881L478.909 725.873C511.543 794.877 542.954 888.429 533.66 984.962H392.411Z" fill="#6CE8CC"/>
<path d="M458.544 984.962C458.452 984.422 458.36 983.869 458.268 983.328L453.874 955.409C451.107 936.777 448.224 918.156 445.318 899.535C439.437 862.317 433.417 825.11 427.225 787.949C421.148 750.754 414.829 713.605 408.106 676.525L408.948 676.352C410.92 685.57 412.961 694.777 414.863 704.007L420.525 731.708C424.25 750.19 427.882 768.684 431.469 787.19C438.514 824.224 445.387 861.293 452.121 898.384L462.292 954.016L467.124 981.878L467.62 984.962H458.544Z" fill="white"/>
<path d="M23.5315 999.675C23.5315 999.675 103.304 767.843 -4.12965 749.72C-99.8826 733.57 -86.8586 924.101 23.5315 999.675Z" fill="url(#paint0_linear)"/>
<path opacity="0.4" d="M-16.146 768.903C-16.146 768.903 -15.7165 769.616 -14.9931 771.007C-14.2517 772.376 -13.2743 774.449 -12.0447 777.092C-11.459 778.426 -10.7984 779.895 -10.092 781.51C-9.43467 783.14 -8.73158 784.918 -7.97787 786.791C-7.18406 788.661 -6.51172 790.725 -5.73975 792.869C-4.9968 795.027 -4.09618 797.239 -3.39721 799.654C-2.65127 802.034 -1.87269 804.532 -1.06568 807.108C-0.336773 809.712 0.402666 812.417 1.16839 815.179C1.54676 816.566 1.9362 817.961 2.32774 819.377C2.69025 820.806 2.99678 822.281 3.33236 823.743C4.01459 826.676 4.72525 829.687 5.43113 832.749C6.08793 835.826 6.62176 838.987 7.23786 842.159C7.80489 845.347 8.53441 848.538 8.96946 851.82C9.46466 855.096 9.96194 858.393 10.4703 861.698C10.7045 863.352 10.9987 865.001 11.1948 866.68L11.721 871.703C12.4432 878.405 13.395 885.072 13.7079 891.736C14.0587 898.376 14.9024 904.883 14.9501 911.24C15.1893 917.588 15.4165 923.725 15.6323 929.559C15.6054 935.399 15.6563 940.917 15.7144 946.019C15.7378 948.566 15.762 951.021 15.7824 953.346C15.7227 955.679 15.6704 957.889 15.6236 959.958C15.5319 964.115 15.466 967.743 15.4132 970.723C15.3609 976.707 15.3341 980.128 15.3341 980.128C15.3341 980.128 15.7682 976.725 16.5439 970.776C16.8906 967.796 17.3217 964.17 17.7985 960.013C18.0258 957.926 18.2806 955.714 18.543 953.38C18.6829 951.039 18.8414 948.585 18.9874 946.01C19.3013 940.879 19.6293 935.301 19.8947 929.416C20.0176 923.526 20.0047 917.306 19.9709 910.887C19.9747 909.278 19.9563 907.651 19.949 906.033C19.9196 904.398 19.7989 902.761 19.7384 901.119C19.5861 897.827 19.4076 894.477 19.1979 891.121C18.9369 884.37 18.0658 877.603 17.3821 870.786L16.7985 865.698C16.5913 864.01 16.2728 862.324 16.0166 860.652C15.4729 857.299 14.9403 853.956 14.4008 850.644C13.9504 847.313 13.1254 844.081 12.445 840.875C11.7244 837.673 11.0772 834.494 10.327 831.396C9.48768 828.318 8.67461 825.297 7.86787 822.337C7.44999 820.864 7.06324 819.397 6.6295 817.965C6.16673 816.547 5.69498 815.14 5.2364 813.762C4.30816 810.996 3.47749 808.291 2.55017 805.728C1.55371 803.182 0.596805 800.723 -0.338591 798.373C-1.21592 795.997 -2.24589 793.808 -3.19623 791.702C-4.16453 789.619 -5.01309 787.614 -5.98317 785.804C-6.91315 783.989 -7.79044 782.291 -8.60398 780.717C-9.49353 779.191 -10.2993 777.789 -11.0302 776.52C-12.53 774.007 -13.8024 772.117 -14.7069 770.836C-15.6315 769.557 -16.146 768.903 -16.146 768.903Z" fill="white"/>
<path d="M26.2973 1005.8C26.2973 1005.8 153.995 891.083 92.1481 840.168C36.9999 794.763 -18.2874 918.04 26.2973 1005.8Z" fill="url(#paint1_linear)"/>
<path opacity="0.4" d="M78.1463 847.658C78.1463 847.658 78.1891 848.26 78.1751 849.384C78.1922 850.516 78.1125 852.173 78.0165 854.256C77.943 855.296 77.8619 856.457 77.7713 857.721C77.6385 858.969 77.4982 860.339 77.3463 861.791C77.2345 863.239 76.9596 864.775 76.7331 866.386C76.4866 868 76.3108 869.708 75.9476 871.465C75.6245 873.219 75.2897 875.054 74.9322 876.963C74.5215 878.847 74.097 880.793 73.6587 882.801C73.4385 883.795 73.2114 884.82 72.9843 885.845C72.7372 886.872 72.4389 887.895 72.1628 888.935C71.6105 891.016 71.0534 893.148 70.4895 895.311C69.8743 897.469 69.1679 899.627 68.4968 901.831C67.7835 904.02 67.1878 906.267 66.3653 908.477C65.594 910.692 64.8048 912.929 64.0155 915.166C63.6163 916.29 63.2483 917.421 62.8069 918.53L61.4629 921.856C59.6976 926.289 58.0609 930.79 56.043 935.037C54.0473 939.302 52.425 943.649 50.3287 947.632C48.359 951.661 46.468 955.571 44.6563 959.271C42.6937 962.885 40.8769 966.342 39.2243 969.53C38.388 971.124 37.5855 972.655 36.8257 974.11C36.0128 975.54 35.2426 976.896 34.5131 978.155C33.0784 980.713 31.8216 982.938 30.7878 984.776C28.7534 988.479 27.6065 990.592 27.6065 990.592C27.6065 990.592 29.024 988.643 31.4929 985.218C32.7107 983.493 34.1937 981.395 35.8768 978.984C36.7128 977.773 37.6117 976.486 38.5645 975.132C39.4307 973.726 40.3508 972.254 41.3047 970.718C43.2125 967.645 45.2736 964.294 47.4139 960.732C49.4567 957.109 51.5144 953.242 53.6376 949.227C54.1717 948.23 54.7037 947.214 55.2468 946.206C55.7677 945.181 56.2444 944.119 56.7521 943.065C57.7476 940.958 58.759 938.809 59.7482 936.642C61.8331 932.357 63.5457 927.808 65.367 923.329L66.6957 919.953C67.1239 918.816 67.4898 917.665 67.8869 916.521C68.6609 914.235 69.4349 911.949 70.2021 909.694C71.0315 907.452 71.5808 905.149 72.2165 902.898C72.8212 900.64 73.4812 898.426 74.041 896.223C74.5385 894.007 75.0292 891.821 75.515 889.687C75.7379 888.622 75.9919 887.563 76.1857 886.511C76.3595 885.461 76.5333 884.411 76.7092 883.382C77.041 881.324 77.4302 879.331 77.6833 877.393C77.9052 875.448 78.1133 873.565 78.3188 871.753C78.5554 869.948 78.6269 868.211 78.7267 866.552C78.8065 864.895 78.9369 863.334 78.9243 861.858C78.9317 860.381 78.9495 859.003 78.9578 857.728C78.906 856.459 78.8536 855.281 78.8137 854.223C78.7139 852.11 78.531 850.46 78.3825 849.332C78.2583 848.243 78.1463 847.658 78.1463 847.658Z" fill="white"/>
<path d="M236.504 440.578C236.504 440.578 199.094 404.525 196.285 398.564C194.849 395.567 271.519 357.57 237.812 346.923C233.822 345.68 149.108 376.92 144.767 389.989C134.936 419.443 210.617 488.138 221.821 491.931C265.231 506.658 236.504 440.578 236.504 440.578Z" fill="#FFCFC5"/>
<path opacity="0.15" d="M74.1284 985.257C74.1284 989.653 136.221 993.203 212.804 993.203C289.388 993.203 351.48 989.64 351.48 985.257C351.48 980.86 289.388 977.31 212.804 977.31C136.221 977.31 74.1284 980.86 74.1284 985.257Z" fill="#222221"/>
<path d="M328.368 981.05L256.709 977.767L256.613 984.812L328.464 984.62L328.368 981.05Z" fill="white"/>
<path d="M285.5 930.844L279.148 961.732L258.241 971.774L262.231 936.39C270.051 934.924 277.808 933.107 285.5 930.844Z" fill="#F2AEA0"/>
<path d="M279.37 956.25L256.644 961.924L256.58 979.042L328.335 981.082C328.367 981.05 326.707 973.654 279.37 956.25Z" fill="white"/>
<path d="M307.494 971.072C305.42 973.718 304.398 977.065 304.59 980.412L256.647 979.073L256.711 961.955L279.437 956.281C292.971 961.254 302.738 965.398 309.825 968.809C308.931 969.446 308.165 970.211 307.494 971.072Z" fill="#1C2A33"/>
<path d="M283.139 963.326C283.139 963.326 290.64 952.361 283.139 951.819C279.564 951.564 265.71 952.616 271.871 963.326C278.031 974.005 283.139 963.326 283.139 963.326Z" fill="#1C2A33"/>
<path d="M333.826 981.592L254.283 979.711" stroke="#1C2A33" stroke-width="0.4867" stroke-miterlimit="10"/>
<path d="M285.914 957.971C283.042 960.011 280.903 962.816 278.477 965.335C278.094 965.717 278.094 966.387 278.477 966.769C278.86 967.152 279.53 967.152 279.913 966.769C282.18 964.378 284.254 961.637 286.936 959.724C287.383 959.406 287.606 958.832 287.287 958.354C287.063 957.907 286.361 957.652 285.914 957.971Z" fill="white"/>
<path d="M289.969 959.054C287.448 961.509 285.756 964.633 283.777 967.47C283.458 967.916 283.681 968.586 284.128 968.841C284.639 969.128 285.213 968.936 285.501 968.49C287.384 965.78 288.98 962.816 291.374 960.489C292.331 959.596 290.895 958.162 289.969 959.054Z" fill="white"/>
<path d="M295.268 960.872C292.747 963.326 291.055 966.45 289.076 969.287C288.757 969.734 288.98 970.403 289.427 970.658C289.938 970.945 290.512 970.754 290.8 970.307C292.683 967.598 294.279 964.633 296.673 962.306C297.63 961.382 296.194 959.947 295.268 960.872Z" fill="white"/>
<path d="M97.2068 981.05L168.866 977.767L168.962 984.811L97.1111 984.62L97.2068 981.05Z" fill="white"/>
<path d="M151.852 925.169L146.139 956.185L161.747 973.303L171.323 939.004C164.62 934.732 158.14 930.142 151.852 925.169Z" fill="#F2AEA0"/>
<path d="M146.204 956.249L168.931 961.924L168.995 979.041L97.24 981.081C97.2081 981.05 98.8679 973.654 146.204 956.249Z" fill="white"/>
<path d="M118.084 971.072C120.159 973.718 121.18 977.065 120.989 980.412L168.932 979.073L168.868 961.955L146.141 956.281C132.607 961.254 122.84 965.398 115.754 968.809C116.648 969.446 117.414 970.211 118.084 971.072Z" fill="#1C2A33"/>
<path d="M142.436 963.326C142.436 963.326 134.935 952.36 142.436 951.818C146.011 951.563 159.864 952.615 153.703 963.326C147.543 974.004 142.436 963.326 142.436 963.326Z" fill="#1C2A33"/>
<path d="M91.7487 981.591L171.292 979.711" stroke="#1C2A33" stroke-width="0.4867" stroke-miterlimit="10"/>
<path d="M138.607 959.724C141.289 961.637 143.331 964.378 145.63 966.769C146.013 967.151 146.683 967.151 147.066 966.769C147.449 966.386 147.449 965.749 147.066 965.334C144.64 962.816 142.502 960.011 139.629 957.971C139.182 957.652 138.512 957.907 138.256 958.321C137.969 958.863 138.16 959.405 138.607 959.724Z" fill="white"/>
<path d="M134.171 960.489C136.565 962.816 138.161 965.78 140.044 968.49C140.363 968.936 140.938 969.159 141.417 968.84C141.863 968.585 142.087 967.916 141.768 967.47C139.789 964.601 138.097 961.509 135.575 959.054C134.682 958.162 133.245 959.596 134.171 960.489Z" fill="white"/>
<path d="M128.872 962.305C131.266 964.632 132.862 967.597 134.745 970.306C135.064 970.753 135.639 970.976 136.117 970.657C136.564 970.402 136.788 969.733 136.468 969.286C134.489 966.417 132.798 963.325 130.276 960.871C129.382 959.946 127.946 961.381 128.872 962.305Z" fill="white"/>
<path d="M334.366 605.412C334.366 605.412 328.142 816.915 283.614 948.28L258.525 945.092C258.525 945.092 264.973 692.819 265.995 675.223L262.898 674.203L172.79 947.26L145.85 943.116C145.85 943.116 182.11 705.251 218.339 602.83C226.095 581.027 334.366 605.412 334.366 605.412Z" fill="#1B4DED"/>
<path d="M396.515 507.678C396.515 507.678 367.787 461.903 356.903 457.249C328.175 440.036 250.037 445.805 251.281 445.614C252.526 445.423 223.703 430.122 223.703 430.122C223.703 430.122 194.688 469.522 193.922 471.849C192.869 474.973 213.265 490.114 213.265 490.114C213.265 490.114 216.33 582.111 210.903 620.905L257.506 641.848L265.23 614.466L269.156 642.613C269.156 642.613 316.62 633.464 334.4 623.232C349.146 585.49 343.72 519.281 343.72 519.281L349.944 530.917L396.515 507.678Z" fill="white"/>
<path d="M300.468 442.745L301.138 406.883L264.399 417.371L264.463 443.701C262.739 444.402 255.94 446.156 256.291 448.355C256.834 451.543 269.889 453.392 269.889 453.392L280.773 464.262L290.477 454.954C290.477 454.954 314.768 449.407 311.959 447.463C309.182 445.486 305.224 443.861 300.468 442.745Z" fill="#FFC1AC"/>
<path d="M283.552 335.766C305.385 341.982 303.98 357.124 303.98 357.124C303.98 357.124 304.874 366.081 303.693 379.979C305.895 377.27 309.406 376.282 312.886 378.003C320.227 381.637 317.546 408.382 302.065 402.325C301.203 408.924 298.075 416.765 297.118 418.487C293.543 425.053 278.86 434.553 266.251 435.477C253.643 436.402 237.843 426.807 237.46 412.016C236.918 391.583 245.089 335.734 245.089 335.734C245.089 335.734 247.387 325.438 283.552 335.766Z" fill="#FFCFC5"/>
<path d="M296.671 358.303C299.097 357.57 301.523 356.805 303.981 356.072C303.853 352.565 301.97 341.026 283.553 335.766C247.388 325.438 245.09 335.734 245.09 335.734C245.09 335.734 242.185 355.594 239.951 375.963C258.209 368.408 277.775 363.945 296.671 358.303Z" fill="#FFC1AC"/>
<path d="M292.743 342.939C298.712 343.257 306.501 349.123 312.501 349.314C312.47 349.346 312.438 349.378 312.438 349.441C311.32 351.96 311.129 377.557 311.129 377.557C305.128 377.525 303.851 382.498 303.851 382.498L302.479 393.177L296.542 392.22L297.436 369.492C293.509 367.133 292.392 363.435 292.392 363.435C292.392 363.435 293.446 347.051 292.743 342.939Z" fill="#FD99FF"/>
<path d="M260.826 373.763C260.124 377.365 258.943 380.776 257.666 384.123C256.357 387.47 254.889 390.754 253.229 393.909L252.782 392.284C255.048 394.101 257.283 396.013 259.23 398.276C256.389 397.288 253.804 395.918 251.314 394.451L250.452 393.941L250.867 392.826C252.112 389.447 253.612 386.195 255.24 383.007C256.836 379.82 258.623 376.696 260.826 373.763Z" fill="#F4A99D"/>
<path d="M288.147 362.447C283.997 362.096 281.316 361.555 278.667 361.3C277.358 361.14 276.081 360.981 274.613 360.949C273.113 360.789 271.517 360.917 269.346 360.694C270.751 356.741 275.251 354.542 279.401 355.147C281.476 355.402 283.423 356.231 284.955 357.474C286.455 358.717 287.732 360.311 288.147 362.447Z" fill="#FD99FF"/>
<path d="M257.921 362.352C254.091 361.746 251.793 361.268 249.909 361.268C248.952 361.268 247.994 361.173 246.749 361.364C245.473 361.428 244.036 361.81 242.025 361.97C242.185 359.993 243.047 358.304 244.515 357.029C245.92 355.69 248.09 354.989 250.165 355.084C252.272 355.18 254.219 356.072 255.559 357.379C256.932 358.686 257.889 360.344 257.921 362.352Z" fill="#FF9C62"/>
<path d="M295.01 344.787C295.01 344.787 268.07 350.461 245.823 345.807L256.707 341.153C256.707 341.153 242.726 344.245 227.98 330.538L242.982 326.649C242.982 326.649 236.502 322.76 234.427 317.596H248.408L244.259 312.464C244.259 312.464 309.502 312.209 314.673 332.387C319.844 352.565 311.098 377.557 311.098 377.557L295.01 344.787Z" fill="#FD99FF"/>
<path d="M303.854 382.497C303.854 382.497 308.993 431.779 281.542 437.485C254.091 443.159 231.429 441.501 237.653 401.687C237.653 401.687 236.631 411.76 243.335 413.322C250.07 414.884 238.611 398.34 255.687 398.34C272.764 398.34 281.351 397.766 281.893 410.166C282.276 418.709 296.002 417.976 296.512 392.252C297.087 366.495 303.854 382.497 303.854 382.497Z" fill="#FD99FF"/>
<path d="M250.547 409.179L276.114 412.877C276.114 412.877 263.921 395.504 250.547 409.179Z" fill="white"/>
<path d="M335.325 619.949C335.325 619.949 303.661 636.812 331.048 616.857C331.08 616.857 339.219 609.302 335.325 619.949Z" fill="#FFCFC5"/>
<path d="M316.492 444.467L297.468 469.681L290.478 454.922L308.352 436.72L316.492 444.467Z" fill="#E9E9E9"/>
<path d="M251.249 445.614L260.57 468.884L269.89 453.392L259.421 440.195L251.249 445.614Z" fill="#E9E9E9"/>
<path d="M195.742 477.363L186.581 469.011L222.395 422.057L235.45 433.532L195.742 477.363Z" fill="#E9E9E9"/>
<path d="M291.596 936.454L257.187 936.486L256.261 947.802L288.468 951.946L291.596 936.454Z" fill="#3F4B51"/>
<path d="M144.574 929.982L177.834 938.717L175.855 949.874L143.648 945.761L144.574 929.982Z" fill="#3F4B51"/>
<path d="M276.21 469.777C276.21 470.988 277.199 472.008 278.444 472.008C279.657 472.008 280.679 471.02 280.679 469.777C280.679 468.565 279.689 467.545 278.444 467.545C277.199 467.545 276.21 468.565 276.21 469.777Z" fill="#283942"/>
<path d="M270.976 504.554C270.976 505.766 271.966 506.786 273.21 506.786C274.423 506.786 275.445 505.798 275.445 504.554C275.445 503.343 274.455 502.323 273.21 502.323C271.997 502.323 270.976 503.311 270.976 504.554Z" fill="#283942"/>
<path d="M267.687 541.149C267.687 542.36 268.676 543.38 269.921 543.38C271.134 543.38 272.155 542.392 272.155 541.149C272.155 539.938 271.166 538.917 269.921 538.917C268.676 538.917 267.687 539.906 267.687 541.149Z" fill="#283942"/>
<path d="M267.561 577.521C268.795 577.521 269.796 576.522 269.796 575.289C269.796 574.057 268.795 573.058 267.561 573.058C266.327 573.058 265.327 574.057 265.327 575.289C265.327 576.522 266.327 577.521 267.561 577.521Z" fill="#283942"/>
<path d="M262.227 604.743C262.227 605.954 263.217 606.974 264.462 606.974C265.675 606.974 266.696 605.986 266.696 604.743C266.696 603.5 265.707 602.511 264.462 602.511C263.217 602.543 262.227 603.532 262.227 604.743Z" fill="#283942"/>
<path d="M259.487 500.282L215.534 499.517L217.321 507.742H258.593L259.487 500.282Z" fill="#E9E9E9"/>
<path d="M253.039 345.776C253.039 345.776 285.756 330.475 248.155 342.588C233.792 347.21 187.764 365.284 157.983 380.171C164.686 389.319 202.447 379.756 210.203 388.14L238.196 372.202L254.539 362.128C254.539 362.128 274.329 352.916 272.829 351.354C270.658 349.059 256.231 355.721 256.231 355.721C256.231 355.721 276.149 347.433 272.957 345.935C269.765 344.437 254.667 349.92 254.667 349.92C254.667 349.92 293.992 333.248 253.039 345.776Z" fill="#FFCFC5"/>
<path d="M237.812 355.02C237.812 355.02 250.74 317.979 246.558 346.126C242.919 370.416 237.812 355.02 237.812 355.02Z" fill="#FFCFC5"/>
<path d="M256.804 372.648C256.453 373.955 255.432 375.007 254.251 375.676C253.07 376.377 251.633 376.632 250.261 376.6C248.888 376.505 247.484 376.058 246.367 375.198C245.249 374.369 244.419 373.126 244.356 371.755C245.537 372.393 246.526 372.775 247.516 373.03C248.505 373.253 249.463 373.445 250.42 373.476C252.399 373.604 254.251 373.413 256.804 372.648Z" fill="#172D3A"/>
<path d="M281.35 374.21C280.999 375.517 279.977 376.568 278.796 377.238C277.615 377.939 276.179 378.194 274.806 378.162C273.434 378.067 272.029 377.62 270.912 376.76C269.795 375.931 268.965 374.688 268.901 373.317C270.082 373.955 271.072 374.337 272.061 374.592C273.051 374.815 274.008 375.006 274.966 375.038C276.945 375.166 278.828 374.975 281.35 374.21Z" fill="#172D3A"/>
<path d="M391.057 511.567L353.009 532.51L368.554 568.977L335.166 610.099L340.592 628.906C340.592 628.906 404.016 591.227 410.241 571.814C416.433 552.401 391.057 511.567 391.057 511.567Z" fill="#FFCFC5"/>
<path d="M342.379 618.865C342.379 618.865 337.783 598.495 331.048 600.567C331.048 600.567 292.808 608.122 329.42 606.464C329.42 606.464 291.627 618.099 330.441 612.425C330.441 612.425 299.831 630.276 332.963 616.314C332.963 616.314 331.878 631.36 339.379 629.32C346.912 627.216 342.379 618.865 342.379 618.865Z" fill="#FFCFC5"/>
<path d="M391.855 496.044L347.168 527.06L351.828 538.695L400.792 512.715L391.855 496.044Z" fill="#E9E9E9"/>
<rect x="503.529" y="660.979" width="40.5621" height="323.849" rx="4" fill="#7BBFE5"/>
<rect x="874.182" y="660.979" width="40.5621" height="323.849" rx="4" fill="#7BBFE5"/>
<rect x="1.94278" y="-0.85537" width="17.0359" height="27.6884" rx="8.51797" transform="matrix(0.362856 -0.931845 0.932334 0.361599 555.918 710.227)" stroke="white" stroke-width="3"/>
<rect x="1.94278" y="-0.85537" width="17.0359" height="27.6884" rx="8.51797" transform="matrix(0.362856 -0.931845 0.932334 0.361599 592.283 726.978)" stroke="white" stroke-width="3"/>
<rect x="1.68447" y="-1.29031" width="17.0314" height="27.6953" rx="8.51571" transform="matrix(0.131611 -0.991301 0.99137 0.131096 633.559 744.351)" stroke="white" stroke-width="3"/>
<rect x="1.73828" y="-1.21716" width="17.0319" height="27.6945" rx="8.51594" transform="matrix(0.173984 -0.984748 0.984867 0.173312 673.681 753.566)" stroke="white" stroke-width="3"/>
<rect x="-1.94278" y="-0.85537" width="17.0359" height="27.6884" rx="8.51797" transform="matrix(-0.362856 -0.931845 -0.932334 0.361599 857.981 706.606)" stroke="white" stroke-width="3"/>
<rect x="-1.94278" y="-0.85537" width="17.0359" height="27.6884" rx="8.51797" transform="matrix(-0.362856 -0.931845 -0.932334 0.361599 821.616 723.357)" stroke="white" stroke-width="3"/>
<rect x="-1.68447" y="-1.29031" width="17.0314" height="27.6953" rx="8.51571" transform="matrix(-0.131611 -0.991301 -0.99137 0.131096 781.306 741.011)" stroke="white" stroke-width="3"/>
<rect x="-1.7766" y="-1.16073" width="17.0324" height="27.6938" rx="8.5162" transform="matrix(-0.205602 -0.978636 -0.9788 0.204818 742.608 749.654)" stroke="white" stroke-width="3"/>
<line x1="543.33" y1="689.699" x2="562.107" y2="699.996" stroke="white" stroke-width="3" stroke-linecap="round" stroke-linejoin="round"/>
<line x1="1.5" y1="-1.5" x2="22.9158" y2="-1.5" transform="matrix(0.877216 0.480095 -0.48157 0.876407 579.057 708.439)" stroke="white" stroke-width="3" stroke-linecap="round" stroke-linejoin="round"/>
<line x1="1.5" y1="-1.5" x2="22.9197" y2="-1.5" transform="matrix(0.921181 0.389135 -0.39045 0.920624 614.887 726.3)" stroke="white" stroke-width="3" stroke-linecap="round" stroke-linejoin="round"/>
<line x1="1.5" y1="-1.5" x2="27.3314" y2="-1.5" transform="matrix(0.970257 0.242078 -0.242994 0.970028 651.79 739.149)" stroke="white" stroke-width="3" stroke-linecap="round" stroke-linejoin="round"/>
<line x1="1.5" y1="-1.5" x2="25.9764" y2="-1.5" transform="matrix(0.9672 -0.254017 0.25497 0.966949 735.712 746.129)" stroke="white" stroke-width="3" stroke-linecap="round" stroke-linejoin="round"/>
<line x1="1.5" y1="-1.5" x2="25.033" y2="-1.5" transform="matrix(0.948873 -0.315658 0.316798 0.948493 776.274 734.961)" stroke="white" stroke-width="3" stroke-linecap="round" stroke-linejoin="round"/>
<line x1="1.5" y1="-1.5" x2="25.0331" y2="-1.5" transform="matrix(0.948873 -0.315658 0.316799 0.948493 812.639 719.607)" stroke="white" stroke-width="3" stroke-linecap="round" stroke-linejoin="round"/>
<line x1="1.5" y1="-1.5" x2="28.5182" y2="-1.5" transform="matrix(0.885302 -0.465016 0.466477 0.884533 849.007 704.252)" stroke="white" stroke-width="3" stroke-linecap="round" stroke-linejoin="round"/>
<path fill-rule="evenodd" clip-rule="evenodd" d="M695.812 767.067H721.078C720.964 764.052 720.626 760.766 719.658 757.822C718.858 755.389 717.671 753.341 715.948 751.901C714.257 750.488 711.887 749.525 708.445 749.525C705.003 749.525 702.634 750.488 700.942 751.901C699.22 753.341 698.032 755.389 697.233 757.822C696.265 760.766 695.927 764.052 695.812 767.067ZM725.125 768.663C725.629 769.332 725.928 770.165 725.928 771.067V796.569C725.928 798.778 724.137 800.569 721.928 800.569H694.96C692.751 800.569 690.96 798.778 690.96 796.569V771.067C690.96 770.163 691.26 769.329 691.766 768.659C691.824 765.054 692.117 760.575 693.433 756.572C694.381 753.687 695.904 750.899 698.377 748.832C700.882 746.739 704.195 745.525 708.445 745.525C712.696 745.525 716.009 746.739 718.513 748.832C720.987 750.899 722.509 753.687 723.458 756.572C724.774 760.577 725.067 765.057 725.125 768.663ZM710.736 783.251C712.285 782.431 713.339 780.805 713.339 778.933C713.339 776.235 711.148 774.047 708.444 774.047C705.74 774.047 703.548 776.235 703.548 778.933C703.548 780.806 704.605 782.433 706.156 783.253L704.366 790.565H712.526L710.736 783.251Z" fill="#0B22F2"/>
<path d="M926.461 985.388C926.461 985.388 1010.76 755.197 1105.68 808.608C1190.27 856.214 1059.93 996.031 926.461 985.388Z" fill="url(#paint2_linear)"/>
<path opacity="0.4" d="M1102.91 831.059C1102.91 831.059 1102.13 831.344 1100.69 831.97C1099.25 832.567 1097.18 833.563 1094.56 834.844C1093.26 835.513 1091.82 836.238 1090.25 837.049C1088.71 837.903 1087.04 838.842 1085.28 839.824C1083.48 840.777 1081.65 841.958 1079.7 843.139C1077.76 844.348 1075.67 845.501 1073.6 846.938C1071.52 848.318 1069.34 849.769 1067.08 851.263C1064.87 852.828 1062.59 854.464 1060.26 856.129C1059.09 856.968 1057.9 857.808 1056.71 858.661C1055.52 859.543 1054.35 860.497 1053.17 861.421C1050.79 863.271 1048.34 865.163 1045.86 867.098C1043.41 869.076 1041 871.196 1038.52 873.273C1036.06 875.393 1033.48 877.413 1031.07 879.69C1028.62 881.924 1026.16 884.172 1023.67 886.42C1022.45 887.558 1021.18 888.653 1019.97 889.834L1016.39 893.405C1011.6 898.157 1006.65 902.739 1002.2 907.719C997.742 912.656 992.981 917.18 988.932 922.089C984.741 926.869 980.692 931.493 976.843 935.889C973.179 940.442 969.658 944.696 966.393 948.623C964.768 950.587 963.2 952.479 961.717 954.272C960.291 956.121 958.937 957.871 957.668 959.508C955.116 962.794 952.878 965.654 951.039 968.002C947.304 972.682 945.165 975.357 945.165 975.357C945.165 975.357 946.976 972.441 950.127 967.333C951.738 964.8 953.691 961.713 955.943 958.184C957.084 956.42 958.281 954.542 959.55 952.564C960.919 950.658 962.344 948.652 963.855 946.56C966.849 942.377 970.114 937.839 973.621 933.101C977.242 928.448 981.177 923.625 985.254 918.66C986.266 917.408 987.307 916.156 988.333 914.904C989.388 913.651 990.514 912.456 991.598 911.219C993.793 908.757 996.046 906.267 998.327 903.792C1002.79 898.712 1007.74 894.003 1012.57 889.137L1016.23 885.552C1017.46 884.371 1018.77 883.261 1020.02 882.123C1022.56 879.861 1025.09 877.598 1027.59 875.365C1030.05 873.06 1032.73 871.068 1035.28 869.005C1037.86 866.97 1040.37 864.907 1042.91 862.972C1045.5 861.108 1048.04 859.273 1050.53 857.48C1051.79 856.598 1053.01 855.702 1054.25 854.862C1055.51 854.051 1056.76 853.255 1057.99 852.472C1060.46 850.907 1062.81 849.328 1065.15 847.919C1067.53 846.568 1069.82 845.259 1072.03 844.021C1074.21 842.726 1076.39 841.673 1078.46 840.635C1080.53 839.624 1082.45 838.6 1084.35 837.803C1086.22 836.978 1087.97 836.21 1089.6 835.498C1091.25 834.872 1092.76 834.289 1094.13 833.763C1096.88 832.752 1099.06 832.084 1100.57 831.657C1102.1 831.244 1102.91 831.059 1102.91 831.059Z" fill="white"/>
<path d="M920.458 988.419C920.458 988.419 893.614 819.08 973.805 818.383C1045.31 817.757 1010.49 948.254 920.458 988.419Z" fill="url(#paint3_linear)"/>
<path opacity="0.4" d="M979.965 832.995C979.965 832.995 979.552 833.436 978.853 834.318C978.126 835.186 977.143 836.523 975.902 838.202C975.304 839.056 974.634 840.009 973.907 841.048C973.222 842.1 972.467 843.253 971.668 844.476C970.841 845.672 970.086 847.037 969.245 848.432C968.418 849.84 967.477 851.277 966.65 852.871C965.795 854.436 964.897 856.072 963.97 857.779C963.1 859.501 962.202 861.279 961.276 863.115C960.819 864.025 960.349 864.964 959.878 865.903C959.422 866.857 959.009 867.838 958.567 868.82C957.683 870.784 956.771 872.79 955.844 874.824C954.96 876.887 954.147 879.007 953.278 881.141C952.451 883.29 951.496 885.41 950.74 887.644C949.942 889.849 949.143 892.083 948.345 894.316C947.946 895.44 947.518 896.55 947.162 897.688L946.107 901.117C944.681 905.67 943.113 910.195 942.001 914.762C940.861 919.329 939.378 923.725 938.494 928.136C937.482 932.504 936.484 936.729 935.557 940.742C934.802 944.782 934.032 948.61 933.305 952.124C932.948 953.888 932.606 955.581 932.278 957.189C932.008 958.811 931.751 960.347 931.523 961.784C931.024 964.673 930.596 967.191 930.24 969.268C929.484 973.423 929.042 975.785 929.042 975.785C929.042 975.785 929.171 973.38 929.413 969.169C929.555 967.063 929.727 964.502 929.94 961.571C930.054 960.106 930.168 958.54 930.283 956.89C930.496 955.254 930.71 953.532 930.938 951.74C931.395 948.154 931.908 944.256 932.492 940.144C933.191 936.046 934.032 931.75 934.916 927.296C935.13 926.187 935.358 925.063 935.572 923.939C935.814 922.815 936.113 921.691 936.384 920.552C936.94 918.29 937.51 915.985 938.109 913.68C939.193 909.042 940.732 904.432 942.144 899.808L943.241 896.351C943.626 895.198 944.068 894.074 944.482 892.936C945.323 890.674 946.164 888.412 946.991 886.178C947.761 883.916 948.787 881.782 949.714 879.633C950.669 877.499 951.553 875.365 952.508 873.302C953.52 871.267 954.518 869.261 955.487 867.298C955.986 866.33 956.457 865.349 956.97 864.41C957.498 863.485 958.025 862.56 958.538 861.649C959.579 859.842 960.534 858.05 961.561 856.385C962.616 854.735 963.642 853.141 964.626 851.605C965.581 850.054 966.622 848.659 967.591 847.308C968.575 845.97 969.459 844.676 970.4 843.537C971.326 842.385 972.182 841.304 972.98 840.308C973.821 839.354 974.605 838.472 975.304 837.676C976.715 836.096 977.898 834.93 978.725 834.147C979.509 833.379 979.965 832.995 979.965 832.995Z" fill="white"/>
<path d="M824.755 919.882C824.755 919.882 768.628 796 820.492 728.604C820.492 728.604 802.672 804.366 845.669 919.882H824.755Z" fill="#2DC9B2"/>
<path d="M820.479 728.604C768.615 796 824.742 919.882 824.742 919.882H834.023C834.023 919.882 781.816 812.277 820.479 728.604Z" fill="#3CE5C8"/>
<path d="M880.528 711.231C880.528 711.231 805.098 777.248 829.02 919.881H852.429C852.429 919.881 828.949 786.055 880.528 711.231Z" fill="#2DC9B2"/>
<path d="M829.022 919.881H841.097C836.122 884.81 824.531 767.857 880.544 711.231C880.53 711.231 805.114 777.248 829.022 919.881Z" fill="#3CE5C8"/>
<path d="M837.173 919.881C837.173 919.881 830.629 808.208 919.018 772.667C919.018 772.667 863.789 812.889 864.573 919.881H837.173Z" fill="#3CE5C8"/>
<path d="M837.172 919.881H847.836C848.677 883.785 858.015 807.439 919.017 772.666C830.643 808.207 837.172 919.881 837.172 919.881Z" fill="#2DC9B2"/>
<path d="M815.248 919.881C815.248 919.881 798.596 813.457 735.712 818.679C735.712 818.679 822.975 772.681 837.174 919.881H815.248Z" fill="#3CE5C8"/>
<path d="M735.712 818.679C735.712 818.679 807.435 793.524 829.019 919.881H837.174C822.975 772.681 735.712 818.679 735.712 818.679Z" fill="#2DC9B2"/>
<path d="M845.656 919.881C845.656 919.881 851.387 865.275 903.394 856.212C955.401 847.149 962.258 893.318 962.258 893.318C962.258 893.318 901.284 845.427 877.89 919.881H845.656Z" fill="#2DC9B2"/>
<path d="M903.395 856.212C851.388 865.275 845.657 919.881 845.657 919.881H856.435C859.856 905.838 868.895 879.901 890.393 869.6C920.545 855.173 947.375 871.308 962.259 893.304C962.259 893.318 955.401 847.135 903.395 856.212Z" fill="#3CE5C8"/>
<path d="M875.581 1010.26H818.841L807.579 910.633H886.844L875.581 1010.26Z" fill="white"/>
<path d="M562.337 282.131C561.042 282.131 559.761 281.879 558.565 281.387C557.37 280.896 556.283 280.177 555.368 279.269C553.52 277.437 552.482 274.951 552.482 272.36C552.482 269.768 553.52 267.283 555.368 265.451C557.216 263.618 559.723 262.589 562.337 262.589C564.307 257.996 568.84 254.772 574.162 254.772C580.922 254.772 586.46 259.97 586.973 266.556L587.958 266.497C590.049 266.497 592.054 267.321 593.533 268.787C595.011 270.253 595.842 272.241 595.842 274.314C595.842 276.387 595.011 278.376 593.533 279.842C592.054 281.308 590.049 282.131 587.958 282.131H585.987C585.464 282.131 584.963 281.925 584.594 281.559C584.224 281.192 584.016 280.695 584.016 280.177C584.016 279.659 584.224 279.162 584.594 278.795C584.963 278.429 585.464 278.223 585.987 278.223H587.958C589.003 278.223 590.006 277.811 590.745 277.078C591.484 276.345 591.9 275.351 591.9 274.314C591.9 273.278 591.484 272.283 590.745 271.55C590.006 270.817 589.003 270.406 587.958 270.406H584.016V268.451C584.016 265.86 582.978 263.375 581.13 261.542C579.282 259.71 576.775 258.68 574.162 258.68C569.235 258.68 565.194 262.237 564.426 266.868C563.775 266.634 563.066 266.497 562.337 266.497C560.768 266.497 559.264 267.115 558.156 268.214C557.047 269.314 556.424 270.805 556.424 272.36C556.424 273.915 557.047 275.406 558.156 276.506C559.264 277.605 560.768 278.223 562.337 278.223H564.307C564.83 278.223 565.331 278.429 565.701 278.795C566.071 279.162 566.278 279.659 566.278 280.177C566.278 280.695 566.071 281.192 565.701 281.559C565.331 281.925 564.83 282.131 564.307 282.131H562.337ZM574.162 272.36H580.074L576.133 280.177H580.074L572.684 293.857L574.162 284.086H569.235L574.162 272.36Z" fill="#1B4DED"/>
<path d="M156.055 293.234L154.301 289.591L152.533 293.234L149.097 294.898L152.533 296.563L154.301 300.205L156.055 296.563L159.49 294.898L156.055 293.234Z" fill="#1B4DED"/>
<path d="M401.417 255.23L396.456 245L391.509 255.23L381.843 259.911L391.509 264.606L396.456 274.836L401.417 264.606L411.068 259.911L401.417 255.23Z" fill="#1B4DED"/>
<path d="M127.273 472.99L122.312 462.761L117.365 472.99L107.699 477.671L117.365 482.366L122.312 492.596L127.273 482.366L136.924 477.671L127.273 472.99Z" fill="#1B4DED"/>
<path d="M510.5 442.659L508.733 439.031L506.965 442.659L503.529 444.323L506.965 446.002L508.733 449.63L510.5 446.002L513.936 444.323L510.5 442.659Z" fill="#1B4DED"/>
<path d="M158.03 611.562L156.262 607.934L154.495 611.562L151.059 613.227L154.495 614.906L156.262 618.534L158.03 614.906L161.466 613.227L158.03 611.562Z" fill="#1B4DED"/>
<path d="M813.555 619.835L810.489 613.518L807.424 619.835L801.451 622.738L807.424 625.64L810.489 631.957L813.555 625.64L819.528 622.738L813.555 619.835Z" fill="#1B4DED"/>
<path d="M104.901 145.891V173.53H112.454V196.144L130.078 165.992H120.007L130.078 145.891H104.901Z" fill="#1B4DED"/>
<path d="M552.484 546.515C552.484 543.553 551.305 540.713 549.206 538.619C547.108 536.524 544.262 535.348 541.294 535.348C538.326 535.348 535.48 536.524 533.382 538.619C531.283 540.713 530.105 543.553 530.105 546.515C530.105 549.477 531.283 552.317 533.382 554.411C535.48 556.506 538.326 557.682 541.294 557.682C544.262 557.682 547.108 556.506 549.206 554.411C551.305 552.317 552.484 549.477 552.484 546.515ZM555.281 546.515C555.281 550.217 553.807 553.768 551.184 556.385C548.561 559.003 545.004 560.474 541.294 560.474C539.457 560.474 537.638 560.113 535.941 559.411C534.245 558.71 532.703 557.682 531.404 556.385C528.781 553.768 527.307 550.217 527.307 546.515C527.307 542.813 528.781 539.262 531.404 536.644C534.027 534.027 537.584 532.556 541.294 532.556C543.131 532.556 544.95 532.917 546.647 533.618C548.344 534.32 549.885 535.348 551.184 536.644C552.483 537.941 553.513 539.479 554.216 541.173C554.919 542.867 555.281 544.682 555.281 546.515ZM546.189 540.931C547.308 540.931 548.287 541.908 548.287 543.025C548.287 544.142 547.308 545.119 546.189 545.119C545.071 545.119 544.091 544.142 544.091 543.025C544.091 541.908 545.071 540.931 546.189 540.931ZM538.497 543.025C538.497 544.142 537.518 545.119 536.399 545.119C535.28 545.119 534.301 544.142 534.301 543.025C534.301 541.908 535.28 540.931 536.399 540.931C537.518 540.931 538.497 541.908 538.497 543.025ZM541.294 549.307C543.742 549.307 545.896 550.312 547.155 551.833L545.168 553.816C544.539 552.797 543.042 552.099 541.294 552.099C539.546 552.099 538.049 552.797 537.42 553.816L535.434 551.833C536.692 550.312 538.846 549.307 541.294 549.307Z" fill="#1B4DED"/>
<path d="M402.263 351.554C401.447 351.554 400.664 351.232 400.087 350.658C399.51 350.085 399.186 349.307 399.186 348.496C399.186 347.685 399.51 346.907 400.087 346.334C400.664 345.761 401.447 345.438 402.263 345.438C403.079 345.438 403.862 345.761 404.439 346.334C405.016 346.907 405.34 347.685 405.34 348.496C405.34 349.307 405.016 350.085 404.439 350.658C403.862 351.232 403.079 351.554 402.263 351.554ZM406.11 354.611L408.417 350.025L410.725 354.611H406.11ZM414.572 351.554C413.756 351.554 412.973 351.232 412.396 350.658C411.819 350.085 411.495 349.307 411.495 348.496C411.495 347.685 411.819 346.907 412.396 346.334C412.973 345.761 413.756 345.438 414.572 345.438C415.388 345.438 416.171 345.761 416.748 346.334C417.325 346.907 417.649 347.685 417.649 348.496C417.649 349.307 417.325 350.085 416.748 350.658C416.171 351.232 415.388 351.554 414.572 351.554ZM423.803 345.438C423.803 341.384 422.182 337.495 419.297 334.628C416.411 331.761 412.498 330.15 408.417 330.15C406.397 330.15 404.396 330.545 402.53 331.314C400.663 332.082 398.967 333.208 397.538 334.628C394.653 337.495 393.032 341.384 393.032 345.438C393.032 349.719 394.878 353.541 397.648 356.293V362.256H419.187V356.293C421.957 353.541 423.803 349.719 423.803 345.438ZM416.11 359.198H413.033V356.14H409.956V359.198H406.879V356.14H403.802V359.198H400.725V354.917C397.955 352.624 396.109 349.26 396.109 345.438C396.109 342.195 397.406 339.084 399.714 336.79C402.022 334.496 405.153 333.208 408.417 333.208C411.682 333.208 414.813 334.496 417.121 336.79C419.429 339.084 420.726 342.195 420.726 345.438C420.726 349.26 418.88 352.777 416.11 354.917V359.198Z" fill="#1B4DED"/>
<path d="M358.065 119.369H179.032C179.032 119.369 185.303 101.725 212.145 107.18C230.934 68.0546 273.905 56.3483 298.966 91.2982C343.742 85.3364 358.065 119.369 358.065 119.369Z" fill="#1B4DED"/>
<line x1="289.62" y1="139.01" x2="289.62" y2="152.928" stroke="#1B4DED" stroke-width="2" stroke-linecap="round"/>
<line x1="289.62" y1="173.5" x2="289.62" y2="187.419" stroke="#1B4DED" stroke-width="2" stroke-linecap="round"/>
<line x1="289.62" y1="215.95" x2="289.62" y2="229.868" stroke="#1B4DED" stroke-width="2" stroke-linecap="round"/>
<line x1="310.887" y1="161.561" x2="310.887" y2="175.48" stroke="#1B4DED" stroke-width="2" stroke-linecap="round"/>
<line x1="310.887" y1="196.051" x2="310.887" y2="209.97" stroke="#1B4DED" stroke-width="2" stroke-linecap="round"/>
<line x1="310.887" y1="238.501" x2="310.887" y2="252.42" stroke="#1B4DED" stroke-width="2" stroke-linecap="round"/>
<line x1="256.389" y1="162.888" x2="256.389" y2="176.806" stroke="#1B4DED" stroke-width="2" stroke-linecap="round"/>
<line x1="256.39" y1="197.378" x2="256.39" y2="211.297" stroke="#1B4DED" stroke-width="2" stroke-linecap="round"/>
<line x1="256.39" y1="239.828" x2="256.39" y2="253.746" stroke="#1B4DED" stroke-width="2" stroke-linecap="round"/>
<line x1="229.805" y1="140.336" x2="229.805" y2="154.255" stroke="#1B4DED" stroke-width="2" stroke-linecap="round"/>
<line x1="229.806" y1="174.827" x2="229.806" y2="188.745" stroke="#1B4DED" stroke-width="2" stroke-linecap="round"/>
<line x1="229.806" y1="217.276" x2="229.806" y2="231.195" stroke="#1B4DED" stroke-width="2" stroke-linecap="round"/>
</g>
<defs>
<linearGradient id="paint0_linear" x1="66.0765" y1="897.047" x2="-83.1716" y2="835.182" gradientUnits="userSpaceOnUse">
<stop stop-color="#87F0B2"/>
<stop offset="1" stop-color="#2DC9B2"/>
</linearGradient>
<linearGradient id="paint1_linear" x1="87.3985" y1="957.681" x2="13.7098" y2="864.103" gradientUnits="userSpaceOnUse">
<stop stop-color="#87F0B2"/>
<stop offset="1" stop-color="#2DC9B2"/>
</linearGradient>
<linearGradient id="paint2_linear" x1="958.158" y1="878.945" x2="1113.04" y2="925.074" gradientUnits="userSpaceOnUse">
<stop stop-color="#87F0B2"/>
<stop offset="1" stop-color="#2DC9B2"/>
</linearGradient>
<linearGradient id="paint3_linear" x1="903.341" y1="912.653" x2="1019.68" y2="886.363" gradientUnits="userSpaceOnUse">
<stop stop-color="#87F0B2"/>
<stop offset="1" stop-color="#2DC9B2"/>
</linearGradient>
</defs>
</svg>
