<svg width="1266" height="832" viewBox="0 0 1266 832" fill="none" xmlns="http://www.w3.org/2000/svg">
<g clip-path="url(#clip0_2723_29329)">
<rect x="-150" width="1572" height="916" fill="white"/>
<path opacity="0.5" d="M397.048 188.685C369.72 89.5123 246.573 57.5693 175.986 131.682C174.972 132.749 173.959 133.834 172.945 134.937C71.7754 244.959 119.569 516.083 330.727 584.806C541.886 653.53 761.526 528.035 773.865 415.861C786.205 303.687 688.787 268.436 537.601 299.81C452.202 317.524 414.064 250.419 397.048 188.685Z" fill="#E5EEFF"/>
<path opacity="0.5" d="M572.717 205.652C544.464 210.259 536.64 235.283 558.457 253.051C565.676 258.92 575.97 263.794 590.639 266.23C646.523 275.497 676.18 250.775 653.777 218.707C639.926 198.929 600.703 201.082 572.717 205.652Z" fill="#E5EEFF"/>
<path opacity="0.5" d="M135.464 408.32C121.596 383.278 95.3875 384.362 86.035 410.899C82.9413 419.667 81.8389 431.014 84.5059 445.652C94.6585 501.392 127.943 520.956 150.542 489.049C164.499 469.324 149.208 433.131 135.464 408.32Z" fill="#E5EEFF"/>
<path opacity="0.5" d="M793.797 428.898C791.201 442.521 802.438 452.179 815.186 446.932C819.4 445.189 823.65 441.846 827.437 435.959C841.839 413.549 834.549 394.322 814.493 396.297C802.118 397.506 796.375 415.381 793.797 428.898Z" fill="#E5EEFF"/>
<path opacity="0.5" d="M722.373 285.065C735.958 287.893 745.79 276.813 740.758 263.972C739.087 259.721 735.815 255.417 730.001 251.539C707.847 236.76 688.502 243.714 690.138 263.811C691.151 276.226 708.914 282.255 722.373 285.065Z" fill="#E5EEFF"/>
<path opacity="0.5" d="M392.336 139.223C403.093 147.991 416.926 142.674 418.366 128.961C418.846 124.425 417.922 119.09 414.543 112.972C401.671 89.6368 381.294 86.9334 373.507 105.519C368.67 116.991 381.668 130.544 392.336 139.223Z" fill="#E5EEFF"/>
<path opacity="0.2" d="M1278.6 864.461C1275.73 864.456 1272.89 865.017 1270.24 866.111C1267.6 867.205 1265.19 868.81 1263.16 870.835C1262.45 866.759 1260.77 862.914 1258.25 859.624C1255.74 856.334 1252.48 853.695 1248.74 851.928C1244.99 850.162 1240.88 849.321 1236.75 849.475C1232.61 849.63 1228.57 850.775 1224.97 852.815C1223.28 846.158 1220.15 839.949 1215.82 834.616C1211.49 829.284 1206.05 824.955 1199.88 821.93C1193.72 818.905 1186.96 817.255 1180.1 817.094C1173.23 816.933 1166.41 818.266 1160.1 820.999C1160.2 819.686 1160.26 818.354 1160.26 817.003C1160.26 807.494 1157.93 798.129 1153.49 789.722C1149.05 781.315 1142.62 774.121 1134.76 768.764C1126.91 763.408 1117.86 760.051 1108.41 758.987C1098.96 757.923 1089.4 759.182 1080.54 762.657C1079.47 756.318 1076.97 750.306 1073.23 745.076C1069.5 739.846 1064.62 735.535 1058.97 732.47C1053.32 729.404 1047.04 727.664 1040.62 727.382C1034.2 727.1 1027.79 728.282 1021.9 730.84C1019.48 718.687 1013.19 707.644 1003.96 699.366C994.742 691.088 983.086 686.021 970.742 684.924C958.399 683.827 946.032 686.758 935.494 693.28C924.957 699.801 916.816 709.561 912.291 721.098C905.44 721.249 898.733 723.092 892.767 726.464C889.249 719.969 884.064 714.529 877.747 710.703C871.429 706.877 864.205 704.803 856.82 704.695C849.435 704.586 842.154 706.447 835.726 710.086C829.298 713.725 823.956 719.01 820.249 725.398C815.716 720.745 810.155 717.218 804.012 715.103C797.87 712.987 791.317 712.341 784.88 713.216C778.443 714.092 772.3 716.464 766.946 720.142C761.591 723.821 757.173 728.704 754.047 734.399C752.435 732.397 750.432 730.744 748.161 729.541C745.889 728.338 743.396 727.61 740.834 727.402C738.272 727.194 735.695 727.509 733.259 728.329C730.823 729.149 728.579 730.457 726.665 732.172C727.743 730.077 728.304 727.755 728.301 725.398C728.301 723.432 727.914 721.484 727.161 719.667C726.409 717.85 725.306 716.199 723.915 714.809C722.524 713.418 720.874 712.315 719.057 711.563C717.24 710.81 715.292 710.423 713.326 710.423C712.888 710.423 712.45 710.423 712.032 710.423C712.88 708.498 713.321 706.418 713.326 704.314C713.326 700.67 711.996 697.151 709.586 694.418C707.175 691.685 703.85 689.926 700.234 689.472C702.746 686.795 704.188 683.289 704.285 679.62C704.382 675.95 703.128 672.373 700.762 669.567C698.395 666.761 695.08 664.922 691.447 664.4C687.813 663.877 684.114 664.707 681.053 666.732C679.792 663.818 677.701 661.338 675.041 659.604C672.381 657.869 669.269 656.956 666.093 656.979C662.918 657.001 659.819 657.958 657.183 659.729C654.548 661.501 652.492 664.009 651.273 666.942C649.798 665.095 647.906 663.624 645.752 662.65C643.598 661.677 641.244 661.228 638.883 661.341C636.522 661.455 634.222 662.127 632.171 663.302C630.121 664.477 628.378 666.123 627.087 668.102H625.565C624.425 666.357 622.932 664.869 621.183 663.734C619.434 662.599 617.466 661.843 615.408 661.513C613.349 661.183 611.244 661.288 609.228 661.82C607.212 662.351 605.329 663.299 603.701 664.601C602.306 662.122 600.233 660.093 597.725 658.75C595.217 657.408 592.379 656.808 589.542 657.022C586.706 657.236 583.989 658.254 581.711 659.957C579.433 661.66 577.688 663.977 576.68 666.637C574.44 665.18 571.851 664.351 569.182 664.235C566.513 664.119 563.861 664.721 561.504 665.978C559.147 667.236 557.17 669.102 555.779 671.384C554.389 673.665 553.635 676.277 553.598 678.949C552.412 678.635 551.19 678.475 549.963 678.473C547.48 678.472 545.035 679.089 542.85 680.269C540.664 681.448 538.807 683.154 537.446 685.231C536.084 687.308 535.262 689.691 535.052 692.166C534.842 694.64 535.251 697.128 536.244 699.405C535.825 699.405 535.406 699.405 534.988 699.405C533.021 699.405 531.074 699.792 529.257 700.545C527.44 701.297 525.789 702.4 524.398 703.791C523.008 705.182 521.905 706.833 521.152 708.65C520.399 710.467 520.012 712.414 520.012 714.381C520.003 716.339 520.385 718.28 521.135 720.089C518.99 719.709 516.787 719.806 514.684 720.373C512.58 720.941 510.628 721.965 508.965 723.374C507.303 724.782 505.971 726.539 505.065 728.52C504.159 730.501 503.701 732.658 503.723 734.837C503.718 735.847 503.82 736.854 504.028 737.843C501.097 736.347 497.822 735.654 494.537 735.835C491.251 736.015 488.072 737.063 485.322 738.871C480.408 731.718 473.367 726.294 465.197 723.367C457.028 720.44 448.144 720.158 439.806 722.563C440.064 720.913 440.197 719.247 440.205 717.577C440.227 711.562 438.652 705.648 435.641 700.44C432.63 695.232 428.291 690.917 423.066 687.935C417.841 684.953 411.919 683.412 405.904 683.468C399.888 683.524 393.996 685.175 388.827 688.254C384.821 678.22 377.746 669.708 368.614 663.934C359.481 658.16 348.758 655.419 337.975 656.103C327.192 656.786 316.9 660.86 308.57 667.741C300.24 674.622 294.297 683.959 291.59 694.419C284.06 690.629 275.555 689.22 267.204 690.378C258.854 691.537 251.054 695.209 244.84 700.907C238.627 706.604 234.293 714.057 232.417 722.276C230.54 730.495 231.208 739.09 234.332 746.92C227.207 748.381 220.72 752.041 215.784 757.383C210.848 762.726 207.711 769.482 206.817 776.7C201.778 773.999 196.15 772.586 190.433 772.59C185.866 772.59 181.343 773.49 177.124 775.238C172.905 776.986 169.072 779.549 165.843 782.779C162.615 786.009 160.054 789.844 158.308 794.064C156.562 798.284 155.665 802.807 155.667 807.374C155.659 811.26 156.303 815.119 157.57 818.792C151.442 821.53 146.238 825.985 142.588 831.618C138.938 837.25 136.997 843.82 137 850.532C136.999 855.84 138.217 861.078 140.559 865.842C142.902 870.606 146.306 874.768 150.51 878.009C152.559 882.137 155.72 885.61 159.637 888.038C163.554 890.465 168.071 891.75 172.679 891.748C173.665 891.743 174.65 891.679 175.628 891.558V891.748H1140.22C1144.59 897.956 1150.38 903.024 1157.12 906.527C1163.85 910.03 1171.33 911.865 1178.92 911.878C1186.51 911.891 1193.99 910.082 1200.74 906.602C1207.48 903.122 1213.29 898.074 1217.68 891.881C1220.11 894.811 1223.14 897.172 1226.58 898.796C1230.02 900.42 1233.77 901.268 1237.57 901.279C1241.37 901.29 1245.13 900.464 1248.58 898.859C1252.02 897.255 1255.07 894.911 1257.51 891.995C1258.57 895.931 1260.71 899.491 1263.69 902.273C1266.67 905.054 1270.37 906.947 1274.37 907.737C1278.37 908.527 1282.51 908.182 1286.32 906.742C1290.14 905.301 1293.47 902.823 1295.95 899.587C1298.43 896.351 1299.95 892.486 1300.34 888.429C1300.74 884.372 1299.99 880.285 1298.19 876.631C1296.38 872.976 1293.59 869.9 1290.13 867.749C1286.67 865.598 1282.67 864.459 1278.6 864.461V864.461Z" fill="#75A2FF"/>
<path opacity="0.15" d="M1069.99 864.233C1072.92 850.527 1070.73 836.22 1063.81 824.028C1056.9 811.835 1045.75 802.604 1032.48 798.087C1019.21 793.569 1004.75 794.079 991.829 799.52C978.911 804.96 968.44 814.953 962.401 827.602C958.761 818.033 952.299 809.795 943.871 803.98C935.444 798.166 925.449 795.05 915.21 795.044C914.087 795.044 913.003 795.044 911.918 795.177C907.673 781.306 899.524 768.95 888.445 759.586C877.367 750.222 863.826 744.246 849.441 742.372C835.057 740.498 820.437 742.804 807.328 749.017C794.22 755.229 783.177 765.084 775.519 777.404C768.491 773.818 760.719 771.929 752.829 771.89C744.938 771.85 737.148 773.661 730.084 777.176C723.02 780.692 716.878 785.814 712.151 792.133C707.425 798.451 704.245 805.789 702.867 813.559C694.339 805.987 683.494 801.532 672.106 800.92C660.718 800.308 649.458 803.576 640.167 810.191C634.367 803.157 626.772 797.824 618.186 794.758C609.6 791.693 600.344 791.008 591.401 792.778C582.457 794.547 574.159 798.705 567.388 804.809C560.617 810.914 555.624 818.737 552.939 827.45C547.437 821.472 540.753 816.703 533.311 813.444C525.869 810.184 517.831 808.506 509.706 808.516C504.57 808.474 499.451 809.114 494.483 810.419C488.912 799.42 480.018 790.456 469.063 784.8C458.109 779.143 445.65 777.081 433.457 778.907C422.753 768.491 408.483 762.542 393.549 762.27C378.615 761.998 364.138 767.423 353.061 777.442C342.662 774.404 331.626 774.304 321.174 777.152C310.722 780 301.263 785.685 293.843 793.579C288.84 784.147 281.363 776.257 272.214 770.756C263.065 765.254 252.589 762.349 241.913 762.352H241.495C236.035 745.84 225.017 731.733 210.319 722.436C195.622 713.14 178.154 709.229 160.895 711.37C143.637 713.512 127.655 721.574 115.675 734.181C103.696 746.788 96.4596 763.16 95.2012 780.506C94.1737 780.506 93.1652 780.506 92.1186 780.506C75.3767 780.511 59.3223 787.165 47.4858 799.005C35.6494 810.845 29 826.902 29 843.643C29.0151 860.377 35.6744 876.42 47.5139 888.245C59.3534 900.07 75.4041 906.71 92.1376 906.705C106.525 906.729 120.484 901.811 131.679 892.776H422.954C434.038 896.6 446.012 897.024 457.339 893.994C462.313 903.767 469.922 911.955 479.304 917.633C488.687 923.311 499.47 926.253 510.436 926.126C521.402 926 532.115 922.81 541.364 916.917C550.612 911.023 558.03 902.662 562.777 892.776H640.795C649.241 898.647 659.281 901.794 669.567 901.794C679.853 901.794 689.893 898.647 698.339 892.776H897.475C908.903 897.063 921.498 897.063 932.926 892.776H973.628C982.496 901.63 994.031 907.321 1006.45 908.969C1006.34 910.238 1006.28 911.551 1006.28 912.908C1006.27 922.326 1008.9 931.558 1013.86 939.561C1018.83 947.564 1025.93 954.019 1034.37 958.197C1042.81 962.375 1052.25 964.108 1061.62 963.202C1071 962.296 1079.93 958.785 1087.41 953.068C1094.9 947.35 1100.63 939.654 1103.97 930.848C1107.31 922.042 1108.12 912.478 1106.3 903.236C1104.49 893.995 1100.13 885.445 1093.71 878.552C1087.3 871.66 1079.08 866.7 1069.99 864.233V864.233Z" fill="#0053FF"/>
<path d="M1014.16 306.734L1012.35 303L1010.53 306.734L1007 308.447L1010.53 310.175L1012.35 313.909L1014.16 310.175L1017.69 308.447L1014.16 306.734Z" fill="#C8C6F4"/>
<path d="M1175.16 232.734L1173.35 229L1171.53 232.734L1168 234.447L1171.53 236.175L1173.35 239.909L1175.16 236.175L1178.69 234.447L1175.16 232.734Z" fill="#C8C6F4"/>
<path d="M455.161 238.734L453.345 235L451.529 238.734L448 240.447L451.529 242.175L453.345 245.909L455.161 242.175L458.691 240.447L455.161 238.734Z" fill="#C8C6F4"/>
<path d="M90.1613 201.734L88.3453 198L86.5294 201.734L83 203.447L86.5294 205.175L88.3453 208.909L90.1613 205.175L93.6906 203.447L90.1613 201.734Z" fill="#C8C6F4"/>
<path d="M206.161 64.734L204.345 60.9999L202.529 64.734L199 66.4472L202.529 68.1751L204.345 71.9091L206.161 68.1751L209.691 66.4472L206.161 64.734Z" fill="#C8C6F4"/>
<path d="M444.161 331.734L442.345 328L440.529 331.734L437 333.447L440.529 335.175L442.345 338.909L444.161 335.175L447.691 333.447L444.161 331.734Z" fill="#C8C6F4"/>
<path d="M297.161 184.734L295.345 181L293.529 184.734L290 186.447L293.529 188.175L295.345 191.909L297.161 188.175L300.691 186.447L297.161 184.734Z" fill="#C8C6F4"/>
<path d="M1161.43 279.502L1158.28 273L1155.14 279.502L1149 282.489L1155.14 285.476L1158.28 291.978L1161.43 285.476L1167.57 282.489L1161.43 279.502Z" fill="#C8C6F4"/>
<path d="M1007.43 48.5016L1004.28 42L1001.14 48.5016L995 51.4888L1001.14 54.476L1004.28 60.9776L1007.43 54.476L1013.57 51.4888L1007.43 48.5016Z" fill="#C8C6F4"/>
<path d="M460.433 365.502L457.285 359L454.136 365.502L448 368.489L454.136 371.476L457.285 377.978L460.433 371.476L466.57 368.489L460.433 365.502Z" fill="#C8C6F4"/>
<path d="M231.433 433.502L228.285 427L225.136 433.502L219 436.489L225.136 439.476L228.285 445.978L231.433 439.476L237.57 436.489L231.433 433.502Z" fill="#C8C6F4"/>
<path d="M653.494 782.069L652.216 813.845C652.216 813.845 684.173 825.98 684.492 831.888L622.496 831.409V781.749L653.494 782.069Z" fill="#FFE000"/>
<path d="M633.362 811.13C632.775 811.371 632.285 811.8 631.967 812.348C631.649 812.897 631.521 813.536 631.604 814.164C631.789 814.756 632.183 815.26 632.712 815.583C633.241 815.906 633.869 816.026 634.48 815.921C635.115 815.735 635.659 815.324 636.012 814.765C636.365 814.207 636.502 813.539 636.398 812.887C635.918 811.609 634.321 810.651 633.202 811.29" fill="#FF4D4D"/>
<path d="M622.496 831.409V826.459L682.415 828.695C682.415 828.695 685.291 829.972 684.971 831.889L622.496 831.409Z" fill="#FF4D4D"/>
<path d="M652.695 814.164C652.695 814.483 651.257 814.483 649.66 815.442C648.062 816.4 647.423 817.837 647.103 817.677C646.783 817.517 647.263 815.761 649.18 814.643C651.098 813.525 652.855 813.845 652.695 814.164Z" fill="#FF4D4D"/>
<path d="M659.247 816.879C659.247 817.198 657.968 817.677 657.01 818.954C656.051 820.232 655.571 821.669 655.252 821.509C654.932 821.35 654.773 819.913 656.211 818.316C657.649 816.719 659.247 816.559 659.247 816.879Z" fill="#FF4D4D"/>
<path d="M662.921 824.703C662.602 824.863 662.282 823.266 663.081 821.669C663.88 820.072 665.318 819.274 665.318 819.593C665.318 819.913 664.679 820.711 664.04 821.988C663.401 823.266 663.241 824.703 662.921 824.703Z" fill="#FF4D4D"/>
<path d="M652.216 806.819C652.056 806.979 650.778 806.659 649.021 806.659C647.263 806.659 645.985 807.298 645.825 807.138C645.665 806.979 646.943 805.701 648.861 805.701C650.778 805.701 652.376 806.5 652.216 806.819Z" fill="#FF4D4D"/>
<path d="M653.335 799.953C652.325 800.144 651.283 800.089 650.299 799.793L646.943 798.835L645.186 797.877C644.792 797.715 644.457 797.437 644.227 797.078C644.046 796.852 643.947 796.57 643.947 796.28C643.947 795.99 644.046 795.708 644.227 795.482C644.366 795.273 644.557 795.104 644.781 794.992C645.006 794.88 645.255 794.829 645.505 794.843H646.624L648.541 795.482C649.594 795.968 650.564 796.614 651.417 797.398C652.2 798.132 652.849 798.997 653.335 799.953C653.175 800.112 652.376 799.154 650.938 798.037C650.136 797.345 649.216 796.804 648.222 796.44L646.464 795.801C645.825 795.641 645.186 795.641 645.026 795.961V796.28L645.825 796.759C646.281 797.191 646.827 797.518 647.423 797.717C648.387 798.25 649.404 798.678 650.459 798.995C651.448 799.214 652.412 799.535 653.335 799.953V799.953Z" fill="#2CD2AD"/>
<path d="M653.015 800.272C652.855 800.432 652.216 799.314 652.216 797.238C652.161 796.1 652.323 794.962 652.696 793.885C652.893 793.22 653.161 792.577 653.494 791.969C653.651 791.561 653.909 791.2 654.245 790.921C654.581 790.641 654.982 790.452 655.412 790.372C655.696 790.388 655.969 790.487 656.196 790.657C656.424 790.828 656.596 791.062 656.69 791.33C656.92 791.656 657.033 792.05 657.01 792.448C657.173 793.13 657.173 793.841 657.01 794.524C656.941 795.699 656.493 796.819 655.731 797.717C654.453 799.474 653.175 799.793 653.175 799.633C653.175 799.474 654.134 798.835 655.092 797.398C655.625 796.467 655.952 795.432 656.051 794.364C656.215 793.79 656.215 793.182 656.051 792.608C655.891 791.969 655.731 791.49 655.412 791.49C655.092 791.49 654.613 791.969 654.293 792.448L653.494 794.204C653.203 795.191 653.042 796.21 653.015 797.238C652.855 799.154 653.175 800.272 653.015 800.272Z" fill="#2CD2AD"/>
<g opacity="0.3">
<path opacity="0.3" d="M622.496 800.751V807.937H652.376L652.695 800.751H622.496Z" fill="black"/>
</g>
<path d="M574.721 779.993L572.484 832.367L544.203 831.729L546.28 779.195L574.721 779.993Z" fill="#FFE000"/>
<path d="M572.644 828.855L544.362 828.056L544.203 831.729L572.484 832.367L572.644 828.855Z" fill="#FF4D4D"/>
<g opacity="0.3">
<path opacity="0.3" d="M545.641 794.204L545.481 799.953L573.922 800.432L574.082 796.12L545.641 794.204Z" fill="black"/>
</g>
<path d="M592.617 578.159L583.509 666.461L576.958 799.154H541.806L540.847 516.523L641.191 523.708L662.123 672.05L657.968 801.869H619.461L614.507 678.437L592.617 578.159Z" fill="#0053FF"/>
<path d="M619.461 672.05C620.416 672.685 621.433 673.22 622.497 673.647C627.519 675.765 633.139 675.992 638.315 674.285C640.233 673.647 641.351 673.008 641.192 672.848C637.714 674.116 634.027 674.712 630.326 674.605C624.095 674.445 619.621 671.731 619.461 672.05Z" fill="#0053FF"/>
<path d="M600.446 374.888L561.14 374.409L565.454 341.994C565.454 341.994 562.897 341.515 562.737 327.304C562.578 313.092 561.779 289.3 561.779 289.3C570.096 285.88 579.153 284.657 588.08 285.748C597.007 286.838 605.502 290.206 612.75 295.528L614.987 297.124L600.446 374.888Z" fill="#FFCFC5"/>
<path d="M610.353 314.529C610.673 314.37 620.419 311.655 620.1 321.236C619.78 330.817 609.714 328.581 609.714 328.262C609.714 327.942 610.353 314.529 610.353 314.529Z" fill="#FFCFC5"/>
<path d="M563.536 312.453C563.217 312.294 554.429 310.058 554.748 319.639C555.068 329.22 564.974 326.984 564.974 326.665L563.536 312.453Z" fill="#FFCFC5"/>
<path d="M613.549 313.412C612.111 321.395 612.43 325.707 610.992 331.136C608.755 339.599 604.441 346.146 596.452 350.457C588.463 354.768 577.757 354.609 570.886 348.86C564.016 343.112 562.737 340.238 562.098 334.17C561.459 328.102 560.66 317.404 560.66 311.336C560.5 300.318 559.861 289.779 559.861 289.779L592.297 284.19L610.832 294.729L613.549 313.412Z" fill="#2CD2AD"/>
<path d="M579.994 355.247C581.848 355.849 583.817 356.013 585.746 355.726C587.664 355.669 589.535 355.119 591.178 354.13C591.019 353.81 588.622 354.609 585.586 354.928C582.55 355.247 579.994 354.928 579.994 355.247Z" fill="#2CD2AD"/>
<path d="M611.95 327.144C612.909 318.841 613.548 309.42 614.986 300.637C615.466 297.444 616.584 292.653 616.265 289.46C616.222 286.108 615.516 282.797 614.187 279.719C613.194 277.83 611.788 276.189 610.073 274.917C608.358 273.646 606.378 272.776 604.281 272.374C602.183 271.98 600.024 272.047 597.954 272.571C595.885 273.095 593.954 274.063 592.297 275.408C591.028 273.716 589.298 272.426 587.315 271.689C585.332 270.953 583.179 270.803 581.112 271.256C579.067 271.7 577.2 272.741 575.749 274.248C574.297 275.755 573.328 277.66 572.963 279.719C571.776 278.673 570.295 278.019 568.721 277.848C567.148 277.676 565.56 277.995 564.175 278.761C562.829 279.592 561.779 280.827 561.176 282.289C560.574 283.752 560.449 285.367 560.82 286.905C559.685 287.1 558.614 287.564 557.697 288.259C556.779 288.954 556.042 289.858 555.547 290.897C555.073 291.941 554.869 293.088 554.953 294.231C555.037 295.375 555.406 296.479 556.026 297.444C557.624 299.679 560.34 300.957 561.938 303.032C562.876 304.255 563.423 305.732 563.509 307.27C563.594 308.808 563.214 310.336 562.417 311.655" fill="#2CD2AD"/>
<path d="M566.892 297.284C566.732 297.284 566.892 297.603 567.211 298.082C567.619 298.957 568.289 299.683 569.129 300.158C569.701 300.637 570.363 300.997 571.077 301.217C571.79 301.436 572.54 301.511 573.283 301.436C574.268 301.444 575.245 301.25 576.152 300.865C577.059 300.481 577.877 299.914 578.556 299.2L577.917 298.881C578.178 299.995 578.708 301.028 579.46 301.89C580.212 302.753 581.163 303.419 582.231 303.831C583.45 304.227 584.743 304.346 586.014 304.181C587.286 304.015 588.504 303.568 589.581 302.873C591.473 301.583 592.923 299.743 593.735 297.603H592.936C593.761 298.787 594.861 299.754 596.141 300.421C597.42 301.089 598.843 301.437 600.287 301.436C601.409 301.476 602.528 301.284 603.573 300.872C604.618 300.46 605.566 299.836 606.358 299.04C607.472 298.053 608.3 296.785 608.755 295.368C608.848 294.84 608.902 294.307 608.915 293.771C608.755 293.771 608.755 294.41 608.435 295.208C607.777 296.837 606.652 298.235 605.203 299.229C603.754 300.223 602.044 300.768 600.287 300.797C598.971 300.697 597.691 300.318 596.534 299.685C595.377 299.052 594.368 298.179 593.576 297.124L593.096 296.326L592.777 297.284C592.08 299.182 590.792 300.805 589.102 301.915C588.172 302.6 587.089 303.046 585.946 303.213C584.803 303.38 583.637 303.263 582.551 302.873C581.593 302.566 580.726 302.025 580.029 301.301C579.332 300.576 578.826 299.69 578.556 298.721V297.923L578.077 298.402C577.501 299.075 576.792 299.621 575.995 300.006C575.197 300.391 574.328 300.606 573.443 300.637C572.041 300.778 570.633 300.441 569.448 299.679C568.419 299.093 567.543 298.273 566.892 297.284Z" fill="#0053FF"/>
<path d="M566.892 293.452C567.104 292.188 567.595 290.988 568.33 289.939C569.108 288.779 570.314 287.975 571.685 287.703C572.532 287.509 573.41 287.494 574.263 287.659C575.116 287.824 575.925 288.165 576.638 288.661L577.437 289.14V288.182C577.317 287.265 577.427 286.332 577.757 285.468C578.071 284.484 578.589 283.577 579.277 282.807C579.965 282.036 580.809 281.419 581.751 280.997C583.307 280.303 585.045 280.135 586.705 280.518C588.268 280.991 589.731 281.749 591.019 282.753L590.22 281.795C589.31 280.927 588.219 280.273 587.024 279.879C585.169 279.436 583.225 279.547 581.432 280.198C580.355 280.651 579.385 281.326 578.587 282.179C577.788 283.032 577.179 284.044 576.798 285.148C576.457 286.176 576.348 287.267 576.479 288.342L577.118 287.863C575.439 286.856 573.444 286.514 571.525 286.905C569.993 287.297 568.675 288.271 567.85 289.619C567.286 290.433 566.904 291.359 566.732 292.334C566.706 292.714 566.761 293.094 566.892 293.452Z" fill="#0053FF"/>
<path d="M587.664 293.771C587.823 293.611 587.664 293.132 587.664 292.334C587.735 291.31 588.065 290.321 588.622 289.46L590.54 287.064C591.019 286.426 591.498 286.905 591.658 286.745L591.339 286.426H590.22C589.808 286.757 589.433 287.132 589.102 287.544C588.641 288.008 588.262 288.548 587.983 289.14C587.278 290.049 586.936 291.187 587.024 292.334C587.184 293.292 587.504 293.771 587.664 293.771Z" fill="#0053FF"/>
<path d="M606.997 281.635C606.947 281.003 606.726 280.396 606.358 279.879C605.97 279.271 605.484 278.732 604.92 278.282C604.076 277.877 603.136 277.711 602.204 277.803C600.624 278.085 599.202 278.938 598.209 280.198C597.785 280.66 597.459 281.203 597.25 281.795L598.689 280.518C599.743 279.595 601.003 278.938 602.364 278.602C603.033 278.576 603.7 278.708 604.31 278.985C604.92 279.262 605.457 279.678 605.879 280.198C606.518 280.997 606.837 281.635 606.997 281.635Z" fill="#0053FF"/>
<path d="M601.885 322.354C604.789 318.657 606.415 314.118 606.518 309.42C606.199 309.42 605.719 312.453 604.441 315.966C603.163 319.479 601.565 322.354 601.885 322.354Z" fill="#0053FF"/>
<path d="M597.57 324.749C598.643 323.422 599.456 321.905 599.967 320.278C600.926 317.723 601.405 315.647 601.085 315.487C600.301 316.988 599.607 318.534 599.008 320.118C598.049 322.513 597.251 324.589 597.57 324.749Z" fill="#0053FF"/>
<path d="M570.088 325.387C569.668 328.257 570.056 331.187 571.206 333.85C572.153 336.616 573.872 339.054 576.159 340.876C574.581 338.542 573.192 336.086 572.005 333.531C570.407 329.22 570.407 325.387 570.088 325.387Z" fill="#0053FF"/>
<path d="M565.773 318.361C565.454 318.202 564.335 321.715 565.134 326.026C565.472 328.62 566.651 331.031 568.49 332.892C567.411 330.639 566.555 328.286 565.933 325.866C565.548 323.383 565.494 320.859 565.773 318.361V318.361Z" fill="#0053FF"/>
<path d="M510.009 452.492V490.815C509.946 492.139 510.221 493.458 510.808 494.647C515.282 504.866 537.651 542.231 540.527 547.022H540.687C538.93 541.433 554.748 514.766 554.748 514.766L538.77 484.427L538.291 451.374L512.725 413.53L510.009 452.492V452.492Z" fill="#FFE000"/>
<path d="M709.738 354.289L651.098 322.833L634.8 348.701L668.194 366.106L627.929 366.744H621.697L599.168 366.106C599.168 366.106 585.906 369.778 578.236 369.618C570.567 369.459 557.944 366.106 557.944 366.106L545.641 372.173C545.641 372.173 520.075 386.544 516.72 390.856C513.364 395.167 512.725 413.37 512.725 413.37L537.332 457.761L547.558 483.15C547.558 483.15 535.574 526.104 538.61 547.66H645.985L640.232 416.883L674.106 402.832L707.501 387.183C712.934 384.309 719.006 376.644 719.006 370.577C719.006 364.509 715.331 357.164 709.738 354.289Z" fill="#FFE000"/>
<path d="M646.304 330.976L631.125 322.194L607.796 309.579C607.796 309.579 600.127 303.671 597.091 303.831C594.055 303.99 591.019 307.503 590.859 308.142C590.7 308.781 591.978 310.058 593.895 309.579C595.813 309.1 596.292 308.142 597.411 308.302C599.2 308.785 600.741 309.925 601.725 311.495C601.854 311.638 601.937 311.817 601.964 312.008C601.99 312.2 601.958 312.394 601.871 312.567C601.785 312.739 601.649 312.882 601.48 312.975C601.311 313.069 601.118 313.11 600.926 313.092C600.926 313.092 587.664 309.739 582.87 312.453C582.269 312.703 581.785 313.172 581.518 313.765C581.25 314.359 581.22 315.032 581.432 315.647C581.752 316.445 582.71 317.244 585.107 316.765C587.504 316.286 597.251 319.479 597.251 319.479C597.251 319.479 580.314 318.841 577.278 320.437C574.242 322.034 574.881 324.749 578.396 325.068C581.912 325.387 590.54 325.387 590.54 325.387C590.54 325.387 598.209 326.346 596.931 327.783C595.653 329.22 583.989 329.379 583.19 329.539C582.391 329.699 578.237 329.539 578.556 332.733C578.876 335.926 582.071 335.767 586.545 335.607C591.019 335.447 601.884 335.288 603.323 337.363C603.622 337.663 603.847 338.029 603.98 338.431C604.113 338.833 604.15 339.261 604.088 339.68C604.026 340.099 603.866 340.497 603.622 340.844C603.379 341.19 603.057 341.475 602.683 341.675C599.266 342.465 595.794 342.998 592.297 343.271C590.7 343.271 588.782 346.146 592.457 347.104C596.132 348.062 600.127 347.263 603.642 347.263C607.157 347.263 611.631 347.423 621.698 343.591C621.698 343.591 628.409 340.557 637.516 345.826L646.304 330.976Z" fill="#FFCFC5"/>
<g opacity="0.3">
<path opacity="0.3" d="M667.875 365.946C671.925 366.928 676.156 366.873 680.179 365.786C673.787 360.996 662.283 360.038 654.454 358.92L667.875 365.946Z" fill="black"/>
</g>
<path d="M538.611 547.82C538.451 547.82 538.451 547.341 538.451 546.383C538.227 545.172 538.12 543.942 538.131 542.71C537.931 538.127 538.091 533.536 538.611 528.978C540.283 513.842 543.277 498.882 547.558 484.268V484.587L546.28 481.394L528.704 436.843L523.431 423.271L521.993 419.598L521.514 418.321C521.812 418.698 522.03 419.133 522.153 419.598L523.751 423.111L529.183 436.684L547.079 481.074L548.357 484.268C544.069 498.898 540.97 513.85 539.09 528.978C538.613 533.486 538.399 538.018 538.451 542.551C538.451 544.147 538.611 545.425 538.611 546.223V547.82Z" fill="#BAA61B"/>
<path fill-rule="evenodd" clip-rule="evenodd" d="M551.002 315.86L545 302L538.998 315.86C538.365 317.264 538 318.909 538 320.667C538 325.821 541.134 330 545 330C548.866 330 552 325.821 552 320.667C552 318.908 551.635 317.264 551.002 315.86Z" fill="#0053FF"/>
<path d="M1167.03 168.878C1167.03 188.363 1161.26 207.41 1150.43 223.611C1139.61 239.812 1124.22 252.439 1106.22 259.896C1088.22 267.352 1068.41 269.303 1049.3 265.502C1030.19 261.701 1012.63 252.318 998.855 238.54C985.077 224.762 975.694 207.208 971.893 188.098C968.092 168.987 970.043 149.179 977.499 131.177C984.956 113.175 997.583 97.789 1013.78 86.9638C1029.99 76.1386 1049.03 70.3607 1068.52 70.3607C1081.45 70.3607 1094.27 72.9089 1106.22 77.8599C1118.17 82.8108 1129.03 90.0676 1138.18 99.2157C1147.33 108.364 1154.58 119.224 1159.54 131.177C1164.49 143.13 1167.03 155.94 1167.03 168.878V168.878Z" fill="url(#paint0_linear_2723_29329)"/>
<g style="mix-blend-mode:multiply" opacity="0.15">
<path d="M1080.09 243.746C1065.22 252.253 1048.37 256.713 1031.24 256.682C1028.54 256.682 1025.83 256.682 1023.18 256.372C1035.2 262.581 1048.38 266.255 1061.88 267.169C1075.38 268.082 1088.93 266.214 1101.68 261.68C1092.81 258.068 1085.27 251.805 1080.09 243.746V243.746Z" fill="#B1A5C5"/>
</g>
<g style="mix-blend-mode:multiply" opacity="0.15">
<path d="M1161.61 201.231C1166.52 187.026 1168.13 171.885 1166.3 156.965C1164.47 142.046 1159.25 127.741 1151.05 115.146C1142.84 102.551 1131.87 91.9983 1118.96 84.2942C1106.05 76.5901 1091.56 71.9388 1076.58 70.6956C1094.95 80.2454 1109.86 95.335 1119.19 113.827C1128.51 132.32 1131.78 153.277 1128.54 173.732C1135.86 175.304 1142.69 178.626 1148.45 183.415C1154.21 188.204 1158.72 194.317 1161.61 201.231V201.231Z" fill="#B1A5C5"/>
</g>
<path d="M1127.6 179.28C1124.81 178.665 1121.95 178.353 1119.09 178.347C1108.33 178.379 1098.02 182.675 1090.42 190.295C1082.83 197.915 1078.56 208.237 1078.56 218.997C1078.55 226.769 1080.79 234.378 1085.02 240.901C1090.72 249.686 1099.59 255.93 1109.79 258.332C1131.33 248.365 1148.57 230.983 1158.35 209.361C1156.56 201.972 1152.72 195.237 1147.28 189.919C1141.85 184.602 1135.03 180.916 1127.6 179.28V179.28Z" fill="#F1F1F1"/>
<g style="mix-blend-mode:multiply" opacity="0.15">
<path d="M1158.35 209.385C1157.29 204.429 1155.18 199.758 1152.16 195.683C1150.02 192.621 1147.46 189.876 1144.56 187.529C1143.14 186.365 1141.64 185.295 1140.08 184.325C1140.73 185.186 1141.4 186.071 1141.97 186.979C1146.96 194.691 1149.17 203.869 1148.26 213.006C1147.34 222.143 1143.34 230.696 1136.92 237.261C1130.5 243.827 1122.04 248.014 1112.92 249.136C1103.81 250.258 1094.58 248.247 1086.76 243.435C1088.13 245.134 1089.61 246.732 1091.21 248.218C1096.36 252.738 1102.59 255.873 1109.29 257.328L1111.06 257.615C1131.79 247.308 1148.45 230.319 1158.35 209.385V209.385Z" fill="#B1A5C5"/>
</g>
<path d="M1126.89 116.965C1126.89 121.091 1125.66 125.124 1123.37 128.554C1121.08 131.984 1117.82 134.657 1114 136.234C1110.19 137.81 1106 138.22 1101.95 137.412C1097.9 136.604 1094.19 134.613 1091.27 131.692C1088.36 128.771 1086.38 125.051 1085.58 121.004C1084.78 116.956 1085.2 112.762 1086.78 108.952C1088.37 105.143 1091.05 101.89 1094.49 99.6047C1097.92 97.3193 1101.96 96.1044 1106.08 96.1139C1111.6 96.1266 1116.9 98.329 1120.8 102.238C1124.7 106.147 1126.89 111.443 1126.89 116.965V116.965Z" fill="#F1F1F1"/>
<g style="mix-blend-mode:multiply" opacity="0.15">
<path d="M1117.39 98.5291C1120.09 102.356 1121.42 106.979 1121.17 111.655C1120.92 116.33 1119.11 120.786 1116.02 124.304C1112.93 127.821 1108.74 130.197 1104.14 131.048C1099.53 131.898 1094.78 131.174 1090.64 128.993C1092.45 131.57 1094.83 133.701 1097.59 135.227C1100.35 136.752 1103.42 137.632 1106.57 137.8C1109.71 137.968 1112.86 137.42 1115.77 136.197C1118.67 134.974 1121.26 133.108 1123.34 130.739C1125.42 128.37 1126.94 125.56 1127.78 122.52C1128.62 119.481 1128.75 116.291 1128.18 113.19C1127.61 110.09 1126.34 107.16 1124.47 104.62C1122.6 102.081 1120.18 99.9981 1117.39 98.5291V98.5291Z" fill="#B1A5C5"/>
</g>
<path d="M1106.08 140.638C1101.4 140.643 1096.82 139.258 1092.92 136.66C1089.03 134.062 1085.99 130.366 1084.2 126.041C1082.4 121.716 1081.93 116.955 1082.84 112.362C1083.75 107.768 1086 103.548 1089.31 100.234C1092.62 96.9214 1096.84 94.6644 1101.43 93.749C1106.02 92.8337 1110.79 93.3011 1115.11 95.0921C1119.44 96.8832 1123.14 99.9173 1125.74 103.811C1128.34 107.704 1129.73 112.282 1129.73 116.965C1129.73 123.238 1127.23 129.252 1122.8 133.689C1118.37 138.126 1112.36 140.625 1106.08 140.638V140.638ZM1106.08 98.9356C1102.51 98.9309 1099.02 99.9863 1096.04 101.968C1093.07 103.95 1090.75 106.769 1089.38 110.069C1088.01 113.369 1087.66 117.001 1088.35 120.505C1089.05 124.01 1090.77 127.229 1093.29 129.755C1095.82 132.281 1099.04 134.001 1102.54 134.697C1106.05 135.393 1109.68 135.033 1112.98 133.664C1116.28 132.294 1119.1 129.977 1121.08 127.004C1123.06 124.032 1124.12 120.538 1124.11 116.965C1124.11 112.185 1122.2 107.603 1118.82 104.223C1115.45 100.844 1110.86 98.942 1106.08 98.9356V98.9356Z" fill="#E8E8E8"/>
<path d="M1051.85 170.695C1056.18 170.695 1059.69 167.184 1059.69 162.852C1059.69 158.521 1056.18 155.009 1051.85 155.009C1047.52 155.009 1044.01 158.521 1044.01 162.852C1044.01 167.184 1047.52 170.695 1051.85 170.695Z" fill="#F1F1F1"/>
<g style="mix-blend-mode:multiply" opacity="0.15">
<path d="M1057.06 157.017C1057.42 157.925 1057.6 158.889 1057.61 159.863C1057.61 160.896 1057.41 161.919 1057.01 162.873C1056.62 163.828 1056.04 164.695 1055.31 165.426C1054.58 166.156 1053.71 166.736 1052.76 167.131C1051.8 167.526 1050.78 167.73 1049.74 167.73C1047.82 167.722 1045.97 166.997 1044.56 165.697C1044.98 166.811 1045.65 167.813 1046.52 168.629C1047.39 169.444 1048.43 170.051 1049.57 170.403C1050.7 170.756 1051.91 170.845 1053.08 170.663C1054.26 170.481 1055.38 170.034 1056.36 169.355C1057.34 168.676 1058.15 167.783 1058.73 166.744C1059.31 165.704 1059.65 164.546 1059.72 163.357C1059.79 162.168 1059.58 160.979 1059.12 159.881C1058.66 158.782 1057.96 157.803 1057.06 157.017V157.017Z" fill="#E6E4E9"/>
</g>
<path d="M1006.03 139.418C1012.49 139.426 1018.74 137.127 1023.65 132.937C1028.56 128.746 1031.82 122.939 1032.82 116.562C1033.83 110.185 1032.53 103.657 1029.16 98.1547C1025.78 92.652 1020.55 88.5364 1014.4 86.5492C1000.43 95.7734 989.009 108.383 981.214 123.206C983.329 128.028 986.802 132.129 991.21 135.009C995.618 137.888 1000.77 139.42 1006.03 139.418V139.418Z" fill="#F1F1F1"/>
<g style="mix-blend-mode:multiply" opacity="0.15">
<path d="M1022.39 90.6379C1026.28 95.8569 1028.16 102.3 1027.68 108.79C1027.21 115.28 1024.42 121.383 1019.81 125.983C1015.21 130.583 1009.11 133.373 1002.62 133.842C996.125 134.311 989.683 132.428 984.466 128.538C986.789 131.657 989.756 134.239 993.165 136.109C996.574 137.979 1000.35 139.094 1004.22 139.377C1008.1 139.659 1012 139.104 1015.64 137.748C1019.29 136.393 1022.6 134.268 1025.35 131.519C1028.1 128.771 1030.22 125.462 1031.58 121.818C1032.94 118.175 1033.5 114.281 1033.22 110.403C1032.94 106.524 1031.82 102.752 1029.96 99.3414C1028.09 95.9309 1025.51 92.9625 1022.39 90.6379V90.6379Z" fill="#B1A5C5"/>
</g>
<path d="M1041.26 209.433C1041.26 212.379 1040.38 215.259 1038.75 217.709C1037.11 220.159 1034.78 222.068 1032.06 223.196C1029.34 224.323 1026.34 224.618 1023.45 224.044C1020.56 223.469 1017.91 222.05 1015.83 219.967C1013.74 217.883 1012.32 215.229 1011.75 212.339C1011.17 209.449 1011.47 206.454 1012.6 203.732C1013.72 201.01 1015.63 198.683 1018.08 197.046C1020.53 195.409 1023.41 194.536 1026.36 194.536C1030.31 194.536 1034.1 196.105 1036.89 198.899C1039.69 201.693 1041.26 205.482 1041.26 209.433V209.433Z" fill="#F1F1F1"/>
<g style="mix-blend-mode:multiply" opacity="0.15">
<path d="M1034.59 197.022C1036.47 199.886 1037.31 203.314 1036.97 206.726C1036.62 210.139 1035.11 213.327 1032.68 215.752C1030.25 218.178 1027.07 219.692 1023.65 220.039C1020.24 220.386 1016.81 219.545 1013.95 217.658C1015.17 219.504 1016.78 221.056 1018.67 222.202C1020.56 223.348 1022.68 224.058 1024.88 224.282C1027.08 224.506 1029.3 224.237 1031.39 223.496C1033.47 222.755 1035.36 221.559 1036.92 219.995C1038.49 218.432 1039.68 216.541 1040.42 214.458C1041.17 212.375 1041.43 210.153 1041.21 207.954C1040.99 205.754 1040.28 203.632 1039.13 201.741C1037.98 199.851 1036.43 198.238 1034.59 197.022V197.022Z" fill="#B1A5C5"/>
</g>
</g>
<defs>
<linearGradient id="paint0_linear_2723_29329" x1="970" y1="168.878" x2="1167.03" y2="168.878" gradientUnits="userSpaceOnUse">
<stop stop-color="white"/>
<stop offset="1" stop-color="#F2F2F2" stop-opacity="0.99"/>
</linearGradient>
<clipPath id="clip0_2723_29329">
<rect width="1266" height="832" fill="white"/>
</clipPath>
</defs>
</svg>
