<svg width="484" height="213" viewBox="0 0 484 213" fill="none" xmlns="http://www.w3.org/2000/svg">
<g clip-path="url(#clip0_762_135833)">
<rect width="484" height="212.55" rx="4" fill="#FFE000"/>
<path d="M124.114 162.666C117.788 160.888 110.894 160.255 104.726 162.534C98.5585 164.813 93.3633 170.51 93.1372 177.099C87.6897 174.082 80.3912 173.217 74.7438 175.833C69.0964 178.45 64.8162 183.862 63.57 189.976C61.0355 188.916 57.3126 190.256 55.02 191.77C52.7222 193.284 51.2499 195.985 51.2183 198.739C47.0327 196.555 42.2319 195.305 37.531 195.69C32.8301 196.075 28.2029 198.18 25.1741 201.809C22.1453 205.433 20.9044 210.619 22.403 215.103C51.2131 215.018 80.2755 213.52 109.086 213.436C115.459 213.415 122.221 213.288 127.589 209.838C135.082 205.016 137.606 194.814 135.945 186.041C134.273 177.268 129.02 170.115 124.114 162.666Z" fill="#7BC1D8"/>
<path d="M124.187 166.802C125.254 163.842 123.755 160.529 121.668 158.182C119.575 155.834 116.899 154.067 114.874 151.667C111.903 148.138 110.568 143.543 108.333 139.502C106.098 135.461 102.26 131.652 97.6586 131.895C99.1309 133.725 98.379 136.405 98.0161 138.732C97.6533 141.058 97.0381 143.437 97.5955 145.721C98.2422 148.364 100.346 150.395 101.418 152.896C103.353 157.427 101.655 162.761 102.948 167.514C104.089 171.708 107.549 175.037 111.567 176.667C115.584 178.297 120.101 178.376 124.371 177.616C125.585 173.391 125.853 170.869 124.187 166.802Z" fill="#76C8B2"/>
<path d="M120.396 167.746C117.078 167.166 114.013 164.644 111.988 160.83C111.725 160.329 111.483 159.817 111.257 159.295C111.299 159.248 111.336 159.19 111.352 159.126C112.178 156.452 112.603 153.672 112.609 150.87C112.609 150.591 112.388 150.369 112.109 150.369C111.83 150.369 111.61 150.591 111.61 150.87C111.604 153.234 111.289 155.581 110.679 157.86C109.932 155.835 109.38 153.719 108.849 151.646C108.691 151.029 108.534 150.417 108.371 149.805C108.318 149.615 108.271 149.425 108.218 149.235C108.265 149.177 108.307 149.108 108.323 149.029C108.723 147.136 109.033 145.199 109.238 143.269C109.27 142.994 109.07 142.746 108.791 142.715C108.518 142.694 108.271 142.884 108.239 143.163C108.092 144.535 107.892 145.912 107.645 147.273C106.719 144.308 105.484 141.396 103.433 139.011C103.254 138.8 102.933 138.779 102.728 138.959C102.518 139.138 102.497 139.46 102.676 139.666C103.806 140.979 104.674 142.477 105.384 144.06C104.232 143.617 103.054 143.237 101.861 142.942C101.593 142.878 101.319 143.042 101.256 143.311C101.188 143.58 101.356 143.854 101.624 143.918C103.039 144.266 104.437 144.73 105.783 145.294C105.826 145.31 105.873 145.321 105.915 145.326C106.514 146.872 106.982 148.475 107.403 150.058C107.566 150.665 107.724 151.277 107.882 151.894C108.039 152.501 108.197 153.118 108.36 153.73C106.719 153.065 105.1 152.332 103.533 151.525C103.286 151.398 102.986 151.498 102.86 151.741C102.734 151.989 102.834 152.29 103.075 152.416C104.89 153.35 106.777 154.194 108.681 154.938C108.686 154.938 108.691 154.938 108.691 154.943C109.307 157.122 110.037 159.285 111.105 161.3C111.61 162.244 112.172 163.115 112.788 163.901C110.279 163.98 107.719 163.394 105.51 162.212C105.268 162.081 104.963 162.176 104.832 162.418C104.7 162.661 104.795 162.967 105.037 163.099C107.03 164.164 109.285 164.782 111.552 164.903C112.214 164.94 112.882 164.929 113.539 164.876C113.56 164.876 113.576 164.871 113.597 164.866C115.501 166.95 117.793 168.311 120.228 168.733C120.249 168.738 120.27 168.738 120.291 168.738C120.538 168.749 120.764 168.575 120.812 168.321C120.848 168.052 120.67 167.794 120.396 167.746Z" fill="white"/>
<path d="M135.924 181.994C135.461 177.062 131.118 173.348 126.569 171.417C122.026 169.487 117.026 168.769 112.535 166.712C105.941 163.689 100.972 158.039 95.088 153.787C89.204 149.535 81.1851 146.697 74.8016 150.142C78.1195 151.761 78.8452 156.082 79.8863 159.632C80.9222 163.188 81.6426 166.991 83.9667 169.872C86.6537 173.2 91.0076 174.672 94.2046 177.516C99.994 182.664 101.135 191.4 106.151 197.303C110.579 202.51 117.73 204.921 124.545 204.541C131.36 204.156 137.838 201.239 143.406 197.277C142.323 190.43 141.019 186.663 135.924 181.994Z" fill="#9CE7CC"/>
<path d="M131.16 185.887C126.049 187.296 119.997 185.766 114.56 181.699C113.85 181.166 113.166 180.591 112.493 180.005C112.519 179.905 112.53 179.805 112.514 179.699C111.904 175.332 110.647 171.09 108.786 167.097C108.602 166.701 108.139 166.532 107.74 166.717C107.345 166.902 107.177 167.371 107.361 167.767C108.933 171.138 110.059 174.688 110.705 178.344C108.286 175.965 106.089 173.322 103.948 170.726C103.312 169.956 102.676 169.186 102.034 168.426C101.835 168.189 101.635 167.957 101.435 167.719C101.461 167.603 101.477 167.482 101.445 167.355C100.751 164.385 99.8943 161.42 98.8952 158.54C98.7533 158.129 98.3011 157.907 97.8909 158.049C97.486 158.197 97.2599 158.646 97.4019 159.057C98.1118 161.109 98.748 163.203 99.3001 165.308C96.0032 161.711 92.2908 158.398 87.7792 156.377C87.3796 156.198 86.9169 156.377 86.7381 156.778C86.5593 157.179 86.7381 157.643 87.1377 157.823C89.6249 158.936 91.8649 160.476 93.9314 162.259C91.9964 162.402 90.0613 162.655 88.1683 163.04C87.7372 163.13 87.4637 163.546 87.5531 163.974C87.6373 164.401 88.0579 164.681 88.4838 164.591C90.7344 164.137 93.0375 163.852 95.3301 163.757C95.4037 163.752 95.4721 163.736 95.5404 163.71C97.4282 165.509 99.1686 167.477 100.825 169.444C101.461 170.204 102.098 170.969 102.728 171.734C103.359 172.493 103.996 173.264 104.637 174.028C101.861 174.187 99.0582 174.229 96.2871 174.139C95.8507 174.129 95.4879 174.466 95.4721 174.904C95.4563 175.342 95.7981 175.706 96.2345 175.722C99.4421 175.827 102.697 175.764 105.905 175.543C105.91 175.543 105.915 175.537 105.926 175.537C108.26 178.228 110.742 180.818 113.608 182.965C114.954 183.973 116.342 184.827 117.746 185.539C114.228 187.338 110.19 188.23 106.252 188.029C105.815 188.008 105.447 188.346 105.426 188.778C105.405 189.216 105.741 189.585 106.173 189.607C109.722 189.786 113.35 189.148 116.652 187.787C117.62 187.391 118.561 186.927 119.466 186.41C119.492 186.394 119.518 186.373 119.539 186.357C123.641 188.04 127.821 188.435 131.565 187.407C131.596 187.396 131.628 187.386 131.654 187.375C132.017 187.227 132.222 186.821 132.117 186.436C132.012 186.019 131.581 185.771 131.16 185.887Z" fill="white"/>
<path fill-rule="evenodd" clip-rule="evenodd" d="M437.319 210.203C437.27 210.079 437.166 209.984 437.061 209.903C436.338 209.336 435.396 209.137 434.483 209.041C432.488 208.828 430.452 209.03 428.534 209.621C430.766 207.926 432.808 205.983 434.57 203.805L434.587 203.79C436.262 204.358 438.117 204.208 439.878 203.932C441.326 203.706 442.897 203.324 443.767 202.145C443.952 201.894 444.097 201.542 443.922 201.285C443.846 201.174 443.727 201.104 443.605 201.046C442.778 200.647 441.815 200.654 440.902 200.755C439.081 200.954 437.298 201.499 435.673 202.344C436.918 200.576 437.933 198.701 438.818 196.757L438.938 196.6C438.94 196.572 438.94 196.542 438.943 196.514C440.668 196.736 442.435 196.25 444.087 195.664C445.469 195.174 446.941 194.507 447.577 193.186C447.713 192.905 447.788 192.532 447.57 192.31C447.476 192.215 447.346 192.169 447.216 192.133C446.329 191.895 445.385 192.08 444.506 192.347C442.732 192.887 441.063 193.766 439.611 194.917C440.098 193.731 440.551 192.524 440.992 191.304L441.002 191.301C442.381 189.954 443.021 188.035 443.489 186.165C443.846 184.743 444.103 183.147 443.354 181.887C443.195 181.62 442.926 181.349 442.62 181.411C442.489 181.438 442.379 181.521 442.277 181.61C441.588 182.217 441.221 183.106 440.958 183.986C440.303 186.18 440.17 188.527 440.562 190.784C440.034 192.251 439.49 193.702 438.891 195.121C438.699 193.718 438.111 192.359 437.469 191.081C436.811 189.772 435.964 188.394 434.574 187.928C434.278 187.829 433.9 187.8 433.707 188.044C433.624 188.149 433.596 188.286 433.577 188.418C433.452 189.329 433.753 190.241 434.129 191.08C435.067 193.178 436.503 195.049 438.283 196.502C437.325 198.597 436.22 200.61 434.843 202.491C434.957 201.015 434.622 199.498 434.208 198.057C433.802 196.649 433.227 195.138 431.948 194.424C431.676 194.272 431.308 194.173 431.074 194.378C430.974 194.465 430.92 194.595 430.878 194.721C430.585 195.592 430.713 196.546 430.927 197.438C431.462 199.679 432.532 201.792 434.019 203.554C433.92 203.675 433.825 203.797 433.724 203.916C432.052 205.899 430.145 207.673 428.076 209.231C428.525 207.794 428.524 206.21 428.424 204.69C428.328 203.228 428.088 201.628 426.992 200.657C426.759 200.449 426.42 200.275 426.148 200.426C426.031 200.489 425.951 200.604 425.882 200.718C425.409 201.506 425.331 202.465 425.348 203.384C425.392 205.675 425.979 207.952 427.043 209.981C425.97 210.734 424.856 211.433 423.713 212.074C422.667 212.667 421.596 213.203 420.504 213.693C421.551 212.367 422.063 210.664 422.44 209.001C422.764 207.571 422.985 205.97 422.208 204.728C422.14 204.621 422.056 204.515 421.96 204.431L419.652 207.741C419.218 209.813 419.231 211.978 419.697 214.043C418.119 214.711 416.505 215.276 414.864 215.76L415.468 216.181C416.938 215.733 418.386 215.217 419.805 214.624C421.005 216.055 422.794 216.864 424.555 217.502C425.932 218.002 427.494 218.423 428.824 217.807C429.107 217.677 429.402 217.437 429.373 217.127C429.361 216.993 429.288 216.875 429.212 216.767C428.677 216.019 427.831 215.562 426.983 215.211C425.105 214.432 423.064 214.049 421.031 214.085C422.22 213.541 423.39 212.944 424.531 212.282C425.488 211.728 426.42 211.133 427.327 210.499C427.328 210.501 427.329 210.503 427.331 210.505L427.384 210.474C428.948 211.535 430.914 211.81 432.803 211.924C434.266 212.013 435.883 211.975 436.985 211.008C437.219 210.805 437.435 210.491 437.319 210.203Z" fill="#1B4DED"/>
<path d="M394.581 201.626C396.29 194.433 398.739 187.599 401.512 182.388L406.347 187.723L404.683 177.074C411.966 165.535 425.053 150.207 434.301 145.271C435.107 151.006 435.252 157.383 434.695 164.036L425.695 174.627L433.616 172.541C431.344 185.951 426.392 202.825 415.194 215.995L394.581 201.626Z" fill="#6CE8CC"/>
<path d="M404.231 208.353C404.273 208.265 404.315 208.175 404.357 208.086L406.562 203.557C408.058 200.551 409.535 197.535 411.009 194.517C413.945 188.477 416.86 182.424 419.744 176.36C422.649 170.304 425.514 164.229 428.313 158.123L428.453 158.184C427.801 159.732 427.16 161.286 426.497 162.829L424.5 167.455C423.159 170.537 421.804 173.61 420.441 176.681C417.694 182.813 414.918 188.932 412.119 195.041L407.933 204.21L405.797 208.775L405.555 209.277L404.231 208.353Z" fill="white"/>
<path d="M393.656 205.437L410.976 109.54C401.916 107.97 393.634 190.524 393.634 190.524C393.634 190.524 399.634 92.1904 390.456 92.1904C390.448 92.1904 390.441 92.1978 390.434 92.1978L392.412 205.422L393.656 205.437Z" fill="#A0ABE9"/>
<path d="M397.099 205.504L419.227 142.275C413.493 141.994 406.078 166.718 402.626 179.536C401.463 184.164 400.7 187.037 400.7 187.037C400.7 187.037 401.426 184.015 402.626 179.536C407.271 161.017 418.234 114.256 411.678 109.821L394.41 205.452L397.099 205.504Z" fill="#A0ABE9"/>
<path d="M402.621 179.536C401.414 184.008 400.695 187.037 400.695 187.037C400.695 187.037 401.458 184.164 402.621 179.536Z" fill="#A0ABE9"/>
<path d="M400.338 205.556C400.338 205.556 427.874 146.711 420.11 142.52C420.059 142.49 419.999 142.475 419.948 142.453L397.879 205.519L400.338 205.556Z" fill="#A0ABE9"/>
<path d="M388.686 205.356L389.967 205.378L366.758 122.224C359.513 125.126 388.686 205.356 388.686 205.356Z" fill="#A0ABE9"/>
<path d="M391.665 205.408L389.695 92.4497C381.702 97.8551 388.687 190.532 388.687 190.532C388.687 190.532 375.094 123.949 367.508 122.172L390.739 205.4L391.665 205.408Z" fill="#A0ABE9"/>
<path d="M390.737 205.393L367.506 122.164C367.261 122.105 367.024 122.113 366.794 122.194C366.78 122.201 366.765 122.209 366.75 122.216L389.959 205.37L390.737 205.393Z" fill="#697DD1"/>
<path d="M392.403 205.422L390.425 92.1978C390.166 92.2052 389.921 92.2866 389.691 92.4495L391.662 205.407L392.403 205.422Z" fill="#697DD1"/>
<path d="M394.404 205.452L411.672 109.821C411.546 109.739 411.42 109.665 411.28 109.614C411.176 109.577 411.072 109.554 410.968 109.54L393.648 205.437L394.404 205.452Z" fill="#697DD1"/>
<path d="M397.879 205.511L419.948 142.446C419.711 142.342 419.466 142.283 419.222 142.268L397.094 205.496L397.879 205.511Z" fill="#697DD1"/>
<path d="M360.594 188.562L364.535 205.904H366.483L377.936 128.081C357.86 148.303 358.838 175.952 360.594 188.562Z" fill="#4C60A5"/>
<path d="M333.531 152.946L362.852 205.904H363.771L359.422 186.77C355.985 176.841 348.384 160.817 333.531 152.946Z" fill="#4C60A5"/>
<path d="M357.616 205.904H362.002L332.91 153.368C333.214 194.049 357.616 205.904 357.616 205.904Z" fill="#4C60A5"/>
<path d="M380.568 205.904C380.568 205.904 400.54 196.596 409.704 165.593L377.301 205.904H380.568Z" fill="#4C60A5"/>
<path d="M381.024 189.673L374.957 205.904H376.342L409.538 164.608C393.759 169.532 385.076 181.898 381.024 189.673Z" fill="#4C60A5"/>
<path d="M378.557 128.955L367.23 205.904H374.164L380.239 189.651C383.587 177.662 388.669 151.746 378.557 128.955Z" fill="#4C60A5"/>
<path d="M332.91 152.62C332.91 152.872 332.918 153.116 332.918 153.368L362.009 205.904H362.853L333.532 152.946C333.325 152.842 333.118 152.724 332.91 152.62Z" fill="#637ABE"/>
<path d="M378.093 127.918C378.041 127.97 377.989 128.029 377.937 128.081L366.484 205.904H367.233L378.56 128.955C378.404 128.607 378.256 128.266 378.093 127.918Z" fill="#637ABE"/>
<path d="M409.539 164.608L376.344 205.904H377.292L409.695 165.593C409.806 165.208 409.924 164.838 410.036 164.445C409.873 164.49 409.71 164.556 409.539 164.608Z" fill="#637ABE"/>
<path d="M361.437 193.486C361.726 194.649 361.852 195.315 361.852 195.315C361.852 195.315 361.682 194.671 361.437 193.486C361.059 191.975 360.415 189.628 359.43 186.77L363.778 205.904H364.534L360.593 188.562C360.882 190.65 361.193 192.331 361.437 193.486Z" fill="#637ABE"/>
<path d="M361.438 193.486C361.682 194.671 361.852 195.315 361.852 195.315C361.852 195.315 361.726 194.656 361.438 193.486Z" fill="#637ABE"/>
<path d="M378.564 195.071C378.268 195.922 378.098 196.374 378.098 196.374C378.098 196.374 378.246 195.893 378.564 195.071C378.957 193.93 379.565 192.072 380.239 189.65L374.164 205.904H374.957L381.024 189.673C379.809 191.99 379.016 193.893 378.564 195.071Z" fill="#637ABE"/>
<path d="M378.564 195.071C378.246 195.893 378.098 196.374 378.098 196.374C378.098 196.374 378.268 195.922 378.564 195.071Z" fill="#637ABE"/>
<path d="M453.864 216.392H27.5767C22.9551 216.392 19.207 213.525 19.207 209.99C19.207 206.454 22.9551 203.587 27.5767 203.587H453.864C458.485 203.587 462.233 206.454 462.233 209.99C462.233 213.525 458.485 216.392 453.864 216.392Z" fill="#A3C1C8"/>
<path d="M21.7656 48.2767C21.7656 45.4228 23.5587 42.9856 26.0774 42.0413C27.4235 38.3855 30.9255 35.7742 35.0375 35.7742C35.0796 35.7742 35.1216 35.7795 35.169 35.7795C37.3249 31.3534 41.8522 28.3096 47.0947 28.3096C52.3688 28.3096 56.9224 31.3956 59.0625 35.8691C59.4885 35.8111 59.9197 35.7795 60.3613 35.7795C65.6354 35.7795 69.9104 40.0683 69.9104 45.3595C69.9104 46.3776 69.7526 47.3588 69.4582 48.282H21.7656V48.2767Z" fill="white"/>
<path d="M413.379 77.223C413.379 74.3691 415.172 71.9319 417.691 70.9876C419.037 67.3318 422.539 64.7205 426.651 64.7205C426.693 64.7205 426.735 64.7257 426.782 64.7257C428.938 60.2997 433.466 57.2559 438.708 57.2559C443.982 57.2559 448.536 60.3419 450.676 64.8154C451.102 64.7574 451.533 64.7257 451.975 64.7257C457.249 64.7257 461.524 69.0146 461.524 74.3058C461.524 75.3239 461.366 76.3051 461.071 77.2283H413.379V77.223Z" fill="white"/>
<path d="M422.134 38.2236C422.134 34.2249 419.621 30.8117 416.098 29.4876C414.215 24.3653 409.304 20.7094 403.541 20.7094C403.478 20.7094 403.42 20.7147 403.357 20.7147C400.333 14.5162 393.987 10.2432 386.646 10.2432C379.253 10.2432 372.869 14.5689 369.872 20.8361C369.278 20.7569 368.668 20.7094 368.053 20.7094C360.665 20.7094 354.676 26.7181 354.676 34.1299C354.676 35.5595 354.902 36.9311 355.312 38.2236H422.134Z" fill="white"/>
<path d="M136.496 44.8149L133.34 58.457L153.623 63.1296L156.78 49.4875L136.496 44.8149Z" fill="#F5F5F5"/>
<path d="M156.81 49.6787C156.737 49.7317 156.659 49.7782 156.578 49.8177L155.9 50.1808L153.384 51.4862L145.035 55.7348L144.966 55.7695L144.915 55.7116L144.799 55.5648L138.919 48.1144L137.154 45.8395L136.682 45.2177C136.622 45.1495 136.57 45.0742 136.527 44.9937C136.594 45.0547 136.655 45.122 136.709 45.1945L137.212 45.797L139.024 48.0294L144.95 55.4451L145.066 55.5919L144.95 55.5687L153.323 51.3588L155.866 50.1035L156.562 49.7714C156.641 49.7318 156.724 49.7007 156.81 49.6787Z" fill="#CDCED9"/>
<path d="M133.371 58.6472C133.34 58.6047 135.307 57.1023 137.745 55.2561C140.184 53.4099 142.201 51.9731 142.232 52.0156C142.263 52.0581 140.296 53.5605 137.858 55.4067C135.419 57.2529 133.402 58.6858 133.371 58.6472Z" fill="#CDCED9"/>
<path d="M149.014 53.3981C149.06 53.375 150.14 55.5803 151.421 58.3187C152.702 61.0571 153.697 63.2973 153.658 63.3205C153.62 63.3436 152.536 61.1382 151.255 58.3998C149.973 55.6615 148.963 53.4174 149.014 53.3981Z" fill="#CDCED9"/>
<path d="M265.073 48.2455L250.254 54.5986L254.546 64.5669L269.365 58.2137L265.073 48.2455Z" fill="#F5F5F5"/>
<path d="M265.169 48.3311C265.147 48.3962 265.12 48.4595 265.087 48.5203L264.832 49.0572C264.596 49.5361 264.263 50.2159 263.86 51.027L260.597 57.5273L260.57 57.5813L260.512 57.562L260.373 57.5273L253.278 55.5575L251.13 54.9472L250.549 54.7734C250.481 54.7542 250.413 54.731 250.348 54.7039C250.419 54.7106 250.489 54.7248 250.557 54.7464L251.145 54.8931L253.305 55.4609L260.412 57.3921L260.551 57.4307L260.47 57.4693C261.755 54.9472 262.92 52.6684 263.768 51.0076C264.189 50.1966 264.542 49.5322 264.782 49.0765L265.06 48.5512C265.087 48.4735 265.123 48.3995 265.169 48.3311Z" fill="#CDCED9"/>
<path d="M254.639 64.653C254.6 64.653 255.126 62.7952 255.8 60.5318C256.473 58.2685 257.077 56.4455 257.116 56.4571C257.155 56.4687 256.628 58.311 255.955 60.5743C255.281 62.8377 254.685 64.6645 254.639 64.653Z" fill="#CDCED9"/>
<path d="M262.004 54.2209C262.023 54.1823 263.711 55.0668 265.77 56.1946C267.83 57.3224 269.482 58.2609 269.463 58.2957C269.444 58.3305 267.76 57.4499 265.701 56.3221C263.641 55.1943 261.985 54.2557 262.004 54.2209Z" fill="#CDCED9"/>
<path d="M260.046 103.117H122.487C119.373 103.117 116.848 105.637 116.848 108.745V195.701C116.848 198.809 119.373 201.328 122.487 201.328H260.046C263.161 201.328 265.686 198.809 265.686 195.701V108.745C265.686 105.637 263.161 103.117 260.046 103.117Z" fill="#455A64"/>
<path d="M111.031 194.982H272.283V196.701C272.283 198.525 271.557 200.273 270.265 201.562C268.973 202.852 267.22 203.576 265.393 203.576H117.917C116.09 203.576 114.337 202.852 113.045 201.562C111.753 200.273 111.027 198.525 111.027 196.701V194.982H111.031Z" fill="#455A64"/>
<path d="M261.275 107.018H120.844V189.954H261.275V107.018Z" fill="#263238"/>
<path d="M176.594 194.063L178.595 197.238H206.751L208.609 194.063H176.594Z" fill="#263238"/>
<path d="M257.403 109.826H125C124.301 109.826 123.734 110.391 123.734 111.089V188.428C123.734 189.125 124.301 189.691 125 189.691H257.403C258.102 189.691 258.669 189.125 258.669 188.428V111.089C258.669 110.391 258.102 109.826 257.403 109.826Z" fill="#EBEBEB"/>
<path d="M258.528 189.807H123.594L123.737 115.793H258.528V189.807Z" fill="#FAFAFA"/>
<path d="M134.8 112.912C134.801 113.125 134.739 113.334 134.62 113.511C134.502 113.689 134.334 113.828 134.137 113.91C133.939 113.992 133.722 114.014 133.512 113.973C133.303 113.932 133.11 113.829 132.958 113.679C132.807 113.528 132.704 113.336 132.662 113.127C132.62 112.918 132.641 112.701 132.722 112.504C132.804 112.307 132.942 112.138 133.12 112.02C133.298 111.901 133.507 111.838 133.721 111.838C133.862 111.837 134.003 111.865 134.134 111.919C134.265 111.972 134.384 112.051 134.484 112.151C134.584 112.251 134.664 112.369 134.718 112.5C134.773 112.63 134.8 112.77 134.8 112.912Z" fill="#263238"/>
<path d="M128.269 112.912C128.27 113.125 128.207 113.334 128.089 113.512C127.97 113.69 127.802 113.828 127.604 113.91C127.407 113.992 127.189 114.014 126.98 113.973C126.77 113.931 126.577 113.828 126.426 113.677C126.274 113.527 126.171 113.334 126.13 113.125C126.088 112.915 126.11 112.698 126.192 112.501C126.275 112.304 126.414 112.136 126.592 112.018C126.77 111.9 126.979 111.837 127.193 111.838C127.335 111.837 127.475 111.865 127.606 111.919C127.736 111.972 127.855 112.051 127.955 112.151C128.055 112.251 128.134 112.37 128.188 112.5C128.242 112.631 128.27 112.77 128.269 112.912Z" fill="#263238"/>
<path d="M131.402 112.912C131.403 113.125 131.34 113.334 131.222 113.512C131.103 113.69 130.935 113.828 130.737 113.91C130.54 113.992 130.322 114.014 130.112 113.973C129.903 113.931 129.71 113.828 129.558 113.677C129.407 113.527 129.304 113.334 129.263 113.125C129.221 112.915 129.243 112.698 129.325 112.501C129.407 112.304 129.546 112.136 129.725 112.018C129.903 111.9 130.112 111.837 130.326 111.838C130.467 111.837 130.608 111.865 130.738 111.919C130.869 111.972 130.988 112.051 131.088 112.151C131.188 112.251 131.267 112.37 131.321 112.5C131.375 112.631 131.403 112.77 131.402 112.912Z" fill="#263238"/>
<path d="M264.401 194.059C264.401 194.114 231.368 194.156 190.628 194.156C149.888 194.156 116.844 194.114 116.844 194.059C116.844 194.005 149.873 193.963 190.628 193.963C231.383 193.963 264.401 194.009 264.401 194.059Z" fill="#263238"/>
<path d="M166.946 144.707L221.841 144.193L223.451 181.433L166.605 181.024L166.946 144.707Z" fill="#FF4D4D"/>
<path d="M166.941 144.706L192.875 123.676C193.408 123.244 194.074 123.008 194.761 123.008C195.447 123.008 196.113 123.244 196.646 123.676L221.836 144.193" fill="#FF4D4D"/>
<g opacity="0.3">
<path opacity="0.3" d="M166.941 144.706L192.875 123.676C193.408 123.244 194.074 123.008 194.761 123.008C195.447 123.008 196.113 123.244 196.646 123.676L221.836 144.193" fill="black"/>
</g>
<g opacity="0.5">
<path opacity="0.5" d="M221.84 144.193L194.319 166.227L166.945 144.707" fill="black"/>
</g>
<path opacity="0.5" d="M166.605 181.024L183.776 157.935" stroke="#272833" stroke-width="0.5" stroke-miterlimit="10"/>
<path opacity="0.5" d="M223.449 181.433L206.016 156.807" stroke="#272833" stroke-width="0.5" stroke-miterlimit="10"/>
<path d="M169.714 146.734L169.594 129.628L217.661 128.96L218.241 146.962L194.32 165.938L169.714 146.734Z" fill="#EDEDED"/>
<path d="M347.863 42.2544H295.895C291.424 42.2544 287.801 45.8702 287.801 50.3305V195.446C287.801 199.906 291.424 203.522 295.895 203.522H347.863C352.333 203.522 355.957 199.906 355.957 195.446V50.3305C355.957 45.8702 352.333 42.2544 347.863 42.2544Z" fill="#263238"/>
<path d="M341.717 42.3198H291.018C286.197 42.3198 282.289 46.2192 282.289 51.0294V194.878C282.289 199.688 286.197 203.588 291.018 203.588H341.717C346.537 203.588 350.445 199.688 350.445 194.878V51.0294C350.445 46.2192 346.537 42.3198 341.717 42.3198Z" fill="#455A64"/>
<path d="M340.168 44.896H330.909C329.667 44.896 328.66 46.1397 328.66 47.6731V49.6583C328.66 51.2032 327.654 52.4353 326.411 52.4353L308.362 52.4083C307.119 52.4083 306.113 51.1607 306.113 49.6274V47.6422C306.113 46.0972 305.103 44.8613 303.86 44.8574H300.605H292.5C288.478 44.8574 285.215 48.7198 285.215 53.4627L285.281 191.618C285.281 196.373 288.544 200.231 292.569 200.239L340.23 200.278C344.255 200.278 347.518 196.415 347.515 191.668L347.453 53.5168C347.453 48.7584 344.19 44.8999 340.168 44.896Z" fill="#FAFAFA"/>
<path d="M340.167 44.8964H340.45C340.729 44.9022 341.008 44.932 341.282 44.9852C342.364 45.1878 343.379 45.652 344.239 46.337C344.867 46.847 345.418 47.4455 345.873 48.1137C346.423 48.9197 346.837 49.8111 347.096 50.7517C347.248 51.2784 347.354 51.8173 347.413 52.3623C347.475 52.9472 347.501 53.5354 347.491 54.1235C347.491 55.3324 347.491 56.6263 347.491 57.9858C347.491 68.9201 347.522 84.744 347.545 104.299C347.568 123.854 347.58 147.136 347.599 172.987C347.599 176.221 347.599 179.492 347.599 182.801V187.795C347.599 188.629 347.599 189.471 347.599 190.313C347.621 191.16 347.596 192.007 347.522 192.851C347.428 193.702 347.219 194.538 346.902 195.334C346.593 196.14 346.162 196.894 345.625 197.57C345.087 198.255 344.441 198.847 343.713 199.324C342.972 199.794 342.144 200.11 341.278 200.255C340.411 200.354 339.538 200.386 338.665 200.351H330.804L309.302 200.32H298.305H292.751C291.804 200.332 290.866 200.142 289.998 199.764C289.133 199.376 288.352 198.824 287.699 198.138C286.399 196.752 285.561 194.998 285.303 193.117C285.19 192.193 285.15 191.262 285.183 190.332V187.563C285.183 183.878 285.183 180.219 285.183 176.586C285.183 169.32 285.183 162.167 285.183 155.127C285.183 141.057 285.183 127.485 285.183 114.573C285.183 101.661 285.183 89.3595 285.183 77.8614C285.183 72.1091 285.183 66.5628 285.183 61.2224C285.183 58.5549 285.183 55.9414 285.183 53.3819C285.206 50.8135 286.193 48.2682 288.032 46.5958C288.927 45.755 290.035 45.1741 291.237 44.9157C291.531 44.8507 291.83 44.8106 292.131 44.796C292.429 44.7728 292.727 44.7689 293.021 44.7728H294.783H301.587H303.233C303.507 44.7728 303.771 44.7728 304.049 44.7728C304.321 44.796 304.585 44.8763 304.823 45.0084C305.298 45.2852 305.673 45.7041 305.896 46.2057C306.112 46.6912 306.214 47.2197 306.194 47.7506V49.2956C306.166 49.796 306.241 50.2967 306.414 50.7671C306.582 51.2272 306.879 51.6294 307.27 51.9258C307.462 52.0692 307.678 52.1765 307.908 52.2425C308.142 52.2976 308.381 52.3197 308.621 52.3082L319.459 52.3352H324.243H326.465C326.811 52.316 327.147 52.2114 327.443 52.0307C327.739 51.8501 327.985 51.5991 328.16 51.3001C328.491 50.7428 328.65 50.1007 328.617 49.4539C328.617 48.8089 328.617 48.1832 328.617 47.5768C328.627 46.9814 328.801 46.4001 329.12 45.8967C329.418 45.4224 329.879 45.0734 330.417 44.9157C330.671 44.8613 330.931 44.8405 331.191 44.8539H333.335H335.751H339.033H340.152H339.033H331.206C330.947 44.8386 330.686 44.8594 330.432 44.9157C329.91 45.0704 329.462 45.4113 329.174 45.8736C328.863 46.3683 328.695 46.9388 328.687 47.5228V49.396C328.725 50.0737 328.556 50.7472 328.203 51.3272C328.022 51.6383 327.767 51.9 327.461 52.0887C327.154 52.2775 326.805 52.3874 326.445 52.4086H308.601C308.351 52.4204 308.101 52.3957 307.858 52.3352C307.613 52.2676 307.383 52.1535 307.181 51.9992C306.772 51.6903 306.462 51.2706 306.287 50.7903C306.106 50.3068 306.029 49.7913 306.058 49.2763C306.058 48.7664 306.058 48.2527 306.058 47.7313C306.077 47.215 305.977 46.7013 305.768 46.2289C305.557 45.7524 305.201 45.3549 304.75 45.0934C304.521 44.9657 304.268 44.8893 304.007 44.8693C303.747 44.8693 303.469 44.8693 303.202 44.8693H301.557H294.752H293.006C292.712 44.8693 292.414 44.8693 292.123 44.8925C291.829 44.9061 291.536 44.9449 291.249 45.0084C290.072 45.2647 288.987 45.8347 288.109 46.6576C286.31 48.2991 285.338 50.8096 285.315 53.3394C285.292 55.8693 285.315 58.5111 285.315 61.18C285.315 66.5177 285.315 72.064 285.315 77.8189C285.315 89.317 285.315 101.599 285.342 114.53C285.369 127.461 285.342 141.03 285.365 155.085C285.365 162.119 285.365 169.272 285.365 176.544C285.365 180.18 285.365 183.839 285.365 187.521V190.29C285.333 191.21 285.373 192.13 285.485 193.044C285.734 194.877 286.545 196.589 287.808 197.945C288.444 198.611 289.204 199.147 290.045 199.525C290.887 199.892 291.797 200.077 292.716 200.065H298.27H309.267L330.769 200.1H336.033H338.681C339.541 200.134 340.403 200.103 341.259 200.008C342.1 199.867 342.905 199.558 343.624 199.1C344.335 198.637 344.964 198.06 345.486 197.393C346.013 196.733 346.434 195.995 346.736 195.207C347.049 194.425 347.254 193.606 347.348 192.77C347.422 191.934 347.447 191.094 347.421 190.255V182.82C347.421 179.509 347.421 176.237 347.421 173.006C347.421 147.155 347.421 123.873 347.421 104.318C347.421 84.7633 347.421 68.9394 347.421 58.0051C347.421 56.6379 347.421 55.344 347.421 54.1428C347.432 53.5574 347.408 52.972 347.351 52.3893C347.293 51.8474 347.189 51.3113 347.042 50.7864C346.784 49.8515 346.377 48.9645 345.834 48.1601C345.38 47.4971 344.835 46.9005 344.216 46.3872C343.362 45.7019 342.354 45.234 341.278 45.0238C341.006 44.9669 340.728 44.9346 340.45 44.9273L340.167 44.8964Z" fill="#263238"/>
<path d="M204.272 128.809C204.326 128.809 204.349 129.037 204.322 129.304C204.295 129.57 204.229 129.779 204.175 129.775C204.121 129.771 204.098 129.547 204.125 129.28C204.152 129.014 204.214 128.805 204.272 128.809Z" fill="#263238"/>
<path d="M204.785 125.047C204.825 125.686 204.727 126.326 204.499 126.924C204.448 126.608 204.462 126.285 204.541 125.974C204.559 125.652 204.642 125.337 204.785 125.047Z" fill="#263238"/>
<path d="M205.546 121.328C205.578 121.648 205.542 121.972 205.441 122.278C205.402 122.597 205.298 122.904 205.136 123.182C205.105 122.862 205.142 122.54 205.244 122.235C205.28 121.915 205.383 121.606 205.546 121.328Z" fill="#263238"/>
<path d="M206.577 117.674C206.526 118.313 206.337 118.934 206.024 119.493C206.02 119.172 206.082 118.852 206.206 118.555C206.265 118.238 206.392 117.938 206.577 117.674Z" fill="#263238"/>
<path d="M207.908 114.109C207.884 114.43 207.796 114.743 207.648 115.029C207.56 115.338 207.409 115.626 207.203 115.874C207.227 115.554 207.315 115.241 207.462 114.955C207.55 114.645 207.701 114.357 207.908 114.109Z" fill="#263238"/>
<path d="M209.555 110.699C209.387 111.316 209.091 111.891 208.688 112.387C208.739 112.07 208.857 111.767 209.032 111.498C209.272 111.019 209.504 110.672 209.555 110.699Z" fill="#263238"/>
<path d="M211.545 107.462C211.457 107.774 211.305 108.064 211.1 108.316C210.821 108.756 210.554 109.088 210.508 109.061C210.585 108.748 210.729 108.456 210.93 108.204C211.224 107.759 211.499 107.431 211.545 107.462Z" fill="#263238"/>
<path d="M213.889 104.473C213.767 104.771 213.587 105.041 213.359 105.268C213.022 105.654 212.716 105.967 212.67 105.933C212.623 105.898 212.863 105.546 213.204 105.141C213.545 104.735 213.847 104.453 213.889 104.473Z" fill="#263238"/>
<path d="M216.568 101.78C216.607 101.823 216.328 102.147 215.949 102.507C215.569 102.866 215.229 103.125 215.174 103.086C215.12 103.047 215.411 102.723 215.794 102.36C216.177 101.997 216.533 101.75 216.568 101.78Z" fill="#263238"/>
<path d="M219.567 99.4321C219.598 99.4785 219.28 99.7682 218.858 100.077C218.619 100.291 218.339 100.454 218.034 100.556C217.999 100.514 218.316 100.224 218.742 99.9149C218.98 99.6978 219.261 99.5332 219.567 99.4321Z" fill="#263238"/>
<path d="M222.849 97.5205C222.361 97.9369 221.79 98.245 221.173 98.4243C221.146 98.3741 221.498 98.1346 221.947 97.8836C222.219 97.6994 222.526 97.5756 222.849 97.5205Z" fill="#263238"/>
<path d="M226.37 96.0874C225.828 96.4298 225.218 96.6511 224.582 96.7363C225.126 96.3982 225.735 96.1772 226.37 96.0874Z" fill="#263238"/>
<path d="M230.069 95.2303C229.783 95.3756 229.471 95.4623 229.151 95.4852C228.845 95.5825 228.523 95.6154 228.203 95.5818C228.785 95.3092 229.427 95.1883 230.069 95.2303Z" fill="#263238"/>
<path d="M233.869 95.0214C233.564 95.1217 233.241 95.1585 232.921 95.1296C232.601 95.1679 232.276 95.1377 231.969 95.0407C232.274 94.9393 232.597 94.9012 232.917 94.9287C233.237 94.8915 233.562 94.9231 233.869 95.0214Z" fill="#263238"/>
<path d="M237.655 95.4656C237.336 95.5133 237.01 95.4949 236.699 95.4116C236.376 95.3937 236.061 95.3081 235.773 95.1605C236.415 95.1299 237.056 95.2338 237.655 95.4656Z" fill="#263238"/>
<path d="M241.288 96.551C240.65 96.4732 240.037 96.2599 239.488 95.9253C239.81 95.9354 240.128 96.0089 240.421 96.1416C240.736 96.2154 241.031 96.3549 241.288 96.551Z" fill="#263238"/>
<path d="M244.676 98.2735C244.362 98.2051 244.064 98.0737 243.801 97.8872C243.508 97.7573 243.244 97.5679 243.027 97.3311C243.343 97.3978 243.641 97.5294 243.902 97.7173C244.359 97.9761 244.707 98.2271 244.676 98.2735Z" fill="#263238"/>
<path d="M247.654 100.622C247.362 100.491 247.099 100.303 246.88 100.07C246.493 99.7297 246.198 99.413 246.233 99.3705C246.268 99.3281 246.62 99.5714 247.007 99.919C247.394 100.267 247.692 100.591 247.654 100.622Z" fill="#263238"/>
<path d="M249.537 102.785C249.49 102.815 249.324 102.673 249.149 102.464C248.975 102.255 248.89 102.055 248.933 102.02C248.975 101.985 249.142 102.128 249.32 102.34C249.498 102.553 249.583 102.75 249.537 102.785Z" fill="#263238"/>
<path d="M267.435 126.055C267.11 126.014 266.798 125.906 266.517 125.738C266.029 125.514 265.654 125.29 265.681 125.24C266.316 125.387 266.913 125.664 267.435 126.055Z" fill="#263238"/>
<path d="M271.089 127.322C270.439 127.264 269.809 127.072 269.238 126.758C269.888 126.815 270.518 127.007 271.089 127.322Z" fill="#263238"/>
<path d="M274.908 127.933C274.586 127.997 274.255 127.997 273.933 127.933C273.606 127.931 273.283 127.861 272.984 127.728C273.305 127.664 273.635 127.664 273.956 127.728C274.284 127.731 274.608 127.801 274.908 127.933Z" fill="#263238"/>
<path d="M278.771 127.813C278.468 127.934 278.142 127.992 277.815 127.983C277.492 128.043 277.159 128.033 276.84 127.956C277.146 127.836 277.472 127.777 277.8 127.782C278.122 127.725 278.453 127.735 278.771 127.813Z" fill="#263238"/>
<path d="M282.573 127.102C282.291 127.269 281.979 127.38 281.655 127.426C281.341 127.524 281.011 127.557 280.684 127.523C280.971 127.365 281.287 127.267 281.613 127.233C281.92 127.124 282.247 127.079 282.573 127.102Z" fill="#263238"/>
<path d="M286.164 125.696C286.191 125.746 285.815 125.967 285.327 126.195C285.046 126.361 284.732 126.467 284.406 126.504C284.93 126.116 285.528 125.841 286.164 125.696Z" fill="#263238"/>
<path d="M289.375 123.525C289.409 123.568 289.107 123.885 288.678 124.209C288.436 124.432 288.146 124.596 287.83 124.688C287.799 124.642 288.132 124.367 288.558 124.051C288.796 123.828 289.073 123.65 289.375 123.525Z" fill="#263238"/>
<path d="M292.008 120.706C291.903 121.019 291.727 121.303 291.493 121.537C291.149 121.95 290.816 122.236 290.777 122.197C290.739 122.158 291.002 121.811 291.339 121.405C291.675 121 291.962 120.675 292.008 120.706Z" fill="#263238"/>
<path d="M293.817 117.307C293.804 117.637 293.713 117.959 293.55 118.246C293.443 118.557 293.265 118.84 293.031 119.072C293.089 118.752 293.202 118.443 293.364 118.161C293.467 117.853 293.62 117.565 293.817 117.307Z" fill="#263238"/>
<path d="M294.552 113.53C294.644 113.846 294.659 114.18 294.594 114.503C294.594 114.833 294.511 115.159 294.354 115.449C294.315 115.128 294.328 114.801 294.393 114.484C294.393 114.159 294.446 113.837 294.552 113.53Z" fill="#263238"/>
<path d="M293.977 109.722C294.163 109.994 294.282 110.306 294.325 110.633C294.43 110.945 294.457 111.278 294.406 111.603C294.262 111.312 294.167 110.998 294.128 110.676C294.024 110.368 293.973 110.046 293.977 109.722Z" fill="#263238"/>
<path d="M292.293 106.261C292.336 106.226 292.63 106.558 292.901 107.033C293.094 107.299 293.219 107.608 293.265 107.933C293.214 107.96 292.99 107.589 292.727 107.134C292.535 106.868 292.389 106.574 292.293 106.261Z" fill="#263238"/>
<path d="M289.607 103.503C289.921 103.608 290.204 103.787 290.432 104.025C290.842 104.38 291.109 104.728 291.071 104.766C291.032 104.805 290.684 104.523 290.296 104.179C289.909 103.836 289.577 103.55 289.607 103.503Z" fill="#263238"/>
<path d="M286.094 101.935C286.425 101.904 286.758 101.959 287.061 102.094C287.383 102.163 287.682 102.31 287.932 102.522C287.61 102.488 287.295 102.402 287 102.267C286.682 102.203 286.377 102.091 286.094 101.935Z" fill="#263238"/>
<path d="M282.262 102.001C282.543 101.825 282.866 101.728 283.198 101.719C283.522 101.645 283.859 101.656 284.178 101.75C283.542 101.894 282.894 101.978 282.242 102.001H282.262Z" fill="#263238"/>
<path d="M278.922 103.862C278.88 103.827 279.147 103.476 279.584 103.14C279.83 102.915 280.132 102.761 280.459 102.696C280.486 102.75 280.122 102.985 279.685 103.302C279.248 103.619 278.965 103.901 278.922 103.862Z" fill="#263238"/>
<path d="M277.391 107.331C277.318 107.006 277.338 106.667 277.449 106.354C277.494 106.023 277.635 105.713 277.855 105.461C277.821 105.781 277.749 106.096 277.643 106.4C277.6 106.72 277.515 107.033 277.391 107.331Z" fill="#263238"/>
<path d="M278.145 111.074C277.916 110.834 277.754 110.538 277.677 110.216C277.535 109.915 277.479 109.581 277.514 109.25C277.673 109.533 277.791 109.836 277.866 110.15C278.004 110.443 278.097 110.754 278.145 111.074Z" fill="#263238"/>
<path d="M280.675 113.947C280.36 113.845 280.076 113.664 279.851 113.422C279.44 113.066 279.189 112.703 279.231 112.649C279.274 112.595 279.587 112.904 279.982 113.252C280.377 113.599 280.706 113.901 280.675 113.947Z" fill="#263238"/>
<path d="M284.19 115.519C283.86 115.537 283.531 115.475 283.23 115.338C282.906 115.262 282.606 115.105 282.359 114.882C282.682 114.916 282.997 115.002 283.292 115.137C283.611 115.212 283.915 115.341 284.19 115.519Z" fill="#263238"/>
<path d="M288.029 115.882C287.392 116.046 286.723 116.031 286.094 115.84C286.412 115.773 286.738 115.757 287.061 115.793C287.387 115.767 287.714 115.797 288.029 115.882Z" fill="#263238"/>
<path d="M291.842 115.179C291.273 115.505 290.625 115.671 289.969 115.658C290.254 115.503 290.565 115.4 290.886 115.353C291.193 115.243 291.516 115.184 291.842 115.179Z" fill="#263238"/>
<path d="M295.329 113.576C295.099 113.809 294.824 113.993 294.52 114.117C294.247 114.298 293.941 114.422 293.618 114.48C293.595 114.426 293.959 114.186 294.427 113.939C294.701 113.759 295.007 113.636 295.329 113.576Z" fill="#263238"/>
<path d="M298.423 111.274C298.461 111.317 298.155 111.626 297.741 111.966C297.508 112.196 297.232 112.378 296.928 112.503C296.894 112.456 297.203 112.147 297.614 111.811C297.846 111.582 298.121 111.4 298.423 111.274Z" fill="#263238"/>
<path d="M301.075 108.451C301.117 108.486 300.869 108.837 300.521 109.251C300.173 109.664 299.855 109.957 299.817 109.919C299.778 109.88 300.022 109.532 300.366 109.119C300.711 108.706 301.028 108.42 301.075 108.451Z" fill="#263238"/>
<path d="M303.202 105.226C303.127 105.544 302.988 105.844 302.792 106.106C302.513 106.566 302.253 106.914 302.207 106.879C302.282 106.56 302.422 106.261 302.617 105.998C302.892 105.55 303.151 105.203 303.202 105.226Z" fill="#263238"/>
<path d="M304.771 101.7C304.747 102.027 304.659 102.345 304.511 102.638C304.426 102.955 304.269 103.248 304.055 103.496C304.088 103.172 304.178 102.857 304.322 102.565C304.411 102.249 304.564 101.955 304.771 101.7Z" fill="#263238"/>
<path d="M305.851 97.9956C305.871 98.3214 305.822 98.6476 305.708 98.9535C305.657 99.2772 305.541 99.5873 305.367 99.865C305.395 99.2148 305.559 98.5777 305.851 97.9956Z" fill="#263238"/>
<path d="M306.528 94.1948C306.581 94.5176 306.566 94.848 306.482 95.1643C306.464 95.4903 306.381 95.8094 306.238 96.1028C306.185 95.78 306.2 95.4496 306.284 95.1334C306.303 94.8075 306.385 94.4885 306.528 94.1948Z" fill="#263238"/>
<path d="M306.885 90.3481C306.975 90.9947 306.927 91.653 306.742 92.2793C306.669 91.9598 306.66 91.6291 306.715 91.306C306.707 90.9785 306.765 90.6528 306.885 90.3481Z" fill="#263238"/>
<path d="M307.01 86.4897C307.132 87.1292 307.118 87.7868 306.972 88.4209C306.882 88.106 306.854 87.7768 306.89 87.4515C306.866 87.1261 306.907 86.7993 307.01 86.4897Z" fill="#263238"/>
<path d="M306.982 82.6274C307.085 82.9382 307.125 83.2666 307.098 83.593C307.137 83.9175 307.106 84.2466 307.009 84.5586C306.905 84.2478 306.866 83.9194 306.893 83.593C306.858 83.2684 306.889 82.9403 306.982 82.6274Z" fill="#263238"/>
<path d="M306.941 80.252C306.995 80.252 307.045 80.3485 307.049 80.4721C307.053 80.5957 307.01 80.6923 306.952 80.6961C306.894 80.7 306.848 80.5996 306.848 80.476C306.848 80.3524 306.871 80.252 306.941 80.252Z" fill="#263238"/>
<path d="M318.247 58.9L291.938 61.752L293.864 79.4493L320.174 76.5974L318.247 58.9Z" fill="#2CD2AD"/>
<path d="M318.348 59.1157C318.283 59.21 318.209 59.298 318.128 59.3784L317.466 60.1006L314.992 62.7193L306.752 71.3168L306.678 71.3979L306.593 71.3439L306.392 71.2164L296.227 64.7161L293.13 62.727L292.302 62.1747C292.203 62.1137 292.108 62.0453 292.02 61.97C292.129 62.0115 292.233 62.0659 292.329 62.1322L293.181 62.6459L296.277 64.5771L306.531 71.0117L306.732 71.1392H306.581L314.872 62.588L317.4 60.0234L318.093 59.3359C318.171 59.255 318.257 59.1813 318.348 59.1157Z" fill="#263238"/>
<path d="M293.966 79.6636C293.912 79.6289 295.627 76.987 297.794 73.7697C299.962 70.5524 301.77 67.9762 301.824 68.0071C301.878 68.038 300.167 70.6837 297.996 73.901C295.824 77.1184 294.02 79.7023 293.966 79.6636Z" fill="#263238"/>
<path d="M310.552 66.8367C310.602 66.7903 312.82 68.988 315.506 71.7418C318.193 74.4956 320.333 76.7628 320.287 76.813C320.24 76.8633 318.022 74.6656 315.332 71.9079C312.642 69.1502 310.498 66.883 310.552 66.8367Z" fill="#263238"/>
<path d="M195.255 122.448C195.31 122.448 195.391 122.645 195.437 122.907C195.484 123.17 195.472 123.39 195.418 123.402C195.364 123.413 195.282 123.205 195.236 122.938C195.19 122.672 195.201 122.455 195.255 122.448Z" fill="#263238"/>
<path d="M194.635 118.678C194.781 118.967 194.867 119.282 194.887 119.605C194.971 119.917 194.989 120.243 194.941 120.563C194.793 120.275 194.708 119.959 194.69 119.636C194.606 119.324 194.587 118.998 194.635 118.678Z" fill="#263238"/>
<path d="M194.084 114.901C194.225 115.192 194.304 115.509 194.316 115.832C194.392 116.145 194.404 116.471 194.351 116.79C194.208 116.499 194.129 116.182 194.119 115.859C194.042 115.545 194.03 115.219 194.084 114.901Z" fill="#263238"/>
<path d="M193.65 111.108C193.779 111.404 193.848 111.723 193.851 112.046C193.919 112.362 193.919 112.689 193.851 113.004C193.722 112.708 193.654 112.389 193.654 112.066C193.586 111.75 193.584 111.424 193.65 111.108Z" fill="#263238"/>
<path d="M193.382 107.296C193.552 107.917 193.589 108.567 193.49 109.204C193.32 108.583 193.283 107.932 193.382 107.296Z" fill="#263238"/>
<path d="M193.346 103.476C193.477 104.107 193.477 104.757 193.346 105.388C193.245 105.081 193.212 104.755 193.249 104.434C193.214 104.111 193.246 103.785 193.346 103.476Z" fill="#263238"/>
<path d="M193.585 99.668C193.655 99.9841 193.662 100.311 193.604 100.63C193.61 100.953 193.549 101.273 193.426 101.572C193.351 101.258 193.343 100.932 193.403 100.614C193.397 100.29 193.459 99.9674 193.585 99.668Z" fill="#263238"/>
<path d="M194.155 95.8945C194.203 96.2148 194.18 96.5415 194.089 96.8524C194.066 97.1753 193.975 97.4898 193.822 97.7755C193.803 97.1324 193.916 96.4922 194.155 95.8945Z" fill="#263238"/>
<path d="M195.136 92.2056C195.141 92.5284 195.08 92.8488 194.958 93.148C194.897 93.4647 194.772 93.7657 194.591 94.0325C194.582 93.7096 194.642 93.3886 194.765 93.09C194.824 92.7722 194.951 92.4706 195.136 92.2056Z" fill="#263238"/>
<path d="M196.563 88.6641C196.53 88.9862 196.43 89.2979 196.269 89.5795C196.168 89.8867 196.006 90.1705 195.793 90.4137C195.926 89.7831 196.19 89.1872 196.567 88.6641H196.563Z" fill="#263238"/>
<path d="M198.428 85.3349C198.353 85.6491 198.215 85.9448 198.022 86.204C197.751 86.652 197.492 86.9957 197.441 86.9764C197.518 86.662 197.657 86.3663 197.852 86.1074C198.123 85.6478 198.382 85.304 198.428 85.3349Z" fill="#263238"/>
<path d="M200.727 82.2796C200.77 82.3182 200.538 82.6658 200.209 83.0868C199.88 83.5078 199.574 83.8013 199.527 83.7666C199.646 83.4653 199.823 83.1908 200.05 82.9593C200.383 82.5499 200.689 82.2448 200.727 82.2796Z" fill="#263238"/>
<path d="M203.448 79.5954C203.482 79.6418 203.196 79.9817 202.809 80.3138C202.422 80.646 202.073 80.9241 202.035 80.8855C201.996 80.8468 202.282 80.5263 202.673 80.1671C203.064 79.8079 203.413 79.553 203.448 79.5954Z" fill="#263238"/>
<path d="M206.573 77.417C206.6 77.4672 206.263 77.7337 205.818 78.0157C205.564 78.2159 205.272 78.3618 204.959 78.4444C204.928 78.4019 205.265 78.1315 205.71 77.8457C205.966 77.6473 206.26 77.5015 206.573 77.417Z" fill="#263238"/>
<path d="M210.058 75.8374C209.807 76.0422 209.515 76.1922 209.202 76.2777C208.915 76.4255 208.6 76.5123 208.277 76.5326C208.529 76.3286 208.82 76.1787 209.133 76.0923C209.42 75.944 209.735 75.8572 210.058 75.8374Z" fill="#263238"/>
<path d="M212.851 75.15C212.851 75.204 212.658 75.289 212.398 75.3392C212.139 75.3894 211.914 75.3856 211.903 75.3392C211.891 75.2929 212.096 75.2002 212.36 75.15C212.623 75.0998 212.843 75.0998 212.851 75.15Z" fill="#263238"/>
<path d="M192.265 60.6451L185.27 78.6968L212.108 89.0519L219.103 71.0003L192.265 60.6451Z" fill="#2CD2AD"/>
<path d="M212.105 89.0694L185.258 78.7106L192.26 60.6504L219.108 71.0092L212.105 89.0694ZM185.281 78.6952L212.105 89.0424L219.096 71.0092L192.272 60.662L185.281 78.6952Z" fill="#263238"/>
<path d="M219.105 71.2567C218.997 71.3156 218.883 71.3635 218.765 71.3996L217.762 71.7627L214.066 73.0604L201.803 77.2626L201.703 77.2974L201.648 77.2047L201.517 76.9807L194.937 65.637L192.966 62.1841L192.444 61.2378C192.376 61.1304 192.319 61.0166 192.273 60.8979C192.354 60.9957 192.425 61.1004 192.486 61.2108L193.055 62.13C193.551 62.9604 194.244 64.123 195.095 65.5443C196.814 68.4565 199.159 72.4463 201.749 76.8494L201.881 77.0734L201.726 77.0155L214.015 72.8866L217.739 71.67L218.757 71.3494C218.87 71.3062 218.986 71.2752 219.105 71.2567Z" fill="#263238"/>
<path d="M185.27 78.9617C185.235 78.8999 188.212 77.2043 191.92 75.1766C195.628 73.1489 198.659 71.5537 198.694 71.6155C198.728 71.6773 195.752 73.3729 192.044 75.4045C188.335 77.436 185.305 79.0119 185.27 78.9617Z" fill="#263238"/>
<path d="M207.703 74.8214C207.773 74.8021 208.814 78.0271 210.025 82.0246C211.237 86.0221 212.174 89.2858 212.104 89.3051C212.034 89.3244 210.993 86.1032 209.781 82.1019C208.57 78.1005 207.633 74.8407 207.703 74.8214Z" fill="#263238"/>
<path d="M183.987 126.673C184.041 126.673 184.068 126.897 184.049 127.164C184.03 127.43 183.964 127.643 183.91 127.639C183.855 127.635 183.824 127.415 183.848 127.148C183.871 126.882 183.933 126.67 183.987 126.673Z" fill="#263238"/>
<path d="M184.082 122.745C184.183 123.063 184.217 123.398 184.183 123.73C184.213 124.061 184.178 124.394 184.078 124.711C183.981 124.394 183.948 124.06 183.982 123.73C183.951 123.398 183.985 123.064 184.082 122.745Z" fill="#263238"/>
<path d="M183.814 118.825C184.006 119.459 184.068 120.125 183.996 120.783C183.866 120.477 183.801 120.146 183.806 119.813C183.744 119.487 183.747 119.151 183.814 118.825Z" fill="#263238"/>
<path d="M183.161 114.951C183.318 115.245 183.416 115.566 183.448 115.897C183.543 116.216 183.573 116.551 183.537 116.882C183.38 116.589 183.283 116.267 183.25 115.936C183.152 115.617 183.122 115.282 183.161 114.951Z" fill="#263238"/>
<path d="M182.09 111.17C182.413 111.749 182.613 112.388 182.678 113.047C182.49 112.773 182.358 112.465 182.291 112.139C182.159 111.833 182.09 111.503 182.09 111.17Z" fill="#263238"/>
<path d="M180.582 107.543C180.804 107.791 180.972 108.081 181.077 108.397C181.243 108.686 181.35 109.005 181.391 109.335C181.171 109.086 181.003 108.796 180.896 108.482C180.729 108.193 180.622 107.874 180.582 107.543Z" fill="#263238"/>
<path d="M178.629 104.133C178.675 104.102 178.954 104.449 179.248 104.905C179.445 105.175 179.587 105.481 179.666 105.805C179.616 105.832 179.353 105.477 179.074 105.01C178.869 104.75 178.717 104.452 178.629 104.133Z" fill="#263238"/>
<path d="M176.219 101.031C176.261 100.992 176.579 101.301 176.927 101.719C177.164 101.954 177.352 102.233 177.481 102.541C177.434 102.572 177.121 102.263 176.772 101.85C176.535 101.616 176.347 101.338 176.219 101.031Z" fill="#263238"/>
<path d="M173.399 98.2965C173.434 98.254 173.786 98.5167 174.197 98.8797C174.607 99.2428 174.897 99.5749 174.859 99.6136C174.557 99.4736 174.286 99.2754 174.061 99.0303C173.651 98.6596 173.353 98.339 173.399 98.2965Z" fill="#263238"/>
<path d="M170.197 96.0024C170.517 96.0948 170.815 96.2512 171.072 96.4621C171.525 96.7633 171.869 97.0453 171.846 97.0916C171.527 96.9954 171.23 96.8379 170.971 96.6281C170.511 96.3423 170.166 96.0488 170.197 96.0024Z" fill="#263238"/>
<path d="M166.691 94.2183C167.022 94.2606 167.341 94.3697 167.628 94.5388C167.943 94.6477 168.232 94.8184 168.48 95.0409C167.834 94.8909 167.225 94.611 166.691 94.2183Z" fill="#263238"/>
<path d="M162.949 93.0323C163.283 93.0207 163.616 93.0745 163.929 93.1907C164.258 93.2457 164.572 93.3666 164.854 93.546C164.52 93.5561 164.188 93.5024 163.874 93.3877C163.546 93.3306 163.231 93.2099 162.949 93.0323Z" fill="#263238"/>
<path d="M159.035 92.5341C159.692 92.4238 160.367 92.4782 160.998 92.6924C160.339 92.7455 159.676 92.692 159.035 92.5341Z" fill="#263238"/>
<path d="M155.109 92.8046C155.739 92.5943 156.406 92.5155 157.068 92.5729C156.764 92.7099 156.434 92.7835 156.1 92.7892C155.774 92.8582 155.438 92.8635 155.109 92.8046Z" fill="#263238"/>
<path d="M151.309 93.8166C151.582 93.6274 151.892 93.496 152.218 93.4303C152.523 93.2977 152.853 93.2293 153.186 93.2295C152.912 93.4177 152.602 93.5491 152.276 93.6157C151.97 93.7455 151.641 93.8137 151.309 93.8166Z" fill="#263238"/>
<path d="M147.762 95.5156C147.996 95.2785 148.275 95.0896 148.582 94.9595C148.858 94.7706 149.168 94.6392 149.496 94.5732C149.262 94.8111 148.983 95.0002 148.675 95.1294C148.401 95.3209 148.09 95.4525 147.762 95.5156Z" fill="#263238"/>
<path d="M144.62 97.8871C144.582 97.8484 144.891 97.5317 145.309 97.1803C145.545 96.944 145.825 96.7563 146.134 96.6279C146.165 96.6743 145.855 96.991 145.441 97.3347C145.208 97.5731 144.929 97.7611 144.62 97.8871Z" fill="#263238"/>
<path d="M142.047 100.842C142.146 100.522 142.317 100.229 142.546 99.9845C142.883 99.5519 143.212 99.2507 143.251 99.2854C143.289 99.3202 143.038 99.6717 142.705 100.108C142.372 100.545 142.093 100.873 142.047 100.842Z" fill="#263238"/>
<path d="M140.609 103.391C140.559 103.368 140.609 103.156 140.729 102.912C140.849 102.669 140.981 102.495 141.031 102.526C141.081 102.557 141.031 102.765 140.911 103.005C140.791 103.244 140.66 103.414 140.609 103.391Z" fill="#263238"/>
<path d="M116.016 126.183C116.016 126.129 116.221 126.059 116.484 126.024C116.747 125.99 116.968 126.024 116.976 126.067C116.983 126.109 116.778 126.194 116.507 126.225C116.236 126.256 116.019 126.241 116.016 126.183Z" fill="#263238"/>
<path d="M112.184 125.75C112.509 125.747 112.833 125.795 113.144 125.893C113.468 125.927 113.784 126.013 114.08 126.148C113.424 126.21 112.763 126.076 112.184 125.762V125.75Z" fill="#263238"/>
<path d="M108.717 124.039C109.029 124.136 109.322 124.285 109.584 124.479C110.041 124.75 110.408 124.978 110.385 125.032C110.059 124.974 109.75 124.842 109.483 124.645C109.019 124.375 108.686 124.085 108.717 124.039Z" fill="#263238"/>
<path d="M105.837 121.448C105.879 121.413 106.197 121.706 106.572 122.085C106.948 122.463 107.238 122.784 107.203 122.823C107.168 122.861 106.816 122.61 106.429 122.228C106.042 121.845 105.794 121.498 105.837 121.448Z" fill="#263238"/>
<path d="M103.559 118.331C103.609 118.304 103.884 118.64 104.174 119.084C104.379 119.34 104.531 119.634 104.623 119.949C104.577 119.984 104.302 119.644 104.008 119.196C103.8 118.941 103.647 118.647 103.559 118.331Z" fill="#263238"/>
<path d="M101.887 114.843C102.1 115.091 102.261 115.38 102.359 115.692C102.514 115.981 102.613 116.297 102.649 116.623C102.434 116.376 102.272 116.086 102.173 115.774C102.017 115.485 101.919 115.169 101.887 114.843Z" fill="#263238"/>
<path d="M100.777 111.135C100.951 111.413 101.069 111.723 101.121 112.047C101.236 112.354 101.286 112.681 101.268 113.008C101.091 112.732 100.974 112.422 100.924 112.097C100.81 111.79 100.76 111.462 100.777 111.135Z" fill="#263238"/>
<path d="M100.105 107.323C100.247 107.618 100.329 107.938 100.349 108.265C100.43 108.583 100.446 108.914 100.395 109.238C100.25 108.944 100.167 108.624 100.151 108.296C100.068 107.978 100.052 107.647 100.105 107.323Z" fill="#263238"/>
<path d="M99.7316 103.472C99.9176 104.098 99.9703 104.756 99.8864 105.403C99.7624 105.101 99.7018 104.776 99.7084 104.449C99.6476 104.126 99.6555 103.793 99.7316 103.472Z" fill="#263238"/>
<path d="M99.5679 100.591C99.626 100.591 99.6802 100.803 99.6918 101.07C99.7034 101.336 99.6686 101.553 99.6144 101.556C99.5602 101.56 99.5021 101.344 99.4905 101.077C99.4789 100.811 99.5137 100.591 99.5679 100.591Z" fill="#263238"/>
<path d="M114.145 77.1535L81.9609 78.668L82.984 100.315L115.168 98.801L114.145 77.1535Z" fill="#2CD2AD"/>
<path d="M82.9711 100.324L81.9492 78.6683L114.146 77.1543L115.168 98.8104L82.9711 100.324ZM81.9686 78.676L82.9905 100.305L115.156 98.7911L114.135 77.162L81.9686 78.676Z" fill="#263238"/>
<path d="M114.26 77.417C114.174 77.5265 114.078 77.6274 113.973 77.7183L113.114 78.5448L109.92 81.5381L99.2642 91.3754L99.1752 91.4566L99.0784 91.387L98.8462 91.2171L86.9475 82.5732C85.4534 81.4686 84.238 80.5687 83.3632 79.9275L82.3994 79.1937C82.2822 79.1146 82.1733 79.024 82.0742 78.9233C82.2 78.9883 82.3204 79.0632 82.4342 79.1473L83.4329 79.8348L87.0714 82.4071L99.0126 90.9815L99.2487 91.1514H99.063L109.777 81.3759L113.036 78.4444L113.934 77.6719C114.034 77.5759 114.143 77.4905 114.26 77.417Z" fill="#263238"/>
<path d="M83.095 100.591C83.0331 100.541 85.3129 97.4588 88.1889 93.7085C91.0649 89.9581 93.4493 86.9571 93.5112 87.0035C93.5731 87.0498 91.2971 90.1358 88.4211 93.8861C85.5452 97.6364 83.1608 100.618 83.095 100.591Z" fill="#263238"/>
<path d="M104.196 86.2112C104.258 86.1571 106.79 88.9921 109.848 92.5377C112.906 96.0833 115.34 99.0032 115.267 99.0573C115.193 99.1114 112.677 96.2764 109.616 92.7269C106.554 89.1775 104.135 86.2653 104.196 86.2112Z" fill="#263238"/>
<path fill-rule="evenodd" clip-rule="evenodd" d="M374.605 46.0957C373.501 46.0957 372.605 46.9911 372.605 48.0957V63.2476C372.605 64.3521 373.501 65.2476 374.605 65.2476H377.53V69.7835L383.44 65.2476H396.214C397.318 65.2476 398.214 64.3521 398.214 63.2476V48.0957C398.214 46.9911 397.318 46.0957 396.214 46.0957H374.605Z" fill="#75A2FF"/>
<line x1="376.945" y1="51.998" x2="393.871" y2="51.998" stroke="white" stroke-linecap="round"/>
<line x1="376.945" y1="55.8389" x2="393.871" y2="55.8389" stroke="white" stroke-linecap="round"/>
<line x1="376.945" y1="59.6802" x2="393.871" y2="59.6802" stroke="white" stroke-linecap="round"/>
<path fill-rule="evenodd" clip-rule="evenodd" d="M56.082 69.1431C57.1866 69.1431 58.082 70.0385 58.082 71.1431V82.154C58.082 83.2586 57.1866 84.154 56.082 84.154H54.2991V87.7092L49.76 84.154H40.4124C39.3078 84.154 38.4124 83.2586 38.4124 82.154V71.1431C38.4124 70.0385 39.3078 69.1431 40.4124 69.1431H56.082Z" fill="#75A2FF"/>
<line x1="0.5" y1="-0.5" x2="13.3286" y2="-0.5" transform="matrix(-1 0 0 1 55.1172 74.3745)" stroke="white" stroke-linecap="round"/>
<line x1="0.5" y1="-0.5" x2="13.3286" y2="-0.5" transform="matrix(-1 0 0 1 55.1172 77.3379)" stroke="white" stroke-linecap="round"/>
<line x1="0.5" y1="-0.5" x2="13.3286" y2="-0.5" transform="matrix(-1 0 0 1 55.1172 80.3013)" stroke="white" stroke-linecap="round"/>
<path fill-rule="evenodd" clip-rule="evenodd" d="M223.273 23.0479C224.378 23.0479 225.273 23.9433 225.273 25.0479V36.0588C225.273 37.1633 224.378 38.0588 223.273 38.0588H221.595V41.614L217.182 38.0588H208.149C207.044 38.0588 206.149 37.1633 206.149 36.0588V25.0479C206.149 23.9433 207.044 23.0479 208.149 23.0479H223.273Z" fill="#75A2FF"/>
<line x1="0.5" y1="-0.5" x2="13.3286" y2="-0.5" transform="matrix(-1 0 0 1 222.309 28.2793)" stroke="white" stroke-linecap="round"/>
<line x1="0.5" y1="-0.5" x2="13.3286" y2="-0.5" transform="matrix(-1 0 0 1 222.309 31.2427)" stroke="white" stroke-linecap="round"/>
<line x1="0.5" y1="-0.5" x2="13.3286" y2="-0.5" transform="matrix(-1 0 0 1 222.309 34.2061)" stroke="white" stroke-linecap="round"/>
<path d="M375.164 98.5928H308.582V139.566H375.164V98.5928Z" fill="#FF4D4D"/>
<path opacity="0.5" d="M309.223 99.2329L342.514 120.36L374.524 99.2329" stroke="#272833" stroke-width="0.5" stroke-linecap="round" stroke-linejoin="round"/>
<path opacity="0.5" d="M308.582 139.566L329.069 111.397" stroke="#272833" stroke-width="0.5" stroke-miterlimit="10"/>
<path d="M375.238 105.987C375.454 105.92 375.684 105.919 375.9 105.983C376.117 106.048 376.309 106.175 376.454 106.348C376.746 106.736 376.914 107.203 376.934 107.689C377.413 108.272 377.782 108.938 378.023 109.654C378.143 110.363 376.807 113.668 376.807 113.668L380.207 122.306L375.478 114.157C375.478 114.157 373.294 110.263 373.047 109.654C372.848 108.571 372.767 107.47 372.807 106.37C372.807 105.76 372.687 104.426 373.415 105.157C373.818 105.536 374.147 105.988 374.383 106.49V106.98L375.238 105.987Z" fill="#FFE8BB"/>
<path d="M334.139 136.768L331.835 136.52C331.078 136.309 330.308 136.148 329.531 136.038C328.551 136.33 327.643 136.826 326.866 137.492C326.378 137.981 325.65 138.201 326.018 138.711C326.386 139.222 328.195 138.591 328.195 138.591L326.619 140.655C326.626 140.906 326.713 141.147 326.867 141.345C327.021 141.543 327.233 141.686 327.474 141.754C328.104 141.855 328.749 141.724 329.29 141.385C329.29 141.385 331.227 141.754 331.595 141.875C331.962 141.995 336.203 139.442 336.203 139.442L334.139 136.768Z" fill="#FFE8BB"/>
<path d="M346.628 136.158L345.412 165.237C345.412 165.237 345.78 184.578 346.508 188.231C347.236 191.883 347.836 195.04 347.836 195.04L347.236 196.38V198.203C347.236 198.203 342.868 201.246 341.899 201.976C340.931 202.707 340.323 203.075 340.931 203.437C341.539 203.799 349.66 204.288 351.116 204.288C352.572 204.288 353.54 204.168 353.66 203.579C353.78 202.99 353.54 198.614 353.54 198.614C353.54 198.614 353.901 195.692 354.021 194.841C354.141 193.99 353.66 190.465 353.66 188.394C353.66 186.323 354.268 172.337 354.367 169.776C354.466 167.216 356.565 152.917 356.565 152.917C356.565 152.917 361.053 185.401 361.301 186.862C361.548 188.323 363.598 195.373 363.598 195.373V196.891C363.598 197.252 364.305 199.806 364.305 199.806C364.305 199.806 364.305 203.82 364.912 204.189C365.52 204.558 367.824 204.678 368.552 203.82C369.28 202.962 368.432 199.444 368.432 199.444C368.432 199.444 368.673 196.401 368.673 195.189C368.673 193.976 367.824 190.685 367.824 189.834C367.824 188.983 366.856 163.187 366.856 163.187L367.457 136.3L346.748 134.477L346.628 136.158Z" fill="#263238"/>
<path d="M356.693 100.263C356.693 100.263 346.869 104.646 346.388 106.469C345.908 108.292 346.141 135.307 346.261 136.257C346.381 137.208 352.205 138.569 356.446 138.931C360.687 139.293 366.751 137.718 367.479 136.257C368.207 134.796 369.303 123.129 369.303 123.129L370.009 120.576C370.009 120.576 375.218 126.54 377.643 127.668C380.067 128.796 381.283 126.817 381.042 124.831C380.802 122.845 375.36 113.2 374.49 111.072C373.621 108.944 373.282 105.235 372.313 104.015C371.345 102.795 366.977 99.5111 366.977 99.5111C366.977 99.5111 360.446 97.7096 356.693 100.263Z" fill="white"/>
<path d="M351.358 103.185C351.358 103.185 344.813 105.618 344.446 107.441C344.078 109.263 344.205 126.179 344.205 126.179L334.141 136.768L335.717 140.314C335.717 140.314 341.371 136.91 346.191 133.633C349.789 131.207 352.948 128.853 353.054 128.023C353.295 126.08 353.054 110.143 353.054 110.143" fill="white"/>
<path d="M365.177 92.355L365.304 98.0786L357.176 100.022L358.752 93.0855C358.946 92.3828 359.354 91.7587 359.919 91.3007C360.485 90.8427 361.179 90.574 361.904 90.5322C362.572 90.4488 363.248 90.5804 363.837 90.908C364.425 91.2356 364.894 91.7424 365.177 92.355Z" fill="#FFE8BB"/>
<path d="M357.664 82.7447C357.664 82.7447 355.72 84.5675 355.72 85.298C355.72 86.0285 354.872 87.369 354.511 87.979C354.151 88.5889 352.568 88.6882 352.695 89.6812C352.741 89.967 352.868 90.2335 353.061 90.4487C353.254 90.6638 353.505 90.8184 353.783 90.894C353.783 90.894 352.327 97.8304 354.49 98.5609C356.653 99.2914 360.356 95.3977 360.356 95.3977L361.205 92.4756C362.441 92.7932 363.697 93.0302 364.965 93.1848C365.813 93.1848 368.499 90.7521 369.912 88.5676C371.326 86.3832 368.096 81.4752 363.855 79.929C359.614 78.3829 356.215 80.5319 356.215 81.5107C356.215 82.4894 357.664 82.7447 357.664 82.7447Z" fill="#FFE8BB"/>
<path d="M363.848 79.9504C359.608 78.3687 356.208 80.5532 356.208 81.532C356.208 82.5107 357.48 82.7093 357.621 82.7448C357.621 82.7448 360.654 83.5959 360.654 84.447C360.654 85.2981 359.947 85.1562 359.805 85.5463C359.664 85.9364 359.438 86.1492 359.926 86.518L360.406 86.8797C360.406 86.8797 359.699 90.6529 359.438 91.6245C359.389 91.9954 359.195 92.3316 358.9 92.5601C358.605 92.7886 358.232 92.8908 357.862 92.8445C357.155 92.8445 354.83 90.5323 353.741 90.894C353.741 90.894 352.285 97.8304 354.448 98.561C356.611 99.2915 360.357 95.3977 360.357 95.3977L361.205 92.4756C362.442 92.7933 363.698 93.0302 364.965 93.1849C365.813 93.1849 368.499 90.7522 369.913 88.5677C371.326 86.3832 368.089 81.532 363.848 79.9504Z" fill="#0053FF"/>
<path d="M353.992 93.3408C354.737 93.6076 355.551 93.6076 356.296 93.3408H353.992Z" fill="#FFE8BB"/>
<path d="M360.694 89.4398C360.694 89.4398 361.783 87.7305 362.511 88.5887C363.239 89.4469 362.751 91.8725 361.903 92.3548C361.706 92.5031 361.461 92.5728 361.216 92.5506C360.97 92.5283 360.742 92.4156 360.574 92.2342L360.694 89.4398Z" fill="#FFE8BB"/>
<path d="M365.174 96.6178C365.174 96.6178 359.598 97.4689 358.389 97.8306C357.255 98.2616 356.16 98.7908 355.117 99.4122L354.629 101.242C354.629 101.242 363.11 99.4122 364.694 99.4122C365.464 99.3966 366.234 99.4369 366.998 99.5328C366.998 99.5328 366.39 96.4972 365.174 96.6178Z" fill="#E8E8E8"/>
<path d="M346.043 133.747L352.659 128.378L352.51 109.576" stroke="#D6D6D6" stroke-miterlimit="10"/>
</g>
<defs>
<clipPath id="clip0_762_135833">
<rect width="484" height="212.55" rx="4" fill="white"/>
</clipPath>
</defs>
</svg>
