<svg width="450" height="288" viewBox="0 0 450 288" fill="none" xmlns="http://www.w3.org/2000/svg">
<g clip-path="url(#clip0_519:65021)">
<path d="M242.796 3.1521H176.1V119.84H242.796V3.1521Z" fill="#FAFAFA"/>
<path d="M196.878 120.962C196.878 120.962 189.57 68.4619 185.742 62.6899C185.742 62.6899 207.594 46.2859 208.26 1.82593H175.104V120.962H196.878Z" fill="#EBEBEB"/>
<path d="M221.999 120.728C221.999 120.728 229.301 68.2281 233.129 62.4621C233.129 62.4621 211.283 46.0521 210.611 1.59204H243.779V120.728H221.999Z" fill="#EBEBEB"/>
<path d="M244.554 -1H169.92V123.992H247.644V-1H244.554ZM189.51 63.938V93.662H176.1V63.938H189.51ZM176.1 61.766V31.028H189.51V61.766H176.1ZM209.91 61.766V31.028H226.68V61.766H209.91ZM226.68 63.914V93.638H209.91V63.938L226.68 63.914ZM190.08 61.766V31.028H207.738V61.766H190.08ZM207.738 63.914V93.638H190.104V63.938L207.738 63.914ZM190.08 30.47V3.446H207.738V30.494L190.08 30.47ZM207.738 94.172V120.146H190.104V94.196L207.738 94.172ZM209.886 94.172H226.68V120.146H209.91L209.886 94.172ZM209.886 30.47V3.446H226.68V30.494L209.886 30.47ZM227.25 63.914H241.434V93.638H227.274L227.25 63.914ZM227.25 61.766V31.028H241.434V61.766H227.25ZM241.434 30.47H227.274V3.446H241.458L241.434 30.47ZM189.51 3.446V30.494H176.1V3.446H189.51ZM176.1 94.196H189.51V120.146H176.1V94.196ZM227.274 120.146V94.196H241.458V120.146H227.274Z" fill="#E0E0E0"/>
<path d="M26.6096 190.428H89.0996V142.23H26.6096L26.6096 190.428Z" fill="#F5F5F5"/>
<path d="M42.2634 190.086C42.3474 190.086 42.4194 179.34 42.4194 166.086C42.4194 152.832 42.3474 142.086 42.2634 142.086C42.1794 142.086 42.1074 152.826 42.1074 166.086C42.1074 179.346 42.1734 190.086 42.2634 190.086Z" fill="#EBEBEB"/>
<path d="M31.9073 184.872H36.6953V179.454H31.9073V184.872Z" fill="#FAFAFA"/>
<path d="M70.0316 142.35H62.9336V152.634H70.0316V142.35Z" fill="#EBEBEB"/>
<path d="M70.0316 180H62.9336V190.284H70.0316V180Z" fill="#EBEBEB"/>
<path d="M112.914 191.106H9.75V270.672H112.914V191.106Z" fill="#EBEBEB"/>
<path d="M87.0653 270.108C86.9513 270.108 86.8613 252.372 86.8613 230.508C86.8613 208.644 86.9513 190.908 87.0653 190.908C87.1793 190.908 87.2693 208.638 87.2693 230.508C87.2693 252.378 87.1793 270.108 87.0653 270.108Z" fill="#E0E0E0"/>
<path d="M104.166 252.558H96.2578V261.498H104.166V252.558Z" fill="#FAFAFA"/>
<path d="M52.9387 191.31H41.2207V208.29H52.9387V191.31Z" fill="#E0E0E0"/>
<path d="M52.9387 253.458H41.2207V270.438H52.9387V253.458Z" fill="#E0E0E0"/>
<path d="M225.996 50.9399C225.007 51.1479 223.985 51.1479 222.996 50.9399C223.985 50.7319 225.007 50.7319 225.996 50.9399Z" fill="#EBEBEB"/>
<path d="M231.996 50.9399C231.007 51.1479 229.985 51.1479 228.996 50.9399C229.985 50.7319 231.007 50.7319 231.996 50.9399Z" fill="#EBEBEB"/>
<path d="M237.996 50.9399C237.007 51.1479 235.985 51.1479 234.996 50.9399C235.985 50.7319 237.007 50.7319 237.996 50.9399Z" fill="#EBEBEB"/>
<path d="M243.996 50.9399C243.007 51.1479 241.985 51.1479 240.996 50.9399C241.985 50.7319 243.007 50.7319 243.996 50.9399Z" fill="#EBEBEB"/>
<path d="M249.996 50.9399C249.007 51.1479 247.985 51.1479 246.996 50.9399C247.985 50.7319 249.007 50.7319 249.996 50.9399Z" fill="#EBEBEB"/>
<path d="M255.996 50.9399C255.007 51.1479 253.985 51.1479 252.996 50.9399C253.985 50.7319 255.007 50.7319 255.996 50.9399Z" fill="#EBEBEB"/>
<path d="M261.996 50.9399C261.007 51.1479 259.985 51.1479 258.996 50.9399C259.985 50.7319 261.007 50.7319 261.996 50.9399Z" fill="#EBEBEB"/>
<path d="M267.996 50.9399C267.007 51.1479 265.985 51.1479 264.996 50.9399C265.985 50.7319 267.007 50.7319 267.996 50.9399Z" fill="#EBEBEB"/>
<path d="M273.996 50.9399C273.007 51.1479 271.985 51.1479 270.996 50.9399C271.985 50.7319 273.007 50.7319 273.996 50.9399Z" fill="#EBEBEB"/>
<path d="M279.996 50.9399C279.007 51.1479 277.985 51.1479 276.996 50.9399C277.985 50.7319 279.007 50.7319 279.996 50.9399Z" fill="#EBEBEB"/>
<path d="M285.996 50.9399C285.007 51.1479 283.985 51.1479 282.996 50.9399C283.985 50.7319 285.007 50.7319 285.996 50.9399Z" fill="#EBEBEB"/>
<path d="M291.996 50.9399C291.007 51.1479 289.985 51.1479 288.996 50.9399C289.985 50.7319 291.007 50.7319 291.996 50.9399Z" fill="#EBEBEB"/>
<path d="M297.996 50.9399C297.007 51.1479 295.985 51.1479 294.996 50.9399C295.985 50.7319 297.007 50.7319 297.996 50.9399Z" fill="#EBEBEB"/>
<path d="M303.996 50.9399C303.007 51.1479 301.985 51.1479 300.996 50.9399C301.985 50.7319 303.007 50.7319 303.996 50.9399Z" fill="#EBEBEB"/>
<path d="M309.996 50.9399C309.007 51.1479 307.985 51.1479 306.996 50.9399C307.985 50.7319 309.007 50.7319 309.996 50.9399Z" fill="#EBEBEB"/>
<path d="M315.996 50.9399C315.007 51.1479 313.985 51.1479 312.996 50.9399C313.985 50.7319 315.007 50.7319 315.996 50.9399Z" fill="#EBEBEB"/>
<path d="M321.996 50.9399C321.007 51.1479 319.985 51.1479 318.996 50.9399C319.985 50.7319 321.007 50.7319 321.996 50.9399Z" fill="#EBEBEB"/>
<path d="M327.996 50.9399C327.007 51.1479 325.985 51.1479 324.996 50.9399C325.985 50.7319 327.007 50.7319 327.996 50.9399Z" fill="#EBEBEB"/>
<path d="M333.996 50.9399C333.007 51.1479 331.985 51.1479 330.996 50.9399C331.985 50.7319 333.007 50.7319 333.996 50.9399Z" fill="#EBEBEB"/>
<path d="M339.996 50.9399C339.007 51.1479 337.985 51.1479 336.996 50.9399C337.985 50.7319 339.007 50.7319 339.996 50.9399Z" fill="#EBEBEB"/>
<path d="M345.996 50.9399C345.007 51.1479 343.985 51.1479 342.996 50.9399C343.985 50.7319 345.007 50.7319 345.996 50.9399Z" fill="#EBEBEB"/>
<path d="M351.996 50.9399C351.007 51.1479 349.985 51.1479 348.996 50.9399C349.985 50.7319 351.007 50.7319 351.996 50.9399Z" fill="#EBEBEB"/>
<path d="M357.996 50.9399C357.007 51.1479 355.985 51.1479 354.996 50.9399C355.985 50.7319 357.007 50.7319 357.996 50.9399Z" fill="#EBEBEB"/>
<path d="M359.537 55.4041C359.382 54.9203 359.328 54.4095 359.381 53.9041C359.328 53.3986 359.382 52.8878 359.537 52.4041C359.689 52.8885 359.742 53.3987 359.693 53.9041C359.742 54.4095 359.689 54.9196 359.537 55.4041Z" fill="#EBEBEB"/>
<path d="M359.537 61.4041C359.382 60.9203 359.328 60.4095 359.381 59.9041C359.328 59.3986 359.382 58.8878 359.537 58.4041C359.689 58.8885 359.742 59.3987 359.693 59.9041C359.742 60.4095 359.689 60.9196 359.537 61.4041Z" fill="#EBEBEB"/>
<path d="M359.537 67.4041C359.382 66.9203 359.328 66.4095 359.381 65.9041C359.328 65.3986 359.382 64.8878 359.537 64.4041C359.689 64.8885 359.742 65.3987 359.693 65.9041C359.742 66.4095 359.689 66.9196 359.537 67.4041Z" fill="#EBEBEB"/>
<path d="M359.537 73.4041C359.382 72.9203 359.328 72.4095 359.381 71.9041C359.328 71.3986 359.382 70.8878 359.537 70.4041C359.689 70.8885 359.742 71.3987 359.693 71.9041C359.742 72.4095 359.689 72.9196 359.537 73.4041Z" fill="#EBEBEB"/>
<path d="M359.537 79.4041C359.329 78.4149 359.329 77.3932 359.537 76.4041C359.745 77.3932 359.745 78.4149 359.537 79.4041Z" fill="#EBEBEB"/>
<path d="M360.709 84.2341C360.709 84.3121 360.205 84.3721 359.538 84.3901H359.4V83.9041C359.348 83.3986 359.401 82.8878 359.557 82.4041C359.709 82.8885 359.762 83.3987 359.713 83.9041C359.713 84.0121 359.713 84.1201 359.713 84.2341L359.563 84.0841C359.951 84.0508 360.342 84.1019 360.709 84.2341Z" fill="#EBEBEB"/>
<path d="M366.709 84.2341C365.72 84.4421 364.698 84.4421 363.709 84.2341C364.698 84.0261 365.72 84.0261 366.709 84.2341Z" fill="#EBEBEB"/>
<path d="M372.709 84.2341C371.72 84.4421 370.698 84.4421 369.709 84.2341C370.698 84.0261 371.72 84.0261 372.709 84.2341Z" fill="#EBEBEB"/>
<path d="M378.709 84.2341C377.72 84.4421 376.698 84.4421 375.709 84.2341C376.698 84.0261 377.72 84.0261 378.709 84.2341Z" fill="#EBEBEB"/>
<path d="M384.709 84.2341C383.72 84.4421 382.698 84.4421 381.709 84.2341C382.698 84.0261 383.72 84.0261 384.709 84.2341Z" fill="#EBEBEB"/>
<path d="M390.709 84.2341C389.72 84.4421 388.698 84.4421 387.709 84.2341C388.698 84.0261 389.72 84.0261 390.709 84.2341Z" fill="#EBEBEB"/>
<path d="M396.709 84.2341C395.72 84.4421 394.698 84.4421 393.709 84.2341C394.698 84.0261 395.72 84.0261 396.709 84.2341Z" fill="#EBEBEB"/>
<path d="M402.709 84.2341C401.72 84.4421 400.698 84.4421 399.709 84.2341C400.698 84.0261 401.72 84.0261 402.709 84.2341Z" fill="#EBEBEB"/>
<path d="M408.709 84.2341C407.72 84.4421 406.698 84.4421 405.709 84.2341C406.698 84.0261 407.72 84.0261 408.709 84.2341Z" fill="#EBEBEB"/>
<path d="M411.035 87.8999C410.827 86.9107 410.827 85.8891 411.035 84.8999C411.243 85.8891 411.243 86.9107 411.035 87.8999Z" fill="#EBEBEB"/>
<path d="M411.035 93.8999C410.827 92.9107 410.827 91.8891 411.035 90.8999C411.243 91.8891 411.243 92.9107 411.035 93.8999Z" fill="#EBEBEB"/>
<path d="M411.035 99.8999C410.827 98.9107 410.827 97.8891 411.035 96.8999C411.243 97.8891 411.243 98.9107 411.035 99.8999Z" fill="#EBEBEB"/>
<path d="M411.035 105.9C410.827 104.911 410.827 103.889 411.035 102.9C411.243 103.889 411.243 104.911 411.035 105.9Z" fill="#EBEBEB"/>
<path d="M411.035 111.9C410.827 110.911 410.827 109.889 411.035 108.9C411.243 109.889 411.243 110.911 411.035 111.9Z" fill="#EBEBEB"/>
<path d="M411.035 117.9C410.827 116.911 410.827 115.889 411.035 114.9C411.243 115.889 411.243 116.911 411.035 117.9Z" fill="#EBEBEB"/>
<path d="M411.035 123.9C410.827 122.911 410.827 121.889 411.035 120.9C411.243 121.889 411.243 122.911 411.035 123.9Z" fill="#EBEBEB"/>
<path d="M411.035 129.9C410.827 128.911 410.827 127.889 411.035 126.9C411.243 127.889 411.243 128.911 411.035 129.9Z" fill="#EBEBEB"/>
<path d="M411.035 135.9C410.827 134.911 410.827 133.889 411.035 132.9C411.243 133.889 411.243 134.911 411.035 135.9Z" fill="#EBEBEB"/>
<path d="M411.035 141.9C410.827 140.911 410.827 139.889 411.035 138.9C411.243 139.889 411.243 140.911 411.035 141.9Z" fill="#EBEBEB"/>
<path d="M411.035 147.9C410.827 146.911 410.827 145.889 411.035 144.9C411.243 145.889 411.243 146.911 411.035 147.9Z" fill="#EBEBEB"/>
<path d="M340.044 144.636C340.044 144.636 349.722 146.268 350.502 146.478C351.282 146.688 354.348 148.14 354.504 149.076C354.585 150.305 354.585 151.537 354.504 152.766C354.504 152.766 353.952 153.216 353.604 152.316C353.375 151.441 353.276 150.538 353.31 149.634L351.594 148.974L352.53 150.636L352.686 154.53C352.686 154.53 351.486 154.422 351.258 153.486C351.111 152.84 351.032 152.18 351.024 151.518L349.8 150.456L350.736 151.722L351.048 154.53C351.048 154.53 350.136 154.824 349.848 154.206C349.642 153.394 349.539 152.56 349.542 151.722L346.014 150.492L343.674 151.794L339.312 149.328L340.044 144.636Z" fill="#FFBE9D"/>
<path d="M306.162 120.708C306.204 120.9 317.826 136.908 317.826 136.908L341.166 144.168L340.098 152.934L311.496 147.174L301.344 135.522L306.162 120.708Z" fill="#E8505B"/>
<g opacity="0.2">
<path opacity="0.2" d="M306.162 120.708C306.204 120.9 317.826 136.908 317.826 136.908L341.166 144.168L340.098 152.934L311.496 147.174L301.344 135.522L306.162 120.708Z" fill="#E03A3A"/>
</g>
<path d="M394.997 270.78C408.531 270.129 418.975 258.631 418.325 245.097C417.675 231.563 406.177 221.118 392.642 221.768C379.108 222.418 368.664 233.917 369.314 247.451C369.964 260.985 381.463 271.43 394.997 270.78Z" fill="#263238"/>
<path d="M369.288 245.862C369.288 245.862 369.288 245.904 369.288 245.922C369.222 249.156 369.796 252.37 370.977 255.381C372.158 258.392 373.922 261.14 376.169 263.467C378.416 265.793 381.1 267.653 384.068 268.938C387.036 270.223 390.229 270.909 393.463 270.955C396.697 271.002 399.908 270.409 402.912 269.21C405.916 268.011 408.653 266.23 410.966 263.969C413.279 261.708 415.122 259.012 416.39 256.037C417.657 253.061 418.323 249.864 418.35 246.63V246.6L369.288 245.862Z" fill="#263238"/>
<path d="M376.59 246.03C376.54 249.437 377.502 252.782 379.354 255.642C381.205 258.502 383.863 260.748 386.992 262.098C390.12 263.447 393.579 263.838 396.93 263.222C400.281 262.606 403.373 261.01 405.817 258.636C408.261 256.262 409.946 253.216 410.659 249.884C411.371 246.553 411.08 243.085 409.822 239.918C408.564 236.752 406.395 234.03 403.589 232.097C400.784 230.163 397.468 229.105 394.062 229.056C389.494 228.992 385.089 230.744 381.812 233.927C378.536 237.109 376.658 241.463 376.59 246.03Z" fill="#FAFAFA"/>
<path d="M394.062 229.056C389.494 228.99 385.087 230.742 381.811 233.925C378.534 237.108 376.656 241.462 376.59 246.03L411.036 246.528C411.102 241.96 409.35 237.554 406.167 234.277C402.984 231 398.63 229.122 394.062 229.056Z" fill="#E0E0E0"/>
<path d="M383.322 246.126C383.289 248.202 383.872 250.241 384.998 251.985C386.124 253.729 387.743 255.1 389.648 255.924C391.554 256.749 393.661 256.989 395.703 256.615C397.746 256.242 399.631 255.27 401.121 253.825C402.611 252.379 403.639 250.524 404.075 248.494C404.51 246.464 404.334 244.35 403.568 242.421C402.802 240.491 401.481 238.832 399.771 237.653C398.062 236.475 396.042 235.83 393.966 235.8C391.185 235.76 388.503 236.825 386.507 238.761C384.512 240.697 383.366 243.346 383.322 246.126Z" fill="#263238"/>
<path d="M382.201 210.306C382.201 210.306 407.317 202.71 417.709 229.998L365.143 246.276L382.201 210.306Z" fill="#4C60A5"/>
<path d="M243.624 270.776C257.158 270.126 267.602 258.627 266.952 245.093C266.302 231.559 254.804 221.115 241.269 221.765C227.735 222.415 217.291 233.913 217.941 247.448C218.591 260.982 230.089 271.426 243.624 270.776Z" fill="#263238"/>
<path d="M217.915 245.862V245.922C217.868 249.145 218.457 252.346 219.647 255.341C220.838 258.337 222.607 261.068 224.853 263.38C227.099 265.692 229.778 267.539 232.738 268.815C235.698 270.092 238.881 270.772 242.104 270.819C245.327 270.865 248.527 270.277 251.523 269.086C254.518 267.896 257.25 266.127 259.562 263.881C261.874 261.635 263.721 258.955 264.997 255.995C266.273 253.035 266.954 249.853 267.001 246.63C267.004 246.61 267.004 246.59 267.001 246.57L217.915 245.862Z" fill="#263238"/>
<path d="M225.222 246.03C225.174 249.435 226.137 252.778 227.988 255.637C229.84 258.495 232.498 260.74 235.625 262.088C238.753 263.436 242.21 263.826 245.559 263.21C248.908 262.593 252 260.997 254.442 258.623C256.884 256.25 258.568 253.205 259.28 249.875C259.992 246.545 259.701 243.078 258.443 239.913C257.185 236.748 255.016 234.028 252.212 232.095C249.408 230.163 246.094 229.105 242.688 229.056C238.122 228.992 233.716 230.744 230.441 233.927C227.166 237.11 225.289 241.463 225.222 246.03Z" fill="#FAFAFA"/>
<path d="M242.689 229.056C240.427 229.024 238.182 229.437 236.08 230.272C233.978 231.108 232.062 232.349 230.44 233.925C228.818 235.501 227.522 237.382 226.627 239.459C225.732 241.536 225.255 243.769 225.223 246.03L259.663 246.528C259.728 241.96 257.977 237.554 254.794 234.277C251.611 231 247.256 229.122 242.689 229.056Z" fill="#E0E0E0"/>
<path d="M231.954 246.126C231.921 248.202 232.505 250.241 233.631 251.986C234.758 253.73 236.377 255.101 238.282 255.925C240.188 256.749 242.296 256.989 244.338 256.615C246.381 256.241 248.266 255.269 249.756 253.823C251.246 252.377 252.274 250.521 252.708 248.49C253.143 246.46 252.966 244.346 252.199 242.417C251.432 240.487 250.11 238.828 248.4 237.651C246.69 236.473 244.669 235.829 242.592 235.8C239.813 235.76 237.131 236.825 235.136 238.761C233.142 240.697 231.997 243.346 231.954 246.126Z" fill="#263238"/>
<path d="M277.337 236.43C277.199 236.502 264.425 234.456 264.425 234.456C263.734 235.358 262.855 236.097 261.849 236.624C260.842 237.15 259.733 237.451 258.599 237.504C253.079 237.768 247.685 238.014 242.999 238.224C240.906 238.316 238.935 239.235 237.519 240.78C236.104 242.325 235.36 244.369 235.451 246.462C235.534 248.449 236.362 250.333 237.771 251.737C239.179 253.141 241.065 253.963 243.053 254.04L270.221 255.114C274.685 255.288 280.625 252.57 283.421 249.078L277.337 236.43Z" fill="#455A64"/>
<path d="M210.6 225.6C210.6 225.6 209.43 201.696 231.9 196.71V193.65H310.608V200.958C310.608 200.958 299.052 214.866 302.808 226.422C306.564 237.978 307.8 239.124 307.8 239.124H352.602C356.131 234.153 358.101 228.244 358.26 222.15C358.494 212.01 354.282 194.67 351.138 183.588C348.276 173.514 346.47 165.09 346.47 165.09L359.91 160.608C359.91 160.608 384.78 193.122 385.794 194.952C386.808 196.782 390.264 201.048 389.448 210.39C388.632 219.732 366.288 248.586 360.396 251.838C354.504 255.09 349.224 255.288 343.944 256.104C339.36 256.806 305.442 256.344 296.544 256.206C293.461 256.186 290.437 255.348 287.784 253.776C285.132 252.168 283.134 249.504 280.932 245.13L276.258 235.992L210.6 225.6Z" fill="#4C60A5"/>
<path d="M216.601 223.908L206.701 239.436C206.405 239.867 206.258 240.382 206.282 240.904C206.306 241.426 206.5 241.926 206.834 242.328C207.168 242.73 207.624 243.012 208.132 243.131C208.641 243.25 209.175 243.2 209.653 242.988C210.887 242.441 212.012 241.677 212.977 240.732C217.513 236.418 225.577 225.06 225.577 225.06L216.601 223.908Z" fill="#455A64"/>
<path d="M287.711 226.704C287.721 226.628 287.739 226.554 287.765 226.482C287.819 226.32 287.885 226.104 287.969 225.828C288.207 224.989 288.38 224.132 288.485 223.266C288.818 220.061 288.29 216.826 286.955 213.894C286.055 211.871 284.82 210.015 283.301 208.404C281.556 206.566 279.531 205.014 277.301 203.808C274.816 202.468 272.157 201.483 269.399 200.88C266.443 200.239 263.424 199.927 260.399 199.95C257.388 199.972 254.381 200.194 251.399 200.616C248.501 201.006 245.711 201.486 243.089 202.086C238.424 203.066 233.926 204.721 229.739 207C226.928 208.563 224.358 210.523 222.107 212.82C221.315 213.642 220.745 214.32 220.367 214.782L219.941 215.316C219.845 215.436 219.791 215.496 219.785 215.49C220.443 214.518 221.184 213.605 221.999 212.76C224.227 210.417 226.791 208.419 229.607 206.832C233.799 204.505 238.312 202.81 242.999 201.804C245.633 201.204 248.399 200.706 251.339 200.31C254.345 199.884 257.376 199.66 260.411 199.638C263.451 199.618 266.483 199.934 269.453 200.58C272.224 201.198 274.895 202.198 277.391 203.55C279.657 204.766 281.715 206.336 283.487 208.2C285.017 209.838 286.257 211.725 287.153 213.78C288.491 216.755 288.991 220.039 288.599 223.278C288.473 224.15 288.272 225.009 287.999 225.846C287.903 226.116 287.825 226.332 287.765 226.488C287.758 226.562 287.74 226.635 287.711 226.704Z" fill="#263238"/>
<g opacity="0.4">
<path opacity="0.4" d="M267.763 200.4C271.996 201.173 276.025 202.806 279.601 205.2C283.204 207.589 285.979 211.034 287.545 215.064C289.111 219.108 288.877 224.46 287.227 227.814L292.789 228.27C294.661 222.03 292.621 214.362 288.121 209.478C285.542 206.623 282.396 204.338 278.883 202.771C275.37 201.203 271.568 200.388 267.721 200.376" fill="black"/>
</g>
<path d="M265.986 151.548H217.332C214.488 151.548 212.184 153.853 212.184 156.696V188.466C212.184 191.309 214.488 193.614 217.332 193.614H265.986C268.829 193.614 271.134 191.309 271.134 188.466V156.696C271.134 153.853 268.829 151.548 265.986 151.548Z" fill="#A0ABE9"/>
<path d="M310.567 196.404C310.567 196.488 292.879 196.56 271.057 196.56C249.235 196.56 231.547 196.488 231.547 196.404C231.547 196.32 249.235 196.248 271.057 196.248C292.879 196.248 310.567 196.314 310.567 196.404Z" fill="#263238"/>
<path d="M310.609 193.62C311.406 192.602 311.899 191.379 312.031 190.092C312.157 188.112 311.251 185.64 309.127 185.64H281.947C279.831 185.641 277.803 186.483 276.308 187.979C274.813 189.476 273.973 191.505 273.973 193.62H310.609Z" fill="#455A64"/>
<path d="M346.446 165.09L341.718 155.232C341.097 153.877 340.998 152.34 341.441 150.917C341.884 149.494 342.838 148.285 344.118 147.522L358.254 139.086C358.993 138.647 359.837 138.415 360.696 138.414H363.75L364.95 158.34L360.24 160.14L363.24 164.994L346.446 165.09Z" fill="#4C60A5"/>
<path d="M363.785 139.14C363.785 139.14 368.621 140.244 369.227 147.702C369.833 155.16 364.961 157.476 364.961 157.476L363.785 139.14Z" fill="#EBEBEB"/>
<path d="M348.095 151.368C348.095 151.368 338.315 156 337.121 156.768C336.293 157.296 335.585 158.22 336.233 159.846C337.343 162.612 341.915 160.008 341.915 160.008L350.999 155.454C350.999 155.454 354.497 153.798 353.207 151.734C351.773 149.4 348.095 151.368 348.095 151.368Z" fill="#4C60A5"/>
<path d="M334.259 149.676C334.259 149.676 343.439 151.254 344.219 151.476C344.999 151.698 348.065 153.144 348.221 154.074C348.302 155.303 348.302 156.535 348.221 157.764C348.221 157.764 347.669 158.22 347.321 157.314C347.092 156.439 346.993 155.536 347.027 154.632L345.311 153.972L346.247 155.634L346.403 159.534C346.403 159.534 345.203 159.42 344.969 158.49C344.825 157.842 344.749 157.18 344.741 156.516L343.493 155.46L344.429 156.726L344.741 159.534C344.741 159.534 343.829 159.828 343.541 159.204C343.331 158.395 343.226 157.562 343.229 156.726L339.707 155.496L337.367 156.798L333.695 154.782L334.259 149.676Z" fill="#FFBE9D"/>
<path d="M348.558 136.89C348.558 140.604 346.854 143.622 344.742 143.622C342.63 143.622 340.926 140.622 340.926 136.89C340.926 133.158 342.636 130.158 344.742 130.158C346.848 130.158 348.558 133.2 348.558 136.89Z" fill="#263238"/>
<path d="M345.373 141.516L347.467 148.8C347.85 148.608 348.156 148.291 348.333 147.901C348.511 147.512 348.551 147.073 348.445 146.658C347.917 144.168 347.623 142.392 347.041 140.214C346.975 139.992 345.373 141.534 345.373 141.534" fill="#263238"/>
<g opacity="0.4">
<path opacity="0.4" d="M303.863 229.494C303.653 228.894 303.443 228.294 303.263 227.658C303.083 227.022 302.861 226.458 302.699 225.858C302.458 224.96 302.281 224.046 302.171 223.122C298.637 237.522 304.037 247.68 313.319 248.394C326.873 249.438 343.403 250.194 350.087 248.436C362.273 245.238 366.749 235.08 367.811 233.436C368.873 231.792 378.575 214.044 372.611 196.98C366.647 179.916 356.315 161.808 356.315 161.808L346.445 165.102C346.445 165.102 348.245 173.502 351.113 183.6C354.257 194.682 358.469 212.022 358.235 222.162C358.076 228.256 356.106 234.165 352.577 239.136H307.799C307.799 239.136 306.839 238.176 303.887 229.506" fill="black"/>
</g>
<path d="M208.801 221.82L209.119 218.406L290.887 227.826C291.979 227.954 293.034 228.304 293.987 228.854C294.94 229.404 295.77 230.143 296.427 231.026C297.084 231.909 297.553 232.916 297.806 233.987C298.06 235.057 298.092 236.169 297.901 237.252L297.535 239.328L212.935 227.028C211.706 226.862 210.59 226.226 209.82 225.256C209.049 224.285 208.684 223.054 208.801 221.82Z" fill="#7846D1"/>
<g opacity="0.6">
<path opacity="0.6" d="M208.801 221.82L209.119 218.406L290.887 227.826C291.979 227.954 293.034 228.304 293.987 228.854C294.94 229.404 295.77 230.143 296.427 231.026C297.084 231.909 297.553 232.916 297.806 233.987C298.06 235.057 298.092 236.169 297.901 237.252L297.535 239.328L212.935 227.028C211.706 226.862 210.59 226.226 209.82 225.256C209.049 224.285 208.684 223.054 208.801 221.82Z" fill="black"/>
</g>
<g opacity="0.3">
<path opacity="0.3" d="M367.801 244.698C367.801 244.698 385.801 224.898 389.515 209.334C391.381 209.323 393.245 209.461 395.089 209.748C395.089 209.748 384.433 238.68 367.801 244.698Z" fill="black"/>
</g>
<path d="M389.238 202.356C389.287 202.521 389.321 202.689 389.34 202.86C389.382 203.19 389.484 203.676 389.544 204.306C389.713 206.105 389.665 207.918 389.4 209.706C388.976 212.346 388.168 214.909 387 217.314C385.57 220.239 383.978 223.082 382.23 225.828C379.097 230.847 375.574 235.612 371.694 240.078C370.23 241.806 369.024 243.192 368.184 244.14L367.206 245.226C367.097 245.357 366.979 245.479 366.852 245.592C366.939 245.446 367.042 245.309 367.158 245.184C367.392 244.908 367.698 244.53 368.088 244.062L371.526 239.94C375.343 235.438 378.832 230.668 381.966 225.666C383.719 222.929 385.321 220.099 386.766 217.188C387.919 214.809 388.727 212.277 389.166 209.67C389.446 207.909 389.526 206.121 389.406 204.342C389.364 203.742 389.286 203.226 389.256 202.89C389.226 202.554 389.232 202.362 389.238 202.356Z" fill="#263238"/>
<path d="M358.122 244.554C357.094 243.764 356.131 242.893 355.242 241.95C354.279 241.081 353.389 240.136 352.578 239.124C353.606 239.914 354.569 240.785 355.458 241.728C356.419 242.599 357.31 243.544 358.122 244.554Z" fill="#263238"/>
<path d="M304.703 243.942C304.992 243.018 305.439 242.152 306.023 241.38C306.525 240.554 307.164 239.819 307.913 239.208C307.985 239.268 307.163 240.252 306.281 241.56C305.399 242.868 304.799 243.984 304.703 243.942Z" fill="#263238"/>
<path d="M270.121 255.378C271.101 254.477 271.93 253.423 272.575 252.258C273.246 250.982 273.654 249.585 273.775 248.148C273.961 246.397 273.658 244.628 272.898 243.039C272.139 241.45 270.953 240.103 269.473 239.148C268.278 238.339 266.934 237.778 265.519 237.498C264.209 237.262 262.869 237.243 261.553 237.444C261.553 237.444 261.643 237.408 261.823 237.366C262.08 237.295 262.343 237.242 262.609 237.21C263.59 237.079 264.587 237.103 265.561 237.282C267.015 237.536 268.4 238.09 269.629 238.908C271.169 239.882 272.402 241.271 273.186 242.915C273.971 244.56 274.275 246.392 274.063 248.202C273.928 249.677 273.486 251.107 272.767 252.402C272.295 253.273 271.687 254.063 270.967 254.742C270.779 254.928 270.578 255.1 270.367 255.258C270.29 255.308 270.207 255.348 270.121 255.378Z" fill="#263238"/>
<path d="M240.258 249.108C240.06 248.159 239.961 247.192 239.964 246.222C239.861 245.259 239.861 244.287 239.964 243.324C240.166 244.273 240.265 245.24 240.258 246.21C240.362 247.173 240.362 248.145 240.258 249.108Z" fill="#263238"/>
<path d="M242.43 249.114C242.15 248.176 241.973 247.211 241.902 246.234C241.729 245.272 241.656 244.295 241.686 243.318C241.964 244.257 242.141 245.222 242.214 246.198C242.388 247.16 242.461 248.137 242.43 249.114Z" fill="#263238"/>
<path d="M276.15 193.62C276.15 193.704 266.208 193.776 253.95 193.776C241.692 193.776 231.75 193.704 231.75 193.62C231.75 193.536 241.686 193.464 253.95 193.464C266.214 193.464 276.15 193.53 276.15 193.62Z" fill="#263238"/>
<path d="M224.101 262.932C224.001 262.856 223.913 262.767 223.837 262.668C223.589 262.41 223.355 262.14 223.135 261.858C222.305 260.837 221.565 259.747 220.921 258.6C218.753 254.808 217.621 250.513 217.639 246.145C217.657 241.778 218.824 237.492 221.023 233.718C221.677 232.578 222.428 231.496 223.267 230.484C223.555 230.118 223.807 229.884 223.969 229.68C224.047 229.581 224.138 229.493 224.239 229.416C224.174 229.524 224.099 229.627 224.017 229.722C223.873 229.914 223.633 230.184 223.357 230.556C222.564 231.592 221.848 232.685 221.215 233.826C219.092 237.586 217.969 241.828 217.951 246.146C217.933 250.464 219.021 254.714 221.113 258.492C221.733 259.641 222.441 260.74 223.231 261.78C223.501 262.158 223.741 262.428 223.885 262.62C223.963 262.719 224.035 262.824 224.101 262.932Z" fill="#455A64"/>
<path d="M310.049 217.2L309.863 217.554L306.263 224.352L301.199 229.248L311.321 242.718L319.757 241.32C319.757 241.32 318.809 239.4 314.579 239.028L312.947 231L318.893 221.784" fill="#FF4D4D"/>
<path d="M301.193 229.248L311.309 242.724L319.745 241.32L318.581 240.21L311.663 240.972L302.267 228.21L301.193 229.248Z" fill="#E03A3A"/>
<path d="M313.895 235.326C313.847 235.422 313.295 235.224 312.695 235.326C312.095 235.428 311.609 235.806 311.531 235.734C311.453 235.662 311.837 235.098 312.629 234.96C313.421 234.822 313.961 235.248 313.895 235.326Z" fill="#263238"/>
<path d="M313.422 233.34C313.35 233.412 312.894 232.974 312.222 232.956C311.55 232.938 311.022 233.334 310.974 233.256C310.926 233.178 311.01 233.064 311.226 232.896C311.518 232.682 311.872 232.573 312.233 232.585C312.595 232.597 312.941 232.73 313.218 232.962C313.398 233.148 313.464 233.31 313.422 233.34Z" fill="#263238"/>
<path d="M313.05 230.748C312.966 230.814 312.6 230.37 311.976 230.268C311.352 230.166 310.86 230.442 310.776 230.352C310.692 230.262 310.836 230.178 311.052 230.052C311.345 229.897 311.681 229.844 312.007 229.902C312.333 229.96 312.63 230.124 312.852 230.37C313.056 230.568 313.092 230.724 313.05 230.748Z" fill="#263238"/>
<path d="M315 228.372C314.904 228.426 314.586 227.988 314.01 227.736C313.434 227.484 312.894 227.52 312.87 227.412C312.846 227.304 313.47 227.07 314.16 227.412C314.85 227.754 315.072 228.348 315 228.372Z" fill="#263238"/>
<path d="M315.787 226.458C315.751 226.494 315.415 226.2 314.905 225.702L314.023 224.802C313.825 224.629 313.655 224.426 313.519 224.202C313.441 224.039 313.428 223.852 313.483 223.68C313.519 223.582 313.582 223.497 313.665 223.435C313.748 223.372 313.847 223.334 313.951 223.326C314.256 223.335 314.552 223.433 314.803 223.608C315.026 223.744 315.228 223.911 315.403 224.106C315.703 224.433 315.923 224.825 316.045 225.252C316.2 225.637 316.2 226.067 316.045 226.452C315.973 226.452 316.045 225.996 315.787 225.354C315.647 224.982 315.428 224.644 315.145 224.364C314.982 224.2 314.799 224.059 314.599 223.944C314.409 223.818 314.19 223.741 313.963 223.722C313.879 223.722 313.843 223.758 313.819 223.824C313.789 223.901 313.789 223.987 313.819 224.064C313.936 224.259 314.077 224.439 314.239 224.598L315.067 225.552C315.353 225.815 315.596 226.12 315.787 226.458Z" fill="#263238"/>
<path d="M316.127 226.662C316.091 226.662 316.049 226.218 316.421 225.63C316.676 225.248 317.046 224.957 317.479 224.802C317.911 224.646 318.381 224.634 318.821 224.766C318.87 224.796 318.911 224.836 318.942 224.884C318.973 224.932 318.993 224.986 319.001 225.042C319.015 225.141 318.996 225.242 318.947 225.33C318.877 225.446 318.79 225.551 318.689 225.642C318.523 225.806 318.342 225.954 318.149 226.086C317.823 226.304 317.465 226.47 317.087 226.578C316.752 226.713 316.383 226.741 316.031 226.656C316.031 226.596 316.427 226.56 317.003 226.326C317.338 226.193 317.655 226.018 317.945 225.804C318.114 225.674 318.274 225.534 318.425 225.384C318.498 225.318 318.561 225.241 318.611 225.156C318.641 225.078 318.611 225.102 318.611 225.078C318.529 225.046 318.442 225.03 318.353 225.03C318.04 225.012 317.727 225.063 317.435 225.18C317.113 225.309 316.826 225.515 316.601 225.78C316.426 226.065 316.268 226.359 316.127 226.662Z" fill="#263238"/>
<path d="M307.878 227.874C307.91 228.072 307.884 228.275 307.801 228.457C307.719 228.64 307.584 228.794 307.414 228.9C307.244 229.006 307.046 229.059 306.846 229.053C306.646 229.047 306.452 228.982 306.289 228.865C306.126 228.749 306 228.587 305.929 228.4C305.858 228.212 305.844 228.008 305.889 227.813C305.934 227.618 306.035 227.44 306.181 227.302C306.327 227.165 306.51 227.074 306.708 227.04C306.839 227.018 306.974 227.022 307.104 227.051C307.234 227.081 307.357 227.137 307.466 227.214C307.575 227.292 307.667 227.39 307.738 227.503C307.808 227.616 307.856 227.742 307.878 227.874Z" fill="#E03A3A"/>
<path d="M340.801 223.704L343.507 241.272L365.383 238.02C364.945 235.944 352.999 233.436 352.999 233.436L351.727 222.108L340.801 223.704Z" fill="#FF4D4D"/>
<path d="M346.068 233.49C345.868 233.587 345.711 233.752 345.624 233.957C345.538 234.161 345.529 234.39 345.6 234.6C345.687 234.804 345.85 234.967 346.055 235.054C346.259 235.141 346.49 235.146 346.698 235.068C346.915 234.966 347.085 234.786 347.175 234.563C347.266 234.341 347.269 234.093 347.184 233.868C347.07 233.664 346.881 233.512 346.657 233.444C346.434 233.375 346.192 233.396 345.984 233.502" fill="#E03A3A"/>
<path d="M343.481 241.272L343.277 239.472L364.325 237.018C364.325 237.018 365.363 237.294 365.357 238.002L343.481 241.272Z" fill="#E03A3A"/>
<path d="M353.317 233.268C353.317 233.376 352.801 233.508 352.327 233.928C351.853 234.348 351.637 234.84 351.535 234.81C351.433 234.78 351.493 234.144 352.081 233.61C352.669 233.076 353.323 233.166 353.317 233.268Z" fill="#263238"/>
<path d="M355.752 233.88C355.788 233.976 355.356 234.228 355.056 234.732C354.756 235.236 354.726 235.734 354.624 235.746C354.522 235.758 354.354 235.146 354.738 234.546C355.122 233.946 355.734 233.778 355.752 233.88Z" fill="#263238"/>
<path d="M357.463 236.43C357.367 236.466 357.139 235.956 357.325 235.332C357.511 234.708 357.979 234.396 358.039 234.48C358.099 234.564 357.835 234.918 357.691 235.434C357.547 235.95 357.565 236.4 357.463 236.43Z" fill="#263238"/>
<path d="M352.74 230.718C352.74 230.826 352.194 230.748 351.6 230.88C351.006 231.012 350.556 231.27 350.49 231.186C350.424 231.102 350.814 230.658 351.522 230.514C352.23 230.37 352.8 230.628 352.74 230.718Z" fill="#263238"/>
<path d="M351.827 228.204C351.484 228.355 351.107 228.409 350.735 228.36C350.329 228.349 349.926 228.289 349.535 228.18C349.305 228.112 349.079 228.032 348.857 227.94C348.724 227.887 348.599 227.816 348.485 227.73C348.404 227.664 348.347 227.573 348.323 227.47C348.299 227.368 348.31 227.261 348.353 227.166C348.396 227.084 348.458 227.014 348.533 226.959C348.608 226.905 348.694 226.869 348.785 226.854C348.924 226.833 349.066 226.833 349.205 226.854C349.446 226.878 349.685 226.922 349.919 226.986C350.314 227.1 350.688 227.274 351.029 227.502C351.629 227.898 351.839 228.27 351.803 228.294C351.767 228.318 351.467 228.042 350.891 227.73C350.556 227.55 350.199 227.413 349.829 227.322C349.614 227.271 349.396 227.239 349.175 227.226C348.935 227.196 348.737 227.226 348.689 227.334C348.641 227.442 348.689 227.394 348.731 227.454C348.817 227.516 348.91 227.569 349.007 227.61C349.203 227.701 349.403 227.781 349.607 227.85C349.973 227.967 350.348 228.052 350.729 228.102C351.097 228.105 351.465 228.139 351.827 228.204Z" fill="#263238"/>
<path d="M351.713 228.378C351.459 228.095 351.303 227.737 351.269 227.358C351.19 226.963 351.18 226.557 351.239 226.158C351.272 225.916 351.332 225.678 351.419 225.45C351.455 225.299 351.529 225.159 351.634 225.045C351.739 224.931 351.871 224.845 352.019 224.796C352.116 224.783 352.214 224.799 352.302 224.84C352.39 224.882 352.465 224.947 352.517 225.03C352.594 225.149 352.652 225.278 352.691 225.414C352.766 225.653 352.803 225.902 352.799 226.152C352.802 226.57 352.701 226.983 352.505 227.352C352.157 227.988 351.731 228.18 351.719 228.144C351.919 227.855 352.101 227.555 352.265 227.244C352.406 226.9 352.471 226.53 352.457 226.158C352.442 225.954 352.404 225.753 352.343 225.558C352.271 225.33 352.157 225.156 352.073 225.192C351.989 225.228 351.809 225.414 351.743 225.612C351.676 225.803 351.628 226 351.599 226.2C351.529 226.572 351.511 226.951 351.545 227.328C351.599 228 351.767 228.354 351.713 228.378Z" fill="#263238"/>
<path d="M323.555 182.43L304.793 223.314L317.183 230.754L343.127 181.56" fill="#222D6B"/>
<path d="M354.498 231.69L341.034 233.85L333 185.766L293.196 188.652C292.14 188.725 291.08 188.622 290.058 188.346C278.874 185.286 280.386 171.03 281.466 168.744L336.552 167.16C339.437 167.079 342.251 168.064 344.456 169.927C346.661 171.79 348.102 174.4 348.504 177.258L354.498 231.69Z" fill="#222D6B"/>
<path d="M280.895 171L281.093 150.672C281.093 150.672 278.471 137.472 277.697 132.258C276.497 124.188 274.841 120.36 288.053 114.624L290.939 113.514L295.409 113.574C300.743 113.97 306.359 118.788 306.485 121.974L311.633 167.784L280.895 171Z" fill="#FF4D4D"/>
<path d="M281.724 119.358C281.724 119.358 277.992 127.386 278.724 134.7L292.62 148.044C295.74 151.512 299.634 152.988 304.62 153.288L333.384 156.432L334.2 148.908L306.84 141.15C305.748 140.952 305.208 139.812 304.374 139.086L281.724 119.358Z" fill="#FF4D4D"/>
<path d="M296.153 131.4C297.671 132.954 299.309 134.58 301.067 136.26C301.949 137.094 302.867 137.946 303.815 138.78C304.301 139.182 304.787 139.65 305.249 140.088C305.69 140.547 306.248 140.875 306.863 141.036L334.229 148.776L334.361 148.812V148.944C334.307 149.472 334.247 150.048 334.181 150.624C333.971 152.628 333.761 154.608 333.581 156.468V156.624H333.425L321.251 155.286L315.491 154.65L309.977 154.098C308.177 153.9 306.443 153.696 304.757 153.444C303.112 153.245 301.492 152.868 299.927 152.322C298.48 151.774 297.111 151.04 295.853 150.138C294.653 149.292 293.531 148.404 292.493 147.54C288.377 144.03 285.359 140.898 283.265 138.762C282.227 137.682 281.429 136.842 280.901 136.26L280.301 135.6C280.169 135.45 280.109 135.372 280.109 135.372L280.325 135.582L280.925 136.224L283.325 138.678C285.443 140.79 288.485 143.904 292.601 147.378C293.639 148.236 294.749 149.112 295.961 149.946C297.204 150.832 298.558 151.552 299.987 152.088C301.544 152.624 303.153 152.992 304.787 153.186C306.467 153.426 308.207 153.624 309.995 153.816L315.509 154.362L321.269 154.962L333.449 156.288L333.275 156.426C333.473 154.566 333.683 152.586 333.875 150.588C333.935 149.988 333.995 149.436 334.055 148.902L334.163 149.07L306.809 141.27C306.14 141.105 305.532 140.751 305.057 140.25C304.571 139.794 304.133 139.362 303.635 138.948C302.669 138.108 301.763 137.25 300.881 136.41C299.129 134.718 297.495 133.09 295.979 131.526C294.467 129.96 293.069 128.478 291.779 127.08C290.489 125.682 289.427 124.326 288.287 123.252C287.761 122.731 287.209 122.239 286.631 121.776C286.37 121.56 286.095 121.359 285.809 121.176C285.536 121.031 285.243 120.926 284.939 120.864C283.924 120.683 282.887 120.669 281.867 120.822C281.23 120.891 280.606 121.05 280.013 121.296C279.818 121.394 279.627 121.502 279.443 121.62C279.606 121.469 279.793 121.345 279.995 121.254C280.586 120.987 281.213 120.812 281.855 120.732C282.884 120.56 283.934 120.56 284.963 120.732C285.282 120.786 285.59 120.891 285.875 121.044C286.17 121.226 286.452 121.426 286.721 121.644C287.308 122.103 287.869 122.594 288.401 123.114" fill="#E03A3A"/>
<path d="M286.656 95.8859L288.054 115.686C288.163 117.243 288.859 118.7 290 119.765C291.141 120.829 292.644 121.421 294.204 121.422C295.049 121.423 295.886 121.25 296.662 120.914C297.437 120.578 298.135 120.086 298.713 119.469C299.29 118.852 299.734 118.122 300.018 117.326C300.301 116.529 300.418 115.683 300.36 114.84C300.24 112.956 300.126 111.414 300.126 111.414C300.126 111.414 304.926 110.664 304.974 105.876C305.01 103.11 304.536 96.8339 304.122 92.0219C303.99 90.4537 303.273 88.9924 302.114 87.9278C300.955 86.8631 299.438 86.2729 297.864 86.2739H294.972C293.789 86.3425 292.632 86.6477 291.569 87.1714C290.506 87.6951 289.559 88.4266 288.783 89.3228C288.008 90.219 287.42 91.2616 287.055 92.3889C286.689 93.5162 286.554 94.7053 286.656 95.8859Z" fill="#FFBE9D"/>
<path d="M300.133 111.342C297.92 111.376 295.747 110.749 293.893 109.542C293.893 109.542 295.369 112.992 300.145 112.542L300.133 111.342Z" fill="#EB996E"/>
<path d="M303.048 98.178C303.049 98.3564 302.981 98.5283 302.858 98.6572C302.735 98.7861 302.566 98.8617 302.388 98.868C302.214 98.8813 302.043 98.8258 301.91 98.7134C301.778 98.6011 301.695 98.4411 301.68 98.268C301.68 98.0901 301.748 97.919 301.871 97.7904C301.994 97.6618 302.162 97.5857 302.34 97.578C302.513 97.5647 302.684 97.6202 302.817 97.7325C302.949 97.8449 303.032 98.0049 303.048 98.178Z" fill="#263238"/>
<path d="M296.135 98.178C296.137 98.3563 296.069 98.5283 295.946 98.6572C295.822 98.7861 295.654 98.8617 295.475 98.868C295.303 98.8812 295.132 98.8255 295 98.7131C294.869 98.6006 294.787 98.4405 294.773 98.268C294.772 98.0906 294.839 97.9195 294.961 97.7908C295.083 97.6621 295.25 97.5858 295.427 97.578C295.601 97.5647 295.772 97.6202 295.905 97.7325C296.037 97.8449 296.12 98.0049 296.135 98.178Z" fill="#263238"/>
<path d="M298.734 102.42C299.124 102.299 299.527 102.227 299.934 102.204C300.126 102.204 300.3 102.15 300.336 102.024C300.351 101.83 300.307 101.635 300.21 101.466C300.03 101.01 299.85 100.536 299.652 100.032C299.137 98.8192 298.72 97.5672 298.404 96.288C299.017 97.4565 299.535 98.6724 299.952 99.924C300.138 100.428 300.312 100.908 300.486 101.364C300.601 101.592 300.635 101.852 300.582 102.102C300.553 102.168 300.51 102.226 300.456 102.274C300.402 102.321 300.339 102.357 300.27 102.378C300.167 102.405 300.06 102.419 299.952 102.42C299.548 102.474 299.139 102.474 298.734 102.42Z" fill="#CE8E72"/>
<path d="M296.257 94.08C296.185 94.278 295.447 94.182 294.583 94.29C293.719 94.398 293.023 94.626 292.909 94.446C292.855 94.362 292.975 94.176 293.257 93.978C293.632 93.7397 294.057 93.5918 294.499 93.546C294.941 93.4921 295.39 93.5456 295.807 93.702C296.125 93.828 296.287 93.984 296.257 94.08Z" fill="#1B4DED"/>
<path d="M303.031 94.698C302.899 94.866 302.395 94.698 301.783 94.698C301.171 94.698 300.655 94.812 300.541 94.638C300.487 94.554 300.541 94.386 300.793 94.224C301.095 94.0318 301.449 93.9375 301.807 93.954C302.166 93.9586 302.514 94.0762 302.803 94.29C303.001 94.44 303.085 94.614 303.031 94.698Z" fill="#1B4DED"/>
<path d="M288.271 99.48C288.187 99.444 284.977 98.508 285.085 101.784C285.193 105.06 288.457 104.28 288.457 104.184C288.457 104.088 288.271 99.48 288.271 99.48Z" fill="#FFBE9D"/>
<path d="M286.446 99.3719C286.755 99.358 287.063 99.4274 287.336 99.5731C287.609 99.7188 287.839 99.9353 288 100.2C288.216 100.668 288.258 101.202 288.474 101.67C288.558 101.915 288.722 102.124 288.94 102.263C289.158 102.402 289.416 102.464 289.674 102.438C289.844 102.387 289.997 102.291 290.118 102.16C290.238 102.029 290.321 101.868 290.358 101.694C290.424 101.345 290.424 100.987 290.358 100.638C290.166 99.1079 289.842 97.5899 289.758 96.0539C289.633 94.5052 289.969 92.9543 290.724 91.5959C291.108 90.911 291.672 90.3442 292.355 89.9571C293.039 89.57 293.815 89.3773 294.6 89.3999C295.62 89.4779 296.556 89.9999 297.564 90.1499C298.166 90.2301 298.778 90.1717 299.354 89.9794C299.93 89.787 300.455 89.4657 300.888 89.0399C301.08 88.8821 301.28 88.7339 301.488 88.5959C301.471 88.2316 301.35 87.8797 301.14 87.5819C299.136 85.7279 295.518 85.2119 292.872 85.8779C291.524 86.2087 290.264 86.8293 289.18 87.6966C288.096 88.5639 287.214 89.6571 286.596 90.8999C285.456 93.3779 285.798 96.8339 286.422 99.3479" fill="#1B4DED"/>
<path d="M304.201 91.284C304.201 91.284 291.601 87.24 286.201 98.112C285.784 96.7442 285.513 95.3365 285.391 93.912C285.391 92.934 285.991 87.132 291.943 85.308C291.919 85.332 300.907 81.9 304.201 91.284Z" fill="#FF4D4D"/>
<path d="M293.401 91.554C293.623 91.9147 293.927 92.2186 294.287 92.4417C294.647 92.6649 295.055 92.801 295.477 92.8395C295.899 92.8779 296.324 92.8175 296.719 92.6631C297.113 92.5087 297.467 92.2646 297.751 91.95C297.876 92.2616 298.096 92.5263 298.379 92.7072C298.662 92.8881 298.995 92.976 299.33 92.9589C299.666 92.9417 299.988 92.8202 300.251 92.6114C300.514 92.4026 300.706 92.1168 300.799 91.794C301.133 92.1693 301.542 92.4715 301.999 92.682C302.233 92.781 302.493 92.8064 302.742 92.755C302.992 92.7036 303.22 92.5777 303.397 92.394C303.542 92.1767 303.613 91.9179 303.597 91.6569C303.582 91.3958 303.482 91.1469 303.313 90.948C302.968 90.5579 302.527 90.2642 302.035 90.096C300.546 89.4412 298.911 89.1927 297.295 89.376C295.67 89.5687 294.181 90.3785 293.137 91.638" fill="#1B4DED"/>
<g opacity="0.2">
<path opacity="0.2" d="M304.201 91.2838C303.154 90.1856 301.72 89.5396 300.205 89.4838C296.503 89.3158 289.561 91.4038 286.201 98.1238C285.784 96.7561 285.513 95.3484 285.391 93.9238C285.391 92.9458 285.991 87.1438 291.943 85.3198C291.919 85.3318 300.907 81.8999 304.201 91.2838Z" fill="black"/>
</g>
<path d="M286.703 96.84C288.6 94.0022 291.089 91.6093 293.999 89.826C296.885 88.026 301.661 86.226 304.955 85.362C305.922 85.0474 306.944 84.9411 307.955 85.05C308.464 85.1137 308.945 85.3199 309.342 85.6447C309.739 85.9695 310.036 86.3998 310.199 86.886C310.511 88.122 308.309 90.042 307.277 90.792C306.262 91.4685 305.21 92.0894 304.127 92.652C304.127 92.652 304.157 90.348 300.473 89.874C295.511 89.226 286.703 96.84 286.703 96.84Z" fill="#FF4D4D"/>
<path d="M340.735 232.416C340.411 230.55 339.943 227.874 339.373 224.586C338.245 217.944 336.703 208.812 334.993 198.72C334.231 194.148 333.499 189.78 332.833 185.79L332.989 185.91L315.769 187.17L310.819 187.506L309.505 187.584H309.163H309.049C309.049 187.584 309.085 187.584 309.163 187.584L309.499 187.548L310.813 187.422L315.751 187.002L332.965 185.634H333.103V185.766C333.775 189.75 334.513 194.124 335.281 198.69C336.955 208.788 338.473 217.932 339.571 224.574C340.105 227.868 340.537 230.574 340.837 232.422" fill="#4C60A5"/>
<path d="M98.8987 231.726H41.2207V270.33H98.8987V231.726Z" fill="#FFE001"/>
<path d="M55.6375 231.726C55.7455 231.726 55.6375 242.892 55.6375 242.892H50.1895V231.726H55.6375Z" fill="#263238"/>
<path d="M173.226 206.676H78.0664V270.366H173.226V206.676Z" fill="#42D2B2"/>
<g opacity="0.2">
<path opacity="0.2" d="M173.227 206.676H140.143V270.366H173.227V206.676Z" fill="black"/>
</g>
<path d="M107.941 206.766H100.387V219.684H107.941V206.766Z" fill="#222D6B"/>
<path d="M296.137 104.916H302.869C302.817 105.774 302.441 106.58 301.815 107.169C301.189 107.759 300.362 108.087 299.503 108.087C298.643 108.087 297.816 107.759 297.191 107.169C296.565 106.58 296.188 105.774 296.137 104.916Z" fill="white"/>
<path d="M127.926 165.216C127.935 165.171 127.954 165.128 127.98 165.09L128.172 164.736C128.427 164.288 128.705 163.853 129.006 163.434C130.102 161.869 131.504 160.542 133.128 159.534C134.262 158.847 135.52 158.386 136.83 158.178C138.344 157.956 139.889 158.119 141.324 158.652C142.934 159.217 144.295 160.33 145.17 161.796C146.052 163.338 146.37 165.15 146.856 166.884C147.096 167.732 147.457 168.54 147.93 169.284C148.418 169.986 149.028 170.596 149.73 171.084C150.42 171.588 151.134 172.05 151.788 172.578C152.427 173.097 152.99 173.703 153.462 174.378C154.314 175.647 154.897 177.076 155.178 178.578C155.425 179.874 155.501 181.198 155.406 182.514C155.246 184.406 154.909 186.278 154.398 188.106C154.23 188.754 154.086 189.258 153.984 189.594C153.941 189.768 153.885 189.939 153.816 190.104C153.84 189.926 153.876 189.749 153.924 189.576C154.014 189.21 154.128 188.706 154.278 188.076C154.744 186.246 155.047 184.379 155.184 182.496C155.267 181.202 155.178 179.903 154.92 178.632C154.638 177.172 154.06 175.786 153.222 174.558C152.766 173.903 152.221 173.316 151.602 172.812C150.966 172.296 150.252 171.846 149.55 171.33C148.811 170.823 148.167 170.189 147.648 169.458C147.153 168.682 146.777 167.837 146.532 166.95C146.01 165.186 145.722 163.404 144.882 161.928C144.045 160.518 142.742 159.444 141.198 158.892C139.808 158.374 138.311 158.209 136.842 158.412C135.569 158.603 134.346 159.042 133.242 159.702C131.628 160.68 130.222 161.964 129.102 163.482C128.706 164.016 128.418 164.448 128.226 164.742C128.138 164.907 128.038 165.066 127.926 165.216Z" fill="#E0E0E0"/>
<path d="M150.564 171.564C150.084 171.12 149.85 171.426 149.214 171.564C148.574 171.704 147.978 172 147.48 172.428C146.384 173.334 145.576 174.541 145.157 175.9C144.738 177.26 144.726 178.712 145.122 180.078C146.147 180.133 147.168 179.91 148.076 179.432C148.985 178.954 149.747 178.24 150.282 177.364C150.817 176.488 151.105 175.483 151.116 174.457C151.127 173.431 150.859 172.421 150.342 171.534" fill="#E0E0E0"/>
<path d="M130.979 162.648C130.739 162.048 130.379 162.222 129.779 162.048C129.142 161.898 128.478 161.91 127.847 162.084C126.472 162.434 125.229 163.177 124.27 164.222C123.311 165.268 122.678 166.57 122.447 167.97C123.349 168.464 124.368 168.704 125.395 168.665C126.422 168.626 127.42 168.309 128.282 167.749C129.143 167.188 129.837 166.404 130.289 165.481C130.74 164.557 130.934 163.528 130.847 162.504" fill="#E0E0E0"/>
<path d="M154.873 183.6C154.217 182.854 153.402 182.265 152.488 181.877C151.573 181.49 150.583 181.314 149.591 181.362C148.599 181.411 147.631 181.682 146.759 182.157C145.886 182.632 145.132 183.297 144.553 184.104C146.019 185.438 147.923 186.19 149.905 186.216C151.909 186.166 153.827 185.392 155.305 184.038" fill="#E0E0E0"/>
<path d="M153.263 174.6C154.262 174.63 155.255 174.434 156.168 174.027C157.081 173.621 157.89 173.013 158.536 172.25C159.182 171.488 159.647 170.589 159.898 169.621C160.149 168.654 160.178 167.642 159.983 166.662C158.936 166.423 157.844 166.47 156.821 166.8C155.799 167.13 154.884 167.729 154.174 168.535C153.464 169.341 152.985 170.324 152.786 171.38C152.588 172.435 152.678 173.525 153.047 174.534" fill="#E0E0E0"/>
<path d="M146.401 164.028C147.335 164.391 148.338 164.539 149.337 164.46C150.336 164.382 151.304 164.078 152.17 163.573C153.035 163.068 153.775 162.373 154.335 161.542C154.894 160.711 155.258 159.764 155.401 158.772C154.493 158.197 153.446 157.878 152.372 157.849C151.297 157.819 150.235 158.081 149.297 158.605C148.359 159.129 147.579 159.897 147.041 160.827C146.503 161.757 146.226 162.815 146.239 163.89" fill="#E0E0E0"/>
<path d="M144.066 160.572C143.133 160.207 142.129 160.058 141.129 160.137C140.13 160.215 139.161 160.518 138.296 161.024C137.43 161.529 136.69 162.224 136.131 163.056C135.571 163.888 135.208 164.836 135.066 165.828C135.977 166.393 137.022 166.703 138.093 166.727C139.164 166.751 140.222 166.488 141.157 165.965C142.092 165.442 142.87 164.679 143.41 163.753C143.95 162.828 144.233 161.775 144.228 160.704" fill="#E0E0E0"/>
<path d="M141.312 158.706C142.258 158.386 143.12 157.856 143.834 157.157C144.548 156.458 145.095 155.607 145.435 154.668C145.776 153.728 145.9 152.724 145.799 151.73C145.698 150.736 145.374 149.778 144.852 148.926C143.79 149.073 142.788 149.502 141.948 150.168C141.108 150.834 140.462 151.712 140.077 152.713C139.692 153.713 139.581 154.798 139.757 155.855C139.933 156.912 140.389 157.903 141.078 158.724" fill="#E0E0E0"/>
<path d="M134.25 159.048C134.593 158.109 134.719 157.104 134.619 156.109C134.52 155.114 134.197 154.155 133.675 153.302C133.153 152.449 132.446 151.725 131.605 151.183C130.765 150.642 129.813 150.297 128.82 150.174C128.274 151.096 127.984 152.147 127.98 153.218C127.977 154.29 128.261 155.342 128.803 156.267C129.344 157.192 130.123 157.955 131.059 158.476C131.995 158.998 133.053 159.26 134.124 159.234" fill="#E0E0E0"/>
<path d="M162.708 206.754L166.464 183.15L137.646 183.504L140.49 206.448" fill="#4C60A5"/>
<path d="M150.27 178.842C149.572 179.316 148.763 179.603 147.922 179.673C147.081 179.744 146.237 179.596 145.47 179.244C144.726 178.825 144.098 178.228 143.641 177.506C143.185 176.785 142.914 175.962 142.854 175.11C143.592 174.734 144.401 174.519 145.228 174.477C146.055 174.436 146.882 174.57 147.654 174.87C148.404 175.204 149.074 175.693 149.621 176.306C150.169 176.918 150.58 177.639 150.828 178.422" fill="#42D2B2"/>
<path d="M137.1 183.924C136.401 184.397 135.593 184.683 134.752 184.753C133.912 184.824 133.067 184.677 132.3 184.326C131.557 183.906 130.929 183.309 130.473 182.587C130.016 181.866 129.745 181.043 129.684 180.192C130.422 179.816 131.231 179.601 132.058 179.559C132.885 179.518 133.712 179.652 134.484 179.952C135.234 180.285 135.906 180.774 136.453 181.386C137 181.999 137.411 182.721 137.658 183.504" fill="#42D2B2"/>
<path d="M144.492 172.572C144.168 173.348 143.652 174.028 142.991 174.548C142.331 175.068 141.548 175.41 140.718 175.542C139.866 175.598 139.014 175.444 138.236 175.092C137.459 174.741 136.78 174.203 136.26 173.526C136.649 172.798 137.197 172.166 137.862 171.677C138.528 171.188 139.294 170.854 140.105 170.699C140.917 170.545 141.752 170.575 142.551 170.786C143.349 170.996 144.09 171.383 144.72 171.918" fill="#42D2B2"/>
<path d="M139.686 178.452C140.529 178.409 141.369 178.585 142.125 178.961C142.88 179.337 143.526 179.902 144 180.6C144.418 181.344 144.646 182.179 144.664 183.032C144.682 183.885 144.489 184.73 144.102 185.49C143.277 185.452 142.472 185.23 141.744 184.84C141.016 184.45 140.385 183.902 139.897 183.237C139.409 182.571 139.076 181.804 138.924 180.992C138.771 180.181 138.802 179.346 139.014 178.548" fill="#42D2B2"/>
<path d="M135.041 187.746C135.434 188.489 135.63 189.32 135.61 190.161C135.59 191.001 135.355 191.822 134.927 192.546C134.43 193.24 133.769 193.801 133.002 194.176C132.236 194.552 131.388 194.732 130.535 194.7C130.244 193.93 130.117 193.108 130.164 192.286C130.21 191.465 130.429 190.662 130.805 189.93C131.561 188.55 132.929 187.872 134.639 187.482" fill="#42D2B2"/>
<path d="M127.386 188.838C127.71 188.521 128.096 188.274 128.52 188.112C129.024 187.937 129.553 187.844 130.086 187.836C130.796 187.838 131.505 187.88 132.21 187.962C133.09 188.075 133.984 187.997 134.832 187.734C135.795 187.344 136.57 186.596 136.992 185.646C137.449 184.632 137.762 183.56 137.922 182.46C138.079 181.309 138.456 180.199 139.032 179.19C139.714 178.245 140.535 177.41 141.468 176.712C142.354 176.038 143.14 175.242 143.802 174.348C144.834 172.749 145.245 170.829 144.96 168.948C144.787 167.687 144.303 166.489 143.55 165.462C143.344 165.186 143.111 164.93 142.854 164.7C142.773 164.612 142.683 164.533 142.584 164.466C142.649 164.567 142.725 164.659 142.812 164.742C143.039 164.994 143.251 165.258 143.448 165.534C144.147 166.563 144.592 167.743 144.744 168.978C144.988 170.81 144.562 172.668 143.544 174.21C142.892 175.077 142.123 175.848 141.258 176.502C140.297 177.217 139.451 178.075 138.75 179.046C138.156 180.089 137.767 181.235 137.604 182.424C137.452 183.5 137.153 184.549 136.716 185.544C136.329 186.435 135.613 187.142 134.718 187.518C133.908 187.774 133.054 187.858 132.21 187.764C131.496 187.696 130.779 187.67 130.062 187.686C129.513 187.705 128.971 187.818 128.46 188.022C128.136 188.15 127.841 188.339 127.59 188.58C127.527 188.644 127.469 188.712 127.416 188.784C127.398 188.808 127.38 188.832 127.386 188.838Z" fill="#42D2B2"/>
<path d="M127.386 188.838C127.71 188.521 128.096 188.274 128.52 188.112C129.024 187.937 129.553 187.844 130.086 187.836C130.796 187.838 131.505 187.88 132.21 187.962C133.09 188.075 133.984 187.997 134.832 187.734C135.795 187.344 136.57 186.596 136.992 185.646C137.449 184.632 137.762 183.56 137.922 182.46C138.079 181.309 138.456 180.199 139.032 179.19C139.714 178.245 140.535 177.41 141.468 176.712C142.354 176.038 143.14 175.242 143.802 174.348C144.834 172.749 145.245 170.829 144.96 168.948C144.787 167.687 144.303 166.489 143.55 165.462C143.344 165.186 143.111 164.93 142.854 164.7C142.773 164.612 142.683 164.533 142.584 164.466C142.649 164.567 142.725 164.659 142.812 164.742C143.039 164.994 143.251 165.258 143.448 165.534C144.147 166.563 144.592 167.743 144.744 168.978C144.988 170.81 144.562 172.668 143.544 174.21C142.892 175.077 142.123 175.848 141.258 176.502C140.297 177.217 139.451 178.075 138.75 179.046C138.156 180.089 137.767 181.235 137.604 182.424C137.452 183.5 137.153 184.549 136.716 185.544C136.329 186.435 135.613 187.142 134.718 187.518C133.908 187.774 133.054 187.858 132.21 187.764C131.496 187.696 130.779 187.67 130.062 187.686C129.513 187.705 128.971 187.818 128.46 188.022C128.136 188.15 127.841 188.339 127.59 188.58C127.527 188.644 127.469 188.712 127.416 188.784C127.398 188.808 127.38 188.832 127.386 188.838Z" fill="#42D2B2"/>
<path d="M182.4 191.256C182.338 190.045 182.578 188.837 183.099 187.742C183.621 186.647 184.407 185.7 185.387 184.985C186.367 184.27 187.509 183.811 188.711 183.649C189.913 183.486 191.136 183.626 192.27 184.056C191.414 185.963 190.081 187.618 188.4 188.86C186.718 190.102 184.745 190.89 182.67 191.148" fill="#1B4DED"/>
<path d="M184.297 192.258C185.701 193.806 185.611 196.296 184.603 198.132C183.595 199.968 181.861 201.27 180.121 202.434C179.531 200.444 179.611 198.316 180.348 196.376C181.085 194.435 182.439 192.791 184.201 191.694" fill="#1B4DED"/>
<path d="M177.468 185.004C177.357 186.134 177.019 187.229 176.473 188.224C175.927 189.22 175.185 190.094 174.291 190.794C173.398 191.495 172.372 192.007 171.275 192.299C170.178 192.592 169.034 192.66 167.91 192.498C168.456 190.23 169.362 187.95 171.114 186.414C172.866 184.878 175.62 184.302 177.558 185.598" fill="#1B4DED"/>
<path d="M177.51 182.694C177.864 180.63 179.91 179.136 181.98 178.938C184.05 178.74 186.126 179.634 187.794 180.894C186.529 182.343 184.759 183.254 182.845 183.444C180.931 183.634 179.017 183.086 177.492 181.914" fill="#1B4DED"/>
<path d="M188.251 200.232C190.225 201.918 190.723 204.93 189.901 207.396C189.079 209.862 187.153 211.83 184.987 213.276C184.159 210.828 183.637 208.206 184.075 205.662C184.513 203.118 186.049 200.652 188.413 199.614" fill="#1B4DED"/>
<path d="M177.833 176.91C177.31 176.138 176.616 175.497 175.805 175.036C174.994 174.575 174.088 174.307 173.157 174.252C172.226 174.198 171.295 174.358 170.436 174.721C169.577 175.084 168.813 175.64 168.203 176.346C168.607 177.253 169.259 178.027 170.084 178.579C170.91 179.13 171.875 179.436 172.867 179.461C173.86 179.486 174.839 179.229 175.691 178.72C176.544 178.212 177.234 177.471 177.683 176.586" fill="#1B4DED"/>
<path d="M175.409 170.964C176.478 171.287 177.603 171.38 178.711 171.238C179.818 171.095 180.883 170.719 181.835 170.135C182.787 169.552 183.605 168.773 184.235 167.851C184.864 166.928 185.292 165.883 185.489 164.784C183.905 164.593 182.303 164.615 180.725 164.85C179.144 165.092 177.677 165.817 176.525 166.926C176.004 167.444 175.628 168.089 175.434 168.798C175.24 169.506 175.236 170.253 175.421 170.964" fill="#1B4DED"/>
<path d="M170.838 169.422C171.575 168.818 172.169 168.059 172.579 167.199C172.988 166.339 173.203 165.399 173.207 164.446C173.211 163.493 173.004 162.551 172.602 161.688C172.2 160.824 171.612 160.06 170.88 159.45C169.449 161.193 168.478 163.266 168.054 165.48C167.847 166.297 167.847 167.153 168.054 167.97C168.167 168.376 168.39 168.743 168.698 169.031C169.006 169.319 169.387 169.516 169.8 169.602" fill="#1B4DED"/>
<g opacity="0.4">
<path opacity="0.4" d="M182.4 191.256C182.338 190.045 182.578 188.837 183.099 187.742C183.621 186.647 184.407 185.7 185.387 184.985C186.367 184.27 187.509 183.811 188.711 183.649C189.913 183.486 191.136 183.626 192.27 184.056C191.414 185.963 190.081 187.618 188.4 188.86C186.718 190.102 184.745 190.89 182.67 191.148" fill="#1B4DED"/>
</g>
<g opacity="0.4">
<path opacity="0.4" d="M184.297 192.258C185.701 193.806 185.611 196.296 184.603 198.132C183.595 199.968 181.861 201.27 180.121 202.434C179.531 200.444 179.611 198.316 180.348 196.376C181.085 194.435 182.439 192.791 184.201 191.694" fill="#1B4DED"/>
</g>
<g opacity="0.4">
<path opacity="0.4" d="M177.468 185.004C177.357 186.134 177.019 187.229 176.473 188.224C175.927 189.22 175.185 190.094 174.291 190.794C173.398 191.495 172.372 192.007 171.275 192.299C170.178 192.592 169.034 192.66 167.91 192.498C168.456 190.23 169.362 187.95 171.114 186.414C172.866 184.878 175.62 184.302 177.558 185.598" fill="#1B4DED"/>
</g>
<g opacity="0.4">
<path opacity="0.4" d="M177.51 182.694C177.864 180.63 179.91 179.136 181.98 178.938C184.05 178.74 186.126 179.634 187.794 180.894C186.529 182.343 184.759 183.254 182.845 183.444C180.931 183.634 179.017 183.086 177.492 181.914" fill="#1B4DED"/>
</g>
<g opacity="0.4">
<path opacity="0.4" d="M188.251 200.232C190.225 201.918 190.723 204.93 189.901 207.396C189.079 209.862 187.153 211.83 184.987 213.276C184.159 210.828 183.637 208.206 184.075 205.662C184.513 203.118 186.049 200.652 188.413 199.614" fill="#1B4DED"/>
</g>
<g opacity="0.4">
<path opacity="0.4" d="M177.833 176.91C177.31 176.138 176.616 175.497 175.805 175.036C174.994 174.575 174.088 174.307 173.157 174.252C172.226 174.198 171.295 174.358 170.436 174.721C169.577 175.084 168.813 175.64 168.203 176.346C168.607 177.253 169.259 178.027 170.084 178.579C170.91 179.13 171.875 179.436 172.867 179.461C173.86 179.486 174.839 179.229 175.691 178.72C176.544 178.212 177.234 177.471 177.683 176.586" fill="#1B4DED"/>
</g>
<g opacity="0.4">
<path opacity="0.4" d="M175.409 170.964C176.478 171.287 177.603 171.38 178.711 171.238C179.818 171.095 180.883 170.719 181.835 170.135C182.787 169.552 183.605 168.773 184.235 167.851C184.864 166.928 185.292 165.883 185.489 164.784C183.905 164.593 182.303 164.615 180.725 164.85C179.144 165.092 177.677 165.817 176.525 166.926C176.004 167.444 175.628 168.089 175.434 168.798C175.24 169.506 175.236 170.253 175.421 170.964" fill="#1B4DED"/>
</g>
<g opacity="0.4">
<path opacity="0.4" d="M170.838 169.422C171.575 168.818 172.169 168.059 172.579 167.199C172.988 166.339 173.203 165.399 173.207 164.446C173.211 163.493 173.004 162.551 172.602 161.688C172.2 160.824 171.612 160.06 170.88 159.45C169.449 161.193 168.478 163.266 168.054 165.48C167.847 166.297 167.847 167.153 168.054 167.97C168.167 168.376 168.39 168.743 168.698 169.031C169.006 169.319 169.387 169.516 169.8 169.602" fill="#1B4DED"/>
</g>
<path d="M162.929 183.912C162.936 183.858 162.936 183.804 162.929 183.75C162.929 183.624 162.929 183.468 162.899 183.276C162.869 182.856 162.833 182.244 162.815 181.476C162.722 179.244 163.088 177.016 163.889 174.93C164.469 173.507 165.37 172.238 166.523 171.222C167.844 170.051 169.558 169.421 171.323 169.458C172.266 169.468 173.193 169.701 174.029 170.136C174.894 170.597 175.616 171.286 176.117 172.128C177.161 173.856 177.419 176.016 177.317 178.128C177.215 180.24 176.933 182.4 177.173 184.464C177.278 185.478 177.546 186.469 177.965 187.398C178.358 188.304 178.965 189.101 179.735 189.72C180.487 190.267 181.319 190.694 182.201 190.986C183.011 191.258 183.791 191.612 184.529 192.042C185.834 192.851 186.893 194.003 187.589 195.372C188.165 196.5 188.467 197.748 188.471 199.014C188.475 199.971 188.319 200.922 188.009 201.828C187.734 202.599 187.368 203.335 186.917 204.018C186.917 204.018 186.959 203.982 187.025 203.898C187.091 203.814 187.187 203.688 187.301 203.508C187.64 202.997 187.916 202.447 188.123 201.87C188.456 200.954 188.633 199.989 188.645 199.014C188.658 197.716 188.364 196.433 187.787 195.27C187.081 193.858 186.002 192.665 184.667 191.82C183.245 190.872 181.361 190.62 179.915 189.498C178.469 188.376 177.701 186.408 177.479 184.428C177.257 182.448 177.551 180.312 177.629 178.14C177.707 175.968 177.461 173.748 176.369 171.948C175.837 171.059 175.071 170.333 174.155 169.848C173.277 169.395 172.305 169.154 171.317 169.146C169.489 169.119 167.718 169.781 166.355 171C165.183 172.049 164.269 173.355 163.685 174.816C163.207 176.013 162.902 177.271 162.779 178.554C162.684 179.517 162.656 180.485 162.695 181.452C162.731 182.25 162.785 182.862 162.833 183.282C162.833 183.474 162.881 183.63 162.893 183.75C162.905 183.87 162.929 183.912 162.929 183.912Z" fill="#1B4DED"/>
<g opacity="0.4">
<path opacity="0.4" d="M162.929 183.912C162.936 183.858 162.936 183.804 162.929 183.75C162.929 183.624 162.929 183.468 162.899 183.276C162.869 182.856 162.833 182.244 162.815 181.476C162.722 179.244 163.088 177.016 163.889 174.93C164.469 173.507 165.37 172.238 166.523 171.222C167.844 170.051 169.558 169.421 171.323 169.458C172.266 169.468 173.193 169.701 174.029 170.136C174.894 170.597 175.616 171.286 176.117 172.128C177.161 173.856 177.419 176.016 177.317 178.128C177.215 180.24 176.933 182.4 177.173 184.464C177.278 185.478 177.546 186.469 177.965 187.398C178.358 188.304 178.965 189.101 179.735 189.72C180.487 190.267 181.319 190.694 182.201 190.986C183.011 191.258 183.791 191.612 184.529 192.042C185.834 192.851 186.893 194.003 187.589 195.372C188.165 196.5 188.467 197.748 188.471 199.014C188.475 199.971 188.319 200.922 188.009 201.828C187.734 202.599 187.368 203.335 186.917 204.018C186.917 204.018 186.959 203.982 187.025 203.898C187.091 203.814 187.187 203.688 187.301 203.508C187.64 202.997 187.916 202.447 188.123 201.87C188.456 200.954 188.633 199.989 188.645 199.014C188.658 197.716 188.364 196.433 187.787 195.27C187.081 193.858 186.002 192.665 184.667 191.82C183.245 190.872 181.361 190.62 179.915 189.498C178.469 188.376 177.701 186.408 177.479 184.428C177.257 182.448 177.551 180.312 177.629 178.14C177.707 175.968 177.461 173.748 176.369 171.948C175.837 171.059 175.071 170.333 174.155 169.848C173.277 169.395 172.305 169.154 171.317 169.146C169.489 169.119 167.718 169.781 166.355 171C165.183 172.049 164.269 173.355 163.685 174.816C163.207 176.013 162.902 177.271 162.779 178.554C162.684 179.517 162.656 180.485 162.695 181.452C162.731 182.25 162.785 182.862 162.833 183.282C162.833 183.474 162.881 183.63 162.893 183.75C162.905 183.87 162.929 183.912 162.929 183.912Z" fill="#1B4DED"/>
</g>
<path d="M120.978 178.764C120.707 178.092 120.561 177.376 120.546 176.652C120.534 175.805 120.725 174.968 121.104 174.21C121.618 173.217 122.445 172.42 123.456 171.942C124.037 171.662 124.666 171.493 125.31 171.444C126.008 171.404 126.709 171.485 127.38 171.684C128.79 172.056 130.188 172.884 131.856 173.19C132.713 173.386 133.606 173.365 134.454 173.13C135.338 172.835 136.089 172.235 136.572 171.438C137.574 169.878 137.862 167.916 139.074 166.482C139.679 165.782 140.469 165.266 141.354 164.994C142.211 164.717 143.116 164.625 144.012 164.724C145.723 164.903 147.303 165.724 148.434 167.022C149.459 168.196 150.209 169.583 150.63 171.084C151.014 172.39 151.18 173.75 151.122 175.11C151.003 177.087 150.753 179.053 150.372 180.996C150.258 181.668 150.162 182.196 150.096 182.592C150.096 182.76 150.054 182.898 150.036 183.006C150.029 183.054 150.029 183.102 150.036 183.15C150.036 183.15 150.036 183.108 150.078 183.012L150.174 182.604C150.252 182.214 150.366 181.686 150.504 181.02C150.933 179.076 151.218 177.102 151.356 175.116C151.427 173.732 151.271 172.346 150.894 171.012C150.473 169.463 149.71 168.027 148.662 166.812C148.08 166.166 147.397 165.619 146.64 165.192C145.819 164.751 144.919 164.479 143.992 164.39C143.064 164.301 142.129 164.399 141.24 164.676C140.308 164.97 139.476 165.519 138.84 166.26C137.55 167.802 137.274 169.77 136.314 171.252C135.873 171.993 135.181 172.55 134.364 172.824C133.564 173.05 132.72 173.072 131.91 172.89C130.302 172.584 128.91 171.792 127.446 171.42C126.747 171.216 126.018 171.137 125.292 171.186C124.619 171.242 123.964 171.426 123.36 171.726C122.316 172.238 121.471 173.082 120.96 174.126C120.583 174.911 120.404 175.776 120.438 176.646C120.451 177.191 120.554 177.731 120.744 178.242C120.803 178.424 120.881 178.599 120.978 178.764Z" fill="#42D2B2"/>
<path d="M137.826 168.306C137.059 168.769 136.193 169.041 135.299 169.099C134.405 169.158 133.511 169.001 132.69 168.642C131.947 168.222 131.319 167.625 130.863 166.904C130.406 166.183 130.135 165.359 130.074 164.508C130.812 164.133 131.621 163.917 132.448 163.874C133.275 163.832 134.102 163.964 134.874 164.262C135.623 164.598 136.293 165.088 136.84 165.7C137.387 166.312 137.799 167.032 138.048 167.814" fill="#42D2B2"/>
<path d="M132.366 173.262C132.36 174.159 132.139 175.041 131.721 175.834C131.304 176.628 130.702 177.309 129.966 177.822C129.221 178.239 128.385 178.465 127.532 178.479C126.678 178.494 125.835 178.297 125.076 177.906C125.142 177.086 125.378 176.289 125.77 175.566C126.162 174.843 126.7 174.209 127.35 173.706C128.026 173.24 128.794 172.923 129.601 172.775C130.409 172.627 131.239 172.652 132.036 172.848" fill="#42D2B2"/>
<path d="M122.885 172.164C122.073 172.541 121.183 172.719 120.288 172.681C119.394 172.644 118.521 172.392 117.743 171.948C117.049 171.452 116.488 170.792 116.111 170.027C115.734 169.262 115.553 168.415 115.583 167.562C116.346 167.247 117.17 167.107 117.995 167.152C118.819 167.197 119.622 167.427 120.346 167.823C121.07 168.22 121.696 168.773 122.178 169.444C122.66 170.114 122.986 170.883 123.131 171.696" fill="#42D2B2"/>
<path d="M145.799 165C147.179 163.8 148.103 161.718 147.839 160.152C147.658 159.318 147.273 158.541 146.72 157.891C146.166 157.241 145.46 156.738 144.665 156.426C144.092 157.017 143.649 157.722 143.366 158.495C143.083 159.268 142.965 160.093 143.021 160.914C143.118 161.73 143.387 162.516 143.81 163.22C144.233 163.925 144.801 164.531 145.475 165" fill="#42D2B2"/>
<path d="M182.789 158.238C182.78 158.193 182.761 158.15 182.735 158.112L182.543 157.758C182.369 157.452 182.099 157.008 181.709 156.456C180.613 154.891 179.211 153.564 177.587 152.556C176.453 151.869 175.195 151.408 173.885 151.2C172.371 150.978 170.826 151.141 169.391 151.674C167.781 152.24 166.42 153.352 165.545 154.818C164.663 156.36 164.345 158.172 163.859 159.906C163.617 160.753 163.255 161.561 162.785 162.306C162.297 163.008 161.687 163.618 160.985 164.106C160.295 164.61 159.575 165.072 158.927 165.6C158.288 166.119 157.725 166.725 157.253 167.4C156.403 168.669 155.819 170.098 155.537 171.6C155.29 172.897 155.214 174.22 155.309 175.536C155.466 177.428 155.803 179.301 156.317 181.128C156.485 181.776 156.629 182.28 156.731 182.616C156.77 182.791 156.826 182.962 156.899 183.126C156.875 182.948 156.839 182.771 156.791 182.598C156.701 182.232 156.587 181.728 156.437 181.098C155.971 179.269 155.668 177.401 155.531 175.518C155.449 174.224 155.537 172.925 155.795 171.654C156.077 170.195 156.653 168.809 157.487 167.58C157.947 166.927 158.494 166.339 159.113 165.834C159.749 165.318 160.463 164.868 161.165 164.352C161.905 163.845 162.548 163.211 163.067 162.48C163.56 161.703 163.936 160.858 164.183 159.972C164.705 158.208 164.993 156.426 165.833 154.95C166.67 153.54 167.973 152.466 169.517 151.914C170.907 151.396 172.404 151.231 173.873 151.434C175.146 151.627 176.368 152.065 177.473 152.724C179.086 153.7 180.491 154.985 181.607 156.504C182.009 157.038 182.297 157.47 182.489 157.77C182.578 157.933 182.678 158.089 182.789 158.238Z" fill="#42D2B2"/>
<path d="M160.151 164.586C160.631 164.142 160.859 164.454 161.501 164.586C162.142 164.726 162.738 165.022 163.235 165.45C164.329 166.354 165.136 167.558 165.556 168.913C165.976 170.269 165.991 171.718 165.599 173.082C164.574 173.137 163.554 172.914 162.645 172.436C161.737 171.958 160.975 171.244 160.44 170.368C159.905 169.492 159.616 168.488 159.606 167.461C159.595 166.435 159.862 165.425 160.379 164.538" fill="#42D2B2"/>
<path d="M179.736 155.67C179.976 155.07 180.336 155.244 180.936 155.07C181.573 154.923 182.237 154.935 182.868 155.106C184.243 155.456 185.486 156.199 186.445 157.244C187.404 158.29 188.038 159.592 188.268 160.992C187.367 161.486 186.348 161.726 185.321 161.687C184.293 161.648 183.296 161.331 182.434 160.771C181.572 160.21 180.879 159.426 180.427 158.503C179.975 157.579 179.782 156.55 179.868 155.526" fill="#42D2B2"/>
<path d="M155.838 176.646C156.493 175.899 157.309 175.309 158.224 174.921C159.139 174.533 160.13 174.356 161.123 174.405C162.116 174.453 163.085 174.725 163.958 175.2C164.83 175.676 165.585 176.342 166.164 177.15C164.698 178.484 162.794 179.236 160.812 179.262C158.808 179.212 156.89 178.438 155.412 177.084" fill="#42D2B2"/>
<path d="M157.447 167.64C156.448 167.669 155.456 167.472 154.544 167.065C153.631 166.658 152.823 166.051 152.177 165.288C151.531 164.525 151.066 163.627 150.815 162.66C150.564 161.693 150.534 160.682 150.727 159.702C151.773 159.472 152.862 159.526 153.88 159.858C154.898 160.191 155.808 160.79 156.517 161.593C157.225 162.397 157.706 163.375 157.908 164.427C158.111 165.478 158.028 166.565 157.669 167.574" fill="#42D2B2"/>
<path d="M164.34 157.05C163.406 157.413 162.402 157.561 161.403 157.483C160.404 157.404 159.436 157.1 158.571 156.595C157.705 156.09 156.966 155.395 156.406 154.564C155.847 153.733 155.482 152.786 155.34 151.794C156.25 151.23 157.294 150.919 158.365 150.895C159.436 150.87 160.493 151.133 161.428 151.655C162.363 152.177 163.141 152.94 163.681 153.865C164.222 154.789 164.505 155.841 164.502 156.912" fill="#42D2B2"/>
<path d="M166.65 153.6C167.584 153.237 168.588 153.089 169.587 153.168C170.586 153.246 171.554 153.55 172.419 154.055C173.285 154.56 174.025 155.255 174.584 156.086C175.144 156.917 175.508 157.864 175.65 158.856C174.74 159.421 173.695 159.731 172.624 159.755C171.553 159.78 170.495 159.517 169.56 158.994C168.625 158.471 167.847 157.707 167.306 156.782C166.766 155.856 166.484 154.803 166.488 153.732" fill="#42D2B2"/>
<path d="M169.404 151.728C168.457 151.408 167.595 150.878 166.881 150.179C166.167 149.48 165.62 148.629 165.28 147.69C164.94 146.75 164.816 145.746 164.917 144.752C165.018 143.758 165.342 142.8 165.864 141.948C166.925 142.096 167.927 142.526 168.766 143.192C169.605 143.858 170.25 144.737 170.635 145.737C171.019 146.737 171.129 147.821 170.953 148.878C170.776 149.935 170.32 150.925 169.632 151.746" fill="#42D2B2"/>
<path d="M176.46 152.07C176.119 151.13 175.994 150.125 176.094 149.131C176.195 148.136 176.518 147.176 177.041 146.324C177.563 145.471 178.271 144.747 179.111 144.206C179.952 143.664 180.904 143.319 181.896 143.196C182.443 144.118 182.733 145.169 182.736 146.24C182.739 147.312 182.455 148.364 181.914 149.289C181.373 150.214 180.593 150.977 179.658 151.498C178.722 152.02 177.663 152.282 176.592 152.256" fill="#42D2B2"/>
<path d="M166.83 204.018L164.628 206.754H137.508L135.66 204.018H166.83Z" fill="#4C60A5"/>
<path d="M109.417 66.0901L114.769 79.7761L111.439 79.7641L108.775 71.3521L109.417 66.0901Z" fill="#E0E0E0"/>
<path d="M91.1465 53.448L89.3105 79.668L108.295 80.064L110.431 53.448H91.1465Z" fill="#EBEBEB"/>
<path d="M93.0476 55.554L91.5176 77.382L105.63 78.042L107.604 55.428L93.0476 55.554Z" fill="#FAFAFA"/>
<path d="M96.144 58.644L94.998 73.986H102.786L104.16 58.644H96.144Z" fill="#E0E0E0"/>
<path d="M72.4258 79.8299V66.7019H82.0378V79.8239L72.4258 79.8299Z" fill="#F5F5F5"/>
<path d="M77.8912 66.7019C77.8912 66.7019 80.2072 49.7519 79.5592 49.7999C78.9112 49.8479 77.2792 65.2559 77.2792 65.2559C77.2792 65.2559 77.2072 52.4759 76.5952 52.5419C75.9832 52.6079 76.5952 66.0719 76.5952 66.0719C76.5952 66.0719 75.5512 55.1219 74.9992 55.3859C74.4472 55.6499 75.2452 66.7019 75.2452 66.7019H77.9032" fill="#E0E0E0"/>
<path d="M76.1406 66.7019C76.1406 66.7019 76.9446 58.2539 77.2146 58.8299C77.4846 59.4059 77.2146 63.8639 77.2146 63.8639C77.2146 63.8639 79.4406 52.9439 80.0226 53.3159C80.6046 53.6879 77.7426 65.1659 77.7426 65.1659C77.7426 65.1659 79.9146 58.6139 80.3946 59.3039C80.8746 59.9939 78.5946 66.1439 78.5946 66.1439C78.5946 66.1439 80.9286 61.7939 81.0846 62.3759C81.2406 62.9579 79.9746 66.7019 79.9746 66.7019H76.1406Z" fill="#EBEBEB"/>
<path d="M74.7714 66.7561C74.7714 66.7561 69.6294 56.6641 70.2654 56.9761C70.9014 57.2881 74.1894 63.8101 74.1894 63.8101C74.1894 63.8101 71.9994 57.5161 72.4914 57.3241C72.9834 57.1321 75.3534 64.3921 75.3534 64.3921L75.8874 66.7561H74.7714Z" fill="#EBEBEB"/>
<path d="M76.873 66.7261L77.119 79.8541H72.547L72.457 66.6841L76.873 66.7261Z" fill="#E0E0E0"/>
<path d="M72.4325 67.8599L76.8605 67.938L82.0385 67.8599L82.2005 66.606H72.3125L72.4325 67.8599Z" fill="#EBEBEB"/>
<path d="M130.001 79.4639H62.6934V82.9319H130.001V79.4639Z" fill="#E0E0E0"/>
</g>
<defs>
<clipPath id="clip0_519:65021">
<rect width="450" height="288" fill="white"/>
</clipPath>
</defs>
</svg>
