<svg width="471" height="314" viewBox="0 0 471 314" fill="none" xmlns="http://www.w3.org/2000/svg">
<path d="M413.722 33.4788H331.705V180.814H413.722V33.4788Z" fill="#EBEBEB"/>
<path d="M409.595 37.7554H334.982V176.424H409.595V37.7554Z" fill="#FAFAFA"/>
<path d="M417.187 182.145L413.721 180.814V30.9856H417.187V182.145Z" fill="#E0E0E0"/>
<path d="M411.215 77.646H334.982V79.1218H411.215V77.646Z" fill="#E0E0E0"/>
<path d="M411.215 110.666H334.982V112.142H411.215V110.666Z" fill="#E0E0E0"/>
<path d="M411.215 143.693H334.982V145.169H411.215V143.693Z" fill="#E0E0E0"/>
<path d="M370.4 78.3806V180.355H374.168V78.3806H370.4Z" fill="#E0E0E0"/>
<path d="M351.06 37.7554H349.352V78.387H351.06V37.7554Z" fill="#E0E0E0"/>
<path d="M365.786 37.7554H364.078V78.387H365.786V37.7554Z" fill="#E0E0E0"/>
<path d="M380.519 37.7554H378.811V78.387H380.519V37.7554Z" fill="#E0E0E0"/>
<path d="M395.245 37.7554H393.537V78.387H395.245V37.7554Z" fill="#E0E0E0"/>
<path d="M331.705 30.9856H328.238V181.731H331.705V30.9856Z" fill="#E0E0E0"/>
<path d="M417.188 29.4595H328.238V33.4787H417.188V29.4595Z" fill="#E0E0E0"/>
<path d="M419.536 182.635H325.775V186.378H419.536V182.635Z" fill="#E0E0E0"/>
<path d="M413.721 180.814L419.536 182.635H325.775L331.704 180.814H413.721Z" fill="#E0E0E0"/>
<path d="M64.1957 216.98H38.8496V223.687H64.1957V216.98Z" fill="#EBEBEB"/>
<path d="M53.4752 230.746C53.4726 230.706 53.4726 230.666 53.4752 230.627V230.281C53.4752 229.967 53.4752 229.528 53.4752 228.963C53.4752 227.807 53.4752 226.143 53.4312 224.045L53.5066 224.121L28.1354 224.196L28.261 224.07V227.474C28.261 228.592 28.261 229.697 28.261 230.771L28.1354 230.646L46.1966 230.702L51.5284 230.74H52.9728H53.4815C53.4815 230.74 53.4438 230.74 53.3684 230.74H53.0042H51.5912L46.2908 230.771L28.1354 230.828H28.0098V224.045C28.2672 223.782 28.0788 223.97 28.1416 223.913L53.4815 223.964H53.5631V224.045C53.5631 226.162 53.5631 227.813 53.5191 229.007C53.5191 229.565 53.5191 229.999 53.5191 230.313C53.5191 230.445 53.5191 230.558 53.5191 230.639C53.5191 230.721 53.4815 230.752 53.4752 230.746Z" fill="#E0E0E0"/>
<path d="M58.952 43.6711C58.952 43.6711 58.952 43.6271 58.952 43.5518V43.2064C58.952 42.8924 58.952 42.4528 58.952 41.8876C58.952 40.732 58.952 39.0678 58.908 36.9703L58.9834 37.0457L33.6436 37.0959L33.7692 36.9703V43.6711L33.6373 43.5455L51.7049 43.602L57.0366 43.6397H58.4747H58.9834C58.9834 43.6397 58.952 43.6397 58.8704 43.6397H58.5061H57.0931L51.7928 43.6711L33.6373 43.7276H33.5117V36.9766L33.6436 36.8447L58.9834 36.895H59.0336V36.9766C59.0336 39.093 59.0336 40.7446 58.9897 41.9378C58.9897 42.4967 58.9897 42.93 58.9897 43.244C58.9897 43.3759 58.9897 43.489 58.9897 43.5706C58.9897 43.6522 58.9583 43.6774 58.952 43.6711Z" fill="#E0E0E0"/>
<path d="M446.163 220.34C446.16 220.3 446.16 220.26 446.163 220.221V219.875C446.163 219.561 446.163 219.122 446.163 218.556C446.163 217.395 446.163 215.73 446.119 213.633L446.194 213.715L420.848 213.765C420.911 213.708 420.722 213.89 420.98 213.633V217.03C420.98 218.148 420.98 219.247 420.98 220.327L420.854 220.202L438.916 220.258L444.247 220.296H445.692H446.068H445.704H444.291L438.972 220.428L420.823 220.484H420.697V213.646L420.823 213.52L446.169 213.57H446.251V213.646C446.251 215.768 446.213 217.445 446.207 218.613C446.207 219.174 446.207 219.607 446.207 219.913C446.207 220.051 446.207 220.158 446.207 220.246C446.207 220.334 446.169 220.34 446.163 220.34Z" fill="#E0E0E0"/>
<path d="M108.645 82.6952C108.642 82.6554 108.642 82.6156 108.645 82.5759V82.2305C108.645 81.9165 108.645 81.4769 108.645 80.9117C108.645 79.7499 108.645 78.0919 108.607 75.9881L108.682 76.0698L83.3361 76.12L83.468 75.9881V79.3856C83.468 80.5035 83.468 81.6025 83.468 82.6826L83.3424 82.557L101.404 82.6135L106.735 82.6512H108.18H108.569H108.211H106.798L101.492 82.6889L83.3424 82.7454H83.2168V77.6272C83.2168 77.3446 83.2168 77.062 83.2168 76.7731V75.9881L83.3487 75.8625L108.695 75.9128H108.776V75.9881C108.776 78.1108 108.739 79.7561 108.732 80.9556C108.732 81.5145 108.732 81.9479 108.732 82.2619C108.732 82.3937 108.732 82.5005 108.732 82.5884C108.708 82.6276 108.678 82.6635 108.645 82.6952Z" fill="#E0E0E0"/>
<path d="M112.099 75.9881C112.096 75.9462 112.096 75.9043 112.099 75.8625C112.099 75.7683 112.099 75.6489 112.099 75.5108C112.099 75.1779 112.099 74.7321 112.099 74.1606C112.099 72.9862 112.099 71.3283 112.049 69.2873L112.143 69.3752L96.914 69.4129C96.8009 69.5322 97.071 69.2559 97.0458 69.2873V72.7287C97.0458 73.8466 97.0458 74.933 97.0458 75.9755L96.9202 75.8562L107.816 75.9127L110.987 75.9504H111.848H112.149C112.057 75.9595 111.965 75.9595 111.873 75.9504H111.044L107.904 75.9881L96.9265 76.0446H96.8072V75.9881C96.8072 74.9456 96.8072 73.8591 96.8072 72.7413V69.2999C96.7758 69.2999 97.0521 69.0549 96.9328 69.168L112.162 69.2057H112.256V69.2999C112.256 71.366 112.218 73.0679 112.206 74.2297C112.206 74.7886 112.206 75.2282 112.206 75.5547C112.179 75.7012 112.143 75.8459 112.099 75.9881Z" fill="#E0E0E0"/>
<path d="M442.666 80.5034C442.662 80.4616 442.662 80.4195 442.666 80.3778C442.666 80.2898 442.666 80.1768 442.666 80.0386C442.666 79.7184 442.666 79.2788 442.666 78.7136C442.666 77.558 442.666 75.8938 442.622 73.7963L442.704 73.8717L417.358 73.9282C417.415 73.8654 417.226 74.0538 417.484 73.7963V80.4908L417.358 80.3652L435.419 80.4217H440.751H442.189H442.566H442.704H442.221H440.808L435.507 80.4594L417.358 80.5159H417.232V80.3903C417.232 79.3102 417.232 78.2112 417.232 77.087V73.6958L417.364 73.564L442.71 73.6142H442.742V73.6958C442.742 75.8122 442.742 77.4638 442.698 78.6633C442.698 79.216 442.698 79.6556 442.698 79.9633V80.384C442.666 80.4657 442.666 80.5034 442.666 80.5034Z" fill="#E0E0E0"/>
<path d="M446.1 73.7964C446.095 73.7547 446.095 73.7125 446.1 73.6708V73.3128C446.1 72.9863 446.1 72.5341 446.1 71.9689C446.1 70.7946 446.1 69.1304 446.05 67.0894L446.144 67.1836L430.871 67.1961C430.758 67.3092 431.028 67.0391 430.997 67.0642V70.5057C430.997 71.6298 430.997 72.7162 430.997 73.7587L430.877 73.6331L441.773 73.6959H444.913H445.767C445.87 73.6871 445.973 73.6871 446.075 73.6959C445.983 73.7061 445.89 73.7061 445.799 73.6959H444.97H441.83L430.852 73.7587H430.727V70.3801C430.727 69.8212 430.727 69.2497 430.727 68.6719V66.9386C430.727 66.9386 430.971 66.6937 430.858 66.813L446.087 66.8444H446.182V66.9324C446.182 68.9985 446.144 70.7004 446.131 71.8684C446.131 72.4274 446.131 72.867 446.131 73.1935C446.137 73.395 446.126 73.5966 446.1 73.7964Z" fill="#E0E0E0"/>
<path d="M64.0687 129.412H38.7227V136.119H64.0687V129.412Z" fill="#E0E0E0"/>
<path d="M82.2933 115.64H56.9473V122.347H82.2933V115.64Z" fill="#EBEBEB"/>
<path d="M71.5922 129.412C71.5859 129.37 71.5859 129.328 71.5922 129.286V128.941C71.5922 128.627 71.5922 128.187 71.5922 127.622C71.5922 126.467 71.5922 124.802 71.5482 122.705L71.6299 122.78L46.2838 122.83L46.4094 122.705V129.399L46.2838 129.267L64.3451 129.33H69.6768H71.1212H71.498H71.6299H71.1526H69.7333L64.433 129.368L46.2838 129.424H46.1582V129.299C46.1582 128.219 46.1582 127.12 46.1582 125.996V122.604L46.2901 122.473L71.6362 122.523H71.7115V122.604C71.7115 124.721 71.7115 126.404 71.6676 127.572C71.6676 128.125 71.6676 128.558 71.6676 128.872C71.6676 129.01 71.6676 129.117 71.6676 129.205C71.6532 129.277 71.6278 129.347 71.5922 129.412Z" fill="#E0E0E0"/>
<path d="M326.153 223.606H300.807V230.313H326.153V223.606Z" fill="#E0E0E0"/>
<path d="M344.377 209.834H319.031V216.541H344.377V209.834Z" fill="#EBEBEB"/>
<path d="M333.657 223.606C333.657 223.606 333.657 223.562 333.657 223.48V223.141C333.657 222.821 333.657 222.381 333.657 221.816C333.657 220.66 333.657 218.996 333.613 216.899L333.688 216.974L308.349 217.03C308.405 216.968 308.217 217.156 308.474 216.899V223.593L308.342 223.468L326.41 223.524L331.742 223.555H333.18H333.557H333.688H333.211H331.798L326.498 223.593L308.342 223.65H308.217V216.911L308.349 216.779L333.688 216.83H333.77V216.911C333.77 219.028 333.77 220.711 333.726 221.879C333.726 222.431 333.726 222.871 333.726 223.179C333.726 223.317 333.726 223.424 333.726 223.511C333.726 223.599 333.663 223.606 333.657 223.606Z" fill="#E0E0E0"/>
<path d="M130.367 185.555C130.365 185.513 130.365 185.471 130.367 185.43V185.084C130.367 184.77 130.367 184.331 130.367 183.765C130.367 182.61 130.367 180.946 130.33 178.848L130.405 178.923L105.059 178.974C105.116 178.917 104.933 179.106 105.191 178.848V182.239C105.191 183.363 105.191 184.462 105.191 185.543L105.065 185.411L123.127 185.473L128.458 185.505H129.903H130.28C130.323 185.5 130.368 185.5 130.411 185.505H129.934H128.521L123.215 185.543L105.065 185.599H104.877V178.861C105.134 178.603 104.946 178.785 105.003 178.729L130.349 178.779H130.43V178.861C130.43 180.977 130.393 182.629 130.386 183.828C130.386 184.381 130.386 184.814 130.386 185.128V185.461C130.382 185.493 130.376 185.524 130.367 185.555Z" fill="#E0E0E0"/>
<path d="M133.804 178.848C133.804 178.848 133.804 178.798 133.804 178.723C133.804 178.647 133.804 178.509 133.804 178.365C133.804 178.032 133.804 177.586 133.804 177.021C133.804 175.846 133.804 174.182 133.753 172.141L133.847 172.235L118.618 172.273L118.75 172.141V175.583C118.75 176.707 118.75 177.793 118.75 178.836L118.625 178.71L129.521 178.773L132.692 178.804H133.552H133.854C133.762 178.81 133.669 178.81 133.577 178.804H132.748L129.608 178.836L118.631 178.892H118.512V178.767C118.512 177.724 118.512 176.638 118.512 175.513V172.072L118.637 171.946H133.866H133.961V172.041C133.961 174.107 133.923 175.809 133.91 176.977C133.91 177.536 133.91 177.975 133.91 178.302C133.888 178.486 133.852 178.669 133.804 178.848Z" fill="#E0E0E0"/>
<path d="M416.817 284.899C417.449 284.481 418.136 284.153 418.858 283.925C419.603 283.805 420.362 283.786 421.112 283.869C421.112 283.831 420.899 283.68 420.484 283.567C419.924 283.433 419.341 283.433 418.781 283.567C418.221 283.702 417.701 283.966 417.263 284.34C416.924 284.629 416.785 284.867 416.817 284.899Z" fill="#263238"/>
<path d="M418.582 283.04C418.579 282.823 418.53 282.609 418.438 282.412C418.228 281.876 417.916 281.386 417.521 280.967C417.258 280.638 416.894 280.404 416.485 280.302C416.346 280.282 416.204 280.305 416.078 280.368C415.953 280.43 415.849 280.53 415.781 280.653C415.671 280.903 415.654 281.183 415.731 281.445C415.915 281.97 416.277 282.414 416.754 282.701C417.231 282.988 417.794 283.099 418.344 283.015C418.885 282.924 419.388 282.673 419.786 282.295C420.184 281.917 420.461 281.428 420.579 280.892C420.61 280.757 420.611 280.616 420.582 280.481C420.553 280.345 420.494 280.217 420.41 280.107C420.318 279.999 420.192 279.925 420.053 279.898C419.914 279.871 419.77 279.891 419.644 279.956C419.277 280.149 418.967 280.435 418.746 280.785C418.41 281.251 418.16 281.772 418.005 282.324C417.93 282.524 417.898 282.738 417.91 282.952C418.155 282.235 418.507 281.56 418.953 280.948C419.157 280.651 419.431 280.407 419.75 280.239C419.82 280.206 419.898 280.197 419.974 280.211C420.05 280.226 420.119 280.264 420.171 280.32C420.22 280.397 420.252 280.483 420.266 280.573C420.28 280.662 420.275 280.754 420.253 280.842C420.13 281.3 419.881 281.714 419.533 282.036C419.185 282.359 418.753 282.576 418.287 282.663C417.82 282.731 417.344 282.637 416.937 282.397C416.531 282.157 416.218 281.786 416.051 281.344C415.988 281.168 415.988 280.974 416.051 280.798C416.086 280.728 416.142 280.672 416.211 280.636C416.279 280.6 416.358 280.586 416.435 280.597C416.782 280.681 417.094 280.872 417.326 281.143C417.854 281.696 418.279 282.338 418.582 283.04Z" fill="#263238"/>
<path d="M364.059 274.832L364.951 288.283C364.951 288.283 351.562 292.73 351.48 295.235L377.649 295.424L377.122 274.398L364.059 274.832Z" fill="#FF4D4D"/>
<g opacity="0.6">
<path opacity="0.6" d="M373.034 286.908C373.287 286.979 373.506 287.14 373.648 287.361C373.79 287.582 373.847 287.848 373.806 288.108C373.746 288.364 373.59 288.587 373.371 288.732C373.151 288.877 372.884 288.932 372.625 288.886C372.361 288.812 372.132 288.643 371.983 288.411C371.834 288.18 371.774 287.903 371.815 287.63C371.904 287.37 372.091 287.155 372.336 287.029C372.581 286.904 372.865 286.879 373.128 286.958" fill="#E03A3A"/>
</g>
<g opacity="0.6">
<path opacity="0.6" d="M377.649 295.424L377.599 293.301L352.309 294.005C352.041 294.14 351.811 294.341 351.641 294.589C351.471 294.838 351.366 295.124 351.336 295.424H377.649Z" fill="#E03A3A"/>
</g>
<path d="M364.522 288.164C364.522 288.296 365.15 288.334 365.778 288.723C366.406 289.112 366.771 289.64 366.89 289.59C367.009 289.54 366.79 288.805 366.011 288.334C365.232 287.863 364.491 288.051 364.522 288.164Z" fill="#263238"/>
<path d="M361.816 289.382C361.816 289.508 362.35 289.709 362.796 290.237C363.242 290.764 363.393 291.329 363.518 291.323C363.644 291.317 363.707 290.588 363.135 289.941C362.564 289.295 361.816 289.263 361.816 289.382Z" fill="#263238"/>
<path d="M360.358 292.717C360.471 292.717 360.628 292.089 360.283 291.405C359.937 290.72 359.328 290.456 359.278 290.563C359.228 290.67 359.605 291.034 359.906 291.606C360.207 292.177 360.226 292.705 360.358 292.717Z" fill="#263238"/>
<path d="M364.662 285.074C364.718 285.194 365.29 284.999 366.024 285.024C366.759 285.049 367.318 285.263 367.381 285.15C367.444 285.037 366.885 284.603 366.037 284.578C365.189 284.553 364.593 284.98 364.662 285.074Z" fill="#263238"/>
<g opacity="0.3">
<path opacity="0.3" d="M364.24 277.494L364.397 279.893L377.246 279.385L377.196 277.224L364.24 277.494Z" fill="black"/>
</g>
<path d="M364.529 282.361C364.964 282.461 365.416 282.444 365.842 282.311C366.31 282.213 366.766 282.059 367.198 281.853C367.456 281.73 367.704 281.587 367.939 281.426C368.085 281.342 368.215 281.234 368.322 281.105C368.403 281.013 368.451 280.896 368.458 280.773C368.465 280.65 368.43 280.528 368.36 280.427C368.294 280.34 368.208 280.27 368.11 280.222C368.012 280.174 367.904 280.15 367.795 280.151C367.629 280.155 367.464 280.182 367.305 280.233C367.029 280.311 366.76 280.414 366.501 280.54C366.063 280.75 365.662 281.03 365.314 281.369C364.724 281.947 364.536 282.431 364.58 282.456C364.623 282.481 364.919 282.085 365.522 281.602C365.874 281.324 366.26 281.091 366.671 280.911C366.913 280.806 367.163 280.72 367.418 280.653C367.688 280.578 367.927 280.565 368.002 280.685C368.077 280.804 368.002 280.754 368.002 280.835C367.918 280.925 367.823 281.003 367.72 281.068C367.126 281.478 366.474 281.795 365.785 282.01C365.359 282.098 364.939 282.215 364.529 282.361Z" fill="#263238"/>
<path d="M364.706 282.537C364.937 282.161 365.044 281.722 365.014 281.281C365.02 280.795 364.943 280.31 364.788 279.849C364.693 279.577 364.573 279.314 364.43 279.064C364.353 278.895 364.234 278.748 364.085 278.638C363.935 278.528 363.76 278.459 363.576 278.436C363.46 278.445 363.349 278.485 363.254 278.553C363.16 278.62 363.087 278.713 363.042 278.819C362.978 278.974 362.938 279.137 362.922 279.303C362.875 279.594 362.875 279.891 362.922 280.182C363.006 280.671 363.211 281.131 363.519 281.52C364.053 282.186 364.593 282.317 364.599 282.274C364.605 282.23 364.241 281.972 363.802 281.344C363.564 280.976 363.41 280.56 363.349 280.126C363.315 279.876 363.315 279.622 363.349 279.372C363.349 279.09 363.481 278.863 363.588 278.889C363.695 278.914 363.946 279.083 364.059 279.303C364.192 279.526 364.307 279.759 364.404 280C364.561 280.418 364.66 280.855 364.7 281.3C364.756 282.035 364.631 282.518 364.706 282.537Z" fill="#263238"/>
<path d="M420.904 274.832L420.013 288.283C420.013 288.283 433.402 292.73 433.483 295.235L407.314 295.424L407.842 274.398L420.904 274.832Z" fill="#FF4D4D"/>
<g opacity="0.6">
<path opacity="0.6" d="M411.969 286.908C411.716 286.979 411.497 287.14 411.355 287.361C411.212 287.582 411.156 287.848 411.196 288.108C411.257 288.364 411.412 288.587 411.632 288.732C411.851 288.877 412.118 288.932 412.377 288.886C412.642 288.812 412.87 288.643 413.019 288.411C413.168 288.18 413.228 287.903 413.187 287.63C413.098 287.37 412.911 287.155 412.667 287.029C412.422 286.904 412.138 286.879 411.875 286.958" fill="#E03A3A"/>
</g>
<g opacity="0.6">
<path opacity="0.6" d="M407.314 295.424L407.365 293.301L432.642 294.005C432.91 294.14 433.14 294.341 433.31 294.589C433.48 294.838 433.585 295.124 433.615 295.424H407.314Z" fill="#E03A3A"/>
</g>
<path d="M420.44 288.164C420.44 288.296 419.812 288.334 419.146 288.723C418.48 289.112 418.16 289.64 418.041 289.59C417.921 289.54 418.135 288.805 418.92 288.334C419.705 287.863 420.471 288.051 420.44 288.164Z" fill="#263238"/>
<path d="M423.148 289.382C423.148 289.508 422.614 289.709 422.162 290.237C421.71 290.764 421.572 291.329 421.446 291.323C421.32 291.317 421.258 290.588 421.829 289.941C422.401 289.295 423.148 289.263 423.148 289.382Z" fill="#263238"/>
<path d="M424.603 292.717C424.49 292.717 424.327 292.089 424.678 291.405C425.03 290.72 425.633 290.456 425.683 290.563C425.733 290.67 425.357 291.034 425.055 291.606C424.754 292.177 424.735 292.705 424.603 292.717Z" fill="#263238"/>
<path d="M420.302 285.074C420.246 285.194 419.674 284.999 418.939 285.024C418.205 285.049 417.646 285.263 417.583 285.15C417.52 285.037 418.079 284.603 418.927 284.578C419.775 284.553 420.365 284.98 420.302 285.074Z" fill="#263238"/>
<g opacity="0.3">
<path opacity="0.3" d="M420.723 277.494L420.566 279.893L407.717 279.385L407.767 277.224L420.723 277.494Z" fill="black"/>
</g>
<path d="M420.434 282.361C420 282.461 419.547 282.444 419.121 282.311C418.652 282.214 418.197 282.06 417.765 281.853C417.507 281.729 417.26 281.587 417.024 281.426C416.877 281.341 416.746 281.233 416.635 281.105C416.555 281.012 416.508 280.895 416.501 280.773C416.494 280.65 416.528 280.529 416.597 280.427C416.665 280.341 416.752 280.271 416.851 280.224C416.95 280.176 417.058 280.151 417.168 280.151C417.335 280.155 417.499 280.183 417.658 280.233C417.935 280.311 418.204 280.414 418.462 280.54C418.9 280.75 419.301 281.03 419.649 281.369C420.239 281.947 420.428 282.431 420.384 282.456C420.34 282.481 420.045 282.085 419.442 281.602C419.089 281.324 418.703 281.091 418.292 280.911C418.05 280.806 417.8 280.72 417.545 280.653C417.269 280.578 417.036 280.565 416.961 280.685C416.886 280.804 416.93 280.754 416.961 280.835C417.043 280.926 417.139 281.005 417.244 281.068C417.837 281.477 418.489 281.795 419.178 282.01C419.604 282.098 420.024 282.215 420.434 282.361Z" fill="#263238"/>
<path d="M420.258 282.537C420.027 282.161 419.92 281.722 419.95 281.281C419.944 280.795 420.021 280.31 420.176 279.849C420.268 279.576 420.388 279.313 420.534 279.064C420.611 278.895 420.73 278.748 420.879 278.638C421.029 278.528 421.204 278.459 421.388 278.436C421.504 278.445 421.615 278.485 421.709 278.553C421.804 278.62 421.877 278.713 421.922 278.819C421.986 278.974 422.026 279.137 422.042 279.303C422.086 279.594 422.086 279.891 422.042 280.182C421.946 280.673 421.73 281.133 421.414 281.52C420.88 282.186 420.34 282.317 420.333 282.274C420.327 282.23 420.742 281.978 421.156 281.338C421.391 280.968 421.545 280.553 421.608 280.119C421.643 279.869 421.643 279.616 421.608 279.366C421.571 279.083 421.476 278.857 421.37 278.882C421.263 278.907 421.012 279.077 420.899 279.297C420.764 279.519 420.648 279.752 420.553 279.994C420.397 280.412 420.297 280.849 420.258 281.294C420.208 282.035 420.327 282.518 420.258 282.537Z" fill="#263238"/>
<path d="M406.58 285.847L385.379 181.8L379.03 286.217L379.011 286.531L361.119 286.217L363.995 157.509L403.861 157.207L423.128 285.633" fill="#222D6B"/>
<path d="M366.287 169.051C366.632 169.203 367.004 169.282 367.38 169.284C369.204 169.419 371.016 168.9 372.492 167.821C372.809 167.62 373.083 167.358 373.296 167.048C371.28 168.544 368.789 169.256 366.287 169.051Z" fill="#455A64"/>
<path d="M324.783 108.732L349.696 116.004L363.65 107.765L374.238 120.325L354.487 128.878C353.091 129.483 351.579 129.77 350.059 129.72C348.538 129.67 347.048 129.284 345.695 128.589L321.203 116.029L324.783 108.732Z" fill="#FFBE9D"/>
<path d="M319.1 106.333L316.016 104.732L307.438 100.267C307.285 100.205 307.116 100.193 306.956 100.231C306.795 100.27 306.651 100.357 306.542 100.481C306.433 100.605 306.365 100.76 306.348 100.924C306.331 101.088 306.365 101.253 306.446 101.397L311.916 105.894L309.605 106.76C309.149 106.935 308.776 107.273 308.556 107.708L307.344 110.126C307.344 110.126 305.95 110.277 305.811 111.175C305.673 112.073 306.716 112.393 306.716 112.393L306.452 113.448C306.392 113.692 306.384 113.945 306.428 114.192C306.472 114.438 306.568 114.673 306.709 114.88C308.035 115.427 309.09 112.645 309.09 112.645L310.509 112.795L312.054 115.935C314.019 116.413 313.09 113.31 313.09 113.31L313.957 113.53C314.823 113.744 315.275 114.359 316.626 115.05C317.976 115.741 320.62 115.985 320.62 115.985L322.579 117.43L327.069 109.567L319.1 106.333Z" fill="#FFBE9D"/>
<path d="M313.316 113.354C313.316 113.386 312.631 113.266 311.47 113.097C310.308 112.927 308.662 112.714 306.728 112.55H306.76C306.581 112.551 306.405 112.507 306.247 112.423C306.09 112.339 305.956 112.217 305.857 112.068C305.758 111.92 305.697 111.749 305.68 111.571C305.664 111.393 305.692 111.214 305.761 111.049C305.915 110.731 306.147 110.458 306.436 110.254C306.725 110.051 307.061 109.925 307.413 109.888C308.154 109.768 308.832 109.731 309.498 109.611C310.163 109.492 310.804 109.373 311.382 109.216C311.959 109.059 312.55 108.895 313.071 108.72C313.312 108.654 313.537 108.539 313.73 108.38C313.808 108.318 313.863 108.232 313.887 108.136C313.911 108.039 313.902 107.938 313.862 107.847C313.762 107.662 313.628 107.498 313.467 107.363L313.046 106.936C312.782 106.666 312.556 106.446 312.361 106.27C311.972 105.925 311.733 105.78 311.733 105.755C311.996 105.85 312.239 105.993 312.449 106.176C312.703 106.372 312.946 106.582 313.178 106.804L313.617 107.212C313.808 107.358 313.966 107.542 314.082 107.752C314.143 107.888 314.159 108.041 314.128 108.186C314.096 108.332 314.018 108.464 313.906 108.563C313.693 108.754 313.44 108.896 313.165 108.977C312.638 109.165 312.073 109.348 311.463 109.511C310.854 109.674 310.207 109.812 309.542 109.925C308.876 110.038 308.148 110.095 307.463 110.208C307.166 110.234 306.88 110.335 306.633 110.502C306.385 110.669 306.185 110.896 306.05 111.162C305.999 111.277 305.976 111.401 305.984 111.526C305.992 111.651 306.03 111.772 306.095 111.879C306.16 111.985 306.249 112.075 306.356 112.139C306.464 112.204 306.585 112.241 306.709 112.249C308.656 112.437 310.302 112.688 311.457 112.915C312.035 113.028 312.493 113.128 312.801 113.21C312.979 113.229 313.153 113.278 313.316 113.354Z" fill="#CE8E72"/>
<path d="M313.089 108.952C312.572 109.179 312.002 109.255 311.444 109.172C311.152 109.16 310.862 109.123 310.577 109.058L310.728 108.971C310.54 109.398 310.389 109.668 310.332 109.649C310.276 109.63 310.332 109.322 310.464 108.876L310.496 108.776H310.615L311.463 108.832C312.008 108.816 312.553 108.856 313.089 108.952Z" fill="#CE8E72"/>
<path d="M369.333 98.6401L353.281 110.955L364.535 125.776L378.263 117.983L369.333 98.6401Z" fill="#FF4D4D"/>
<path d="M369.333 98.6401C371.656 97.2145 379.688 95.4498 379.688 95.4498L395.225 93.7605L408.702 99.9463L403.175 123.138L408.024 166.866L361.771 169.378L369.333 98.6401Z" fill="#FF4D4D"/>
<path d="M367.38 112.06C367.191 110.883 367.114 109.691 367.148 108.5C367.076 107.31 367.11 106.116 367.248 104.933C367.436 106.11 367.514 107.302 367.481 108.493C367.552 109.683 367.519 110.877 367.38 112.06Z" fill="#E03A3A"/>
<path d="M396.538 72.4775L394.837 96.5613C394.696 98.453 393.847 100.222 392.46 101.515C391.072 102.809 389.248 103.531 387.351 103.538C386.325 103.534 385.31 103.321 384.369 102.911C383.428 102.501 382.581 101.903 381.88 101.154C381.178 100.404 380.637 99.5199 380.29 98.5542C379.942 97.5885 379.796 96.5621 379.859 95.5377C380.01 93.2455 380.141 91.3741 380.141 91.3741C380.141 91.3741 374.314 90.4635 374.245 84.6356C374.201 81.2695 374.785 73.6268 375.281 67.7801C375.441 65.871 376.314 64.0921 377.725 62.7962C379.136 61.5003 380.983 60.7822 382.898 60.7842H386.421C387.86 60.8687 389.268 61.2406 390.56 61.878C391.853 62.5155 393.005 63.4054 393.948 64.4954C394.891 65.5854 395.606 66.8534 396.051 68.2243C396.496 69.5953 396.662 71.0415 396.538 72.4775Z" fill="#FFBE9D"/>
<path d="M380.136 91.2863C382.827 91.3376 385.473 90.5854 387.734 89.126C387.734 89.126 385.938 93.321 380.123 92.7998L380.136 91.2863Z" fill="#EB996E"/>
<path d="M376.467 75.1403C376.463 75.357 376.545 75.5664 376.694 75.7237C376.843 75.881 377.048 75.9736 377.264 75.9818C377.37 75.9912 377.477 75.9792 377.578 75.9464C377.68 75.9136 377.773 75.8608 377.853 75.791C377.934 75.7213 377.999 75.636 378.046 75.5404C378.092 75.4448 378.119 75.3407 378.125 75.2345C378.127 75.0172 378.044 74.8078 377.894 74.6507C377.743 74.4936 377.538 74.4011 377.321 74.393C377.216 74.3844 377.109 74.3971 377.009 74.4303C376.908 74.4635 376.816 74.5165 376.736 74.5862C376.656 74.6558 376.592 74.7408 376.545 74.836C376.499 74.9311 376.472 75.0346 376.467 75.1403Z" fill="#263238"/>
<path d="M385.078 75.1465C385.076 75.3632 385.16 75.5719 385.31 75.728C385.46 75.8841 385.665 75.9752 385.882 75.9818C385.987 75.9903 386.094 75.9776 386.194 75.9444C386.295 75.9113 386.387 75.8583 386.467 75.7886C386.547 75.7189 386.611 75.634 386.658 75.5388C386.704 75.4436 386.731 75.3401 386.736 75.2345C386.738 75.0182 386.656 74.8097 386.507 74.6528C386.358 74.4958 386.155 74.4027 385.939 74.3929C385.832 74.3844 385.725 74.3973 385.624 74.4308C385.523 74.4643 385.429 74.5177 385.349 74.588C385.269 74.6582 385.204 74.7439 385.157 74.8398C385.111 74.9358 385.084 75.0401 385.078 75.1465Z" fill="#263238"/>
<path d="M382.333 72.7476C382.233 72.7099 381.385 74.6881 380.449 77.1436C380.223 77.7716 380.003 78.3431 379.821 78.8957C379.676 79.1712 379.633 79.4898 379.702 79.7938C379.736 79.8747 379.787 79.9472 379.852 80.0058C379.917 80.0645 379.995 80.1079 380.079 80.1329C380.206 80.1662 380.337 80.1831 380.468 80.1831C380.956 80.2509 381.45 80.2509 381.938 80.1831C381.467 80.0377 380.979 79.9512 380.487 79.9256C380.255 79.9256 380.041 79.8566 380.003 79.6996C379.98 79.4632 380.033 79.2256 380.154 79.0213" fill="#CE8E72"/>
<path d="M384.858 70.6815C384.946 70.9265 385.838 70.8134 386.893 70.939C387.948 71.0646 388.777 71.3535 388.934 71.1337C388.997 71.0269 388.846 70.8009 388.501 70.5622C388.043 70.2734 387.526 70.0928 386.989 70.034C386.451 69.9752 385.907 70.0399 385.398 70.2231C385.015 70.3738 384.82 70.5685 384.858 70.6815Z" fill="#1B4DED"/>
<path d="M376.292 71.8622C376.449 72.0694 377.071 71.8622 377.812 71.8622C378.553 71.8622 379.181 71.9941 379.325 71.7805C379.388 71.6801 379.288 71.4791 379.018 71.2844C378.649 71.0538 378.22 70.9378 377.785 70.9512C377.35 70.9647 376.929 71.1068 376.575 71.3598C376.311 71.5544 376.223 71.768 376.292 71.8622Z" fill="#1B4DED"/>
<path d="M394.574 76.8548C394.674 76.8108 398.58 75.6679 398.455 79.6557C398.329 83.6435 394.348 82.6889 394.348 82.5759C394.348 82.4628 394.574 76.8548 394.574 76.8548Z" fill="#FFBE9D"/>
<path d="M396.789 76.7166C396.41 76.6917 396.032 76.7703 395.695 76.944C395.357 77.1177 395.073 77.3799 394.874 77.7026C394.61 78.2741 394.553 78.9146 394.296 79.4861C394.194 79.7823 393.995 80.0358 393.732 80.2064C393.47 80.3771 393.157 80.4551 392.845 80.4281C392.64 80.3603 392.457 80.2408 392.312 80.0814C392.166 79.9219 392.065 79.7277 392.016 79.5175C391.931 79.0925 391.931 78.655 392.016 78.2301C392.249 76.3461 392.644 74.5249 392.72 72.6535C392.871 70.7699 392.46 68.8838 391.539 67.2338C391.071 66.417 390.391 65.742 389.57 65.2799C388.75 64.8178 387.82 64.5859 386.879 64.6088C385.623 64.7092 384.505 65.3561 383.274 65.5319C382.542 65.6267 381.798 65.5544 381.097 65.3206C380.397 65.0868 379.759 64.6974 379.23 64.1817C378.99 63.9855 378.738 63.8031 378.477 63.6354C378.488 63.1851 378.632 62.7482 378.891 62.3794C381.334 60.1186 385.73 59.4906 388.939 60.3007C390.578 60.7044 392.11 61.4602 393.427 62.5154C394.745 63.5705 395.817 64.8999 396.569 66.4111C397.957 69.4318 397.549 73.6394 396.783 76.6915" fill="#1B4DED"/>
<path d="M375.211 66.8758C375.211 66.8758 390.503 61.9586 397.122 75.1906C397.122 75.1906 398.108 71.8747 398.108 70.1037C398.108 68.9168 397.398 61.8581 390.139 59.635C390.139 59.6601 379.192 55.4588 375.211 66.8758Z" fill="#FF4D4D"/>
<path d="M388.355 67.1961C388.084 67.6342 387.714 68.0033 387.276 68.2742C386.838 68.5452 386.342 68.7106 385.829 68.7575C385.316 68.8044 384.799 68.7314 384.318 68.5444C383.838 68.3573 383.408 68.0613 383.061 67.6796C382.908 68.0589 382.64 68.3808 382.295 68.6006C381.95 68.8203 381.545 68.9269 381.136 68.9054C380.728 68.884 380.336 68.7356 380.016 68.481C379.696 68.2264 379.463 67.8782 379.35 67.485C378.935 67.9472 378.428 68.3173 377.862 68.5714C377.576 68.6916 377.261 68.7218 376.958 68.6578C376.655 68.5938 376.378 68.4388 376.166 68.2135C375.994 67.9485 375.911 67.6352 375.93 67.3198C375.95 67.0044 376.07 66.7035 376.273 66.4613C376.686 65.9828 377.219 65.623 377.818 65.4188C379.63 64.6215 381.621 64.3181 383.589 64.5396C385.567 64.7762 387.379 65.763 388.651 67.2966" fill="#1B4DED"/>
<g opacity="0.2">
<path opacity="0.2" d="M375.211 66.8758C376.486 65.5384 378.231 64.7481 380.078 64.6715C384.587 64.4706 393.027 67.0077 397.122 75.1906C397.122 75.1906 398.108 71.8747 398.108 70.1037C398.108 68.9168 397.398 61.8581 390.139 59.635C390.139 59.6601 379.192 55.4588 375.211 66.8758Z" fill="black"/>
</g>
<path d="M396.483 73.6393C394.163 70.1848 391.123 67.2733 387.571 65.1047C384.061 62.9067 378.246 60.7087 374.239 59.6725C373.053 59.2841 371.799 59.1535 370.559 59.2895C369.938 59.3707 369.352 59.6253 368.869 60.024C368.386 60.4228 368.025 60.9495 367.827 61.544C367.45 63.0512 370.126 65.3811 371.388 66.2979C372.621 67.1203 373.897 67.8751 375.212 68.5587C375.212 68.5587 375.181 65.7579 379.665 65.1801C385.763 64.3763 396.483 73.6393 396.483 73.6393Z" fill="#FF4D4D"/>
<path d="M377.805 84.1521H384.851C384.797 85.0501 384.403 85.8937 383.748 86.5106C383.093 87.1275 382.227 87.471 381.328 87.471C380.428 87.471 379.563 87.1275 378.908 86.5106C378.253 85.8937 377.858 85.0501 377.805 84.1521Z" fill="white"/>
<path d="M315.1 162.439V111.514H385.932V162.439L348.39 162.753L315.1 162.439Z" fill="#42D2B2"/>
<g opacity="0.2">
<path opacity="0.2" d="M385.938 111.514H315.1V162.439H385.938V111.514Z" fill="black"/>
</g>
<path d="M348.39 162.753L315.1 162.439V111.514H348.283L348.39 162.753Z" fill="#42D2B2"/>
<path d="M333.048 111.514H328.633V120.35H333.048V111.514Z" fill="#222D6B"/>
<path d="M402.511 123.207L403.974 135.058L381.994 148.101L385.41 155.637L410.392 145.545C413.419 144.007 416.007 141.733 415.793 138.33L414.594 121.744L402.511 123.207Z" fill="#FFBE9D"/>
<path d="M408.703 99.9463C410.839 101.779 412.258 104.308 412.709 107.087C413.551 111.677 416.408 124.514 416.408 124.514L401.336 126.297V122.768C401.336 122.718 399.93 116.149 399.93 116.149L402.737 107.087L408.703 99.9463Z" fill="#FF4D4D"/>
<path d="M415.812 124.57C415.474 124.658 415.129 124.719 414.782 124.752L411.962 125.142C409.582 125.456 406.31 125.87 402.642 126.304L401.386 126.454H401.217V126.278C400.966 122.919 400.689 119.936 400.488 117.788C400.388 116.758 400.306 115.904 400.243 115.276C400.199 114.968 400.18 114.657 400.187 114.346C400.274 114.646 400.333 114.953 400.363 115.263C400.457 115.854 400.57 116.714 400.708 117.775C400.966 119.917 401.286 122.906 401.543 126.272L401.361 126.121L402.617 125.971C406.26 125.531 409.525 125.154 411.949 124.903L414.782 124.614C415.123 124.571 415.468 124.556 415.812 124.57Z" fill="#E03A3A"/>
<path d="M382 148.101L378.86 149.646L377.02 148.39L369.974 147.951L365.578 148.924L365.452 149.175C365.452 151.568 369.98 150.626 371.368 151.003C372.756 151.38 371.493 154.337 371.493 154.337C371.493 154.337 365.264 162.457 364.177 164.385C363.637 165.359 363.813 165.893 364.127 166.188C364.289 166.327 364.494 166.407 364.707 166.414C364.921 166.421 365.131 166.354 365.301 166.225L367.6 164.599C367.6 164.599 373.93 164.969 374.363 164.756C374.965 164.303 375.485 163.751 375.902 163.123C379.136 160.096 381.95 157.471 385.404 155.587L382 148.101Z" fill="#FFBE9D"/>
<path d="M373.579 159.142C372.668 160.138 371.697 161.077 370.672 161.955C369.849 162.715 369.095 163.393 368.549 163.877C368.268 164.16 367.954 164.409 367.613 164.618C368.463 163.563 369.412 162.591 370.446 161.716C371.4 160.754 372.45 159.892 373.579 159.142Z" fill="#CE8E72"/>
<path d="M375.494 160.712C375.004 161.539 374.387 162.285 373.667 162.922C373.031 163.643 372.303 164.277 371.5 164.806C372.075 164.042 372.723 163.336 373.434 162.696C374.071 161.985 374.76 161.322 375.494 160.712Z" fill="#CE8E72"/>
<path d="M79.3534 281.25C79.8809 279.209 78.5433 277.155 77.0424 275.673C75.5414 274.191 73.7454 272.866 72.9667 270.907C71.7107 267.729 73.4 263.622 71.2397 260.972C69.9837 259.414 67.6915 258.893 66.5673 257.204C66.0478 256.285 65.7029 255.278 65.55 254.233C64.3463 248.954 61.7431 244.097 58.014 240.172C57.7628 244.872 58.7801 249.553 60.9593 253.724C61.8385 255.389 62.9124 257.009 63.2013 258.868C63.6723 261.882 61.9829 264.991 62.724 267.955C63.5718 271.346 67.3837 273.607 67.5596 277.099C67.7166 280.05 65.1418 282.638 65.3365 285.583C65.4911 286.836 65.9409 288.035 66.649 289.081C68.9286 292.849 72.301 295.48 77.325 295.399L83.5422 295.612L79.3534 281.25Z" fill="#1B4DED"/>
<path d="M84.584 276.822C83.2464 274.31 84.3517 271.17 85.84 268.765C87.3284 266.36 89.2752 264.024 89.6771 261.229C90.3051 256.657 86.782 251.809 88.7791 247.633C89.9472 245.177 92.7732 243.771 93.7277 241.227C94.2238 239.89 94.1359 238.42 94.1108 236.995C94.0079 229.683 95.871 222.478 99.5053 216.132C101.332 222.226 101.484 228.699 99.9449 234.872C99.3169 237.34 98.4377 239.814 98.645 242.345C98.9904 246.459 102.193 250.007 102.162 254.133C102.124 258.855 97.8474 263.044 98.7203 267.685C99.4614 271.61 103.656 274.191 104.372 278.122C104.564 279.823 104.348 281.545 103.744 283.146C101.955 288.849 98.3875 293.345 91.6867 294.852L83.5918 295.857L84.584 276.822Z" fill="#A3DEEA"/>
<path d="M85.9541 295.819C90.0173 293.408 91.1791 286.079 89.4897 281.671C87.8004 277.262 84.8237 273.23 84.3715 268.526C84.0199 264.909 85.2005 261.204 84.3715 257.668C83.2349 252.902 78.5814 249.203 78.6316 244.305C78.6316 241.554 80.2267 238.967 80.1074 236.216C79.9504 232.85 77.3631 230.175 75.7617 227.204C73.3125 222.664 73.1492 217.288 72.3139 212.195C71.4787 207.102 69.5319 201.645 65.0166 199.139C64.3509 203.466 63.2079 206.43 63.5659 212.289C63.6978 214.393 66.1407 218.418 66.4735 223.034C66.6745 225.791 66.8127 228.548 66.9759 231.311C67.1392 234.074 67.3151 236.725 68.2759 239.237C69.0169 241.165 70.2039 242.91 70.7502 244.889C71.7801 248.625 70.4237 252.676 71.2589 256.463C71.9623 259.672 74.1854 262.435 74.6375 265.688C75.2655 270.26 72.3139 275.007 73.8274 279.372C74.581 281.532 76.3394 283.272 76.8669 285.508C77.2563 287.241 76.8293 289.075 77.1872 290.814C77.7587 293.621 83.1093 295.801 85.9792 295.625" fill="url(#paint0_linear_519:65380)"/>
<path d="M66.1215 203.434C66.1132 203.516 66.1132 203.598 66.1215 203.679C66.1215 203.861 66.1717 204.094 66.2094 204.389C66.3036 205.017 66.4103 205.927 66.6239 207.114C66.8374 208.301 67.4654 209.626 67.9552 211.272C68.4451 212.917 68.9852 214.751 69.4436 216.836C69.902 218.921 70.2977 221.232 70.6996 223.706C71.1015 226.18 71.5537 228.893 72.7846 231.475C73.356 232.774 73.9903 234.074 74.4739 235.456C74.941 236.88 75.2279 238.357 75.3279 239.852C75.5582 243.026 75.9564 246.185 76.5211 249.316C77.7771 255.728 78.9515 261.832 80.0254 267.384C81.0993 272.935 82.1857 277.909 83.0524 282.104C83.919 286.299 84.6286 289.64 85.1248 292.02C85.3697 293.169 85.5644 294.074 85.7025 294.714C85.7716 295.003 85.8281 295.235 85.8658 295.411C85.8781 295.491 85.9013 295.57 85.9349 295.644C85.9446 295.564 85.9446 295.484 85.9349 295.405C85.9035 295.223 85.8595 294.99 85.8093 294.695C85.69 294.067 85.5204 293.144 85.3006 291.989C84.8359 289.615 84.1702 286.224 83.3538 282.047C82.5374 277.871 81.52 272.853 80.4148 267.314L76.9419 249.247C76.3753 246.13 75.9749 242.986 75.7424 239.827C75.6381 238.305 75.3405 236.802 74.8569 235.356C74.3608 233.936 73.714 232.636 73.1425 231.349C71.9242 228.799 71.4909 226.143 71.0513 223.668C70.6117 221.194 70.2286 218.877 69.745 216.792C69.2615 214.707 68.7339 212.835 68.1939 211.222C67.6538 209.608 67.0446 208.264 66.7997 207.102C66.5548 205.94 66.4355 205.011 66.3161 204.395C66.2596 204.1 66.2219 203.868 66.1843 203.692C66.1734 203.604 66.1524 203.517 66.1215 203.434Z" fill="#FAFAFA"/>
<path d="M298.194 87.4866H278.01V115.778H298.194V87.4866Z" fill="#455A64"/>
<path d="M298.194 87.4866H278.01V90.7647H298.194V87.4866Z" fill="#222D6B"/>
<path d="M298.194 112.5H278.01V115.778H298.194V112.5Z" fill="#222D6B"/>
<path d="M294.212 92.7808H281.947V99.1738H294.212V92.7808Z" fill="#222D6B"/>
<path d="M290.985 95.9773C290.953 95.9773 290.953 95.7198 290.834 95.2928C290.654 94.6861 290.282 94.1546 289.772 93.7793C289.364 93.4744 288.879 93.2889 288.371 93.2437C287.863 93.1985 287.353 93.2953 286.897 93.5233C286.441 93.7513 286.057 94.1015 285.789 94.5348C285.52 94.9681 285.378 95.4675 285.376 95.9773C285.378 96.535 285.55 97.079 285.868 97.5367C286.187 97.9945 286.638 98.3443 287.16 98.5395C287.591 98.6997 288.054 98.7503 288.509 98.6867C288.964 98.6231 289.396 98.4474 289.766 98.1753C290.27 97.799 290.64 97.2706 290.821 96.6681C290.941 96.2348 290.941 95.9773 290.972 95.9773C291.003 95.9773 290.972 96.0401 290.972 96.1657C290.976 96.3453 290.957 96.5247 290.915 96.6995C290.775 97.3566 290.408 97.9434 289.879 98.3574C289.484 98.6705 289.015 98.8775 288.517 98.9589C288.019 99.0402 287.509 98.9931 287.034 98.8221C286.448 98.6126 285.94 98.2268 285.581 97.7175C285.222 97.2082 285.029 96.6004 285.029 95.9773C285.029 95.3542 285.222 94.7464 285.581 94.2371C285.94 93.7278 286.448 93.3419 287.034 93.1324C287.509 92.9644 288.019 92.9189 288.516 93.0001C289.014 93.0814 289.482 93.2867 289.879 93.5972C290.41 94.0123 290.777 94.6018 290.915 95.2614C290.957 95.4361 290.976 95.6155 290.972 95.7952C291.003 95.9145 290.997 95.9773 290.985 95.9773Z" fill="#455A64"/>
<path d="M283.361 101.635C283.361 101.73 283.333 101.822 283.28 101.901C283.228 101.979 283.153 102.04 283.066 102.076C282.979 102.113 282.883 102.122 282.79 102.104C282.698 102.085 282.613 102.04 282.546 101.973C282.479 101.906 282.434 101.821 282.415 101.729C282.397 101.636 282.406 101.54 282.443 101.453C282.479 101.366 282.54 101.291 282.618 101.239C282.697 101.186 282.789 101.158 282.884 101.158C283.01 101.158 283.131 101.208 283.221 101.298C283.31 101.388 283.361 101.509 283.361 101.635Z" fill="#222D6B"/>
<path d="M286.958 101.635C286.958 101.73 286.931 101.822 286.878 101.901C286.826 101.979 286.751 102.04 286.664 102.076C286.577 102.113 286.481 102.122 286.388 102.104C286.296 102.085 286.21 102.04 286.144 101.973C286.077 101.906 286.031 101.821 286.013 101.729C285.995 101.636 286.004 101.54 286.04 101.453C286.076 101.366 286.138 101.291 286.216 101.239C286.295 101.186 286.387 101.158 286.481 101.158C286.608 101.158 286.729 101.208 286.819 101.298C286.908 101.388 286.958 101.509 286.958 101.635Z" fill="#222D6B"/>
<path d="M290.556 101.635C290.556 101.76 290.507 101.88 290.418 101.968C290.33 102.057 290.21 102.106 290.085 102.106C289.99 102.108 289.897 102.081 289.818 102.029C289.738 101.977 289.676 101.902 289.639 101.815C289.602 101.727 289.592 101.631 289.61 101.538C289.629 101.444 289.674 101.359 289.741 101.292C289.808 101.225 289.894 101.179 289.987 101.161C290.08 101.143 290.177 101.152 290.264 101.189C290.352 101.226 290.426 101.288 290.478 101.368C290.53 101.447 290.557 101.54 290.556 101.635Z" fill="#222D6B"/>
<path d="M282.884 105.158C283.147 105.158 283.361 104.945 283.361 104.681C283.361 104.418 283.147 104.204 282.884 104.204C282.62 104.204 282.406 104.418 282.406 104.681C282.406 104.945 282.62 105.158 282.884 105.158Z" fill="#222D6B"/>
<path d="M286.958 104.681C286.958 104.776 286.931 104.868 286.878 104.946C286.826 105.025 286.751 105.086 286.664 105.122C286.577 105.158 286.481 105.168 286.388 105.149C286.296 105.131 286.21 105.085 286.144 105.019C286.077 104.952 286.031 104.867 286.013 104.774C285.995 104.682 286.004 104.586 286.04 104.498C286.076 104.411 286.138 104.337 286.216 104.284C286.295 104.232 286.387 104.204 286.481 104.204C286.608 104.204 286.729 104.254 286.819 104.344C286.908 104.433 286.958 104.555 286.958 104.681Z" fill="#222D6B"/>
<path d="M290.087 105.158C290.35 105.158 290.564 104.945 290.564 104.681C290.564 104.418 290.35 104.204 290.087 104.204C289.823 104.204 289.609 104.418 289.609 104.681C289.609 104.945 289.823 105.158 290.087 105.158Z" fill="#222D6B"/>
<path d="M282.884 108.211C283.147 108.211 283.361 107.997 283.361 107.733C283.361 107.47 283.147 107.256 282.884 107.256C282.62 107.256 282.406 107.47 282.406 107.733C282.406 107.997 282.62 108.211 282.884 108.211Z" fill="#222D6B"/>
<path d="M286.958 107.733C286.958 107.828 286.931 107.92 286.878 107.999C286.826 108.077 286.751 108.138 286.664 108.174C286.577 108.21 286.481 108.22 286.388 108.201C286.296 108.183 286.21 108.138 286.144 108.071C286.077 108.004 286.031 107.919 286.013 107.826C285.995 107.734 286.004 107.638 286.04 107.551C286.076 107.464 286.138 107.389 286.216 107.337C286.295 107.284 286.387 107.256 286.481 107.256C286.608 107.256 286.729 107.306 286.819 107.396C286.908 107.485 286.958 107.607 286.958 107.733Z" fill="#222D6B"/>
<path d="M290.087 108.211C290.35 108.211 290.564 107.997 290.564 107.733C290.564 107.47 290.35 107.256 290.087 107.256C289.823 107.256 289.609 107.47 289.609 107.733C289.609 107.997 289.823 108.211 290.087 108.211Z" fill="#222D6B"/>
<path d="M293.829 106.408C294.782 106.408 295.556 105.635 295.556 104.681C295.556 103.728 294.782 102.954 293.829 102.954C292.875 102.954 292.102 103.728 292.102 104.681C292.102 105.635 292.875 106.408 293.829 106.408Z" fill="#42D2B2"/>
<path d="M269.394 23.8765H257.713V295.637H269.394V23.8765Z" fill="#4C60A5"/>
<path d="M257.712 35.3438H141.4V295.643H257.712V35.3438Z" fill="#A0ABE9"/>
<path d="M144.66 23.8765H133.896V295.637H144.66V23.8765Z" fill="#4C60A5"/>
<path d="M269.394 23.8765H133.896V35.3437H269.394V23.8765Z" fill="#4C60A5"/>
<path d="M269.413 23.864C269.413 23.864 269.274 24.0461 268.979 24.3225L267.723 25.478L263.534 29.246C261.914 30.7343 260.464 32.1034 259.471 33.1459C259.074 33.5404 258.703 33.9599 258.36 34.4019C258.272 34.5243 258.192 34.6523 258.121 34.7849C258.09 34.8791 258.071 34.9357 258.058 34.9357C258.046 34.9357 258.058 34.8791 258.058 34.7661C258.104 34.6138 258.17 34.4681 258.253 34.3328C258.559 33.8449 258.911 33.3866 259.302 32.9637C260.571 31.5678 261.911 30.2368 263.315 28.9759C264.947 27.4876 266.455 26.1813 267.573 25.2582C268.125 24.7935 268.584 24.4292 268.904 24.178C269.062 24.0557 269.232 23.9505 269.413 23.864Z" fill="#455A64"/>
<path d="M144.66 35.5825C144.597 35.6391 142.148 33.0705 139.158 29.8426C136.169 26.6147 133.833 23.9394 133.896 23.8766C133.959 23.8138 136.408 26.3886 139.397 29.6165C142.386 32.8445 144.729 35.5197 144.66 35.5825Z" fill="#455A64"/>
<path d="M151.787 153.785H151.46C149.389 153.785 147.711 155.463 147.711 157.534V184.802C147.711 186.872 149.389 188.551 151.46 188.551H151.787C153.857 188.551 155.536 186.872 155.536 184.802V157.534C155.536 155.463 153.857 153.785 151.787 153.785Z" fill="#263238"/>
<path d="M153.232 180.01C153.237 179.771 153.177 179.536 153.059 179.328C152.941 179.121 152.769 178.949 152.562 178.831C152.354 178.713 152.119 178.653 151.88 178.658C151.642 178.663 151.409 178.732 151.206 178.859C151.004 178.985 150.839 179.163 150.729 179.376C150.62 179.588 150.57 179.825 150.584 180.064C150.599 180.302 150.678 180.532 150.812 180.729C150.946 180.926 151.132 181.084 151.348 181.184V182.748C151.348 182.905 151.41 183.055 151.521 183.165C151.632 183.276 151.782 183.338 151.938 183.338C152.016 183.339 152.094 183.325 152.166 183.295C152.238 183.266 152.304 183.223 152.36 183.168C152.415 183.113 152.459 183.047 152.489 182.975C152.519 182.903 152.535 182.826 152.535 182.748V181.216C152.752 181.099 152.931 180.925 153.055 180.712C153.178 180.499 153.239 180.256 153.232 180.01Z" fill="#455A64"/>
<path d="M171.079 165.491H153.514C152.415 165.491 151.523 166.382 151.523 167.481V167.657C151.523 168.757 152.415 169.648 153.514 169.648H171.079C172.179 169.648 173.07 168.757 173.07 167.657V167.481C173.07 166.382 172.179 165.491 171.079 165.491Z" fill="#263238"/>
<path d="M159.354 169.767C159.137 169.813 158.916 169.832 158.695 169.824L156.911 169.899C156.023 169.945 155.132 169.915 154.248 169.811C153.717 169.75 153.195 169.619 152.697 169.422C152.138 169.205 151.665 168.812 151.347 168.304C151.199 168.036 151.114 167.737 151.1 167.431C151.086 167.125 151.142 166.82 151.265 166.539C151.393 166.275 151.599 166.055 151.856 165.911C152.089 165.782 152.335 165.679 152.59 165.604C153.455 165.354 154.354 165.248 155.253 165.29C156.007 165.29 156.616 165.327 157.037 165.352C157.248 165.353 157.459 165.376 157.665 165.422C156.855 165.502 156.041 165.533 155.228 165.516C154.358 165.512 153.493 165.637 152.66 165.886C152.425 165.934 152.202 166.03 152.008 166.17C151.813 166.31 151.65 166.489 151.529 166.696C151.429 166.931 151.385 167.186 151.399 167.441C151.413 167.695 151.485 167.944 151.611 168.166C151.883 168.619 152.295 168.972 152.785 169.171C153.253 169.364 153.746 169.493 154.248 169.554C155.116 169.67 155.991 169.725 156.867 169.717C157.696 169.658 158.528 169.675 159.354 169.767Z" fill="#455A64"/>
<path d="M310.025 240.266H232.994V295.644H310.025V240.266Z" fill="#FFE001"/>
<path d="M253.655 240.266C253.762 240.266 253.655 251.96 253.655 251.96H247.953V240.266H253.655Z" fill="#263238"/>
<g opacity="0.2">
<path opacity="0.2" d="M271.51 295.644H310.025V240.267H271.51V295.644Z" fill="black"/>
</g>
<defs>
<linearGradient id="paint0_linear_519:65380" x1="63.4843" y1="247.482" x2="90.2371" y2="247.482" gradientUnits="userSpaceOnUse">
<stop stop-color="#87F0B2"/>
<stop offset="1" stop-color="#3ACFB2"/>
</linearGradient>
</defs>
</svg>
