<svg width="327" height="135" viewBox="0 0 327 135" fill="none" xmlns="http://www.w3.org/2000/svg">
    <g clip-path="url(#clip0_4_16159)">
        <path fill-rule="evenodd" clip-rule="evenodd" d="M23.6682 141.24C23.7206 141.107 23.8325 141.004 23.9467 140.917C24.7259 140.307 25.7411 140.093 26.7255 139.99C28.8761 139.761 31.071 139.978 33.1386 140.615C30.7319 138.79 28.5301 136.697 26.6309 134.351L26.6115 134.335C24.8058 134.946 22.8059 134.784 20.9081 134.487C19.347 134.243 17.6523 133.831 16.7145 132.561C16.5149 132.291 16.3585 131.912 16.5478 131.635C16.6293 131.516 16.7572 131.441 16.889 131.378C17.7807 130.949 18.8183 130.956 19.8029 131.065C21.7665 131.28 23.6888 131.867 25.4406 132.778C24.098 130.874 23.0033 128.854 22.0488 126.761L21.92 126.592C21.9176 126.561 21.9169 126.529 21.9144 126.499C20.0543 126.738 18.1492 126.214 16.3683 125.582C14.8785 125.054 13.2909 124.336 12.6045 122.912C12.4582 122.61 12.3774 122.209 12.6123 121.97C12.7132 121.867 12.8539 121.818 12.9942 121.779C13.9502 121.523 14.968 121.722 15.9158 122.01C17.8282 122.591 19.6274 123.539 21.1935 124.779C20.6684 123.501 20.1791 122.202 19.7036 120.887L19.6931 120.884C18.206 119.433 17.5152 117.366 17.0103 115.353C16.6259 113.822 16.348 112.103 17.1557 110.746C17.3263 110.458 17.6166 110.167 17.9462 110.234C18.0873 110.262 18.2064 110.352 18.3164 110.447C19.0591 111.102 19.4553 112.06 19.739 113.007C20.4452 115.37 20.5898 117.898 20.1673 120.327C20.7368 121.908 21.3237 123.471 21.9693 124.998C22.1769 123.488 22.8099 122.024 23.5019 120.648C24.211 119.239 25.124 117.755 26.6228 117.253C26.942 117.146 27.3494 117.116 27.5568 117.378C27.6463 117.491 27.677 117.639 27.6978 117.781C27.8325 118.762 27.5078 119.745 27.1034 120.648C26.0919 122.906 24.544 124.921 22.6252 126.486C23.6587 128.742 24.851 130.91 26.3354 132.936C26.2124 131.346 26.5738 129.713 27.0191 128.162C27.4566 126.645 28.0758 125.018 29.4554 124.249C29.7483 124.086 30.1455 123.979 30.3968 124.2C30.5055 124.294 30.5631 124.434 30.6089 124.569C30.9243 125.508 30.787 126.535 30.5569 127.495C29.98 129.909 28.8272 132.184 27.224 134.081C27.3311 134.211 27.4332 134.342 27.5421 134.471C29.3454 136.607 31.4017 138.517 33.6329 140.196C33.1481 138.648 33.1491 136.943 33.257 135.306C33.3601 133.731 33.6183 132.008 34.7995 130.962C35.0507 130.739 35.4161 130.552 35.7097 130.714C35.8357 130.782 35.9217 130.906 35.9967 131.028C36.506 131.878 36.5903 132.91 36.5725 133.9C36.5262 136.367 35.8931 138.819 34.7469 141.004C35.9033 141.815 37.1051 142.567 38.3369 143.258C39.4652 143.898 40.6204 144.475 41.7972 145.002C40.6683 143.574 40.1156 141.74 39.7092 139.949C39.3596 138.41 39.1208 136.685 39.9584 135.348C40.0315 135.233 40.1217 135.119 40.2253 135.028L42.714 138.593C43.1831 140.825 43.1689 143.156 42.6672 145.38C44.3689 146.099 46.1095 146.708 47.8783 147.23L47.227 147.683C45.6419 147.201 44.081 146.644 42.5509 146.005C41.2574 147.546 39.329 148.417 37.4304 149.103C35.9458 149.641 34.262 150.094 32.8283 149.431C32.5229 149.29 32.2051 149.032 32.2361 148.698C32.2491 148.555 32.3274 148.427 32.4102 148.31C32.986 147.506 33.8984 147.013 34.8126 146.635C36.8368 145.797 39.0376 145.386 41.2294 145.425C39.947 144.839 38.6861 144.195 37.4551 143.482C36.424 142.885 35.4184 142.244 34.4408 141.562C34.439 141.563 34.4385 141.566 34.4366 141.567L34.3789 141.535C32.693 142.676 30.5732 142.972 28.537 143.094C26.9597 143.19 25.2164 143.149 24.0281 142.107C23.7763 141.889 23.5428 141.551 23.6682 141.24Z" fill="#1B4DED"/>
        <path d="M69.7482 132.01C67.9042 124.264 65.262 116.903 62.2713 111.291L57.0597 117.035L58.8506 105.568C50.9964 93.1392 36.8834 76.6295 26.9117 71.3116C26.0446 77.4875 25.8896 84.3553 26.4919 91.5201L36.1965 102.927L27.6564 100.68C30.1088 115.121 35.4522 133.294 47.5272 147.479L69.7482 132.01Z" fill="#6CE8CC"/>
        <path d="M59.3437 139.25C59.2988 139.155 59.2525 139.057 59.2076 138.962L56.8295 134.084C55.2166 130.847 53.6231 127.599 52.0332 124.349C48.8669 117.844 45.7236 111.325 42.6126 104.795C39.4796 98.2722 36.3898 91.73 33.371 85.1545L33.2196 85.2195C33.9228 86.8871 34.6139 88.5605 35.3292 90.2223L37.4837 95.2046C38.9296 98.523 40.3913 101.833 41.8615 105.14C44.8244 111.744 47.8183 118.334 50.8365 124.912L55.3522 134.787L57.6551 139.704L57.9161 140.244L59.3437 139.25Z" fill="white"/>
        <path d="M269.33 73.654C273.268 73.0534 275.815 74.5707 277.386 77.3112L269.716 83.2373L269.33 73.654Z" fill="#6CE8CC"/>
        <path d="M270.854 131.212L265.892 128.951C265.892 128.951 263.799 121.621 262.14 112.289L270.18 114.416L270.854 131.212Z" fill="#6CE8CC"/>
        <path d="M276.202 112.61L273.582 132.455L271.669 131.576L270.975 114.384L276.202 112.61Z" fill="#6CE8CC"/>
        <path d="M270.177 94.7037L269.757 84.2235L277.768 78.0288C278.912 80.3994 279.442 83.5257 279.586 86.9473L279.235 89.6119L270.177 94.7037Z" fill="#6CE8CC"/>
        <path d="M270.144 113.576L261.987 111.418C261.504 108.603 261.06 105.624 260.73 102.629L269.804 105.108L270.144 113.576Z" fill="#6CE8CC"/>
        <path d="M270.214 95.6003L279.106 90.5994L277.681 101.392L270.566 104.221L270.214 95.6003Z" fill="#6CE8CC"/>
        <path d="M262.272 79.5711C263.59 76.6071 265.596 74.5299 268.542 73.815L268.928 83.3339L262.272 79.5711Z" fill="#6CE8CC"/>
        <path d="M269.382 94.7989L260.151 91.5585C260.239 87.2985 260.762 83.3935 261.966 80.318L268.968 84.2709L269.382 94.7989Z" fill="#6CE8CC"/>
        <path d="M282.095 124.302L276.336 117.713L277.884 105.987L285.773 114.811L282.095 124.302Z" fill="#6CE8CC"/>
        <path d="M269.767 104.276L260.639 101.781C260.317 98.6097 260.126 95.423 260.139 92.392L269.415 95.6546L269.767 104.276Z" fill="#6CE8CC"/>
        <path d="M270.6 105.069L277.563 102.292L276.317 111.733L270.938 113.552L270.6 105.069Z" fill="#6CE8CC"/>
        <path d="M290.133 105.781L308.781 107.074C307.535 110.595 306.075 114.088 304.428 117.467L286.785 114.416L290.133 105.781Z" fill="#6CE8CC"/>
        <path d="M294.648 94.1495L312.348 94.0864C311.59 98.0576 310.473 102.183 309.059 106.301L290.443 105.013L294.648 94.1495Z" fill="#6CE8CC"/>
        <path d="M305.496 66.1536C310.263 68.0028 312.707 72.9816 313.314 79.6095L299.537 81.5152L305.496 66.1536Z" fill="#6CE8CC"/>
        <path d="M294.258 92.9246L283.527 78.354C285.002 75.4186 286.771 72.7632 288.872 70.6342L298.469 82.0795L294.258 92.9246Z" fill="#6CE8CC"/>
        <path d="M286.493 115.171L304.066 118.205C302.453 121.452 300.664 124.572 298.75 127.474L282.78 124.748L286.493 115.171Z" fill="#6CE8CC"/>
        <path d="M298.268 128.204C295.326 132.548 292.083 136.369 288.641 139.312L278.861 134.857L282.488 125.51L298.268 128.204Z" fill="#4C60A5"/>
        <path d="M286.099 113.978L278.021 104.945L279.419 94.3573L289.408 105.452L286.099 113.978Z" fill="#6CE8CC"/>
        <path d="M289.726 104.619L279.554 93.3232L280.574 85.5982C281.303 83.3772 282.152 81.2125 283.132 79.1613L293.924 93.8122L289.726 104.619Z" fill="#6CE8CC"/>
        <path d="M281.776 125.143L278.137 134.527L274.346 132.798L276.199 118.763L281.776 125.143Z" fill="#6CE8CC"/>
        <path d="M289.446 70.0758C292.517 67.1894 296.275 65.3906 300.895 65.3623C302.306 65.3546 303.586 65.539 304.74 65.8918L298.791 81.231L289.446 70.0758Z" fill="#6CE8CC"/>
        <path d="M299.217 82.3639L313.38 80.4042C313.643 84.268 313.321 88.6583 312.484 93.2866L294.955 93.3478L299.217 82.3639Z" fill="#6CE8CC"/>
        <path d="M282.028 125.434L282.485 125.51L278.867 134.856L278.137 134.527L281.776 125.143L282.028 125.434Z" fill="#637ABE"/>
        <path d="M299.085 81.5752L298.794 81.2231L304.741 65.8854C304.996 65.9672 305.251 66.049 305.496 66.1456L299.545 81.507L299.085 81.5752Z" fill="#637ABE"/>
        <path d="M282.097 124.302L285.774 114.811L286.035 115.095L286.492 115.171L282.778 124.753L282.44 124.693L282.097 124.302Z" fill="#637ABE"/>
        <path d="M286.102 113.978L289.41 105.452L289.676 105.753L290.132 105.78L286.785 114.414L286.446 114.361L286.102 113.978Z" fill="#637ABE"/>
        <path d="M294.261 92.9248L298.463 82.0793L298.764 82.4245L299.215 82.3631L294.954 93.3457L294.575 93.3522L294.261 92.9248Z" fill="#637ABE"/>
        <path d="M289.729 104.619L293.92 93.8038L294.172 94.1506L294.647 94.1488L290.435 105.009L290.061 104.976L289.729 104.619Z" fill="#637ABE"/>
        <path d="M270.213 95.5996L270.565 104.22L270.165 104.385L269.768 104.277L269.424 95.6568L269.847 95.8089L270.213 95.5996Z" fill="#637ABE"/>
        <path d="M270.599 105.069L270.937 113.551L270.549 113.685L270.145 113.576L269.805 105.109L270.209 105.219L270.599 105.069Z" fill="#637ABE"/>
        <path d="M269.312 83.5532L268.922 83.3331L268.536 73.815C268.786 73.7513 269.034 73.7035 269.298 73.6577C269.306 73.6588 269.315 73.6519 269.33 73.654L269.716 83.2364L269.312 83.5532Z" fill="#637ABE"/>
        <path d="M270.579 114.517L270.975 114.384L271.669 131.576L270.855 131.212L270.182 114.409L270.579 114.517Z" fill="#637ABE"/>
        <path d="M269.756 84.2226L270.177 94.7023L269.768 94.9301L269.383 94.7991L268.961 84.2708L269.389 84.5041L269.756 84.2226Z" fill="#637ABE"/>
        <path d="M299.545 81.5155L313.324 79.6094C313.346 79.8697 313.367 80.138 313.388 80.4063L299.224 82.3664L299.545 81.5155Z" fill="#637ABE"/>
        <path d="M298.461 82.0798L288.864 70.6339C289.05 70.4413 289.244 70.2575 289.437 70.0738L298.792 81.2223L298.461 82.0798Z" fill="#637ABE"/>
        <path d="M298.463 82.0799L298.792 81.2303L299.085 81.5744L299.544 81.5141L299.215 82.3637L298.764 82.4251L298.463 82.0799Z" fill="#637ABE"/>
        <path d="M294.955 93.3464L312.486 93.2852C312.435 93.552 312.392 93.82 312.34 94.0868L294.639 94.1499L294.955 93.3464Z" fill="#637ABE"/>
        <path d="M293.918 93.8043L283.125 79.1526C283.257 78.8805 283.389 78.6162 283.522 78.344L294.253 92.9151L293.918 93.8043Z" fill="#637ABE"/>
        <path d="M293.92 93.8043L294.262 92.9241L294.576 93.3515L294.955 93.3451L294.648 94.1493L294.172 94.1512L293.92 93.8043Z" fill="#637ABE"/>
        <path d="M289.408 105.453L279.418 94.3576L279.556 93.3138L289.728 104.618L289.408 105.453Z" fill="#637ABE"/>
        <path d="M290.436 105.009L309.054 106.298C308.963 106.56 308.872 106.822 308.782 107.076L290.132 105.782L290.436 105.009Z" fill="#637ABE"/>
        <path d="M289.41 105.453L289.729 104.618L290.061 104.975L290.435 105.009L290.132 105.781L289.676 105.753L289.41 105.453Z" fill="#637ABE"/>
        <path d="M276.809 112.409L276.555 111.652L276.319 111.734L277.565 102.294L278.194 102.039L277.897 101.3L277.677 101.384L279.099 90.5997L279.795 90.2086L279.404 89.5136L279.23 89.6114L279.581 86.9471C279.602 87.5209 279.622 88.1026 279.617 88.6891C279.907 87.6495 280.221 86.613 280.565 85.5885L279.546 93.3127L279.427 93.1765L278.834 93.7097L279.416 94.3574L278.02 104.944L277.901 104.807L277.307 105.341L277.89 105.988L276.343 117.713L276.224 117.577L275.624 118.101L276.204 118.764L274.353 132.798L273.594 132.449L276.211 112.612L276.809 112.409Z" fill="#637ABE"/>
        <path d="M278.833 93.7097L279.427 93.1765L279.554 93.3138L279.416 94.3575L278.833 93.7097Z" fill="#637ABE"/>
        <path d="M268.922 83.3326L268.959 84.2708L261.957 80.3173C262.054 80.0646 262.16 79.813 262.264 79.5772L268.922 83.3326Z" fill="#637ABE"/>
        <path d="M269.716 83.2452L277.386 77.319C277.518 77.5454 277.647 77.7876 277.767 78.0367L269.755 84.2317L269.716 83.2452Z" fill="#637ABE"/>
        <path d="M269.716 83.2441L269.755 84.2227L269.388 84.5042L268.96 84.271L268.922 83.333L269.312 83.5531L269.716 83.2441Z" fill="#637ABE"/>
        <path d="M269.424 95.6567L260.147 92.3933C260.152 92.1123 260.156 91.8314 260.161 91.5504L269.393 94.7916L269.424 95.6567Z" fill="#637ABE"/>
        <path d="M270.178 94.7034L279.236 89.6111L279.106 90.5995L270.212 95.6009L270.178 94.7034Z" fill="#637ABE"/>
        <path d="M270.179 94.7023L270.213 95.5997L269.847 95.809L269.424 95.6569L269.384 94.799L269.77 94.9301L270.179 94.7023Z" fill="#637ABE"/>
        <path d="M279.411 89.5145L279.802 90.2095L279.106 90.6006L279.237 89.6123L279.411 89.5145Z" fill="#637ABE"/>
        <path d="M270.566 104.221L277.683 101.391L277.564 102.293L270.599 105.07L270.566 104.221Z" fill="#637ABE"/>
        <path d="M269.804 105.109L260.73 102.629C260.695 102.343 260.668 102.058 260.641 101.78L269.769 104.276L269.804 105.109Z" fill="#637ABE"/>
        <path d="M270.565 104.22L270.598 105.069L270.208 105.219L269.804 105.109L269.769 104.276L270.165 104.385L270.565 104.22Z" fill="#637ABE"/>
        <path d="M277.904 101.301L278.192 102.047L277.564 102.294L277.683 101.392L277.904 101.301Z" fill="#637ABE"/>
        <path d="M270.18 114.409L262.139 112.281C262.088 111.993 262.037 111.705 261.987 111.416L270.145 113.575L270.18 114.409Z" fill="#637ABE"/>
        <path d="M276.318 111.733L276.202 112.611L270.973 114.385L270.938 113.552L276.318 111.733Z" fill="#637ABE"/>
        <path d="M270.939 113.551L270.974 114.384L270.577 114.517L270.181 114.409L270.146 113.576L270.55 113.685L270.939 113.551Z" fill="#637ABE"/>
        <path d="M276.555 111.652L276.809 112.409L276.203 112.611L276.319 111.734L276.555 111.652Z" fill="#637ABE"/>
        <path d="M286.785 114.414L304.429 117.466C304.308 117.716 304.186 117.966 304.065 118.215L286.491 115.18L286.785 114.414Z" fill="#637ABE"/>
        <path d="M285.772 114.811L277.883 105.987L278.021 104.944L286.1 113.978L285.772 114.811Z" fill="#637ABE"/>
        <path d="M285.774 114.811L286.102 113.978L286.446 114.361L286.785 114.413L286.492 115.171L286.035 115.095L285.774 114.811Z" fill="#637ABE"/>
        <path d="M277.299 105.339L277.901 104.807L278.019 104.944L277.882 105.987L277.299 105.339Z" fill="#637ABE"/>
        <path d="M281.776 125.144L276.198 118.764L276.337 117.712L282.097 124.301L281.776 125.144Z" fill="#637ABE"/>
        <path d="M282.779 124.753L298.75 127.481C298.588 127.726 298.427 127.97 298.267 128.207L282.485 125.511L282.779 124.753Z" fill="#637ABE"/>
        <path d="M282.441 124.692L282.779 124.753L282.486 125.511L282.029 125.434L281.777 125.144L282.098 124.301L282.441 124.692Z" fill="#637ABE"/>
        <path d="M275.615 118.1L276.216 117.576L276.335 117.712L276.196 118.764L275.615 118.1Z" fill="#637ABE"/>
        <path d="M70.7421 136.109L52.0665 32.8331C61.8356 31.1426 70.7661 120.049 70.7661 120.049C70.7661 120.049 64.2959 14.1492 74.1928 14.1492C74.2008 14.1492 74.2088 14.1571 74.2168 14.1571L72.0841 136.093L70.7421 136.109Z" fill="#A0ABE9"/>
        <path d="M67.0282 136.181L43.1684 68.0879C49.351 67.7849 57.3468 94.4113 61.0692 108.215C62.3233 113.199 63.146 116.293 63.146 116.293C63.146 116.293 62.3632 113.039 61.0692 108.215C56.0608 88.271 44.2388 37.9129 51.308 33.1362L69.9277 136.125L67.0282 136.181Z" fill="#A0ABE9"/>
        <path d="M61.0774 108.215C62.3795 113.031 63.1543 116.293 63.1543 116.293C63.1543 116.293 62.3316 113.199 61.0774 108.215Z" fill="#A0ABE9"/>
        <path d="M63.5375 136.237C63.5375 136.237 33.8466 72.8643 42.2179 68.3508C42.2738 68.3189 42.3377 68.303 42.3936 68.2791L66.1895 136.197L63.5375 136.237Z" fill="#A0ABE9"/>
        <path d="M76.1024 136.022L74.7204 136.046L99.7464 46.4933C107.559 49.6192 76.1024 136.022 76.1024 136.022Z" fill="#A0ABE9"/>
        <path d="M72.8911 136.077L75.0158 14.4283C83.6347 20.2496 76.1022 120.057 76.1022 120.057C76.1022 120.057 90.7599 48.3513 98.9395 46.4375L73.8896 136.069L72.8911 136.077Z" fill="#A0ABE9"/>
        <path d="M73.8902 136.061L98.9401 46.4294C99.2037 46.3656 99.4593 46.3736 99.707 46.4613C99.7229 46.4693 99.7389 46.4773 99.7549 46.4852L74.729 136.037L73.8902 136.061Z" fill="#697DD1"/>
        <path d="M72.093 136.093L74.2258 14.1571C74.5054 14.1651 74.769 14.2528 75.0166 14.4282L72.8918 136.077L72.093 136.093Z" fill="#697DD1"/>
        <path d="M69.9362 136.125L51.3164 33.1362C51.4522 33.0484 51.5881 32.9687 51.7398 32.9129C51.8517 32.873 51.9635 32.8491 52.0753 32.8331L70.751 136.109L69.9362 136.125Z" fill="#697DD1"/>
        <path d="M66.1894 136.189L42.3936 68.2713C42.6492 68.1597 42.9128 68.0959 43.1764 68.08L67.0361 136.173L66.1894 136.189Z" fill="#697DD1"/>
        <path d="M106.392 117.936L102.143 136.612H100.042L87.6925 52.801C109.34 74.579 108.285 104.355 106.392 117.936Z" fill="#4C60A5"/>
        <path d="M135.571 79.579L103.955 136.612H102.965L107.654 116.006C111.36 105.312 119.556 88.0557 135.571 79.579Z" fill="#4C60A5"/>
        <path d="M109.604 136.612H104.875L136.243 80.0336C135.916 123.845 109.604 136.612 109.604 136.612Z" fill="#4C60A5"/>
        <path d="M84.8572 136.612C84.8572 136.612 63.3219 126.588 53.4409 93.1992L88.3799 136.612H84.8572Z" fill="#4C60A5"/>
        <path d="M84.3622 119.132L90.9043 136.612H89.4106L53.6169 92.1387C70.6311 97.4416 79.9929 110.759 84.3622 119.132Z" fill="#4C60A5"/>
        <path d="M87.0219 53.7419L99.2354 136.612H91.7587L85.2086 119.108C81.5981 106.197 76.1184 78.2871 87.0219 53.7419Z" fill="#4C60A5"/>
        <path d="M136.243 79.2281C136.243 79.4993 136.235 79.7624 136.235 80.0336L104.867 136.612H103.956L135.572 79.579C135.796 79.4674 136.02 79.3398 136.243 79.2281Z" fill="#637ABE"/>
        <path d="M87.525 52.6256C87.5809 52.6814 87.6369 52.7452 87.6928 52.801L100.042 136.612H99.2352L87.0218 53.742C87.1895 53.3672 87.3493 53.0004 87.525 52.6256Z" fill="#637ABE"/>
        <path d="M53.6165 92.1387L89.4102 136.612H88.3877L53.4488 93.1993C53.329 92.7846 53.2011 92.3859 53.0813 91.9633C53.257 92.0111 53.4328 92.0829 53.6165 92.1387Z" fill="#637ABE"/>
        <path d="M105.482 123.239C105.17 124.491 105.034 125.208 105.034 125.208C105.034 125.208 105.218 124.515 105.482 123.239C105.889 121.612 106.584 119.084 107.646 116.006L102.958 136.612H102.143L106.392 117.936C106.081 120.184 105.745 121.995 105.482 123.239Z" fill="#637ABE"/>
        <path d="M105.482 123.239C105.219 124.515 105.035 125.208 105.035 125.208C105.035 125.208 105.171 124.499 105.482 123.239Z" fill="#637ABE"/>
        <path d="M87.014 124.945C87.3335 125.862 87.5172 126.349 87.5172 126.349C87.5172 126.349 87.3575 125.83 87.014 124.945C86.5906 123.717 85.9356 121.716 85.2087 119.108L91.7588 136.612H90.9041L84.362 119.132C85.672 121.628 86.5267 123.677 87.014 124.945Z" fill="#637ABE"/>
        <path d="M87.0133 124.945C87.3568 125.83 87.5166 126.349 87.5166 126.349C87.5166 126.349 87.3329 125.862 87.0133 124.945Z" fill="#637ABE"/>
        <path d="M177.93 113.231C280.155 113.231 323.181 135.491 323.181 135.491C323.181 135.491 280.155 144.846 177.93 144.846C75.7046 144.846 32.679 135.491 32.679 135.491C32.679 135.491 75.7046 113.231 177.93 113.231Z" fill="#A3DEEA"/>
        <path d="M196.589 115.739L175.171 124.735L175.258 124.944L196.676 115.948L196.589 115.739Z" fill="#96A9D0"/>
        <path d="M175.224 115.833L175.139 116.042L196.635 124.85L196.721 124.641L175.224 115.833Z" fill="#96A9D0"/>
        <path d="M190.256 109.554L181.386 131.043L181.595 131.129L190.465 109.64L190.256 109.554Z" fill="#96A9D0"/>
        <path d="M181.587 109.561L181.378 109.647L190.279 131.125L190.487 131.038L181.587 109.561Z" fill="#96A9D0"/>
        <path d="M185.927 105.772C177.888 105.772 171.369 112.295 171.369 120.344C171.369 128.392 177.886 134.917 185.927 134.917C193.965 134.917 200.484 128.394 200.484 120.344C200.484 112.295 193.965 105.772 185.927 105.772ZM185.927 131.968C179.513 131.968 174.313 126.763 174.313 120.342C174.313 113.922 179.513 108.717 185.927 108.717C192.34 108.717 197.54 113.922 197.54 120.342C197.54 126.765 192.34 131.968 185.927 131.968Z" fill="#192455"/>
        <path d="M186.153 108.719H185.701V131.97H186.153V108.719Z" fill="#96A9D0"/>
        <path d="M197.54 120.118H174.313V120.57H197.54V120.118Z" fill="#96A9D0"/>
        <path d="M177.873 111.964L177.554 112.284L193.978 128.725L194.297 128.405L177.873 111.964Z" fill="#96A9D0"/>
        <path d="M193.978 111.964L177.554 128.405L177.873 128.725L194.297 112.284L193.978 111.964Z" fill="#96A9D0"/>
        <path d="M187.397 120.561C187.589 119.749 187.086 118.935 186.275 118.743C185.463 118.551 184.65 119.054 184.458 119.867C184.267 120.679 184.769 121.493 185.581 121.685C186.392 121.877 187.206 121.374 187.397 120.561Z" fill="#192455"/>
        <path d="M251.581 99.8899C251.727 100.326 254.071 105.942 254.071 105.942L246.999 110.658L244.692 102.284L251.581 99.8899Z" fill="#192455"/>
        <path d="M166.236 94.6188H154.312C154.103 94.6188 153.912 94.5037 153.813 94.3186L151.985 90.8615C151.812 90.5345 151.995 90.1314 152.356 90.0471C152.605 89.9895 152.864 90.1068 152.983 90.333L154.493 93.1875C154.592 93.3726 154.783 93.4877 154.992 93.4877H166.236C166.548 93.4877 166.801 93.7407 166.801 94.0533C166.801 94.3659 166.548 94.6188 166.236 94.6188Z" fill="#DB9000"/>
        <path d="M168.304 90.6353H147.164C146.832 90.6353 146.562 90.3659 146.562 90.0327C146.562 89.6996 146.832 89.4302 147.164 89.4302H168.304C168.637 89.4302 168.906 89.6996 168.906 90.0327C168.906 90.3659 168.637 90.6353 168.304 90.6353Z" fill="#DB9000"/>
        <path d="M221.698 42.6334C222.3 41.3048 222.703 37.7244 219.323 36.4781C215.944 35.2298 210.444 34.6272 208.433 40.5419C206.424 46.4565 210 50.037 210.202 50.2385C210.403 50.44 210.121 50.6807 209.879 51.4868C209.639 52.2909 208.833 52.5501 208.833 52.5501L213.271 55.0673C213.271 55.0673 215.666 51.6061 215.948 51.3244C216.229 51.0426 217.797 51.6472 218.238 51.6061C218.586 51.5753 220.069 48.8729 220.576 47.2791C220.576 47.2791 221.252 46.5861 221.433 46.4051C221.614 46.2241 221.373 45.8313 221.131 45.5907C220.893 45.3521 221.127 43.9825 221.131 43.9557C221.304 43.5177 221.501 43.0694 221.698 42.6334Z" fill="#FFCFC5"/>
        <path d="M230.168 63.4374C230.168 63.4374 232.446 63.1598 233.665 62.0842C234.883 61.0086 238.441 61.9176 239.059 62.7608C239.678 63.604 238.363 65.6071 237.745 65.459C237.126 65.3109 237.86 64.9037 238.055 64.5315C238.248 64.1613 238.287 63.7891 237.977 63.53C237.666 63.2708 237.512 64.1983 236.74 64.5685C235.968 64.9387 234.303 65.3479 233.492 65.0127C232.68 64.6796 230.862 65.1238 230.862 65.1238L230.168 63.4374Z" fill="#0053FF"/>
        <path d="M207.724 57.0251C207.332 57.9464 207.381 58.9993 207.406 60.0132C207.476 62.7772 208.567 65.6358 211.533 66.5716C217.179 68.3525 225.452 67.24 227.229 66.8677C229.008 66.4975 231.403 66.1993 231.249 65.1608C231.095 64.1222 231.327 62.3598 230.089 62.2775C228.852 62.1952 217.641 64.6425 214.933 60.7865C213.799 59.1721 213.127 56.7824 211.578 55.4847C210.492 54.5736 209.012 55.2976 208.224 56.2127C208.008 56.4677 207.846 56.7392 207.724 57.0251Z" fill="#2CD2AD"/>
        <path d="M207.389 53.0745C207.389 53.0745 208.535 51.6267 209.741 51.9886C210.947 52.3506 213.78 54.403 213.78 54.8863C213.78 55.3696 213.262 56.9388 213.262 56.9388L207.389 53.0745Z" fill="#2CD2AD"/>
        <path d="M206.867 52.5706C206.867 52.5706 203.089 51.9269 199.794 57.3994C196.499 62.8719 193.627 70.7567 193.253 73.0107C192.879 75.2646 193.041 77.7592 193.925 78.3227C194.808 78.8862 206.867 80.5767 208.957 80.0934C211.046 79.6101 211.046 77.5412 211.046 77.5412C211.046 77.5412 215.099 61.1012 214.158 58.2035C213.217 55.3079 209.197 52.8935 206.867 52.5706Z" fill="#89EFD8"/>
        <path d="M200.515 78.514C200.515 78.514 205.279 56.8173 207.389 57.8723C209.499 58.9294 213.001 60.4451 213.26 61.3459C213.519 62.2466 209.486 77.6749 209.486 77.6749L209.008 77.7202C209.008 77.7202 213.077 61.3027 212.816 61.1011C212.555 60.8996 207.419 58.1747 207.089 58.4749C206.758 58.7772 204.496 64.7207 203.231 69.2472C201.965 73.7736 201.18 78.5119 201.18 78.5119H200.515V78.514Z" fill="#2CD2AD"/>
        <path d="M203.901 57.8723C203.901 57.8723 202.364 62.952 205.339 68.8255C208.314 74.699 211.2 76.9098 211.2 76.9098L213.263 67.39L203.901 57.8723Z" fill="#2CD2AD"/>
        <path d="M204.19 56.6981C203.781 57.6976 203.833 58.841 203.859 59.9392C203.933 62.9398 205.065 66.039 208.151 67.0549C214.018 68.986 222.62 67.7788 224.469 67.3778C226.318 66.9747 228.81 66.6539 228.65 65.5269C228.49 64.3999 228.73 62.4873 227.444 62.3989C226.158 62.3084 214.501 64.9655 211.689 60.7804C210.512 59.0282 209.811 56.4369 208.2 55.0282C207.07 54.0411 205.534 54.8246 204.714 55.8179C204.486 56.0935 204.318 56.3896 204.19 56.6981Z" fill="#89EFD8"/>
        <path d="M215.95 51.3244L212.734 50.7197L214.222 53.7038L215.95 51.3244Z" fill="#F3C3B9"/>
        <path d="M222.462 39.1721C222.421 39.4313 222.259 39.4847 221.985 39.4416C221.195 39.3182 219.477 38.3845 217.117 39.2524C214.964 40.0421 214.271 43.3099 213.809 45.6462C213.589 46.7588 213.423 47.6575 213.176 47.9824C212.412 48.9901 209.388 49.2246 207.822 48.3855C206.257 47.5444 206.062 39.4128 208.352 36.0318C210.643 32.6529 215.707 33.7387 215.707 33.7387C220.194 33.5269 222.622 38.1665 222.462 39.1721Z" fill="#0053FF"/>
        <path d="M218.949 49.0415C218.805 49.0415 218.636 49.0354 218.45 49.0169C217.839 48.9593 217.613 48.3917 217.605 48.369C217.581 48.3073 217.611 48.2374 217.675 48.2127C217.737 48.1881 217.806 48.2189 217.831 48.2806C217.839 48.2991 218.014 48.733 218.474 48.7762C218.996 48.8256 219.388 48.7762 219.392 48.7762C219.458 48.768 219.52 48.8153 219.528 48.8811C219.536 48.9469 219.489 49.0086 219.423 49.0169C219.411 49.0189 219.23 49.0415 218.949 49.0415Z" fill="#0053FF"/>
        <path d="M220.235 43.4971C220.235 43.8076 220.077 44.0606 219.882 44.0606C219.687 44.0606 219.528 43.8076 219.528 43.4971C219.528 43.1866 219.687 42.9336 219.882 42.9336C220.077 42.9336 220.235 43.1866 220.235 43.4971Z" fill="#12143F"/>
        <path d="M219.006 42.4873C219.263 42.1788 219.658 41.8148 220.077 42.0678C220.276 42.1891 220.459 41.8744 220.26 41.7552C219.695 41.4158 219.117 41.7901 218.75 42.2323C218.604 42.4091 218.859 42.6683 219.006 42.4873Z" fill="#12143F"/>
        <g opacity="0.65">
            <path opacity="0.65" d="M222.633 43.3285C222.392 45.5002 222.283 46.6683 221.955 46.9891C221.645 47.2956 215.933 47.2215 213.778 45.4981C214.241 43.1619 214.933 39.894 217.086 39.1043C219.446 38.2364 221.164 39.1701 221.955 39.2935C221.957 39.2935 222.875 41.1568 222.633 43.3285Z" fill="white"/>
        </g>
        <path d="M236.104 105.451C236.104 105.451 237.157 106.537 237.316 106.804C237.474 107.071 238.209 108.05 238.61 108.003C239.011 107.956 241.634 106.792 242.039 106.362C242.443 105.932 244.993 105.083 245.708 104.634C246.423 104.186 246.32 102.997 245.829 102.732C245.338 102.465 243.814 103.326 243.175 103.544C242.536 103.762 241.048 103.826 240.225 104.013C239.401 104.198 238.729 104.235 238.398 104.065C238.07 103.894 237.798 103.713 237.798 103.713L236.104 105.451Z" fill="#96A9D0"/>
        <path d="M209.487 77.6462C209.487 77.6462 217.277 76.4801 218.966 77.6462C220.655 78.8122 237.838 103.127 237.838 103.585C237.838 104.044 236.392 105.473 236.149 105.473C235.909 105.473 227.408 100.667 222.403 93.2863C217.399 85.9053 217.822 85.6194 216.554 85.7922C215.289 85.9629 203.373 86.3639 203.844 83.7891C204.314 81.2164 209.487 77.6462 209.487 77.6462Z" fill="#0A44BB"/>
        <path d="M228.461 107.604C228.461 107.604 229.35 108.819 229.41 109.12C229.47 109.42 229.842 110.572 230.236 110.646C230.63 110.722 233.509 110.407 234.037 110.119C234.565 109.833 237.266 109.794 238.094 109.584C238.922 109.375 239.222 108.217 238.846 107.816C238.47 107.415 236.736 107.773 236.058 107.787C235.38 107.801 233.948 107.415 233.104 107.343C232.26 107.271 231.61 107.102 231.356 106.843C231.101 106.582 230.904 106.329 230.904 106.329L228.461 107.604Z" fill="#96A9D0"/>
        <path d="M193.925 78.259C193.925 78.259 190.71 89.3952 198.346 89.3952C205.982 89.3952 215.87 87.7253 216.112 88.6754C216.353 89.6256 217.398 93.5145 220.051 98.1685C222.703 102.822 227.446 108.009 228.33 108.009C229.213 108.009 231.385 106.79 231.144 106.331C230.904 105.872 221.016 80.3958 218.925 79.022C216.835 77.6482 213.298 77.0395 206.787 77.9546C200.275 78.8698 193.925 78.259 193.925 78.259Z" fill="#0053FF"/>
        <path d="M269.276 115.739L247.858 124.734L247.946 124.943L269.363 115.947L269.276 115.739Z" fill="#96A9D0"/>
        <path d="M247.913 115.831L247.827 116.04L269.324 124.848L269.409 124.639L247.913 115.831Z" fill="#96A9D0"/>
        <path d="M262.943 109.553L254.072 131.042L254.281 131.128L263.152 109.639L262.943 109.553Z" fill="#96A9D0"/>
        <path d="M254.277 109.559L254.068 109.645L262.969 131.123L263.178 131.036L254.277 109.559Z" fill="#96A9D0"/>
        <path d="M258.615 105.772C250.576 105.772 244.058 112.295 244.058 120.344C244.058 128.392 250.574 134.917 258.615 134.917C266.654 134.917 273.173 128.394 273.173 120.344C273.17 112.295 266.654 105.772 258.615 105.772ZM258.615 131.968C252.201 131.968 247.002 126.763 247.002 120.342C247.002 113.922 252.201 108.717 258.615 108.717C265.029 108.717 270.229 113.922 270.229 120.342C270.229 126.765 265.029 131.968 258.615 131.968Z" fill="#192455"/>
        <path d="M258.842 108.719H258.39V131.97H258.842V108.719Z" fill="#96A9D0"/>
        <path d="M270.229 120.118H247.002V120.57H270.229V120.118Z" fill="#96A9D0"/>
        <path d="M250.562 111.964L250.242 112.284L266.666 128.725L266.986 128.405L250.562 111.964Z" fill="#96A9D0"/>
        <path d="M266.666 111.964L250.242 128.405L250.562 128.725L266.986 112.284L266.666 111.964Z" fill="#96A9D0"/>
        <path d="M250.244 109.989L258.427 120.531L259.255 120.005L255.343 108.332L250.244 109.989Z" fill="#96A9D0"/>
        <path d="M260.09 120.564C260.281 119.752 259.779 118.938 258.967 118.746C258.156 118.554 257.342 119.057 257.151 119.87C256.959 120.682 257.462 121.496 258.273 121.688C259.085 121.88 259.898 121.377 260.09 120.564Z" fill="#192455"/>
        <path d="M205.899 92.9325H165.953C164.988 92.9325 164.205 92.149 164.205 91.1824C164.205 90.2158 164.988 89.4323 165.953 89.4323H205.899C206.865 89.4323 207.647 90.2158 207.647 91.1824C207.647 92.149 206.865 92.9325 205.899 92.9325Z" fill="#FFA800"/>
        <path d="M257.298 99.898C255.643 101.782 249.173 100.801 247.067 104.342C244.962 107.882 242.554 115.337 239.846 115.639C237.139 115.939 165.348 115.639 165.348 115.639V92.9325H206.296C206.296 92.9325 210.131 107.392 212.726 109.537C215.321 111.684 233.151 110.44 236.085 108.634C238.488 107.154 240.691 102.841 240.952 97.6029C241.009 96.4471 240.972 95.2482 240.824 94.0245C239.996 87.2461 235.409 69.7757 235.709 67.8939C236.011 66.0101 237.439 62.7731 239.772 62.0204C242.104 61.2677 244.436 61.9443 244.512 62.0204C244.588 62.0965 244.888 66.6888 244.512 67.2914C244.136 67.8939 242.706 68.6466 242.706 69.9258C242.706 71.205 251.131 84.6857 253.991 89.4302C256.846 94.1746 258.952 98.0163 257.298 99.898Z" fill="#FFA800"/>
        <path d="M244.51 67.4025C245.534 67.4025 246.363 66.1972 246.363 64.7105C246.363 63.2237 245.534 62.0184 244.51 62.0184C243.487 62.0184 242.657 63.2237 242.657 64.7105C242.657 66.1972 243.487 67.4025 244.51 67.4025Z" fill="#DB9000"/>
        <path d="M247.896 91.8405C247.896 91.8405 252.259 94.551 251.131 96.2086C250.004 97.8662 246.316 96.1325 245.564 94.0245C244.81 91.9145 246.657 90.9603 247.896 91.8405Z" fill="#DB9000"/>
        <path d="M242.509 118.971C241.675 117.864 241.209 115.415 241.704 114.131C242.832 111.211 245.648 107.018 250.342 103.966C257.128 99.5526 266.352 102.611 268.296 104.492C269.559 105.716 270.595 107.9 270.108 109.656C270.071 109.792 270.017 109.934 269.898 110.014C269.787 110.088 269.644 110.094 269.51 110.094C264.464 110.115 259.671 109.26 254.852 111.347C248.245 114.208 244.204 121.212 243.349 120.083C243.088 119.738 242.795 119.349 242.509 118.971Z" fill="#FFA800"/>
        <path d="M183.811 51.2503H157.462C156.666 51.2503 156.023 50.6066 156.023 49.8107V48.7186C156.023 47.9228 156.666 47.2791 157.462 47.2791H183.811C184.606 47.2791 185.249 47.9228 185.249 48.7186V49.8107C185.249 50.6066 184.606 51.2503 183.811 51.2503Z" fill="#FFEE75"/>
        <path d="M182.813 51.2502H157.887V59.6101H182.813V51.2502Z" fill="#F2D60D"/>
        <path d="M172.854 54.4338H167.912C167.392 54.4338 166.971 54.0122 166.971 53.4919C166.971 52.9716 167.392 52.55 167.912 52.55H172.854C173.374 52.55 173.795 52.9716 173.795 53.4919C173.795 54.0102 173.374 54.4338 172.854 54.4338Z" fill="#E1C810"/>
        <path d="M170.186 60.0975C169.479 60.0975 168.906 59.5238 168.906 58.8163V47.2955C168.906 46.5881 169.479 46.0143 170.186 46.0143C170.893 46.0143 171.464 46.5881 171.464 47.2955V58.8163C171.464 59.5258 170.893 60.0975 170.186 60.0975Z" fill="#E1C810"/>
        <path d="M189.929 89.4301H151.908C150.659 89.4301 149.648 88.4183 149.648 87.1679V61.8702C149.648 60.6199 150.659 59.608 151.908 59.608H189.929C191.178 59.608 192.189 60.6199 192.189 61.8702V87.1679C192.189 88.4183 191.178 89.4301 189.929 89.4301Z" fill="#FFEE75"/>
        <path d="M160.562 69.1732H153.554C153.1 69.1732 152.732 68.805 152.732 68.3505V65.4775C152.732 65.023 153.1 64.6549 153.554 64.6549H160.562C161.016 64.6549 161.383 65.023 161.383 65.4775V68.3505C161.383 68.805 161.016 69.1732 160.562 69.1732Z" fill="#F2D60D"/>
        <path d="M188.096 86.7937H175.295C174.841 86.7937 174.474 86.4255 174.474 85.971V79.0754C174.474 78.6209 174.841 78.2528 175.295 78.2528H188.096C188.55 78.2528 188.918 78.6209 188.918 79.0754V85.971C188.918 86.4255 188.548 86.7937 188.096 86.7937Z" fill="#F2D60D"/>
        <path d="M187.193 85.9361H176.198C175.744 85.9361 175.376 85.568 175.376 85.1135V79.9371C175.376 79.4826 175.744 79.1145 176.198 79.1145H187.193C187.647 79.1145 188.015 79.4826 188.015 79.9371V85.1135C188.015 85.568 187.647 85.9361 187.193 85.9361Z" fill="white"/>
        <path d="M160.015 78.5139H153.425C153.043 78.5139 152.732 78.2034 152.732 77.8209C152.732 77.4383 153.043 77.1278 153.425 77.1278H160.015C160.397 77.1278 160.708 77.4383 160.708 77.8209C160.708 78.2034 160.397 78.5139 160.015 78.5139Z" fill="#F2D60D"/>
        <path d="M156.367 81.899H153.425C153.043 81.899 152.732 81.5885 152.732 81.206C152.732 80.8235 153.043 80.5129 153.425 80.5129H156.367C156.749 80.5129 157.059 80.8235 157.059 81.206C157.059 81.5885 156.749 81.899 156.367 81.899Z" fill="#F2D60D"/>
        <path d="M187.774 65.9135H176.802C176.42 65.9135 176.109 65.6029 176.109 65.2204C176.109 64.8379 176.42 64.5273 176.802 64.5273H187.774C188.156 64.5273 188.467 64.8379 188.467 65.2204C188.467 65.6029 188.156 65.9135 187.774 65.9135Z" fill="#F2D60D"/>
        <path d="M182.121 69.3007H176.802C176.42 69.3007 176.109 68.9901 176.109 68.6076C176.109 68.2251 176.42 67.9146 176.802 67.9146H182.121C182.503 67.9146 182.813 68.2251 182.813 68.6076C182.813 68.9901 182.503 69.3007 182.121 69.3007Z" fill="#F2D60D"/>
        <path d="M170.186 93.7221C169.479 93.7221 168.906 93.1483 168.906 92.4409V60.3628C168.906 59.6553 169.479 59.0836 170.186 59.0836C170.893 59.0836 171.464 59.6574 171.464 60.3628V92.443C171.464 93.1504 170.893 93.7221 170.186 93.7221Z" fill="#F2D60D"/>
        <path d="M235.577 64.7022L239.651 64.587C239.816 64.5829 239.951 64.7145 239.951 64.879V64.9942C239.951 65.1546 239.822 65.2862 239.66 65.2862H235.586C235.425 65.2862 235.294 65.1567 235.294 64.9942C235.294 64.8359 235.419 64.7084 235.577 64.7022Z" fill="#DB9000"/>
        <path d="M165.346 95.386H197.027C197.896 95.386 198.645 95.9906 198.832 96.84L202.972 115.746H167.219L165.346 95.386Z" fill="#DB9000"/>
        <path d="M202.344 118.691H165.977C164.728 118.691 163.717 117.679 163.717 116.429V111.46C163.717 110.21 164.728 109.198 165.977 109.198H202.344C203.593 109.198 204.603 110.21 204.603 111.46V116.429C204.603 117.679 203.593 118.691 202.344 118.691Z" fill="#FFA800"/>
        <path d="M241.161 97.6296C241.161 97.6296 240.707 107.256 238.684 109.198C236.66 111.139 214.826 112.48 212.541 111.962C210.257 111.444 204.603 94.189 204.603 94.189H165.346V92.9304H206.294C206.294 92.9304 210.13 107.39 212.724 109.535C215.319 111.682 233.149 110.438 236.083 108.632C238.486 107.151 240.689 102.839 240.95 97.6008L241.161 97.6296Z" fill="#DB9000"/>
        <path d="M115.278 26.7691C115.278 26.7691 113.464 27.2853 112.643 25.2534C111.823 23.2216 111.299 19.5547 111.784 19.129C112.269 18.7033 113.873 18.6293 115.03 18.329C116.186 18.0308 117.53 17.9177 117.53 17.9177C117.53 17.9177 118.761 22.399 118.128 24.3403C117.491 26.2838 115.278 26.7691 115.278 26.7691Z" fill="#0053FF"/>
        <path d="M116.521 22.2879C116.521 22.2879 116.708 20.6077 115.812 20.1224C114.917 19.637 113.201 20.6818 113.425 22.0638C113.649 23.4458 114.545 23.6329 114.73 24.4905C114.917 25.3501 115.04 26.0967 115.276 26.4689C115.513 26.8432 115.426 27.746 114.97 28.4843C114.514 29.2226 113.984 29.6792 113.984 29.6792C113.984 29.6792 113.308 32.9244 116.538 33.6751C119.767 34.4237 120.663 35.5486 122.117 34.0514C123.572 32.5542 123.013 31.6206 122.9 31.2854C122.787 30.9501 122.676 29.6422 122.639 29.2309C122.602 28.8195 122.602 28.8195 122.602 28.8195C122.602 28.8195 123.609 29.0067 124.02 28.11C124.431 27.2134 125.922 23.927 125.25 22.3599C124.579 20.7908 124.905 20.0072 125.041 19.4108C125.176 18.8144 124.802 17.1712 124.655 16.7969C124.505 16.4226 123.983 15.7131 123.983 15.7131L117.53 17.9157C117.53 17.9157 117.29 20.9409 117.316 21.8355C117.343 22.7363 116.665 23.7214 116.521 22.2879Z" fill="#FFCFC5"/>
        <path d="M122.117 24.6035C122.082 24.6035 122.045 24.5871 122.025 24.5542C121.99 24.5027 122.002 24.4328 122.053 24.3979C122.376 24.1778 122.842 23.7788 122.863 23.5814C122.871 23.5156 122.842 23.4889 122.66 23.3902C122.456 23.2812 122.148 23.1146 121.906 22.6765C121.468 21.8786 122.351 20.5624 122.388 20.5069C122.423 20.4554 122.493 20.4431 122.544 20.4781C122.596 20.513 122.608 20.583 122.573 20.6344C122.565 20.6467 121.729 21.893 122.101 22.5716C122.31 22.9521 122.573 23.094 122.764 23.1968C122.935 23.2873 123.109 23.3819 123.085 23.6102C123.044 23.9783 122.323 24.4883 122.179 24.5871C122.16 24.5973 122.138 24.6035 122.117 24.6035Z" fill="#D09B90"/>
        <path d="M122.117 26.7691C121.179 26.7691 120.527 25.9403 120.499 25.9033C120.462 25.8539 120.47 25.784 120.519 25.747C120.568 25.71 120.638 25.7182 120.675 25.7676C120.681 25.7758 121.287 26.5449 122.115 26.5449C122.915 26.5449 123.095 26.2015 123.095 26.1974C123.122 26.1419 123.19 26.1192 123.243 26.146C123.299 26.1727 123.323 26.2365 123.297 26.292C123.293 26.3126 123.073 26.7691 122.117 26.7691Z" fill="#D09B90"/>
        <path d="M119.622 21.9897C119.892 21.9897 120.111 21.5883 120.111 21.0931C120.111 20.5979 119.892 20.1964 119.622 20.1964C119.352 20.1964 119.133 20.5979 119.133 21.0931C119.133 21.5883 119.352 21.9897 119.622 21.9897Z" fill="#272833"/>
        <path d="M124.137 20.9676C124.137 21.3933 123.953 21.7388 123.724 21.7388C123.496 21.7388 123.312 21.3933 123.312 20.9676C123.312 20.5419 123.496 20.1964 123.724 20.1964C123.953 20.1964 124.137 20.5419 124.137 20.9676Z" fill="#272833"/>
        <path d="M119.049 19.5671C119.104 19.3758 119.351 19.1784 119.511 19.0653C119.696 18.9337 119.899 18.8679 120.119 18.9501C120.322 19.0262 120.409 18.7013 120.207 18.6252C119.909 18.5141 119.595 18.5964 119.34 18.7733C119.096 18.944 118.81 19.1825 118.724 19.4766C118.664 19.6843 118.989 19.7748 119.049 19.5671Z" fill="#0053FF"/>
        <path d="M123.363 19.0632C123.55 19.0283 123.724 19.1085 123.844 19.2504C123.983 19.4149 124.22 19.1763 124.082 19.0118C123.883 18.7753 123.575 18.6828 123.275 18.7383C123.063 18.7794 123.151 19.1023 123.363 19.0632Z" fill="#0053FF"/>
        <path d="M122.603 28.8236C122.603 28.8236 119.246 28.3383 117.865 27.9269C116.485 27.5156 116.298 27.3285 116.298 27.3285C116.298 27.3285 119.916 30.9871 120.477 30.7259C121.035 30.4647 122.603 28.8236 122.603 28.8236Z" fill="#F3C3B9"/>
        <path d="M128.681 13.8499C128.282 14.2488 123.894 16.3732 119.264 17.9444C116.537 18.8699 113.725 19.6061 111.597 19.6843C111.597 19.6843 109.546 11.5342 114.208 10.1152C118.871 8.69613 120.921 8.95732 122.152 10.1152C123.383 11.273 124.137 14.9686 124.137 14.9686C124.137 14.9686 124.139 14.9686 124.139 14.9666C124.274 14.9234 129.307 13.2226 128.681 13.8499Z" fill="#FD99FF"/>
        <path d="M128.681 13.8499C128.283 14.2489 123.894 16.3733 119.264 17.9445C118.904 17.7101 124.137 14.9687 124.137 14.9687C124.137 14.9687 124.139 14.9687 124.139 14.9666C124.274 14.9234 129.308 13.2227 128.681 13.8499Z" fill="#DF82E1"/>
        <path d="M109.509 127.925C109.509 127.925 109.062 130.837 108.614 131.958C108.166 133.079 109.062 135.692 110.553 135.991C112.045 136.289 118.61 136.887 118.61 135.991C118.61 135.094 118.29 133.825 117.591 133.451C116.893 133.076 115.251 132.953 114.358 132.194C113.462 131.435 113.555 129.046 113.555 129.046L109.509 127.925Z" fill="#E03A3A"/>
        <path d="M123.85 126.938C123.85 126.938 123.496 130.238 123.085 131.515C122.674 132.793 123.654 135.719 125.154 136.013C126.656 136.307 133.236 136.793 133.207 135.781C133.179 134.769 132.817 133.346 132.108 132.943C131.399 132.542 129.754 132.449 128.836 131.616C127.917 130.783 127.067 126.843 127.067 126.843L123.85 126.938Z" fill="#E03A3A"/>
        <path d="M106.451 66.0143C106.451 66.0143 104.511 73.4076 106.451 86.9253C108.39 100.443 108.092 105.072 108.092 107.462C108.092 109.852 108.242 128.597 109.136 129.046C110.032 129.494 114.284 129.866 114.582 129.42C114.88 128.972 118.611 100.967 118.611 100.967C118.611 100.967 120.624 114.709 121.818 120.309C123.011 125.911 123.385 127.629 124.279 127.927C125.175 128.225 127.486 128.001 127.562 127.552C127.636 127.104 129.427 91.4826 129.575 90.1376C129.725 88.7927 128.967 68.9839 128.967 68.9839L106.451 66.0143Z" fill="#FF4D4D"/>
        <path d="M111.375 30.2426C111.375 30.2426 106.079 32.4822 104.064 36.4411C102.048 40.4 100.259 44.8791 101.079 52.9449C101.898 61.0107 105.927 62.0554 105.853 62.6169C105.779 63.1763 105.052 65.566 106.124 67.0611C107.197 68.5541 108.838 68.5542 109.808 69.0025C110.777 69.4508 119.133 70.4955 122.489 70.7197C125.846 70.9439 129.055 69.5248 129.203 68.5542C129.353 67.5835 129.203 64.2971 129.203 64.2971L129.269 43.3861H133.754C133.754 43.3861 131.738 36.5151 130.323 35.3943C128.905 34.2735 123.983 31.0632 123.983 31.0632C123.983 31.0632 120.85 33.3789 120.028 33.3789C119.207 33.3789 116.224 31.9599 115.478 31.4375C114.732 30.9131 113.218 29.2884 111.375 30.2426Z" fill="#FD99FF"/>
        <path d="M114.172 29.0087C114.172 29.0087 118.628 31.7727 118.424 32.2951C118.221 32.8175 116.678 34.4236 116.302 33.9753C115.926 33.527 111.71 30.765 112.158 30.1666C112.606 29.5702 113.327 28.4699 114.172 29.0087Z" fill="#DF82E1"/>
        <path d="M123.235 29.6812C123.496 29.9053 125.411 31.0981 124.975 31.7151C124.54 32.332 121.148 34.7649 120.698 34.0534C120.248 33.3418 119.691 32.7434 120.026 32.258C120.363 31.7727 123.235 29.6812 123.235 29.6812Z" fill="#DF82E1"/>
        <path d="M120.702 70.5942L120.154 70.4893C120.158 70.4626 120.659 67.7253 120.495 59.7459C120.328 51.7233 119.145 33.459 119.133 33.274L119.692 33.2369C119.704 33.42 120.889 51.6986 121.054 59.7336C121.22 67.7932 120.725 70.4852 120.702 70.5942Z" fill="#DF82E1"/>
        <path d="M111.375 50.1069V55.1331C111.04 55.0488 110.701 54.9295 110.369 54.7547C108.433 53.7429 108.037 48.8359 107.961 46.4647C107.971 46.5573 108.59 51.9619 109.81 53.019C111.038 54.0843 111.375 50.1069 111.375 50.1069Z" fill="#DF82E1"/>
        <path d="M105.853 62.6169L105.744 63.1763C105.744 63.1763 110.757 64.6324 111.094 65.2678C111.429 65.9033 112.68 66.6313 113.313 66.6313C113.947 66.6313 121.668 66.072 124.41 66.183C127.153 66.2941 129.246 65.5085 129.246 65.5085L105.853 62.6169Z" fill="#DF82E1"/>
        <path d="M142.409 44.1708V64.4833C142.409 64.9173 142.057 65.2669 141.626 65.2669H112.158C111.724 65.2669 111.375 64.9173 111.375 64.4833V44.1708C111.375 43.7368 111.724 43.3872 112.158 43.3872H141.626C142.057 43.3872 142.409 43.7368 142.409 44.1708Z" fill="#F2D60D"/>
        <path d="M142.409 44.1696V64.4822C142.409 64.9161 142.058 65.2658 141.627 65.2658H123.983V43.384H141.627C142.058 43.3861 142.409 43.7357 142.409 44.1696Z" fill="#FFEE75"/>
        <path d="M116.166 49.3973H113.929C113.588 49.3973 113.312 49.1218 113.312 48.7804V46.5408C113.312 46.1994 113.588 45.9238 113.929 45.9238H116.166C116.507 45.9238 116.782 46.1994 116.782 46.5408V48.7804C116.782 49.1218 116.507 49.3973 116.166 49.3973Z" fill="#D9BF05"/>
        <path d="M136.692 47.6616H130.816C130.337 47.6616 129.949 47.2729 129.949 46.7938C129.949 46.3146 130.337 45.9259 130.816 45.9259H136.692C137.17 45.9259 137.559 46.3146 137.559 46.7938C137.561 47.2729 137.172 47.6616 136.692 47.6616Z" fill="#F2D60D"/>
        <path d="M132.728 63.1762H127.919C127.352 63.1762 126.892 62.7156 126.892 62.148V57.3336C126.892 56.766 127.352 56.3053 127.919 56.3053H132.728C133.295 56.3053 133.755 56.766 133.755 57.3336V62.148C133.755 62.7156 133.295 63.1762 132.728 63.1762Z" fill="#F2D60D"/>
        <path d="M132.168 62.617H128.478C127.911 62.617 127.451 62.1563 127.451 61.5887V57.8951C127.451 57.3275 127.911 56.8668 128.478 56.8668H132.168C132.735 56.8668 133.195 57.3275 133.195 57.8951V61.5887C133.195 62.1563 132.735 62.617 132.168 62.617Z" fill="white"/>
        <path d="M114.927 57.3048C114.927 57.3048 115.654 57.1835 116.355 56.8668C117.053 56.5501 118.929 55.8118 118.732 56.3074C118.537 56.803 117.612 57.2781 118.2 57.3069C118.787 57.3357 120.803 55.7953 120.983 57.3069C121.164 58.8184 120.408 60.0791 119.878 60.3588C119.346 60.6385 117.267 60.0236 116.782 60.0236C116.297 60.0236 114.506 60.1346 114.506 60.1346L114.927 57.3048Z" fill="#FF4D4D"/>
        <path d="M115.402 58.1172C114.955 62.037 114.62 63.5506 113.668 63.6616C112.717 63.7727 109.851 64.4102 105.716 62.3825C101.582 60.3567 100.742 45.2884 103.429 40.0236C106.116 34.7588 109.492 38.7362 107.943 45.1773C107.943 45.1773 107.935 45.6833 107.959 46.4647C107.959 46.4647 107.959 46.4647 107.959 46.4668C108.037 48.838 108.432 53.7449 110.367 54.7568C110.7 54.9295 111.039 55.0508 111.374 55.1352C113.638 55.7048 115.793 54.7033 115.402 58.1172Z" fill="#FD99FF"/>
        <path d="M116.166 42.7876H111.989C111.648 42.7876 111.373 42.512 111.373 42.1706V41.9855C111.373 41.6441 111.648 41.3685 111.989 41.3685H116.166C116.507 41.3685 116.782 41.6441 116.782 41.9855V42.1706C116.782 42.512 116.507 42.7876 116.166 42.7876Z" fill="#DF82E1"/>
        <path d="M128.795 43.3861L128.123 40.3979L130.175 43.3861H128.795Z" fill="#DF82E1"/>
        <path d="M118.611 100.965L119.655 80.2416L121.093 116.519L118.611 100.965Z" fill="#E03A3A"/>
    </g>
    <defs>
        <clipPath id="clip0_4_16159">
            <rect width="327" height="135" fill="white"/>
        </clipPath>
    </defs>
</svg>
