<svg width="60" height="60" viewBox="0 0 60 60" fill="none" xmlns="http://www.w3.org/2000/svg">
<g clip-path="url(#clip0_2185_37612)">
<path d="M51.037 26.3881C51.0372 25.5869 50.8376 24.7983 50.4563 24.0937C50.0751 23.389 49.5241 22.7906 48.8533 22.3525C49.5931 21.6815 50.1485 20.832 50.4665 19.8852C50.7845 18.9384 50.8544 17.9259 50.6695 16.9444C50.4847 15.9629 50.0513 15.0452 49.4107 14.2789C48.7701 13.5126 47.9438 12.9234 47.0106 12.5675C47.4439 11.8338 47.675 10.9984 47.6803 10.1464C47.6856 9.29432 47.4648 8.45611 47.0406 7.71718C46.6163 6.97825 46.0038 6.36504 45.2653 5.94003C44.5268 5.51502 43.6888 5.29341 42.8367 5.29781C42.3061 5.30506 41.7803 5.3984 41.2796 5.57421C41.1801 4.69604 40.8401 3.86239 40.2971 3.1651C39.7541 2.46782 39.0291 1.93397 38.2021 1.6224C37.375 1.31083 36.478 1.23361 35.6099 1.39928C34.7418 1.56495 33.9363 1.96708 33.2821 2.56132C32.8679 1.95151 32.3188 1.44526 31.6775 1.08186C31.0361 0.718451 30.3197 0.507638 29.5837 0.465761C28.8477 0.423883 28.112 0.552071 27.4335 0.840379C26.7551 1.12869 26.1522 1.56938 25.6715 2.12828C24.879 1.59592 23.945 1.31348 22.9903 1.31746C21.7724 1.31907 20.6002 1.78179 19.7097 2.61255C18.8191 3.44332 18.2761 4.58047 18.1899 5.79533C17.242 5.37068 16.1823 5.26312 15.1683 5.48856C14.1543 5.71401 13.2401 6.26046 12.5614 7.04679C11.8826 7.83312 11.4756 8.81739 11.4007 9.85343C11.3259 10.8895 11.5871 11.922 12.1457 12.7978C11.437 13.1414 10.8034 13.622 10.2815 14.2119C9.75962 14.8018 9.35983 15.4892 9.10518 16.2345C8.1838 18.6762 8.86561 21.2192 10.5333 22.4262C9.85237 22.8935 9.30352 23.5286 8.93981 24.27C8.57611 25.0115 8.40983 25.8342 8.45708 26.6587C8.50433 27.4832 8.7635 28.2816 9.20952 28.9767C9.65555 29.6717 10.2734 30.24 11.0032 30.6264C10.373 31.0632 9.89149 31.6823 9.6232 32.4006C9.35491 33.1189 9.3127 33.9021 9.50221 34.6451C9.69171 35.388 10.1039 36.0553 10.6834 36.5573C11.263 37.0594 11.9822 37.3722 12.7446 37.4538C12.7446 37.5644 12.7446 37.6749 12.7446 37.7855C12.7446 38.6408 13.0843 39.461 13.6891 40.0658C14.2939 40.6706 15.1141 41.0103 15.9694 41.0103C16.08 41.0103 16.1813 41.0103 16.2919 41.0103C16.3523 41.8169 16.7154 42.5709 17.3083 43.1211C17.9012 43.6713 18.6802 43.9771 19.4891 43.9772H19.572C19.8926 44.5473 20.3248 45.0469 20.8429 45.4461C21.3609 45.8453 21.9542 46.136 22.5872 46.3008C23.2202 46.4655 23.8799 46.5009 24.5268 46.4048C25.1738 46.3088 25.7948 46.0833 26.3526 45.7418C26.9104 45.4003 27.3936 44.9498 27.7734 44.4172C28.1531 43.8847 28.4216 43.2811 28.5627 42.6424C28.7038 42.0038 28.7147 41.3432 28.5947 40.7003C28.4748 40.0573 28.2263 39.4452 27.8644 38.9004L30.8865 38.7253C30.2993 39.5284 29.9772 40.4947 29.9651 41.4895C29.9484 42.6259 30.3293 43.7325 31.0421 44.6178C31.7548 45.5031 32.7545 46.1115 33.8684 46.3377C34.9822 46.564 36.1401 46.3939 37.1417 45.8569C38.1434 45.3198 38.9259 44.4496 39.3539 43.3967C40.2282 43.901 41.2409 44.1123 42.2439 43.9996C43.2469 43.8868 44.1875 43.456 44.9279 42.7701C45.6684 42.0843 46.1698 41.1794 46.3589 40.1879C46.548 39.1965 46.4147 38.1706 45.9786 37.2603C46.5707 37.186 47.1393 36.9823 47.644 36.6639C48.1487 36.3454 48.5773 35.92 48.8994 35.4176C49.3825 34.6819 49.6172 33.8108 49.5691 32.932C49.521 32.0532 49.1927 31.2129 48.6322 30.5343C49.3593 30.1124 49.9637 29.5079 50.3854 28.7807C50.8072 28.0535 51.0318 27.2287 51.037 26.3881Z" fill="#FFE000" stroke="#272833" stroke-linecap="round" stroke-linejoin="round"/>
<path d="M21.9584 42.669H36.8386C38.8204 42.669 40.7211 43.4563 42.1224 44.8576C43.5237 46.259 44.311 48.1596 44.311 50.1414V58.0468C44.311 58.4451 44.1528 58.8271 43.8711 59.1088C43.5895 59.3904 43.2075 59.5486 42.8092 59.5486H15.9879C15.7876 59.5536 15.5883 59.5183 15.4019 59.4451C15.2154 59.3718 15.0454 59.262 14.902 59.122C14.7587 58.9821 14.6447 58.8148 14.567 58.6302C14.4892 58.4455 14.4492 58.2472 14.4492 58.0468V50.1414C14.4492 49.157 14.6437 48.1823 15.0215 47.2733C15.3993 46.3643 15.9531 45.5389 16.6508 44.8446C17.3486 44.1502 18.1767 43.6006 19.0876 43.2272C19.9984 42.8539 20.9741 42.6642 21.9584 42.669Z" fill="white" stroke="#272833" stroke-linejoin="round"/>
<path d="M25.599 38.6973H33.2095C33.4197 38.6973 33.6212 38.7808 33.7698 38.9294C33.9184 39.078 34.0019 39.2796 34.0019 39.4897V44.244C34.0019 45.1799 33.6301 46.0775 32.9683 46.7393C32.3065 47.4011 31.4089 47.7729 30.473 47.7729H28.3262C27.3903 47.7729 26.4927 47.4011 25.8309 46.7393C25.1692 46.0775 24.7974 45.1799 24.7974 44.244V39.5173C24.7936 39.4102 24.8116 39.3034 24.8504 39.2035C24.8891 39.1035 24.9477 39.0124 25.0226 38.9358C25.0976 38.8591 25.1873 38.7984 25.2863 38.7574C25.3854 38.7165 25.4918 38.696 25.599 38.6973Z" fill="white" stroke="#272833" stroke-miterlimit="10"/>
<path d="M18.163 31.262H15.7122C15.123 31.224 14.5726 30.9548 14.1809 30.5131C13.7892 30.0713 13.5878 29.4927 13.6207 28.9032C13.5879 28.3147 13.7896 27.7371 14.1815 27.2968C14.5734 26.8565 15.1238 26.5893 15.7122 26.5537H17.9603" fill="white"/>
<path d="M18.163 31.262H15.7122C15.123 31.224 14.5726 30.9548 14.1809 30.5131C13.7892 30.0713 13.5878 29.4927 13.6207 28.9032C13.5879 28.3147 13.7896 27.7371 14.1815 27.2968C14.5734 26.8565 15.1238 26.5893 15.7122 26.5537H17.9603" stroke="#272833" stroke-linejoin="round"/>
<path d="M40.7277 31.262H42.9298C43.519 31.224 44.0693 30.9548 44.4611 30.5131C44.8528 30.0713 45.0541 29.4927 45.0213 28.9032C45.0541 28.3147 44.8524 27.7371 44.4605 27.2968C44.0685 26.8565 43.5182 26.5893 42.9298 26.5537H40.6816" fill="white"/>
<path d="M40.7277 31.262H42.9298C43.519 31.224 44.0693 30.9548 44.4611 30.5131C44.8528 30.0713 45.0541 29.4927 45.0213 28.9032C45.0541 28.3147 44.8524 27.7371 44.4605 27.2968C44.0685 26.8565 43.5182 26.5893 42.9298 26.5537H40.6816" stroke="#272833" stroke-linejoin="round"/>
<path d="M31.8734 7.4082H26.9256C22.2237 7.4082 18.4121 11.2198 18.4121 15.9217V31.9444C18.4121 36.6463 22.2237 40.458 26.9256 40.458H31.8734C36.5753 40.458 40.3869 36.6463 40.3869 31.9444V15.9217C40.3869 11.2198 36.5753 7.4082 31.8734 7.4082Z" fill="white" stroke="#272833" stroke-linejoin="round"/>
<path d="M24.225 26.7108C24.8153 26.7108 25.2938 26.2323 25.2938 25.642C25.2938 25.0518 24.8153 24.5732 24.225 24.5732C23.6348 24.5732 23.1562 25.0518 23.1562 25.642C23.1562 26.2323 23.6348 26.7108 24.225 26.7108Z" fill="#272833"/>
<path d="M34.5727 26.7108C35.163 26.7108 35.6415 26.2323 35.6415 25.642C35.6415 25.0518 35.163 24.5732 34.5727 24.5732C33.9824 24.5732 33.5039 25.0518 33.5039 25.642C33.5039 26.2323 33.9824 26.7108 34.5727 26.7108Z" fill="#272833"/>
<path d="M26.7676 32.3867C26.9449 32.9466 27.2959 33.4354 27.7697 33.7823C28.2435 34.1293 28.8155 34.3163 29.4027 34.3163C29.99 34.3163 30.5619 34.1293 31.0357 33.7823C31.5096 33.4354 31.8605 32.9466 32.0379 32.3867" stroke="#272833" stroke-miterlimit="10" stroke-linecap="round"/>
<path d="M17.8504 16.9533L16.625 12.6412L21.1029 7.95141L27.8013 5.50977L35.0802 6.54171L38.609 9.24134L41.4284 12.9084L42.184 16.9533L37.4481 17.8562H33.4401H27.2669L22.5955 17.3402L17.8504 16.9533Z" fill="#FFE000"/>
<path d="M14.707 16.8242C14.707 17.6428 15.0322 18.4279 15.6111 19.0068C16.1899 19.5856 16.975 19.9108 17.7936 19.9108C18.6123 19.9108 19.3974 19.5856 19.9762 19.0068C20.5551 18.4279 20.8803 17.6428 20.8803 16.8242" fill="#FFE000"/>
<path d="M14.707 16.8242C14.707 17.6428 15.0322 18.4279 15.6111 19.0068C16.1899 19.5856 16.975 19.9108 17.7936 19.9108C18.6123 19.9108 19.3974 19.5856 19.9762 19.0068C20.5551 18.4279 20.8803 17.6428 20.8803 16.8242" stroke="#272833" stroke-linecap="round" stroke-linejoin="round"/>
<path d="M20.9265 16.8242C20.9036 17.2431 20.9663 17.6623 21.1108 18.0562C21.2554 18.45 21.4787 18.8103 21.7671 19.1149C22.0555 19.4196 22.4031 19.6622 22.7884 19.8281C23.1738 19.9939 23.589 20.0794 24.0085 20.0794C24.428 20.0794 24.8432 19.9939 25.2285 19.8281C25.6139 19.6622 25.9614 19.4196 26.2499 19.1149C26.5383 18.8103 26.7616 18.45 26.9061 18.0562C27.0507 17.6623 27.1134 17.2431 27.0905 16.8242" fill="#FFE000"/>
<path d="M20.9265 16.8242C20.9036 17.2431 20.9663 17.6623 21.1108 18.0562C21.2554 18.45 21.4787 18.8103 21.7671 19.1149C22.0555 19.4196 22.4031 19.6622 22.7884 19.8281C23.1738 19.9939 23.589 20.0794 24.0085 20.0794C24.428 20.0794 24.8432 19.9939 25.2285 19.8281C25.6139 19.6622 25.9614 19.4196 26.2499 19.1149C26.5383 18.8103 26.7616 18.45 26.9061 18.0562C27.0507 17.6623 27.1134 17.2431 27.0905 16.8242" stroke="#272833" stroke-linecap="round" stroke-linejoin="round"/>
<path d="M27.0449 16.8242C27.0449 17.6428 27.3701 18.4279 27.9489 19.0068C28.5278 19.5856 29.3129 19.9108 30.1315 19.9108C30.9501 19.9108 31.7352 19.5856 32.3141 19.0068C32.8929 18.4279 33.2181 17.6428 33.2181 16.8242" fill="#FFE000"/>
<path d="M27.0449 16.8242C27.0449 17.6428 27.3701 18.4279 27.9489 19.0068C28.5278 19.5856 29.3129 19.9108 30.1315 19.9108C30.9501 19.9108 31.7352 19.5856 32.3141 19.0068C32.8929 18.4279 33.2181 17.6428 33.2181 16.8242" stroke="#272833" stroke-linecap="round" stroke-linejoin="round"/>
<path d="M33.2188 16.8247C33.2177 17.5102 33.4456 18.1765 33.8663 18.7178C34.2869 19.2591 34.8763 19.6444 35.5408 19.8126C36.2054 19.9809 36.9071 19.9224 37.5347 19.6465C38.1622 19.3706 38.6797 18.8931 39.005 18.2897C39.2109 18.6464 39.4864 18.9581 39.815 19.2064C40.1437 19.4547 40.5188 19.6345 40.9182 19.7351C41.3176 19.8357 41.7331 19.8552 42.1401 19.7923C42.5472 19.7293 42.9374 19.5853 43.2878 19.3688C43.6382 19.1523 43.9415 18.8677 44.1799 18.5318C44.4182 18.1959 44.5867 17.8155 44.6754 17.4133C44.764 17.0111 44.771 16.5952 44.6959 16.1902C44.6209 15.7852 44.4653 15.3994 44.2384 15.0557" fill="#FFE000"/>
<path d="M33.2188 16.8247C33.2177 17.5102 33.4456 18.1765 33.8663 18.7178C34.2869 19.2591 34.8763 19.6444 35.5408 19.8126C36.2054 19.9809 36.9071 19.9224 37.5347 19.6465C38.1622 19.3706 38.6797 18.8931 39.005 18.2897C39.2109 18.6464 39.4864 18.9581 39.815 19.2064C40.1437 19.4547 40.5188 19.6345 40.9182 19.7351C41.3176 19.8357 41.7331 19.8552 42.1401 19.7923C42.5472 19.7293 42.9374 19.5853 43.2878 19.3688C43.6382 19.1523 43.9415 18.8677 44.1799 18.5318C44.4182 18.1959 44.5867 17.8155 44.6754 17.4133C44.764 17.0111 44.771 16.5952 44.6959 16.1902C44.6209 15.7852 44.4653 15.3994 44.2384 15.0557" stroke="#272833" stroke-linecap="round" stroke-linejoin="round"/>
<path d="M24.5108 40.3008C24.5108 40.3008 22.9629 41.0747 22.9629 44.5023V51.6982L29.302 47.8469C29.302 47.8469 26.7313 45.8751 26.1324 44.3272C25.8039 43.0644 25.8039 41.7386 26.1324 40.4758L24.5108 40.3008Z" fill="white" stroke="#272833" stroke-linejoin="round"/>
<path d="M34.5822 40.3008C34.5822 40.3008 36.1301 41.0747 36.1301 44.5023V51.6982L29.791 47.8469C29.791 47.8469 32.3617 45.8751 32.9606 44.3272C33.2891 43.0644 33.2891 41.7386 32.9606 40.4758L34.5822 40.3008Z" fill="white" stroke="#272833" stroke-linejoin="round"/>
<path d="M29.4594 52.4354C30.0497 52.4354 30.5282 51.9569 30.5282 51.3666C30.5282 50.7764 30.0497 50.2979 29.4594 50.2979C28.8691 50.2979 28.3906 50.7764 28.3906 51.3666C28.3906 51.9569 28.8691 52.4354 29.4594 52.4354Z" fill="#272833"/>
<path d="M29.4594 56.1024C30.0497 56.1024 30.5282 55.6239 30.5282 55.0336C30.5282 54.4434 30.0497 53.9648 29.4594 53.9648C28.8691 53.9648 28.3906 54.4434 28.3906 55.0336C28.3906 55.6239 28.8691 56.1024 29.4594 56.1024Z" fill="#272833"/>
</g>
<defs>
<clipPath id="clip0_2185_37612">
<rect width="43.4982" height="60" fill="white" transform="translate(8)"/>
</clipPath>
</defs>
</svg>
