<svg width="60" height="60" viewBox="0 0 60 60" fill="none" xmlns="http://www.w3.org/2000/svg">
<g clip-path="url(#clip0_2185_37674)">
<path d="M22.4722 41.9941H37.9317C38.9528 41.9941 39.9639 42.1956 40.907 42.5869C41.8501 42.9782 42.7068 43.5518 43.4279 44.2747C44.1491 44.9976 44.7205 45.8557 45.1095 46.7998C45.4985 47.7439 45.6975 48.7554 45.695 49.7765V57.9801C45.695 58.185 45.6546 58.3879 45.5762 58.5772C45.4978 58.7665 45.3829 58.9385 45.238 59.0834C45.0931 59.2283 44.9211 59.3432 44.7318 59.4216C44.5425 59.5 44.3396 59.5404 44.1347 59.5404H16.2693C15.8555 59.5404 15.4586 59.376 15.166 59.0834C14.8734 58.7908 14.709 58.3939 14.709 57.9801V49.7765C14.7065 48.7554 14.9054 47.7439 15.2944 46.7998C15.6835 45.8557 16.2549 44.9976 16.976 44.2747C17.6972 43.5518 18.5538 42.9782 19.497 42.5869C20.4401 42.1956 21.4512 41.9941 22.4722 41.9941Z" fill="#FFE000" stroke="#272833" stroke-linecap="round" stroke-linejoin="round"/>
<path d="M37.8645 41.9941H22.5391L25.2193 59.5213H35.1842L37.8645 41.9941Z" fill="white" stroke="#272833" stroke-miterlimit="10"/>
<path d="M27.316 37.8873H33.0595C33.2778 37.8873 33.4872 37.974 33.6416 38.1284C33.796 38.2828 33.8827 38.4922 33.8827 38.7105V41.5823C33.8802 42.0645 33.7825 42.5416 33.5954 42.9861C33.4082 43.4305 33.1352 43.8337 32.792 44.1725C32.4487 44.5113 32.042 44.779 31.5951 44.9604C31.1483 45.1417 30.67 45.2331 30.1877 45.2294C29.2154 45.2294 28.2829 44.8431 27.5953 44.1555C26.9077 43.468 26.5215 42.5355 26.5215 41.5631V38.6914C26.5215 38.4731 26.6082 38.2637 26.7626 38.1093C26.917 37.9549 27.1264 37.8682 27.3447 37.8682L27.316 37.8873Z" fill="white" stroke="#272833" stroke-miterlimit="10"/>
<path d="M18.9492 12.4822C19.3495 10.476 20.4322 8.67029 22.0132 7.37197C23.5942 6.07365 25.576 5.36283 27.6218 5.36035H32.7718C34.8995 5.35925 36.9563 6.12517 38.565 7.51766C40.1737 8.91014 41.2266 10.8359 41.5306 12.9417C41.5885 13.3604 41.6173 13.7826 41.6167 14.2053" fill="white"/>
<path d="M18.9492 12.4822C19.3495 10.476 20.4322 8.67029 22.0132 7.37197C23.5942 6.07365 25.576 5.36283 27.6218 5.36035H32.7718C34.8995 5.35925 36.9563 6.12517 38.565 7.51766C40.1737 8.91014 41.2266 10.8359 41.5306 12.9417C41.5885 13.3604 41.6173 13.7826 41.6167 14.2053" stroke="#272833" stroke-linejoin="round"/>
<path d="M41.6173 24.8881V30.8613C41.6148 33.2055 40.6818 35.4527 39.0233 37.1094C37.3649 38.7661 35.1166 39.6967 32.7724 39.6967H27.6225C25.2792 39.6967 23.0319 38.7658 21.3749 37.1088C19.718 35.4519 18.7871 33.2046 18.7871 30.8613V24.8115" fill="white"/>
<path d="M41.6173 24.8881V30.8613C41.6148 33.2055 40.6818 35.4527 39.0233 37.1094C37.3649 38.7661 35.1166 39.6967 32.7724 39.6967H27.6225C25.2792 39.6967 23.0319 38.7658 21.3749 37.1088C19.718 35.4519 18.7871 33.2046 18.7871 30.8613V24.8115" stroke="#272833" stroke-linejoin="round"/>
<path d="M24.8272 25.4151C25.4405 25.4151 25.9376 24.918 25.9376 24.3047C25.9376 23.6915 25.4405 23.1943 24.8272 23.1943C24.2139 23.1943 23.7168 23.6915 23.7168 24.3047C23.7168 24.918 24.2139 25.4151 24.8272 25.4151Z" fill="#272833"/>
<path d="M35.5772 25.4151C36.1905 25.4151 36.6876 24.918 36.6876 24.3047C36.6876 23.6915 36.1905 23.1943 35.5772 23.1943C34.9639 23.1943 34.4668 23.6915 34.4668 24.3047C34.4668 24.918 34.9639 25.4151 35.5772 25.4151Z" fill="#272833"/>
<path d="M27.459 31.3115C27.6408 31.8968 28.005 32.4085 28.4984 32.772C28.9919 33.1354 29.5886 33.3315 30.2015 33.3315C30.8143 33.3315 31.4111 33.1354 31.9045 32.772C32.398 32.4085 32.7622 31.8968 32.944 31.3115" stroke="#272833" stroke-miterlimit="10" stroke-linecap="round"/>
<path d="M18.5371 30.1435H15.9812C15.3691 30.104 14.7973 29.8244 14.3904 29.3655C13.9834 28.9065 13.7742 28.3054 13.8083 27.6929C13.7743 27.0815 13.9838 26.4814 14.391 26.024C14.7982 25.5666 15.3699 25.289 15.9812 25.252H18.3169" stroke="#272833" stroke-miterlimit="10"/>
<path d="M41.7031 30.1435H44.2494C44.8615 30.104 45.4333 29.8244 45.8403 29.3655C46.2472 28.9065 46.4564 28.3054 46.4223 27.6929V27.6929C46.4564 27.0815 46.2469 26.4814 45.8397 26.024C45.4325 25.5666 44.8607 25.289 44.2494 25.252H41.9137" stroke="#272833" stroke-miterlimit="10"/>
<path d="M43.3874 50.7529H38.582V53.8065H43.3874V50.7529Z" fill="white" stroke="#272833" stroke-linecap="round" stroke-linejoin="round"/>
<path d="M23.8228 12.2914C23.8228 15.1632 23.2485 18.0349 18.7877 20.9736V24.8888L15.916 24.8409V15.9577C15.9472 14.1122 16.3416 12.291 17.0767 10.598C17.8119 8.90497 18.8733 7.37336 20.2005 6.09065C21.5276 4.80794 23.0945 3.79926 24.8115 3.1222C26.5286 2.44513 28.3622 2.11295 30.2076 2.14465V2.14465C33.7733 2.09078 37.2266 3.39176 39.8703 5.78497C42.514 8.17817 44.1512 11.4853 44.4514 15.0387V15.0387V24.8409H41.5797V18.3891C38.3502 18.8094 35.0672 18.4778 31.9871 17.4201C28.9069 16.3624 26.1128 14.6071 23.8228 12.2914Z" stroke="#272833" stroke-linejoin="round"/>
<path d="M33.997 10.4145C36.0035 10.2936 38.0095 10.6607 39.8432 11.4842C41.677 12.3077 43.284 13.5632 44.5266 15.1433V13.3724H44.4788C44.1739 9.8157 42.5313 6.507 39.8824 4.11395C37.2335 1.72091 33.7756 0.421673 30.2063 0.478341C26.6371 0.424303 23.1802 1.726 20.5332 4.12079C17.8861 6.51559 16.2459 9.82521 15.9434 13.382C21.7825 11.51 27.8659 10.51 33.997 10.4145Z" fill="#FFE000" stroke="#272833" stroke-linecap="round" stroke-linejoin="round"/>
<path d="M15.9062 13.6886C19.2441 10.2412 23.4019 7.69693 27.9908 6.294C32.5796 4.89107 37.4494 4.67529 42.1443 5.66686C52.2815 7.62921 44.5948 15.7179 44.5948 15.7179C44.5948 15.7179 34.7735 6.81556 15.9062 13.6886Z" fill="#FFE000" stroke="#272833" stroke-linecap="round" stroke-linejoin="round"/>
</g>
<defs>
<clipPath id="clip0_2185_37674">
<rect width="36.404" height="60" fill="white" transform="translate(12)"/>
</clipPath>
</defs>
</svg>
 