<svg width="28" height="28" viewBox="0 0 28 28" fill="none" xmlns="http://www.w3.org/2000/svg">
<path d="M10.0619 0H28L14 14L0 28V10.0619L10.0619 0Z" fill="#FFE000"/>
<path d="M14.125 7.24994C13.9686 7.66729 13.7293 7.95426 13.5979 8.08569C12.8805 8.80311 11.7362 8.99767 10.8324 8.5007C10.3923 8.25203 10.1196 7.9074 10.0248 7.7651C9.3847 6.83816 9.48459 5.5752 10.2857 4.77406C10.9672 4.09264 11.9922 3.96968 12.8962 4.32401C13.3005 4.48939 13.5499 4.71483 13.6688 4.83369C14.2747 5.43849 14.4499 6.42687 14.125 7.24994ZM11.7238 2.52926C10.4485 2.64087 9.57628 3.41835 9.26542 3.72921C8.20143 4.7932 7.76711 6.27202 8.26239 7.72386C8.47491 8.31868 8.78285 8.7466 8.93708 8.92483C9.72008 9.85126 10.9687 10.4068 12.1724 10.319C12.6372 10.2815 13.71 10.0869 14.6426 9.15437C15.7426 8.05437 16.1174 6.49264 15.5627 5.02932C15.4682 4.76746 15.2439 4.20828 14.7098 3.67412C13.9262 2.89062 12.7962 2.45368 11.7238 2.52926Z" fill="#272833"/>
<path d="M12.5146 5.89318C12.8177 6.19628 12.8162 6.68982 12.5107 6.99537C12.2051 7.30093 11.7119 7.30269 11.4085 6.99932C11.1051 6.69594 11.1069 6.20268 11.4124 5.89713C11.718 5.59157 12.2113 5.58981 12.5146 5.89318Z" fill="#272833"/>
<path d="M8.6172 12.7778C8.46084 13.1951 8.22152 13.4821 8.09009 13.6135C7.37267 14.3309 6.22837 14.5255 5.32455 14.0285C4.88446 13.7799 4.61182 13.4352 4.51724 13.2927C3.87716 12.3657 3.97705 11.1028 4.77819 10.3016C5.45962 9.62019 6.48466 9.49724 7.3887 9.85157C7.79295 10.0169 8.04238 10.2424 8.16124 10.3612C8.7666 10.9666 8.94185 11.9544 8.6172 12.7778ZM6.21566 8.05681C4.9407 8.1687 4.06847 8.94618 3.75761 9.25704C2.69361 10.321 2.25929 11.7998 2.75458 13.2517C2.96654 13.8465 3.27476 14.2742 3.42899 14.4524C4.21199 15.3788 5.46065 15.9343 6.66434 15.8466C7.12909 15.8091 8.20193 15.6145 9.13422 14.6822C10.2342 13.5822 10.6091 12.0205 10.0543 10.5572C9.95987 10.2953 9.73555 9.73612 9.20139 9.20196C8.41843 8.41845 7.28835 7.98151 6.21566 8.05681Z" fill="#272833"/>
<path d="M7.00682 11.421C7.30991 11.7241 7.30842 12.2176 7.00287 12.5232C6.69732 12.8288 6.20406 12.8305 5.90068 12.5271C5.59731 12.2238 5.59908 11.7305 5.90463 11.425C6.21018 11.1194 6.70372 11.1179 7.00682 11.421Z" fill="#272833"/>
</svg>
