<svg width="20" height="15" viewBox="0 0 20 15" fill="none" xmlns="http://www.w3.org/2000/svg">
<path d="M0 3.5C0 1.84315 1.34315 0.5 3 0.5H20V12.5C20 13.6046 19.1046 14.5 18 14.5H0V3.5Z" fill="#FFE000"/>
<path d="M14.9851 9.57335C14.5693 9.76249 14.1879 9.79703 13.9974 9.79703C12.9576 9.79703 11.9873 9.10874 11.6924 8.09356C11.5537 7.59441 11.6059 7.14706 11.6403 6.97519C11.8482 5.83955 12.8358 4.99665 13.997 4.99665C14.9847 4.99665 15.8167 5.65041 16.2151 6.56238C16.3882 6.97519 16.4056 7.31934 16.4056 7.49161C16.4064 8.36904 15.8171 9.21234 14.9851 9.57335ZM16.666 4.41197C15.661 3.56867 14.4654 3.5 14.0148 3.5C12.4726 3.5 11.0862 4.25696 10.3929 5.66808C10.1159 6.25317 10.0289 6.78645 10.0115 7.0274C9.90758 8.26624 10.4099 9.57375 11.3458 10.3825C11.7098 10.6921 12.6284 11.3286 13.98 11.3286C15.5744 11.3286 16.9779 10.4685 17.6363 9.00593C17.7577 8.74772 18.0003 8.1799 18.0003 7.40567C18.0003 6.27003 17.498 5.13439 16.666 4.41197Z" fill="#272833"/>
<path d="M14.8005 7.42238C14.8005 7.8617 14.4418 8.21829 13.9989 8.21829C13.556 8.21829 13.1973 7.8621 13.1973 7.42238C13.1973 6.98266 13.556 6.62646 13.9989 6.62646C14.4418 6.62646 14.8005 6.98266 14.8005 7.42238Z" fill="#272833"/>
<path d="M6.98707 9.588C6.57129 9.77714 6.18989 9.81168 5.99939 9.81168C4.95953 9.81168 3.98924 9.12338 3.6944 8.10821C3.55567 7.60906 3.60784 7.16171 3.64263 6.98984C3.85052 5.8542 4.8382 5.0113 5.99939 5.0113C6.98707 5.0113 7.81904 5.66506 8.21743 6.57702C8.39054 6.98984 8.40793 7.33399 8.40793 7.50626C8.40793 8.38369 7.81904 9.22659 6.98707 9.588ZM8.66799 4.42621C7.66292 3.58332 6.46735 3.51465 6.01678 3.51465C4.47459 3.51465 3.08812 4.27161 2.39488 5.68273C2.11742 6.26741 2.03087 6.8007 2.01348 7.04164C1.90953 8.28049 2.41187 9.588 3.34778 10.3968C3.71179 10.7064 4.63031 11.3429 5.9816 11.3429C7.57596 11.3429 8.97942 10.4827 9.63788 9.02018C9.75921 8.76197 10.0019 8.19415 10.0019 7.41992C10.0023 6.28468 9.49996 5.14904 8.66799 4.42621Z" fill="#272833"/>
<path d="M6.80248 7.43703C6.80248 7.87634 6.44373 8.23294 6.00085 8.23294C5.55797 8.23294 5.19922 7.87675 5.19922 7.43703C5.19922 6.99731 5.55797 6.64111 6.00085 6.64111C6.44373 6.64111 6.80248 6.99771 6.80248 7.43703Z" fill="#272833"/>
</svg>
