<svg width="68" height="65" viewBox="0 0 68 65" fill="none" xmlns="http://www.w3.org/2000/svg">
<path d="M15.9 52.5L9 47.8V15.7L15.9 11V52.5Z" fill="#2CD2AD"/>
<path d="M58.6001 11H17.1001V52.51H58.6001V11Z" fill="#2CD2AD"/>
<path d="M35.6 37.3H24.2V38.57H35.6V37.3Z" fill="#004BE6"/>
<path d="M25.4 30.5H27.9V36.1H25.4V30.5ZM26.6 24.9L24 29.4H29.2L26.6 24.9Z" fill="#004BE6"/>
<path d="M32.0001 30.5H34.5001V36.1H32.0001V30.5ZM33.2001 24.9L30.6001 29.4H35.8001L33.2001 24.9Z" fill="#004BE6"/>
<path d="M51.6 29.3C51.0597 28.0084 50.1497 26.9054 48.9842 26.1296C47.8188 25.3539 46.45 24.9399 45.05 24.9399C43.65 24.9399 42.2812 25.3539 41.1158 26.1296C39.9504 26.9054 39.0403 28.0084 38.5 29.3H51.6Z" fill="#004BE6"/>
<path d="M46.7 38.5C46.4242 38.5135 46.1484 38.4724 45.8884 38.3791C45.6285 38.2858 45.3895 38.1422 45.1851 37.9564C44.9808 37.7706 44.8151 37.5464 44.6975 37.2964C44.5799 37.0465 44.5128 36.7759 44.5 36.5V30.4H45.7V36.5C45.7 37.3 46.7 37.3 46.7 37.3C46.9387 37.3 47.1676 37.2052 47.3364 37.0364C47.5052 36.8676 47.6 36.6387 47.6 36.4H48.8C48.8 36.957 48.5788 37.4911 48.1849 37.8849C47.7911 38.2788 47.257 38.5 46.7 38.5V38.5Z" fill="#004BE6"/>
</svg>
