<svg width="40" height="40" viewBox="0 0 40 40" fill="none" xmlns="http://www.w3.org/2000/svg">
<rect x="5.5" y="0.5" width="29" height="39" rx="3.5" stroke="#272833" stroke-dasharray="2 2"/>
<path d="M19 13.5H27C28.3807 13.5 29.5 14.6193 29.5 16V31C29.5 32.3807 28.3807 33.5 27 33.5H19C17.6193 33.5 16.5 32.3807 16.5 31V16C16.5 14.6193 17.6193 13.5 19 13.5Z" stroke="#272833"/>
<path d="M10 10C10 7.79086 11.7909 6 14 6H21C23.2091 6 25 7.79086 25 10V12H18C16.3431 12 15 13.3431 15 15V29H14C11.7909 29 10 27.2091 10 25V10Z" fill="#272833"/>
</svg>
