<svg width="68" height="65" viewBox="0 0 68 65" fill="none" xmlns="http://www.w3.org/2000/svg">
<path d="M32.9598 43.1077L14.2598 3.60767L13.0598 4.20767L5.05981 8.00766L6.15981 10.3077L12.1598 7.50766L29.6598 44.5077C30.7024 43.9157 31.8097 43.446 32.9598 43.1077Z" fill="#004BE6"/>
<path d="M47.5599 50.4077L62.8599 43.1077L61.3599 39.9077L45.8599 47.3077C46.5803 48.249 47.1535 49.2942 47.5599 50.4077Z" fill="#004BE6"/>
<path d="M36.2599 42.6078C39.1507 42.624 41.9451 43.6498 44.1599 45.5078L67.7599 34.4078L55.4599 8.50781L25.8599 22.4078L35.4599 42.7078L36.2599 42.6078Z" fill="#2CD2AD"/>
<path d="M37.8697 -6.62194e-05L19.5168 8.67529L25.081 20.4464L43.4339 11.7711L37.8697 -6.62194e-05Z" fill="#2CD2AD"/>
<path d="M8.58169 5.40266L0 9.47754L2.03744 13.7684L10.6191 9.6935L8.58169 5.40266Z" fill="#0053FF"/>
<path d="M44.5575 54.6926V54.7088L44.5578 54.7249C44.5943 56.4212 44.1223 58.0897 43.2026 59.5155C42.2828 60.9412 40.9574 62.0591 39.3969 62.7252C37.8364 63.3914 36.1123 63.5752 34.4464 63.2532C32.7805 62.9311 31.2492 62.1179 30.0494 60.9181C28.8497 59.7184 28.0364 58.187 27.7143 56.5211C27.3923 54.8553 27.5762 53.1311 28.2423 51.5706C28.9084 50.0101 30.0263 48.6847 31.4521 47.7649C32.8779 46.8452 34.5463 46.3732 36.2426 46.4097L36.2588 46.41H36.2749C38.4716 46.41 40.5783 47.2826 42.1316 48.8359C43.6849 50.3892 44.5575 52.496 44.5575 54.6926Z" fill="white" stroke="#004BE6" stroke-width="3"/>
<path d="M40.76 54.8077C40.7797 55.7257 40.5243 56.6286 40.0265 57.4002C39.5288 58.1718 38.8115 58.7768 37.967 59.1373C37.1225 59.4978 36.1894 59.5973 35.2879 59.423C34.3864 59.2487 33.5576 58.8086 32.9084 58.1593C32.2591 57.51 31.819 56.6813 31.6447 55.7798C31.4704 54.8783 31.5699 53.9452 31.9304 53.1007C32.2909 52.2562 32.8958 51.5389 33.6674 51.0411C34.439 50.5434 35.342 50.288 36.26 50.3077C37.4534 50.3077 38.598 50.7818 39.442 51.6257C40.2859 52.4696 40.76 53.6142 40.76 54.8077Z" fill="#004BE6"/>
<path d="M47.2311 34.2553L36.9417 39.1631L37.4841 40.3004L47.7736 35.3925L47.2311 34.2553Z" fill="#004BE6"/>
<path d="M35.06 32.4077L37.36 31.4077L39.76 36.4077L37.56 37.5077L35.06 32.4077ZM33.86 26.9077L33.46 32.1077L38.16 29.8077L33.86 26.9077Z" fill="#004BE6"/>
<path d="M41.0599 29.6077L43.3599 28.5077L45.7599 33.6077L43.4599 34.6077L41.0599 29.6077ZM39.7599 24.1077L39.3599 29.2077L44.0599 27.0077L39.7599 24.1077Z" fill="#004BE6"/>
<path d="M58.2598 20.1078C57.2398 19.1671 55.9632 18.5508 54.5922 18.3372C53.2213 18.1235 51.8177 18.3221 50.5598 18.9077C49.285 19.5144 48.2167 20.4824 47.4877 21.6915C46.7587 22.9005 46.4013 24.2972 46.4598 25.7078L58.2598 20.1078Z" fill="#004BE6"/>
<path d="M57.8599 30.5078C57.6118 30.6456 57.3383 30.7317 57.0561 30.7609C56.7738 30.7901 56.4885 30.7619 56.2175 30.6777C55.9464 30.5936 55.6952 30.4554 55.4791 30.2715C55.2629 30.0876 55.0863 29.8618 54.9599 29.6078L52.3599 24.2078L53.4599 23.7078L56.0599 29.1078C56.3599 29.9078 57.2599 29.5077 57.3599 29.4077C57.571 29.3006 57.7313 29.1145 57.8062 28.8899C57.8811 28.6653 57.8644 28.4202 57.7599 28.2078L58.7599 27.7078C58.896 27.9482 58.9808 28.2143 59.0089 28.4892C59.0371 28.7641 59.008 29.0419 58.9234 29.305C58.8388 29.568 58.7007 29.8107 58.5176 30.0178C58.3346 30.2248 58.1106 30.3916 57.8599 30.5078Z" fill="#004BE6"/>
</svg>
