<svg width="26" height="24" viewBox="0 0 26 24" fill="none" xmlns="http://www.w3.org/2000/svg">
<path d="M12.8305 11.4C12.025 11.4 11.2524 11.0839 10.6828 10.5213C10.1132 9.95871 9.79324 9.19565 9.79324 8.4C9.79324 7.60435 10.1132 6.84129 10.6828 6.27868C11.2524 5.71607 12.025 5.4 12.8305 5.4C13.636 5.4 14.4086 5.71607 14.9782 6.27868C15.5478 6.84129 15.8678 7.60435 15.8678 8.4C15.8678 8.79397 15.7892 9.18407 15.6366 9.54805C15.4839 9.91203 15.2602 10.2427 14.9782 10.5213C14.6961 10.7999 14.3613 11.0209 13.9928 11.1716C13.6243 11.3224 13.2294 11.4 12.8305 11.4ZM12.8305 0C10.575 0 8.41191 0.884997 6.81703 2.4603C5.22216 4.03561 4.32617 6.17218 4.32617 8.4C4.32617 14.7 12.8305 24 12.8305 24C12.8305 24 21.3348 14.7 21.3348 8.4C21.3348 6.17218 20.4389 4.03561 18.844 2.4603C17.2491 0.884997 15.086 0 12.8305 0Z" fill="#272833"/>
</svg>
