<svg width="25" height="24" viewBox="0 0 25 24" fill="none" xmlns="http://www.w3.org/2000/svg">
<path d="M12.3701 11.4C11.5645 11.4 10.792 11.0839 10.2224 10.5213C9.65279 9.95871 9.3328 9.19565 9.3328 8.4C9.3328 7.60435 9.65279 6.84129 10.2224 6.27868C10.792 5.71607 11.5645 5.4 12.3701 5.4C13.1756 5.4 13.9481 5.71607 14.5177 6.27868C15.0873 6.84129 15.4073 7.60435 15.4073 8.4C15.4073 8.79397 15.3288 9.18407 15.1761 9.54805C15.0235 9.91203 14.7998 10.2427 14.5177 10.5213C14.2357 10.7999 13.9009 11.0209 13.5324 11.1716C13.1639 11.3224 12.7689 11.4 12.3701 11.4ZM12.3701 0C10.1146 0 7.95146 0.884997 6.35658 2.4603C4.76171 4.03561 3.86572 6.17218 3.86572 8.4C3.86572 14.7 12.3701 24 12.3701 24C12.3701 24 20.8744 14.7 20.8744 8.4C20.8744 6.17218 19.9784 4.03561 18.3835 2.4603C16.7887 0.884997 14.6255 0 12.3701 0Z" fill="#FF4D4D"/>
</svg>
