<svg width="66" height="59" viewBox="0 0 66 59" fill="none" xmlns="http://www.w3.org/2000/svg">
<g clip-path="url(#clip0)">
<path d="M64.3124 49.6094H7.81715C6.88503 49.6094 6.12939 50.363 6.12939 51.2926V54.1628C6.12939 55.0924 6.88503 55.846 7.81715 55.846H64.3124C65.2446 55.846 66.0002 55.0924 66.0002 54.1628V51.2926C66.0002 50.363 65.2446 49.6094 64.3124 49.6094Z" fill="#004BE6"/>
<path d="M16.3446 57.8484C16.3446 58.4685 15.634 59.0001 14.6569 59.0001H11.0149C10.0378 59.0001 9.32715 58.4685 9.32715 57.8484C9.32715 57.2283 10.0378 56.6968 11.0149 56.6968H14.6569C15.634 56.6968 16.3446 57.2283 16.3446 57.8484Z" fill="#2CD2AD"/>
<path d="M62.1806 57.8484C62.1806 58.4685 61.4699 59.0001 60.4928 59.0001H56.8508C55.8737 59.0001 55.1631 58.4685 55.1631 57.8484C55.1631 57.2283 55.8737 56.6968 56.8508 56.6968H60.4928C61.4699 56.6968 62.1806 57.2283 62.1806 57.8484Z" fill="#2CD2AD"/>
<path d="M66.0002 47.8376C66.0002 48.192 65.7337 48.5463 64.7566 48.5463H7.373C6.39588 48.5463 6.12939 48.192 6.12939 47.8376C6.12939 47.4833 6.39588 47.1289 7.373 47.1289H64.7566C65.7337 47.1289 66.0002 47.4833 66.0002 47.8376Z" fill="#004BE6"/>
<path d="M10.3042 15.6802V44.2057C10.3042 44.6521 10.482 45.0802 10.7985 45.3959C11.115 45.7116 11.5443 45.8889 11.9919 45.8889H13.7685C14.2162 45.8889 14.6454 45.7116 14.962 45.3959C15.2785 45.0802 15.4563 44.6521 15.4563 44.2057V15.6802H10.3042Z" fill="#004BE6"/>
<path d="M49.8329 19.6665H22.3848V45.7824H49.8329V19.6665Z" fill="#2CD2AD"/>
<path d="M56.3175 19.6665H50.8101V45.7824H56.3175V19.6665Z" fill="#2CD2AD"/>
<path d="M12.8802 0C9.46417 0 6.18804 1.35334 3.77253 3.76231C1.35702 6.17128 0 9.43856 0 12.8454V13.3769C0.0888291 13.997 0.444146 14.4399 1.42127 14.4399H24.428C25.4051 14.4399 25.6716 13.997 25.7604 13.3769V12.8454C25.7604 9.43856 24.4034 6.17128 21.9879 3.76231C19.5724 1.35334 16.2963 0 12.8802 0ZM1.68775 12.7568C1.68775 9.79638 2.86695 6.95724 4.96595 4.86392C7.06494 2.77061 9.91179 1.5946 12.8802 1.5946C15.8486 1.5946 18.6955 2.77061 20.7945 4.86392C22.8935 6.95724 24.0727 9.79638 24.0727 12.7568H1.68775Z" fill="#2CD2AD"/>
<path d="M23.0152 9.77467L19.9263 10.6001L20.1171 11.3103L23.206 10.4849L23.0152 9.77467Z" fill="#004BE6"/>
<path d="M21.9379 7.24525L19.1685 8.83984L19.5371 9.47663L22.3065 7.88204L21.9379 7.24525Z" fill="#004BE6"/>
<path d="M20.1831 5.12576L17.9219 7.38086L18.4432 7.90079L20.7044 5.64569L20.1831 5.12576Z" fill="#004BE6"/>
<path d="M18.7742 3.21222L17.1753 5.98682L17.8167 6.35446L19.4157 3.57986L18.7742 3.21222Z" fill="#004BE6"/>
<path d="M15.2115 2.48833L14.3838 5.56885L15.0959 5.75915L15.9236 2.67863L15.2115 2.48833Z" fill="#004BE6"/>
<path d="M13.1467 2.21484H12.436V6.47596H13.1467V2.21484Z" fill="#004BE6"/>
<path d="M10.4467 2.4362L9.76025 2.61963L10.5971 5.73438L11.2835 5.55095L10.4467 2.4362Z" fill="#004BE6"/>
<path d="M7.8581 3.47719L7.24268 3.83154L8.85936 6.62415L9.47479 6.26979L7.8581 3.47719Z" fill="#004BE6"/>
<path d="M5.50758 5.13818L7.81714 7.3529L7.28416 7.88443L4.97461 5.58113L5.50758 5.13818Z" fill="#004BE6"/>
<path d="M3.7308 7.26416L6.57333 8.85875L6.21802 9.47887L3.37549 7.88428L3.7308 7.26416Z" fill="#004BE6"/>
<path d="M2.5761 9.8335L5.68511 10.6308L5.50745 11.3395L2.39844 10.5422L2.5761 9.8335Z" fill="#004BE6"/>
<path d="M15.3825 4.62038L12.8125 9.87549L14.1378 10.5201L16.7079 5.26504L15.3825 4.62038Z" fill="#2CD2AD"/>
<path d="M11.7253 11.9595C11.8569 11.7766 12.0302 11.6275 12.231 11.5247C12.4319 11.4219 12.6543 11.3683 12.88 11.3683C13.1058 11.3683 13.3282 11.4219 13.5291 11.5247C13.7299 11.6275 13.9032 11.7766 14.0348 11.9595H15.9002C15.735 11.285 15.3475 10.6853 14.7999 10.2565C14.2523 9.82778 13.5763 9.59473 12.88 9.59473C12.1838 9.59473 11.5078 9.82778 10.9602 10.2565C10.4126 10.6853 10.0251 11.285 9.85986 11.9595H11.7253Z" fill="#004BE6"/>
<path d="M34.1993 37.5615H24.0728V38.6866H34.1993V37.5615Z" fill="#004BE6"/>
<path d="M25.0498 31.626H27.2705V36.587H25.0498V31.626ZM26.2046 26.665L23.895 30.6515H28.5141L26.2046 26.665Z" fill="#004BE6"/>
<path d="M30.9126 31.626H33.2221V36.587H30.9126V31.626ZM32.0674 26.665L29.7578 30.6515H34.3769L32.0674 26.665Z" fill="#004BE6"/>
<path d="M48.412 30.5632C47.9321 29.419 47.1237 28.4418 46.0884 27.7546C45.0532 27.0673 43.8373 26.7007 42.5937 26.7007C41.3501 26.7007 40.1342 27.0673 39.099 27.7546C38.0637 28.4418 37.2553 29.419 36.7754 30.5632H48.412Z" fill="#004BE6"/>
<path d="M44.0592 38.7133C43.8142 38.7252 43.5692 38.6888 43.3383 38.6062C43.1074 38.5235 42.8951 38.3963 42.7136 38.2317C42.532 38.0671 42.3849 37.8684 42.2804 37.647C42.176 37.4257 42.1164 37.1859 42.105 36.9415V31.5376H43.0821V36.9415C43.1709 37.6502 44.0592 37.7388 44.0592 37.7388C44.2646 37.7192 44.4567 37.6289 44.6026 37.4834C44.7484 37.3379 44.839 37.1463 44.8587 36.9415H45.9246C45.9018 37.4194 45.6952 37.8701 45.3478 38.2001C45.0004 38.53 44.539 38.7138 44.0592 38.7133Z" fill="#004BE6"/>
</g>
<defs>
<clipPath id="clip0">
<rect width="66" height="59" fill="white"/>
</clipPath>
</defs>
</svg>
