<svg width="66" height="46" viewBox="0 0 66 46" fill="none" xmlns="http://www.w3.org/2000/svg">
<path d="M61.4356 27.2417L52.3076 42.4551H55.3503L64.4783 27.2417H61.4356Z" fill="#CDCED9"/>
<path d="M61.4353 27.2419L51.6987 10.7349L54.7414 10.4692L64.478 27.2419H61.4353Z" fill="#CDCED9"/>
<path d="M60.6751 42.4551H45.4618C44.6216 42.4551 43.9404 43.1362 43.9404 43.9764C43.9404 44.8166 44.6216 45.4978 45.4618 45.4978H60.6751C61.5153 45.4978 62.1965 44.8166 62.1965 43.9764C62.1965 43.1362 61.5153 42.4551 60.6751 42.4551Z" fill="#004BE6"/>
<path d="M32.6097 17.5064C32.4318 17.5065 32.2595 17.4442 32.1228 17.3304C31.986 17.2166 31.8935 17.0585 31.8612 16.8836C31.829 16.7086 31.8591 16.5279 31.9463 16.3728C32.0335 16.2178 32.1723 16.0982 32.3385 16.0349L38.8593 13.548C39.0475 13.4774 39.256 13.4841 39.4393 13.5668C39.6225 13.6495 39.7656 13.8014 39.8372 13.9892C39.9088 14.177 39.9031 14.3856 39.8215 14.5693C39.7398 14.7529 39.5887 14.8968 39.4012 14.9695L32.8805 17.4563C32.794 17.4893 32.7023 17.5063 32.6097 17.5064Z" fill="#2CD2AD"/>
<path d="M34.2731 22.0204C34.1155 22.0205 33.9617 21.9715 33.8331 21.8804C33.7045 21.7892 33.6073 21.6604 33.5551 21.5116C33.5029 21.3629 33.4982 21.2016 33.5417 21.0501C33.5851 20.8985 33.6746 20.7642 33.7977 20.6658L39.7376 15.914C39.8953 15.7901 40.0956 15.7335 40.2948 15.7565C40.4941 15.7795 40.6762 15.8804 40.8015 16.037C40.9268 16.1936 40.9851 16.3934 40.9638 16.5928C40.9426 16.7923 40.8434 16.9753 40.6878 17.1019L34.7481 21.8537C34.6134 21.9618 34.4458 22.0206 34.2731 22.0204Z" fill="#2CD2AD"/>
<path d="M38.1691 24.9428C38.034 24.9426 37.9014 24.9065 37.7848 24.8381C37.6683 24.7697 37.5721 24.6715 37.5061 24.5536C37.4401 24.4357 37.4067 24.3024 37.4093 24.1673C37.4119 24.0322 37.4505 23.9003 37.521 23.785L41.1413 17.8685C41.1935 17.7833 41.2619 17.7092 41.3427 17.6505C41.4234 17.5917 41.515 17.5494 41.6121 17.526C41.7092 17.5026 41.81 17.4986 41.9087 17.5142C42.0074 17.5297 42.102 17.5646 42.1872 17.6167C42.2724 17.6688 42.3465 17.7373 42.4053 17.818C42.4641 17.8988 42.5064 17.9904 42.5297 18.0875C42.5531 18.1846 42.5572 18.2854 42.5416 18.3841C42.526 18.4827 42.4912 18.5774 42.439 18.6626L38.8185 24.5793C38.7504 24.6905 38.655 24.7822 38.5413 24.8459C38.4276 24.9095 38.2994 24.9429 38.1691 24.9428Z" fill="#2CD2AD"/>
<path d="M46.9824 40.1733H49.2644V42.4553H46.9824V40.1733Z" fill="#004BE6"/>
<path d="M62.9572 30.2846C64.6376 30.2846 65.9999 28.9223 65.9999 27.2419C65.9999 25.5615 64.6376 24.1992 62.9572 24.1992C61.2768 24.1992 59.9146 25.5615 59.9146 27.2419C59.9146 28.9223 61.2768 30.2846 62.9572 30.2846Z" fill="#CDCED9"/>
<path d="M59.032 7.85371L55.6985 11.1879L50.6343 3.59349L54.9937 1.79775C55.787 1.471 56.6691 1.4292 57.4898 1.67947C58.3105 1.92974 59.0191 2.45662 59.4951 3.17047C59.9711 3.88431 60.1851 4.74104 60.1007 5.59488C60.0163 6.44872 59.6386 7.24694 59.032 7.85371Z" fill="#004BE6"/>
<path d="M42.1963 4.64404L43.3829 3.85247C43.7396 3.61454 44.1762 3.52805 44.5967 3.61202C45.0171 3.69599 45.387 3.94354 45.6249 4.30022L53.1184 15.5338C53.3564 15.8905 53.4429 16.327 53.3589 16.7475C53.2749 17.1679 53.0274 17.5378 52.6707 17.7757L51.4841 18.5673L42.1963 4.64404Z" fill="#CDCED9"/>
<path d="M51.4785 18.5767L50.2919 19.3682C49.9352 19.6062 49.4986 19.6927 49.0782 19.6087C48.6577 19.5247 48.2878 19.2772 48.0499 18.9205L40.5564 7.68693C40.3184 7.33025 40.2319 6.89366 40.3159 6.47321C40.3999 6.05276 40.6474 5.68288 41.0041 5.44495L42.1908 4.65338L51.4785 18.5767Z" fill="#E7E7ED"/>
<path d="M47.26 14.9861C46.5887 15.4338 45.7669 15.5964 44.9756 15.4383C44.1843 15.2801 43.4882 14.8141 43.0405 14.1427C42.5928 13.4713 42.4302 12.6496 42.5883 11.8582C42.7465 11.0669 43.2125 10.3709 43.8839 9.92316L45.1497 9.0791L48.5258 14.142L47.26 14.9861Z" fill="#2CD2AD"/>
<path d="M45.5713 4.22168L46.4525 3.63386C47.8973 2.67009 49.6657 2.31974 51.3688 2.65986C53.0719 2.99999 54.5702 4.00275 55.5339 5.44753L55.8653 5.94426C56.8291 7.38904 57.1794 9.15751 56.8393 10.8606C56.4992 12.5637 55.4964 14.0619 54.0516 15.0257L53.1704 15.6135L45.5713 4.22176L45.5713 4.22168Z" fill="#004BE6"/>
<path d="M18.8273 43.145H1.56934V38.2602C1.56933 36.2999 1.88537 34.3523 2.50528 32.4926L3.13824 30.5938H17.2584L17.8913 32.4926C18.5112 34.3523 18.8273 36.2999 18.8273 38.2602V43.145Z" fill="#2CD2AD"/>
<path d="M16.4735 27.4558H3.92225C2.89924 25.9213 2.35334 24.1184 2.35335 22.2741V9.41346C1.65644 9.12308 1.06107 8.63291 0.642272 8.00472C0.223478 7.37653 0 6.63843 0 5.88344V5.49121H18.0424V22.2741C18.0424 24.1184 17.4965 25.9213 16.4735 27.4558Z" fill="#E7E7ED"/>
<path d="M18.042 5.49083H2.35303C2.57709 4.59457 3.09432 3.79892 3.8225 3.23038C4.55068 2.66183 5.44802 2.35302 6.37187 2.35303H14.0232C14.9471 2.35302 15.8444 2.66183 16.5726 3.23038C17.3008 3.79892 17.818 4.59457 18.042 5.49083Z" fill="#004BE6"/>
<path d="M3.13721 27.4556H17.2573V30.5934H3.13721V27.4556Z" fill="#2CD2AD"/>
<path d="M21.3759 6.27539H18.042V9.41319H21.1798V18.8266H18.042V21.9644H21.3759C22.1561 21.9644 22.9043 21.6545 23.456 21.1028C24.0077 20.5511 24.3176 19.8029 24.3176 19.0227V9.21708C24.3176 8.4369 24.0077 7.68867 23.456 7.13699C22.9043 6.58532 22.1561 6.27539 21.3759 6.27539Z" fill="#CDCED9"/>
<path d="M10.1974 40.0071C11.9303 40.0071 13.3352 38.6022 13.3352 36.8692C13.3352 35.1363 11.9303 33.7314 10.1974 33.7314C8.46441 33.7314 7.05957 35.1363 7.05957 36.8692C7.05957 38.6022 8.46441 40.0071 10.1974 40.0071Z" fill="#004BE6"/>
<path d="M2.35303 43.145H5.49083V45.4984H2.35303V43.145Z" fill="#E7E7ED"/>
<path d="M14.9043 43.145H18.0421V45.4984H14.9043V43.145Z" fill="#E7E7ED"/>
<path d="M2.35303 43.145H5.49083V43.9295H2.35303V43.145Z" fill="#CDCED9"/>
<path d="M14.9043 43.145H18.0421V43.9295H14.9043V43.145Z" fill="#CDCED9"/>
<path d="M11.767 10.9825H8.62918C8.42113 10.9825 8.2216 10.8998 8.07449 10.7527C7.92737 10.6056 7.84473 10.4061 7.84473 10.198C7.84473 9.98998 7.92737 9.79045 8.07449 9.64333C8.2216 9.49622 8.42113 9.41357 8.62918 9.41357H11.767C11.975 9.41357 12.1746 9.49622 12.3217 9.64333C12.4688 9.79045 12.5514 9.98998 12.5514 10.198C12.5514 10.4061 12.4688 10.6056 12.3217 10.7527C12.1746 10.8998 11.975 10.9825 11.767 10.9825Z" fill="#F8F8FA"/>
<path d="M11.767 14.1202H8.62918C8.42113 14.1202 8.2216 14.0375 8.07449 13.8904C7.92737 13.7433 7.84473 13.5438 7.84473 13.3357C7.84473 13.1277 7.92737 12.9281 8.07449 12.781C8.2216 12.6339 8.42113 12.5513 8.62918 12.5513H11.767C11.975 12.5513 12.1746 12.6339 12.3217 12.781C12.4688 12.9281 12.5514 13.1277 12.5514 13.3357C12.5514 13.5438 12.4688 13.7433 12.3217 13.8904C12.1746 14.0375 11.975 14.1202 11.767 14.1202Z" fill="#F8F8FA"/>
<path d="M11.767 17.2579H8.62918C8.42113 17.2579 8.2216 17.1752 8.07449 17.0281C7.92737 16.881 7.84473 16.6815 7.84473 16.4734C7.84473 16.2654 7.92737 16.0658 8.07449 15.9187C8.2216 15.7716 8.42113 15.689 8.62918 15.689H11.767C11.975 15.689 12.1746 15.7716 12.3217 15.9187C12.4688 16.0658 12.5514 16.2654 12.5514 16.4734C12.5514 16.6815 12.4688 16.881 12.3217 17.0281C12.1746 17.1752 11.975 17.2579 11.767 17.2579Z" fill="#F8F8FA"/>
<path d="M8.62891 27.4557V25.8868L9.41336 24.3179H10.9823L11.7667 25.8868V27.4557H8.62891Z" fill="#004BE6"/>
<path d="M12.9023 21.263C12.7162 21.17 12.5008 21.1546 12.3034 21.2204C12.106 21.2862 11.9429 21.4277 11.8498 21.6137C11.4762 22.3564 10.9045 22.9813 10.1981 23.4196C9.49158 22.9813 8.91995 22.3564 8.5463 21.6137C8.45228 21.4293 8.28919 21.2896 8.09256 21.2249C7.89594 21.1602 7.68171 21.1759 7.49658 21.2685C7.31145 21.361 7.17041 21.523 7.1042 21.7191C7.03799 21.9153 7.05198 22.1296 7.14311 22.3154C7.73035 23.4841 8.67859 24.4323 9.84721 25.0195C9.84858 25.0202 9.85005 25.0195 9.85143 25.0195C9.95959 25.0741 10.079 25.1025 10.2002 25.1025C10.3213 25.1025 10.4407 25.0741 10.5489 25.0195C11.7175 24.4323 12.6658 23.4841 13.253 22.3154C13.346 22.1294 13.3614 21.914 13.2956 21.7166C13.2298 21.5192 13.0883 21.3561 12.9023 21.263Z" fill="#004BE6"/>
<path d="M12.5514 2.35335H7.84473L8.62918 0H11.767L12.5514 2.35335Z" fill="#004BE6"/>
<path d="M10.982 33.83V36.0843C10.982 36.2924 10.8993 36.4919 10.7522 36.639C10.6051 36.7861 10.4056 36.8688 10.1975 36.8688C9.98949 36.8688 9.78996 36.7861 9.64285 36.639C9.49573 36.4919 9.41309 36.2924 9.41309 36.0843V33.83C9.92772 33.6979 10.4674 33.6979 10.982 33.83Z" fill="white"/>
</svg>
