<svg width="51" height="41" viewBox="0 0 51 41" fill="none" xmlns="http://www.w3.org/2000/svg">
<g clip-path="url(#clip0_1457_23948)">
<path d="M25.0738 17.9399H8.05375C7.66163 17.9399 7.34375 18.2578 7.34375 18.6499V34.1699C7.34375 34.5621 7.66163 34.8799 8.05375 34.8799H25.0738C25.4659 34.8799 25.7838 34.5621 25.7838 34.1699V18.6499C25.7838 18.2578 25.4659 17.9399 25.0738 17.9399Z" fill="white" stroke="#272833" stroke-width="2" stroke-miterlimit="10"/>
<path d="M43.5152 17.9399H26.4952C26.103 17.9399 25.7852 18.2578 25.7852 18.6499V34.1699C25.7852 34.5621 26.103 34.8799 26.4952 34.8799H43.5152C43.9073 34.8799 44.2252 34.5621 44.2252 34.1699V18.6499C44.2252 18.2578 43.9073 17.9399 43.5152 17.9399Z" fill="white" stroke="#272833" stroke-width="2" stroke-miterlimit="10"/>
<path d="M34.2964 1H17.2764C16.8843 1 16.5664 1.31788 16.5664 1.71V17.23C16.5664 17.6221 16.8843 17.94 17.2764 17.94H34.2964C34.6885 17.94 35.0064 17.6221 35.0064 17.23V1.71C35.0064 1.31788 34.6885 1 34.2964 1Z" fill="white" stroke="#272833" stroke-width="2" stroke-miterlimit="10"/>
<path d="M24.0156 1H27.5556V5.55L25.7856 4.64L24.0156 5.47V1Z" fill="#FFE000" stroke="#272833" stroke-linecap="round" stroke-linejoin="round"/>
<path d="M14.7969 17.9399H18.3369V22.4899L16.5669 21.5799L14.7969 22.4099V17.9399Z" fill="#FFE000" stroke="#272833" stroke-linecap="round" stroke-linejoin="round"/>
<path d="M33.2344 17.9399H36.7744V22.4899L35.0044 21.5799L33.2344 22.4099V17.9399Z" fill="#FFE000" stroke="#272833" stroke-linecap="round" stroke-linejoin="round"/>
<path d="M50.0652 39.29H1.50516C1.10751 39.29 0.785156 39.6124 0.785156 40.01V40.12C0.785156 40.5177 1.10751 40.84 1.50516 40.84H50.0652C50.4628 40.84 50.7852 40.5177 50.7852 40.12V40.01C50.7852 39.6124 50.4628 39.29 50.0652 39.29Z" fill="#272833"/>
<path d="M50.0652 34.3H1.50516C1.10751 34.3 0.785156 34.6224 0.785156 35.0201V35.1301C0.785156 35.5277 1.10751 35.85 1.50516 35.85H50.0652C50.4628 35.85 50.7852 35.5277 50.7852 35.1301V35.0201C50.7852 34.6224 50.4628 34.3 50.0652 34.3Z" fill="#272833"/>
<path d="M10.0969 35.27H3.79688V39.77H10.0969V35.27Z" stroke="#272833" stroke-width="2" stroke-linejoin="round"/>
<path d="M47.7766 35.27H41.4766V39.77H47.7766V35.27Z" stroke="#272833" stroke-width="2" stroke-linejoin="round"/>
</g>
<defs>
<clipPath id="clip0_1457_23948">
<rect width="50" height="40.83" fill="white" transform="translate(0.785156)"/>
</clipPath>
</defs>
</svg>