<svg width="50" height="50" viewBox="0 0 50 50" fill="none" xmlns="http://www.w3.org/2000/svg">
<rect x="7" y="16.2558" width="17.4419" height="31.5814" rx="2" fill="white" stroke="#272833" stroke-width="2"/>
<rect x="13.186" y="5.65115" width="5.06977" height="7.72093" rx="2" fill="#FFE000" stroke="#272833" stroke-width="2"/>
<mask id="path-3-inside-1_3761_27289" fill="white">
<path fill-rule="evenodd" clip-rule="evenodd" d="M23.6744 17.28H7.76746C7.96536 13.0586 11.4506 9.69679 15.7209 9.69679C19.9913 9.69679 23.4765 13.0586 23.6744 17.28Z"/>
</mask>
<path fill-rule="evenodd" clip-rule="evenodd" d="M23.6744 17.28H7.76746C7.96536 13.0586 11.4506 9.69679 15.7209 9.69679C19.9913 9.69679 23.4765 13.0586 23.6744 17.28Z" fill="white"/>
<path d="M7.76746 17.28L5.76965 17.1863L5.6715 19.28H7.76746V17.28ZM23.6744 17.28V19.28H25.7704L25.6722 17.1863L23.6744 17.28ZM7.76746 19.28H23.6744V15.28H7.76746V19.28ZM9.76526 17.3736C9.91338 14.2142 12.5238 11.6968 15.7209 11.6968V7.69679C10.3774 7.69679 6.01734 11.903 5.76965 17.1863L9.76526 17.3736ZM15.7209 11.6968C18.9181 11.6968 21.5285 14.2142 21.6766 17.3736L25.6722 17.1863C25.4246 11.903 21.0645 7.69679 15.7209 7.69679V11.6968Z" fill="#272833" mask="url(#path-3-inside-1_3761_27289)"/>
<path d="M13.186 26.093C13.186 25.5407 13.6337 25.093 14.186 25.093H24.4418V40.7674H14.186C13.6337 40.7674 13.186 40.3197 13.186 39.7674V26.093Z" fill="#FFE000" stroke="#272833" stroke-width="2"/>
<line x1="22.4996" y1="6.90199" x2="37.4136" y2="1.40735" stroke="#272833" stroke-width="2" stroke-linecap="round" stroke-dasharray="4 4"/>
<line x1="1" y1="-1" x2="16.894" y2="-1" transform="matrix(0.938343 0.345705 0.345705 -0.938343 21.907 6.41859)" stroke="#272833" stroke-width="2" stroke-linecap="round" stroke-dasharray="4 4"/>
<line x1="29.093" y1="7.18604" x2="43" y2="7.18604" stroke="#272833" stroke-width="2" stroke-linecap="round" stroke-dasharray="4 4"/>
<path d="M19.2558 29.8774L15.7209 35.9831H22.7907L19.2558 29.8774ZM19.2558 31.1628L21.6756 35.3404H16.836L19.2558 31.1628ZM18.9345 32.4482V33.7336H19.5772V32.4482H18.9345ZM18.9345 34.3763V35.019H19.5772V34.3763" fill="#272833"/>
</svg>
