<svg width="50" height="50" viewBox="0 0 50 50" fill="none" xmlns="http://www.w3.org/2000/svg">
<path d="M41.75 2H8.56C6.59387 2 5 3.59387 5 5.56V45.24C5 47.2061 6.59387 48.8 8.56 48.8H41.75C43.7161 48.8 45.31 47.2061 45.31 45.24V5.56C45.31 3.59387 43.7161 2 41.75 2Z" fill="white" stroke="#272833" stroke-width="2" stroke-miterlimit="10"/>
<path d="M14.33 26.15C14.7129 25.6881 15.1846 25.3077 15.717 25.0312C16.2495 24.7546 16.8319 24.5876 17.43 24.54C18.69 24.54 18.22 27.4 20.98 27.4C23.74 27.4 22.55 24.53 24.84 24.54C27.13 24.55 25.84 27.4 28.78 27.4C31.72 27.4 30.43 24.54 32.33 24.54C33.0299 24.5623 33.7181 24.7251 34.3538 25.0189C34.9894 25.3127 35.5595 25.7314 36.03 26.25L35.56 30.69L33.52 34L30.71 37.39L23.26 39L17.9 36.56L15.46 33.01L14.28 29.01L14.33 26.15Z" fill="white" stroke="#272833" stroke-miterlimit="10"/>
<path d="M25.15 38.75C31.1588 38.75 36.03 33.8789 36.03 27.87C36.03 21.8611 31.1588 16.99 25.15 16.99C19.1411 16.99 14.27 21.8611 14.27 27.87C14.27 33.8789 19.1411 38.75 25.15 38.75Z" stroke="#272833" stroke-width="2" stroke-miterlimit="10"/>
<path d="M5 10.72H45.31" stroke="#272833" stroke-miterlimit="10"/>
<path d="M18.15 8.12C18.9784 8.12 19.65 7.44842 19.65 6.62C19.65 5.79157 18.9784 5.12 18.15 5.12C17.3216 5.12 16.65 5.79157 16.65 6.62C16.65 7.44842 17.3216 8.12 18.15 8.12Z" fill="#272833"/>
<path d="M25.15 8.12C25.9784 8.12 26.65 7.44842 26.65 6.62C26.65 5.79157 25.9784 5.12 25.15 5.12C24.3216 5.12 23.65 5.79157 23.65 6.62C23.65 7.44842 24.3216 8.12 25.15 8.12Z" fill="#272833"/>
<path d="M32.16 8.12C32.9884 8.12 33.66 7.44842 33.66 6.62C33.66 5.79157 32.9884 5.12 32.16 5.12C31.3316 5.12 30.66 5.79157 30.66 6.62C30.66 7.44842 31.3316 8.12 32.16 8.12Z" fill="#272833"/>
<path d="M37.28 24.11H36.93C35.8531 24.11 34.98 24.983 34.98 26.06V29.67C34.98 30.747 35.8531 31.62 36.93 31.62H37.28C38.357 31.62 39.23 30.747 39.23 29.67V26.06C39.23 24.983 38.357 24.11 37.28 24.11Z" fill="#FFE000" stroke="#272833" stroke-width="2" stroke-miterlimit="10"/>
</svg>
