<svg width="51" height="36" viewBox="0 0 51 36" fill="none" xmlns="http://www.w3.org/2000/svg">
<path d="M47.1431 17.5233L49.2831 13.7933C47.3047 11.2075 44.7705 9.0994 41.8678 7.62469C38.9651 6.14998 35.7682 5.34637 32.5132 5.27328C21.3332 5.01328 10.9531 17.5433 10.9531 17.5433C10.9531 17.5433 21.3332 30.0833 32.5132 29.8133C35.7676 29.7428 38.9645 28.9414 41.8674 27.4683C44.7702 25.9953 47.3047 23.8883 49.2831 21.3033L47.0931 17.5233H47.1431Z" fill="white" stroke="#272833" stroke-width="2" stroke-linejoin="round"/>
<path d="M33.5724 5.26329C33.5724 5.26329 30.3824 0.393295 20.3324 1.0633C17.1424 1.3933 22.6624 7.95329 22.6624 7.95329C25.889 5.84591 29.7359 4.8974 33.5724 5.26329Z" fill="#FFE000" stroke="#272833" stroke-width="2" stroke-linejoin="round"/>
<path d="M33.5724 29.8033C33.5724 29.8033 30.3824 34.6633 20.3324 34.0033C17.1424 33.6633 22.6624 27.1133 22.6624 27.1133C25.8909 29.2162 29.7363 30.1644 33.5724 29.8033Z" fill="#FFE000" stroke="#272833" stroke-width="2" stroke-linejoin="round"/>
<path d="M2.77361 12.9333C0.903608 12.4933 2.00361 16.1933 3.46361 17.5433C2.00361 18.9033 0.903608 22.6033 2.77361 22.1633C7.02361 21.3033 11.2736 17.5433 11.2736 17.5433C11.2736 17.5433 7.02361 13.7933 2.77361 12.9333Z" fill="#FFE000" stroke="#272833" stroke-width="2" stroke-linejoin="round"/>
<path d="M40.7827 13.7733C41.6442 13.7733 42.3427 13.0749 42.3427 12.2133C42.3427 11.3518 41.6442 10.6533 40.7827 10.6533C39.9211 10.6533 39.2227 11.3518 39.2227 12.2133C39.2227 13.0749 39.9211 13.7733 40.7827 13.7733Z" fill="#272833"/>
<path d="M38.2119 6.52319C36.6943 9.93733 35.9102 13.632 35.9102 17.3682C35.9102 21.1044 36.6943 24.7991 38.2119 28.2132" stroke="#272833" stroke-miterlimit="10"/>
<path d="M32.1754 13.0933C31.8814 13.1134 31.5865 13.0729 31.3088 12.9742C31.0311 12.8755 30.7767 12.7207 30.5614 12.5196C30.346 12.3184 30.1743 12.0752 30.0569 11.8049C29.9395 11.5346 29.8789 11.243 29.8789 10.9483C29.8789 10.6537 29.9395 10.3621 30.0569 10.0918C30.1743 9.82153 30.346 9.57826 30.5614 9.37712C30.7767 9.17597 31.0311 9.02123 31.3088 8.92253C31.5865 8.82382 31.8814 8.78325 32.1754 8.80334" stroke="#272833" stroke-linecap="round" stroke-linejoin="round"/>
<path d="M32.1734 17.3933C31.6032 17.3933 31.0564 17.1667 30.6532 16.7635C30.25 16.3603 30.0234 15.8135 30.0234 15.2433C30.0234 14.673 30.25 14.1262 30.6532 13.723C31.0564 13.3198 31.6032 13.0933 32.1734 13.0933" stroke="#272833" stroke-linecap="round" stroke-linejoin="round"/>
<path d="M32.1734 21.6433C31.6032 21.6433 31.0564 21.4167 30.6532 21.0135C30.25 20.6103 30.0234 20.0635 30.0234 19.4933C30.0234 18.923 30.25 18.3762 30.6532 17.973C31.0564 17.5698 31.6032 17.3433 32.1734 17.3433" stroke="#272833" stroke-linecap="round" stroke-linejoin="round"/>
<path d="M32.1754 25.9332C31.8814 25.9533 31.5865 25.9127 31.3088 25.814C31.0311 25.7153 30.7767 25.5606 30.5614 25.3594C30.346 25.1583 30.1743 24.915 30.0569 24.6447C29.9395 24.3744 29.8789 24.0829 29.8789 23.7882C29.8789 23.4935 29.9395 23.2019 30.0569 22.9317C30.1743 22.6614 30.346 22.4181 30.5614 22.2169C30.7767 22.0158 31.0311 21.8611 31.3088 21.7624C31.5865 21.6637 31.8814 21.6231 32.1754 21.6432" stroke="#272833" stroke-linecap="round" stroke-linejoin="round"/>
<path d="M26.3531 15.2233C25.7829 15.2233 25.2361 14.9968 24.8329 14.5936C24.4297 14.1904 24.2031 13.6435 24.2031 13.0733C24.2031 12.5031 24.4297 11.9563 24.8329 11.5531C25.2361 11.1499 25.7829 10.9233 26.3531 10.9233" stroke="#272833" stroke-linecap="round" stroke-linejoin="round"/>
<path d="M26.3531 19.4733C25.7829 19.4733 25.2361 19.2468 24.8329 18.8436C24.4297 18.4404 24.2031 17.8935 24.2031 17.3233C24.2031 16.7531 24.4297 16.2063 24.8329 15.8031C25.2361 15.3999 25.7829 15.1733 26.3531 15.1733" stroke="#272833" stroke-linecap="round" stroke-linejoin="round"/>
<path d="M26.355 23.7634C25.8115 23.7262 25.3022 23.4841 24.9303 23.0859C24.5584 22.6878 24.3516 22.1632 24.3516 21.6184C24.3516 21.0735 24.5584 20.549 24.9303 20.1508C25.3022 19.7527 25.8115 19.5105 26.355 19.4734" stroke="#272833" stroke-linecap="round" stroke-linejoin="round"/>
<path d="M20.7339 17.3232C20.1904 17.2861 19.6811 17.0439 19.3092 16.6458C18.9373 16.2476 18.7305 15.723 18.7305 15.1782C18.7305 14.6333 18.9373 14.1088 19.3092 13.7106C19.6811 13.3125 20.1904 13.0703 20.7339 13.0332" stroke="#272833" stroke-linecap="round" stroke-linejoin="round"/>
<path d="M20.7339 21.6133C20.1904 21.5761 19.6811 21.334 19.3092 20.9358C18.9373 20.5376 18.7305 20.0131 18.7305 19.4682C18.7305 18.9234 18.9373 18.3989 19.3092 18.0007C19.6811 17.6025 20.1904 17.3604 20.7339 17.3232" stroke="#272833" stroke-linecap="round" stroke-linejoin="round"/>
</svg>