<svg width="51" height="40" viewBox="0 0 51 40" fill="none" xmlns="http://www.w3.org/2000/svg">
<path d="M20.0052 1.001H40.2052C40.6739 0.997042 41.1387 1.08594 41.5729 1.26257C42.0071 1.4392 42.402 1.70006 42.7348 2.03011C43.0676 2.36015 43.3318 2.75284 43.5121 3.18551C43.6924 3.61818 43.7852 4.08228 43.7852 4.551V31.551C43.7852 31.8609 43.7241 32.1678 43.6055 32.4541C43.4869 32.7405 43.3131 33.0006 43.0939 33.2198C42.8748 33.4389 42.6146 33.6128 42.3283 33.7314C42.042 33.85 41.7351 33.911 41.4252 33.911H19.7852V1.201C19.785 1.17297 19.7908 1.14522 19.8021 1.11955C19.8133 1.09388 19.8299 1.07087 19.8506 1.05201C19.8714 1.03315 19.8958 1.01887 19.9225 1.01008C19.9491 1.00129 19.9773 0.998199 20.0052 1.001Z" fill="white" stroke="#272833" stroke-width="2" stroke-miterlimit="10"/>
<path d="M9.78406 1.00098H19.6741V33.861H9.78406C9.1555 33.861 8.55268 33.6113 8.10822 33.1668C7.66376 32.7224 7.41406 32.1195 7.41406 31.491V3.37098C7.41406 2.74241 7.66376 2.13959 8.10822 1.69513C8.55268 1.25067 9.1555 1.00098 9.78406 1.00098Z" fill="white" stroke="#272833" stroke-width="2" stroke-miterlimit="10"/>
<path d="M7.70516 1.00098L1.78516 9.61098H13.8952L19.8052 1.00098H7.70516Z" fill="white" stroke="#272833" stroke-width="2" stroke-linejoin="round"/>
<path d="M25.7247 9.61098L19.8047 1.00098H43.6147L49.5347 9.61098H25.7247Z" fill="white" stroke="#272833" stroke-width="2" stroke-linejoin="round"/>
<path d="M34.3956 33.3109H30.0156V26.4509L32.2056 27.8309L34.3956 26.5809V33.3109Z" fill="#FFE000" stroke="#272833" stroke-linecap="round" stroke-linejoin="round"/>
<path d="M16.2344 30.481V37.781" stroke="#272833" stroke-width="2" stroke-miterlimit="10"/>
<path d="M11.9961 38.061H20.4761" stroke="#272833" stroke-width="2" stroke-miterlimit="10" stroke-linecap="round"/>
<path d="M22.4241 24.561C22.478 21.4284 22.1862 18.2995 21.5541 15.231H18.1041L16.1041 18.231H17.4741C17.6455 18.2411 17.8113 18.2952 17.9558 18.3881C18.1002 18.4809 18.2182 18.6093 18.2986 18.761C18.379 18.9127 18.4189 19.0826 18.4146 19.2542C18.4104 19.4258 18.3619 19.5935 18.2741 19.741L15.9141 23.171C15.8241 23.2975 15.7058 23.4013 15.5687 23.4742C15.4315 23.5471 15.2793 23.5871 15.1241 23.5909C14.9281 23.5894 14.7368 23.5303 14.5741 23.421C14.3707 23.2706 14.2318 23.0488 14.1854 22.8002C14.139 22.5515 14.1885 22.2945 14.3241 22.0809L15.6441 20.1609H14.3141C14.1403 20.1572 13.9705 20.1081 13.8214 20.0187C13.6724 19.9292 13.5492 19.8025 13.4641 19.6509C13.3763 19.4989 13.3301 19.3265 13.3301 19.1509C13.3301 18.9754 13.3763 18.803 13.4641 18.6509L15.7341 15.2209H10.8641C10.2003 18.2855 9.8883 21.4157 9.93408 24.551C9.93374 25.2304 10.0418 25.9056 10.2541 26.551C10.3649 26.9357 10.5299 27.3027 10.7441 27.641C11.2661 28.5721 12.0189 29.3533 12.9302 29.9092C13.8415 30.4652 14.8805 30.7773 15.9473 30.8154C17.0141 30.8536 18.0728 30.6166 19.0215 30.1272C19.9701 29.6378 20.7769 28.9124 21.3641 28.0209L21.5141 27.8309C21.8007 27.41 22.0044 26.9383 22.1141 26.441C22.2993 25.8418 22.3936 25.2181 22.3941 24.5909L22.4241 24.561Z" fill="#FFE000" stroke="#272833" stroke-linejoin="round"/>
</svg>