<svg width="50" height="50" viewBox="0 0 50 50" fill="none" xmlns="http://www.w3.org/2000/svg">
<path d="M15.62 44.22H15.4C14.3231 44.22 13.45 45.093 13.45 46.17V47.95C13.45 49.0269 14.3231 49.9 15.4 49.9H15.62C16.697 49.9 17.57 49.0269 17.57 47.95V46.17C17.57 45.093 16.697 44.22 15.62 44.22Z" fill="#272833"/>
<path d="M34 44.22H33.78C32.703 44.22 31.83 45.093 31.83 46.17V47.95C31.83 49.0269 32.703 49.9 33.78 49.9H34C35.0769 49.9 35.95 49.0269 35.95 47.95V46.17C35.95 45.093 35.0769 44.22 34 44.22Z" fill="#272833"/>
<path d="M35.07 1H14.56C12.5939 1 11 2.59387 11 4.56V42.71C11 44.6761 12.5939 46.27 14.56 46.27H35.07C37.0361 46.27 38.63 44.6761 38.63 42.71V4.56C38.63 2.59387 37.0361 1 35.07 1Z" fill="white" stroke="#272833" stroke-width="2" stroke-miterlimit="10"/>
<path d="M11.29 19.52H38.34" stroke="#272833" stroke-miterlimit="10"/>
<path d="M15.41 25.68V31.84C15.41 32.8175 16.2024 33.61 17.18 33.61H17.37C18.3475 33.61 19.14 32.8175 19.14 31.84V25.68C19.14 24.7024 18.3475 23.91 17.37 23.91H17.18C16.2024 23.91 15.41 24.7024 15.41 25.68Z" fill="#FFE006" stroke="#272833" stroke-width="2" stroke-miterlimit="10"/>
</svg>
