<svg width="43" height="50" viewBox="0 0 43 50" fill="none" xmlns="http://www.w3.org/2000/svg">
<path d="M24.3945 24.55C24.3945 24.55 29.1945 7.14001 35.0745 2.55001C41.6345 -2.61999 41.2145 6.8 41.2145 6.8C41.2145 6.8 41.3545 20.13 39.3945 25.57C37.4345 31.01 24.3945 24.55 24.3945 24.55Z" fill="#FFE006" stroke="#272833" stroke-width="2" stroke-linejoin="round"/>
<path d="M28.3359 13.8699L34.6159 15.6899" stroke="#272833" stroke-width="2" stroke-linecap="round" stroke-linejoin="round"/>
<path d="M31.457 8.19995L35.867 9.47995" stroke="#272833" stroke-width="2" stroke-linecap="round" stroke-linejoin="round"/>
<path d="M26.4141 20.26L32.6841 22.08" stroke="#272833" stroke-width="2" stroke-linecap="round" stroke-linejoin="round"/>
<path d="M35.5938 13.8499C36.146 13.8499 36.5938 13.4021 36.5938 12.8499C36.5938 12.2976 36.146 11.8499 35.5938 11.8499C35.0415 11.8499 34.5938 12.2976 34.5938 12.8499C34.5938 13.4021 35.0415 13.8499 35.5938 13.8499Z" fill="#272833"/>
<path d="M37.5938 6.01001C38.146 6.01001 38.5938 5.56229 38.5938 5.01001C38.5938 4.45772 38.146 4.01001 37.5938 4.01001C37.0415 4.01001 36.5938 4.45772 36.5938 5.01001C36.5938 5.56229 37.0415 6.01001 37.5938 6.01001Z" fill="#272833"/>
<path d="M37.5938 18.5C38.146 18.5 38.5938 18.0523 38.5938 17.5C38.5938 16.9477 38.146 16.5 37.5938 16.5C37.0415 16.5 36.5938 16.9477 36.5938 17.5C36.5938 18.0523 37.0415 18.5 37.5938 18.5Z" fill="#272833"/>
<path d="M19.3164 8.85986L21.1564 15.3799" stroke="#272833" stroke-width="2" stroke-miterlimit="10" stroke-linecap="round"/>
<path d="M26.7632 13.5899C25.7627 13.4286 24.7383 13.5028 23.7714 13.8066C22.8045 14.1104 21.9218 14.6354 21.1932 15.3399C20.7834 15.1812 20.3576 15.0671 19.9232 14.9999C18.8182 14.822 17.6861 14.9297 16.6345 15.3129C15.5829 15.6961 14.6468 16.3419 13.9153 17.189C13.1838 18.0361 12.6812 19.0562 12.4553 20.1524C12.2294 21.2486 12.2877 22.3844 12.6247 23.4517C12.9617 24.519 13.5662 25.4822 14.3806 26.25C15.195 27.0177 16.1923 27.5642 17.2776 27.8377C18.3629 28.1111 19.5001 28.1024 20.5811 27.8122C21.662 27.522 22.6508 26.9601 23.4532 26.18C23.8649 26.3308 24.2902 26.4413 24.7232 26.5099C25.5768 26.6458 26.4488 26.6123 27.2894 26.4112C28.1301 26.2101 28.9228 25.8454 29.6225 25.338C30.3222 24.8305 30.9151 24.1902 31.3673 23.4536C31.8196 22.717 32.1223 21.8985 32.2582 21.0449C32.3941 20.1913 32.3606 19.3193 32.1595 18.4787C31.9584 17.6381 31.5938 16.8453 31.0863 16.1456C30.5788 15.4459 29.9385 14.853 29.2019 14.4008C28.4653 13.9485 27.6468 13.6458 26.7932 13.5099L26.7632 13.5899Z" fill="white" stroke="#272833" stroke-width="2" stroke-miterlimit="10"/>
<path d="M20.4648 9.34002C20.4648 9.34002 22.0549 4.93005 26.0749 7.62005C26.0949 7.53005 25.5548 12.96 20.4648 9.34002Z" stroke="#272833" stroke-linecap="round" stroke-linejoin="round"/>
<path d="M40.3361 19.8201L37.1461 23.0001L34.0761 19.9401L31.0061 23.0001L27.9061 19.9001L24.7961 23.0001L21.7261 19.9401L18.6561 23.0001L15.4761 19.8201H14.9961V46.6501H40.8061V19.8201H40.3361Z" fill="white" stroke="#272833" stroke-width="2" stroke-linejoin="round"/>
<path d="M18.1969 17.4401L17.9469 16.9901C17.6936 16.4682 17.3557 15.9917 16.9469 15.5801L13.1569 11.5801V2.82007H7.19687V11.5801L3.48688 15.5801C2.87729 16.1018 2.40945 16.7691 2.12687 17.5201C1.90827 18.0322 1.79601 18.5833 1.79688 19.1401V44.0901C1.79688 45.212 2.24252 46.2879 3.0358 47.0812C3.82908 47.8745 4.90499 48.3201 6.02686 48.3201H14.3169C15.4387 48.3201 16.5146 47.8745 17.3079 47.0812C18.1012 46.2879 18.5469 45.212 18.5469 44.0901V19.1601C18.5515 18.5686 18.4322 17.9827 18.1969 17.4401Z" fill="white" stroke="#272833" stroke-width="2" stroke-linejoin="round"/>
<path d="M13.8252 22.6899H1.78516V41.1999H13.8252V22.6899Z" stroke="#272833" stroke-linejoin="round"/>
<path d="M13.1336 2.79004H7.18359V7.53004H13.1336V2.79004Z" fill="#FFE006" stroke="#272833" stroke-width="2" stroke-linejoin="round"/>
<path d="M5.41406 7.53003H15.0941" stroke="#272833" stroke-width="2" stroke-linecap="round" stroke-linejoin="round"/>
<path d="M22.5664 30.3201H28.7064" stroke="#272833" stroke-miterlimit="10" stroke-linecap="round"/>
<path d="M22.5664 35.0601H33.1364" stroke="#272833" stroke-miterlimit="10" stroke-linecap="round"/>
<path d="M22.5664 39.5999H33.1364" stroke="#272833" stroke-miterlimit="10" stroke-linecap="round"/>
</svg>