<svg width="50" height="50" viewBox="0 0 50 50" fill="none" xmlns="http://www.w3.org/2000/svg">
<g clip-path="url(#clip0_3760_27271)">
<path d="M21.95 38.8343L21.17 49.2843H18.67L17.89 38.8343H21.95Z" fill="white" stroke="#272833" stroke-width="2" stroke-linejoin="round"/>
<path d="M34.41 36.4543L33.63 49.2843H31.14L30.36 38.8343L34.41 36.4543Z" fill="white" stroke="#272833" stroke-width="2" stroke-linejoin="round"/>
<path d="M29.29 7.49432L27.53 27.1643H19.53C19.53 27.1643 14.14 26.5743 14.38 34.6543C14.62 42.7343 15.08 49.2943 15.08 49.2943H17.54L17.92 38.7343H27.4L27.75 49.2743H30.68L31.15 38.8543C31.15 38.8543 36.15 38.0343 35.95 31.7143C35.75 25.3943 34.78 11.7143 34.78 11.7143C34.78 11.7143 37 12.0643 37.71 10.3043C37.71 10.1843 41.71 10.8943 41.71 7.49432C41.71 4.09432 38.19 4.9143 38.19 4.9143L31.52 4.83432C30.884 4.92087 30.3031 5.24135 29.8908 5.73321C29.4784 6.22507 29.2642 6.853 29.29 7.49432Z" fill="white" stroke="#272833" stroke-width="2" stroke-linejoin="round"/>
<path d="M32.38 1.98431V4.82431" stroke="#272833" stroke-width="2" stroke-linecap="round" stroke-linejoin="round"/>
<path d="M34.76 1.98431V4.82431" stroke="#272833" stroke-width="2" stroke-linecap="round" stroke-linejoin="round"/>
<path d="M29.896 5.56082C30.6263 4.83053 30.4933 3.51355 29.599 2.61925C28.7047 1.72495 27.3878 1.592 26.6575 2.32228C25.9272 3.05256 26.0602 4.36952 26.9545 5.26382C27.8488 6.15812 29.1658 6.2911 29.896 5.56082Z" fill="#FFE000" stroke="#272833" stroke-width="2" stroke-linecap="round" stroke-linejoin="round"/>
<path d="M32.0701 35.2179C32.9253 34.3626 32.7702 32.8209 31.7236 31.7743C30.677 30.7277 29.1353 30.5726 28.28 31.4278C27.4248 32.2831 27.5799 33.8248 28.6265 34.8714C29.6731 35.918 31.2148 36.0731 32.0701 35.2179Z" fill="#FFE000" stroke="#272833" stroke-linecap="round" stroke-linejoin="round"/>
<path d="M19.9 31.6943C21.4464 31.6943 22.7 30.7407 22.7 29.5643C22.7 28.388 21.4464 27.4343 19.9 27.4343C18.3536 27.4343 17.1 28.388 17.1 29.5643C17.1 30.7407 18.3536 31.6943 19.9 31.6943Z" fill="#FFE000" stroke="#272833" stroke-linecap="round" stroke-linejoin="round"/>
<path d="M28.67 21.9843C29.0467 21.9908 29.4183 22.0729 29.7626 22.2258C30.1069 22.3788 30.417 22.5994 30.6743 22.8746C30.9317 23.1498 31.1311 23.4739 31.2606 23.8277C31.3902 24.1815 31.4472 24.5577 31.4285 24.934C31.4097 25.3103 31.3154 25.6789 31.1513 26.0181C30.9871 26.3572 30.7565 26.6599 30.473 26.9081C30.1896 27.1562 29.8591 27.3449 29.5012 27.4628C29.1434 27.5807 28.7655 27.6254 28.39 27.5943" fill="#FFE000"/>
<path d="M28.67 21.9843C29.0467 21.9908 29.4183 22.0729 29.7626 22.2258C30.1069 22.3788 30.417 22.5994 30.6743 22.8746C30.9317 23.1498 31.1311 23.4739 31.2606 23.8277C31.3902 24.1815 31.4472 24.5577 31.4285 24.934C31.4097 25.3103 31.3154 25.6789 31.1513 26.0181C30.9871 26.3572 30.7565 26.6599 30.473 26.9081C30.1896 27.1562 29.8591 27.3449 29.5012 27.4628C29.1434 27.5807 28.7655 27.6254 28.39 27.5943" stroke="#272833" stroke-linecap="round" stroke-linejoin="round"/>
<path d="M34.53 19.7343C33.7861 19.7847 33.0526 19.5375 32.4909 19.0471C31.9293 18.5567 31.5854 17.8633 31.535 17.1193C31.4846 16.3754 31.7318 15.6419 32.2222 15.0802C32.7126 14.5186 33.4061 14.1747 34.15 14.1243" fill="#FFE000"/>
<path d="M34.53 19.7343C33.7861 19.7847 33.0526 19.5375 32.4909 19.0471C31.9293 18.5567 31.5854 17.8633 31.535 17.1193C31.4846 16.3754 31.7318 15.6419 32.2222 15.0802C32.7126 14.5186 33.4061 14.1747 34.15 14.1243" stroke="#272833" stroke-linecap="round" stroke-linejoin="round"/>
<path d="M15.55 28.6343C15.55 28.6343 11.8 27.6943 10.55 32.8443" stroke="#272833" stroke-width="2" stroke-linecap="round" stroke-linejoin="round"/>
<path d="M10.6 36.7143C11.4837 36.7143 12.2 35.7696 12.2 34.6043C12.2 33.439 11.4837 32.4943 10.6 32.4943C9.71634 32.4943 9 33.439 9 34.6043C9 35.7696 9.71634 36.7143 10.6 36.7143Z" fill="#272833"/>
<path d="M32.63 8.57431C33.0276 8.57431 33.35 8.25195 33.35 7.85431C33.35 7.45666 33.0276 7.13431 32.63 7.13431C32.2323 7.13431 31.91 7.45666 31.91 7.85431C31.91 8.25195 32.2323 8.57431 32.63 8.57431Z" fill="#272833"/>
</g>
<defs>
<clipPath id="clip0_3760_27271">
<rect width="50" height="50" fill="white"/>
</clipPath>
</defs>
</svg>
