<svg width="50" height="50" viewBox="0 0 50 50" fill="none" xmlns="http://www.w3.org/2000/svg">
<mask id="path-1-outside-1_3760_27094" maskUnits="userSpaceOnUse" x="9" y="17.3424" width="32" height="32" fill="black">
<rect fill="white" x="9" y="17.3424" width="32" height="32"/>
<path fill-rule="evenodd" clip-rule="evenodd" d="M24.5488 46.44C32.0316 46.44 38.0976 40.374 38.0976 32.8912C38.0976 25.4084 32.0316 19.3424 24.5488 19.3424C17.066 19.3424 11 25.4084 11 32.8912C11 40.374 17.066 46.44 24.5488 46.44ZM24.5488 42.4255C29.8145 42.4255 34.0831 38.1569 34.0831 32.8912C34.0831 27.6256 29.8145 23.3569 24.5488 23.3569C19.2831 23.3569 15.0145 27.6256 15.0145 32.8912C15.0145 38.1569 19.2831 42.4255 24.5488 42.4255Z"/>
</mask>
<path fill-rule="evenodd" clip-rule="evenodd" d="M24.5488 46.44C32.0316 46.44 38.0976 40.374 38.0976 32.8912C38.0976 25.4084 32.0316 19.3424 24.5488 19.3424C17.066 19.3424 11 25.4084 11 32.8912C11 40.374 17.066 46.44 24.5488 46.44ZM24.5488 42.4255C29.8145 42.4255 34.0831 38.1569 34.0831 32.8912C34.0831 27.6256 29.8145 23.3569 24.5488 23.3569C19.2831 23.3569 15.0145 27.6256 15.0145 32.8912C15.0145 38.1569 19.2831 42.4255 24.5488 42.4255Z" fill="white"/>
<path d="M36.0976 32.8912C36.0976 39.2694 30.927 44.44 24.5488 44.44V48.44C33.1361 48.44 40.0976 41.4786 40.0976 32.8912H36.0976ZM24.5488 21.3424C30.927 21.3424 36.0976 26.513 36.0976 32.8912H40.0976C40.0976 24.3039 33.1361 17.3424 24.5488 17.3424V21.3424ZM13 32.8912C13 26.513 18.1706 21.3424 24.5488 21.3424V17.3424C15.9614 17.3424 9 24.3039 9 32.8912H13ZM24.5488 44.44C18.1706 44.44 13 39.2694 13 32.8912H9C9 41.4786 15.9614 48.44 24.5488 48.44V44.44ZM32.0831 32.8912C32.0831 37.0523 28.7099 40.4255 24.5488 40.4255V44.4255C30.919 44.4255 36.0831 39.2615 36.0831 32.8912H32.0831ZM24.5488 25.3569C28.7099 25.3569 32.0831 28.7301 32.0831 32.8912H36.0831C36.0831 26.521 30.919 21.3569 24.5488 21.3569V25.3569ZM17.0145 32.8912C17.0145 28.7301 20.3877 25.3569 24.5488 25.3569V21.3569C18.1786 21.3569 13.0145 26.521 13.0145 32.8912H17.0145ZM24.5488 40.4255C20.3877 40.4255 17.0145 37.0523 17.0145 32.8912H13.0145C13.0145 39.2615 18.1786 44.4255 24.5488 44.4255V40.4255Z" fill="#272833" mask="url(#path-1-outside-1_3760_27094)"/>
<path d="M30.5102 8.50342H19.1293L16.4195 12.839L24.5488 22.0522L33.22 12.839L30.5102 8.50342Z" fill="#FFE000" stroke="#272833" stroke-width="2" stroke-linejoin="round"/>
<path d="M23.4649 8.50343L21.2971 12.2971L24.5488 22.0522" stroke="#272833" stroke-linejoin="round"/>
<path d="M26.1746 8.50343L28.3424 12.2971L24.5488 22.0522" stroke="#272833" stroke-linejoin="round"/>
<path d="M16.9615 12.2971H32.678" stroke="#272833"/>
<line x1="24.9481" y1="2.5" x2="24.9481" y2="4.75171" stroke="#272833" stroke-linecap="round"/>
<line x1="33.3023" y1="3.98473" x2="32.1765" y2="5.93477" stroke="#272833" stroke-linecap="round"/>
<line x1="0.5" y1="-0.5" x2="2.75171" y2="-0.5" transform="matrix(0.5 0.866025 0.866025 -0.5 16.8607 3.30172)" stroke="#272833" stroke-linecap="round"/>
<line x1="0.5" y1="-0.5" x2="2.75171" y2="-0.5" transform="matrix(0.771423 0.636323 0.636323 -0.771423 12.0839 8.87686)" stroke="#272833" stroke-linecap="round"/>
<line x1="37.728" y1="9.58073" x2="35.991" y2="11.0135" stroke="#272833" stroke-linecap="round"/>
</svg>
