<svg width="50" height="50" viewBox="0 0 50 50" fill="none" xmlns="http://www.w3.org/2000/svg">
<mask id="path-1-inside-1_1967_1521" fill="white">
<path fill-rule="evenodd" clip-rule="evenodd" d="M27.5738 28.9244C28.5172 29.0054 29.4954 28.8213 30.3782 28.3392C31.9069 27.5043 32.7604 25.9879 32.7575 24.4299C33.3056 24.3254 33.8453 24.1362 34.3563 23.8571C36.8844 22.4764 37.7506 19.4185 36.291 17.027C36.2466 16.9543 36.2006 16.883 36.153 16.8132C37.148 14.8097 37.1248 12.3932 35.8661 10.3308C35.4097 9.58303 34.8295 8.94504 34.1641 8.42664L35.0001 17.4604L27.5738 28.9244ZM7.90891 12.6331C7.7518 13.409 7.71519 14.2084 7.80672 15.0043C6.83861 14.9657 5.84778 15.1784 4.9465 15.6706C2.86983 16.8048 1.91455 19.0707 2.44863 21.1692C0.753563 23.3411 0.474529 26.3435 1.99263 28.8308C3.25137 30.8932 5.45202 32.1204 7.7838 32.307C7.8239 32.3809 7.86613 32.4543 7.91052 32.527C9.37011 34.9185 12.6028 35.7378 15.1308 34.3571C15.4235 34.1973 15.694 34.0149 15.9411 33.8137C17.3298 34.4076 18.9706 34.4271 20.4237 33.7606L7.90891 12.6331Z"/>
</mask>
<path fill-rule="evenodd" clip-rule="evenodd" d="M27.5738 28.9244C28.5172 29.0054 29.4954 28.8213 30.3782 28.3392C31.9069 27.5043 32.7604 25.9879 32.7575 24.4299C33.3056 24.3254 33.8453 24.1362 34.3563 23.8571C36.8844 22.4764 37.7506 19.4185 36.291 17.027C36.2466 16.9543 36.2006 16.883 36.153 16.8132C37.148 14.8097 37.1248 12.3932 35.8661 10.3308C35.4097 9.58303 34.8295 8.94504 34.1641 8.42664L35.0001 17.4604L27.5738 28.9244ZM7.90891 12.6331C7.7518 13.409 7.71519 14.2084 7.80672 15.0043C6.83861 14.9657 5.84778 15.1784 4.9465 15.6706C2.86983 16.8048 1.91455 19.0707 2.44863 21.1692C0.753563 23.3411 0.474529 26.3435 1.99263 28.8308C3.25137 30.8932 5.45202 32.1204 7.7838 32.307C7.8239 32.3809 7.86613 32.4543 7.91052 32.527C9.37011 34.9185 12.6028 35.7378 15.1308 34.3571C15.4235 34.1973 15.694 34.0149 15.9411 33.8137C17.3298 34.4076 18.9706 34.4271 20.4237 33.7606L7.90891 12.6331Z" fill="white"/>
<path d="M27.5738 28.9244L25.8952 27.837L24.0845 30.6322L27.4027 30.917L27.5738 28.9244ZM30.3782 28.3392L31.3368 30.0945L30.3782 28.3392ZM32.7575 24.4299L32.3829 22.4653L30.7544 22.7758L30.7575 24.4336L32.7575 24.4299ZM34.3563 23.8571L33.3977 22.1018L34.3563 23.8571ZM36.291 17.027L34.5838 18.0689L34.5838 18.0689L36.291 17.027ZM36.153 16.8132L34.3617 15.9236L33.8408 16.9724L34.5006 17.94L36.153 16.8132ZM35.8661 10.3308L34.1589 11.3728L34.1589 11.3728L35.8661 10.3308ZM34.1641 8.42664L35.3932 6.84892L31.7466 4.00794L32.1726 8.61093L34.1641 8.42664ZM35.0001 17.4604L36.6786 18.5478L37.0554 17.9662L36.9915 17.2761L35.0001 17.4604ZM7.90891 12.6331L9.62968 11.6138L6.98037 7.14123L5.94869 12.2362L7.90891 12.6331ZM7.80672 15.0043L7.72712 17.0027L10.0604 17.0957L9.79362 14.7758L7.80672 15.0043ZM4.9465 15.6706L3.98785 13.9153H3.98785L4.9465 15.6706ZM2.44863 21.1692L4.02529 22.3998L4.62876 21.6265L4.38685 20.676L2.44863 21.1692ZM1.99263 28.8308L3.69979 27.7889H3.69979L1.99263 28.8308ZM7.7838 32.307L9.54159 31.353L9.02431 30.3999L7.94333 30.3134L7.7838 32.307ZM7.91052 32.527L6.20336 33.5689L6.20336 33.5689L7.91052 32.527ZM15.1308 34.3571L16.0895 36.1124L16.0895 36.1124L15.1308 34.3571ZM15.9411 33.8137L16.7275 31.9748L15.6159 31.4994L14.6784 32.2627L15.9411 33.8137ZM20.4237 33.7606L21.2575 35.5785L23.2766 34.6525L22.1445 32.7413L20.4237 33.7606ZM27.4027 30.917C28.7197 31.0301 30.0933 30.7736 31.3368 30.0945L29.4195 26.5839C28.8975 26.869 28.3148 26.9806 27.7448 26.9317L27.4027 30.917ZM31.3368 30.0945C33.501 28.9125 34.7618 26.7258 34.7575 24.4261L30.7575 24.4336C30.759 25.25 30.3128 26.096 29.4195 26.5839L31.3368 30.0945ZM33.1321 26.3945C33.8795 26.252 34.6169 25.9936 35.3149 25.6124L33.3977 22.1018C33.0737 22.2788 32.7316 22.3988 32.3829 22.4653L33.1321 26.3945ZM35.3149 25.6124C38.7958 23.7113 40.082 19.3993 37.9981 15.9851L34.5838 18.0689C35.4192 19.4376 34.9729 21.2415 33.3977 22.1018L35.3149 25.6124ZM37.9982 15.9851C37.9362 15.8835 37.8719 15.784 37.8054 15.6864L34.5006 17.94C34.5293 17.982 34.557 18.025 34.5838 18.0689L37.9982 15.9851ZM37.9442 17.7028C39.2332 15.1076 39.2037 11.9603 37.5732 9.28889L34.1589 11.3728C35.046 12.8261 35.0629 14.5117 34.3617 15.9236L37.9442 17.7028ZM37.5732 9.28889C36.9868 8.328 36.2423 7.5104 35.3932 6.84892L32.9349 10.0043C33.4167 10.3797 33.8326 10.8381 34.1589 11.3728L37.5732 9.28889ZM32.1726 8.61093L33.0086 17.6447L36.9915 17.2761L36.1555 8.24234L32.1726 8.61093ZM33.3215 16.373L25.8952 27.837L29.2524 30.0117L36.6786 18.5478L33.3215 16.373ZM5.94869 12.2362C5.7505 13.215 5.70396 14.2254 5.81981 15.2328L9.79362 14.7758C9.72642 14.1914 9.75309 13.6031 9.86913 13.03L5.94869 12.2362ZM7.88632 13.0059C6.5723 12.9536 5.22043 13.2421 3.98785 13.9153L5.90514 17.4259C6.47512 17.1146 7.10491 16.9779 7.72712 17.0027L7.88632 13.0059ZM3.98785 13.9153C1.13213 15.475 -0.255266 18.6539 0.510415 21.6625L4.38685 20.676C4.08437 19.4874 4.60754 18.1346 5.90514 17.4259L3.98785 13.9153ZM0.871976 19.9387C-1.31238 22.7376 -1.68563 26.6432 0.285478 29.8728L3.69979 27.7889C2.63469 26.0438 2.81951 23.9447 4.02529 22.3998L0.871976 19.9387ZM0.285478 29.8728C1.90758 32.5305 4.71291 34.0677 7.62426 34.3007L7.94333 30.3134C6.19112 30.1732 4.59517 29.2559 3.69979 27.7889L0.285478 29.8728ZM6.026 33.2611C6.08227 33.3647 6.14139 33.4674 6.20336 33.5689L9.61768 31.4851C9.59088 31.4412 9.56553 31.3971 9.54159 31.353L6.026 33.2611ZM6.20336 33.5689C8.24412 36.9126 12.6678 37.9811 16.0895 36.1124L14.1722 32.6018C12.5377 33.4945 10.4961 32.9243 9.61767 31.4851L6.20336 33.5689ZM16.0895 36.1124C16.4891 35.8941 16.8614 35.6435 17.2038 35.3647L14.6784 32.2627C14.5266 32.3863 14.358 32.5004 14.1722 32.6018L16.0895 36.1124ZM15.1547 35.6526C17.0421 36.4598 19.2719 36.4892 21.2575 35.5785L19.59 31.9427C18.6694 32.3649 17.6176 32.3555 16.7275 31.9748L15.1547 35.6526ZM22.1445 32.7413L9.62968 11.6138L6.18814 13.6524L18.703 34.7799L22.1445 32.7413Z" fill="#272833" mask="url(#path-1-inside-1_1967_1521)"/>
<mask id="path-3-inside-2_1967_1521" fill="white">
<path fill-rule="evenodd" clip-rule="evenodd" d="M28.0001 30.7346L40.4408 10C40.7347 10.5935 40.9557 11.2243 41.0956 11.8779C41.7149 11.8018 42.3588 11.841 42.9985 12.0124C45.1895 12.5995 46.6489 14.5543 46.704 16.7122C48.815 18.3951 49.847 21.2268 49.1036 24.001C48.4873 26.3013 46.7941 28.0255 44.7118 28.7767C44.6943 28.8579 44.6747 28.939 44.6529 29.0201C43.9382 31.6875 41.1965 33.2704 38.5292 32.5557C37.9901 32.4112 37.4953 32.184 37.0548 31.8912C35.9551 32.9949 34.3119 33.4962 32.699 33.064C31.5683 32.761 30.6541 32.0533 30.0705 31.1385C29.5879 31.1307 29.0985 31.064 28.6111 30.9334C28.4017 30.8773 28.1979 30.8108 28.0001 30.7346Z"/>
</mask>
<path fill-rule="evenodd" clip-rule="evenodd" d="M28.0001 30.7346L40.4408 10C40.7347 10.5935 40.9557 11.2243 41.0956 11.8779C41.7149 11.8018 42.3588 11.841 42.9985 12.0124C45.1895 12.5995 46.6489 14.5543 46.704 16.7122C48.815 18.3951 49.847 21.2268 49.1036 24.001C48.4873 26.3013 46.7941 28.0255 44.7118 28.7767C44.6943 28.8579 44.6747 28.939 44.6529 29.0201C43.9382 31.6875 41.1965 33.2704 38.5292 32.5557C37.9901 32.4112 37.4953 32.184 37.0548 31.8912C35.9551 32.9949 34.3119 33.4962 32.699 33.064C31.5683 32.761 30.6541 32.0533 30.0705 31.1385C29.5879 31.1307 29.0985 31.064 28.6111 30.9334C28.4017 30.8773 28.1979 30.8108 28.0001 30.7346Z" fill="white"/>
<path d="M28.0001 30.7346L26.2851 29.7056L25.0611 31.7456L27.2811 32.6009L28.0001 30.7346ZM40.4408 10L42.2332 9.11263L40.6091 5.83223L38.7258 8.97101L40.4408 10ZM41.0956 11.8779L39.1399 12.2966L39.5231 14.0864L41.3397 13.863L41.0956 11.8779ZM42.9985 12.0124L43.5161 10.0806L43.5161 10.0806L42.9985 12.0124ZM46.704 16.7122L44.7047 16.7633L44.7285 17.695L45.4573 18.276L46.704 16.7122ZM49.1036 24.001L51.0355 24.5187V24.5187L49.1036 24.001ZM44.7118 28.7767L44.0332 26.8953L42.9906 27.2714L42.7568 28.3548L44.7118 28.7767ZM44.6529 29.0201L42.7211 28.5025L42.7211 28.5025L44.6529 29.0201ZM38.5292 32.5557L38.0116 34.4875H38.0116L38.5292 32.5557ZM37.0548 31.8912L38.1617 30.2255L36.7957 29.3178L35.6381 30.4795L37.0548 31.8912ZM32.699 33.064L32.1813 34.9959H32.1813L32.699 33.064ZM30.0705 31.1385L31.7566 30.0629L31.1783 29.1564L30.1032 29.1388L30.0705 31.1385ZM28.6111 30.9334L29.1288 29.0016H29.1288L28.6111 30.9334ZM29.715 31.7636L42.1558 11.029L38.7258 8.97101L26.2851 29.7056L29.715 31.7636ZM43.0513 11.4592C42.8762 10.6416 42.6 9.85361 42.2332 9.11263L38.6484 10.8874C38.8693 11.3335 39.0351 11.8069 39.1399 12.2966L43.0513 11.4592ZM43.5161 10.0806C42.6241 9.84155 41.7214 9.78589 40.8515 9.89286L41.3397 13.863C41.7083 13.8176 42.0935 13.8405 42.4808 13.9443L43.5161 10.0806ZM48.7034 16.6611C48.6262 13.6415 46.5864 10.9033 43.5161 10.0806L42.4808 13.9443C43.7926 14.2958 44.6715 15.4671 44.7047 16.7633L48.7034 16.6611ZM51.0355 24.5187C51.992 20.9488 50.6613 17.3092 47.9507 15.1483L45.4573 18.276C46.9687 19.4809 47.7019 21.5048 47.1718 23.4834L51.0355 24.5187ZM45.3904 30.658C48.0621 29.6943 50.2426 27.4779 51.0355 24.5187L47.1718 23.4834C46.732 25.1248 45.5261 26.3568 44.0332 26.8953L45.3904 30.658ZM46.5848 29.5378C46.615 29.4249 46.6423 29.3118 46.6668 29.1986L42.7568 28.3548C42.7462 28.4039 42.7343 28.4532 42.7211 28.5025L46.5848 29.5378ZM38.0116 34.4875C41.7458 35.4881 45.5842 33.272 46.5848 29.5378L42.7211 28.5025C42.2923 30.1029 40.6472 31.0526 39.0468 30.6238L38.0116 34.4875ZM35.9479 33.557C36.5667 33.9682 37.2602 34.2862 38.0116 34.4875L39.0468 30.6238C38.72 30.5362 38.4238 30.3997 38.1617 30.2255L35.9479 33.557ZM32.1813 34.9959C34.5136 35.6208 36.8873 34.8928 38.4715 33.3029L35.6381 30.4795C35.0229 31.0969 34.1102 31.3716 33.2166 31.1322L32.1813 34.9959ZM28.3844 32.2142C29.2262 33.5338 30.5492 34.5585 32.1813 34.9959L33.2166 31.1322C32.5873 30.9636 32.0819 30.5729 31.7566 30.0629L28.3844 32.2142ZM28.0935 32.8653C28.7404 33.0386 29.3927 33.1277 30.0378 33.1383L30.1032 29.1388C29.7831 29.1336 29.4566 29.0894 29.1288 29.0016L28.0935 32.8653ZM27.2811 32.6009C27.5447 32.7024 27.8157 32.7908 28.0935 32.8653L29.1288 29.0016C28.9877 28.9638 28.8511 28.9191 28.7191 28.8683L27.2811 32.6009Z" fill="#272833" mask="url(#path-3-inside-2_1967_1521)"/>
<path d="M15.0001 31V23H18.5001V31L22.5001 34.5V24.5L26.5001 24C26.6667 24.3333 26.5001 23.7751 26.5001 27C26.5001 28 27.3334 29.5 28.0001 28.5L29.5001 27L33.5001 23C33.9001 28.6 32.6667 30.6667 32.0001 31L26.5001 35.5C25.7001 42.3 27.8334 47 29.0001 48.5H20.0001C22.4001 45.7 22.8334 41.3333 22.5001 39.5C22.1667 39.3333 19.9001 37.5 17.5001 35.5C15.1001 33.5 15.0001 32 15.0001 31Z" fill="#FFE000" stroke="#272833" stroke-width="2" stroke-linejoin="round"/>
<mask id="path-6-inside-3_1967_1521" fill="white">
<path fill-rule="evenodd" clip-rule="evenodd" d="M40.0001 21C40.0001 20.916 39.998 20.8326 39.9939 20.7496C41.8109 19.4851 43.0001 17.3814 43.0001 15C43.0001 12.1279 41.2703 9.65975 38.7957 8.58057C38.184 6.51052 36.2684 5 34.0001 5C33.3378 5 32.7057 5.12875 32.1272 5.36258C30.8029 2.77284 28.1085 1 25.0001 1C21.7289 1 18.9163 2.96329 17.6763 5.77581C16.9025 5.28452 15.9845 5 15.0001 5C12.7317 5 10.8162 6.51052 10.2044 8.58057C7.72982 9.65975 6.00006 12.1279 6.00006 15C6.00006 17.3814 7.18926 19.4851 9.00622 20.7496C9.00213 20.8326 9.00006 20.916 9.00006 21C9.00006 23.7614 11.2386 26 14.0001 26C14.3198 26 14.6325 25.97 14.9355 25.9126C15.8429 27.1766 17.3253 28 19.0001 28C20.403 28 21.671 27.4222 22.5791 26.4915C23.3195 26.8185 24.1386 27 25.0001 27C25.5046 27 25.9946 26.9377 26.4628 26.8204C27.2633 27.553 28.3295 28 29.5001 28C31.1699 28 32.6273 27.0905 33.4039 25.7398C33.9052 25.9086 34.4419 26 35.0001 26C37.7615 26 40.0001 23.7614 40.0001 21Z"/>
</mask>
<path fill-rule="evenodd" clip-rule="evenodd" d="M40.0001 21C40.0001 20.916 39.998 20.8326 39.9939 20.7496C41.8109 19.4851 43.0001 17.3814 43.0001 15C43.0001 12.1279 41.2703 9.65975 38.7957 8.58057C38.184 6.51052 36.2684 5 34.0001 5C33.3378 5 32.7057 5.12875 32.1272 5.36258C30.8029 2.77284 28.1085 1 25.0001 1C21.7289 1 18.9163 2.96329 17.6763 5.77581C16.9025 5.28452 15.9845 5 15.0001 5C12.7317 5 10.8162 6.51052 10.2044 8.58057C7.72982 9.65975 6.00006 12.1279 6.00006 15C6.00006 17.3814 7.18926 19.4851 9.00622 20.7496C9.00213 20.8326 9.00006 20.916 9.00006 21C9.00006 23.7614 11.2386 26 14.0001 26C14.3198 26 14.6325 25.97 14.9355 25.9126C15.8429 27.1766 17.3253 28 19.0001 28C20.403 28 21.671 27.4222 22.5791 26.4915C23.3195 26.8185 24.1386 27 25.0001 27C25.5046 27 25.9946 26.9377 26.4628 26.8204C27.2633 27.553 28.3295 28 29.5001 28C31.1699 28 32.6273 27.0905 33.4039 25.7398C33.9052 25.9086 34.4419 26 35.0001 26C37.7615 26 40.0001 23.7614 40.0001 21Z" fill="white"/>
<path d="M39.9939 20.7496L38.8515 19.108L37.9418 19.7411L37.9963 20.8481L39.9939 20.7496ZM38.7957 8.58057L36.8777 9.14738L37.1419 10.0412L37.9962 10.4138L38.7957 8.58057ZM32.1272 5.36258L30.3465 6.27319L31.1799 7.90277L32.8768 7.21681L32.1272 5.36258ZM17.6763 5.77581L16.6044 7.46426L18.568 8.71097L19.5064 6.58263L17.6763 5.77581ZM10.2044 8.58057L11.0039 10.4138L11.8583 10.0412L12.1224 9.14738L10.2044 8.58057ZM9.00622 20.7496L11.0038 20.8481L11.0584 19.7411L10.1487 19.108L9.00622 20.7496ZM14.9355 25.9126L16.5603 24.7463L15.8166 23.7104L14.5636 23.9475L14.9355 25.9126ZM22.5791 26.4915L23.3869 24.6619L22.117 24.1013L21.1476 25.0948L22.5791 26.4915ZM26.4628 26.8204L27.8131 25.3451L27.0199 24.6191L25.9768 24.8804L26.4628 26.8204ZM33.4039 25.7398L34.042 23.8443L32.4876 23.3211L31.6701 24.7429L33.4039 25.7398ZM37.9963 20.8481C37.9988 20.8983 38.0001 20.9489 38.0001 21H42.0001C42.0001 20.8831 41.9972 20.7668 41.9915 20.6511L37.9963 20.8481ZM41.0001 15C41.0001 16.6993 40.1542 18.2014 38.8515 19.108L41.1363 22.3912C43.4675 20.7688 45.0001 18.0636 45.0001 15H41.0001ZM37.9962 10.4138C39.768 11.1865 41.0001 12.9516 41.0001 15H45.0001C45.0001 11.3042 42.7727 8.13302 39.5952 6.74731L37.9962 10.4138ZM34.0001 7C35.3581 7 36.5103 7.90399 36.8777 9.14738L40.7137 8.01375C39.8577 5.11705 37.1787 3 34.0001 3V7ZM32.8768 7.21681C33.2211 7.07762 33.599 7 34.0001 7V3C33.0766 3 32.1902 3.17988 31.3777 3.50835L32.8768 7.21681ZM25.0001 3C27.3285 3 29.3507 4.32593 30.3465 6.27319L33.9079 4.45198C32.255 1.21976 28.8885 -1 25.0001 -1V3ZM19.5064 6.58263C20.4382 4.46901 22.5498 3 25.0001 3V-1C20.908 -1 17.3944 1.45757 15.8463 4.96898L19.5064 6.58263ZM15.0001 7C15.5938 7 16.1416 7.17042 16.6044 7.46426L18.7483 4.08736C17.6635 3.39861 16.3753 3 15.0001 3V7ZM12.1224 9.14738C12.4899 7.90399 13.642 7 15.0001 7V3C11.8214 3 9.14245 5.11706 8.28641 8.01375L12.1224 9.14738ZM8.00006 15C8.00006 12.9516 9.23217 11.1865 11.0039 10.4138L9.40491 6.74731C6.22747 8.13302 4.00006 11.3042 4.00006 15H8.00006ZM10.1487 19.108C8.84594 18.2014 8.00006 16.6993 8.00006 15H4.00006C4.00006 18.0636 5.53259 20.7688 7.86378 22.3912L10.1487 19.108ZM11.0001 21C11.0001 20.9489 11.0013 20.8983 11.0038 20.8481L7.00865 20.6511C7.00294 20.7668 7.00006 20.8832 7.00006 21H11.0001ZM14.0001 24C12.3432 24 11.0001 22.6569 11.0001 21H7.00006C7.00006 24.866 10.1341 28 14.0001 28V24ZM14.5636 23.9475C14.3826 23.9818 14.1944 24 14.0001 24V28C14.4452 28 14.8824 27.9582 15.3075 27.8777L14.5636 23.9475ZM19.0001 26C17.9968 26 17.1081 25.5095 16.5603 24.7463L13.3108 27.079C14.5778 28.8438 16.6539 30 19.0001 30V26ZM21.1476 25.0948C20.6004 25.6556 19.8422 26 19.0001 26V30C20.9638 30 22.7417 29.1887 24.0106 27.8882L21.1476 25.0948ZM25.0001 25C24.4221 25 23.8777 24.8786 23.3869 24.6619L21.7713 28.3211C22.7614 28.7583 23.8551 29 25.0001 29V25ZM25.9768 24.8804C25.6663 24.9582 25.3394 25 25.0001 25V29C25.6698 29 26.323 28.9173 26.9488 28.7605L25.9768 24.8804ZM29.5001 26C28.8486 26 28.2593 25.7534 27.8131 25.3451L25.1125 28.2958C26.2672 29.3526 27.8103 30 29.5001 30V26ZM31.6701 24.7429C31.2356 25.4985 30.4252 26 29.5001 26V30C31.9146 30 34.019 28.6825 35.1377 26.7367L31.6701 24.7429ZM35.0001 24C34.6617 24 34.3403 23.9447 34.042 23.8443L32.7658 27.6353C33.47 27.8724 34.2222 28 35.0001 28V24ZM38.0001 21C38.0001 22.6569 36.6569 24 35.0001 24V28C38.8661 28 42.0001 24.866 42.0001 21H38.0001Z" fill="#272833" mask="url(#path-6-inside-3_1967_1521)"/>
</svg>
