<svg width="23" height="48" viewBox="0 0 23 48" fill="none" xmlns="http://www.w3.org/2000/svg">
<path d="M11.5703 32.72V46.32" stroke="#272833" stroke-width="2" stroke-miterlimit="10"/>
<path d="M3.68359 46.8301H19.4636" stroke="#272833" stroke-width="2" stroke-miterlimit="10" stroke-linecap="round"/>
<path d="M21.1918 18.19C21.5918 10.98 19.8318 1 19.8318 1H14.4718L11.3718 6.52997H13.5018C13.7916 6.54275 14.0715 6.63931 14.3075 6.80792C14.5436 6.97654 14.7257 7.20998 14.8318 7.47998C14.9583 7.77146 15.0159 8.08817 15.0003 8.40552C14.9847 8.72286 14.8962 9.03233 14.7418 9.31L11.0718 15.63C10.9546 15.8576 10.7789 16.0498 10.5627 16.187C10.3465 16.3241 10.0976 16.401 9.84179 16.41C9.52903 16.4099 9.22696 16.2961 8.99178 16.09C8.65577 15.7839 8.43407 15.3724 8.36318 14.9235C8.29229 14.4745 8.37645 14.0147 8.6018 13.62L10.6518 10.09H8.59179C8.30419 10.0786 8.02616 9.98367 7.79171 9.81671C7.55726 9.64976 7.37657 9.41803 7.27178 9.14996C7.13854 8.86272 7.07544 8.54798 7.08761 8.23157C7.09978 7.91516 7.18688 7.60618 7.34179 7.33002L10.8818 1H3.2918C3.2918 1 1.44179 11 1.84179 18.19C1.84176 19.4106 2.01001 20.6254 2.34179 21.8C2.50126 22.4972 2.75351 23.1698 3.09179 23.8C4.75179 27.3 7.9118 29.66 11.5418 29.66C13.2281 29.6056 14.8688 29.099 16.2921 28.1929C17.7154 27.2869 18.8689 26.0149 19.6318 24.51L19.8618 24.16C20.3232 23.3686 20.6414 22.5019 20.8018 21.6C21.0975 20.4841 21.2454 19.3343 21.2418 18.18L21.1918 18.19Z" fill="white" stroke="#272833" stroke-width="2" stroke-linejoin="round"/>
<path d="M12.7705 29.3501H10.3605C9.59832 29.3501 8.98047 29.9679 8.98047 30.7301V33.1401C8.98047 33.9022 9.59832 34.5201 10.3605 34.5201H12.7705C13.5326 34.5201 14.1505 33.9022 14.1505 33.1401V30.7301C14.1505 29.9679 13.5326 29.3501 12.7705 29.3501Z" fill="#272833"/>
<path d="M11.5717 36.84C12.5714 36.84 13.3817 36.0296 13.3817 35.03C13.3817 34.0303 12.5714 33.22 11.5717 33.22C10.5721 33.22 9.76172 34.0303 9.76172 35.03C9.76172 36.0296 10.5721 36.84 11.5717 36.84Z" fill="#272833"/>
</svg>