<svg width="50" height="50" viewBox="0 0 50 50" fill="none" xmlns="http://www.w3.org/2000/svg">
<path d="M42 14.5H34.5V22L38 21L40.5 19L42 14.5Z" fill="#FFE000"/>
<path d="M29.5 20.5L34.5 22.5V14.5H42L41.5 11.5L38.5 8L34.5 7L31.5 8L28.5 9.5L27 15L29.5 20.5Z" fill="white"/>
<circle cx="34.5" cy="14.5" r="7.5" stroke="#272833" stroke-width="2"/>
<path fill-rule="evenodd" clip-rule="evenodd" d="M8.47916 28.5C6.94708 30.0374 5.99997 32.1581 5.99997 34.5C5.99997 39.1944 9.80555 43 14.5 43C16.8419 43 18.9626 42.0529 20.5 40.5208L8.47916 28.5Z" fill="#FFE000"/>
<path fill-rule="evenodd" clip-rule="evenodd" d="M19.6063 40C21.0855 38.6217 22 36.7203 22 34.6207C22 30.4119 18.3256 27 13.7931 27C11.5319 27 9.48433 27.8491 7.99997 29.2227L19.6063 40Z" fill="white"/>
<circle cx="14.5" cy="34.5" r="7.5" stroke="#272833" stroke-width="2"/>
<circle cx="18" cy="8" r="3" fill="#FFE000" stroke="#272833" stroke-width="2"/>
<line x1="34.5" y1="7" x2="34.5" y2="22" stroke="#272833"/>
<line x1="27" y1="14.5" x2="42" y2="14.5" stroke="#272833"/>
<line x1="9.35355" y1="29.6464" x2="19.9602" y2="40.253" stroke="#272833"/>
<path d="M4.99997 20C4.99997 17.2386 7.23855 15 9.99997 15H16V25H9.99997C7.23855 25 4.99997 22.7614 4.99997 20Z" fill="#FFE000"/>
<path d="M25 20C25 22.7614 22.7614 25 20 25L15 25L15 15L20 15C22.7614 15 25 17.2386 25 20Z" fill="white"/>
<rect x="6" y="16" width="18" height="8" rx="4" stroke="#272833" stroke-width="2"/>
<path fill-rule="evenodd" clip-rule="evenodd" d="M31.7892 38.859C31.8324 38.9031 31.8759 38.947 31.9197 38.9908C35.7414 42.8125 40.4224 44.3276 42.375 42.375C44.3276 40.4224 42.8124 35.7414 38.9908 31.9197C38.947 31.8759 38.903 31.8324 38.859 31.7892L31.7892 38.859Z" fill="#FFE000"/>
<path fill-rule="evenodd" clip-rule="evenodd" d="M39.4384 32.3685C39.3952 32.3245 39.3516 32.2806 39.3078 32.2367C35.4862 28.4151 30.8052 26.8999 28.8526 28.8525C26.8999 30.8052 28.4151 35.4862 32.2368 39.3078C32.2806 39.3516 32.3245 39.3951 32.3685 39.4383L39.4384 32.3685Z" fill="white"/>
<path d="M32.6268 38.2837C30.8041 36.461 29.568 34.4669 29.0137 32.7543C28.4407 30.9843 28.6704 29.8149 29.2426 29.2426C29.8149 28.6704 30.9843 28.4407 32.7543 29.0137C34.4669 29.568 36.461 30.8041 38.2837 32.6268C40.1064 34.4495 41.3425 36.4437 41.8968 38.1562C42.4698 39.9263 42.2401 41.0957 41.6679 41.6679C41.0957 42.2401 39.9263 42.4698 38.1562 41.8969C36.4436 41.3425 34.4495 40.1064 32.6268 38.2837Z" stroke="#272833" stroke-width="2"/>
<line x1="32.6347" y1="38.6586" x2="38.2413" y2="32.6586" stroke="#272833"/>
<line x1="15.5" y1="17" x2="15.5" y2="23" stroke="#272833"/>
</svg>
