<svg width="50" height="48" viewBox="0 0 50 48" fill="none" xmlns="http://www.w3.org/2000/svg">
<path d="M13.387 1H41.387V18.39H5.04697V9.39C5.04171 8.29094 5.25347 7.20166 5.67011 6.18462C6.08675 5.16758 6.70008 4.2428 7.47491 3.46332C8.24975 2.68385 9.17084 2.065 10.1854 1.64229C11.1999 1.21957 12.2879 1.0013 13.387 1Z" fill="white" stroke="#272833" stroke-width="2" stroke-linecap="round" stroke-linejoin="round"/>
<path d="M41.375 1.85998V15.55C42.2959 15.5852 43.2144 15.4342 44.0756 15.1061C44.9368 14.7779 45.723 14.2794 46.387 13.6403C47.051 13.0012 47.5791 12.2347 47.9399 11.3867C48.3007 10.5387 48.4867 9.62659 48.4867 8.70501C48.4867 7.78343 48.3007 6.87133 47.9399 6.02331C47.5791 5.17528 47.051 4.40874 46.387 3.76965C45.723 3.13056 44.9368 2.63208 44.0756 2.30395C43.2144 1.97582 42.2959 1.82477 41.375 1.85998Z" fill="white" stroke="#272833" stroke-width="2" stroke-linejoin="round"/>
<path d="M17.105 18.3899H8.625V21.2199H17.105V18.3899Z" fill="white" stroke="#272833" stroke-linejoin="round"/>
<path d="M44.8152 42.8299H43.0252C38.0852 40.5299 34.5552 33.1199 34.5552 27.5699C34.5532 25.8559 34.8977 24.1592 35.5679 22.5817C36.2381 21.0041 37.2202 19.5784 38.4552 18.3899H25.3752C26.6102 19.5784 27.5923 21.0041 28.2625 22.5817C28.9327 24.1592 29.2772 25.8559 29.2752 27.5699C29.2752 33.1199 25.7452 40.5699 20.8052 42.8299H5.03516C4.57103 42.8299 4.12592 43.0143 3.79773 43.3425C3.46954 43.6707 3.28516 44.1158 3.28516 44.5799C3.28516 45.044 3.46954 45.4891 3.79773 45.8173C4.12592 46.1455 4.57103 46.3299 5.03516 46.3299H44.8152C45.2793 46.3299 45.7244 46.1455 46.0526 45.8173C46.3808 45.4891 46.5652 45.044 46.5652 44.5799C46.5652 44.1158 46.3808 43.6707 46.0526 43.3425C45.7244 43.0143 45.2793 42.8299 44.8152 42.8299Z" fill="white" stroke="#272833" stroke-width="2" stroke-linejoin="round"/>
<path d="M12.8633 21.46V28.61" stroke="#272833" stroke-linecap="round" stroke-linejoin="round"/>
<path d="M8.69531 28.6099C8.69531 27.5066 9.13361 26.4485 9.91376 25.6684C10.6939 24.8882 11.752 24.45 12.8553 24.45C13.9586 24.45 15.0167 24.8882 15.7969 25.6684C16.577 26.4485 17.0153 27.5066 17.0153 28.6099" stroke="#272833" stroke-linecap="round" stroke-linejoin="round"/>
<path d="M21.8867 30.53V34.39C21.8867 38.94 19.1867 42.63 15.8867 42.63H9.88672C6.56672 42.63 3.88672 38.94 3.88672 34.39V30.52" fill="#FFE000"/>
<path d="M21.8867 30.53V34.39C21.8867 38.94 19.1867 42.63 15.8867 42.63H9.88672C6.56672 42.63 3.88672 38.94 3.88672 34.39V30.52" stroke="#272833" stroke-width="2" stroke-linejoin="round"/>
<path d="M22.9552 28.6101H2.76516C2.22392 28.6101 1.78516 29.0489 1.78516 29.5901V30.8901C1.78516 31.4313 2.22392 31.8701 2.76516 31.8701H22.9552C23.4964 31.8701 23.9352 31.4313 23.9352 30.8901V29.5901C23.9352 29.0489 23.4964 28.6101 22.9552 28.6101Z" fill="#FFE000" stroke="#272833" stroke-width="2" stroke-linejoin="round"/>
<path d="M33.7348 12.75C35.5408 12.75 37.0048 11.2859 37.0048 9.47996C37.0048 7.67399 35.5408 6.20996 33.7348 6.20996C31.9289 6.20996 30.4648 7.67399 30.4648 9.47996C30.4648 11.2859 31.9289 12.75 33.7348 12.75Z" fill="#FFE000" stroke="#272833" stroke-width="2" stroke-linejoin="round"/>
</svg>