<svg width="50" height="50" viewBox="0 0 50 50" fill="none" xmlns="http://www.w3.org/2000/svg">
<rect x="7.08105" y="3" width="34.8378" height="37.3784" rx="16" fill="white" stroke="#272833" stroke-width="2"/>
<rect x="7.85138" y="38.0676" width="5.35135" height="10.4324" rx="2.67568" fill="white" stroke="#272833"/>
<rect x="35.7973" y="38.0676" width="5.35135" height="10.4324" rx="2.67568" fill="white" stroke="#272833"/>
<mask id="path-4-inside-1_3760_27066" fill="white">
<path fill-rule="evenodd" clip-rule="evenodd" d="M13.7027 21.054C13.7027 17.5463 10.8591 14.7027 7.35135 14.7027C3.8436 14.7027 1 17.5463 1 21.054C1 23.132 1.99786 24.9768 3.54054 26.1356V33.7568V40.9189V41.9189C3.54054 43.0235 4.43597 43.9189 5.54054 43.9189H6.54054H13.7027L35.2973 43.9189H42.4595C42.4614 43.9189 42.4634 43.9189 42.4654 43.9189H43.4595C44.564 43.9189 45.4595 43.0235 45.4595 41.9189V40.9238C45.4595 40.9221 45.4595 40.9205 45.4595 40.9189L45.4595 33.7568L45.4595 26.1356C47.0021 24.9769 48 23.132 48 21.0541C48 17.5463 45.1564 14.7027 41.6486 14.7027C38.1409 14.7027 35.2973 17.5463 35.2973 21.0541V33.7568H13.7027V21.054Z"/>
</mask>
<path fill-rule="evenodd" clip-rule="evenodd" d="M13.7027 21.054C13.7027 17.5463 10.8591 14.7027 7.35135 14.7027C3.8436 14.7027 1 17.5463 1 21.054C1 23.132 1.99786 24.9768 3.54054 26.1356V33.7568V40.9189V41.9189C3.54054 43.0235 4.43597 43.9189 5.54054 43.9189H6.54054H13.7027L35.2973 43.9189H42.4595C42.4614 43.9189 42.4634 43.9189 42.4654 43.9189H43.4595C44.564 43.9189 45.4595 43.0235 45.4595 41.9189V40.9238C45.4595 40.9221 45.4595 40.9205 45.4595 40.9189L45.4595 33.7568L45.4595 26.1356C47.0021 24.9769 48 23.132 48 21.0541C48 17.5463 45.1564 14.7027 41.6486 14.7027C38.1409 14.7027 35.2973 17.5463 35.2973 21.0541V33.7568H13.7027V21.054Z" fill="white"/>
<path d="M3.54054 26.1356H5.54054V25.1365L4.7417 24.5365L3.54054 26.1356ZM13.7027 43.9189L13.7027 41.9189H13.7027V43.9189ZM35.2973 43.9189V45.9189V43.9189ZM42.4654 43.9189V41.9189L42.4615 41.9189L42.4654 43.9189ZM45.4595 40.9189H47.4595V40.9189L45.4595 40.9189ZM45.4595 33.7568L43.4595 33.7568V33.7568L45.4595 33.7568ZM45.4595 26.1356L44.2583 24.5365L43.4595 25.1365V26.1356L45.4595 26.1356ZM35.2973 33.7568V35.7568H37.2973V33.7568H35.2973ZM13.7027 33.7568H11.7027V35.7568H13.7027V33.7568ZM7.35135 16.7027C9.75454 16.7027 11.7027 18.6509 11.7027 21.054H15.7027C15.7027 16.4417 11.9637 12.7027 7.35135 12.7027V16.7027ZM3 21.054C3 18.6509 4.94817 16.7027 7.35135 16.7027V12.7027C2.73903 12.7027 -1 16.4417 -1 21.054H3ZM4.7417 24.5365C3.68029 23.7392 3 22.4764 3 21.054H-1C-1 23.7876 0.315442 26.2145 2.33939 27.7347L4.7417 24.5365ZM5.54054 33.7568V26.1356H1.54054V33.7568H5.54054ZM5.54054 40.9189V33.7568H1.54054V40.9189H5.54054ZM5.54054 41.9189V40.9189H1.54054V41.9189H5.54054ZM5.54054 41.9189H5.54054H1.54054C1.54054 44.1281 3.3314 45.9189 5.54054 45.9189V41.9189ZM6.54054 41.9189H5.54054V45.9189H6.54054V41.9189ZM13.7027 41.9189H6.54054V45.9189H13.7027V41.9189ZM35.2973 41.9189L13.7027 41.9189L13.7027 45.9189L35.2973 45.9189V41.9189ZM35.2973 45.9189H42.4595V41.9189H35.2973V45.9189ZM42.4595 45.9189C42.4627 45.9189 42.466 45.9189 42.4693 45.9189L42.4615 41.9189C42.4608 41.9189 42.4602 41.9189 42.4595 41.9189V45.9189ZM43.4595 41.9189H42.4654V45.9189H43.4595V41.9189ZM43.4595 41.9189V45.9189C45.6686 45.9189 47.4595 44.1281 47.4595 41.9189H43.4595ZM43.4595 40.9238V41.9189H47.4595V40.9238H43.4595ZM47.4595 40.9238C47.4595 40.9243 47.4595 40.9247 47.4595 40.9237C47.4595 40.9231 47.4595 40.9211 47.4595 40.9189H43.4595C43.4595 40.9184 43.4595 40.918 43.4595 40.919C43.4595 40.9196 43.4595 40.9216 43.4595 40.9238H47.4595ZM43.4595 33.7568L43.4595 40.9189L47.4595 40.9189L47.4595 33.7568L43.4595 33.7568ZM47.4595 33.7568L47.4595 26.1356L43.4595 26.1356L43.4595 33.7568L47.4595 33.7568ZM46.6606 27.7347C48.6846 26.2145 50 23.7876 50 21.0541H46C46 22.4764 45.3197 23.7392 44.2583 24.5365L46.6606 27.7347ZM50 21.0541C50 16.4417 46.261 12.7027 41.6486 12.7027V16.7027C44.0518 16.7027 46 18.6509 46 21.0541H50ZM41.6486 12.7027C37.0363 12.7027 33.2973 16.4417 33.2973 21.0541H37.2973C37.2973 18.6509 39.2455 16.7027 41.6486 16.7027V12.7027ZM33.2973 21.0541V33.7568H37.2973V21.0541H33.2973ZM13.7027 35.7568H35.2973V31.7568H13.7027V35.7568ZM11.7027 21.054V33.7568H15.7027V21.054H11.7027Z" fill="#272833" mask="url(#path-4-inside-1_3760_27066)"/>
<rect x="9.12164" y="30.446" width="30.7568" height="6.62162" rx="3.31081" fill="#FFE000" stroke="#272833"/>
</svg>
