<svg width="48" height="47" viewBox="0 0 48 47" fill="none" xmlns="http://www.w3.org/2000/svg">
<path d="M42.3045 6.20622C41.8534 6.21277 41.4068 6.29735 40.9845 6.45622C41.2927 5.77771 41.3979 5.02448 41.2873 4.28751C41.1768 3.55055 40.8553 2.86134 40.3617 2.30308C39.868 1.74482 39.2234 1.34136 38.5055 1.14146C37.7876 0.94156 37.0271 0.953759 36.316 1.17655C35.6049 1.39935 34.9735 1.82322 34.498 2.39701C34.0225 2.9708 33.7232 3.66994 33.6363 4.41007C33.5495 5.1502 33.6787 5.89968 34.0085 6.56797C34.3382 7.23626 34.8543 7.7948 35.4945 8.17619L9.23456 34.4362C8.82649 33.9257 8.29547 33.5271 7.69128 33.2779C7.0871 33.0286 6.42954 32.9369 5.78021 33.0113C5.13089 33.0856 4.51105 33.3236 3.97885 33.703C3.44665 34.0823 3.01948 34.5907 2.7374 35.1802C2.45531 35.7698 2.32756 36.4213 2.36609 37.0737C2.40461 37.7261 2.60817 38.3581 2.95767 38.9104C3.30718 39.4626 3.79117 39.9171 4.36432 40.2312C4.93747 40.5453 5.58099 40.7088 6.23456 40.7062C6.31289 40.5829 6.42004 40.4805 6.54678 40.4079C6.67352 40.3353 6.81604 40.2947 6.962 40.2895C7.10797 40.2842 7.25301 40.3146 7.38461 40.378C7.51621 40.4413 7.63041 40.5358 7.71735 40.6532C7.80429 40.7705 7.86137 40.9073 7.88364 41.0517C7.9059 41.196 7.89271 41.3436 7.84518 41.4817C7.79766 41.6198 7.71722 41.7443 7.61084 41.8444C7.50445 41.9445 7.37531 42.0172 7.23456 42.0562C7.23113 42.7665 7.42324 43.464 7.78986 44.0724C8.15647 44.6807 8.68345 45.1764 9.31305 45.5052C9.94265 45.834 10.6506 45.9832 11.3593 45.9364C12.0681 45.8897 12.7503 45.6488 13.3312 45.2401C13.9121 44.8314 14.3694 44.2707 14.6529 43.6195C14.9364 42.9682 15.0352 42.2515 14.9384 41.5478C14.8417 40.8442 14.5532 40.1806 14.1045 39.63C13.6558 39.0794 13.0642 38.663 12.3946 38.4262L38.8846 11.9262C39.2052 12.5301 39.6805 13.0381 40.2619 13.398C40.8432 13.758 41.5098 13.9571 42.1933 13.9749C42.8769 13.9927 43.5529 13.8286 44.1522 13.4994C44.7515 13.1702 45.2527 12.6877 45.6043 12.1013C45.956 11.5149 46.1455 10.8455 46.1536 10.1618C46.1617 9.47805 45.988 8.80445 45.6503 8.20988C45.3126 7.6153 44.823 7.12108 44.2317 6.77781C43.6403 6.43454 42.9684 6.25455 42.2846 6.2562L42.3045 6.20622Z" fill="white" stroke="#272833" stroke-width="2" stroke-linejoin="round"/>
<path d="M7.01563 5.41618C7.02033 5.8675 7.10497 6.31441 7.26563 6.73619C6.58539 6.42488 5.8295 6.31739 5.08945 6.42674C4.3494 6.53609 3.6569 6.8576 3.09577 7.35234C2.53463 7.84708 2.12893 8.49387 1.92774 9.2144C1.72655 9.93493 1.73851 10.6983 1.96216 11.4122C2.18581 12.1261 2.61158 12.7598 3.18793 13.2367C3.76428 13.7137 4.46648 14.0133 5.2096 14.0995C5.95271 14.1856 6.70488 14.0545 7.37503 13.722C8.04519 13.3896 8.60462 12.87 8.98563 12.2262L35.2456 38.4962C34.7351 38.9043 34.3366 39.4353 34.0873 40.0395C33.8381 40.6437 33.7464 41.3012 33.8207 41.9505C33.8951 42.5999 34.1331 43.2197 34.5125 43.7519C34.8918 44.2841 35.4001 44.7112 35.9896 44.9933C36.5792 45.2754 37.2307 45.4032 37.8832 45.3647C38.5356 45.3261 39.1676 45.1226 39.7198 44.7731C40.2721 44.4236 40.7266 43.9396 41.0406 43.3664C41.3547 42.7933 41.5182 42.1498 41.5156 41.4962C41.5123 41.0457 41.4311 40.5991 41.2756 40.1762C41.7743 40.4058 42.3166 40.5251 42.8656 40.5262C43.5765 40.5302 44.2748 40.3384 44.8838 39.9718C45.4928 39.6051 45.9891 39.0779 46.3182 38.4477C46.6473 37.8176 46.7964 37.109 46.7493 36.3996C46.7021 35.6903 46.4605 35.0077 46.051 34.4267C45.6414 33.8456 45.0797 33.3886 44.4276 33.1058C43.7754 32.8229 43.0578 32.7252 42.3538 32.8233C41.6497 32.9214 40.9862 33.2115 40.4362 33.6618C39.8861 34.1122 39.4707 34.7053 39.2356 35.3762L12.6856 8.82622C13.2892 8.50578 13.7969 8.03082 14.1568 7.44993C14.5167 6.86905 14.716 6.20306 14.7343 5.51994C14.7525 4.83683 14.5891 4.16108 14.2607 3.56181C13.9322 2.96254 13.4506 2.46118 12.865 2.10899C12.2794 1.7568 11.6108 1.56642 10.9275 1.55723C10.2442 1.54805 9.57069 1.72042 8.97583 2.05675C8.38097 2.39307 7.88605 2.88131 7.54166 3.47154C7.19726 4.06177 7.01575 4.73282 7.01563 5.41618Z" fill="white" stroke="#272833" stroke-width="2" stroke-linejoin="round"/>
<path d="M24.197 31.4463C28.6098 31.4463 32.187 27.8691 32.187 23.4563C32.187 19.0436 28.6098 15.4663 24.197 15.4663C19.7843 15.4663 16.207 19.0436 16.207 23.4563C16.207 27.8691 19.7843 31.4463 24.197 31.4463Z" fill="white"/>
<path d="M35.2462 22.7063C35.2462 19.7889 34.0873 16.991 32.0244 14.9281C29.9615 12.8652 27.1635 11.7063 24.2462 11.7063C21.3288 11.7063 18.5309 12.8652 16.468 14.9281C14.4051 16.991 13.2462 19.7889 13.2462 22.7063C13.1448 25.3452 14.0248 27.9281 15.7162 29.9563H15.5762V36.6562H32.8862V29.9263H32.7462C34.4413 27.9102 35.3317 25.3389 35.2462 22.7063ZM20.5762 25.9263C19.1362 25.9263 17.9662 24.4263 17.9662 22.5763C17.9662 20.7263 19.1362 19.2263 20.5762 19.2263C22.0162 19.2263 23.1862 20.7263 23.1862 22.5763C23.1862 24.4263 22.0162 25.9263 20.5762 25.9263ZM27.9562 25.9263C26.5162 25.9263 25.3462 24.4263 25.3462 22.5763C25.3462 20.7263 26.5162 19.2263 27.9562 19.2263C29.3962 19.2263 30.5662 20.7263 30.5662 22.5763C30.5662 24.4263 29.4062 25.9263 27.9562 25.9263Z" fill="#FFE000" stroke="#272833" stroke-width="2" stroke-linejoin="round"/>
<path d="M20.2266 31.8862V36.6562" stroke="#272833" stroke-linecap="round" stroke-linejoin="round"/>
<path d="M28.1641 31.8862V36.6562" stroke="#272833" stroke-linecap="round" stroke-linejoin="round"/>
<path d="M24.1953 31.8862V36.6562" stroke="#272833" stroke-linecap="round" stroke-linejoin="round"/>
</svg>