<svg width="46" height="50" viewBox="0 0 46 50" fill="none" xmlns="http://www.w3.org/2000/svg">
<path d="M32.5856 19.82L23.3056 14.46L14.0156 19.82V30.55L23.3056 35.91L32.5856 30.55V19.82Z" fill="white" stroke="#272833" stroke-width="2" stroke-linejoin="round"/>
<path d="M28.4258 22.23L23.3058 19.27L18.1758 22.23V28.15L23.3058 31.11L28.4258 28.15V22.23Z" fill="#FFE000" stroke="#272833" stroke-width="2" stroke-linejoin="round"/>
<path d="M23.3047 1V14.21" stroke="#272833" stroke-width="2" stroke-linecap="round" stroke-linejoin="round"/>
<path d="M17.7461 3.48999L22.8561 8.58999" stroke="#272833" stroke-width="2" stroke-linecap="round" stroke-linejoin="round"/>
<path d="M23.7539 8.58999L28.8539 3.48999" stroke="#272833" stroke-width="2" stroke-linecap="round" stroke-linejoin="round"/>
<path d="M23.3047 48.95V35.75" stroke="#272833" stroke-width="2" stroke-linecap="round" stroke-linejoin="round"/>
<path d="M28.8539 46.4701L23.7539 41.3601" stroke="#272833" stroke-width="2" stroke-linecap="round" stroke-linejoin="round"/>
<path d="M22.8561 41.3601L17.7461 46.4701" stroke="#272833" stroke-width="2" stroke-linecap="round" stroke-linejoin="round"/>
<path d="M44.3361 13.47L32.7461 19.81" stroke="#272833" stroke-width="2" stroke-linecap="round" stroke-linejoin="round"/>
<path d="M39.487 9.79004L37.457 16.72" stroke="#272833" stroke-width="2" stroke-linecap="round" stroke-linejoin="round"/>
<path d="M37.8945 17.51L44.8245 19.54" stroke="#272833" stroke-width="2" stroke-linecap="round" stroke-linejoin="round"/>
<path d="M2.26562 36.4899L13.8556 30.1499" stroke="#272833" stroke-width="2" stroke-linecap="round" stroke-linejoin="round"/>
<path d="M7.11328 40.16L9.14328 33.24" stroke="#272833" stroke-width="2" stroke-linecap="round" stroke-linejoin="round"/>
<path d="M8.71516 32.4399L1.78516 30.4199" stroke="#272833" stroke-width="2" stroke-linecap="round" stroke-linejoin="round"/>
<path d="M43.7839 37.4401L32.5039 30.5701" stroke="#272833" stroke-width="2" stroke-linecap="round" stroke-linejoin="round"/>
<path d="M44.5452 31.3999L37.5352 33.1099" stroke="#272833" stroke-width="2" stroke-linecap="round" stroke-linejoin="round"/>
<path d="M37.0664 33.8799L38.7764 40.8899" stroke="#272833" stroke-width="2" stroke-linecap="round" stroke-linejoin="round"/>
<path d="M2.81641 12.51L14.1064 19.38" stroke="#272833" stroke-width="2" stroke-linecap="round" stroke-linejoin="round"/>
<path d="M2.05469 18.5501L9.07469 16.8501" stroke="#272833" stroke-width="2" stroke-linecap="round" stroke-linejoin="round"/>
<path d="M9.54594 16.0801L7.83594 9.06006" stroke="#272833" stroke-width="2" stroke-linecap="round" stroke-linejoin="round"/>
<path d="M17.1133 14.0701L18.7233 16.6201" stroke="#272833" stroke-linecap="round" stroke-linejoin="round"/>
<path d="M28.1758 33.3401L29.7758 35.9001" stroke="#272833" stroke-linecap="round" stroke-linejoin="round"/>
<path d="M10.8242 25.0099L13.8442 24.8899" stroke="#272833" stroke-linecap="round" stroke-linejoin="round"/>
<path d="M33.0469 25.07L36.0669 24.96" stroke="#272833" stroke-linecap="round" stroke-linejoin="round"/>
<path d="M29.6966 13.9099L28.2266 16.5399" stroke="#272833" stroke-linecap="round" stroke-linejoin="round"/>
<path d="M18.095 32.8601L16.625 35.4901" stroke="#272833" stroke-linecap="round" stroke-linejoin="round"/>
</svg>