<svg width="51" height="48" viewBox="0 0 51 48" fill="none" xmlns="http://www.w3.org/2000/svg">
<path d="M14.9049 10.0799L18.4848 30.0799C18.5177 30.2457 18.6078 30.3947 18.7394 30.5008C18.8711 30.6068 19.0358 30.6631 19.2048 30.6599H44.4548C44.6206 30.6622 44.7822 30.608 44.9131 30.5062C45.044 30.4044 45.1363 30.2611 45.1749 30.0999L49.4749 10.0799C49.4942 9.97643 49.4902 9.86994 49.4633 9.76817C49.4363 9.6664 49.3871 9.57189 49.3191 9.49149C49.2511 9.41109 49.1662 9.34681 49.0703 9.3033C48.9745 9.25979 48.8701 9.23814 48.7648 9.23992H15.6148C15.509 9.23626 15.4038 9.25664 15.307 9.29955C15.2102 9.34246 15.1244 9.40676 15.056 9.48763C14.9877 9.56849 14.9385 9.66381 14.9124 9.7664C14.8862 9.869 14.8836 9.97619 14.9049 10.0799V10.0799Z" stroke="#272833" stroke-width="2" stroke-miterlimit="10"/>
<path d="M20.5234 9.28003L23.2834 30.61" stroke="#272833" stroke-miterlimit="10"/>
<path d="M28.2656 9.28003L29.0856 30.61" stroke="#272833" stroke-miterlimit="10"/>
<path d="M43.2863 9.32007L41.1562 30.5601" stroke="#272833" stroke-miterlimit="10"/>
<path d="M35.4453 9.28003V30.61" stroke="#272833" stroke-miterlimit="10"/>
<path d="M6.34375 2.07988C6.34375 2.07988 13.5137 0.309882 14.6137 9.22988C15.8637 19.3099 18.7538 33.0799 18.7538 33.0799C18.7538 33.0799 19.3038 36.7799 23.7538 36.7799H42.2338" stroke="#272833" stroke-width="2" stroke-miterlimit="10" stroke-linecap="round"/>
<path d="M24.9662 46.6901C26.6562 46.6901 28.0262 45.3201 28.0262 43.6301C28.0262 41.9401 26.6562 40.5701 24.9662 40.5701C23.2763 40.5701 21.9062 41.9401 21.9062 43.6301C21.9062 45.3201 23.2763 46.6901 24.9662 46.6901Z" fill="#FFE000" stroke="#272833" stroke-width="2" stroke-miterlimit="10"/>
<path d="M39.8452 46.6901C41.5351 46.6901 42.9052 45.3201 42.9052 43.6301C42.9052 41.9401 41.5351 40.5701 39.8452 40.5701C38.1552 40.5701 36.7852 41.9401 36.7852 43.6301C36.7852 45.3201 38.1552 46.6901 39.8452 46.6901Z" fill="#FFE000" stroke="#272833" stroke-width="2" stroke-miterlimit="10"/>
<path d="M15.957 19.3701H47.637" stroke="#272833" stroke-miterlimit="10"/>
<path d="M9.13516 1H3.53516C2.56866 1 1.78516 1.7835 1.78516 2.75C1.78516 3.7165 2.56866 4.5 3.53516 4.5H9.13516C10.1017 4.5 10.8852 3.7165 10.8852 2.75C10.8852 1.7835 10.1017 1 9.13516 1Z" fill="#FFE000" stroke="#272833" stroke-width="2" stroke-miterlimit="10"/>
</svg>
